<?xml version="1.0" encoding="UTF-8"?>
<svg version="1.1" xmlns="http://www.w3.org/2000/svg" width="1704" height="400">
<path d="M0 0 C2.68701172 1.26831055 2.68701172 1.26831055 5.4296875 2.88671875 C6.9755957 3.78934448 6.9755957 3.78934448 8.55273438 4.71020508 C9.64908203 5.3627124 10.74542969 6.01521973 11.875 6.6875 C13.0313675 7.36638812 14.18827755 8.04435289 15.34570312 8.72143555 C17.72917552 10.11763326 20.10956542 11.51886582 22.48730469 12.92480469 C27.81334243 16.07372247 33.15683131 19.19276776 38.5 22.3125 C39.49773437 22.89612305 40.49546875 23.47974609 41.5234375 24.08105469 C47.97352215 27.84573703 54.4694908 31.5122551 61.01171875 35.11376953 C70.9492762 40.6010487 80.74974098 46.32927539 90.57275391 52.01806641 C94.01828182 54.01057215 97.46747826 55.9965708 100.91796875 57.98046875 C102.05234375 58.63313721 103.18671875 59.28580566 104.35546875 59.95825195 C106.48904421 61.18558936 108.623113 62.41206984 110.7578125 63.63745117 C112.71097504 64.7621388 114.65396672 65.90474334 116.58450317 67.06784058 C119.01152201 68.44081428 121.27220163 69.58206564 123.80929565 70.67930603 C133.63775616 75.22550706 133.63775616 75.22550706 135.90753365 79.84838104 C137.42955361 85.23113222 137.33178881 90.77251564 137.30859375 96.32421875 C137.34162369 98.1163354 137.37773546 99.90839762 137.41676331 101.70039368 C137.47931473 105.44994367 137.48344918 109.19422234 137.44995117 112.9440918 C137.42186865 116.77153607 137.48404604 120.57948888 137.63452148 124.40405273 C138.82778593 154.98257627 138.82778593 154.98257627 132.65533447 163.07336426 C127.04360061 167.87462964 120.84721817 170.61374969 113.89932251 172.95819092 C109.78127628 174.43792211 106.20327272 176.57672631 102.5 178.875 C100.66734858 179.91786593 98.83434129 180.96010934 97 182 C100.64913561 185.0559117 104.40097612 187.5412238 108.50390625 189.94921875 C109.44400291 190.50366165 109.44400291 190.50366165 110.40309143 191.06930542 C111.75111498 191.86398967 113.10012007 192.65701085 114.45001221 193.44851685 C118.07457239 195.57433695 121.69129122 197.71342381 125.30859375 199.8515625 C126.41164856 200.50304008 126.41164856 200.50304008 127.5369873 201.16767883 C134.43285883 205.24520161 141.28445269 209.39300946 148.125 213.5625 C155.52884334 218.07480325 162.94014186 222.57282374 170.37890625 227.02734375 C171.42343964 227.65292931 171.42343964 227.65292931 172.48907471 228.29115295 C175.88147466 230.32215074 179.27521359 232.35087834 182.67041016 234.37719727 C183.88836334 235.10560312 185.1063004 235.83403591 186.32421875 236.5625 C187.39760498 237.20316406 188.47099121 237.84382812 189.5769043 238.50390625 C192 240 192 240 193 241 C198.61282791 273.30077701 198.61282791 273.30077701 191.78070068 283.88977051 C184.97483695 291.45259255 174.49346641 295.20364804 165.32617188 299.07421875 C158.81037415 301.880161 152.96965488 305.70065557 147 309.5 C144.71564167 310.90795279 142.42086118 312.29840345 140.125 313.6875 C139.2638559 314.21059753 139.2638559 314.21059753 138.38531494 314.7442627 C130.61342733 319.46058934 122.78226639 324.07767295 114.95898438 328.70800781 C105.60315969 334.24705071 96.28309988 339.83996139 87 345.5 C77.04179572 351.57165941 67.03692517 357.5594014 57 363.5 C47.21224235 369.29334186 37.44905239 375.12336778 27.73175049 381.03424072 C25.96592339 382.10772088 24.1987117 383.17888677 22.43115234 384.24951172 C17.63904948 387.15663229 12.85845864 390.07343876 8.13671875 393.09375 C7.4413501 393.53187012 6.74598145 393.96999023 6.02954102 394.42138672 C4.3060017 395.51061231 2.59370341 396.61757538 0.8828125 397.7265625 C-2.71458342 399.31565609 -4.21348745 398.9382381 -8 398 C-10.93408203 396.51635742 -10.93408203 396.51635742 -14.0078125 394.60546875 C-14.56594635 394.26245224 -15.1240802 393.91943573 -15.6991272 393.56602478 C-17.51329855 392.44855584 -19.31892915 391.31800447 -21.125 390.1875 C-22.39679728 389.40175683 -23.66926578 388.6170991 -24.94238281 387.83349609 C-27.47798949 386.27191279 -30.01104394 384.70632853 -32.54199219 383.13720703 C-36.92059659 380.42618101 -41.32981663 377.76759402 -45.75 375.125 C-46.51779785 374.66464355 -47.2855957 374.20428711 -48.07666016 373.72998047 C-53.16245302 370.68461381 -58.25945523 367.65833877 -63.359375 364.63671875 C-66.07297846 363.02875008 -68.78652659 361.42068811 -71.5 359.8125 C-72.18735229 359.40517639 -72.87470459 358.99785278 -73.58288574 358.57818604 C-83.66351772 352.60200079 -93.70095506 346.55988295 -103.70678711 340.4593811 C-113.09695942 334.73638757 -122.53671819 329.10117738 -132 323.5 C-139.80810097 318.87809721 -147.6115977 314.25006075 -155.37109375 309.546875 C-155.96284393 309.18948242 -156.55459412 308.83208984 -157.16427612 308.46386719 C-160.08008537 306.69878082 -162.97873764 304.91285649 -165.85253906 303.08007812 C-171.5455783 299.49538907 -177.02014592 296.48241141 -183.30078125 294.046875 C-190.33775462 291.10924089 -196.54900704 288.41932778 -201 282 C-205.8518594 269.84253327 -205.98565893 253.12861085 -201 241 C-195.61493393 233.55498058 -187.48980569 230.13135273 -179.23794556 226.70883179 C-171.92812645 223.67304989 -165.33165521 219.63920298 -158.60421753 215.49890137 C-155.90638291 213.84865872 -153.18473566 212.24034844 -150.46138 210.63269043 C-141.74570923 205.4873243 -133.13365342 200.18153417 -124.546875 194.82421875 C-118.08397242 190.79523536 -111.54627269 186.89156303 -105 183 C-114.54799906 176.99520372 -124.27296803 171.31028321 -134.03515625 165.66162109 C-135.04964844 165.0733252 -136.06414062 164.4850293 -137.109375 163.87890625 C-138.48561035 163.08335327 -138.48561035 163.08335327 -139.88964844 162.27172852 C-142 161 -142 161 -143 160 C-143.09506052 157.44410112 -143.12556761 154.91532028 -143.11352539 152.35913086 C-143.11367142 151.55919205 -143.11381744 150.75925323 -143.1139679 149.93507385 C-143.11326855 147.27830335 -143.10547518 144.62160207 -143.09765625 141.96484375 C-143.09579215 140.12781309 -143.09436821 138.29078194 -143.09336853 136.45375061 C-143.08954275 131.60890338 -143.07971196 126.76408592 -143.06866455 121.91925049 C-143.05845172 116.97937422 -143.05387119 112.03949315 -143.04882812 107.09960938 C-143.03808974 97.39972647 -143.0210126 87.69986571 -143 78 C-142.21562057 77.55262482 -141.43124115 77.10524963 -140.62309265 76.64431763 C-137.65063039 74.94854331 -134.67850471 73.25218185 -131.70658875 71.55545044 C-130.43195855 70.8278875 -129.15720313 70.10054389 -127.88230896 69.3734436 C-119.49611518 64.59036479 -111.13802437 59.76323056 -102.8125 54.875 C-94.75796507 50.15791482 -86.6552727 45.54074565 -78.5 41 C-68.30843026 35.3247534 -58.21529528 29.4973699 -48.15234375 23.59765625 C-40.42761783 19.07100944 -32.66586235 14.60878545 -24.90258789 10.14868164 C-23.88543701 9.5633667 -22.86828613 8.97805176 -21.8203125 8.375 C-20.35126465 7.53582031 -20.35126465 7.53582031 -18.85253906 6.6796875 C-16.95340139 5.56140034 -15.07931359 4.39942517 -13.23339844 3.1953125 C-11.93837402 2.35613281 -11.93837402 2.35613281 -10.6171875 1.5 C-9.86808105 0.9946875 -9.11897461 0.489375 -8.34716797 -0.03125 C-5.14129576 -1.35441423 -3.31842095 -0.91006951 0 0 Z " fill="#4690DA" transform="translate(203,1)"/>
<path d="M0 0 C2.68701172 1.26831055 2.68701172 1.26831055 5.4296875 2.88671875 C6.9755957 3.78934448 6.9755957 3.78934448 8.55273438 4.71020508 C9.64908203 5.3627124 10.74542969 6.01521973 11.875 6.6875 C13.0313675 7.36638812 14.18827755 8.04435289 15.34570312 8.72143555 C17.72917552 10.11763326 20.10956542 11.51886582 22.48730469 12.92480469 C27.81334243 16.07372247 33.15683131 19.19276776 38.5 22.3125 C39.49773437 22.89612305 40.49546875 23.47974609 41.5234375 24.08105469 C47.97352215 27.84573703 54.4694908 31.5122551 61.01171875 35.11376953 C70.9492762 40.6010487 80.74974098 46.32927539 90.57275391 52.01806641 C94.01828182 54.01057215 97.46747826 55.9965708 100.91796875 57.98046875 C112.34193413 64.55092331 123.7434731 71.14577817 135 78 C132.50615208 80.79563775 129.74784919 82.43253404 126.49609375 84.265625 C125.37589844 84.90081055 124.25570313 85.53599609 123.1015625 86.19042969 C122.50504883 86.52570679 121.90853516 86.86098389 121.29394531 87.2064209 C119.41084828 88.26498195 117.53116331 89.32937519 115.65234375 90.39550781 C113.05017999 91.87197412 110.44704522 93.34670472 107.84326172 94.8203125 C102.04712508 98.1040325 96.2713385 101.42289631 90.5 104.75 C88.88242798 105.68247559 88.88242798 105.68247559 87.23217773 106.63378906 C80.78389078 110.36180486 74.37540393 114.14884136 68 118 C47.87910955 130.15432651 27.36953083 141.66736997 6.95239258 153.31518555 C5.97810303 153.87117432 5.00381348 154.42716309 4 155 C2.80239044 155.53391861 1.60478088 156.06783722 0.37088013 156.61793518 C-1.50502678 157.62311692 -1.50502678 157.62311692 -3 159 C-3.73733384 161.94861921 -3.9501716 163.84308989 -3.88647461 166.79785156 C-3.89725037 167.57872131 -3.90802612 168.35959106 -3.91912842 169.16412354 C-3.94649891 171.74058635 -3.92465209 174.31415322 -3.90234375 176.890625 C-3.91172757 178.67854631 -3.92418458 180.46645393 -3.93959045 182.2543335 C-3.97185071 186.95640686 -3.96236181 191.65750611 -3.94421387 196.35961914 C-3.93306542 201.15912588 -3.96135011 205.95838186 -3.98632812 210.7578125 C-4.02950558 220.17204895 -4.02858508 229.5857271 -4 239 C-7.5921768 237.59629093 -10.85737214 236.03056306 -14.19140625 234.0859375 C-15.20460938 233.49772217 -16.2178125 232.90950684 -17.26171875 232.3034668 C-18.35097656 231.66707275 -19.44023437 231.03067871 -20.5625 230.375 C-22.30558076 229.36309134 -24.04867025 228.35119747 -25.79220581 227.34007263 C-27.00540319 226.63645671 -28.21839243 225.9324818 -29.43118286 225.22816467 C-36.10497958 221.35363382 -42.80002858 217.51654516 -49.5 213.6875 C-50.09241486 213.34865784 -50.68482971 213.00981567 -51.29519653 212.66070557 C-59.03090547 208.23753917 -66.7993093 203.87997201 -74.61035156 199.59130859 C-80.24521875 196.47412005 -85.74814445 193.15768598 -91.25 189.8125 C-97.87706187 185.78543585 -104.51774677 182.14929107 -111.5 178.7734375 C-115.65841335 176.66638431 -119.67278741 174.36693258 -123.6875 172 C-124.68463013 171.4129126 -124.68463013 171.4129126 -125.7019043 170.81396484 C-127.02041132 170.02908168 -128.32642896 169.22277848 -129.61808777 168.39445496 C-132.00673204 166.91971355 -132.00673204 166.91971355 -134.78848267 165.86705017 C-138.22172574 164.25566407 -140.44077579 162.8213941 -143 160 C-144.57827435 153.79669429 -144.28379059 147.73817819 -144.07421875 141.37890625 C-144.05368483 139.55049835 -144.03803501 137.72202965 -144.02705383 135.89353943 C-143.98518623 131.09639381 -143.87726736 126.30295186 -143.75531006 121.50726318 C-143.64248306 116.6075654 -143.59248134 111.70726488 -143.53710938 106.80664062 C-143.41937476 97.20280564 -143.23181274 87.60171155 -143 78 C-142.21562057 77.55262482 -141.43124115 77.10524963 -140.62309265 76.64431763 C-137.65063039 74.94854331 -134.67850471 73.25218185 -131.70658875 71.55545044 C-130.43195855 70.8278875 -129.15720313 70.10054389 -127.88230896 69.3734436 C-119.49611518 64.59036479 -111.13802437 59.76323056 -102.8125 54.875 C-94.75796507 50.15791482 -86.6552727 45.54074565 -78.5 41 C-68.30843026 35.3247534 -58.21529528 29.4973699 -48.15234375 23.59765625 C-40.42761783 19.07100944 -32.66586235 14.60878545 -24.90258789 10.14868164 C-23.88543701 9.5633667 -22.86828613 8.97805176 -21.8203125 8.375 C-20.84094727 7.81554688 -19.86158203 7.25609375 -18.85253906 6.6796875 C-16.95340139 5.56140034 -15.07931359 4.39942517 -13.23339844 3.1953125 C-11.93837402 2.35613281 -11.93837402 2.35613281 -10.6171875 1.5 C-9.86808105 0.9946875 -9.11897461 0.489375 -8.34716797 -0.03125 C-5.14129576 -1.35441423 -3.31842095 -0.91006951 0 0 Z " fill="#5ED1E4" transform="translate(203,1)"/>
<path d="M0 0 C0.55893197 10.31647726 0.98381204 20.62930449 1.24349213 30.95789528 C1.36823162 35.75637735 1.53681443 40.54443839 1.81054688 45.33691406 C3.53124244 76.25442408 3.53124244 76.25442408 -2.29110718 84.07897949 C-7.89013461 88.90527839 -14.10619529 91.61753096 -21.06185913 93.94992065 C-25.29676707 95.46345917 -28.98818488 97.66721009 -32.8125 100 C-34.07990262 100.71703563 -35.35063528 101.42822464 -36.625 102.1328125 C-37.73875 102.74898438 -38.8525 103.36515625 -40 104 C-41.76976759 104.96030003 -43.54052395 105.91878122 -45.3125 106.875 C-57.19465381 113.32684823 -68.85932628 120.19736412 -80.3359375 127.34375 C-82.8753562 128.92250884 -85.43188374 130.46846885 -88 132 C-85.23827821 135.19844745 -81.69950543 137.10526141 -78.09375 139.203125 C-77.41380981 139.6040033 -76.73386963 140.00488159 -76.0333252 140.41790771 C-73.85804908 141.69957806 -71.67927308 142.97513972 -69.5 144.25 C-63.9896915 147.48279724 -58.48861364 150.7305043 -53 154 C-52.11248047 154.52460815 -52.11248047 154.52460815 -51.20703125 155.05981445 C-49.62058242 156.00211193 -48.04426893 156.96141442 -46.46875 157.921875 C-45.59669922 158.4487793 -44.72464844 158.97568359 -43.82617188 159.51855469 C-43.22353516 160.00743164 -42.62089844 160.49630859 -42 161 C-42 161.99 -42 162.98 -42 164 C-44.21777344 165.63134766 -44.21777344 165.63134766 -47.359375 167.4140625 C-48.20986168 167.90383575 -48.20986168 167.90383575 -49.07752991 168.40350342 C-50.31216171 169.11307893 -51.54969709 169.81762015 -52.78970337 170.51776123 C-56.14217627 172.41134607 -59.47343643 174.34176395 -62.80859375 176.265625 C-63.83958443 176.85813553 -63.83958443 176.85813553 -64.8914032 177.46261597 C-71.59974345 181.3244127 -78.21041798 185.3344571 -84.8125 189.375 C-96.65383058 196.60608095 -108.56863275 203.70762702 -120.51879883 210.75732422 C-121.17371811 211.14449112 -121.82863739 211.53165802 -122.50340271 211.93055725 C-124.27673489 212.97883841 -126.05116906 214.02525476 -127.82568359 215.0715332 C-131.05419773 216.96471697 -131.05419773 216.96471697 -134.10009766 219.30932617 C-137 221 -137 221 -139.55053711 220.92382812 C-142.27424703 219.89656626 -144.67385131 218.68394268 -147.19140625 217.21875 C-148.20485107 216.6323877 -149.2182959 216.04602539 -150.26245117 215.44189453 C-151.35146729 214.80106934 -152.4404834 214.16024414 -153.5625 213.5 C-154.69985596 212.83726074 -155.83721191 212.17452148 -157.0090332 211.49169922 C-169.12593621 204.4136291 -181.10124705 197.09973054 -193.07470703 189.78271484 C-196.57932301 187.64695238 -200.09873103 185.53723289 -203.625 183.4375 C-214.82137577 176.74358139 -225.89893126 169.85034704 -237 163 C-233.9262 159.63851132 -230.7301504 157.47924851 -226.79296875 155.20703125 C-226.19486893 154.85915054 -225.5967691 154.51126984 -224.98054504 154.15284729 C-223.05298913 153.0332966 -221.12055861 151.92251814 -219.1875 150.8125 C-216.55479412 149.2924277 -213.92380938 147.76939142 -211.29296875 146.24609375 C-210.33268265 145.69136383 -210.33268265 145.69136383 -209.35299683 145.12542725 C-205.83934736 143.08985128 -202.36236572 141.01201931 -198.92578125 138.84765625 C-198.24040283 138.41799561 -197.55502441 137.98833496 -196.84887695 137.5456543 C-195.14262699 136.4653072 -193.44585214 135.37003419 -191.75 134.2734375 C-188.45069893 132.74563615 -187.43468779 133.03837687 -184 134 C-181.67016602 135.10058594 -181.67016602 135.10058594 -179.25390625 136.484375 C-178.33158203 137.00902344 -177.40925781 137.53367188 -176.45898438 138.07421875 C-175.50314453 138.62722656 -174.54730469 139.18023437 -173.5625 139.75 C-172.67240234 140.25660156 -171.78230469 140.76320312 -170.86523438 141.28515625 C-160.17286036 147.40134016 -149.59763618 153.72174878 -139 160 C-139.05329468 159.02884247 -139.10658936 158.05768494 -139.16149902 157.05709839 C-139.6505188 147.85162763 -140.00885646 138.64881745 -140.24349213 129.43325615 C-140.3682231 124.69523651 -140.53677992 119.96777423 -140.81054688 115.23583984 C-142.52458325 84.81343543 -142.52458325 84.81343543 -136.79953003 76.99487305 C-131.21809966 72.14163905 -124.88565104 69.47887428 -117.95550537 67.07208252 C-114.03399489 65.64959049 -110.65709874 63.67731458 -107.12890625 61.484375 C-104.94058322 60.23874135 -102.75179475 58.99392498 -100.5625 57.75 C-90.32417397 51.91764583 -80.13202918 46.0150995 -70 40 C-55.12249938 31.17126349 -40.18931847 22.44708696 -25.1875 13.83105469 C-22.02995851 12.01720962 -18.87433616 10.20005655 -15.71875 8.3828125 C-13.79181552 7.27578252 -11.86473957 6.16899875 -9.9375 5.0625 C-9.04474365 4.5480835 -8.1519873 4.03366699 -7.23217773 3.50366211 C-6.01703491 2.80768921 -6.01703491 2.80768921 -4.77734375 2.09765625 C-4.06827881 1.69039307 -3.35921387 1.28312988 -2.62866211 0.86352539 C-1 0 -1 0 0 0 Z " fill="#2F95D3" transform="translate(338,80)"/>
<path d="M0 0 C2.34119243 -0.00963057 4.68147624 -0.04069735 7.02246094 -0.07226562 C32.51505335 -0.2513029 62.02252372 5.82714163 80.87402344 24.24023438 C89.24852768 33.23241218 92.62383557 40.26148894 92.35839844 52.63085938 C90.87308573 63.69883471 83.92698542 71.96240637 75.49902344 78.67773438 C48.29707128 98.48821361 11.40849164 102.00419885 -21.15356445 97.36499023 C-24.5159036 96.7816071 -27.80738067 96.0404386 -31.12597656 95.24023438 C-32.38152344 94.97339844 -33.63707031 94.7065625 -34.93066406 94.43164062 C-49.09510751 91.11875105 -62.3913295 85.19575383 -73.12597656 75.24023438 C-74.03347656 74.43585938 -74.94097656 73.63148437 -75.87597656 72.80273438 C-81.02107621 66.94303755 -85.18165927 61.10954512 -86.12597656 53.24023438 C-86.23167969 52.4075 -86.33738281 51.57476562 -86.44628906 50.71679688 C-87.07677642 41.14983655 -82.90554854 33.46470454 -77.12597656 26.05273438 C-57.70773916 5.52731677 -26.82119194 0.06636171 0 0 Z " fill="#3296D3" transform="translate(196.1259765625,30.759765625)"/>
<path d="M0 0 C93.75110424 0 93.75110424 0 107.9375 13.25 C116.81485412 22.8349693 119.55142102 33.92544899 119.3125 46.72265625 C118.29947514 57.34675446 113.05424808 65.627985 105.125 72.5 C104.09036153 73.34204343 103.05130638 74.17886129 102 75 C104.68642689 77.06788164 107.43281678 78.9024033 110.3125 80.6875 C119.3422096 86.73696062 124.2839646 94.60969955 127.61328125 104.89453125 C129.82695402 116.94674968 127.721828 129.36833043 121.3125 139.8125 C113.13785068 150.97837438 101.55085474 157.65046847 88 160 C81.24299859 160.52409239 74.44696542 160.35081354 67.67578125 160.29296875 C65.93957814 160.28854912 64.20337101 160.285494 62.46716309 160.28381348 C56.0822138 160.26818652 49.6973505 160.2263029 43.3125 160.1875 C21.8728125 160.0946875 21.8728125 160.0946875 0 160 C0 107.2 0 54.4 0 0 Z M30 26 C30 39.53 30 53.06 30 67 C39.6215625 67.0928125 39.6215625 67.0928125 49.4375 67.1875 C51.44384521 67.21481201 53.45019043 67.24212402 55.51733398 67.27026367 C57.13524781 67.27903821 58.75316835 67.28667985 60.37109375 67.29296875 C61.18872192 67.30831665 62.0063501 67.32366455 62.84875488 67.33947754 C69.91218373 67.34263508 76.65804096 66.07030318 82.375 61.6875 C86.93688041 57.01700339 88.66380307 52.49980728 89 46 C88.17235478 39.34004235 85.53148446 34.39824844 80.625 29.75 C74.70183507 25.80122338 69.0998821 25.72476427 62.2265625 25.8046875 C60.8409462 25.80893234 60.8409462 25.80893234 59.42733765 25.81326294 C56.49309024 25.82440821 53.5591543 25.84950235 50.625 25.875 C48.62891068 25.88503711 46.63281654 25.89416168 44.63671875 25.90234375 C39.75759757 25.92262272 34.87914517 25.96178215 30 26 Z M30 90 C30 104.52 30 119.04 30 134 C36.93871733 134.11521855 43.87407409 134.21463299 50.81298828 134.2746582 C53.16987395 134.29969708 55.52668279 134.33373841 57.88330078 134.37719727 C61.28437328 134.4383159 64.6844132 134.46631727 68.0859375 134.48828125 C69.64905167 134.52699089 69.64905167 134.52699089 71.2437439 134.56648254 C78.52368728 134.56923108 83.88580903 133.01584623 90 129 C92.28560125 126.8033169 92.28560125 126.8033169 93.5625 124.375 C94.01753906 123.61960938 94.47257813 122.86421875 94.94140625 122.0859375 C97.81421646 116.42512329 98.10486853 109.75655299 96.31640625 103.67578125 C93.39454191 97.31072407 88.64260815 93.29105326 82.16427612 90.6109314 C77.66686319 89.34140265 73.01490287 89.63915509 68.37890625 89.70703125 C67.27900864 89.71127609 66.17911102 89.71552094 65.04588318 89.71989441 C61.55116755 89.73661598 58.05703979 89.77425705 54.5625 89.8125 C52.18555523 89.82755522 49.80860138 89.84124216 47.43164062 89.85351562 C41.62068796 89.88393946 35.81099793 89.94267558 30 90 Z " fill="#0A4AAC" transform="translate(852,120)"/>
<path d="M0 0 C9.9 0 19.8 0 30 0 C30 21.78 30 43.56 30 66 C56.4 66 82.8 66 110 66 C110 44.22 110 22.44 110 0 C119.9 0 129.8 0 140 0 C140 52.8 140 105.6 140 160 C130.1 160 120.2 160 110 160 C110 137.89 110 115.78 110 93 C83.6 93 57.2 93 30 93 C30 115.11 30 137.22 30 160 C20.1 160 10.2 160 0 160 C0 107.2 0 54.4 0 0 Z " fill="#0A4AAB" transform="translate(1563,120)"/>
<path d="M0 0 C0.68320313 0.60328125 1.36640625 1.2065625 2.0703125 1.828125 C14.45881562 13.41585035 19.502025 27.67611668 23 44 C12.77 44 2.54 44 -8 44 C-8.99 41.545625 -9.98 39.09125 -11 36.5625 C-15.62707584 25.73612586 -21.96920562 17.7940969 -33 13 C-49.24145082 7.55224063 -64.31967369 7.35818331 -80.125 14.625 C-93.64874251 21.81998458 -101.73517181 32.71252581 -106.2734375 47.17578125 C-110.34247839 62.99253698 -108.63594219 79.49202218 -101.125 94 C-94.25150617 105.55841251 -84.85499019 112.85390106 -72 117 C-70.97712891 117.33837891 -70.97712891 117.33837891 -69.93359375 117.68359375 C-56.50313732 121.37888062 -41.46756455 119.4901415 -29.1875 113.25 C-18.94705305 107.19682333 -14.8839459 99.57973504 -10 89 C-9.01 87.02 -9.01 87.02 -8 85 C2.23 85 12.46 85 23 85 C18.45665496 105.71765339 9.94206094 122.55271576 -7.69921875 135 C-28.06235665 147.33837468 -52.00675722 151.13279656 -75.21875 145.97265625 C-98.01939917 140.10761323 -116.2282642 126.22854162 -128.75 106.375 C-139.5440266 87.0122556 -142.36582357 63.30135049 -136.83837891 41.85546875 C-130.68726607 20.27188568 -116.93402094 2.02214111 -97.4375 -9.1171875 C-66.59274447 -25.15921437 -26.5938709 -24.13740893 0 0 Z " fill="#0A4AAC" transform="translate(1506,136)"/>
<path d="M0 0 C11.69296044 11.07969328 19.3800718 23.45130998 23.234375 39.1171875 C23.234375 41.0971875 23.234375 43.0771875 23.234375 45.1171875 C13.334375 45.1171875 3.434375 45.1171875 -6.765625 45.1171875 C-8.415625 41.1571875 -10.065625 37.1971875 -11.765625 33.1171875 C-18.16006736 21.82431103 -26.64109617 15.65589241 -38.90625 11.84375 C-54.47881679 7.88678631 -69.81656503 10.00279364 -83.6953125 18.0625 C-95.77675528 26.14753677 -103.5727191 38.56167733 -106.41699219 52.79370117 C-108.71239145 68.09154064 -107.17162639 84.75818541 -98.4453125 97.84765625 C-97.61386719 98.97107422 -97.61386719 98.97107422 -96.765625 100.1171875 C-96.19070313 100.89707031 -95.61578125 101.67695313 -95.0234375 102.48046875 C-86.70295392 112.75160513 -74.68691705 118.32953302 -61.765625 120.1171875 C-45.99323416 120.99156311 -32.08334521 119.0323126 -19.66796875 108.3046875 C-13.88027723 102.19899095 -9.79716531 94.24334872 -7.765625 86.1171875 C2.464375 86.1171875 12.694375 86.1171875 23.234375 86.1171875 C21.09591539 105.363324 11.96891868 120.79800578 -2.765625 133.1171875 C-19.95999313 146.31546653 -42.45999063 151.26174555 -63.80957031 148.89013672 C-81.91968906 146.45339317 -98.03672628 139.1471924 -111.765625 127.1171875 C-112.45398438 126.52421875 -113.14234375 125.93125 -113.8515625 125.3203125 C-128.37052639 111.89170558 -137.2184493 91.43574067 -138.15234375 71.87109375 C-138.81865205 46.72942752 -132.5205108 26.09753141 -115.765625 7.1171875 C-103.26576388 -6.01274792 -85.80965199 -15.2716175 -67.765625 -17.8828125 C-66.97800781 -18.00398438 -66.19039062 -18.12515625 -65.37890625 -18.25 C-42.25940966 -21.08377985 -17.84507046 -15.3898762 0 0 Z " fill="#0A4AAC" transform="translate(616.765625,134.8828125)"/>
<path d="M0 0 C36.63 0 73.26 0 111 0 C111 8.91 111 17.82 111 27 C84.6 27 58.2 27 31 27 C31 39.87 31 52.74 31 66 C53.77 66 76.54 66 100 66 C100 74.58 100 83.16 100 92 C77.23 92 54.46 92 31 92 C31 105.53 31 119.06 31 133 C57.73 133 84.46 133 112 133 C112 141.91 112 150.82 112 160 C75.04 160 38.08 160 0 160 C0 107.2 0 54.4 0 0 Z " fill="#0A4BAB" transform="translate(1232,120)"/>
<path d="M0 0 C9.9 0 19.8 0 30 0 C30.01458252 2.99151123 30.02916504 5.98302246 30.04418945 9.06518555 C30.09469612 18.9878044 30.16131908 28.91026898 30.23571491 38.83273602 C30.28029911 44.84428739 30.31958131 50.85577285 30.34643555 56.86743164 C30.37258803 62.67716358 30.41307407 68.48664023 30.46318626 74.29621315 C30.47977452 76.50434996 30.49133855 78.71253085 30.49761391 80.92072105 C30.3933389 105.89978625 30.3933389 105.89978625 42.84765625 126.875 C52.29620117 134.63561185 63.20673027 136.09273769 75.02294922 135.22753906 C83.9050175 134.20530053 92.12160043 129.83037038 97.71875 122.859375 C104.24427868 113.4549366 106.13719336 105.18416745 106.20532227 93.88549805 C106.21522186 92.87039658 106.22512146 91.8552951 106.23532104 90.80943298 C106.26686282 87.46021849 106.29166458 84.11098981 106.31640625 80.76171875 C106.33698209 78.43715551 106.35797873 76.11259596 106.37937927 73.78804016 C106.43453479 67.6741332 106.48397285 61.56019284 106.53222656 55.44622803 C106.58248918 49.20565829 106.6381504 42.96513697 106.69335938 36.72460938 C106.80086123 24.48311277 106.90182496 12.24157496 107 0 C116.9 0 126.8 0 137 0 C137.0907077 13.9354935 137.16394993 27.87078788 137.20724869 41.80651093 C137.22803972 48.27883455 137.25620134 54.75094408 137.30175781 61.22314453 C137.34551931 67.48015927 137.36920075 73.73696928 137.37950897 79.99412537 C137.38684625 82.37010415 137.4011727 84.74607292 137.42292023 87.1219635 C137.62068936 109.64291748 135.31890121 128.96439029 119 146 C103.02030662 160.35385248 83.20050161 165.25999862 62.18261719 164.16845703 C44.92746327 162.83668341 27.81397257 155.97255565 15.83984375 143.21484375 C4.21557925 129.22130241 -0.36253311 112.95109775 -0.22705078 95.02075195 C-0.22748886 93.4675248 -0.22748886 93.4675248 -0.22793579 91.88291931 C-0.22655585 88.50128442 -0.21105816 85.11987708 -0.1953125 81.73828125 C-0.19157761 79.37745789 -0.18873289 77.01663297 -0.18673706 74.6558075 C-0.17913807 68.47286625 -0.15952194 62.29002049 -0.1373291 56.1071167 C-0.1167899 49.78561698 -0.10771814 43.46410167 -0.09765625 37.14257812 C-0.07627227 24.76167027 -0.04112086 12.38085805 0 0 Z " fill="#0A4AAC" transform="translate(672,120)"/>
<path d="M0 0 C4.1033766 1.50018491 7.77092836 3.51315587 11.50390625 5.75390625 C12.13054672 6.12631943 12.75718719 6.4987326 13.40281677 6.88243103 C15.4582404 8.10547752 17.51041689 9.33385821 19.5625 10.5625 C21.00835135 11.42466734 22.45431648 12.2866439 23.90039062 13.1484375 C33.53161979 18.89497612 43.12624777 24.70050115 52.70266724 30.53787231 C62.76596661 36.67126788 72.88899158 42.69969681 83.03094482 48.70196533 C92.59936173 54.36642431 102.129615 60.08898594 111.625 65.875 C122.31395388 72.38664879 133.0600772 78.79362767 143.84667969 85.14208984 C149.65309425 88.56318111 155.45370017 91.99404032 161.25140381 95.42987061 C162.66029454 96.2642394 164.06967338 97.0977846 165.47955322 97.93048096 C178.4542623 105.59359829 178.4542623 105.59359829 184.390625 109.47265625 C185.13006348 109.95452393 185.86950195 110.4363916 186.63134766 110.93286133 C187.90202711 111.77235627 189.16336276 112.62629482 190.41162109 113.4987793 C193.08327821 115.2706659 194.59680071 116.03047598 197.8359375 115.78564453 C201.26150133 114.93506857 203.59759512 113.71869894 206.5859375 111.8515625 C207.66488281 111.18576172 208.74382812 110.51996094 209.85546875 109.83398438 C210.71277588 109.29584106 210.71277588 109.29584106 211.58740234 108.74682617 C214.05225642 107.19998043 216.53026363 105.67480085 219.00787354 104.14849854 C220.3217643 103.33907547 221.63502711 102.5286323 222.94769287 101.71722412 C229.57773882 97.62474993 236.27633236 93.65141859 242.98516846 89.68988037 C253.69948484 83.36242595 264.37585757 76.97769142 275 70.5 C285.63328845 64.01673213 296.3236673 57.63522658 307.04101562 51.29199219 C317.5304953 45.08177771 327.96631385 38.78954069 338.37353516 32.44262695 C349.03523913 25.95186693 359.76882135 19.58425902 370.51953125 13.2421875 C371.17434479 12.85509109 371.82915833 12.46799469 372.5038147 12.06916809 C374.27701777 11.02099238 376.05131102 9.97466154 377.82568359 8.9284668 C380.94848607 7.03129584 383.9758736 5.04908961 387 3 C387.66 3.33 388.32 3.66 389 4 C380.0632693 11.4335813 371.10576281 18.81100729 361.83984375 25.83203125 C360.10351453 27.15756456 358.38285201 28.50436968 356.69140625 29.88671875 C351.67873064 33.97963737 346.45474263 37.1491028 340.69555664 40.07275391 C336.63010793 42.23986157 335.54646804 43.77943097 334 48 C331.43359375 50.45703125 331.43359375 50.45703125 328.4375 52.8125 C327.44621094 53.60269531 326.45492188 54.39289063 325.43359375 55.20703125 C323 57 323 57 322 57 C321.67 55.35 321.34 53.7 321 52 C320.24323975 52.45439453 320.24323975 52.45439453 319.47119141 52.91796875 C317.19180921 54.28318269 314.90848332 55.64165783 312.625 57 C311.8309375 57.47695313 311.036875 57.95390625 310.21875 58.4453125 C309.45820313 58.89648438 308.69765625 59.34765625 307.9140625 59.8125 C306.8614624 60.44091797 306.8614624 60.44091797 305.78759766 61.08203125 C304 62 304 62 302 62 C302.10441406 62.70125 302.20882813 63.4025 302.31640625 64.125 C302.70214273 68.63138175 302.96411247 71.7367499 300.13671875 75.44140625 C296.58525645 78.59761579 293.26252917 80.86873541 289 83 C289 79.04 289 75.08 289 71 C278.74882032 75.31015199 278.74882032 75.31015199 270 82 C268.53740764 85.81787941 268.88618362 89.46917733 269.16210938 93.48339844 C269.38516573 97.93129348 269.4228337 99.43715052 266.62890625 103.15625 C259.37045095 109 259.37045095 109 256 109 C255.67 103.06 255.34 97.12 255 91 C253.19402344 92.0828125 253.19402344 92.0828125 251.3515625 93.1875 C249.77617791 94.12522892 248.20064962 95.06271646 246.625 96 C245.8309375 96.47695313 245.036875 96.95390625 244.21875 97.4453125 C243.45820313 97.89648438 242.69765625 98.34765625 241.9140625 98.8125 C241.2123291 99.23144531 240.5105957 99.65039062 239.78759766 100.08203125 C238 101 238 101 236 101 C236.10211792 102.04957886 236.10211792 102.04957886 236.20629883 103.12036133 C238.00670523 124.38689492 238.00670523 124.38689492 233.59765625 129.72265625 C230.95402823 132.15049503 227.9898097 134.02348933 224.89941406 135.83300781 C221.62427986 137.84523679 218.72667386 140.3278086 215.75 142.75 C214.58733523 143.66360256 213.42203785 144.57386654 212.25390625 145.48046875 C211.7036377 145.90763184 211.15336914 146.33479492 210.58642578 146.77490234 C209.1121453 147.91339718 207.63245972 149.04488331 206.15234375 150.17578125 C205.33894531 150.79839844 204.52554688 151.42101562 203.6875 152.0625 C202.99011719 152.58972656 202.29273438 153.11695313 201.57421875 153.66015625 C199.87027896 154.93338717 199.87027896 154.93338717 199 157 C194.21412949 156.47511243 191.06688728 155.1386439 186.9921875 152.60546875 C186.43405365 152.26245224 185.8759198 151.91943573 185.3008728 151.56602478 C183.48670145 150.44855584 181.68107085 149.31800447 179.875 148.1875 C178.60320272 147.40175683 177.33073422 146.6170991 176.05761719 145.83349609 C173.52201051 144.27191279 170.98895606 142.70632853 168.45800781 141.13720703 C164.07940341 138.42618101 159.67018337 135.76759402 155.25 133.125 C154.48220215 132.66464355 153.7144043 132.20428711 152.92333984 131.72998047 C147.83754698 128.68461381 142.74054477 125.65833877 137.640625 122.63671875 C134.92702154 121.02875008 132.21347341 119.42068811 129.5 117.8125 C128.81264771 117.40517639 128.12529541 116.99785278 127.41711426 116.57818604 C117.33648228 110.60200079 107.29904494 104.55988295 97.29321289 98.4593811 C87.90304058 92.73638757 78.46328181 87.10117738 69 81.5 C61.19189972 76.87809761 53.38837284 72.25010845 45.62890625 67.546875 C45.03715607 67.1894371 44.44540588 66.83199921 43.83572388 66.46372986 C40.92039883 64.69876129 38.02177143 62.91336617 35.14746094 61.08227539 C29.45526954 57.50100001 23.96604723 54.47449292 17.69921875 52.01171875 C4.02448619 46.21582432 4.02448619 46.21582432 0 40 C-3.66545217 27.42486119 -1.47863268 12.79813452 0 0 Z " fill="#145596" transform="translate(2,243)"/>
<path d="M0 0 C2.36157227 1.11645508 2.36157227 1.11645508 4.81640625 2.51953125 C5.73623291 3.04208496 6.65605957 3.56463867 7.60375977 4.10302734 C8.58014404 4.66715332 9.55652832 5.2312793 10.5625 5.8125 C12.07831665 6.67415771 12.07831665 6.67415771 13.62475586 7.55322266 C18.7246862 10.46872068 23.76913567 13.45163897 28.75 16.56640625 C29.6464624 17.12287842 30.5429248 17.67935059 31.46655273 18.25268555 C33.16325203 19.31302287 34.85080565 20.3881755 36.52758789 21.47973633 C37.67602173 22.19746216 37.67602173 22.19746216 38.84765625 22.9296875 C39.50773682 23.35491699 40.16781738 23.78014648 40.84790039 24.21826172 C43.92007587 25.33421247 45.86289405 24.82968262 49 24 C51.85576033 22.69115926 51.85576033 22.69115926 54.67578125 20.97265625 C55.74352783 20.34939453 56.81127441 19.72613281 57.91137695 19.08398438 C59.03374756 18.41689453 60.15611816 17.74980469 61.3125 17.0625 C62.47752196 16.38115716 63.64313522 15.70082442 64.80932617 15.02148438 C70.01061491 11.98422161 75.18246954 8.90265319 80.3125 5.74609375 C81.08424561 5.2761499 81.85599121 4.80620605 82.65112305 4.32202148 C84.0541199 3.46386855 85.44941375 2.59294408 86.83520508 1.70727539 C91.34753841 -1.05238692 91.34753841 -1.05238692 94.31396484 -0.81420898 C97.63191213 0.19154944 100.28458766 1.69812708 103.26953125 3.46484375 C104.16079712 3.98865883 104.16079712 3.98865883 105.07006836 4.52305603 C106.98878921 5.65366604 108.90090477 6.79488991 110.8125 7.9375 C112.12378058 8.71592963 113.43522306 9.4940866 114.74682617 10.27197266 C117.93432785 12.16586497 121.11542674 14.07022396 124.29443359 15.97833252 C125.83451332 16.90087026 127.37799457 17.81772372 128.921875 18.73388672 C131.2263487 20.10216798 133.52158582 21.48417502 135.8125 22.875 C136.46259033 23.26034912 137.11268066 23.64569824 137.7824707 24.04272461 C139.51953125 25.1171875 139.51953125 25.1171875 142 27 C142 27.99 142 28.98 142 30 C139.78222656 31.63134766 139.78222656 31.63134766 136.640625 33.4140625 C135.79013832 33.90383575 135.79013832 33.90383575 134.92247009 34.40350342 C133.68783829 35.11307893 132.45030291 35.81762015 131.21029663 36.51776123 C127.85782373 38.41134607 124.52656357 40.34176395 121.19140625 42.265625 C120.50407913 42.66063202 119.81675201 43.05563904 119.1085968 43.46261597 C112.40025655 47.3244127 105.78958202 51.3344571 99.1875 55.375 C87.34616942 62.60608095 75.43136725 69.70762702 63.48120117 76.75732422 C62.82628189 77.14449112 62.17136261 77.53165802 61.49659729 77.93055725 C59.72326511 78.97883841 57.94883094 80.02525476 56.17431641 81.0715332 C52.94580227 82.96471697 52.94580227 82.96471697 49.89990234 85.30932617 C47 87 47 87 44.44946289 86.92382812 C41.72575297 85.89656626 39.32614869 84.68394268 36.80859375 83.21875 C35.79514893 82.6323877 34.7817041 82.04602539 33.73754883 81.44189453 C32.10402466 80.48065674 32.10402466 80.48065674 30.4375 79.5 C29.30014404 78.83726074 28.16278809 78.17452148 26.9909668 77.49169922 C14.87406379 70.4136291 2.89875295 63.09973054 -9.07470703 55.78271484 C-12.57932301 53.64695238 -16.09873103 51.53723289 -19.625 49.4375 C-30.82137577 42.74358139 -41.89893126 35.85034704 -53 29 C-49.9262 25.63851132 -46.7301504 23.47924851 -42.79296875 21.20703125 C-41.89581902 20.68521019 -41.89581902 20.68521019 -40.98054504 20.15284729 C-39.05298913 19.0332966 -37.12055861 17.92251814 -35.1875 16.8125 C-32.55479412 15.2924277 -29.92380938 13.76939142 -27.29296875 12.24609375 C-26.65277802 11.8762738 -26.01258728 11.50645386 -25.35299683 11.12542725 C-21.83934736 9.08985128 -18.36236572 7.01201931 -14.92578125 4.84765625 C-14.24040283 4.41799561 -13.55502441 3.98833496 -12.84887695 3.5456543 C-11.14262699 2.4653072 -9.44585214 1.37003419 -7.75 0.2734375 C-4.44913712 -1.25508707 -3.43654398 -0.96340666 0 0 Z " fill="#3C6AB2" transform="translate(154,214)"/>
<path d="M0 0 C2.68701172 1.26831055 2.68701172 1.26831055 5.4296875 2.88671875 C6.9755957 3.78934448 6.9755957 3.78934448 8.55273438 4.71020508 C9.64908203 5.3627124 10.74542969 6.01521973 11.875 6.6875 C13.0313675 7.36638812 14.18827755 8.04435289 15.34570312 8.72143555 C17.72917552 10.11763326 20.10956542 11.51886582 22.48730469 12.92480469 C27.81334243 16.07372247 33.15683131 19.19276776 38.5 22.3125 C39.49773437 22.89612305 40.49546875 23.47974609 41.5234375 24.08105469 C47.97352215 27.84573703 54.4694908 31.5122551 61.01171875 35.11376953 C70.9492762 40.6010487 80.74974098 46.32927539 90.57275391 52.01806641 C94.01828182 54.01057215 97.46747826 55.9965708 100.91796875 57.98046875 C112.34193413 64.55092331 123.7434731 71.14577817 135 78 C132.50615208 80.79563775 129.74784919 82.43253404 126.49609375 84.265625 C125.37589844 84.90081055 124.25570313 85.53599609 123.1015625 86.19042969 C122.50504883 86.52570679 121.90853516 86.86098389 121.29394531 87.2064209 C119.41084828 88.26498195 117.53116331 89.32937519 115.65234375 90.39550781 C113.05017999 91.87197412 110.44704522 93.34670472 107.84326172 94.8203125 C102.04712508 98.1040325 96.2713385 101.42289631 90.5 104.75 C88.88242798 105.68247559 88.88242798 105.68247559 87.23217773 106.63378906 C80.78389078 110.36180486 74.37540393 114.14884136 68 118 C47.82449768 130.18731563 27.29059333 141.81666748 6.76416016 153.40380859 C5.09487413 154.36775419 3.44212215 155.36243894 1.82568359 156.41259766 C0.01171875 157.58203125 0.01171875 157.58203125 -3 159 C-6.82510596 157.82848636 -10.17381888 155.85753393 -13.62890625 153.8671875 C-14.73226318 153.23393555 -15.83562012 152.60068359 -16.97241211 151.94824219 C-18.16912487 151.25719055 -19.36582037 150.56610902 -20.5625 149.875 C-21.81043065 149.15753378 -23.05856242 148.4404173 -24.30688477 147.72363281 C-26.90491314 146.231493 -29.502066 144.73784566 -32.09863281 143.24316406 C-37.61624498 140.06864278 -43.144756 136.91322747 -48.67306519 133.75738525 C-51.6041518 132.08391259 -54.5344607 130.40907925 -57.46484375 128.734375 C-59.13135986 127.78208008 -59.13135986 127.78208008 -60.83154297 126.81054688 C-63.7014974 125.17057292 -66.57145182 123.53059896 -69.44140625 121.890625 C-70.28429199 121.40899902 -71.12717773 120.92737305 -71.99560547 120.43115234 C-73.66267782 119.47849314 -75.32967027 118.52569408 -76.99658203 117.57275391 C-81.88772006 114.77687999 -86.78091012 111.98464624 -91.67578125 109.1953125 C-94.05490665 107.83892566 -96.43377437 106.48208778 -98.8125 105.125 C-99.69606171 104.62101181 -99.69606171 104.62101181 -100.59747314 104.10684204 C-110.22458352 98.6129222 -119.8110166 93.05283173 -129.36254883 87.42822266 C-133.84521411 84.79699909 -138.30671271 82.23676735 -143 80 C-143 79.34 -143 78.68 -143 78 C-142.27748047 77.58862793 -141.55496094 77.17725586 -140.81054688 76.75341797 C-137.37297219 74.79521647 -133.93618949 72.83563086 -130.5 70.875 C-129.86742279 70.51408264 -129.23484558 70.15316528 -128.58309937 69.78131104 C-119.963882 64.86128485 -111.37311788 59.89651913 -102.8125 54.875 C-94.75997874 50.15451038 -86.65520137 45.54070594 -78.5 41 C-68.30843026 35.3247534 -58.21529528 29.4973699 -48.15234375 23.59765625 C-40.42761783 19.07100944 -32.66586235 14.60878545 -24.90258789 10.14868164 C-23.88543701 9.5633667 -22.86828613 8.97805176 -21.8203125 8.375 C-20.84094727 7.81554688 -19.86158203 7.25609375 -18.85253906 6.6796875 C-16.95340139 5.56140034 -15.07931359 4.39942517 -13.23339844 3.1953125 C-11.93837402 2.35613281 -11.93837402 2.35613281 -10.6171875 1.5 C-9.86808105 0.9946875 -9.11897461 0.489375 -8.34716797 -0.03125 C-5.14129576 -1.35441423 -3.31842095 -0.91006951 0 0 Z M-35 32 C-35.72509766 32.12995361 -36.45019531 32.25990723 -37.19726562 32.39379883 C-55.45056613 35.84554476 -75.15589124 44.55345196 -86.5625 59.625 C-87.74163477 61.39492787 -88.89236158 63.18447236 -90 65 C-90.57041016 65.92425781 -90.57041016 65.92425781 -91.15234375 66.8671875 C-94.50298366 73.32141553 -93.66385311 81.24286909 -91.9375 88.0625 C-87.26473205 101.5687197 -76.27929254 109.97189064 -63.98510742 116.29003906 C-44.91115137 125.53240027 -24.25647281 128.42451346 -3.25 128.3125 C-2.50232361 128.31001251 -1.75464722 128.30752502 -0.98431396 128.30496216 C26.64351154 128.16293859 55.5279059 122.03508717 76 102 C78.34052283 99.14733823 80.23028234 96.23244348 82 93 C82.928125 91.4221875 82.928125 91.4221875 83.875 89.8125 C86.27307964 81.68567456 86.35415176 72.67527683 82.31640625 65.078125 C71.22383603 47.56700525 53.4080818 38.35649055 33.66748047 33.58618164 C21.68778673 30.95363133 10.32313062 29.5292302 -1.94921875 29.66381836 C-4.2633714 29.68763763 -6.5763785 29.68431448 -8.890625 29.67773438 C-17.7675633 29.69431102 -26.25696679 30.3159549 -35 32 Z " fill="#B6F3EE" transform="translate(203,1)"/>
<path d="M0 0 C41.25 0 82.5 0 125 0 C125 8.91 125 17.82 125 27 C109.49 27 93.98 27 78 27 C78 70.89 78 114.78 78 160 C68.1 160 58.2 160 48 160 C48 116.11 48 72.22 48 27 C32.16 27 16.32 27 0 27 C0 18.09 0 9.18 0 0 Z " fill="#0A4AAB" transform="translate(1076,120)"/>
<path d="M0 0 C2.73041449 -0.03568305 5.45541976 -0.06041791 8.18603516 -0.02905273 C9.13220703 -0.05290039 10.07837891 -0.07674805 11.05322266 -0.10131836 C15.7376535 -0.09144947 18.05562874 -0.05009934 21.85009766 2.88110352 C23.21782908 4.73108287 24.53484939 6.61916862 25.81103516 8.53344727 C30.7087526 10.86569367 34.6635078 10.67503599 39.81103516 9.53344727 C40.80103516 9.16219727 41.79103516 8.79094727 42.81103516 8.40844727 C49.45219634 6.47144192 53.97582735 8.42740695 59.81103516 11.59594727 C61.48500569 12.56257427 63.15429558 13.53757623 64.81103516 14.53344727 C63.19720759 17.93557025 61.2249975 20.63669245 58.81103516 23.53344727 C59.80103516 25.01844727 59.80103516 25.01844727 60.81103516 26.53344727 C63.33457448 27.00131087 65.70346388 27.32275463 68.24853516 27.53344727 C75.19717217 28.11195252 75.19717217 28.11195252 77.76806641 29.87719727 C79.52106967 32.66099271 79.03883243 35.34428548 78.81103516 38.53344727 C78.48103516 39.52344727 78.15103516 40.51344727 77.81103516 41.53344727 C76.77462891 41.64301758 75.73822266 41.75258789 74.67041016 41.86547852 C73.30054252 42.02498365 71.93075479 42.18517611 70.56103516 42.34594727 C69.87912109 42.41620117 69.19720703 42.48645508 68.49462891 42.55883789 C64.47834599 43.04625087 61.68427546 43.59619913 58.81103516 46.53344727 C58.48103516 47.52344727 58.15103516 48.51344727 57.81103516 49.53344727 C58.40916016 49.80157227 59.00728516 50.06969727 59.62353516 50.34594727 C61.80951369 51.53262133 63.22436109 52.62943839 64.81103516 54.53344727 C64.81103516 55.19344727 64.81103516 55.85344727 64.81103516 56.53344727 C50.3161898 64.8014885 50.3161898 64.8014885 41.81103516 62.53344727 C41.15103516 62.20344727 40.49103516 61.87344727 39.81103516 61.53344727 C37.83379454 61.43671895 35.85313455 61.40364824 33.87353516 61.40844727 C32.81263672 61.40586914 31.75173828 61.40329102 30.65869141 61.40063477 C27.73530459 61.4077538 27.73530459 61.4077538 24.81103516 62.53344727 C23.76082413 64.38316423 23.76082413 64.38316423 22.81103516 66.53344727 C21.20590303 69.21988098 20.43404716 70.3281597 17.42822266 71.31860352 C14.5188607 71.61285522 11.7332863 71.62524573 8.81103516 71.53344727 C7.82619141 71.56438477 6.84134766 71.59532227 5.82666016 71.62719727 C2.91486928 71.59571845 0.57945287 71.44566359 -2.18896484 70.53344727 C-4.01710966 68.57472067 -5.07770263 66.77683335 -6.18896484 64.34594727 C-7.11626343 62.18107915 -7.11626343 62.18107915 -10.18896484 61.53344727 C-16.98213729 61.1063911 -22.65724908 61.61235439 -29.18896484 63.53344727 C-36.09947893 63.53344727 -41.40443322 59.95395692 -47.18896484 56.53344727 C-45.39990234 52.71313477 -45.39990234 52.71313477 -43.50146484 51.09594727 C-42.85177734 50.32250977 -42.85177734 50.32250977 -42.18896484 49.53344727 C-42.56912563 46.95523007 -42.56912563 46.95523007 -43.18896484 44.53344727 C-44.14996094 44.35168945 -44.14996094 44.35168945 -45.13037109 44.16625977 C-55.31218145 42.19362885 -55.31218145 42.19362885 -60.18896484 40.53344727 C-61.71046642 37.49044411 -61.42795877 34.87936227 -61.18896484 31.53344727 C-57.22807951 28.89285704 -53.16864946 28.53152422 -48.55029297 27.85375977 C-46.30696806 27.50411518 -46.30696806 27.50411518 -43.18896484 26.53344727 C-41.65198115 24.57313203 -41.65198115 24.57313203 -41.18896484 22.53344727 C-43.16896484 20.55344727 -45.14896484 18.57344727 -47.18896484 16.53344727 C-45.86677666 12.5668827 -44.34605753 12.18587427 -40.68896484 10.28344727 C-33.74722884 6.93254967 -29.3011719 7.16271158 -22.18896484 9.53344727 C-19.61630666 9.60373847 -17.07255053 9.62715559 -14.50146484 9.59594727 C-13.79957031 9.59143555 -13.09767578 9.58692383 -12.37451172 9.58227539 C-10.64595946 9.57051653 -8.91745119 9.5525818 -7.18896484 9.53344727 C-6.92083984 8.79094727 -6.65271484 8.04844727 -6.37646484 7.28344727 C-3.61137744 0.88008696 -3.61137744 0.88008696 0 0 Z " fill="#F6FAFD" transform="translate(190.18896484375,44.466552734375)"/>
<path d="M0 0 C0.33 0 0.66 0 1 0 C5.89584169 33.37881299 5.89584169 33.37881299 -0.21606445 42.89300537 C-7.01347811 50.45773271 -17.51113677 54.2056797 -26.67382812 58.07421875 C-33.18962585 60.880161 -39.03034512 64.70065557 -45 68.5 C-47.28435833 69.90795279 -49.57913882 71.29840345 -51.875 72.6875 C-52.44909607 73.03623169 -53.02319214 73.38496338 -53.61468506 73.7442627 C-61.38657267 78.46058934 -69.21773361 83.07767295 -77.04101562 87.70800781 C-86.39684031 93.24705071 -95.71690012 98.83996139 -105 104.5 C-114.95820695 110.57166104 -124.9631825 116.55921631 -135 122.5 C-145.42960588 128.67420452 -155.83063034 134.89195315 -166.1875 141.1875 C-167.84168945 142.19296875 -167.84168945 142.19296875 -169.52929688 143.21875 C-170.58568359 143.86199219 -171.64207031 144.50523437 -172.73046875 145.16796875 C-173.75188965 145.78849121 -174.77331055 146.40901367 -175.82568359 147.04833984 C-178.10219013 148.44800091 -180.36296886 149.86255259 -182.61572266 151.29931641 C-183.21097244 151.67550613 -183.80622223 152.05169586 -184.41950989 152.43928528 C-186.08706216 153.49463337 -187.74937499 154.55824695 -189.41137695 155.62231445 C-190.26562256 156.07695068 -191.11986816 156.53158691 -192 157 C-192.66 156.67 -193.32 156.34 -194 156 C-184.74136953 148.31712696 -175.44461509 140.6986826 -165.953125 133.3046875 C-164.97859375 132.54414063 -164.0040625 131.78359375 -163 131 C-162.03835937 130.48824219 -161.07671875 129.97648438 -160.0859375 129.44921875 C-157.02117982 125.85071113 -157.87261289 122.88533463 -158.16992188 118.31420898 C-159.01412451 104.41401062 -159.01412451 104.41401062 -155.12597656 99.75390625 C-150.63964639 96.2536437 -142.95149038 91 -137 91 C-137 97.27 -137 103.54 -137 110 C-130.21453055 106.39199375 -130.21453055 106.39199375 -125 101 C-124.32638961 97.95795822 -124.42938168 95.03842966 -124.5625 91.9375 C-124.67671384 88.86624287 -124.75110882 85.99413602 -124 83 C-120.13923126 79.00154336 -116.11168127 77.18639448 -111 75 C-110.07703125 74.44183594 -109.1540625 73.88367188 -108.203125 73.30859375 C-106 72 -106 72 -104 72 C-103.505 77.445 -103.505 77.445 -103 83 C-98.97096299 80.31176278 -95.26259766 77.59668766 -92 74 C-91.61977242 71.33093215 -91.61977242 71.33093215 -92 68.625 C-92.09375 65.86328125 -92.09375 65.86328125 -91 63 C-86.58333678 59.26847983 -76.97655628 52 -71 52 C-70.505 54.475 -70.505 54.475 -70 57 C-68.19832504 55.61710902 -66.40898713 54.21813511 -64.625 52.8125 C-63.62726563 52.03519531 -62.62953125 51.25789063 -61.6015625 50.45703125 C-58.87095601 48.25677316 -58.87095601 48.25677316 -58.12109375 45.46875 C-56.36681052 41.6056594 -53.11852978 40.5323926 -49.4375 38.6875 C-43.72439801 35.65503979 -38.94105459 32.58173852 -34.24609375 28.08203125 C-31.58952201 25.61950475 -28.7603576 23.43273473 -25.875 21.25 C-20.85027889 17.43088227 -15.87323711 13.55863657 -10.9375 9.625 C-10.30634277 9.12516602 -9.67518555 8.62533203 -9.02490234 8.11035156 C-5.82523934 5.55372847 -2.88259524 2.91715873 0 0 Z " fill="#4992DB" transform="translate(395,242)"/>
<path d="M0 0 C9.9 0 19.8 0 30 0 C30 52.8 30 105.6 30 160 C20.1 160 10.2 160 0 160 C0 107.2 0 54.4 0 0 Z " fill="#0A4AAB" transform="translate(1014,120)"/>
<path d="M0 0 C3.69988995 3.16807825 5.66439789 5.87474588 7.0625 10.5625 C6.96314008 16.0272955 4.95938464 19.32349806 1.125 23.0625 C-9.11046348 31.30713337 -23.55911908 33.3954758 -36.3125 33.3125 C-37.22894287 33.30686035 -38.14538574 33.3012207 -39.08959961 33.29541016 C-52.08984366 33.0639382 -66.1556377 30.2769546 -75.75 20.75 C-78.4088499 17.17321382 -78.86211647 13.83590722 -78.59375 9.44140625 C-77.60113851 5.35994451 -75.33749749 2.50312312 -72 0 C-69.796875 -0.68359375 -69.796875 -0.68359375 -68 -1 C-68 -1.66 -68 -2.32 -68 -3 C-66.37884308 -3.63490176 -64.75277293 -4.25725792 -63.125 -4.875 C-62.22007812 -5.22304688 -61.31515625 -5.57109375 -60.3828125 -5.9296875 C-41.56913856 -11.88228179 -16.79852644 -11.50714999 0 0 Z " fill="#3698D4" transform="translate(235,68)"/>
<path d="M0 0 C3.14510098 -0.17686941 6.2889002 -0.28167524 9.4375 -0.375 C10.31599609 -0.42527344 11.19449219 -0.47554687 12.09960938 -0.52734375 C18.27986551 -0.66417599 21.70003556 0.54909955 26.62475586 4.234375 C29.21272229 6.15812597 31.88068787 7.78371974 34.66015625 9.41796875 C35.68584717 10.02342529 36.71153809 10.62888184 37.76831055 11.25268555 C38.85539307 11.89117432 39.94247559 12.52966309 41.0625 13.1875 C42.22519551 13.87314993 43.38770716 14.55911172 44.55004883 15.24536133 C47.03772548 16.71394274 49.52600489 18.18149524 52.01464844 19.6484375 C58.37466113 23.39924461 64.72520595 27.16602843 71.07492065 30.93423462 C73.14518778 32.16239872 75.216235 33.38923913 77.28735352 34.6159668 C77.9373381 35.00170364 78.58732269 35.38744049 79.25700378 35.78486633 C80.51205998 36.5290491 81.76822327 37.27136853 83.02558899 38.01164246 C86.28483178 39.93917938 89.43195557 41.96839687 92.55078125 44.11328125 C96.61146948 46.33447311 97.63782027 46.13785671 102 45 C104.85911177 43.61566438 104.85911177 43.61566438 107.69140625 41.78125 C108.78678711 41.10457275 109.88216797 40.42789551 111.01074219 39.73071289 C111.87765686 39.18617966 111.87765686 39.18617966 112.76208496 38.63064575 C115.86702033 36.68077202 118.99150757 34.76259752 122.11328125 32.83984375 C123.08290298 32.24084511 123.08290298 32.24084511 124.07211304 31.62974548 C131.06216674 27.32167532 138.15249542 23.19015822 145.25 19.0625 C161.49619679 10.70924587 161.49619679 10.70924587 176 0 C177.4887186 -0.08669432 178.981445 -0.10703494 180.47265625 -0.09765625 C181.37177734 -0.09443359 182.27089844 -0.09121094 183.19726562 -0.08789062 C184.61555664 -0.07532227 184.61555664 -0.07532227 186.0625 -0.0625 C187.4865918 -0.05573242 187.4865918 -0.05573242 188.93945312 -0.04882812 C191.29303065 -0.0370011 193.64648477 -0.02052025 196 0 C193.35593665 3.01127815 190.11582369 4.86133793 186.69140625 6.8515625 C186.06193588 7.22256073 185.43246552 7.59355896 184.78392029 7.97579956 C183.42421312 8.77671799 182.06333365 9.57564888 180.70141602 10.37280273 C177.04662989 12.51244411 173.40070695 14.66709859 169.75390625 16.8203125 C169.01194 17.25792908 168.26997375 17.69554565 167.50552368 18.14642334 C160.63348294 22.2044831 153.81232842 26.34273799 147 30.5 C137.25456228 36.42899309 127.50317446 42.34823761 117.71606445 48.20825195 C116.29229748 49.06225389 114.87006557 49.91882083 113.44946289 50.77807617 C111.47171799 51.9736435 109.48859939 53.15976309 107.50390625 54.34375 C106.91871719 54.70017578 106.33352814 55.05660156 105.73060608 55.42382812 C99.76399906 58.95516879 99.76399906 58.95516879 96 59 C93.53122509 57.81477122 91.42759772 56.62515222 89.15625 55.13671875 C87.81426066 54.29402839 86.47179838 53.4520908 85.12890625 52.61083984 C84.44393066 52.17543884 83.75895508 51.74003784 83.05322266 51.29144287 C79.85568488 49.28024484 76.60039118 47.37045853 73.34375 45.45703125 C72.0532795 44.69356919 70.76308047 43.9296481 69.47314453 43.1652832 C68.82492737 42.7815152 68.17671021 42.39774719 67.5088501 42.00234985 C54.61002162 34.36232276 41.75250205 26.66002124 28.97314453 18.82128906 C26.20580258 17.12607056 23.43527167 15.43622091 20.66369629 13.74794006 C18.22359049 12.26060671 15.78549114 10.77000723 13.34783936 9.27865601 C12.16354092 8.5548416 10.97852906 7.83219311 9.79278564 7.11074829 C8.15273853 6.1124094 6.51574118 5.10906553 4.87890625 4.10546875 C3.9360376 3.52949951 2.99316895 2.95353027 2.02172852 2.36010742 C1.35455811 1.91127197 0.6873877 1.46243652 0 1 C0 0.67 0 0.34 0 0 Z " fill="#0A3372" transform="translate(101,242)"/>
<path d="M0 0 C1.32 0 2.64 0 4 0 C4 1.32 4 2.64 4 4 C6.31 4 8.62 4 11 4 C11 2.68 11 1.36 11 0 C11.99 0 12.98 0 14 0 C14 1.65 14 3.3 14 5 C15.0725 5.144375 16.145 5.28875 17.25 5.4375 C19.91662949 5.83749442 22.41399729 6.27591924 25 7 C25 8.32 25 9.64 25 11 C20.32538149 11.32613618 17.83325617 10.70582788 14 8 C14 10.31 14 12.62 14 15 C14.61488281 15.03738281 15.22976562 15.07476562 15.86328125 15.11328125 C16.67152344 15.17902344 17.47976562 15.24476562 18.3125 15.3125 C19.11300781 15.37050781 19.91351563 15.42851563 20.73828125 15.48828125 C23.40600114 16.09185863 24.37146639 16.82862186 26 19 C26.1875 21.6875 26.1875 21.6875 26 24 C18.71428571 27.42857143 18.71428571 27.42857143 14 27 C14 28.65 14 30.3 14 32 C13.01 32 12.02 32 11 32 C11 30.68 11 29.36 11 28 C8.69 28 6.38 28 4 28 C4 29.32 4 30.64 4 32 C2.68 32 1.36 32 0 32 C0 30.35 0 28.7 0 27 C-1.2375 27.0825 -2.475 27.165 -3.75 27.25 C-6.98036785 27.2557276 -7.7792364 27.16005361 -10.5 25.1875 C-12 23 -12 23 -12 20 C-10.35 20 -8.7 20 -7 20 C-6.773125 20.639375 -6.54625 21.27875 -6.3125 21.9375 C-5.14749104 24.27193661 -5.14749104 24.27193661 -2.375 24.75 C-1.59125 24.8325 -0.8075 24.915 0 25 C0 22.03 0 19.06 0 16 C-1.60875 16.0928125 -1.60875 16.0928125 -3.25 16.1875 C-7.10866187 15.99456691 -8.28817788 15.60334924 -11 13 C-10.64987213 10.40905378 -10.26229035 8.4225789 -8.875 6.1875 C-5.99131838 4.36116831 -3.32254207 4.81193158 0 5 C0 3.35 0 1.7 0 0 Z " fill="#D9ECF6" transform="translate(192,64)"/>
<path d="M0 0 C1.16760746 7.85558736 2.3977539 16.29816345 0 24 C-4.7395397 29.68218983 -12.11491133 32.66907762 -19 35 C-19.33 35 -19.66 35 -20 35 C-21.16760746 27.14441264 -22.3977539 18.70183655 -20 11 C-15.97793821 6.17798773 -6.58609925 0 0 0 Z " fill="#CBE2F8" transform="translate(324,294)"/>
<path d="M0 0 C8.59375 4.19921875 8.59375 4.19921875 12 6 C12.71736328 6.29366455 13.43472656 6.5873291 14.17382812 6.88989258 C16.59856309 8.04390075 18.20042483 8.99539943 20 11 C20.99154258 15.13892754 20.75683213 19.08711758 20.5 23.3125 C20.46390625 24.43462891 20.4278125 25.55675781 20.390625 26.71289062 C20.29646821 29.47874621 20.16512661 32.23762241 20 35 C13.31649811 31.36214454 6.65218839 27.69566022 0 24 C0 16.08 0 8.16 0 0 Z " fill="#CBE1F6" transform="translate(9,256)"/>
<path d="M0 0 C0.74725342 0.30276855 1.49450684 0.60553711 2.2644043 0.91748047 C4.41380521 1.76803323 6.58791116 2.55618028 8.76953125 3.3203125 C13.18585126 5.16586656 17.19280485 6.99014335 20 11 C21.93187053 18.78091684 20.91069837 27.11755537 20 35 C17.79007241 33.7527532 15.58206337 32.50229753 13.375 31.25 C12.75753906 30.90195312 12.14007813 30.55390625 11.50390625 30.1953125 C10.26274677 29.48981132 9.03004445 28.76922859 7.80615234 28.03417969 C5.77258376 26.82950067 5.77258376 26.82950067 2.5625 25.46875 C-0.49678748 22.52138767 -0.41928588 21.69067896 -0.5859375 17.578125 C-0.54612295 15.46795403 -0.47466 13.35819226 -0.375 11.25 C-0.34792969 10.17105469 -0.32085937 9.09210938 -0.29296875 7.98046875 C-0.22229142 5.31828935 -0.12368401 2.66015764 0 0 Z " fill="#CBE1F6" transform="translate(140,333)"/>
<path d="M0 0 C2.06338861 19.84760073 2.06338861 19.84760073 -1.1953125 24.82617188 C-4.62468268 27.92579492 -8.69640524 29.40570229 -13 31 C-14.6689216 31.99623214 -16.3362085 32.9952236 -18 34 C-18.66 34 -19.32 34 -20 34 C-22.06338861 14.15239927 -22.06338861 14.15239927 -18.8046875 9.17382812 C-15.37531732 6.07420508 -11.30359476 4.59429771 -7 3 C-1.97429907 0 -1.97429907 0 0 0 Z " fill="#CCE2F7" transform="translate(291,314)"/>
<path d="M0 0 C2.95700688 1.14196186 5.76693259 2.33073744 8.515625 3.91015625 C9.43214844 4.43512695 9.43214844 4.43512695 10.3671875 4.97070312 C10.98851563 5.33099609 11.60984375 5.69128906 12.25 6.0625 C12.88679688 6.42666016 13.52359375 6.79082031 14.1796875 7.16601562 C18.85925752 9.85925752 18.85925752 9.85925752 20 11 C20.08713831 12.70772358 20.10700007 14.41898649 20.09765625 16.12890625 C20.09443359 17.16337891 20.09121094 18.19785156 20.08789062 19.26367188 C20.07951172 20.35228516 20.07113281 21.44089844 20.0625 22.5625 C20.05798828 23.65498047 20.05347656 24.74746094 20.04882812 25.87304688 C20.03699826 28.58208495 20.02051543 31.29101599 20 34 C19.25274658 33.69795654 18.50549316 33.39591309 17.7355957 33.0847168 C16.18481417 32.46980182 14.62807411 31.86836672 13.05541992 31.31176758 C8.07915277 29.49235111 3.1606872 27.40721786 0 23 C-1.91715379 15.55165356 -0.91317188 7.55169733 0 0 Z " fill="#CBE2F7" transform="translate(107,314)"/>
<path d="M0 0 C6.68386813 3.63805481 13.34739488 7.30410827 20 11 C20 18.92 20 26.84 20 35 C13.31613187 31.36194519 6.65260512 27.69589173 0 24 C0 16.08 0 8.16 0 0 Z " fill="#CAE0F6" transform="translate(173,352)"/>
<path d="M0 0 C2.97541463 1.14730917 5.79141368 2.34642662 8.55078125 3.9453125 C9.10677002 4.26516113 9.66275879 4.58500977 10.2355957 4.91455078 C10.92097412 5.31399902 11.60635254 5.71344727 12.3125 6.125 C15.6228125 8.043125 15.6228125 8.043125 19 10 C19 17.92 19 25.84 19 34 C15.7 32.35 12.4 30.7 9 29 C8.03457275 28.54351074 7.06914551 28.08702148 6.07446289 27.61669922 C3.63389731 26.27817357 1.8546472 25.0885522 0 23 C-1.07423772 18.9818589 -0.85945727 15.24686841 -0.5625 11.125 C-0.52189453 10.05507813 -0.48128906 8.98515625 -0.43945312 7.8828125 C-0.3336914 5.25052073 -0.18614218 2.62762763 0 0 Z " fill="#CEE4F8" transform="translate(75,295)"/>
<path d="M0 0 C2.15619816 16.34027458 2.15619816 16.34027458 0 24 C-4.07157645 29.27081427 -10.73311531 32.11702454 -17 34 C-17.66 34 -18.32 34 -19 34 C-19.26260373 30.29302295 -19.42156838 26.58843642 -19.5625 22.875 C-19.63791016 21.82828125 -19.71332031 20.7815625 -19.79101562 19.703125 C-20.00844098 12.06907926 -20.00844098 12.06907926 -17.13232422 9.02001953 C-14.81867745 7.46527577 -12.5124037 6.20247699 -10 5 C-9.071875 4.44570313 -8.14375 3.89140625 -7.1875 3.3203125 C-6.465625 2.92585938 -5.74375 2.53140625 -5 2.125 C-3.88625 1.51011719 -3.88625 1.51011719 -2.75 0.8828125 C-1 0 -1 0 0 0 Z " fill="#CFE4F9" transform="translate(389,256)"/>
<path d="M0 0 C2.22955653 1.27015331 4.45865426 2.54110048 6.6875 3.8125 C7.31333984 4.16892578 7.93917969 4.52535156 8.58398438 4.89257812 C9.19951172 5.24384766 9.81503906 5.59511719 10.44921875 5.95703125 C11.00955811 6.27647705 11.56989746 6.59592285 12.1472168 6.92504883 C12.75863525 7.27978271 13.37005371 7.6345166 14 8 C14.88816406 8.42732422 15.77632812 8.85464844 16.69140625 9.29492188 C19 11 19 11 19.56762695 13.4519043 C19.54144287 14.39976807 19.51525879 15.34763184 19.48828125 16.32421875 C19.47216797 17.35224609 19.45605469 18.38027344 19.43945312 19.43945312 C19.39755859 20.51130859 19.35566406 21.58316406 19.3125 22.6875 C19.28994141 23.77095703 19.26738281 24.85441406 19.24414062 25.97070312 C19.1851579 28.64851905 19.10290307 31.32357027 19 34 C16.99517853 33.34797599 14.99633226 32.67757063 13 32 C11.86820313 31.63648438 10.73640625 31.27296875 9.5703125 30.8984375 C2.29824114 27.68289574 2.29824114 27.68289574 0 24 C-1.69151927 16.17724889 -0.7850981 7.90115293 0 0 Z " fill="#CEE4F8" transform="translate(42,275)"/>
<path d="M0 0 C2.15614349 15.60618607 2.15614349 15.60618607 0 23 C-4.11108711 28.20296044 -10.76929622 31.07258344 -17 33 C-17.66 33 -18.32 33 -19 33 C-21.15614349 17.39381393 -21.15614349 17.39381393 -19 10 C-15.00454044 4.9433769 -6.61239102 0 0 0 Z " fill="#CFE4F9" transform="translate(356,276)"/>
<path d="M0 0 C0.26260373 3.70697705 0.42156838 7.41156358 0.5625 11.125 C0.63791016 12.17171875 0.71332031 13.2184375 0.79101562 14.296875 C1.00660462 21.86644409 1.00660462 21.86644409 -1.69189453 24.90527344 C-4.05460399 26.52895359 -6.40801388 27.77605302 -9 29 C-9.93126709 29.48355957 -10.86253418 29.96711914 -11.82202148 30.46533203 C-14.19673405 31.68685456 -16.58508261 32.86060265 -19 34 C-19.26260373 30.29302295 -19.42156838 26.58843642 -19.5625 22.875 C-19.63791016 21.82828125 -19.71332031 20.7815625 -19.79101562 19.703125 C-20.00844098 12.06907926 -20.00844098 12.06907926 -17.13232422 9.02001953 C-14.81867745 7.46527577 -12.5124037 6.20247699 -10 5 C-9.071875 4.44570313 -8.14375 3.89140625 -7.1875 3.3203125 C-6.465625 2.92585938 -5.74375 2.53140625 -5 2.125 C-3.88625 1.51011719 -3.88625 1.51011719 -2.75 0.8828125 C-1 0 -1 0 0 0 Z " fill="#CEE4F9" transform="translate(258,333)"/>
<path d="M0 0 C2.15619816 16.34027458 2.15619816 16.34027458 0 24 C-4.07157645 29.27081427 -10.73311531 32.11702454 -17 34 C-17.66 34 -18.32 34 -19 34 C-20.11169526 26.46232607 -21.25803371 18.39678285 -19 11 C-15.26208126 6.36852579 -6.2796561 0 0 0 Z " fill="#CEE4F8" transform="translate(225,352)"/>
<path d="M0 0 C0.99 0 1.98 0 3 0 C3 1.65 3 3.3 3 5 C4.0725 5.144375 5.145 5.28875 6.25 5.4375 C8.91662949 5.83749442 11.41399729 6.27591924 14 7 C14 8.32 14 9.64 14 11 C9.32538149 11.32613618 6.83325617 10.70582788 3 8 C3 10.31 3 12.62 3 15 C3.61488281 15.03738281 4.22976562 15.07476562 4.86328125 15.11328125 C5.67152344 15.17902344 6.47976562 15.24476562 7.3125 15.3125 C8.11300781 15.37050781 8.91351563 15.42851563 9.73828125 15.48828125 C12.40600114 16.09185863 13.37146639 16.82862186 15 19 C15.1875 21.6875 15.1875 21.6875 15 24 C7.71428571 27.42857143 7.71428571 27.42857143 3 27 C3 28.65 3 30.3 3 32 C2.01 32 1.02 32 0 32 C-1.5111995 26.96266834 -0.64599773 22.11828973 0 17 C-0.99 16.67 -1.98 16.34 -3 16 C-2.67 15.67 -2.34 15.34 -2 15 C-1.60056824 12.47804033 -1.24920152 9.97036344 -0.9375 7.4375 C-0.84662109 6.72658203 -0.75574219 6.01566406 -0.66210938 5.28320312 C-0.43760497 3.52261597 -0.21831603 1.76136522 0 0 Z " fill="#F0F7FB" transform="translate(203,64)"/>
<path d="M0 0 C1.20076172 0.31324219 1.20076172 0.31324219 2.42578125 0.6328125 C3.23402344 0.83648437 4.04226562 1.04015625 4.875 1.25 C5.48988281 1.41757813 6.10476562 1.58515625 6.73828125 1.7578125 C6.73828125 3.0778125 6.73828125 4.3978125 6.73828125 5.7578125 C2.06366274 6.08394868 -0.42846258 5.46364038 -4.26171875 2.7578125 C-4.26171875 5.0678125 -4.26171875 7.3778125 -4.26171875 9.7578125 C-2.28171875 9.7578125 -0.30171875 9.7578125 1.73828125 9.7578125 C-0.24171875 10.7478125 -0.24171875 10.7478125 -2.26171875 11.7578125 C0.21328125 12.7478125 0.21328125 12.7478125 2.73828125 13.7578125 C2.73828125 15.4078125 2.73828125 17.0578125 2.73828125 18.7578125 C0.09089209 20.218441 -1.15620209 20.7578125 -4.26171875 20.7578125 C-4.88284361 15.94409485 -5.37042367 11.17379858 -5.51171875 6.3203125 C-5.5375 5.49660156 -5.56328125 4.67289062 -5.58984375 3.82421875 C-5.4815625 3.14230469 -5.37328125 2.46039063 -5.26171875 1.7578125 C-2.26171875 -0.2421875 -2.26171875 -0.2421875 0 0 Z " fill="#D3E8F5" transform="translate(210.26171875,69.2421875)"/>
<path d="M0 0 C2.31 0 4.62 0 7 0 C7.09765625 6.15234375 7.09765625 6.15234375 7 8 C6 9 6 9 2.9375 9.0625 C1.968125 9.041875 0.99875 9.02125 0 9 C0 6.03 0 3.06 0 0 Z " fill="#59AADB" transform="translate(196,81)"/>
<path d="M0 0 C1.98 0 3.96 0 6 0 C6 2.97 6 5.94 6 9 C4.33388095 9.042721 2.66617115 9.04063832 1 9 C0 8 0 8 -0.09765625 6.15234375 C-0.06510417 4.1015625 -0.03255208 2.05078125 0 0 Z " fill="#54A8DA" transform="translate(196,70)"/>
<path d="M0 0 C2.31 0.33 4.62 0.66 7 1 C7 2.65 7 4.3 7 6 C4.35261084 7.4606285 3.10551666 8 0 8 C0 5.36 0 2.72 0 0 Z " fill="#A7D2EC" transform="translate(206,82)"/>
<path d="M0 0 C1.65 0 3.3 0 5 0 C5.28875 0.639375 5.5775 1.27875 5.875 1.9375 C6.82823451 4.15206079 6.82823451 4.15206079 9 5 C8.67 5.66 8.34 6.32 8 7 C5.25851328 6.62952882 3.41406801 6.31412056 1.1875 4.625 C0 3 0 3 0 0 Z " fill="#D6EAF6" transform="translate(180,84)"/>
<path d="M0 0 C2.475 0.495 2.475 0.495 5 1 C4.67 2.32 4.34 3.64 4 5 C2.68 5.33 1.36 5.66 0 6 C0 4.02 0 2.04 0 0 Z " fill="#3899D4" transform="translate(207,83)"/>
<path d="M0 0 C0.66 0.33 1.32 0.66 2 1 C-0.77280706 4.08089673 -3.06326356 5.68775452 -7 7 C-4.66666667 4.66666667 -2.33333333 2.33333333 0 0 Z " fill="#408AD3" transform="translate(208,392)"/>
</svg>
