<?xml version="1.0" encoding="UTF-8"?>
<svg version="1.1" xmlns="http://www.w3.org/2000/svg" width="1640" height="400">
<path d="M0 0 C2.10304477 -0.1080023 4.20766909 -0.18558987 6.3125 -0.25 C8.07013672 -0.31960937 8.07013672 -0.31960937 9.86328125 -0.390625 C13 0 13 0 14.87109375 1.63671875 C16.24591427 4.51480324 16.48756869 6.88630931 16.75 10.0625 C17.58250563 16.33077766 19.63523787 20.13239579 23.18359375 25.2734375 C29.7240252 35.09111739 30.84010438 44.54565912 31 56 C34.57183801 57.24394936 38.02618254 58.28145833 41.75 58.9375 C47.92897357 60.12683627 54.06231606 61.5820417 59.74853516 64.32666016 C65.11084955 66.63268415 70.80889509 67.81045649 76.47038841 69.15806389 C78.57829267 69.66076798 80.68380946 70.17253116 82.78889465 70.68690491 C88.76906562 72.14699551 94.75209141 73.59493767 100.73901367 75.02709961 C104.41349564 75.90676456 108.08439294 76.80023025 111.75341225 77.70239449 C113.14714597 78.04216548 114.54218107 78.37664486 115.93849754 78.70564079 C117.88944217 79.16565755 119.83584433 79.6448112 121.78198242 80.12475586 C122.88893967 80.39106308 123.99589691 80.6573703 125.13639832 80.93174744 C128.36976422 82.13793873 129.92089515 83.25666813 132 86 C132.48101807 88.15142822 132.48101807 88.15142822 132.45410156 90.49316406 C132.45364838 91.81408051 132.45364838 91.81408051 132.45318604 93.16168213 C132.43254089 94.10348328 132.41189575 95.04528442 132.390625 96.015625 C132.38496521 96.98659119 132.37930542 97.95755737 132.37347412 98.95794678 C132.35110311 102.05580169 132.30090473 105.15249533 132.25 108.25 C132.22993597 110.35154578 132.21168503 112.45310972 132.1953125 114.5546875 C132.1512358 119.7035717 132.08220258 124.85158903 132 130 C129.36 130.99 126.72 131.98 124 133 C123.22900672 161.94002403 122.79227563 190.87332864 122.55526733 219.82235718 C122.49985755 226.51420277 122.43611671 233.20595402 122.37036133 239.89770508 C122.35942224 241.0119476 122.34848314 242.12619013 122.33721256 243.27419758 C122.30432932 246.6137889 122.27131589 249.95337892 122.23828125 253.29296875 C122.1174231 265.53751386 121.99848173 277.7819981 121.90659523 290.02679825 C121.86214169 295.80553385 121.79898116 301.58392479 121.72509766 307.36236572 C121.70025417 309.55952183 121.68238531 311.75676911 121.671875 313.95404053 C121.65727213 316.86965158 121.61924095 319.78394503 121.57421875 322.69921875 C121.57616745 323.51900711 121.57811615 324.33879547 121.5801239 325.1834259 C121.46134937 330.46938108 121.46134937 330.46938108 119.40649414 332.83276367 C116.2896898 334.34452603 113.14645298 335.71610589 109.921875 336.9765625 C109.2151062 337.25900314 108.5083374 337.54144379 107.78015137 337.83244324 C106.24504843 338.44573884 104.70895564 339.05656132 103.17199707 339.66519165 C98.99421898 341.32079493 94.82487307 342.99728291 90.65625 344.67578125 C89.34989594 345.20159035 89.34989594 345.20159035 88.01715088 345.73802185 C78.37327416 349.6342271 68.81110982 353.71836999 59.25 357.8125 C47.62124038 362.78762199 35.97577083 367.67810433 24.20581055 372.31225586 C13.83767872 376.41454007 3.5899229 380.79742753 -6.66186523 385.18041992 C-13.05627826 387.91283092 -19.45578944 390.61724127 -25.92358398 393.17285156 C-29.72731659 394.68808331 -33.47882028 396.32798258 -37.23828125 397.94921875 C-42.33505595 399.8884442 -42.33505595 399.8884442 -45 400 C-46.42461858 399.04684548 -47.84697766 398.09002366 -49.25401306 397.11109924 C-52.33632426 395.1495991 -55.6961489 393.8690959 -59.07421875 392.50390625 C-59.83869827 392.18848373 -60.6031778 391.87306122 -61.39082336 391.54808044 C-63.8205816 390.54675263 -66.25380009 389.55420432 -68.6875 388.5625 C-71.88011368 387.25423045 -75.0712406 385.94237432 -78.26171875 384.62890625 C-79.03276443 384.31196304 -79.80381012 383.99501984 -80.59822083 383.66847229 C-85.60170962 381.6031542 -90.54348356 379.43302013 -95.45678711 377.16040039 C-100.23750627 374.97908541 -105.09256903 372.97107282 -109.9375 370.9375 C-122.67786827 365.56794718 -135.38812187 360.13033211 -148.09228516 354.67578125 C-152.36572934 352.84217952 -156.641863 351.01488396 -160.91796875 349.1875 C-187.71979945 337.73068752 -187.71979945 337.73068752 -198.125 333.125 C-199.19838623 332.65175293 -199.19838623 332.65175293 -200.29345703 332.16894531 C-204.87572076 330.12427924 -204.87572076 330.12427924 -206 329 C-206.14694321 327.55340945 -206.22763747 326.10001849 -206.28125 324.64697266 C-206.3180336 323.70827835 -206.3548172 322.76958405 -206.39271545 321.80244446 C-206.42811935 320.76677841 -206.46352325 319.73111237 -206.5 318.6640625 C-206.5401976 317.58581711 -206.5803952 316.50757172 -206.62181091 315.39665222 C-206.75344622 311.80627812 -206.87711662 308.21568366 -207 304.625 C-207.04424103 303.37689545 -207.08848206 302.12879089 -207.13406372 300.84286499 C-207.75818058 283.20044147 -208.2017807 265.56256925 -208.4838562 247.91177368 C-208.89059431 223.20388738 -209.74319552 198.50941746 -210.5625 173.8125 C-210.59765087 172.7523682 -210.63280174 171.6922364 -210.66901779 170.5999794 C-211.10712365 157.39979783 -211.55087196 144.19981099 -212 131 C-214.64 130.01 -217.28 129.02 -220 128 C-221.13836436 119.90081747 -221.28784748 111.80695764 -221.35009766 103.64208984 C-221.3667753 102.04005527 -221.39421757 100.43809855 -221.43212891 98.83642578 C-221.48690884 96.49994247 -221.508752 94.16516364 -221.5234375 91.828125 C-221.54610687 91.11658264 -221.56877625 90.40504028 -221.59213257 89.67193604 C-221.57712879 86.13793633 -221.09989628 84.14979224 -219.13037109 81.1965332 C-214.78854915 78.14994359 -210.51964323 77.1853925 -205.390625 76.02734375 C-204.35041199 75.77755264 -203.31019897 75.52776154 -202.23846436 75.270401 C-198.91271159 74.47591424 -195.58175431 73.70638494 -192.25 72.9375 C-190.0556007 72.41765448 -187.86158535 71.89618535 -185.66796875 71.37304688 C-177.7222719 69.48474624 -169.76899128 67.63027202 -161.80664062 65.81347656 C-160.63545685 65.54392906 -160.63545685 65.54392906 -159.44061279 65.26893616 C-158.02752737 64.94406568 -156.61357187 64.62294305 -155.19854736 64.30662537 C-150.84782356 63.30450625 -146.99051006 61.86441204 -143.00390625 59.8828125 C-139.49055372 58.33501977 -135.76367727 57.67621625 -132 57 C-131.88785156 55.81857422 -131.88785156 55.81857422 -131.7734375 54.61328125 C-131.01477516 48.32828442 -129.86033356 43.26740053 -126.9375 37.625 C-123.72631086 31.26467368 -123.3225703 26.10420813 -123.30078125 19.1171875 C-123 16 -123 16 -121.66796875 14.1328125 C-116.80828491 10.83232464 -110.59987751 11.51701056 -105 12 C-98.45171985 13.64756408 -93.6579323 17.66372349 -88.54296875 21.8984375 C-79.3911045 29.70187698 -79.3911045 29.70187698 -68 32 C-67.15501953 31.55333984 -67.15501953 31.55333984 -66.29296875 31.09765625 C-62.91306228 29.47967717 -59.35212069 28.99580005 -55.6875 28.375 C-54.95337891 28.2409375 -54.21925781 28.106875 -53.46289062 27.96875 C-48.93966922 27.1821028 -44.60728806 26.6846723 -40 27 C-39.01 27.99 -39.01 27.99 -38 29 C-33.02015543 28.79308125 -30.65041533 27.28482794 -27.125 23.875 C-26.26519531 23.0603125 -25.40539062 22.245625 -24.51953125 21.40625 C-23.27236328 20.21515625 -23.27236328 20.21515625 -22 19 C-20.61137236 17.78339266 -19.2161546 16.57423888 -17.8125 15.375 C-15.18990645 13.10138059 -12.72987472 10.74031276 -10.3125 8.25 C-7.75112501 5.6476898 -5.31918803 3.61217704 -2 2 C-1.34 2 -0.68 2 0 2 C0 1.34 0 0.68 0 0 Z " fill="#0249AC" transform="translate(322,0)"/>
<path d="M0 0 C1.99523891 0.55284725 3.9911021 1.10339929 5.98701477 1.65380859 C7.34552215 2.02879714 8.70366567 2.40510632 10.06144714 2.78271484 C14.59007873 4.03658363 19.13443756 5.19934499 23.69921875 6.31640625 C24.87822754 6.611521 26.05723633 6.90663574 27.27197266 7.21069336 C29.49804376 7.76585862 31.72812894 8.30524101 33.96240234 8.82641602 C40.25446232 10.42998725 43.72245098 11.76410316 47.125 17.4375 C47.125 18.4275 47.125 19.4175 47.125 20.4375 C38.66796352 22.821055 30.20048783 25.15930906 21.70703125 27.41015625 C21.05895508 27.58195404 20.41087891 27.75375183 19.74316406 27.93075562 C16.50465897 28.78877369 13.26538469 29.64360278 10.02490234 30.49414062 C2.89641689 32.3790179 -4.14728131 34.41089053 -11.15698242 36.70092773 C-13.875 37.4375 -13.875 37.4375 -17.875 37.4375 C-17.875 51.6275 -17.875 65.8175 -17.875 80.4375 C-14.905 79.4475 -11.935 78.4575 -8.875 77.4375 C-7.30811678 76.98224582 -5.73635998 76.54269122 -4.15649414 76.13476562 C-3.34857925 75.92444702 -2.54066437 75.71412842 -1.70826721 75.49743652 C-0.44695229 75.17386169 -0.44695229 75.17386169 0.83984375 74.84375 C1.73562637 74.61095337 2.631409 74.37815674 3.55433655 74.13830566 C6.38964424 73.40178594 9.22597194 72.66930441 12.0625 71.9375 C14.89534364 71.20527271 17.72793051 70.47209615 20.55995178 69.73669434 C22.31257161 69.28170818 24.06566192 68.82852866 25.81932068 68.37756348 C30.04316426 67.28227439 34.20751134 66.10044269 38.36547852 64.77539062 C42.0624949 63.6411147 45.22560611 63.12965311 49.125 63.4375 C51.22501395 134.08169922 51.29550269 204.76896802 51.125 275.4375 C50.31981934 275.76959473 49.51463867 276.10168945 48.68505859 276.44384766 C45.62436121 277.70676315 42.56402376 278.9705437 39.50390625 280.23486328 C38.19317142 280.7762121 36.88230432 281.31724082 35.57128906 281.85791016 C27.4030369 285.22684365 19.25951181 288.64542148 11.14746094 292.14770508 C7.66575276 293.63347764 4.15917373 295.04399447 0.63671875 296.4296875 C-3.30895949 298.01286788 -7.2094856 299.70323945 -11.11328125 301.38671875 C-16.21005595 303.3259442 -16.21005595 303.3259442 -18.875 303.4375 C-20.29961858 302.48434548 -21.72197766 301.52752366 -23.12901306 300.54859924 C-26.21132426 298.5870991 -29.5711489 297.3065959 -32.94921875 295.94140625 C-33.71369827 295.62598373 -34.4781778 295.31056122 -35.26582336 294.98558044 C-37.6955816 293.98425263 -40.12880009 292.99170432 -42.5625 292 C-45.75511361 290.69173048 -48.94627835 289.37996595 -52.13671875 288.06640625 C-52.90708466 287.74950836 -53.67745056 287.43261047 -54.47116089 287.10610962 C-59.41379421 285.06469884 -64.31151471 282.94861474 -69.16178894 280.69471741 C-71.99864874 279.38020503 -74.84320996 278.08370652 -77.69018555 276.79125977 C-79.15333443 276.12683617 -79.15333443 276.12683617 -80.64604187 275.44898987 C-81.38159805 275.11519821 -82.11715424 274.78140656 -82.875 274.4375 C-83.63162066 248.77576777 -84.10800519 223.12006404 -84.38025212 197.44886827 C-84.43152871 192.6737641 -84.48616571 187.89869816 -84.54039001 183.12362671 C-84.64180408 174.15051042 -84.74035745 165.17736529 -84.83778423 156.20420492 C-84.94916649 145.95923632 -85.06388834 135.71430588 -85.17883885 125.4693768 C-85.41451042 104.45879057 -85.64615667 83.44816165 -85.875 62.4375 C-86.535 62.1075 -87.195 61.7775 -87.875 61.4375 C-88.05077828 57.12552347 -88.15635237 52.81448002 -88.25 48.5 C-88.30027344 47.28763672 -88.35054687 46.07527344 -88.40234375 44.82617188 C-88.5662238 34.74754886 -85.99812729 29.97294002 -79.375 22.6875 C-64.31786838 9.13608154 -49.25062109 2.86787883 -29.75 -1.9375 C-29.07606201 -2.10548096 -28.40212402 -2.27346191 -27.70776367 -2.4465332 C-17.56683263 -4.77802785 -9.83550967 -2.7631154 0 0 Z " fill="#5271FE" transform="translate(295.875,96.5625)"/>
<path d="M0 0 C2.10304477 -0.1080023 4.20766909 -0.18558987 6.3125 -0.25 C8.07013672 -0.31960937 8.07013672 -0.31960937 9.86328125 -0.390625 C13 0 13 0 14.87109375 1.63671875 C16.24591427 4.51480324 16.48756869 6.88630931 16.75 10.0625 C17.58160806 16.32401954 19.62029299 20.12840683 23.18359375 25.25390625 C29.77478425 35.21865232 32.16845446 46.20067091 30.50390625 58 C29.14994946 63.373844 25.54579551 67.0984284 21 70 C7.14703502 75.95211492 -8.18961832 77.52701264 -22.5 72.375 C-29.03997599 70.02251929 -33.4086714 69.7444567 -40 72 C-45.5692377 73.60167926 -50.24910657 73.98609149 -56.0625 73.6875 C-63.07352441 73.56167902 -67.63843496 75.23815878 -73.86401367 78.28637695 C-82.91417155 82.60544586 -92.67147931 83.81482397 -102.625 84.3125 C-106.4231313 84.62523702 -106.9103442 84.91292334 -109.8515625 87.76953125 C-115.14590337 92.54750697 -122.0046672 93.67093329 -128.75 95.375 C-130.09029109 95.73139485 -131.43014037 96.08945555 -132.76953125 96.44921875 C-142.45068171 99 -142.45068171 99 -146 99 C-146.84069555 101.94695034 -147.14646768 104.61631919 -147.20532227 107.67675781 C-147.22526749 108.59741028 -147.24521271 109.51806274 -147.26576233 110.46661377 C-147.28247482 111.45216248 -147.29918732 112.43771118 -147.31640625 113.453125 C-147.3475779 114.97616241 -147.3475779 114.97616241 -147.37937927 116.52996826 C-147.44470597 119.76991073 -147.50368137 123.00993348 -147.5625 126.25 C-147.60570126 128.44792493 -147.64931607 130.64584178 -147.69335938 132.84375 C-147.80037007 138.22908206 -147.90216773 143.6144938 -148 149 C-147.01 149 -146.02 149 -145 149 C-144.73363166 166.83478846 -144.47276153 184.66964892 -144.21769714 202.50460243 C-144.09903441 210.79379564 -143.97882932 219.08296012 -143.85449219 227.37207031 C-143.21231237 270.25157375 -142.84314992 313.11532846 -143 356 C-144.41825077 355.53472235 -145.8358538 355.06747002 -147.25318909 354.59941101 C-148.04268731 354.33942668 -148.83218554 354.07944235 -149.64560795 353.8115797 C-153.13798536 352.60772641 -156.51509989 351.1766805 -159.90234375 349.70703125 C-160.61879562 349.39957474 -161.3352475 349.09211823 -162.07341003 348.77534485 C-164.36307647 347.79148091 -166.6503751 346.80225593 -168.9375 345.8125 C-170.51083081 345.13443082 -172.08423602 344.45653423 -173.65771484 343.77880859 C-181.82601167 340.25655292 -189.98913018 336.72161018 -198.125 333.125 C-198.83906006 332.81022705 -199.55312012 332.4954541 -200.28881836 332.17114258 C-204.87604432 330.12395568 -204.87604432 330.12395568 -206 329 C-206.14694321 327.55340945 -206.22763747 326.10001849 -206.28125 324.64697266 C-206.3180336 323.70827835 -206.3548172 322.76958405 -206.39271545 321.80244446 C-206.42811935 320.76677841 -206.46352325 319.73111237 -206.5 318.6640625 C-206.5401976 317.58581711 -206.5803952 316.50757172 -206.62181091 315.39665222 C-206.75344622 311.80627812 -206.87711662 308.21568366 -207 304.625 C-207.04424103 303.37689545 -207.08848206 302.12879089 -207.13406372 300.84286499 C-207.75818058 283.20044147 -208.2017807 265.56256925 -208.4838562 247.91177368 C-208.89059431 223.20388738 -209.74319552 198.50941746 -210.5625 173.8125 C-210.59765087 172.7523682 -210.63280174 171.6922364 -210.66901779 170.5999794 C-211.10712365 157.39979783 -211.55087196 144.19981099 -212 131 C-214.64 130.01 -217.28 129.02 -220 128 C-221.13836436 119.90081747 -221.28784748 111.80695764 -221.35009766 103.64208984 C-221.3667753 102.04005527 -221.39421757 100.43809855 -221.43212891 98.83642578 C-221.48690884 96.49994247 -221.508752 94.16516364 -221.5234375 91.828125 C-221.54610687 91.11658264 -221.56877625 90.40504028 -221.59213257 89.67193604 C-221.57712879 86.13793633 -221.09989628 84.14979224 -219.13037109 81.1965332 C-214.78854915 78.14994359 -210.51964323 77.1853925 -205.390625 76.02734375 C-204.35041199 75.77755264 -203.31019897 75.52776154 -202.23846436 75.270401 C-198.91271159 74.47591424 -195.58175431 73.70638494 -192.25 72.9375 C-190.0556007 72.41765448 -187.86158535 71.89618535 -185.66796875 71.37304688 C-177.7222719 69.48474624 -169.76899128 67.63027202 -161.80664062 65.81347656 C-160.63545685 65.54392906 -160.63545685 65.54392906 -159.44061279 65.26893616 C-158.02752737 64.94406568 -156.61357187 64.62294305 -155.19854736 64.30662537 C-150.84782356 63.30450625 -146.99051006 61.86441204 -143.00390625 59.8828125 C-139.49055372 58.33501977 -135.76367727 57.67621625 -132 57 C-131.88785156 55.81857422 -131.88785156 55.81857422 -131.7734375 54.61328125 C-131.01477516 48.32828442 -129.86033356 43.26740053 -126.9375 37.625 C-123.72631086 31.26467368 -123.3225703 26.10420813 -123.30078125 19.1171875 C-123 16 -123 16 -121.66796875 14.1328125 C-116.80828491 10.83232464 -110.59987751 11.51701056 -105 12 C-98.45171985 13.64756408 -93.6579323 17.66372349 -88.54296875 21.8984375 C-79.3911045 29.70187698 -79.3911045 29.70187698 -68 32 C-67.15501953 31.55333984 -67.15501953 31.55333984 -66.29296875 31.09765625 C-62.91306228 29.47967717 -59.35212069 28.99580005 -55.6875 28.375 C-54.95337891 28.2409375 -54.21925781 28.106875 -53.46289062 27.96875 C-48.93966922 27.1821028 -44.60728806 26.6846723 -40 27 C-39.01 27.99 -39.01 27.99 -38 29 C-33.02015543 28.79308125 -30.65041533 27.28482794 -27.125 23.875 C-26.26519531 23.0603125 -25.40539062 22.245625 -24.51953125 21.40625 C-23.27236328 20.21515625 -23.27236328 20.21515625 -22 19 C-20.61137236 17.78339266 -19.2161546 16.57423888 -17.8125 15.375 C-15.18990645 13.10138059 -12.72987472 10.74031276 -10.3125 8.25 C-7.75112501 5.6476898 -5.31918803 3.61217704 -2 2 C-1.34 2 -0.68 2 0 2 C0 1.34 0 0.68 0 0 Z " fill="#38B5FE" transform="translate(322,0)"/>
<path d="M0 0 C2.50177386 0.61995062 5.00317587 1.2413419 7.50439453 1.86352539 C8.20107742 2.03601051 8.89776031 2.20849564 9.61555481 2.38620758 C17.07996029 4.24535923 24.47720056 6.33117044 31.875 8.4375 C33.973257 9.0324718 36.07171557 9.62672827 38.17021179 10.22085571 C39.54196242 10.60923522 40.91363744 10.9978819 42.28523254 11.3868103 C46.19732886 12.49492315 50.11329821 13.5871251 54.03515625 14.66015625 C54.88287598 14.89226807 55.7305957 15.12437988 56.60400391 15.36352539 C58.11466362 15.7755666 59.62601708 16.1850762 61.13818359 16.59155273 C65.89050463 17.89050463 65.89050463 17.89050463 67 19 C67.15764615 21.87678638 67.2488443 24.73112022 67.29882812 27.6105957 C67.32798309 28.99668691 67.32798309 28.99668691 67.35772705 30.41077995 C67.42148921 33.56152896 67.47682289 36.71235782 67.53125 39.86328125 C67.5517894 40.97099695 67.5723288 42.07871265 67.5934906 43.2199955 C68.24910493 78.86933906 68.34016962 114.52701398 68.52606201 150.18115234 C68.57324297 159.21019601 68.62252161 168.23921915 68.67754889 177.26821882 C68.70078801 181.11130666 68.72239146 184.95438655 68.73963928 188.79750633 C68.81828326 206.21658014 69.09769006 223.60037328 70 241 C66.61443932 240.3673987 63.99772789 239.62984909 60.9765625 237.97265625 C55.87126875 235.34056427 50.64270069 233.11937349 45.3359375 230.93359375 C44.45383606 230.57020905 43.57173462 230.20682434 42.66290283 229.83242798 C39.9013794 228.69805305 37.13841332 227.5672626 34.375 226.4375 C31.59914212 225.30168006 28.82379923 224.16467601 26.04995728 223.02394104 C24.33482872 222.31865278 22.61857019 221.6161035 20.90097046 220.91685486 C15.81181861 218.82484745 10.89096961 216.51820991 6 214 C4.66738267 213.33190325 3.33423333 212.66486363 2 212 C1.27968974 187.10241171 0.75248228 162.20881231 0.46757126 137.30242538 C0.43693846 134.63866971 0.40519119 131.97492888 0.37332153 129.31118774 C-0.13608413 86.20824691 -0.10334167 43.10519452 0 0 Z " fill="#5CE0E5" transform="translate(211,159)"/>
<path d="M0 0 C0.09325727 42.28305188 -0.32150444 84.55786984 -0.8004303 126.83778381 C-0.914178 136.90071564 -1.02165048 146.9635075 -1.09797955 157.02679825 C-1.14231811 162.80551746 -1.20400484 168.58391686 -1.27590942 174.36236572 C-1.3000875 176.55952584 -1.31752479 178.75677164 -1.32785034 180.95404053 C-1.34248175 183.86965545 -1.3806112 186.78394346 -1.42578125 189.69921875 C-1.42286575 190.92890129 -1.42286575 190.92890129 -1.41989136 192.1834259 C-1.53842038 197.46006223 -1.53842038 197.46006223 -3.55175781 199.81518555 C-6.90015082 201.43562345 -10.28636576 202.89668991 -13.74609375 204.2578125 C-14.5058551 204.56258011 -15.26561646 204.86734772 -16.04840088 205.18135071 C-18.50940443 206.16772867 -20.9734395 207.14628703 -23.4375 208.125 C-26.7982204 209.46931254 -30.15712853 210.818111 -33.515625 212.16796875 C-34.33910934 212.49847733 -35.16259369 212.8289859 -36.0110321 213.16950989 C-43.47478333 216.17308296 -50.87297608 219.3134046 -58.23413086 222.56103516 C-63.80268275 225 -63.80268275 225 -66 225 C-66 156.36 -66 87.72 -66 17 C-31.28794134 7.42425968 -31.28794134 7.42425968 -20.45068359 4.55126953 C-18.27732308 3.97405852 -16.10550496 3.39123192 -13.93359375 2.80859375 C-12.52613071 2.43456059 -11.1185825 2.06084776 -9.7109375 1.6875 C-8.48681152 1.36136719 -7.26268555 1.03523437 -6.00146484 0.69921875 C-3 0 -3 0 0 0 Z " fill="#5370FD" transform="translate(445,133)"/>
<path d="M0 0 C2.06848162 0.47007034 4.13650936 0.94213821 6.2043457 1.41503906 C7.93186821 1.809039 7.93186821 1.809039 9.69429016 2.21099854 C13.91923565 3.21940167 18.04572377 4.44826042 22.1875 5.75 C33.42411086 9.20401676 44.77220332 12.22162902 56.13598633 15.22558594 C59.43374528 16.11728242 62.71600653 17.05900448 66 18 C66.26636834 35.83478846 66.52723847 53.66964892 66.78230286 71.50460243 C66.90096559 79.79379564 67.02117068 88.08296012 67.14550781 96.37207031 C67.78768763 139.25157375 68.15685008 182.11532846 68 225 C66.58174923 224.53472235 65.1641462 224.06747002 63.74681091 223.59941101 C62.95731269 223.33942668 62.16781446 223.07944235 61.35439205 222.8115797 C57.86201464 221.60772641 54.48490011 220.1766805 51.09765625 218.70703125 C50.38120438 218.39957474 49.6647525 218.09211823 48.92658997 217.77534485 C46.63692353 216.79148091 44.3496249 215.80225593 42.0625 214.8125 C40.48916919 214.13443082 38.91576398 213.45653423 37.34228516 212.77880859 C29.17398833 209.25655292 21.01086982 205.72161018 12.875 202.125 C12.16093994 201.81022705 11.44687988 201.4954541 10.71118164 201.17114258 C6.12395568 199.12395568 6.12395568 199.12395568 5 198 C4.85305679 196.55340945 4.77236253 195.10001849 4.71875 193.64697266 C4.68197144 192.70842941 4.64519287 191.76988617 4.6072998 190.80290222 C4.5541864 189.24917656 4.5541864 189.24917656 4.5 187.6640625 C4.45975708 186.58445755 4.41951416 185.5048526 4.37805176 184.39253235 C4.24647792 180.80353105 4.12284345 177.21431008 4 173.625 C3.93413696 171.76779831 3.93413696 171.76779831 3.86694336 169.87307739 C3.2179536 151.53749704 2.75419235 133.20433196 2.44876099 114.8600769 C2.23216338 101.92888247 1.9294996 89.00391099 1.49609375 76.078125 C1.47338535 75.39757616 1.45067696 74.71702732 1.42728043 74.01585579 C1.1827096 66.70602627 0.92735941 59.39668702 0.66015625 52.08764648 C0.04411626 34.71422057 -0.11328163 17.38204946 0 0 Z " fill="#5CE0E5" transform="translate(111,131)"/>
<path d="M0 0 C0.73683014 -0.00817749 1.47366028 -0.01635498 2.2328186 -0.02478027 C4.68759347 -0.04971526 7.14230947 -0.06618567 9.59716797 -0.08056641 C10.4380685 -0.08589008 11.27896904 -0.09121376 12.14535141 -0.09669876 C16.61056355 -0.12348657 21.07574741 -0.14282885 25.54101562 -0.15722656 C29.21510208 -0.170477 32.88862135 -0.19815378 36.5625 -0.23925781 C41.01172681 -0.28903514 45.46044552 -0.31340466 49.90993881 -0.32045364 C51.59457817 -0.32710268 53.27920908 -0.34215546 54.9636879 -0.36634445 C69.86283482 -0.56779375 83.02704946 1.28493534 94.58935547 11.67724609 C102.48961181 20.04528077 106.81339051 29.61852532 107.40185547 41.13037109 C106.9730689 51.95294402 102.41575722 60.52316656 94.96435547 68.19287109 C94.22185547 68.71751953 93.47935547 69.24216797 92.71435547 69.78271484 C92.13685547 70.24806641 91.55935547 70.71341797 90.96435547 71.19287109 C90.96435547 72.18287109 90.96435547 73.17287109 90.96435547 74.19287109 C93.19199331 75.84088238 93.19199331 75.84088238 96.02685547 77.38037109 C105.46672626 83.16062574 112.3575142 91.64110172 115.33935547 102.44287109 C117.10552089 112.08108808 115.74935819 123.79385087 110.71435547 132.30615234 C109.23070012 134.38246349 107.66011088 136.2861054 105.96435547 138.19287109 C105.35333984 138.88509766 104.74232422 139.57732422 104.11279297 140.29052734 C96.94610934 147.92832762 89.05634265 151.72000006 78.96435547 154.19287109 C78.25543152 154.36712616 77.54650757 154.54138123 76.81610107 154.72091675 C73.19441737 155.32029327 69.63613385 155.33230385 65.97705078 155.32226562 C64.7933062 155.3248941 64.7933062 155.3248941 63.58564758 155.32757568 C60.98790259 155.33196267 58.39022611 155.32906846 55.79248047 155.32568359 C53.98598213 155.32635727 52.17948387 155.32732783 50.37298584 155.32858276 C46.5937005 155.33005523 42.81443884 155.32791865 39.03515625 155.32324219 C34.1803157 155.31752881 29.32553024 155.32083689 24.47069168 155.32681465 C20.74421774 155.33041851 17.01775698 155.32928278 13.29128265 155.32668686 C11.50023136 155.32601795 9.70917888 155.32684477 7.91812897 155.32916641 C5.42341406 155.33169182 2.92879012 155.32785471 0.43408203 155.32226562 C-0.31187729 155.32428986 -1.05783661 155.32631409 -1.82640076 155.32839966 C-6.92137842 155.3071372 -6.92137842 155.3071372 -8.03564453 154.19287109 C-8.13452265 152.22089571 -8.16196709 150.2453267 -8.16262817 148.27087402 C-8.165448 146.98357895 -8.16826782 145.69628387 -8.1711731 144.36997986 C-8.1692285 142.93008409 -8.16718031 141.49018846 -8.16503906 140.05029297 C-8.16639305 138.54439756 -8.16817296 137.03850248 -8.17034912 135.53260803 C-8.17492382 131.43148302 -8.17313375 127.33038305 -8.16997004 123.22925758 C-8.16744662 118.94690506 -8.16978392 114.66455475 -8.1713562 110.38220215 C-8.17317795 103.18936781 -8.17077145 95.99654372 -8.16601562 88.80371094 C-8.16057299 80.47570776 -8.16233565 72.14772905 -8.16784203 63.81972647 C-8.17237301 56.68259264 -8.17302379 49.5454662 -8.17040336 42.40833139 C-8.1688405 38.13988754 -8.16864706 33.87145521 -8.17193985 29.60301208 C-8.17481834 25.59103176 -8.17284328 21.57908313 -8.16704559 17.56710625 C-8.16571788 16.09042349 -8.16611231 14.61373808 -8.16830826 13.13705635 C-8.17101927 11.12966123 -8.16702537 9.1222603 -8.16262817 7.11486816 C-8.16225115 5.98881416 -8.16187412 4.86276016 -8.16148567 3.70258331 C-7.90890961 -1.33466625 -4.07811655 0.02474032 0 0 Z M19.96435547 25.19287109 C19.86328673 28.06551166 19.82465875 30.91360738 19.83154297 33.78662109 C19.83058624 34.64848022 19.82962952 35.51033936 19.8286438 36.39831543 C19.82796197 38.22420321 19.82981642 40.05009341 19.83398438 41.87597656 C19.83933261 44.68088188 19.83403948 47.48562705 19.82763672 50.29052734 C19.8282975 52.06005895 19.82957866 53.82959045 19.83154297 55.59912109 C19.82951874 56.44390015 19.82749451 57.2886792 19.82540894 58.15905762 C19.46511036 61.9847397 19.46511036 61.9847397 20.96435547 65.19287109 C26.78468431 65.48748632 32.60774376 65.50717534 38.43481445 65.54296875 C40.39684995 65.55943609 42.35882779 65.5866023 44.32055664 65.625 C59.53579601 66.38721283 59.53579601 66.38721283 72.96435547 60.19287109 C78.07871959 54.64881655 78.30991777 48.71661447 78.24560547 41.49755859 C77.7460122 35.62733767 75.70510866 31.93362429 71.58935547 27.81787109 C65.58752895 24.10245468 60.07498329 23.90676897 53.22607422 23.96240234 C51.84401543 23.96308968 51.84401543 23.96308968 50.43403625 23.96379089 C48.49678246 23.96680044 46.55953081 23.97464766 44.62231445 23.98706055 C41.64444506 24.00541677 38.66688514 24.00756938 35.68896484 24.00732422 C33.80549859 24.01223609 31.92203446 24.01806295 30.03857422 24.02490234 C29.1438591 24.02601517 28.24914398 24.02712799 27.32731628 24.02827454 C23.32678596 23.65757946 23.32678596 23.65757946 19.96435547 25.19287109 Z M19.96435547 86.19287109 C19.86640236 87.56896991 19.83637459 88.95000992 19.83496094 90.32958984 C19.83180878 91.20719971 19.82865662 92.08480957 19.82540894 92.98901367 C19.82743317 93.94316162 19.8294574 94.89730957 19.83154297 95.88037109 C19.83058624 96.85321045 19.82962952 97.8260498 19.8286438 98.82836914 C19.82796189 100.88964909 19.82981694 102.95093118 19.83398438 105.01220703 C19.83933246 108.17924798 19.83403975 111.34614709 19.82763672 114.51318359 C19.8282975 116.51057974 19.82957866 118.5079758 19.83154297 120.50537109 C19.82951874 121.45951904 19.82749451 122.41366699 19.82540894 123.39672852 C19.8285611 124.27433838 19.83171326 125.15194824 19.83496094 126.05615234 C19.83575653 126.8325708 19.83655212 127.60898926 19.83737183 128.40893555 C19.77032005 130.21720771 19.77032005 130.21720771 20.96435547 131.19287109 C22.38412599 131.30659942 23.80943147 131.35240382 25.23364258 131.36987305 C26.14226547 131.38270828 27.05088837 131.39554352 27.98704529 131.4087677 C28.97858109 131.41615463 29.97011688 131.42354156 30.99169922 131.43115234 C32.00978165 131.43922409 33.02786407 131.44729584 34.07679749 131.45561218 C36.2415292 131.46947945 38.40628302 131.48018971 40.57104492 131.48803711 C43.85688069 131.50513704 47.14168068 131.54898586 50.42724609 131.59326172 C52.53205641 131.6033983 54.63687529 131.61191137 56.74169922 131.61865234 C57.71501694 131.63616043 58.68833466 131.65366852 59.69114685 131.67170715 C67.66350658 131.64681508 74.37256699 129.84767127 80.83935547 125.06787109 C84.86297111 119.62415581 87.76646711 113.15757242 87.34716797 106.26708984 C86.23995185 100.26778616 84.14318113 93.82640394 78.92651367 90.20776367 C67.89253797 84.50062955 56.77689525 84.65484714 44.66699219 84.83618164 C41.6787036 84.88090466 38.69122116 84.89772922 35.70263672 84.90966797 C33.80548953 84.92306827 31.90835231 84.93798459 30.01123047 84.95458984 C28.66928619 84.96567024 28.66928619 84.96567024 27.30023193 84.97697449 C23.31278662 84.64509924 23.31278662 84.64509924 19.96435547 86.19287109 Z " fill="#155BCD" transform="translate(897.03564453125,124.80712890625)"/>
<path d="M0 0 C2.53067896 1.94607251 4.90790368 3.97735845 7.26953125 6.125 C8.12417969 6.8984375 8.97882813 7.671875 9.859375 8.46875 C19.26447016 17.40712615 24.76480117 26.65164389 28.26953125 39.125 C25.54588087 41.84865038 17.61884756 40.45883497 13.95703125 40.5 C12.70728516 40.53738281 11.45753906 40.57476562 10.16992188 40.61328125 C8.96916016 40.62488281 7.76839844 40.63648438 6.53125 40.6484375 C4.8754895 40.6781665 4.8754895 40.6781665 3.1862793 40.70849609 C0.26953125 40.125 0.26953125 40.125 -2.01538086 37.7277832 C-2.86434937 36.43940552 -2.86434937 36.43940552 -3.73046875 35.125 C-4.2925 34.40957031 -4.85453125 33.69414062 -5.43359375 32.95703125 C-5.9440625 32.29058594 -6.45453125 31.62414062 -6.98046875 30.9375 C-7.76164062 29.92623047 -7.76164062 29.92623047 -8.55859375 28.89453125 C-9.73046875 27.125 -9.73046875 27.125 -9.73046875 25.125 C-10.29765625 24.85429687 -10.86484375 24.58359375 -11.44921875 24.3046875 C-13.81381987 23.0818972 -15.99222167 21.68993896 -18.23046875 20.25 C-32.11851532 11.85973258 -47.38803504 10.33069697 -63 13.95703125 C-75.81818123 17.97026286 -86.46275076 24.79782322 -92.97094727 36.7331543 C-101.42987659 53.14051049 -103.04344467 69.51252381 -97.43701172 87.17041016 C-92.89193049 99.74398318 -86.06986419 107.44257146 -74.73046875 114.125 C-74.09238281 114.53105469 -73.45429687 114.93710938 -72.796875 115.35546875 C-60.81121556 122.32263382 -45.84308662 121.98103175 -32.73046875 119.125 C-20.74331951 115.77509802 -11.19874716 109.80785742 -4.5078125 99.18359375 C-1.76098471 94.15266543 -1.51355273 91.38967183 -0.73046875 85.125 C-16.57046875 84.795 -32.41046875 84.465 -48.73046875 84.125 C-48.73046875 62.125 -48.73046875 62.125 -47.73046875 61.125 C-45.26602818 61.02999452 -42.82972249 60.99942015 -40.36499023 61.01147461 C-39.59431213 61.01132858 -38.82363403 61.01118256 -38.02960205 61.0110321 C-35.47022736 61.0117314 -32.91092455 61.01952455 -30.3515625 61.02734375 C-28.5817926 61.02920787 -26.81202219 61.0306318 -25.04225159 61.03163147 C-20.37495509 61.03545712 -15.70768952 61.0452878 -11.04040527 61.05633545 C-6.2814984 61.06654856 -1.52258654 61.07112887 3.23632812 61.07617188 C12.58074278 61.08691003 21.92513445 61.10398701 31.26953125 61.125 C31.29678965 63.63939779 31.31649352 66.15349281 31.33203125 68.66796875 C31.34041016 69.369823 31.34878906 70.07167725 31.35742188 70.7947998 C31.44120026 88.94852907 24.67181719 107.80402621 12.26953125 121.125 C11.48578125 122.15625 10.70203125 123.1875 9.89453125 124.25 C-4.2880809 139.78333712 -23.55230963 146.13705423 -44.05859375 147.31640625 C-66.96796183 147.73960886 -86.8272936 140.65830857 -103.73046875 125.125 C-110.49669073 118.43803098 -116.00975444 111.37993892 -120.73046875 103.125 C-121.32988281 102.07699219 -121.32988281 102.07699219 -121.94140625 101.0078125 C-127.73891512 90.15382973 -128.9101369 78.87371 -128.91796875 66.75 C-128.93021484 65.76 -128.94246094 64.77 -128.95507812 63.75 C-128.96727143 57.58831523 -128.33578598 52.06874271 -126.73046875 46.125 C-126.53066406 45.26390625 -126.33085938 44.4028125 -126.125 43.515625 C-120.89460075 24.27898883 -106.58704207 7.40159514 -89.73046875 -2.875 C-61.51483844 -18.57086764 -27.01455703 -18.55076877 0 0 Z " fill="#5271FF" transform="translate(1238.73046875,135.875)"/>
<path d="M0 0 C12.31916702 10.00932321 24.22844306 23.77549253 27 40 C26.67 41.65 26.34 43.3 26 45 C17.09 45 8.18 45 -1 45 C-2.7634375 41.2875 -2.7634375 41.2875 -4.5625 37.5 C-10.43525379 25.66536727 -16.56270077 19.29425575 -29 14 C-44.44265926 8.91258188 -58.28459781 10.6996278 -73 17 C-75.83096251 18.47249714 -78.41243367 20.13673109 -81 22 C-81.58265625 22.38285156 -82.1653125 22.76570313 -82.765625 23.16015625 C-92.26348027 30.15519831 -97.62403313 43.49472614 -99.6875 54.75 C-101.30453485 71.69517767 -98.81516646 87.77685744 -88.78125 101.90625 C-79.39587929 112.93817697 -66.23917548 118.25504335 -52.11132812 119.86767578 C-38.22608818 120.73791168 -24.06487538 116.44539648 -13.31640625 107.6171875 C-7.62781033 101.72818035 -4.47263226 93.24462937 -1 86 C8.24 86 17.48 86 27 86 C24.32586381 104.71895335 15.21038163 119.26212555 0.4921875 131 C-12.03811678 140.11294857 -26.43960644 145.32832834 -42 146 C-42.86109375 146.0515625 -43.7221875 146.103125 -44.609375 146.15625 C-65.23147604 146.8250749 -84.70014673 140.2791955 -100.1875 126.5625 C-101.7995013 125.04997346 -103.40404924 123.52945281 -105 122 C-105.7115625 121.35160156 -106.423125 120.70320312 -107.15625 120.03515625 C-121.42371424 106.61825237 -128.66013845 87.16394424 -129.45361328 67.85668945 C-129.87397806 44.8007876 -121.34109452 25.10241579 -105.54248047 8.57080078 C-78.01353291 -19.46358488 -31.70573039 -24.21965516 0 0 Z " fill="#155BCD" transform="translate(655,137)"/>
<path d="M0 0 C4.31248609 -0.02886537 8.62494762 -0.04675255 12.9375 -0.0625 C14.16919922 -0.07087891 15.40089844 -0.07925781 16.66992188 -0.08789062 C17.83974609 -0.09111328 19.00957031 -0.09433594 20.21484375 -0.09765625 C21.84087524 -0.10551147 21.84087524 -0.10551147 23.49975586 -0.11352539 C26 0 26 0 27 1 C27.1094182 4.02131387 27.15423958 7.02060231 27.15771484 10.04272461 C27.16533592 11.46725449 27.16533592 11.46725449 27.17311096 12.92056274 C27.18384306 14.99185692 27.192452 17.06316291 27.19923019 19.1344738 C27.21099375 22.41804473 27.23044364 25.70148261 27.25234985 28.98500061 C27.3140257 38.32434621 27.36788477 47.66368139 27.40136719 57.00317383 C27.42238099 62.71028939 27.457748 68.41716784 27.50212479 74.12414742 C27.51624277 76.29569253 27.52499768 78.46727966 27.52817917 80.63886833 C27.53311956 83.69040342 27.55636137 86.74131702 27.58349609 89.79272461 C27.58048996 90.68092392 27.57748383 91.56912323 27.5743866 92.48423767 C27.70938216 102.771108 30.9350426 112.64468949 37 121 C43.08609664 126.86187203 49.82677974 129.41007265 58 131 C59.85625 131.433125 59.85625 131.433125 61.75 131.875 C70.98121492 132.76773066 81.30658268 129.86002629 88.91796875 124.72265625 C96.75796924 118.23590162 100.66320202 108.92901164 102 99 C102.15651734 95.7798103 102.17435188 92.5622208 102.18945312 89.33862305 C102.19774643 88.38350327 102.20603973 87.42838348 102.21458435 86.44432068 C102.23193071 84.37855842 102.2471121 82.31277708 102.26036072 80.24698448 C102.28143996 76.98229793 102.30845455 73.71770817 102.33703613 70.45307922 C102.4067574 62.35143875 102.46640734 54.24973005 102.52606201 46.14801025 C102.57690006 39.29032444 102.6316686 32.43269291 102.69187927 25.57508278 C102.71853343 22.35042027 102.73929304 19.12575285 102.7598877 15.90104675 C102.77648034 13.93883009 102.79335125 11.97661576 102.81054688 10.0144043 C102.81473129 9.11105347 102.81891571 8.20770264 102.82322693 7.27697754 C102.88614578 1.11385422 102.88614578 1.11385422 104 0 C105.91458282 -0.09971786 107.83282317 -0.13080589 109.75 -0.1328125 C110.9153125 -0.13410156 112.080625 -0.13539062 113.28125 -0.13671875 C114.5084375 -0.13285156 115.735625 -0.12898438 117 -0.125 C118.84078125 -0.13080078 118.84078125 -0.13080078 120.71875 -0.13671875 C122.46671875 -0.13478516 122.46671875 -0.13478516 124.25 -0.1328125 C125.32765625 -0.13168457 126.4053125 -0.13055664 127.515625 -0.12939453 C130 0 130 0 131 1 C131.11141666 4.16359649 131.15740938 7.30555666 131.16113281 10.4699707 C131.16609772 11.46521255 131.17106262 12.46045441 131.17617798 13.4858551 C131.19085444 16.79917074 131.19761398 20.11243836 131.203125 23.42578125 C131.20887607 25.7273102 131.21463381 28.02883913 131.22039795 30.33036804 C131.23092632 35.17019881 131.23675559 40.0100129 131.24023438 44.84985352 C131.24569453 51.02882892 131.26966151 57.20758121 131.29820633 63.38648701 C131.31691287 68.14882529 131.32204277 72.91111099 131.32357025 77.67348289 C131.32658397 79.94947708 131.33456886 82.22547062 131.34775543 84.5014286 C131.46521474 106.35131678 128.82809827 123.65173176 113.25 140.1875 C100.0803134 152.72524386 83.45546562 157.79936235 65.5625 158.25 C44.75089539 157.73047389 28.90550116 151.5197931 14.26953125 136.82592773 C-0.65403991 121.02808078 -0.43415808 102.78529195 -0.29296875 82.421875 C-0.2873655 80.04006214 -0.28309885 77.65824579 -0.28010559 75.27642822 C-0.26871427 69.04248312 -0.23929665 62.80875155 -0.20599365 56.57489014 C-0.17516907 50.19969571 -0.16157388 43.8244664 -0.14648438 37.44921875 C-0.11442115 24.96605262 -0.06329455 12.48304414 0 0 Z " fill="#155BCD" transform="translate(715,125)"/>
<path d="M0 0 C9.32933479 0.94874591 9.32933479 0.94874591 13 3 C14.8340541 5.93098407 15.2463037 8.15794212 15.22705078 11.58496094 C15.22689972 12.48559265 15.22674866 13.38622437 15.22659302 14.31414795 C15.21627045 15.27782288 15.20594788 16.2414978 15.1953125 17.234375 C15.1924826 18.22753723 15.18965271 19.22069946 15.18673706 20.24395752 C15.17555143 23.41276144 15.15044962 26.58128165 15.125 29.75 C15.11496812 31.8997355 15.10584263 34.04947543 15.09765625 36.19921875 C15.07561741 41.46624246 15.04215584 46.73310096 15 52 C13.68 52 12.36 52 11 52 C11 120.64 11 189.28 11 260 C3.76480812 263.61759594 -3.12209606 267.03396925 -10.625 269.875 C-11.41261719 270.18179687 -12.20023437 270.48859375 -13.01171875 270.8046875 C-18.72541155 273 -18.72541155 273 -21 273 C-21.26399243 251.70781622 -21.5248793 230.41559627 -21.78230286 209.12333202 C-21.90196124 199.23169894 -22.02254727 189.34007896 -22.14550781 179.44848633 C-22.25297395 170.80313933 -22.35850574 162.15777098 -22.46193409 153.5123747 C-22.51650082 148.95639997 -22.57188594 144.40043934 -22.62960815 139.8445034 C-22.96175543 113.56193247 -23.05540051 87.28459705 -23 61 C-20.525 60.505 -20.525 60.505 -18 60 C-18 50.76 -18 41.52 -18 32 C-17.67 32.99 -17.34 33.98 -17 35 C-16.34 35 -15.68 35 -15 35 C-15.04125 34.175 -15.0825 33.35 -15.125 32.5 C-15.01086323 29.30417052 -14.41887474 26.69554371 -13.578125 23.6328125 C-12.23466678 17.51463116 -11.70934161 11.21805835 -11 5 C-5.14340094 6.66153012 0.4590134 8.47041916 6 11 C4.02 7.37 2.04 3.74 0 0 Z " fill="#FD1617" transform="translate(368,98)"/>
<path d="M0 0 C-0.556875 0.4125 -1.11375 0.825 -1.6875 1.25 C-13.62634095 10.28479856 -22.81036282 20.71484081 -28 35 C-26.64455078 34.22462891 -26.64455078 34.22462891 -25.26171875 33.43359375 C-24.07060933 32.76769793 -22.8791866 32.10236234 -21.6875 31.4375 C-20.79514648 30.92413086 -20.79514648 30.92413086 -19.88476562 30.40039062 C-18.29717441 29.52233738 -16.65006069 28.75413732 -15 28 C-14.01 28.33 -13.02 28.66 -12 29 C-10.83325195 31.59204102 -10.83325195 31.59204102 -9.73828125 35.00390625 C-9.34189453 36.21884766 -8.94550781 37.43378906 -8.53710938 38.68554688 C-8.12864688 39.97778263 -7.72044714 41.27010146 -7.3125 42.5625 C-6.89367951 43.85908024 -6.4737709 45.15530955 -6.05273438 46.45117188 C-5.02442304 49.63066324 -4.01083694 52.81491002 -3 56 C-1.68 51.71 -0.36 47.42 1 43 C1.33 43 1.66 43 2 43 C2 50.26 2 57.52 2 65 C3.32 65.33 4.64 65.66 6 66 C6.26351701 88.03046321 6.52439681 110.06095634 6.78230286 132.09148598 C6.90216477 142.3251655 7.02282684 152.55883432 7.14550781 162.79248047 C7.25267982 171.73260182 7.35821303 180.67274092 7.46193409 189.612903 C7.51669041 194.32800552 7.57216087 199.0430967 7.62960815 203.75816727 C7.93048758 228.50663483 8.06081856 253.24970121 8 278 C-0.18585014 274.90589735 -8.28482246 271.6709904 -16.3125 268.1875 C-17.25544922 267.78080078 -18.19839844 267.37410156 -19.16992188 266.95507812 C-21.44760695 265.9723206 -23.72427974 264.98729659 -26 264 C-26.34334621 242.45848468 -26.67613315 220.91681653 -27 199.375 C-27.01189708 198.58450288 -27.02379416 197.79400576 -27.03605175 196.97955418 C-28.21230089 118.74673287 -28.21230089 118.74673287 -28.125 82.375 C-28.12328796 81.6560833 -28.12157593 80.9371666 -28.11981201 80.19646454 C-28.09901251 72.130856 -28.06278513 64.06539823 -28 56 C-28.99 56 -29.98 56 -31 56 C-31.05070326 49.52216941 -31.08573492 43.04438999 -31.10986328 36.56640625 C-31.11992183 34.36261075 -31.13357026 32.1588286 -31.15087891 29.95507812 C-31.1751334 26.78772691 -31.1864846 23.62055213 -31.1953125 20.453125 C-31.20563507 19.46757629 -31.21595764 18.48202759 -31.22659302 17.46661377 C-31.22674408 16.5459613 -31.22689514 15.62530884 -31.22705078 14.67675781 C-31.231492 13.8684552 -31.23593323 13.06015259 -31.24050903 12.22735596 C-30.9686985 9.7101166 -30.36368178 8.12694986 -29 6 C-26.54150391 4.88745117 -26.54150391 4.88745117 -23.4765625 4.04296875 C-21.82140625 3.58180664 -21.82140625 3.58180664 -20.1328125 3.11132812 C-18.97523438 2.80646484 -17.81765625 2.50160156 -16.625 2.1875 C-14.90023437 1.70120117 -14.90023437 1.70120117 -13.140625 1.20507812 C-3.78348318 -1.34141676 -3.78348318 -1.34141676 0 0 Z " fill="#FC1818" transform="translate(205,93)"/>
<path d="M0 0 C0.98396507 0.00424484 0.98396507 0.00424484 1.98780823 0.00857544 C4.05587034 0.01965266 6.12347798 0.04473187 8.19140625 0.0703125 C9.6048114 0.08035848 11.01822342 0.08948148 12.43164062 0.09765625 C15.87270616 0.11783845 19.31280549 0.15700711 22.75390625 0.1953125 C22.75390625 7.4553125 22.75390625 14.7153125 22.75390625 22.1953125 C20.15515625 22.2984375 17.55640625 22.4015625 14.87890625 22.5078125 C4.88069414 22.74488554 4.88069414 22.74488554 -4.24609375 26.1953125 C-8.00409008 31.78591197 -7.24609375 37.5567006 -7.24609375 44.1953125 C2.32390625 44.5253125 11.89390625 44.8553125 21.75390625 45.1953125 C21.77453125 48.8046875 21.79515625 52.4140625 21.81640625 56.1328125 C21.82551025 57.27226318 21.83461426 58.41171387 21.84399414 59.58569336 C21.8464917 60.47651611 21.84898926 61.36733887 21.8515625 62.28515625 C21.85679932 63.20159912 21.86203613 64.11804199 21.86743164 65.06225586 C21.75390625 67.1953125 21.75390625 67.1953125 20.75390625 68.1953125 C18.68305905 68.353739 16.60712596 68.44655672 14.53125 68.51171875 C12.64116211 68.57456055 12.64116211 68.57456055 10.71289062 68.63867188 C9.37239889 68.67848846 8.03190405 68.71820064 6.69140625 68.7578125 C5.34699102 68.80099292 4.00258965 68.84460706 2.65820312 68.88867188 C-0.64311715 68.99516608 -3.94451611 69.0971771 -7.24609375 69.1953125 C-7.2541806 70.31839813 -7.26226746 71.44148376 -7.27059937 72.59860229 C-7.34796454 83.1642739 -7.43567913 93.7298152 -7.53362083 104.2953167 C-7.58364277 109.72761336 -7.62997214 115.15989001 -7.66796875 120.59228516 C-7.70474723 125.83135112 -7.75108657 131.07025201 -7.80415726 136.3091774 C-7.82274087 138.31149536 -7.83783404 140.31384875 -7.84943771 142.31621933 C-7.86623251 145.11316717 -7.89525057 147.90973364 -7.92724609 150.70654297 C-7.92940628 151.54091888 -7.93156647 152.3752948 -7.93379211 153.23495483 C-8.01798943 158.96720818 -8.01798943 158.96720818 -10.24609375 161.1953125 C-12.75219727 161.43823242 -12.75219727 161.43823242 -15.875 161.42578125 C-16.99197266 161.42384766 -18.10894531 161.42191406 -19.25976562 161.41992188 C-20.43087891 161.40767578 -21.60199219 161.39542969 -22.80859375 161.3828125 C-23.98357422 161.38216797 -25.15855469 161.38152344 -26.36914062 161.38085938 C-35.10597234 161.33543391 -35.10597234 161.33543391 -36.24609375 160.1953125 C-36.37132454 157.36570532 -36.43218603 154.55931913 -36.45141602 151.72827148 C-36.46131561 150.84055054 -36.47121521 149.95282959 -36.48141479 149.03820801 C-36.51312859 146.08930168 -36.53782609 143.14037921 -36.5625 140.19140625 C-36.58306101 138.1525886 -36.60405724 136.11377529 -36.62547302 134.07496643 C-36.68078185 128.69751495 -36.73015213 123.32002444 -36.77832031 117.94250488 C-36.82847117 112.45968129 -36.88419064 106.97691466 -36.93945312 101.49414062 C-37.0471424 90.7279132 -37.14856329 79.9616364 -37.24609375 69.1953125 C-38.19246704 69.15772827 -38.19246704 69.15772827 -39.15795898 69.11938477 C-42.000062 69.00377113 -44.84180458 68.88088934 -47.68359375 68.7578125 C-48.67681641 68.71849609 -49.67003906 68.67917969 -50.69335938 68.63867188 C-51.63759766 68.59677734 -52.58183594 68.55488281 -53.5546875 68.51171875 C-54.42923584 68.47506104 -55.30378418 68.43840332 -56.20483398 68.40063477 C-58.24609375 68.1953125 -58.24609375 68.1953125 -59.24609375 67.1953125 C-59.34508898 65.64575691 -59.37688899 64.09177577 -59.37890625 62.5390625 C-59.38019531 61.59933594 -59.38148437 60.65960938 -59.3828125 59.69140625 C-59.37894531 58.70269531 -59.37507813 57.71398437 -59.37109375 56.6953125 C-59.37496094 55.70660156 -59.37882812 54.71789062 -59.3828125 53.69921875 C-59.38152344 52.75949219 -59.38023438 51.81976563 -59.37890625 50.8515625 C-59.37777832 49.98337891 -59.37665039 49.11519531 -59.37548828 48.22070312 C-59.24609375 46.1953125 -59.24609375 46.1953125 -58.24609375 45.1953125 C-56.68660833 45.03845001 -55.12066707 44.94454611 -53.5546875 44.87890625 C-52.61044922 44.83701172 -51.66621094 44.79511719 -50.69335938 44.75195312 C-49.70013672 44.71263672 -48.70691406 44.67332031 -47.68359375 44.6328125 C-46.68650391 44.58962891 -45.68941406 44.54644531 -44.66210938 44.50195312 C-42.19025225 44.39550952 -39.71829065 44.29349322 -37.24609375 44.1953125 C-37.148125 43.16792969 -37.05015625 42.14054687 -36.94921875 41.08203125 C-35.50588064 27.16737613 -32.97352412 17.0022373 -22.24609375 7.1953125 C-15.48878049 1.88421389 -8.62163835 -0.07400548 0 0 Z " fill="#5271FF" transform="translate(1416.24609375,118.8046875)"/>
<path d="M0 0 C1.12341797 -0.01224609 2.24683594 -0.02449219 3.40429688 -0.03710938 C5.01208008 -0.04000977 5.01208008 -0.04000977 6.65234375 -0.04296875 C8.13528931 -0.04913208 8.13528931 -0.04913208 9.64819336 -0.05541992 C12.0625 0.1875 12.0625 0.1875 14.0625 2.1875 C14.30751495 4.61926397 14.43574921 6.94614884 14.4765625 9.3828125 C14.49592865 10.09025604 14.5152948 10.79769958 14.5352478 11.52658081 C14.59507652 13.78843085 14.64144101 16.0503317 14.6875 18.3125 C14.72567686 19.8450744 14.76472842 21.37762728 14.8046875 22.91015625 C14.90078039 26.66909624 14.98479849 30.42813668 15.0625 34.1875 C16.05693115 34.21255615 17.0513623 34.2376123 18.07592773 34.26342773 C21.75298747 34.35734882 25.4298515 34.45760619 29.10668945 34.55981445 C30.700393 34.60322146 32.2941448 34.64489219 33.88793945 34.68481445 C36.17413908 34.74237807 38.46009449 34.80611149 40.74609375 34.87109375 C41.46276718 34.88780624 42.17944061 34.90451874 42.91783142 34.92173767 C47.94862829 35.07362829 47.94862829 35.07362829 49.0625 36.1875 C49.14950342 37.82222882 49.16951063 39.46064055 49.16015625 41.09765625 C49.15765869 41.988479 49.15516113 42.87930176 49.15258789 43.79711914 C49.14348389 44.93656982 49.13437988 46.07602051 49.125 47.25 C49.104375 50.859375 49.08375 54.46875 49.0625 58.1875 C37.8425 58.5175 26.6225 58.8475 15.0625 59.1875 C14.99346146 66.85589146 14.93377495 74.52319527 14.89770508 82.19165039 C14.88266116 84.79780745 14.86222105 87.40393937 14.83618164 90.01000977 C14.79960576 93.76585105 14.78272905 97.52135624 14.76953125 101.27734375 C14.75404739 102.43395004 14.73856354 103.59055634 14.72261047 104.7822113 C14.72129301 111.18053832 14.87022842 117.46723395 18.0625 123.1875 C22.60822396 127.15074855 27.98195575 128.24157814 33.828125 128.50390625 C34.63024414 128.54201416 35.43236328 128.58012207 36.25878906 128.61938477 C37.26651367 128.66248779 38.27423828 128.70559082 39.3125 128.75 C42.53 128.894375 45.7475 129.03875 49.0625 129.1875 C49.0625 136.4475 49.0625 143.7075 49.0625 151.1875 C44.70600334 151.2569775 40.3514857 151.31651851 35.99487305 151.35229492 C34.51791819 151.36723313 33.04100651 151.38759131 31.56420898 151.41381836 C19.48816 151.62266153 8.61478663 151.32582566 -0.9375 143.12109375 C-9.44948441 134.89173382 -12.95691354 125.05478663 -13.4675293 113.21972656 C-13.5014701 110.75604913 -13.51550412 108.29203331 -13.51171875 105.828125 C-13.5333537 103.82571197 -13.55499242 101.82329898 -13.57686329 99.82088852 C-13.60216753 97.06041401 -13.60968312 94.29999954 -13.61743164 91.53942871 C-13.63501344 86.65650964 -13.68165687 81.77377384 -13.72749329 76.89105225 C-13.75001983 74.29918416 -13.76581527 71.70724738 -13.77433777 69.11529541 C-13.78137222 67.95608582 -13.78840668 66.79687622 -13.7956543 65.60253906 C-13.79913376 64.57807678 -13.80261322 63.5536145 -13.80619812 62.49810791 C-13.67812531 60.22492444 -13.67812531 60.22492444 -14.9375 59.1875 C-16.55872423 59.04242735 -18.18569889 58.9603999 -19.8125 58.90625 C-20.79734375 58.86886719 -21.7821875 58.83148438 -22.796875 58.79296875 C-23.83328125 58.75816406 -24.8696875 58.72335938 -25.9375 58.6875 C-27.97931732 58.61893151 -30.02100185 58.54624142 -32.0625 58.46875 C-32.97257812 58.43845703 -33.88265625 58.40816406 -34.8203125 58.37695312 C-36.9375 58.1875 -36.9375 58.1875 -37.9375 57.1875 C-38.03649523 55.63794441 -38.06829524 54.08396327 -38.0703125 52.53125 C-38.07160156 51.59152344 -38.07289062 50.65179688 -38.07421875 49.68359375 C-38.07035156 48.69488281 -38.06648438 47.70617187 -38.0625 46.6875 C-38.06636719 45.69878906 -38.07023437 44.71007812 -38.07421875 43.69140625 C-38.07292969 42.75167969 -38.07164063 41.81195313 -38.0703125 40.84375 C-38.06918457 39.97556641 -38.06805664 39.10738281 -38.06689453 38.21289062 C-37.9375 36.1875 -37.9375 36.1875 -36.9375 35.1875 C-35.23186222 35.03009395 -33.52022756 34.93656608 -31.80859375 34.87109375 C-30.77412109 34.82919922 -29.73964844 34.78730469 -28.67382812 34.74414062 C-27.58521484 34.70482422 -26.49660156 34.66550781 -25.375 34.625 C-23.7362793 34.56022461 -23.7362793 34.56022461 -22.06445312 34.49414062 C-19.35560436 34.38767932 -16.64666008 34.28566484 -13.9375 34.1875 C-13.91244385 33.19306885 -13.8873877 32.1986377 -13.86157227 31.17407227 C-13.76765118 27.49701253 -13.66739381 23.8201485 -13.56518555 20.14331055 C-13.52177854 18.549607 -13.48010781 16.9558552 -13.44018555 15.36206055 C-13.38262193 13.07586092 -13.31888851 10.78990551 -13.25390625 8.50390625 C-13.23719376 7.78723282 -13.22048126 7.07055939 -13.20326233 6.33216858 C-12.93962278 -2.39988485 -7.50527337 0.00429118 0 0 Z " fill="#5271FF" transform="translate(1487.9375,128.8125)"/>
<path d="M0 0 C1.99523891 0.55284725 3.9911021 1.10339929 5.98701477 1.65380859 C7.34552215 2.02879714 8.70366567 2.40510632 10.06144714 2.78271484 C14.59007873 4.03658363 19.13443756 5.19934499 23.69921875 6.31640625 C24.87822754 6.611521 26.05723633 6.90663574 27.27197266 7.21069336 C29.49804376 7.76585862 31.72812894 8.30524101 33.96240234 8.82641602 C40.25446232 10.42998725 43.72245098 11.76410316 47.125 17.4375 C47.125 18.4275 47.125 19.4175 47.125 20.4375 C38.66796352 22.821055 30.20048783 25.15930906 21.70703125 27.41015625 C21.05895508 27.58195404 20.41087891 27.75375183 19.74316406 27.93075562 C16.50465897 28.78877369 13.26538469 29.64360278 10.02490234 30.49414062 C2.89641689 32.3790179 -4.14728131 34.41089053 -11.15698242 36.70092773 C-13.875 37.4375 -13.875 37.4375 -17.875 37.4375 C-17.875 51.9575 -17.875 66.4775 -17.875 81.4375 C-30.66816874 77.96506849 -43.45139311 74.45830058 -56.22521973 70.91546631 C-57.81227863 70.47537009 -59.3994353 70.03562629 -60.98669434 69.59625244 C-84.67630245 63.03684877 -84.67630245 63.03684877 -87.875 61.4375 C-88.05077828 57.12552347 -88.15635237 52.81448002 -88.25 48.5 C-88.30027344 47.28763672 -88.35054687 46.07527344 -88.40234375 44.82617188 C-88.5662238 34.74754886 -85.99812729 29.97294002 -79.375 22.6875 C-64.31786838 9.13608154 -49.25062109 2.86787883 -29.75 -1.9375 C-29.07606201 -2.10548096 -28.40212402 -2.27346191 -27.70776367 -2.4465332 C-17.56683263 -4.77802785 -9.83550967 -2.7631154 0 0 Z " fill="#38B6FE" transform="translate(295.875,96.5625)"/>
<path d="M0 0 C2.10304477 -0.1080023 4.20766909 -0.18558987 6.3125 -0.25 C8.07013672 -0.31960937 8.07013672 -0.31960937 9.86328125 -0.390625 C13 0 13 0 14.87109375 1.63671875 C16.24591427 4.51480324 16.48756869 6.88630931 16.75 10.0625 C17.58160806 16.32401954 19.62029299 20.12840683 23.18359375 25.25390625 C29.77478425 35.21865232 32.16845446 46.20067091 30.50390625 58 C29.14994946 63.373844 25.54579551 67.0984284 21 70 C7.14703502 75.95211492 -8.18961832 77.52701264 -22.5 72.375 C-29.03997599 70.02251929 -33.4086714 69.7444567 -40 72 C-45.5692377 73.60167926 -50.24910657 73.98609149 -56.0625 73.6875 C-62.24684163 73.57651481 -66.34519875 74.62188435 -71.875 77.3125 C-82.87660931 82.64580147 -93.96171316 84.1949316 -106.125 84.375 C-106.81134521 84.38909912 -107.49769043 84.40319824 -108.20483398 84.41772461 C-114.78782262 84.35393752 -119.95263505 82.23978655 -125 78 C-124.125 71.125 -124.125 71.125 -123 70 C-116.28228858 69.47987554 -109.84960837 70.367031 -103.25 71.5 C-90.01625563 73.5853754 -76.26166658 74.24039054 -63 72 C-63.33773437 71.18917969 -63.67546875 70.37835938 -64.0234375 69.54296875 C-68.66976187 58.00772992 -71.53620576 46.55393951 -70 34 C-67.84919251 31.21722165 -65.9770263 30.49582414 -62.578125 29.83203125 C-61.71703125 29.66123047 -60.8559375 29.49042969 -59.96875 29.31445312 C-59.0715625 29.14880859 -58.174375 28.98316406 -57.25 28.8125 C-56.36828125 28.63525391 -55.4865625 28.45800781 -54.578125 28.27539062 C-49.65367024 27.32640716 -45.01450076 26.59962756 -40 27 C-39.01 27.99 -39.01 27.99 -38 29 C-33.02015543 28.79308125 -30.65041533 27.28482794 -27.125 23.875 C-26.26519531 23.0603125 -25.40539062 22.245625 -24.51953125 21.40625 C-23.68808594 20.6121875 -22.85664063 19.818125 -22 19 C-20.61137236 17.78339266 -19.2161546 16.57423888 -17.8125 15.375 C-15.18990645 13.10138059 -12.72987472 10.74031276 -10.3125 8.25 C-7.75112501 5.6476898 -5.31918803 3.61217704 -2 2 C-1.34 2 -0.68 2 0 2 C0 1.34 0 0.68 0 0 Z " fill="#38B5FE" transform="translate(322,0)"/>
<path d="M0 0 C1.1653125 -0.00128906 2.330625 -0.00257812 3.53125 -0.00390625 C4.7584375 -0.00003906 5.985625 0.00382812 7.25 0.0078125 C9.09078125 0.00201172 9.09078125 0.00201172 10.96875 -0.00390625 C12.71671875 -0.00197266 12.71671875 -0.00197266 14.5 0 C15.57765625 0.00112793 16.6553125 0.00225586 17.765625 0.00341797 C20.25 0.1328125 20.25 0.1328125 21.25 1.1328125 C21.34887812 3.10478788 21.37632256 5.0803569 21.37698364 7.05480957 C21.37980347 8.34210464 21.38262329 9.62939972 21.38552856 10.95570374 C21.38358396 12.3955995 21.38153578 13.83549514 21.37939453 15.27539062 C21.38074851 16.78128604 21.38252843 18.28718111 21.38470459 19.79307556 C21.38927928 23.89420057 21.38748922 27.99530054 21.3843255 32.09642601 C21.38180209 36.37877853 21.38413939 40.66112884 21.38571167 44.94348145 C21.38753342 52.13631578 21.38512692 59.32913987 21.38037109 66.52197266 C21.37492846 74.84997584 21.37669112 83.17795454 21.3821975 91.50595713 C21.38672848 98.64309096 21.38737925 105.7802174 21.38475883 112.9173522 C21.38319597 117.18579605 21.38300253 121.45422838 21.38629532 125.72267151 C21.38917381 129.73465184 21.38719875 133.74660046 21.38140106 137.75857735 C21.38007334 139.23526011 21.38046778 140.71194552 21.38266373 142.18862724 C21.38537474 144.19602237 21.38138084 146.20342329 21.37698364 148.21081543 C21.37660662 149.33686943 21.37622959 150.46292343 21.37584114 151.62310028 C21.25 154.1328125 21.25 154.1328125 20.25 155.1328125 C18.33541718 155.23253036 16.41717683 155.26361839 14.5 155.265625 C13.3346875 155.26691406 12.169375 155.26820313 10.96875 155.26953125 C9.7415625 155.26566406 8.514375 155.26179687 7.25 155.2578125 C6.0228125 155.26167969 4.795625 155.26554688 3.53125 155.26953125 C2.3659375 155.26824219 1.200625 155.26695312 0 155.265625 C-1.07765625 155.26449707 -2.1553125 155.26336914 -3.265625 155.26220703 C-5.75 155.1328125 -5.75 155.1328125 -6.75 154.1328125 C-6.84887812 152.16083712 -6.87632256 150.1852681 -6.87698364 148.21081543 C-6.87980347 146.92352036 -6.88262329 145.63622528 -6.88552856 144.30992126 C-6.88358396 142.8700255 -6.88153578 141.43012986 -6.87939453 139.99023438 C-6.88074851 138.48433896 -6.88252843 136.97844389 -6.88470459 135.47254944 C-6.88927928 131.37142443 -6.88748922 127.27032446 -6.8843255 123.16919899 C-6.88180209 118.88684647 -6.88413939 114.60449616 -6.88571167 110.32214355 C-6.88753342 103.12930922 -6.88512692 95.93648513 -6.88037109 88.74365234 C-6.87492846 80.41564916 -6.87669112 72.08767046 -6.8821975 63.75966787 C-6.88672848 56.62253404 -6.88737925 49.4854076 -6.88475883 42.3482728 C-6.88319597 38.07982895 -6.88300253 33.81139662 -6.88629532 29.54295349 C-6.88917381 25.53097316 -6.88719875 21.51902454 -6.88140106 17.50704765 C-6.88007334 16.03036489 -6.88046778 14.55367948 -6.88266373 13.07699776 C-6.88537474 11.06960263 -6.88138084 9.06220171 -6.87698364 7.05480957 C-6.87660662 5.92875557 -6.87622959 4.80270157 -6.87584114 3.64252472 C-6.64056812 -1.0496418 -4.11965517 0.00431184 0 0 Z " fill="#155BCD" transform="translate(1053.75,124.8671875)"/>
<path d="M0 0 C1.1653125 -0.00128906 2.330625 -0.00257813 3.53125 -0.00390625 C4.7584375 -0.00003906 5.985625 0.00382813 7.25 0.0078125 C9.09078125 0.00201172 9.09078125 0.00201172 10.96875 -0.00390625 C12.71671875 -0.00197266 12.71671875 -0.00197266 14.5 0 C15.57765625 0.00112793 16.6553125 0.00225586 17.765625 0.00341797 C20.25 0.1328125 20.25 0.1328125 21.25 1.1328125 C21.34997278 2.595649 21.38075151 4.06328007 21.38371277 5.52952576 C21.38797775 6.47880951 21.39224274 7.42809326 21.39663696 8.40614319 C21.39618378 9.45603928 21.39573059 10.50593536 21.39526367 11.58764648 C21.39862228 12.6867334 21.4019809 13.78582031 21.40544128 14.91821289 C21.41498401 18.57178866 21.41689604 22.22531877 21.41796875 25.87890625 C21.42117895 28.4061739 21.42454283 30.93344137 21.42805481 33.46070862 C21.43405435 38.76620998 21.43593652 44.07169417 21.43530273 49.37719727 C21.43470179 55.51599339 21.4452552 61.65470168 21.4610464 67.79347557 C21.47567799 73.69079617 21.47929135 79.58808982 21.47869301 85.48542976 C21.47987721 87.99854961 21.48432343 90.51167004 21.49202538 93.02477837 C21.5017696 96.53278873 21.49896933 100.04057032 21.49291992 103.54858398 C21.49853943 104.59645584 21.50415894 105.6443277 21.50994873 106.72395325 C21.50575424 107.67605682 21.50155975 108.6281604 21.49723816 109.6091156 C21.49778293 110.43927405 21.49832769 111.26943251 21.49888897 112.12474728 C21.25 114.1328125 21.25 114.1328125 19.25 116.1328125 C16.74389648 116.37573242 16.74389648 116.37573242 13.62109375 116.36328125 C12.50412109 116.36134766 11.38714844 116.35941406 10.23632812 116.35742188 C9.06521484 116.34517578 7.89410156 116.33292969 6.6875 116.3203125 C5.51251953 116.31966797 4.33753906 116.31902344 3.12695312 116.31835938 C-5.60987859 116.27293391 -5.60987859 116.27293391 -6.75 115.1328125 C-6.84784774 113.65497449 -6.87631765 112.17247982 -6.87698364 110.69140625 C-6.87980347 109.73226318 -6.88262329 108.77312012 -6.88552856 107.78491211 C-6.88350433 106.72409424 -6.8814801 105.66327637 -6.87939453 104.5703125 C-6.88114685 103.45986572 -6.88289917 102.34941895 -6.88470459 101.20532227 C-6.88912572 97.51447004 -6.88618419 93.82366526 -6.8828125 90.1328125 C-6.88348546 87.58072907 -6.88445542 85.02864571 -6.88571167 82.4765625 C-6.887189 77.11978488 -6.88512756 71.76302445 -6.88037109 66.40625 C-6.87492851 60.20497535 -6.87669118 54.00373357 -6.8821975 47.80245972 C-6.88727437 41.84747035 -6.88674707 35.89249123 -6.88381577 29.9375 C-6.88314624 27.39843745 -6.88397582 24.85937408 -6.88629532 22.3203125 C-6.8888203 18.77862286 -6.88498342 15.23699733 -6.87939453 11.6953125 C-6.88141876 10.63449463 -6.88344299 9.57367676 -6.88552856 8.48071289 C-6.88270874 7.52156982 -6.87988892 6.56242676 -6.87698364 5.57421875 C-6.87660662 4.73576416 -6.87622959 3.89730957 -6.87584114 3.03344727 C-6.60290699 -1.08879874 -3.43121227 0.00359128 0 0 Z " fill="#5372FF" transform="translate(1309.75,163.8671875)"/>
<path d="M0 0 C0 14.19 0 28.38 0 43 C-5.45748805 45.04655802 -10.67934446 46.8290941 -16.28515625 48.26953125 C-17.05603073 48.47129471 -17.82690521 48.67305817 -18.62113953 48.88093567 C-21.10055181 49.5288643 -23.58146304 50.17082359 -26.0625 50.8125 C-27.7706011 51.25729165 -29.47860851 51.70244325 -31.18652344 52.14794922 C-34.56343348 53.02826359 -37.9409124 53.90634314 -41.31884766 54.78271484 C-45.39618406 55.84145012 -49.47022162 56.9120283 -53.54296875 57.98828125 C-54.61216553 58.27018311 -55.6813623 58.55208496 -56.78295898 58.8425293 C-58.71382222 59.35173827 -60.6443427 59.86224935 -62.57446289 60.37426758 C-63.82924438 60.70334106 -63.82924438 60.70334106 -65.109375 61.0390625 C-65.82061523 61.22678223 -66.53185547 61.41450195 -67.26464844 61.60791016 C-69 62 -69 62 -71 62 C-71 47.48 -71 32.96 -71 18 C-60.5 15.1875 -60.5 15.1875 -56.83325195 14.20556641 C-49.39216399 12.20414459 -41.9643457 10.15926898 -34.54296875 8.0859375 C-31.82625194 7.32951549 -29.10942238 6.57349951 -26.39257812 5.8175354 C-24.59196176 5.31495136 -22.79198931 4.8100545 -20.99267578 4.30282593 C-18.43808927 3.58286003 -15.88140968 2.87080706 -13.32421875 2.16015625 C-12.55748337 1.94173065 -11.79074799 1.72330505 -11.0007782 1.4982605 C-7.09992215 0.42236055 -4.11051218 0 0 0 Z " fill="#014AAD" transform="translate(454,87)"/>
<path d="M0 0 C1.99523891 0.55284725 3.9911021 1.10339929 5.98701477 1.65380859 C7.34552215 2.02879714 8.70366567 2.40510632 10.06144714 2.78271484 C14.59007873 4.03658363 19.13443756 5.19934499 23.69921875 6.31640625 C24.87822754 6.611521 26.05723633 6.90663574 27.27197266 7.21069336 C29.49804376 7.76585862 31.72812894 8.30524101 33.96240234 8.82641602 C40.25446232 10.42998725 43.72245098 11.76410316 47.125 17.4375 C47.125 18.4275 47.125 19.4175 47.125 20.4375 C38.66796352 22.821055 30.20048783 25.15930906 21.70703125 27.41015625 C21.05895508 27.58195404 20.41087891 27.75375183 19.74316406 27.93075562 C16.50465897 28.78877369 13.26538469 29.64360278 10.02490234 30.49414062 C2.89641689 32.3790179 -4.14728131 34.41089053 -11.15698242 36.70092773 C-13.875 37.4375 -13.875 37.4375 -17.875 37.4375 C-17.875 51.9575 -17.875 66.4775 -17.875 81.4375 C-18.205 81.4375 -18.535 81.4375 -18.875 81.4375 C-18.875 64.9375 -18.875 48.4375 -18.875 31.4375 C-22.835 30.4475 -26.795 29.4575 -30.875 28.4375 C-34.81970961 27.31081356 -38.75582636 26.16981531 -42.6875 25 C-50.86755177 22.57889821 -59.05356139 20.28970148 -67.33984375 18.26171875 C-68.59474609 17.85373047 -68.59474609 17.85373047 -69.875 17.4375 C-70.205 16.7775 -70.535 16.1175 -70.875 15.4375 C-58.10278848 6.19715404 -44.94964843 1.80802526 -29.75 -1.9375 C-29.07606201 -2.10548096 -28.40212402 -2.27346191 -27.70776367 -2.4465332 C-17.56683263 -4.77802785 -9.83550967 -2.7631154 0 0 Z " fill="#38B3FC" transform="translate(295.875,96.5625)"/>
<path d="M0 0 C1.09027874 0.27059361 1.09027874 0.27059361 2.20258331 0.54665375 C6.04061923 1.49990671 9.87707992 2.45923034 13.71240234 3.42333984 C17.66500958 4.41554553 21.62271169 5.38561234 25.58195114 6.35095596 C28.63748211 7.10032618 31.68867154 7.86630998 34.73892975 8.63683319 C36.19656993 9.0019223 37.65580415 9.36070893 39.11660004 9.71295929 C41.15781203 10.2067582 43.19172803 10.72392404 45.22558594 11.24707031 C46.38282166 11.53495422 47.54005737 11.82283813 48.73236084 12.1194458 C52.22639678 13.57777671 53.61190069 15.25498512 55.703125 18.359375 C54.40955078 18.69763306 54.40955078 18.69763306 53.08984375 19.04272461 C48.96015375 20.12447881 44.8314647 21.20998133 40.703125 22.296875 C39.94769409 22.49546112 39.19226318 22.69404724 38.41394043 22.89865112 C29.76379443 25.17552785 21.13005118 27.49655124 12.53125 29.9609375 C11.8036145 30.16890457 11.075979 30.37687164 10.32629395 30.59114075 C6.84314011 31.58816777 3.36312183 32.59467946 -0.11328125 33.61499023 C-1.99080078 34.15555054 -1.99080078 34.15555054 -3.90625 34.70703125 C-4.99905273 35.02679932 -6.09185547 35.34656738 -7.21777344 35.67602539 C-10.34502588 36.3700612 -13.10474537 36.48613719 -16.296875 36.359375 C-16.791875 34.379375 -16.791875 34.379375 -17.296875 32.359375 C-18.03292969 32.17761719 -18.76898438 31.99585938 -19.52734375 31.80859375 C-20.50316406 31.55722656 -21.47898437 31.30585937 -22.484375 31.046875 C-23.44730469 30.80324219 -24.41023438 30.55960938 -25.40234375 30.30859375 C-30.52762975 28.62783195 -33.62559917 26.27687993 -36.984375 22.109375 C-42.92306588 15.21825256 -50.36783912 10.66863363 -58.296875 6.359375 C-55.81655997 3.87905997 -54.04317739 3.58650015 -50.66015625 2.703125 C-49.52513672 2.40277344 -48.39011719 2.10242188 -47.22070312 1.79296875 C-46.02896484 1.48488281 -44.83722656 1.17679687 -43.609375 0.859375 C-41.2720372 0.24516529 -38.93479491 -0.36940797 -36.59765625 -0.984375 C-35.49244629 -1.26925781 -34.38723633 -1.55414063 -33.24853516 -1.84765625 C-30.94658799 -2.46607845 -28.71972805 -3.15893941 -26.46484375 -3.921875 C-17.89022724 -5.86728738 -8.35624378 -2.08172182 0 0 Z " fill="#38B4FD" transform="translate(398.296875,68.640625)"/>
<path d="M0 0 C-5.16696192 10.73138245 -12.32674138 16.94462484 -22.33959961 23.03125 C-25.73571972 24.95092295 -25.73571972 24.95092295 -28 28 C-29.41732474 28.57346682 -30.86063181 29.08317509 -32.3125 29.5625 C-43.29540798 33.79272133 -57.5077059 44.17113554 -63.21875 54.72070312 C-64.99383105 59.89950209 -64.68749229 65.51921771 -64.75 70.9375 C-64.79447266 72.82178711 -64.79447266 72.82178711 -64.83984375 74.74414062 C-64.91023196 77.82949054 -64.96308502 80.91409823 -65 84 C-65.33 84 -65.66 84 -66 84 C-66.33 77.4 -66.66 70.8 -67 64 C-67.99 68.29 -68.98 72.58 -70 77 C-72.53109726 74.46890274 -73.05140044 72.30000436 -74.1640625 68.8984375 C-74.56367188 67.68671875 -74.96328125 66.475 -75.375 65.2265625 C-75.79179655 63.94275049 -76.20846153 62.65889576 -76.625 61.375 C-77.04892797 60.08315232 -77.47340066 58.79148327 -77.8984375 57.5 C-78.93767384 54.33505298 -79.97127375 51.16837569 -81 48 C-84.4777477 49.12988369 -87.6361941 50.1967257 -90.75 52.125 C-94 54 -94 54 -96 54 C-92.41474581 40.5552968 -83.84297068 31.3133041 -74 22 C-73.11570313 21.09121094 -72.23140625 20.18242188 -71.3203125 19.24609375 C-68.87480281 16.87880743 -67.1218413 16.21827953 -64 15 C-63.13632813 14.17757812 -62.27265625 13.35515625 -61.3828125 12.5078125 C-57.62533433 9.31059449 -54.10236137 9.13919867 -49.3125 8.875 C-47.69868957 8.73786186 -46.08538343 8.59465117 -44.47265625 8.4453125 C-43.69937988 8.37473633 -42.92610352 8.30416016 -42.12939453 8.23144531 C-34.86895742 7.44230356 -28.77300431 4.89501994 -22.25 1.75 C-14.44618255 -1.76258302 -8.29585103 -1.27807229 0 0 Z " fill="#044AAC" transform="translate(273,74)"/>
<path d="M0 0 C8.3488774 11.55273555 7.64017345 26.80951491 7.73046875 40.39453125 C-10.13614821 45.77951806 -10.13614821 45.77951806 -18.95703125 45.26953125 C-25.82330157 44.98251674 -30.13638409 46.76488403 -36.15136719 49.67944336 C-46.34360227 54.50831646 -57.21361455 55.60400611 -68.39453125 55.76953125 C-69.08087646 55.78363037 -69.76722168 55.79772949 -70.47436523 55.81225586 C-77.05735387 55.74846877 -82.2221663 53.6343178 -87.26953125 49.39453125 C-86.39453125 42.51953125 -86.39453125 42.51953125 -85.26953125 41.39453125 C-78.55181983 40.87440679 -72.11913962 41.76156225 -65.51953125 42.89453125 C-52.28578688 44.97990665 -38.53119783 45.63492179 -25.26953125 43.39453125 C-25.60726562 42.58371094 -25.945 41.77289063 -26.29296875 40.9375 C-30.93929312 29.40226117 -33.80573701 17.94847076 -32.26953125 5.39453125 C-30.11872376 2.6117529 -28.24655755 1.89035539 -24.84765625 1.2265625 C-23.9865625 1.05576172 -23.12546875 0.88496094 -22.23828125 0.70898438 C-21.34109375 0.54333984 -20.44390625 0.37769531 -19.51953125 0.20703125 C-18.6378125 0.02978516 -17.75609375 -0.14746094 -16.84765625 -0.33007812 C-3.97369699 -2.81099736 -3.97369699 -2.81099736 0 0 Z " fill="#5171FE" transform="translate(284.26953125,28.60546875)"/>
<path d="M0 0 C2.9885917 -0.36702003 5.09050194 -0.57670408 8 0 C9.5625 1.27734375 9.5625 1.27734375 11.0625 3 C18.19545485 10.98441118 29.60890564 14.88496205 39.25 19.0625 C48.41963064 23.03833393 57.30131159 27.37735457 64 35 C56.721119 33.79274227 49.67277849 32.21020289 42.58203125 30.1796875 C40.64917198 29.63902453 38.71622671 29.09866895 36.78320312 28.55859375 C33.78699536 27.71547196 30.79178723 26.86910507 27.7980957 26.01708984 C24.8743782 25.18719598 21.9472919 24.37018413 19.01953125 23.5546875 C17.68955864 23.17037064 17.68955864 23.17037064 16.3327179 22.77828979 C9.7732489 20.9630028 3.65460684 20.08634829 -3.078125 21.76953125 C-3.75883057 21.93485352 -4.43953613 22.10017578 -5.14086914 22.27050781 C-5.83688232 22.44936523 -6.53289551 22.62822266 -7.25 22.8125 C-7.9814624 22.99264648 -8.7129248 23.17279297 -9.46655273 23.35839844 C-11.64658331 23.89714848 -13.82332112 24.44788896 -16 25 C-17.86591797 25.46212891 -17.86591797 25.46212891 -19.76953125 25.93359375 C-22.51516103 26.61430149 -25.25853447 27.30274865 -28 28 C-25.32598047 25.01635716 -22.15134369 23.05914394 -18.8125 20.875 C-10.59673264 15.32927134 -4.52981566 8.870889 0 0 Z " fill="#F8181A" transform="translate(273,73)"/>
<path d="M0 0 C4.37463749 2.2474621 6.89804948 5.32503521 9.5625 9.375 C10.37383426 14.24300557 10.39568288 18.78947233 7.6953125 23.06640625 C4.57300601 26.78676647 1.9047755 29.79650846 -3.14453125 30.3359375 C-15.41269254 30.46658884 -15.41269254 30.46658884 -20 26 C-20.78375 25.34 -21.5675 24.68 -22.375 24 C-25.01349141 19.12893894 -25.06557023 14.39053177 -24 9 C-18.22715105 -0.68639071 -10.51647055 -1.33215847 0 0 Z " fill="#5271FF" transform="translate(1324,114)"/>
<path d="M0 0 C2.6875 2.5 2.6875 2.5 4 5 C-0.8292494 11.92192413 -7.35798964 15.30160625 -15.5 17.3125 C-29.52705155 19.55506937 -41.8042066 18.03381765 -55 13 C-55 12.67 -55 12.34 -55 12 C-54.31679688 11.93683594 -53.63359375 11.87367187 -52.9296875 11.80859375 C-40.69579235 10.32237887 -29.1086765 6.22203109 -17.53051758 2.12646484 C-11.6309177 0.06366768 -6.27133658 -1.14395716 0 0 Z " fill="#5170FC" transform="translate(347,57)"/>
<path d="M0 0 C5.72144694 0.93392874 11.23525161 2.59472475 16.77636719 4.27099609 C21.90832393 5.82263875 27.04844806 7.34705712 32.1875 8.875 C33.34338623 9.21926025 34.49927246 9.56352051 35.69018555 9.91821289 C46.47728265 13.1165254 57.31733476 16.09835832 68.1875 19 C67.5275 20.98 66.8675 22.96 66.1875 25 C59.78917879 23.26637908 53.39816126 21.50726503 47.01171875 19.73046875 C46.28123322 19.52725006 45.55074768 19.32403137 44.79812622 19.11465454 C41.69156255 18.25016447 38.58510297 17.38530148 35.47875977 16.52001953 C27.68627872 14.34988172 19.89422695 12.18037177 12.08203125 10.08203125 C11.06729736 9.80915283 10.05256348 9.53627441 9.00708008 9.25512695 C7.18370912 8.76680014 5.35938341 8.28201844 3.53393555 7.80151367 C2.73898682 7.58857666 1.94403809 7.37563965 1.125 7.15625 C0.45339844 6.97900391 -0.21820313 6.80175781 -0.91015625 6.61914062 C-3.00157856 5.93846211 -4.87064474 5.02715061 -6.8125 4 C-5.09202686 0.21495908 -4.22267175 0 0 0 Z " fill="#59DDE6" transform="translate(107.8125,80)"/>
<path d="M0 0 C0.495 1.98 0.495 1.98 1 4 C-7.45703648 6.383555 -15.92451217 8.72180906 -24.41796875 10.97265625 C-25.39008301 11.23035294 -25.39008301 11.23035294 -26.38183594 11.49325562 C-29.62034103 12.35127369 -32.85961531 13.20610278 -36.10009766 14.05664062 C-43.22858311 15.9415179 -50.27228131 17.97339053 -57.28198242 20.26342773 C-60 21 -60 21 -64 21 C-64 18.69 -64 16.38 -64 14 C-63.11852295 13.7733667 -62.2370459 13.5467334 -61.32885742 13.31323242 C-58.00561419 12.45839777 -54.682558 11.60284289 -51.35961914 10.74682617 C-49.9313061 10.37903195 -48.50292266 10.01151102 -47.07446289 9.64428711 C-39.51476218 7.70066711 -31.96475442 5.73077147 -24.43774414 3.66333008 C-20.67891752 2.64052267 -16.90898657 1.67497449 -13.125 0.75 C-12.40570313 0.564375 -11.68640625 0.37875 -10.9453125 0.1875 C-6.9699634 -0.77710677 -3.94625835 -1.20709079 0 0 Z " fill="#4E71FC" transform="translate(342,113)"/>
<path d="M0 0 C-0.556875 0.4125 -1.11375 0.825 -1.6875 1.25 C-12.69111773 9.57706207 -19.22396074 18.14896038 -26 30 C-26.99 31.485 -26.99 31.485 -28 33 C-28 32.34 -28 31.68 -28 31 C-28.66 31 -29.32 31 -30 31 C-30 39.25 -30 47.5 -30 56 C-30.33 56 -30.66 56 -31 56 C-31.05070326 49.52216941 -31.08573492 43.04438999 -31.10986328 36.56640625 C-31.11992183 34.36261075 -31.13357026 32.1588286 -31.15087891 29.95507812 C-31.1751334 26.78772691 -31.1864846 23.62055213 -31.1953125 20.453125 C-31.20563507 19.46757629 -31.21595764 18.48202759 -31.22659302 17.46661377 C-31.22674408 16.5459613 -31.22689514 15.62530884 -31.22705078 14.67675781 C-31.231492 13.8684552 -31.23593323 13.06015259 -31.24050903 12.22735596 C-30.9686985 9.7101166 -30.36368178 8.12694986 -29 6 C-26.54150391 4.88745117 -26.54150391 4.88745117 -23.4765625 4.04296875 C-21.82140625 3.58180664 -21.82140625 3.58180664 -20.1328125 3.11132812 C-18.97523438 2.80646484 -17.81765625 2.50160156 -16.625 2.1875 C-14.90023437 1.70120117 -14.90023437 1.70120117 -13.140625 1.20507812 C-3.78348318 -1.34141676 -3.78348318 -1.34141676 0 0 Z " fill="#F01E23" transform="translate(205,93)"/>
<path d="M0 0 C0.99 1.485 0.99 1.485 2 3 C1.13761719 3.22550537 0.27523437 3.45101074 -0.61328125 3.68334961 C-4.74297125 4.76510381 -8.8716603 5.85060633 -13 6.9375 C-13.75543091 7.13608612 -14.51086182 7.33467224 -15.28918457 7.53927612 C-23.93933057 9.81615285 -32.57307382 12.13717624 -41.171875 14.6015625 C-41.8995105 14.80952957 -42.627146 15.01749664 -43.37683105 15.23176575 C-46.85998489 16.22879277 -50.34000317 17.23530446 -53.81640625 18.25561523 C-55.69392578 18.79617554 -55.69392578 18.79617554 -57.609375 19.34765625 C-58.70217773 19.66742432 -59.79498047 19.98719238 -60.92089844 20.31665039 C-64.04815088 21.0106862 -66.80787037 21.12676219 -70 21 C-70.12375 20.360625 -70.2475 19.72125 -70.375 19.0625 C-70.58125 18.381875 -70.7875 17.70125 -71 17 C-71.66 16.67 -72.32 16.34 -73 16 C-72.36835938 15.84966309 -71.73671875 15.69932617 -71.0859375 15.54443359 C-59.25339693 12.72482783 -47.42715269 9.88202207 -35.625 6.9375 C-34.64168701 6.69298096 -33.65837402 6.44846191 -32.64526367 6.1965332 C-27.89794685 5.00802755 -23.1655952 3.78279116 -18.44921875 2.4765625 C-17.58022949 2.2381665 -16.71124023 1.99977051 -15.81591797 1.75415039 C-14.19892188 1.30740279 -12.58441703 0.85149119 -10.97314453 0.38452148 C-7.02368877 -0.70515191 -3.90274695 -1.51331004 0 0 Z " fill="#4F71FB" transform="translate(452,84)"/>
<path d="M0 0 C2.40827153 0.32364123 4.59311254 0.77437407 6.9375 1.375 C7.66388672 1.55345459 8.39027344 1.73190918 9.13867188 1.91577148 C23.91300903 5.65012715 38.57404312 10.09456339 53 15 C53 16.98 53 18.96 53 21 C39.46385937 17.5482617 25.94328477 14.09681587 12.56640625 10.06640625 C7.7346019 8.62162795 2.87384709 7.29478011 -2 6 C-2 2 -2 2 0 0 Z " fill="#59DDE6" transform="translate(224,113)"/>
<path d="M0 0 C18.34042553 4.19148936 18.34042553 4.19148936 27 7 C23.84182599 8.72417707 20.74400556 9.72334349 17.2734375 10.65625 C15.60087891 11.10677734 15.60087891 11.10677734 13.89453125 11.56640625 C12.15236328 12.02853516 12.15236328 12.02853516 10.375 12.5 C9.23675781 12.80808594 8.09851563 13.11617187 6.92578125 13.43359375 C1.73439156 14.82233519 -3.46699564 16.1671158 -8.7109375 17.34375 C-9.4951709 17.52099609 -10.2794043 17.69824219 -11.08740234 17.88085938 C-11.71855957 17.92017578 -12.3497168 17.95949219 -13 18 C-13.66 17.34 -14.32 16.68 -15 16 C-13.98679687 15.45472656 -13.98679687 15.45472656 -12.953125 14.8984375 C-7.55276718 11.85488323 -3.7996003 9.59920061 -1 4 C-0.64099568 2.67334828 -0.30210142 1.34075487 0 0 Z " fill="#F71B1E" transform="translate(352,56)"/>
<path d="M0 0 C0.33 2.97 0.66 5.94 1 9 C-8 7 -8 7 -17 5 C-12.73869067 0.73869067 -5.84895011 0 0 0 Z " fill="#F31F23" transform="translate(190,58)"/>
<path d="M0 0 C0.33 0 0.66 0 1 0 C1.10815225 1.76949095 1.18566083 3.54087487 1.25 5.3125 C1.29640625 6.29863281 1.3428125 7.28476563 1.390625 8.30078125 C1 11 1 11 -1.015625 12.85546875 C-1.67046875 13.23316406 -2.3253125 13.61085937 -3 14 C-2.48594831 9.03083364 -1.76615118 4.70973649 0 0 Z " fill="#E51921" transform="translate(206,136)"/>
<path d="M0 0 C0.66 0.33 1.32 0.66 2 1 C1.2890625 2.921875 1.2890625 2.921875 0 5 C-2.1640625 5.828125 -2.1640625 5.828125 -4.625 6.25 C-5.85089844 6.47429687 -5.85089844 6.47429687 -7.1015625 6.703125 C-7.72804687 6.80109375 -8.35453125 6.8990625 -9 7 C-6.28672425 4.15635664 -3.30410823 2.12931419 0 0 Z " fill="#D82230" transform="translate(254,94)"/>
</svg>
