<?xml version="1.0" encoding="UTF-8"?>
<svg version="1.1" xmlns="http://www.w3.org/2000/svg" width="1640" height="400">
<path d="M0 0 C1.65 0 3.3 0 5 0 C5 0.66 5 1.32 5 2 C5.70092773 2.26103516 6.40185547 2.52207031 7.12402344 2.79101562 C10.24325767 4.10225908 13.08101146 5.65928365 16.015625 7.34375 C16.58378433 7.66885056 17.15194366 7.99395111 17.73731995 8.3289032 C19.57676177 9.38269383 21.41342166 10.44122802 23.25 11.5 C24.52813022 12.23366924 25.80636986 12.96714789 27.0847168 13.70043945 C34.34597711 17.87062773 41.57894489 22.08666237 48.78295898 26.35498047 C55.37770776 30.24978995 62.04989207 34.00470508 68.72216797 37.76464844 C85.70959058 47.33932709 102.63930738 57.01630739 119.5 66.8125 C120.50281006 67.39314209 121.50562012 67.97378418 122.53881836 68.57202148 C123.4644458 69.11157471 124.39007324 69.65112793 125.34375 70.20703125 C126.15005859 70.6760083 126.95636719 71.14498535 127.78710938 71.62817383 C128.51736328 72.08087646 129.24761719 72.5335791 130 73 C130.6884198 73.37506683 131.3768396 73.75013367 132.08612061 74.13656616 C134.84499118 76.82271911 134.71091408 79.53180405 134.83496094 83.18676758 C134.87409607 83.91574249 134.9132312 84.64471741 134.95355225 85.39578247 C135.0733011 87.81173773 135.15890383 90.22680167 135.234375 92.64453125 C135.26066231 93.47381323 135.28694962 94.30309521 135.31403351 95.15750694 C135.44444673 99.55646832 135.54217819 103.95504442 135.62011719 108.35522461 C135.69112531 111.97955689 135.82966812 115.5912613 136.03027344 119.21069336 C137.61014577 148.35907206 137.61014577 148.35907206 131.66674805 155.99945068 C126.00733431 160.76559389 119.74181035 163.58755655 112.79162598 165.98886108 C110.27755276 166.8994692 108.14226636 167.93216441 105.85449219 169.30004883 C103 171 103 171 101 171 C102.4359885 175.30796549 105.66319393 176.39201212 109.4375 178.5 C111.0060681 179.39823985 112.57374967 180.29802929 114.140625 181.19921875 C115.35395508 181.894104 115.35395508 181.894104 116.59179688 182.60302734 C120.33181116 184.77256929 124.00853022 187.0414953 127.6875 189.3125 C134.37606219 193.42431502 141.11034898 197.45217005 147.875 201.4375 C161.87053125 209.68510649 175.8435901 217.96102582 189.59350586 226.61376953 C194.11510687 229.45812509 198.67493527 232.22913548 203.27734375 234.94140625 C205 236 205 236 206 237 C206.53595512 242.69303435 206.74220823 248.38342131 206.89941406 254.09814453 C206.9660175 256.01962134 207.06135063 257.94033494 207.18652344 259.85888672 C208.17669357 275.34033058 208.17669357 275.34033058 204.59188843 279.72055054 C201.07782005 282.62955891 197.17395142 284.44969842 192.96867371 286.14750671 C189.71640479 287.55583426 186.81732311 289.43778611 183.8125 291.3125 C160.71679688 305.16992188 160.71679688 305.16992188 137.62109375 319.02734375 C137.05124756 319.36926758 136.48140137 319.71119141 135.89428711 320.06347656 C134.70375197 320.77776479 133.51315846 321.49195575 132.32250977 322.20605469 C128.24483301 324.65193342 124.16888269 327.10066583 120.09375 329.55078125 C101.29204994 340.84961055 101.29204994 340.84961055 91.9375 346.3125 C85.88736848 349.84766068 79.93568212 353.51854688 74.00854492 357.25561523 C68.61312341 360.64568223 63.14257589 363.89278994 57.64111328 367.10717773 C49.50431418 371.86335035 41.43161835 376.72528766 33.35546875 381.58349609 C30.49505175 383.3036598 27.63308862 385.02123304 24.77050781 386.73779297 C23.52981419 387.48214522 22.28956199 388.22723384 21.04980469 388.97314453 C18.33898077 390.6034144 15.62203145 392.22079821 12.890625 393.81640625 C11.52164063 394.61884766 11.52164063 394.61884766 10.125 395.4375 C9.34382812 395.88996094 8.56265625 396.34242188 7.7578125 396.80859375 C5.8497824 397.8925353 5.8497824 397.8925353 5 400 C2.6875 400.1875 2.6875 400.1875 0 400 C-1.00727515 399.00732847 -2.0056296 398.00559809 -3 397 C-4.86294672 395.79715529 -6.75833644 394.64405163 -8.671875 393.5234375 C-9.80399414 392.85707275 -10.93611328 392.19070801 -12.10253906 391.50415039 C-13.31833937 390.79439933 -14.53416007 390.08468319 -15.75 389.375 C-16.98955698 388.64691209 -18.22881404 387.91831331 -19.46777344 387.18920898 C-21.89554641 385.76076479 -24.32432971 384.33406558 -26.75390625 382.90869141 C-30.59888593 380.64785723 -34.42929757 378.36405757 -38.25 376.0625 C-39.11250366 375.54369263 -39.11250366 375.54369263 -39.99243164 375.0144043 C-41.66184439 374.00997389 -43.33092522 373.0049919 -45 372 C-46.78139956 370.93026132 -48.56324967 369.86127666 -50.34521484 368.79248047 C-51.57091542 368.05732001 -52.79650186 367.32196921 -54.02197266 366.58642578 C-57.65776153 364.40420029 -61.29506395 362.22452773 -64.93359375 360.046875 C-79.66131044 351.22779954 -79.66131044 351.22779954 -86.375 347.0625 C-93.00419701 342.96275332 -99.720716 339.0145206 -106.43530273 335.05664062 C-120.94945599 326.49824002 -135.36963982 317.78848815 -149.75634766 309.01782227 C-157.48278888 304.30896732 -165.23354342 299.64246471 -173 295 C-174.66688713 294.00036754 -176.33357325 293.00039975 -178 292 C-178.76570313 291.54367187 -179.53140625 291.08734375 -180.3203125 290.6171875 C-182.49330654 289.30578876 -184.65059388 287.9747589 -186.8046875 286.6328125 C-187.47628906 286.21902344 -188.14789063 285.80523437 -188.83984375 285.37890625 C-190.17238089 284.55789968 -191.50070937 283.73001312 -192.82421875 282.89453125 C-196.25438301 280.7931043 -197.87250589 280 -202 280 C-202 265.15 -202 250.3 -202 235 C-200.35 234.67 -198.7 234.34 -197 234 C-195.07391954 233.09774842 -195.07391954 233.09774842 -193.27734375 231.91796875 C-192.58479492 231.48693848 -191.89224609 231.0559082 -191.17871094 230.61181641 C-190.06931152 229.90677979 -190.06931152 229.90677979 -188.9375 229.1875 C-187.31692937 228.17754553 -185.69581615 227.16846129 -184.07421875 226.16015625 C-182.81810791 225.37535889 -182.81810791 225.37535889 -181.53662109 224.57470703 C-177.46693515 222.04828987 -173.36002883 219.58506191 -169.25 217.125 C-168.00718262 216.37972046 -168.00718262 216.37972046 -166.73925781 215.61938477 C-160.57186027 211.9263925 -154.38158655 208.27299011 -148.1875 204.625 C-140.44109009 200.06149025 -132.7378314 195.43205328 -125.0625 190.75 C-124.10472656 190.16605469 -123.14695312 189.58210937 -122.16015625 188.98046875 C-118.62795651 186.82597347 -115.0960559 184.67100974 -111.56738281 182.51074219 C-109.44318181 181.21145594 -107.3158287 179.91750944 -105.1875 178.625 C-104.57720947 178.24956055 -103.96691895 177.87412109 -103.33813477 177.48730469 C-99.22807405 175 -99.22807405 175 -97 175 C-97 173.68 -97 172.36 -97 171 C-97.66773437 170.75636719 -98.33546875 170.51273438 -99.0234375 170.26171875 C-102.71694511 168.69609807 -106.13878682 166.78980517 -109.625 164.8125 C-110.27339844 164.45091797 -110.92179687 164.08933594 -111.58984375 163.71679688 C-112.93000241 162.9608433 -114.25763476 162.18223706 -115.57156372 161.38156128 C-118.00874938 159.9325001 -118.00874938 159.9325001 -120.7819519 158.82290649 C-124.13010612 157.19762144 -126.43149912 155.71201311 -129 153 C-130.70138917 147.27721484 -130.60062875 141.68552171 -130.53125 135.75390625 C-130.54375477 134.05669292 -130.5592247 132.3594991 -130.57751465 130.66233826 C-130.60270203 127.11162244 -130.58729676 123.56394585 -130.54394531 120.01342773 C-130.49247275 115.47672157 -130.54926859 110.94889856 -130.63764191 106.41302586 C-130.69259419 102.90955955 -130.68605647 99.40819535 -130.66172791 95.90446281 C-130.65810373 94.23355593 -130.674128 92.56248002 -130.71070862 90.89196968 C-130.80660449 85.64154258 -130.66835782 81.01149952 -129 76 C-125.06234561 72.14273726 -121.05084705 70.22462998 -116 68 C-113.82705431 66.77104151 -111.66495295 65.52249402 -109.51953125 64.24609375 C-107.28502499 62.97450287 -105.04930903 61.70503579 -102.8125 60.4375 C-100.35483509 59.04017505 -97.89811877 57.64118606 -95.44140625 56.2421875 C-94.51435379 55.7146563 -94.51435379 55.7146563 -93.568573 55.1764679 C-87.11253878 51.50029518 -80.68091894 47.78240549 -74.25 44.0625 C-67.47977091 40.14824982 -60.70387672 36.24859 -53.875 32.4375 C-46.27082066 28.19260074 -38.7580837 23.79370266 -31.24536133 19.3894043 C-26.1258297 16.39186139 -20.99485981 13.419468 -15.828125 10.50390625 C-14.37152466 9.68079956 -14.37152466 9.68079956 -12.88549805 8.84106445 C-11.03800755 7.79980392 -9.1879968 6.76299934 -7.33520508 5.73120117 C-6.10386841 5.03667847 -6.10386841 5.03667847 -4.84765625 4.328125 C-4.12586182 3.9249707 -3.40406738 3.52181641 -2.66040039 3.10644531 C-0.83859062 2.09077768 -0.83859062 2.09077768 0 0 Z " fill="#4690DA" transform="translate(202,0)"/>
<path d="M0 0 C1.65 0 3.3 0 5 0 C5 0.66 5 1.32 5 2 C5.70092773 2.26103516 6.40185547 2.52207031 7.12402344 2.79101562 C10.24325767 4.10225908 13.08101146 5.65928365 16.015625 7.34375 C16.58378433 7.66885056 17.15194366 7.99395111 17.73731995 8.3289032 C19.57676177 9.38269383 21.41342166 10.44122802 23.25 11.5 C24.52813022 12.23366924 25.80636986 12.96714789 27.0847168 13.70043945 C34.34597711 17.87062773 41.57894489 22.08666237 48.78295898 26.35498047 C55.37770776 30.24978995 62.04989207 34.00470508 68.72216797 37.76464844 C80.59509831 44.45662846 92.43151665 51.21149813 104.25115967 57.99700928 C106.00524323 59.00300708 107.7605281 60.00687926 109.51611328 61.01025391 C112.84792204 62.91690135 116.17462028 64.83216689 119.5 66.75 C120.50281006 67.32226318 121.50562012 67.89452637 122.53881836 68.48413086 C123.4644458 69.02046143 124.39007324 69.55679199 125.34375 70.109375 C126.15005859 70.57311523 126.95636719 71.03685547 127.78710938 71.51464844 C130.16998304 73.11409718 132.03902554 74.91240262 134 77 C132.9790625 77.55945313 131.958125 78.11890625 130.90625 78.6953125 C119.69392288 84.86812619 108.62538919 91.26880186 97.58203125 97.73828125 C93.21740911 100.29398323 88.83653049 102.81656085 84.4375 105.3125 C79.96324182 107.85773669 75.53143267 110.46452363 71.125 113.125 C55.89638035 122.31503213 40.46437194 131.16696052 25.0625 140.0625 C23.99153076 140.68141113 22.92056152 141.30032227 21.81713867 141.93798828 C20.79595947 142.52692871 19.77478027 143.11586914 18.72265625 143.72265625 C17.83328369 144.23578369 16.94391113 144.74891113 16.02758789 145.27758789 C12.03549096 147.54871472 8.01492881 149.76948399 4 152 C3.67 177.41 3.34 202.82 3 229 C-1.01003496 227.39598602 -4.43214527 225.71697805 -8.15625 223.5859375 C-9.03162415 223.08593735 -9.03162415 223.08593735 -9.92468262 222.57583618 C-11.1593355 221.8696537 -12.39308414 221.16188822 -13.62597656 220.45263672 C-15.46452968 219.39539682 -17.30619757 218.34376815 -19.1484375 217.29296875 C-25.06694361 213.90639176 -30.92724144 210.45155051 -36.71875 206.8515625 C-41.48308394 203.89719772 -46.30471621 201.12844535 -51.24414062 198.47900391 C-63.7313935 191.77739353 -76.13675299 184.85224138 -88.24023438 177.4777832 C-95.18308785 173.25292111 -102.22588922 169.19852059 -109.26391602 165.13476562 C-110.71882446 164.29075195 -110.71882446 164.29075195 -112.203125 163.4296875 C-113.05551758 162.93710449 -113.90791016 162.44452148 -114.78613281 161.93701172 C-115.84670898 161.29779785 -116.90728516 160.65858398 -118 160 C-119.36475464 159.4225428 -119.36475464 159.4225428 -120.75708008 158.8334198 C-124.12166157 157.19010888 -126.42931628 155.73853318 -129 153 C-130.69493272 147.27461364 -130.60063817 141.68632677 -130.53125 135.75390625 C-130.54375477 134.05669292 -130.5592247 132.3594991 -130.57751465 130.66233826 C-130.60270203 127.11162244 -130.58729676 123.56394585 -130.54394531 120.01342773 C-130.49247275 115.47672157 -130.54926859 110.94889856 -130.63764191 106.41302586 C-130.69259419 102.90955955 -130.68605647 99.40819535 -130.66172791 95.90446281 C-130.65810373 94.23355593 -130.674128 92.56248002 -130.71070862 90.89196968 C-130.80660449 85.64154258 -130.66835782 81.01149952 -129 76 C-125.06234561 72.14273726 -121.05084705 70.22462998 -116 68 C-113.82705431 66.77104151 -111.66495295 65.52249402 -109.51953125 64.24609375 C-107.28502499 62.97450287 -105.04930903 61.70503579 -102.8125 60.4375 C-100.35483509 59.04017505 -97.89811877 57.64118606 -95.44140625 56.2421875 C-94.51435379 55.7146563 -94.51435379 55.7146563 -93.568573 55.1764679 C-87.11253878 51.50029518 -80.68091894 47.78240549 -74.25 44.0625 C-67.47977091 40.14824982 -60.70387672 36.24859 -53.875 32.4375 C-46.27082066 28.19260074 -38.7580837 23.79370266 -31.24536133 19.3894043 C-26.1258297 16.39186139 -20.99485981 13.419468 -15.828125 10.50390625 C-14.37152466 9.68079956 -14.37152466 9.68079956 -12.88549805 8.84106445 C-11.03800755 7.79980392 -9.1879968 6.76299934 -7.33520508 5.73120117 C-6.10386841 5.03667847 -6.10386841 5.03667847 -4.84765625 4.328125 C-4.12586182 3.9249707 -3.40406738 3.52181641 -2.66040039 3.10644531 C-0.83859062 2.09077768 -0.83859062 2.09077768 0 0 Z " fill="#5ED1E4" transform="translate(202,0)"/>
<path d="M0 0 C0.73028915 -0.0065712 1.46057831 -0.0131424 2.21299744 -0.01991272 C4.64492898 -0.03971545 7.07679814 -0.05133237 9.50878906 -0.0612793 C10.34115334 -0.06535482 11.17351761 -0.06943035 12.03110504 -0.07362938 C16.44863133 -0.09453374 20.86612628 -0.10880851 25.28369141 -0.11816406 C29.81930582 -0.12915301 34.35441931 -0.16345169 38.88985825 -0.20333576 C42.39722511 -0.22968052 45.90447683 -0.23787228 49.4119339 -0.24144554 C51.0814573 -0.2462767 52.75097679 -0.2577899 54.42040253 -0.27648354 C70.88887435 -0.44921657 83.80229739 2.50721135 96.27441406 13.86450195 C104.45192662 22.36846212 106.37632207 32.69283528 106.23535156 44.08325195 C105.53090196 54.41517941 101.02771173 61.5053297 93.58691406 68.42700195 C92.74128906 69.33450195 91.89566406 70.24200195 91.02441406 71.17700195 C90.98285986 73.23743236 90.98285986 73.23743236 92.02441406 75.17700195 C93.85766104 76.71549745 93.85766104 76.71549745 96.14941406 77.98950195 C105.81518211 84.12649754 111.94353448 92.06140557 115.02441406 103.17700195 C116.11977487 115.12407681 115.0769328 126.06342385 107.77441406 135.98950195 C98.38694916 147.01130257 86.6838646 154.14693486 71.98840714 155.34266663 C66.38394957 155.60439601 60.77771578 155.54720861 55.16894531 155.50512695 C53.3724534 155.50206331 51.5759591 155.5001918 49.77946472 155.49945068 C46.04192813 155.49487918 42.30461081 155.48056475 38.56713867 155.45825195 C33.76741628 155.42974565 28.96786412 155.4190145 24.16806507 155.41456985 C20.47161653 155.41042682 16.77520256 155.4006224 13.07877159 155.38869476 C11.30726078 155.38298839 9.53574665 155.3782309 7.76423073 155.3744278 C5.30377881 155.36759335 2.8434649 155.35398058 0.38305664 155.33813477 C-0.35190536 155.33701691 -1.08686737 155.33589905 -1.84410095 155.33474731 C-6.86088058 155.29170731 -6.86088058 155.29170731 -7.97558594 154.17700195 C-8.07446406 152.20502657 -8.10190849 150.22945756 -8.10256958 148.25500488 C-8.1053894 146.96770981 -8.10820923 145.68041473 -8.1111145 144.35411072 C-8.1091699 142.91421495 -8.10712171 141.47431932 -8.10498047 140.03442383 C-8.10633445 138.52852842 -8.10811437 137.02263334 -8.11029053 135.51673889 C-8.11486522 131.41561388 -8.11307516 127.31451391 -8.10991144 123.21338844 C-8.10738802 118.93103592 -8.10972533 114.64868561 -8.11129761 110.36633301 C-8.11311936 103.17349867 -8.11071285 95.98067458 -8.10595703 88.7878418 C-8.1005144 80.45983862 -8.10227705 72.13185991 -8.10778344 63.80385733 C-8.11231441 56.6667235 -8.11296519 49.52959706 -8.11034477 42.39246225 C-8.10878191 38.1240184 -8.10858847 33.85558607 -8.11188126 29.58714294 C-8.11475975 25.57516262 -8.11278469 21.56321399 -8.106987 17.55123711 C-8.10565928 16.07455434 -8.10605371 14.59786894 -8.10824966 13.12118721 C-8.11096068 11.11379209 -8.10696678 9.10639116 -8.10256958 7.09899902 C-8.10219255 5.97294502 -8.10181553 4.84689102 -8.10142708 3.68671417 C-7.8495363 -1.33686834 -4.06841696 0.01571806 0 0 Z M20.02441406 25.17700195 C19.92334532 28.04964252 19.88471734 30.89773824 19.89160156 33.77075195 C19.89064484 34.63261108 19.88968811 35.49447021 19.88870239 36.38244629 C19.88802057 38.20833407 19.88987502 40.03422427 19.89404297 41.86010742 C19.8993912 44.66501273 19.89409807 47.46975791 19.88769531 50.2746582 C19.88835609 52.04418981 19.88963726 53.81372131 19.89160156 55.58325195 C19.88957733 56.42803101 19.8875531 57.27281006 19.88546753 58.14318848 C19.52516896 61.96887056 19.52516896 61.96887056 21.02441406 65.17700195 C26.70226013 65.47149991 32.3828754 65.49130691 38.06762695 65.52709961 C39.98116295 65.54356361 41.89463993 65.57072528 43.80786133 65.60913086 C58.8233272 66.36553892 58.8233272 66.36553892 72.02441406 60.17700195 C77.04219031 54.05909461 78.7883522 48.10466189 78.02441406 40.17700195 C76.86356924 34.48992731 74.45493106 31.09104644 70.03613281 27.40356445 C64.3934994 23.96320156 58.89842921 23.89328195 52.50488281 23.9465332 C51.15611809 23.94722054 51.15611809 23.94722054 49.78010559 23.94792175 C47.88992992 23.95093079 45.99975643 23.95877645 44.10961914 23.97119141 C41.204176 23.98955085 38.29905002 23.99170021 35.39355469 23.99145508 C33.55566129 23.99636685 31.71777005 24.00219368 29.87988281 24.0090332 C29.00704147 24.01014603 28.13420013 24.01125885 27.23490906 24.0124054 C23.31511821 23.65500361 23.31511821 23.65500361 20.02441406 25.17700195 Z M20.02441406 86.17700195 C19.92646095 87.55310077 19.89643318 88.93414078 19.89501953 90.3137207 C19.89186737 91.19133057 19.88871521 92.06894043 19.88546753 92.97314453 C19.88749176 93.92729248 19.88951599 94.88144043 19.89160156 95.86450195 C19.89064484 96.83734131 19.88968811 97.81018066 19.88870239 98.8125 C19.88802048 100.87377995 19.88987554 102.93506204 19.89404297 104.99633789 C19.89939106 108.16337884 19.89409834 111.33027795 19.88769531 114.49731445 C19.88835609 116.4947106 19.88963725 118.49210666 19.89160156 120.48950195 C19.88957733 121.4436499 19.8875531 122.39779785 19.88546753 123.38085938 C19.88861969 124.25846924 19.89177185 125.1360791 19.89501953 126.0402832 C19.89581512 126.81670166 19.89661072 127.59312012 19.89743042 128.39306641 C19.83037865 130.20133857 19.83037865 130.20133857 21.02441406 131.17700195 C22.42982213 131.28028428 23.84032994 131.31549922 25.24951172 131.32226562 C26.14779694 131.32864548 27.04608215 131.33502533 27.97158813 131.34159851 C28.95066132 131.34271133 29.9297345 131.34382416 30.93847656 131.3449707 C32.44297867 131.3499633 32.44297867 131.3499633 33.97787476 131.35505676 C36.10812927 131.36013278 38.23839178 131.36246488 40.36865234 131.36230469 C43.61471913 131.36447872 46.8604393 131.38259273 50.10644531 131.40161133 C52.17545457 131.40454767 54.24446544 131.40653085 56.31347656 131.4074707 C57.76386826 131.41824898 57.76386826 131.41824898 59.24356079 131.429245 C68.43572207 131.39841101 75.26029225 129.73570575 82.02441406 123.17700195 C86.37114049 117.83186778 86.63993103 112.00389061 86.40722656 105.30200195 C85.66412107 99.23583467 83.49858608 95.68467788 79.27441406 91.36450195 C71.99179272 86.46273759 65.55949743 85.71305773 56.99707031 85.63012695 C55.96754745 85.60980408 54.9380246 85.5894812 53.87730408 85.56854248 C51.71673692 85.5285409 49.55603493 85.49530362 47.39526367 85.46850586 C44.07264874 85.42682299 40.75092122 85.36421178 37.42871094 85.2980957 C35.32651797 85.26172977 33.22430441 85.22653145 31.12207031 85.19262695 C30.12426041 85.17500305 29.1264505 85.15737915 28.09840393 85.13922119 C26.72578651 85.12360138 26.72578651 85.12360138 25.32543945 85.10766602 C24.51683975 85.09672913 23.70824005 85.08579224 22.87513733 85.07452393 C21.00751625 84.97158933 21.00751625 84.97158933 20.02441406 86.17700195 Z " fill="#FEFEFE" transform="translate(820.9755859375,124.822998046875)"/>
<path d="M0 0 C0.33 0.99 0.66 1.98 1 3 C2.64072335 3.72818205 4.31460917 4.38219747 6 5 C8.14373121 6.1774596 10.26705285 7.3924281 12.375 8.6328125 C12.98077881 8.98834198 13.58655762 9.34387146 14.21069336 9.71017456 C15.49249627 10.46335508 16.77332151 11.21820165 18.05322266 11.97460938 C19.96433966 13.10392757 21.87833538 14.22821855 23.79296875 15.3515625 C30.92599321 19.54510404 38.00091685 23.82140121 45.03857422 28.17333984 C49.19173449 30.73508306 53.37424822 33.24618725 57.5625 35.75 C59.29949101 36.79034481 61.03646984 37.83070996 62.7734375 38.87109375 C63.64323242 39.39171387 64.51302734 39.91233398 65.40917969 40.44873047 C69.50372651 42.90036546 73.5955257 45.35657457 77.6875 47.8125 C79.35415213 48.81252422 81.02081914 49.81252365 82.6875 50.8125 C134.88476562 82.13085938 134.88476562 82.13085938 187.08203125 113.44921875 C188.07412598 114.04009277 189.0662207 114.6309668 190.08837891 115.23974609 C192.0232242 116.409479 193.9426195 117.6051724 195.84521484 118.82666016 C196.72516113 119.38530762 197.60510742 119.94395508 198.51171875 120.51953125 C199.28346436 121.02202393 200.05520996 121.5245166 200.8503418 122.04223633 C202.89565343 123.1536365 202.89565343 123.1536365 204.88134766 122.8762207 C207.87084336 121.63984134 210.58893122 120.08587172 213.38671875 118.4609375 C214.00093185 118.10502533 214.61514496 117.74911316 215.24797058 117.38241577 C221.22914994 113.90100531 227.14713688 110.31538245 233.05004883 106.70321655 C236.09943983 104.83768751 239.15307108 102.97913069 242.20703125 101.12109375 C242.8025882 100.75871109 243.39814514 100.39632843 244.01174927 100.02296448 C249.3077013 96.80476893 254.63944153 93.6517091 259.98950195 90.5246582 C267.77831138 85.96973708 275.50473237 81.3114758 283.23681641 76.66113281 C287.16981361 74.2967475 291.10504173 71.93608703 295.0402832 69.57543945 C297.15221525 68.30854236 299.26403017 67.04145 301.37573242 65.77416992 C306.63713945 62.61668549 311.89948936 59.46079675 317.1640625 56.30859375 C328.5634623 49.48038411 339.93755507 42.6124928 351.28610229 35.70016479 C362.64123225 28.78748498 374.06798401 21.99764409 385.51782227 15.24316406 C386.17288254 14.85592667 386.82794281 14.46868927 387.50285339 14.06971741 C389.2763819 13.02136703 391.05099314 11.97484897 392.82568359 10.9284668 C395.94848607 9.03129584 398.9758736 7.04908961 402 5 C402.66 5.33 403.32 5.66 404 6 C386.25413572 20.44538487 386.25413572 20.44538487 380.53515625 24.98046875 C378.6137054 26.51111604 376.70846778 28.05629218 374.80859375 29.61328125 C368.69534783 34.57672476 362.50779279 39.13119102 355.75 43.1875 C355.10587158 43.57413818 354.46174316 43.96077637 353.7980957 44.35913086 C349.27445797 47 349.27445797 47 347 47 C346.92523438 47.73734375 346.85046875 48.4746875 346.7734375 49.234375 C345.79868211 52.71986396 344.36387756 53.92771547 341.625 56.25 C340.83351563 56.93578125 340.04203125 57.6215625 339.2265625 58.328125 C337 60 337 60 334 61 C334 59.35 334 57.7 334 56 C333.47043701 56.29769287 332.94087402 56.59538574 332.39526367 56.90209961 C329.99416434 58.24990512 327.59086631 59.59374141 325.1875 60.9375 C323.93743164 61.64036133 323.93743164 61.64036133 322.66210938 62.35742188 C321.85966797 62.80537109 321.05722656 63.25332031 320.23046875 63.71484375 C319.49207764 64.12855225 318.75368652 64.54226074 317.99291992 64.96850586 C316 66 316 66 313 67 C313.17402344 68.16015625 313.17402344 68.16015625 313.3515625 69.34375 C314.07632652 77.70959749 314.07632652 77.70959749 310.87890625 81.54296875 C307.38577827 84.32631746 304.25340929 86.5821969 300 88 C299.67 84.04 299.34 80.08 299 76 C297.08574219 77.19109375 297.08574219 77.19109375 295.1328125 78.40625 C293.46368559 79.43773292 291.79440688 80.46897026 290.125 81.5 C289.28324219 82.02464844 288.44148438 82.54929687 287.57421875 83.08984375 C286.36572266 83.83427734 286.36572266 83.83427734 285.1328125 84.59375 C284.38918457 85.05458984 283.64555664 85.51542969 282.87939453 85.99023438 C281 87 281 87 279 87 C279.19142578 88.90072266 279.19142578 88.90072266 279.38671875 90.83984375 C280.29396032 103.79694961 280.29396032 103.79694961 277.95263672 107.78320312 C275.13543675 110.91962378 271.74588771 113.12705614 268 115 C267.34 115 266.68 115 266 115 C266 108.73 266 102.46 266 96 C260.05081262 99.19768822 254.19380764 102.3916199 248.55859375 106.1171875 C247 107 247 107 245 107 C245.10211792 108.09501831 245.10211792 108.09501831 245.20629883 109.2121582 C247.00677256 131.39111945 247.00677256 131.39111945 242.59765625 136.7890625 C239.96367394 139.21438356 237.00398509 141.06313126 233.90820312 142.84472656 C230.58018035 144.85959398 227.64170965 147.3665192 224.625 149.8125 C223.45482266 150.72873482 222.28301395 151.64289099 221.109375 152.5546875 C214.67005224 157.61235412 214.67005224 157.61235412 208.875 163.375 C207 165 207 165 204.4375 165.4375 C202 165 202 165 200.70214844 163.68994141 C198.47577565 161.47953515 196.03514749 160.10873487 193.328125 158.5234375 C192.19600586 157.85707275 191.06388672 157.19070801 189.89746094 156.50415039 C188.68166063 155.79439933 187.46583993 155.08468319 186.25 154.375 C185.01044302 153.64691209 183.77118596 152.91831331 182.53222656 152.18920898 C180.10445359 150.76076479 177.67567029 149.33406558 175.24609375 147.90869141 C171.40111407 145.64785723 167.57070243 143.36405757 163.75 141.0625 C163.17499756 140.71662842 162.59999512 140.37075684 162.00756836 140.0144043 C160.33815561 139.00997389 158.66907478 138.0049919 157 137 C155.21860044 135.93026132 153.43675033 134.86127666 151.65478516 133.79248047 C150.42908458 133.05732001 149.20349814 132.32196921 147.97802734 131.58642578 C144.34223847 129.40420029 140.70493605 127.22452773 137.06640625 125.046875 C122.33868956 116.22779954 122.33868956 116.22779954 115.625 112.0625 C108.99580299 107.96275332 102.279284 104.0145206 95.56469727 100.05664062 C81.05054401 91.49824002 66.63036018 82.78848815 52.24365234 74.01782227 C44.51721112 69.30896732 36.76645658 64.64246471 29 60 C27.33311287 59.00036754 25.66642675 58.00039975 24 57 C23.23429687 56.54367187 22.46859375 56.08734375 21.6796875 55.6171875 C19.50669346 54.30578876 17.34940612 52.9747589 15.1953125 51.6328125 C14.52371094 51.21902344 13.85210937 50.80523437 13.16015625 50.37890625 C11.82761911 49.55789968 10.49929063 48.73001312 9.17578125 47.89453125 C5.74561699 45.7931043 4.12749411 45 0 45 C0 30.15 0 15.3 0 0 Z " fill="#135394" transform="translate(0,235)"/>
<path d="M0 0 C6.3656591 5.9804759 11.72669439 12.48815272 12.08178711 21.40087891 C12.24532423 30.05448699 11.47745873 35.84835411 5.6875 42.6875 C4.96240234 43.615625 4.96240234 43.615625 4.22265625 44.5625 C-7.61911424 58.06151572 -31.9311109 66.43904379 -49.3125 67.6875 C-80.56530697 69.1078847 -112.99472857 67.43761319 -137.375 45.25 C-143.46842693 38.66292836 -146.69709347 30.25352702 -146.59375 21.37890625 C-146.13332056 16.9728523 -144.47129239 13.5102121 -142.3125 9.6875 C-141.99667969 9.09324219 -141.68085938 8.49898437 -141.35546875 7.88671875 C-132.52685194 -6.4969828 -113.22185626 -13.30062246 -97.734375 -17.3671875 C-66.78836556 -24.51915413 -24.88840134 -21.30121719 0 0 Z " fill="#3296D3" transform="translate(271.3125,52.3125)"/>
<path d="M0 0 C0 51.81 0 103.62 0 157 C-28 156 -28 156 -29 155 C-29.12363297 153.03712234 -29.1779544 151.06984842 -29.20532227 149.10327148 C-29.22550415 147.82432007 -29.24568604 146.54536865 -29.26647949 145.22766113 C-29.28325082 143.85880691 -29.29989406 142.48995112 -29.31640625 141.12109375 C-29.33505737 139.88363403 -29.3537085 138.64617432 -29.3729248 137.37121582 C-29.44147877 132.72671993 -29.50146339 128.08210076 -29.5625 123.4375 C-29.706875 113.063125 -29.85125 102.68875 -30 92 C-55.41 92 -80.82 92 -107 92 C-107.28940176 112.68828219 -107.28940176 112.68828219 -107.56811523 133.37670898 C-107.60621836 135.95817635 -107.64468578 138.53963838 -107.68359375 141.12109375 C-107.69173599 141.79608414 -107.69987823 142.47107452 -107.70826721 143.16651917 C-107.73251383 145.14549768 -107.76345095 147.1243908 -107.79467773 149.10327148 C-107.81022202 150.22023911 -107.8257663 151.33720673 -107.84178162 152.48802185 C-108 155 -108 155 -109 156 C-110.84159023 156.09959621 -112.68696967 156.13080411 -114.53125 156.1328125 C-115.65144531 156.13410156 -116.77164062 156.13539063 -117.92578125 156.13671875 C-119.10527344 156.13285156 -120.28476563 156.12898437 -121.5 156.125 C-123.26923828 156.13080078 -123.26923828 156.13080078 -125.07421875 156.13671875 C-126.75451172 156.13478516 -126.75451172 156.13478516 -128.46875 156.1328125 C-129.50451172 156.13168457 -130.54027344 156.13055664 -131.60742188 156.12939453 C-134 156 -134 156 -135 155 C-135.096708 153.01305149 -135.12187052 151.02260987 -135.12025452 149.03330994 C-135.12162918 147.73615555 -135.12300385 146.43900116 -135.12442017 145.10253906 C-135.12088055 143.6516111 -135.11724573 142.20068337 -135.11352539 140.74975586 C-135.11324353 139.23238629 -135.11340123 137.71501658 -135.1139679 136.19764709 C-135.11425591 132.06559484 -135.10835858 127.93357137 -135.10139394 123.80152583 C-135.09516102 119.48801108 -135.09455665 115.17449573 -135.09336853 110.86097717 C-135.09025503 102.68699883 -135.08204139 94.51303379 -135.07201904 86.33906132 C-135.06085848 77.03571031 -135.0553476 67.73235868 -135.05032361 58.42900264 C-135.03985879 39.28599421 -135.02225899 20.14299817 -135 1 C-130.68751391 0.97113463 -126.37505238 0.95324745 -122.0625 0.9375 C-120.83080078 0.92912109 -119.59910156 0.92074219 -118.33007812 0.91210938 C-117.16025391 0.90888672 -115.99042969 0.90566406 -114.78515625 0.90234375 C-113.15912476 0.89448853 -113.15912476 0.89448853 -111.50024414 0.88647461 C-109 1 -109 1 -108 2 C-107.87636703 3.96287766 -107.8220456 5.93015158 -107.79467773 7.89672852 C-107.77449585 9.17567993 -107.75431396 10.45463135 -107.73352051 11.77233887 C-107.71674918 13.14119309 -107.70010594 14.51004888 -107.68359375 15.87890625 C-107.66494263 17.11636597 -107.6462915 18.35382568 -107.6270752 19.62878418 C-107.55852123 24.27328007 -107.49853661 28.91789924 -107.4375 33.5625 C-107.293125 43.936875 -107.14875 54.31125 -107 65 C-81.59 65 -56.18 65 -30 65 C-29.71059824 44.31171781 -29.71059824 44.31171781 -29.43188477 23.62329102 C-29.39378164 21.04182365 -29.35531422 18.46036162 -29.31640625 15.87890625 C-29.30826401 15.20391586 -29.30012177 14.52892548 -29.29173279 13.83348083 C-29.26748617 11.85450232 -29.23654905 9.8756092 -29.20532227 7.89672852 C-29.18977798 6.77976089 -29.1742337 5.66279327 -29.15821838 4.51197815 C-29 2 -29 2 -28 1 C-26.01392113 0.84170846 -24.02255967 0.74879567 -22.03125 0.68359375 C-20.21560547 0.62075195 -20.21560547 0.62075195 -18.36328125 0.55664062 C-16.45095703 0.49766602 -16.45095703 0.49766602 -14.5 0.4375 C-13.22511719 0.39431641 -11.95023438 0.35113281 -10.63671875 0.30664062 C-1.49590774 0 -1.49590774 0 0 0 Z " fill="#FEFDFD" transform="translate(1640,124)"/>
<path d="M0 0 C2.50097656 1.23999023 2.50097656 1.23999023 5.140625 2.80859375 C6.6114856 3.6756897 6.6114856 3.6756897 8.11206055 4.56030273 C9.66534058 5.48951538 9.66534058 5.48951538 11.25 6.4375 C12.31452393 7.06406494 13.37904785 7.69062988 14.47583008 8.33618164 C19.40627692 11.2423981 24.31330538 14.1815515 29.18359375 17.1875 C29.95219727 17.65615479 30.72080078 18.12480957 31.51269531 18.60766602 C32.92758263 19.47283118 34.33501507 20.35034881 35.73339844 21.24194336 C39.3058595 23.46567533 39.3058595 23.46567533 43.38891602 23.77539062 C46.28483197 22.91541596 48.54390776 21.73449803 51.140625 20.19140625 C52.12119873 19.61334229 53.10177246 19.03527832 54.11206055 18.43969727 C55.66534058 17.51048462 55.66534058 17.51048462 57.25 16.5625 C58.31452393 15.93593506 59.37904785 15.30937012 60.47583008 14.66381836 C65.40627692 11.7576019 70.31330538 8.8184485 75.18359375 5.8125 C75.95219727 5.34384521 76.72080078 4.87519043 77.51269531 4.39233398 C78.92758263 3.52716882 80.33501507 2.64965119 81.73339844 1.75805664 C86.34525263 -1.05366 86.34525263 -1.05366 89.34741211 -0.80761719 C92.52470107 0.15975252 94.97743869 1.57819112 97.8046875 3.32421875 C98.35748383 3.66249191 98.91028015 4.00076508 99.47982788 4.34928894 C101.28277235 5.45481238 103.07898929 6.57075357 104.875 7.6875 C106.12038748 8.45585836 107.36615979 9.2235933 108.61230469 9.99072266 C110.51952164 11.16490492 112.42637012 12.33963977 114.3314209 13.51733398 C118.51620209 16.10125801 122.72749665 18.63326055 126.9609375 21.13671875 C128.0245752 21.76940674 129.08821289 22.40209473 130.18408203 23.05395508 C132.19860695 24.25051037 134.21770651 25.43940333 136.24169922 26.61987305 C137.13646973 27.15523682 138.03124023 27.69060059 138.953125 28.2421875 C139.73848633 28.7047998 140.52384766 29.16741211 141.33300781 29.64404297 C141.88311523 30.09150879 142.43322266 30.53897461 143 31 C143 31.99 143 32.98 143 34 C140.82641602 35.66308594 140.82641602 35.66308594 137.75390625 37.484375 C137.20077255 37.81644958 136.64763885 38.14852417 136.07774353 38.49066162 C134.2452999 39.58748306 132.40405268 40.66855445 130.5625 41.75 C129.27801654 42.51522071 127.99416911 43.28150998 126.7109375 44.04882812 C124.08034601 45.6196688 121.44633162 47.18450441 118.80908203 48.74414062 C113.35683419 51.96960196 107.92990601 55.23712332 102.5 58.5 C101.49517578 59.10199219 100.49035156 59.70398438 99.45507812 60.32421875 C92.08036814 64.74250605 84.72273939 69.18826863 77.37454224 73.65045166 C75.58384604 74.73704721 73.79191915 75.82158801 71.99975586 76.90576172 C66.77007604 80.07330212 61.55866298 83.26245265 56.40625 86.5546875 C55.57665771 87.0796582 54.74706543 87.60462891 53.89233398 88.14550781 C52.39163422 89.09848283 50.898261 90.0631456 49.41430664 91.04199219 C44.63283501 94.06436035 44.63283501 94.06436035 41.53222656 93.74902344 C39.02420922 93.007161 37.23392331 92.13722545 35.04296875 90.7265625 C34.27702393 90.24147217 33.5110791 89.75638184 32.72192383 89.2565918 C31.88556396 88.7181665 31.0492041 88.17974121 30.1875 87.625 C20.98915823 81.81357115 11.68217752 76.21575443 2.3125 70.6875 C-8.86368118 64.08636182 -19.95485102 57.36897597 -30.98852539 50.53198242 C-40.21689819 44.82877648 -49.57027194 39.36244777 -59 34 C-57.59507703 30.55551012 -56.19247759 29.18615156 -52.9765625 27.36328125 C-52.13319336 26.87633789 -51.28982422 26.38939453 -50.42089844 25.88769531 C-49.49825195 25.36788086 -48.57560547 24.84806641 -47.625 24.3125 C-45.64209539 23.16993415 -43.66038556 22.02529301 -41.6796875 20.87890625 C-40.61202148 20.26289551 -39.54435547 19.64688477 -38.44433594 19.01220703 C-32.1622471 15.34216336 -25.95984936 11.54055917 -19.75 7.75 C-17.91461099 6.63034677 -16.07903133 5.51101149 -14.2428894 4.39259338 C-12.64409538 3.41860202 -11.04614134 2.4432322 -9.44824219 1.46777344 C-5.61053648 -0.83301303 -4.36058594 -1.19359392 0 0 Z " fill="#3C6AB2" transform="translate(162,204)"/>
<path d="M0 0 C0.55924973 9.66502316 0.98391763 19.32440188 1.24349213 29.00213814 C1.36818729 33.49832781 1.53663262 37.98337734 1.81054688 42.47314453 C3.52773078 71.37038209 3.52773078 71.37038209 -2.23974609 78.93933105 C-7.80156107 83.66453566 -13.98551684 86.32469265 -20.80723572 88.74980164 C-26.2266769 90.87190521 -31.05234747 93.96689254 -36 97 C-37.98554029 98.15965373 -39.97351052 99.31516597 -41.96484375 100.46484375 C-42.95033203 101.03783203 -43.93582031 101.61082031 -44.95117188 102.20117188 C-46.93744094 103.35603989 -48.92441755 104.50969186 -50.91210938 105.66210938 C-56.1166345 108.69100022 -61.27720479 111.77497512 -66.39453125 114.94921875 C-72.51085289 118.73108735 -78.71980143 122.32731825 -84.97680664 125.87063599 C-88.0344064 127.60250756 -91.08749473 129.34229597 -94.140625 131.08203125 C-94.73762207 131.42207687 -95.33461914 131.7621225 -95.94970703 132.11247253 C-100.82241638 134.89119657 -105.67024157 137.70988858 -110.5 140.5625 C-111.15967773 140.95211914 -111.81935547 141.34173828 -112.49902344 141.74316406 C-113.73919846 142.4766009 -114.97912128 143.21046442 -116.21875 143.94482422 C-119.14271214 145.67691911 -122.06993167 147.40324256 -125 149.125 C-125.94875 149.68445313 -126.8975 150.24390625 -127.875 150.8203125 C-130 152 -130 152 -131 152 C-131.5591528 142.20521096 -131.98390453 132.41427234 -132.24349213 122.60671043 C-132.36819651 118.05006639 -132.53667091 113.50441088 -132.81054688 108.95410156 C-134.5247802 79.70722475 -134.5247802 79.70722475 -128.79650879 72.05731201 C-123.1947687 67.24768812 -116.84890871 64.54571613 -109.94580078 62.08978271 C-106.08002687 60.65966103 -102.72573347 58.7152219 -99.234375 56.5546875 C-97.073259 55.32752194 -94.91180953 54.1009434 -92.75 52.875 C-82.13925707 46.84005538 -71.63873106 40.64040725 -61.19384766 34.32324219 C-48.96208871 26.94552869 -36.55911374 19.86326472 -24.14648438 12.79589844 C-23.00888672 12.14782227 -21.87128906 11.49974609 -20.69921875 10.83203125 C-19.03318604 9.88384521 -19.03318604 9.88384521 -17.33349609 8.91650391 C-15.06080669 7.60988227 -12.79866223 6.29364758 -10.54541016 4.95458984 C-9.46437012 4.31344238 -8.38333008 3.67229492 -7.26953125 3.01171875 C-6.30249268 2.43252686 -5.3354541 1.85333496 -4.33911133 1.2565918 C-2 0 -2 0 0 0 Z " fill="#2F95D2" transform="translate(336,77)"/>
<path d="M0 0 C1.07507812 0.36222656 2.15015625 0.72445312 3.2578125 1.09765625 C10.73701526 3.91909463 16.78930132 8.01800214 23 13 C23.72058594 13.55558594 24.44117188 14.11117187 25.18359375 14.68359375 C35.85335956 23.35667824 44.73939083 37.27487287 47 51 C46.69894266 52.67279807 46.36914799 54.34089824 46 56 C41.72952167 56.14486019 37.45967167 56.23392616 33.1875 56.3125 C31.97255859 56.35439453 30.75761719 56.39628906 29.50585938 56.43945312 C28.34248047 56.45556641 27.17910156 56.47167969 25.98046875 56.48828125 C24.37014771 56.52755737 24.37014771 56.52755737 22.72729492 56.56762695 C20 56 20 56 18.23144531 53.66674805 C17.82506836 52.78672119 17.41869141 51.90669434 17 51 C16.44441406 49.9584375 15.88882812 48.916875 15.31640625 47.84375 C14.14769682 45.61565363 12.98102721 43.38648612 11.81640625 41.15625 C6.40000919 31.7445321 -1.72924651 26.983175 -12.05029297 24.08642578 C-28.19463922 20.00949391 -42.13312186 22.5587703 -56.84375 30.0859375 C-67.89268083 36.78640298 -74.5151325 47.9923553 -77.90625 60.28515625 C-82.32968656 79.1052405 -78.95820732 95.57315211 -69 112 C-61.33786113 122.64522456 -48.86931463 127.9520451 -36.24780273 130.20605469 C-20.58166626 132.51108076 -6.63659107 128.71104417 6.14453125 119.4453125 C11.75230217 114.53393144 14.15888333 107.72896053 17 101 C17.99 99.02 17.99 99.02 19 97 C28.24 97 37.48 97 47 97 C44.90398822 115.86410605 35.88169789 128.57011292 22 141 C3.87309886 155.24256518 -17.74349497 158.68215219 -40.25 156.375 C-58.07725292 153.7630152 -72.07232733 145.34915375 -85 133 C-85.61488281 132.45988281 -86.22976563 131.91976562 -86.86328125 131.36328125 C-101.31063723 118.17799315 -107.66603764 98.64207915 -109.28515625 79.65625 C-109.88058526 58.73857012 -102.66097278 38.6905478 -88.34765625 23.4453125 C-87.57292969 22.63835937 -86.79820313 21.83140625 -86 21 C-85.27683594 20.21367187 -84.55367187 19.42734375 -83.80859375 18.6171875 C-62.48625589 -3.88760559 -28.79265792 -9.7792435 0 0 Z " fill="#FEFEFE" transform="translate(1422,126)"/>
<path d="M0 0 C1.06476563 0.37382813 2.12953125 0.74765625 3.2265625 1.1328125 C10.23473644 3.81188659 16.12034584 7.36225299 22 12 C22.76054688 12.59554687 23.52109375 13.19109375 24.3046875 13.8046875 C35.63522256 23.25333438 45.13804216 36.45319972 46.65625 51.4296875 C46.77976893 52.95242656 46.89748766 54.47570266 47 56 C42.56284145 56.14483042 38.12628723 56.23391752 33.6875 56.3125 C32.42486328 56.35439453 31.16222656 56.39628906 29.86132812 56.43945312 C28.65283203 56.45556641 27.44433594 56.47167969 26.19921875 56.48828125 C25.08377686 56.51446533 23.96833496 56.54064941 22.8190918 56.56762695 C20 56 20 56 18.19970703 53.64868164 C17.80380371 52.7746167 17.40790039 51.90055176 17 51 C16.53980469 50.05382812 16.07960938 49.10765625 15.60546875 48.1328125 C15.13753906 47.14023438 14.66960937 46.14765625 14.1875 45.125 C8.72640801 34.32182288 2.31532647 29.38330709 -9 25 C-23.58435671 20.32573845 -38.03336058 20.87395013 -51.92285156 27.6640625 C-64.85196944 34.44230939 -72.0549043 43.37630622 -77 57 C-80.45204087 68.49004136 -80.37630016 79.3368619 -78 91 C-77.81308594 91.92296875 -77.62617188 92.8459375 -77.43359375 93.796875 C-73.98144134 107.43179144 -65.68259225 116.80765579 -54 124 C-53.40703125 124.38414062 -52.8140625 124.76828125 -52.203125 125.1640625 C-40.440201 131.98239455 -25.87840816 131.94327523 -13 129 C0.13810479 125.26219524 7.35139558 119.92492956 14.23828125 108.31640625 C15.50603415 105.92988249 16.62248153 103.63102761 17.66796875 101.15234375 C19 98 19 98 20 97 C21.99964982 96.91241997 24.0023611 96.89303424 26.00390625 96.90234375 C27.82631836 96.90717773 27.82631836 96.90717773 29.68554688 96.91210938 C30.96494141 96.92048828 32.24433594 96.92886719 33.5625 96.9375 C34.84576172 96.94201172 36.12902344 96.94652344 37.45117188 96.95117188 C40.63416022 96.96300455 43.81705762 96.97948932 47 97 C45.87125903 113.78370437 37.78377935 126.70123639 25.8125 138.25 C9.28232291 152.61001418 -11.24914067 158.29240251 -33 157 C-55.38983695 155.28513654 -75.28721412 145.03133774 -90 128 C-102.23153187 111.95898429 -108.17439869 96.90582714 -108.1875 76.625 C-108.19974609 75.635 -108.21199219 74.645 -108.22460938 73.625 C-108.23680472 67.46228476 -107.59945677 61.94568928 -106 56 C-105.81179688 55.16210938 -105.62359375 54.32421875 -105.4296875 53.4609375 C-101.75049546 39.62510265 -94.08068711 28.83965802 -84 19 C-83.19691406 18.18789062 -82.39382813 17.37578125 -81.56640625 16.5390625 C-60.41265821 -3.81577552 -27.43240381 -9.96949592 0 0 Z " fill="#FEFEFE" transform="translate(558,126)"/>
<path d="M0 0 C17.304375 -0.020625 34.60875 -0.04125 52.4375 -0.0625 C57.91013428 -0.071604 63.38276855 -0.08070801 69.02124023 -0.09008789 C75.6817627 -0.09460449 75.6817627 -0.09460449 78.79554749 -0.09544373 C80.97967227 -0.09698367 83.16379619 -0.10050963 85.34791565 -0.10557556 C88.64789314 -0.11284988 91.94781848 -0.11390752 95.24780273 -0.11352539 C96.22788268 -0.1171235 97.20796263 -0.12072161 98.21774197 -0.12442875 C99.10075513 -0.12305125 99.98376829 -0.12167376 100.89353943 -0.12025452 C101.66692374 -0.12117631 102.44030806 -0.1220981 103.23712826 -0.12304783 C105 0 105 0 106 1 C106.25156269 4.63899175 106.18522226 8.29083673 106.1875 11.9375 C106.19974609 12.96552734 106.21199219 13.99355469 106.22460938 15.05273438 C106.22654297 16.03435547 106.22847656 17.01597656 106.23046875 18.02734375 C106.23457764 18.93218506 106.23868652 19.83702637 106.24291992 20.76928711 C106 23 106 23 104 25 C101.59320759 25.21705637 99.29780197 25.31134857 96.88818359 25.31884766 C96.15637375 25.32889328 95.4245639 25.3389389 94.670578 25.34928894 C92.24653932 25.38023236 89.82261162 25.39718674 87.3984375 25.4140625 C85.71976763 25.43276521 84.04110725 25.45233794 82.36245728 25.4727478 C77.94020165 25.52416995 73.51791551 25.56374152 69.09552002 25.60089111 C63.79156402 25.64789407 58.4877606 25.70953489 53.18392944 25.76873779 C45.12268088 25.85707291 37.06146337 25.92674902 29 26 C29 38.54 29 51.08 29 64 C33.68058594 64.06058594 38.36117188 64.12117188 43.18359375 64.18359375 C46.1412857 64.22406831 49.09896798 64.26483139 52.05664062 64.30664062 C56.75558265 64.37303649 61.45452268 64.43833882 66.15356445 64.49731445 C69.94020842 64.54490561 73.72675916 64.59724624 77.51329231 64.65294075 C78.96101638 64.67338818 80.40876603 64.69209724 81.85653496 64.70907402 C83.87764159 64.73306508 85.8986661 64.76370075 87.91967773 64.79467773 C89.07217514 64.81022202 90.22467255 64.8257663 91.41209412 64.84178162 C94 65 94 65 95 66 C95.09899523 67.54955559 95.13079524 69.10353673 95.1328125 70.65625 C95.13410156 71.59597656 95.13539062 72.53570312 95.13671875 73.50390625 C95.13285156 74.49261719 95.12898438 75.48132813 95.125 76.5 C95.12886719 77.48871094 95.13273437 78.47742188 95.13671875 79.49609375 C95.13542969 80.43582031 95.13414063 81.37554687 95.1328125 82.34375 C95.13168457 83.21193359 95.13055664 84.08011719 95.12939453 84.97460938 C95 87 95 87 94 88 C91.97585009 88.12375169 89.94742263 88.17797311 87.91967773 88.20532227 C85.96776772 88.2352401 85.96776772 88.2352401 83.97642517 88.26576233 C82.5454826 88.28274799 81.11453875 88.29962675 79.68359375 88.31640625 C78.2277008 88.33696906 76.77181391 88.35796534 75.31593323 88.37937927 C71.47727353 88.43466961 67.63855935 88.48404802 63.79980469 88.53222656 C59.19757351 88.59120513 54.59544228 88.65747124 49.99329376 88.72252655 C42.99559003 88.82062364 35.99782327 88.90941953 29 89 C29 102.2 29 115.4 29 129 C54.41 129.33 79.82 129.66 106 130 C106 138.25 106 146.5 106 155 C71.02 155 36.04 155 0 155 C0 103.85 0 52.7 0 0 Z " fill="#FEFEFE" transform="translate(1183,125)"/>
<path d="M0 0 C1.1653125 -0.00128906 2.330625 -0.00257812 3.53125 -0.00390625 C4.7584375 -0.00003906 5.985625 0.00382812 7.25 0.0078125 C9.09078125 0.00201172 9.09078125 0.00201172 10.96875 -0.00390625 C12.71671875 -0.00197266 12.71671875 -0.00197266 14.5 0 C15.57765625 0.00112793 16.6553125 0.00225586 17.765625 0.00341797 C20.25 0.1328125 20.25 0.1328125 21.25 1.1328125 C21.35411821 4.20999254 21.39360769 7.2654665 21.3918457 10.34326172 C21.39705734 11.79464287 21.39705734 11.79464287 21.40237427 13.27534485 C21.40974842 15.3859283 21.41508491 17.49651959 21.41866493 19.60711288 C21.42581644 22.95396993 21.44147641 26.30067915 21.46000671 29.64749146 C21.51251487 39.16699097 21.56039048 48.68641373 21.57592773 58.20605469 C21.58604625 64.02344611 21.61547809 69.84047203 21.65724754 75.65771866 C21.66951683 77.87030387 21.67468629 80.08294083 21.67244911 82.29555893 C21.34879804 98.21507194 21.34879804 98.21507194 26.25 113.1328125 C26.65877884 113.90446747 27.06755768 114.67612244 27.48872375 115.47116089 C32.06557612 123.67467107 38.45735401 127.45731856 47.25 130.1328125 C58.44890527 133.06551683 68.96495425 132.16324685 79.3125 126.7578125 C88.00077148 121.29157528 92.95569411 113.00731159 95.3143158 103.04418945 C96.37917517 98.07604172 96.54955956 93.2894555 96.55297852 88.22265625 C96.56563751 86.80394981 96.56563751 86.80394981 96.57855225 85.35658264 C96.60414002 82.26115364 96.61642143 79.1658195 96.62890625 76.0703125 C96.64509311 73.91079973 96.66227435 71.7512942 96.68040466 69.59179688 C96.72592649 63.93043352 96.76082861 58.2690604 96.79260254 52.60760498 C96.84465196 43.51795636 96.90945313 34.42841322 96.98081779 25.33889771 C97.00370502 22.16075604 97.01993368 18.98262808 97.03553772 15.80444336 C97.0489354 13.87223148 97.06254941 11.94002108 97.07641602 10.0078125 C97.07902939 9.11852554 97.08164276 8.22923859 97.08433533 7.31300354 C97.13635261 1.24645989 97.13635261 1.24645989 98.25 0.1328125 C100.16458282 0.03309464 102.08282317 0.00200661 104 0 C105.1653125 -0.00128906 106.330625 -0.00257812 107.53125 -0.00390625 C108.7584375 -0.00003906 109.985625 0.00382812 111.25 0.0078125 C113.09078125 0.00201172 113.09078125 0.00201172 114.96875 -0.00390625 C116.71671875 -0.00197266 116.71671875 -0.00197266 118.5 0 C119.57765625 0.00112793 120.6553125 0.00225586 121.765625 0.00341797 C124.25 0.1328125 124.25 0.1328125 125.25 1.1328125 C125.36137618 4.19426595 125.40740721 7.23336084 125.41113281 10.2956543 C125.41609772 11.25842285 125.42106262 12.22119141 125.42617798 13.21313477 C125.44085725 16.41944075 125.44761534 19.62569708 125.453125 22.83203125 C125.45887697 25.06150819 125.4646347 27.29098512 125.47039795 29.52046204 C125.48092786 34.21066519 125.48675575 38.90085113 125.49023438 43.59106445 C125.49568713 49.57030781 125.51963721 55.54931974 125.54820633 61.52849102 C125.56694415 66.14336276 125.57204447 70.75818038 125.57357025 75.37308693 C125.57657826 77.57486024 125.5845434 79.77663303 125.59775543 81.97836876 C125.67857619 96.49771781 125.72881893 110.87021284 118.9375 124.1328125 C118.60266602 124.79015381 118.26783203 125.44749512 117.92285156 126.12475586 C110.41699734 139.83560307 96.74096426 151.17625968 81.71484375 155.578125 C61.43991324 160.14078765 39.56366103 159.41830586 21.421875 148.41796875 C6.99806429 138.5670701 -2.29041846 125.35903297 -6.11170959 108.3555603 C-7.71650008 99.18407821 -7.13251641 89.63962355 -7.078125 80.3671875 C-7.07506274 78.07887903 -7.07319017 75.7905687 -7.07244873 73.5022583 C-7.06787092 68.73499284 -7.05353296 63.96789868 -7.03125 59.20068359 C-7.00277628 53.07709218 -6.99201649 46.95363411 -6.9875679 40.82998276 C-6.98342481 36.11872009 -6.97361981 31.40748454 -6.96169281 26.69623566 C-6.95598367 24.43628405 -6.9512271 22.17632983 -6.94742584 19.91637421 C-6.94059311 16.77590771 -6.92698019 13.63554946 -6.91113281 10.49511719 C-6.91001495 9.55600998 -6.90889709 8.61690277 -6.90774536 7.64933777 C-6.85636111 0.00717622 -6.85636111 0.00717622 0 0 Z " fill="#FEFEFE" transform="translate(644.75,124.8671875)"/>
<path d="M0 0 C1.65 0 3.3 0 5 0 C5 0.66 5 1.32 5 2 C5.70092773 2.26103516 6.40185547 2.52207031 7.12402344 2.79101562 C10.24325767 4.10225908 13.08101146 5.65928365 16.015625 7.34375 C16.58378433 7.66885056 17.15194366 7.99395111 17.73731995 8.3289032 C19.57676177 9.38269383 21.41342166 10.44122802 23.25 11.5 C24.52813022 12.23366924 25.80636986 12.96714789 27.0847168 13.70043945 C34.34597711 17.87062773 41.57894489 22.08666237 48.78295898 26.35498047 C55.37770776 30.24978995 62.04989207 34.00470508 68.72216797 37.76464844 C80.59509831 44.45662846 92.43151665 51.21149813 104.25115967 57.99700928 C106.00524323 59.00300708 107.7605281 60.00687926 109.51611328 61.01025391 C112.84792204 62.91690135 116.17462028 64.83216689 119.5 66.75 C120.50281006 67.32226318 121.50562012 67.89452637 122.53881836 68.48413086 C123.4644458 69.02046143 124.39007324 69.55679199 125.34375 70.109375 C126.15005859 70.57311523 126.95636719 71.03685547 127.78710938 71.51464844 C130.16998304 73.11409718 132.03902554 74.91240262 134 77 C132.9790625 77.55945313 131.958125 78.11890625 130.90625 78.6953125 C119.69392288 84.86812619 108.62538919 91.26880186 97.58203125 97.73828125 C93.21740911 100.29398323 88.83653049 102.81656085 84.4375 105.3125 C79.96324182 107.85773669 75.53143267 110.46452363 71.125 113.125 C55.89638035 122.31503213 40.46437194 131.16696052 25.0625 140.0625 C23.99153076 140.68141113 22.92056152 141.30032227 21.81713867 141.93798828 C19.80567557 143.09805102 17.79141185 144.25327589 15.77392578 145.40283203 C13.97717166 146.43736517 12.19311874 147.49441179 10.42529297 148.57763672 C9.64428223 149.04572754 8.86327148 149.51381836 8.05859375 149.99609375 C7.39013428 150.40915771 6.7216748 150.82222168 6.03295898 151.24780273 C3.28278552 152.26537022 1.78196546 151.86145331 -1 151 C-3.32641602 149.85522461 -3.32641602 149.85522461 -5.75390625 148.40234375 C-6.67703613 147.85594238 -7.60016602 147.30954102 -8.55126953 146.74658203 C-9.54497559 146.14958496 -10.53868164 145.55258789 -11.5625 144.9375 C-13.71669779 143.66149318 -15.87167894 142.38680815 -18.02734375 141.11328125 C-19.16026855 140.44248535 -20.29319336 139.77168945 -21.46044922 139.08056641 C-27.47859501 135.5318109 -33.55435875 132.08286854 -39.625 128.625 C-40.74849854 127.98425537 -41.87199707 127.34351074 -43.02954102 126.68334961 C-45.23961011 125.42312134 -47.44989573 124.1632727 -49.66040039 122.90380859 C-53.09918095 120.94345983 -56.53621603 118.98007189 -59.97265625 117.015625 C-64.61140105 114.36387916 -69.25213965 111.71567189 -73.89453125 109.0703125 C-96.05378357 96.43673051 -96.05378357 96.43673051 -106.36303711 90.32055664 C-109.56782707 88.42101396 -112.78348683 86.54795558 -116.03125 84.72265625 C-116.67916504 84.35785156 -117.32708008 83.99304688 -117.99462891 83.6171875 C-119.74132633 82.63747666 -121.49161334 81.6641731 -123.2421875 80.69140625 C-125.58664548 79.2535163 -127.13317592 77.96054291 -129 76 C-120.37308044 70.62067453 -111.65872127 65.45040095 -102.8125 60.4375 C-100.35483509 59.04017505 -97.89811877 57.64118606 -95.44140625 56.2421875 C-94.51435379 55.7146563 -94.51435379 55.7146563 -93.568573 55.1764679 C-87.11253878 51.50029518 -80.68091894 47.78240549 -74.25 44.0625 C-67.47977091 40.14824982 -60.70387672 36.24859 -53.875 32.4375 C-46.27082066 28.19260074 -38.7580837 23.79370266 -31.24536133 19.3894043 C-26.1258297 16.39186139 -20.99485981 13.419468 -15.828125 10.50390625 C-14.37152466 9.68079956 -14.37152466 9.68079956 -12.88549805 8.84106445 C-11.03800755 7.79980392 -9.1879968 6.76299934 -7.33520508 5.73120117 C-6.10386841 5.03667847 -6.10386841 5.03667847 -4.84765625 4.328125 C-4.12586182 3.9249707 -3.40406738 3.52181641 -2.66040039 3.10644531 C-0.83859062 2.09077768 -0.83859062 2.09077768 0 0 Z M-27 35 C-27.71212646 35.135271 -28.42425293 35.27054199 -29.15795898 35.40991211 C-45.54474141 38.80442633 -63.10567746 46.86811108 -72.81640625 61.0078125 C-77.10084664 68.21924682 -78.3405743 75.26234198 -76.4140625 83.5078125 C-72.133845 96.03432058 -61.41976167 104.19061539 -50 110 C-23.44702888 122.42386722 12.76624594 125.07688173 40.55859375 115.453125 C55.73739084 109.94617387 71.86138261 102.86775752 79.9921875 88 C82.45242174 80.67651202 82.51160781 72.25550459 79.921875 64.96484375 C78.47534241 62.39367182 76.91101139 60.24461467 75 58 C74.443125 57.30777344 73.88625 56.61554687 73.3125 55.90234375 C60.43151384 41.49451656 37.73672774 34.28371167 19 33 C13.39505998 32.78243699 7.79630124 32.70416898 2.1875 32.6875 C1.48416534 32.68373352 0.78083069 32.67996704 0.05618286 32.67608643 C-9.11582052 32.65121229 -17.96730728 33.26895196 -27 35 Z " fill="#B6F2EE" transform="translate(202,0)"/>
<path d="M0 0 C1.00121384 -0.00281982 2.00242767 -0.00563965 3.03398132 -0.00854492 C4.14155289 -0.00652069 5.24912445 -0.00449646 6.39025879 -0.00241089 C7.54947342 -0.00416321 8.70868805 -0.00591553 9.9030304 -0.00772095 C13.75621005 -0.0121423 17.60934425 -0.00920047 21.46252441 -0.00582886 C24.12670957 -0.00650181 26.79089332 -0.00747006 29.45507812 -0.00872803 C35.04724627 -0.01054957 40.63940123 -0.00814381 46.23156738 -0.00338745 C52.70549943 0.00205514 59.17939999 0.00029248 65.65333128 -0.00521386 C71.20236847 -0.00974542 76.75139615 -0.01039533 82.30043459 -0.00777519 C85.6187275 -0.00621265 88.93700227 -0.0064081 92.2552948 -0.00931168 C95.95264855 -0.01183653 99.64994089 -0.00799996 103.34729004 -0.00241089 C104.4548616 -0.00443512 105.56243317 -0.00645935 106.7035675 -0.00854492 C108.20538826 -0.00431519 108.20538826 -0.00431519 109.73754883 0 C110.61287514 0.00037703 111.48820145 0.00075405 112.3900528 0.0011425 C114.36877441 0.12698364 114.36877441 0.12698364 115.36877441 1.12698364 C115.46809595 2.8225709 115.49957448 4.52224112 115.50158691 6.22073364 C115.50287598 7.25069458 115.50416504 8.28065552 115.50549316 9.34182739 C115.50162598 10.42592896 115.49775879 11.51003052 115.49377441 12.62698364 C115.4976416 13.71108521 115.50150879 14.79518677 115.50549316 15.91213989 C115.5042041 16.94210083 115.50291504 17.97206177 115.50158691 19.03323364 C115.50045898 19.9852063 115.49933105 20.93717896 115.49816895 21.91799927 C115.36877441 24.12698364 115.36877441 24.12698364 114.36877441 25.12698364 C112.95759739 25.24908288 111.54056983 25.30469237 110.12438965 25.33230591 C108.77310219 25.36222374 108.77310219 25.36222374 107.39451599 25.39274597 C106.41535721 25.40945847 105.43619843 25.42617096 104.42736816 25.44338989 C102.93125755 25.47456154 102.93125755 25.47456154 101.40492249 25.50636292 C98.20544599 25.57197001 95.00588459 25.63079498 91.80627441 25.68948364 C89.64285403 25.73265826 87.47944236 25.77627219 85.31604004 25.82034302 C80.00037568 25.92766267 74.68462607 26.02940791 69.36877441 26.12698364 C69.36454247 26.78573958 69.36031054 27.44449553 69.35595036 28.12321377 C69.25278246 44.12970289 69.14416581 60.13614426 69.02943516 76.14255428 C68.97408529 83.88303534 68.92060046 91.62352101 68.87145996 99.36404419 C68.82863966 106.10828407 68.78236721 112.85248976 68.73189586 119.59667689 C68.70527749 123.16983221 68.68042408 126.74298068 68.65970039 130.31617546 C68.63653845 134.29864906 68.60567142 138.281042 68.57409668 142.26345825 C68.56834122 143.45675751 68.56258575 144.65005676 68.55665588 145.8795166 C68.54686707 146.95790298 68.53707825 148.03628937 68.5269928 149.14735413 C68.52054025 150.09034835 68.5140877 151.03334257 68.50743961 152.00491238 C68.36877441 154.12698364 68.36877441 154.12698364 67.36877441 155.12698364 C65.52718419 155.22657985 63.68180474 155.25778775 61.83752441 155.25979614 C60.7173291 155.26108521 59.59713379 155.26237427 58.44299316 155.26370239 C57.26350098 155.25983521 56.08400879 155.25596802 54.86877441 155.25198364 C53.09953613 155.25778442 53.09953613 155.25778442 51.29455566 155.26370239 C49.6142627 155.2617688 49.6142627 155.2617688 47.90002441 155.25979614 C46.8642627 155.25866821 45.82850098 155.25754028 44.76135254 155.25637817 C42.36877441 155.12698364 42.36877441 155.12698364 41.36877441 154.12698364 C41.2604872 152.46980371 41.2219194 150.80802939 41.21055603 149.14735413 C41.1958728 147.52977455 41.1958728 147.52977455 41.18089294 145.8795166 C41.17225975 144.08956772 41.17225975 144.08956772 41.16345215 142.26345825 C41.15355255 141.01485519 41.14365295 139.76625214 41.13345337 138.47981262 C41.10720196 135.04610207 41.08536632 131.61241556 41.06545138 128.17866588 C41.04363017 124.59383144 41.01622264 121.00903995 40.98939514 117.42424011 C40.93941583 110.63151434 40.89449651 103.83876481 40.85137278 97.04599243 C40.80204507 89.31452821 40.74711043 81.58310705 40.69169319 73.85168445 C40.57779275 57.94349062 40.47097136 42.03525722 40.36877441 26.12698364 C39.52646019 26.11152245 39.52646019 26.11152245 38.66712952 26.0957489 C32.84383976 25.98790679 27.02071177 25.87329157 21.19763184 25.75466919 C19.02188488 25.71124857 16.84610227 25.66957894 14.67028809 25.62966919 C11.55014273 25.57213862 8.43017809 25.50839542 5.31018066 25.44338989 C4.33102188 25.4266774 3.3518631 25.4099649 2.34303284 25.39274597 C1.44217453 25.37280075 0.54131622 25.35285553 -0.38684082 25.33230591 C-1.18404037 25.31676163 -1.98123993 25.30121735 -2.80259705 25.28520203 C-4.63122559 25.12698364 -4.63122559 25.12698364 -5.63122559 24.12698364 C-5.73054712 22.43139639 -5.76202565 20.73172617 -5.76403809 19.03323364 C-5.76597168 17.48829224 -5.76597168 17.48829224 -5.76794434 15.91213989 C-5.76407715 14.82803833 -5.76020996 13.74393677 -5.75622559 12.62698364 C-5.76009277 11.54288208 -5.76395996 10.45878052 -5.76794434 9.34182739 C-5.76665527 8.31186646 -5.76536621 7.28190552 -5.76403809 6.22073364 C-5.76291016 5.26876099 -5.76178223 4.31678833 -5.76062012 3.33596802 C-5.52407352 -0.70228412 -3.55743029 0.00153228 0 0 Z " fill="#FEFEFE" transform="translate(1035.6312255859375,124.87301635742188)"/>
<path d="M0 0 C0.81146484 -0.01998047 1.62292969 -0.03996094 2.45898438 -0.06054688 C8.41925121 -0.0556574 8.41925121 -0.0556574 11.5234375 2.32421875 C12.03132813 3.02160156 12.53921875 3.71898437 13.0625 4.4375 C14.8585527 6.83223693 16.01511249 8.26742916 19.03515625 8.7578125 C22.98026716 8.8525493 26.51081279 8.41902395 30.3125 7.375 C36.04665898 5.94146026 39.63234611 7.53658432 44.875 10 C45.85082031 10.45503906 46.82664062 10.91007812 47.83203125 11.37890625 C48.56808594 11.72824219 49.30414063 12.07757813 50.0625 12.4375 C48.81273244 16.09066671 48.39151247 17.21815836 45.0625 19.4375 C45.76123461 21.45155992 45.76123461 21.45155992 47.0625 23.4375 C49.03225997 24.28042516 49.03225997 24.28042516 51.3125 24.5625 C55.03637893 25.23628746 58.4906907 26.15531204 62.0625 27.4375 C62.0625 30.4075 62.0625 33.3775 62.0625 36.4375 C60.33568563 36.94556447 58.60592021 37.44360467 56.875 37.9375 C55.91207031 38.2159375 54.94914062 38.494375 53.95703125 38.78125 C51.20904124 39.40427608 48.86651584 39.56052812 46.0625 39.4375 C45.10747842 41.16226911 45.10747842 41.16226911 45.0625 43.4375 C47.41676499 46.20872275 47.41676499 46.20872275 50.0625 48.4375 C48.82550821 52.14847537 47.90163266 52.39562034 44.5 54.125 C36.91829448 57.69539182 31.37631727 56.62933959 23.40625 54.8828125 C20.59396504 54.34847836 17.91714783 54.28725538 15.0625 54.4375 C14.77375 55.200625 14.485 55.96375 14.1875 56.75 C13.0625 59.4375 13.0625 59.4375 11.0625 62.4375 C7.64951902 63.14870372 4.16589248 62.99304322 0.6875 63 C-0.2715625 63.03673828 -1.230625 63.07347656 -2.21875 63.11132812 C-4.92779326 63.12830681 -7.30127198 63.06829947 -9.9375 62.4375 C-12.4140625 59.46484375 -12.4140625 59.46484375 -13.9375 56.4375 C-19.76063512 54.49645496 -26.01055926 55.1559993 -31.9375 56.4375 C-38.71494607 57.2348466 -43.19749669 54.67130468 -48.9375 51.4375 C-48.9375 50.4475 -48.9375 49.4575 -48.9375 48.4375 C-48.256875 47.798125 -47.57625 47.15875 -46.875 46.5 C-46.235625 45.819375 -45.59625 45.13875 -44.9375 44.4375 C-45.26044477 42.327139 -45.26044477 42.327139 -45.9375 40.4375 C-46.92492187 40.25574219 -47.91234375 40.07398438 -48.9296875 39.88671875 C-50.85167969 39.50966797 -50.85167969 39.50966797 -52.8125 39.125 C-54.08867187 38.88136719 -55.36484375 38.63773438 -56.6796875 38.38671875 C-59.9375 37.4375 -59.9375 37.4375 -61.9375 34.4375 C-62.01655064 32.10550612 -62.02548769 29.76917378 -61.9375 27.4375 C-56.64737333 25.86171759 -51.33545989 24.58808556 -45.9375 23.4375 C-45.2560177 21.54570797 -45.2560177 21.54570797 -44.9375 19.4375 C-45.5975 18.7775 -46.2575 18.1175 -46.9375 17.4375 C-47.5975 16.7775 -48.2575 16.1175 -48.9375 15.4375 C-48.87109375 13.4921875 -48.87109375 13.4921875 -47.9375 11.4375 C-44.00099459 8.59407141 -39.36842968 6.31195903 -34.44140625 6.56640625 C-32.83157528 6.94441254 -31.23071273 7.36246185 -29.640625 7.81640625 C-24.49585282 8.99851431 -19.18715728 8.58560945 -13.9375 8.4375 C-13.669375 7.674375 -13.40125 6.91125 -13.125 6.125 C-10.23534652 -0.41474209 -6.50316848 -0.05654929 0 0 Z " fill="#F6FAFC" transform="translate(203.9375,44.5625)"/>
<path d="M0 0 C0.37307465 5.5310708 0.64384723 11.05474091 0.82397461 16.59545898 C0.89906637 18.47533692 1.00119783 20.35434816 1.1315918 22.23120117 C2.15745361 37.38579515 2.15745361 37.38579515 -1.40487671 41.70230103 C-4.92400062 44.60010314 -8.8330529 46.42924531 -13.03031921 48.14045715 C-16.27862705 49.55797607 -19.18190861 51.43871022 -22.1875 53.3125 C-37.58463542 62.55078125 -52.98177083 71.7890625 -68.37890625 81.02734375 C-68.94875244 81.36926758 -69.51859863 81.71119141 -70.10571289 82.06347656 C-71.29624803 82.77776479 -72.48684154 83.49195575 -73.67749023 84.20605469 C-77.75516699 86.65193342 -81.83111731 89.10066583 -85.90625 91.55078125 C-104.70795006 102.84961055 -104.70795006 102.84961055 -114.0625 108.3125 C-120.11263152 111.84766068 -126.06431788 115.51854688 -131.99145508 119.25561523 C-137.38687659 122.64568223 -142.85742411 125.89278994 -148.35888672 129.10717773 C-153.97078545 132.38747982 -159.55316111 135.71463215 -165.125 139.0625 C-165.96329346 139.56555664 -166.80158691 140.06861328 -167.6652832 140.58691406 C-171.59173938 142.94485614 -175.51361736 145.30982015 -179.42578125 147.69140625 C-180.10688965 148.10447021 -180.78799805 148.51753418 -181.48974609 148.94311523 C-182.74330913 149.70376937 -183.99508964 150.467373 -185.24462891 151.23461914 C-188.40907286 153.15167387 -191.52027087 154.73819168 -195 156 C-190.86025157 151.68097113 -186.38238973 147.90470206 -181.75 144.125 C-181.03714844 143.53847656 -180.32429687 142.95195312 -179.58984375 142.34765625 C-178.87441406 141.76113281 -178.15898437 141.17460937 -177.421875 140.5703125 C-176.70717041 139.97283203 -175.99246582 139.37535156 -175.25610352 138.75976562 C-173 137 -173 137 -170.44506836 135.44335938 C-167.85620798 133.79224232 -165.92536429 132.39876888 -164 130 C-163.21587172 125.6981332 -163.69194338 121.58545105 -164.0625 117.25 C-164.43282413 105.89286809 -164.43282413 105.89286809 -161.27392578 101.71972656 C-156.05798095 97.30561355 -148.98519456 93 -142 93 C-142 99.27 -142 105.54 -142 112 C-135.16186996 108.44905441 -135.16186996 108.44905441 -130 103 C-129.48586157 99.86703732 -129.7644757 96.8424734 -130 93.6875 C-130.21194746 90.21427465 -130.21801547 87.28779982 -129 84 C-123.66778118 78.40224312 -116.07214469 74.92618916 -109 72 C-108.67 72 -108.34 72 -108 72 C-108 76.29 -108 80.58 -108 85 C-106.84371094 84.02546875 -106.84371094 84.02546875 -105.6640625 83.03125 C-104.66117187 82.1959375 -103.65828125 81.360625 -102.625 80.5 C-101.62726563 79.6646875 -100.62953125 78.829375 -99.6015625 77.96875 C-97 76 -97 76 -95 76 C-95.22042969 75.26136719 -95.44085938 74.52273438 -95.66796875 73.76171875 C-96.32874454 69.85171466 -96.38613547 67.76113393 -95 64 C-90.13750005 59.62724825 -80.7351224 53 -74 53 C-73.505 54.98 -73.505 54.98 -73 57 C-71.36493227 55.78425776 -69.7422814 54.55180487 -68.125 53.3125 C-66.76761719 52.28576172 -66.76761719 52.28576172 -65.3828125 51.23828125 C-62.85579738 49.21619276 -62.85579738 49.21619276 -62.15625 46.51171875 C-60.35534438 42.59961635 -57.08317327 41.4499947 -53.375 39.5 C-44.77343614 34.71445577 -37.44377298 28.99130311 -29.95410156 22.64355469 C-26.76224157 19.95894681 -23.50885384 17.3525685 -20.25 14.75 C-19.63737305 14.25999512 -19.02474609 13.76999023 -18.39355469 13.26513672 C-1.74413603 0 -1.74413603 0 0 0 Z " fill="#4891DA" transform="translate(408,238)"/>
<path d="M0 0 C4.29161047 -0.05783842 8.58312145 -0.0935412 12.875 -0.125 C14.09832031 -0.14175781 15.32164062 -0.15851563 16.58203125 -0.17578125 C17.74863281 -0.18222656 18.91523437 -0.18867187 20.1171875 -0.1953125 C21.19597168 -0.20578613 22.27475586 -0.21625977 23.38623047 -0.22705078 C26 0 26 0 28 2 C28.25168228 4.59873199 28.25168228 4.59873199 28.25396729 7.95959473 C28.25960693 9.229991 28.26524658 10.50038727 28.27105713 11.8092804 C28.26716816 13.2250677 28.2630718 14.64085445 28.25878906 16.05664062 C28.26149785 17.54135815 28.26505815 19.02607434 28.26940918 20.51078796 C28.27854886 24.54996454 28.27498246 28.58903927 28.26865101 32.6282177 C28.26359916 36.84870561 28.26828018 41.06918461 28.27142334 45.28967285 C28.27506537 52.37818981 28.27025769 59.46666514 28.26074219 66.55517578 C28.24985717 74.75880536 28.25338259 82.96233553 28.264395 91.1659627 C28.27346114 98.20037962 28.27475646 105.23476657 28.26951766 112.26918745 C28.26639424 116.47450357 28.26599877 120.67977292 28.27259064 124.88508606 C28.27835371 128.83802269 28.27438638 132.79083074 28.26280212 136.74375343 C28.26014995 138.19743956 28.26093008 139.65113645 28.26532745 141.10481834 C28.27076218 143.08334348 28.26275046 145.06189217 28.25396729 147.04040527 C28.25321323 148.14948997 28.25245918 149.25857468 28.25168228 150.40126801 C28 153 28 153 26 155 C23.49389648 155.24291992 23.49389648 155.24291992 20.37109375 155.23046875 C19.25412109 155.22853516 18.13714844 155.22660156 16.98632812 155.22460938 C15.81521484 155.21236328 14.64410156 155.20011719 13.4375 155.1875 C12.26251953 155.18685547 11.08753906 155.18621094 9.87695312 155.18554688 C1.14012141 155.14012141 1.14012141 155.14012141 0 154 C-0.096708 152.01305149 -0.12187052 150.02260987 -0.12025452 148.03330994 C-0.12162918 146.73615555 -0.12300385 145.43900116 -0.12442017 144.10253906 C-0.12088055 142.6516111 -0.11724573 141.20068337 -0.11352539 139.74975586 C-0.11324353 138.23238629 -0.11340123 136.71501658 -0.1139679 135.19764709 C-0.11425591 131.06559484 -0.10835858 126.93357137 -0.10139394 122.80152583 C-0.09516102 118.48801108 -0.09455665 114.17449573 -0.09336853 109.86097717 C-0.09025503 101.68699883 -0.08204139 93.51303379 -0.07201904 85.33906132 C-0.06085848 76.03571031 -0.0553476 66.73235868 -0.05032361 57.42900264 C-0.03985879 38.28599421 -0.02225899 19.14299817 0 0 Z " fill="#FEFBFD" transform="translate(971,125)"/>
<path d="M0 0 C13.449232 -1.10597745 21.8291398 -0.31897463 32.81884766 7.51513672 C37.19882998 10.49689769 41.84529492 13.0500874 46.4375 15.6875 C48.51110547 16.89334755 50.58401343 18.10039528 52.65625 19.30859375 C53.70167969 19.91687012 54.74710938 20.52514648 55.82421875 21.15185547 C60.01083029 23.58825225 64.19599879 26.02711442 68.38012695 28.46777344 C70.40112962 29.6458713 72.42308699 30.82233308 74.44604492 31.99707031 C79.03931436 34.66799262 83.6139674 37.36054721 88.14453125 40.13671875 C88.92836182 40.61270508 89.71219238 41.08869141 90.51977539 41.57910156 C91.96159505 42.45729364 93.39747708 43.34534279 94.82592773 44.24511719 C98.16616224 46.4335792 98.16616224 46.4335792 101.99291992 46.70751953 C105.3815112 45.51300092 108.44353287 43.69801619 111.5625 41.9375 C112.33916016 41.50268311 113.11582031 41.06786621 113.91601562 40.61987305 C122.16782843 35.96506565 130.30278963 31.11203989 138.44091797 26.26220703 C147.71721276 20.73745322 157.05320183 15.32343243 166.42382812 9.96020508 C167.43251953 9.38165771 168.44121094 8.80311035 169.48046875 8.20703125 C170.43679199 7.66344971 171.39311523 7.11986816 172.37841797 6.55981445 C174.7113325 5.17175421 176.87403705 3.66767493 179.08203125 2.09375 C183.69949452 -0.83022629 188.18499509 -0.56357218 193.5 -0.3125 C194.4178125 -0.28994141 195.335625 -0.26738281 196.28125 -0.24414062 C198.52259364 -0.1857723 200.76038827 -0.10398197 203 0 C199.89618418 3.40688202 196.48185857 5.70155702 192.5234375 7.984375 C191.88991364 8.3566925 191.25638977 8.72901001 190.60366821 9.11260986 C189.24118279 9.91275276 187.87714632 10.71025931 186.51171875 11.50537109 C182.86215793 13.63122359 179.22450099 15.77727196 175.5859375 17.921875 C174.85155457 18.35415405 174.11717163 18.78643311 173.36053467 19.23181152 C166.85320153 23.0693256 160.41818122 27.01496787 154 31 C142.61818568 38.05798652 131.11947309 44.90725245 119.58203125 51.70703125 C118.92237366 52.09654968 118.26271606 52.48606812 117.58306885 52.88739014 C116.35459978 53.61259215 115.1252971 54.33638492 113.8949585 55.05841064 C111.11145696 56.70199532 108.49199069 58.3782504 105.89550781 60.31152344 C103 62 103 62 100.37231445 61.89208984 C98.04819479 61.01812326 96.1287176 60.06948794 94.04296875 58.7265625 C93.27702393 58.24147217 92.5110791 57.75638184 91.72192383 57.2565918 C90.88556396 56.7181665 90.0492041 56.17974121 89.1875 55.625 C79.98915823 49.81357115 70.68217752 44.21575443 61.3125 38.6875 C50.13576297 32.08603351 39.03896449 25.37600751 28.01147461 18.52758789 C20.58404407 13.92915099 13.07328098 9.50318534 5.43041992 5.27148438 C3.58912554 4.23445949 1.78886918 3.12504785 0 2 C0 1.34 0 0.68 0 0 Z " fill="#0A3372" transform="translate(103,236)"/>
<path d="M0 0 C2.52129898 2.5919236 3.47304886 5.04217268 3.70703125 8.55859375 C3.39069257 12.81699901 2.00891384 15.33616334 -0.85546875 18.55859375 C-14.1824425 29.14797244 -31.73129308 28.5368666 -47.85546875 27.55859375 C-57.5788806 26.2940773 -64.97944443 21.90730396 -71.41796875 14.68359375 C-72.89729865 11.46765918 -73.45438737 9.16389591 -72.7734375 5.64453125 C-70.38907517 0.22644835 -65.33878204 -3.22317709 -60.1640625 -5.76171875 C-57.41822677 -6.81630715 -54.69408073 -7.67312096 -51.85546875 -8.44140625 C-50.65277344 -8.77785156 -50.65277344 -8.77785156 -49.42578125 -9.12109375 C-33.00141004 -13.05217276 -13.55318676 -10.52868613 0 0 Z " fill="#3598D4" transform="translate(238.85546875,67.44140625)"/>
<path d="M0 0 C1.32 0 2.64 0 4 0 C4 0.99 4 1.98 4 3 C5.65 3 7.3 3 9 3 C9 2.01 9 1.02 9 0 C10.32 0 11.64 0 13 0 C13 1.32 13 2.64 13 4 C13.7425 4.103125 14.485 4.20625 15.25 4.3125 C18.1973519 5.04933797 19.78383074 5.94799142 22 8 C22 8.66 22 9.32 22 10 C18.85375007 10.26218749 17.38162983 10.24754367 14.6875 8.5 C14.130625 8.005 13.57375 7.51 13 7 C13 9.31 13 11.62 13 14 C14.98567708 14.1953125 16.97135417 14.390625 18.95703125 14.5859375 C21 15 21 15 24 17 C23.9375 19.3125 23.9375 19.3125 23 22 C19.49851158 23.88042897 16.9919694 25 13 25 C13 26.32 13 27.64 13 29 C11.68 29 10.36 29 9 29 C9 28.01 9 27.02 9 26 C7.35 26 5.7 26 4 26 C4 26.99 4 27.98 4 29 C2.68 29 1.36 29 0 29 C0 27.68 0 26.36 0 25 C-0.886875 24.938125 -1.77375 24.87625 -2.6875 24.8125 C-6.74081992 23.81828945 -8.29831749 22.09898876 -11 19 C-9.35 18.67 -7.7 18.34 -6 18 C-5.34 18.99 -4.68 19.98 -4 21 C-1.94074861 21.72382467 -1.94074861 21.72382467 0 22 C0 19.69 0 17.38 0 15 C-0.928125 14.87625 -1.85625 14.7525 -2.8125 14.625 C-6 14 -6 14 -9 12 C-9.5 9.5625 -9.5 9.5625 -9 7 C-5.72821183 4.36439287 -4.27931853 4 0 4 C0 2.68 0 1.36 0 0 Z " fill="#D4E8F5" transform="translate(198,62)"/>
<path d="M0 0 C1.16413503 8.18664997 2.40772725 16.96280854 0 25 C-4.64153363 30.73358645 -12.07368691 33.84592864 -19 36 C-19.66 36 -20.32 36 -21 36 C-22.24000882 28.13643635 -23.48387425 19.70245417 -21 12 C-16.83487853 7.04823783 -6.82182139 0 0 0 Z " fill="#B1D7F7" transform="translate(300,310)"/>
<path d="M0 0 C2.00737751 0.64411179 4.00541909 1.3172911 6 2 C6.62745117 2.2052832 7.25490234 2.41056641 7.90136719 2.62207031 C12.94088356 4.41206247 17.87921465 6.48998326 21 11 C22.92095319 18.7866475 21.91112273 27.11388232 21 35 C18.99262249 34.35588821 16.99458091 33.6827089 15 33 C14.37254883 32.7947168 13.74509766 32.58943359 13.09863281 32.37792969 C8.05911644 30.58793753 3.12078535 28.51001674 0 24 C-1.92095319 16.2133525 -0.91112273 7.88611768 0 0 Z " fill="#B0D6F6" transform="translate(177,351)"/>
<path d="M0 0 C2.00737751 0.64411179 4.00541909 1.3172911 6 2 C6.62745117 2.2052832 7.25490234 2.41056641 7.90136719 2.62207031 C12.94088356 4.41206247 17.87921465 6.48998326 21 11 C22.92095319 18.7866475 21.91112273 27.11388232 21 35 C18.99262249 34.35588821 16.99458091 33.6827089 15 33 C14.37254883 32.7947168 13.74509766 32.58943359 13.09863281 32.37792969 C8.05911644 30.58793753 3.12078535 28.51001674 0 24 C-1.92095319 16.2133525 -0.91112273 7.88611768 0 0 Z " fill="#B0D6F6" transform="translate(143,331)"/>
<path d="M0 0 C0.99 0 1.98 0 3 0 C4.10849599 7.87221641 5.25784575 16.2623797 3 24 C-1.30952422 29.55866168 -8.38124927 32.91131914 -15 35 C-15.99 35 -16.98 35 -18 35 C-20.16104862 18.62296725 -20.16104862 18.62296725 -18 11 C-14.15829749 6.11272775 -8.38488842 3.758593 -2.67407227 1.65063477 C-0.99197506 1.12628353 -0.99197506 1.12628353 0 0 Z " fill="#B1D8F8" transform="translate(365,271)"/>
<path d="M0 0 C1.1681429 7.85918975 2.3878337 16.29220364 0 24 C-4.68386041 29.6648128 -12.10739021 32.80092113 -19 35 C-19.66 35 -20.32 35 -21 35 C-22.10849599 27.12778359 -23.25784575 18.7376203 -21 11 C-16.46750362 5.15373656 -7.49563828 0 0 0 Z " fill="#B1D6F6" transform="translate(232,351)"/>
<path d="M0 0 C3.13236146 1.20347373 6.07245926 2.50465161 8.98828125 4.1640625 C9.62548096 4.5245166 10.26268066 4.8849707 10.91918945 5.25634766 C11.70898193 5.70800293 12.49877441 6.1596582 13.3125 6.625 C15.849375 8.06875 18.38625 9.5125 21 11 C21 18.92 21 26.84 21 35 C13.4389206 33.10973015 4.89890508 30.4200263 0 24 C-2.1594221 16.25526543 -1.0384726 7.86983669 0 0 Z " fill="#B0D6F6" transform="translate(109,311)"/>
<path d="M0 0 C1.1681429 7.85918975 2.3878337 16.29220364 0 24 C-4.68386041 29.6648128 -12.10739021 32.80092113 -19 35 C-19.66 35 -20.32 35 -21 35 C-22.1681429 27.14081025 -23.3878337 18.70779636 -21 11 C-16.56304266 5.63379979 -7.17285783 0 0 0 Z " fill="#B1D7F7" transform="translate(334,291)"/>
<path d="M0 0 C2.70003222 20.46160162 2.70003222 20.46160162 -1.60400391 26.10205078 C-7.19653581 30.71498629 -13.9997267 33.3538573 -21 35 C-22.1681429 27.14081025 -23.3878337 18.70779636 -21 11 C-16.56304266 5.63379979 -7.17285783 0 0 0 Z " fill="#B2D8F9" transform="translate(402,251)"/>
<path d="M0 0 C2.95700688 1.14196186 5.76693259 2.33073744 8.515625 3.91015625 C9.43214844 4.43512695 9.43214844 4.43512695 10.3671875 4.97070312 C10.98851562 5.33099609 11.60984375 5.69128906 12.25 6.0625 C12.88679688 6.42666016 13.52359375 6.79082031 14.1796875 7.16601562 C18.85925752 9.85925752 18.85925752 9.85925752 20 11 C20.08726223 12.78071246 20.10699041 14.5648314 20.09765625 16.34765625 C20.09443359 17.42724609 20.09121094 18.50683594 20.08789062 19.61914062 C20.07951172 20.75544922 20.07113281 21.89175781 20.0625 23.0625 C20.05798828 24.20267578 20.05347656 25.34285156 20.04882812 26.51757812 C20.03699747 29.34510351 20.0205141 32.1725264 20 35 C17.04299312 33.85803814 14.23306741 32.66926256 11.484375 31.08984375 C10.87335937 30.73986328 10.26234375 30.38988281 9.6328125 30.02929688 C9.01148438 29.66900391 8.39015625 29.30871094 7.75 28.9375 C7.11320313 28.57333984 6.47640625 28.20917969 5.8203125 27.83398438 C1.14074248 25.14074248 1.14074248 25.14074248 0 24 C-0.08726223 22.21928754 -0.10699041 20.4351686 -0.09765625 18.65234375 C-0.09443359 17.57275391 -0.09121094 16.49316406 -0.08789062 15.38085938 C-0.07951172 14.24455078 -0.07113281 13.10824219 -0.0625 11.9375 C-0.05798828 10.79732422 -0.05347656 9.65714844 -0.04882812 8.48242188 C-0.03699747 5.65489649 -0.0205141 2.8274736 0 0 Z " fill="#B3D8F8" transform="translate(7,251)"/>
<path d="M0 0 C2.95700688 1.14196186 5.76693259 2.33073744 8.515625 3.91015625 C9.43214844 4.43512695 9.43214844 4.43512695 10.3671875 4.97070312 C10.98851562 5.33099609 11.60984375 5.69128906 12.25 6.0625 C12.88679688 6.42666016 13.52359375 6.79082031 14.1796875 7.16601562 C18.85925752 9.85925752 18.85925752 9.85925752 20 11 C20.08726223 12.78071246 20.10699041 14.5648314 20.09765625 16.34765625 C20.09443359 17.42724609 20.09121094 18.50683594 20.08789062 19.61914062 C20.07951172 20.75544922 20.07113281 21.89175781 20.0625 23.0625 C20.05798828 24.20267578 20.05347656 25.34285156 20.04882812 26.51757812 C20.03699747 29.34510351 20.0205141 32.1725264 20 35 C19.25274658 34.69723145 18.50549316 34.39446289 17.7355957 34.08251953 C15.58619479 33.23196677 13.41208884 32.44381972 11.23046875 31.6796875 C6.81414874 29.83413344 2.80719515 28.00985665 0 24 C-1.93187053 16.21908316 -0.91069837 7.88244463 0 0 Z " fill="#B3D9F8" transform="translate(41,271)"/>
<path d="M0 0 C0.26260373 3.70697705 0.42156838 7.41156358 0.5625 11.125 C0.63791016 12.17171875 0.71332031 13.2184375 0.79101562 14.296875 C1.00847571 21.93214023 1.00847571 21.93214023 -1.86987305 24.97998047 C-4.18286806 26.53315913 -6.48977867 27.79626814 -9 29 C-9.91652344 29.55429687 -10.83304688 30.10859375 -11.77734375 30.6796875 C-12.49019531 31.07414062 -13.20304688 31.46859375 -13.9375 31.875 C-14.66839844 32.28492188 -15.39929688 32.69484375 -16.15234375 33.1171875 C-18 34 -18 34 -20 34 C-22.7009706 13.53128706 -22.7009706 13.53128706 -18.37988281 7.88183594 C-13.3388039 3.71559576 -6.64699818 0 0 0 Z " fill="#B3D9F8" transform="translate(265,332)"/>
<path d="M0 0 C2.95700688 1.14196186 5.76693259 2.33073744 8.515625 3.91015625 C9.43214844 4.43512695 9.43214844 4.43512695 10.3671875 4.97070312 C10.98851563 5.33099609 11.60984375 5.69128906 12.25 6.0625 C12.88679688 6.42666016 13.52359375 6.79082031 14.1796875 7.16601562 C18.85925752 9.85925752 18.85925752 9.85925752 20 11 C20.08726223 12.78071246 20.10699041 14.5648314 20.09765625 16.34765625 C20.09443359 17.42724609 20.09121094 18.50683594 20.08789062 19.61914062 C20.07951172 20.75544922 20.07113281 21.89175781 20.0625 23.0625 C20.05798828 24.20267578 20.05347656 25.34285156 20.04882812 26.51757812 C20.03699747 29.34510351 20.0205141 32.1725264 20 35 C17.78904188 33.92177933 15.58132694 32.83762596 13.375 31.75 C12.75753906 31.44964844 12.14007813 31.14929688 11.50390625 30.83984375 C10.26163963 30.22524868 9.02884666 29.59114191 7.80615234 28.93847656 C6.09951747 28.05170926 4.33109256 27.28692137 2.5625 26.53125 C-0.51669333 23.48960781 -0.42241761 22.56283738 -0.5859375 18.359375 C-0.54610822 16.15548815 -0.47462619 13.95199415 -0.375 11.75 C-0.34792969 10.62335938 -0.32085937 9.49671875 -0.29296875 8.3359375 C-0.22227604 5.55535763 -0.1236504 2.77864641 0 0 Z " fill="#B3D9F8" transform="translate(75,291)"/>
<path d="M0 0 C0.99 0 1.98 0 3 0 C3 1.32 3 2.64 3 4 C4.32 4.33 5.64 4.66 7 5 C6.01 5 5.02 5 4 5 C4 7.64 4 10.28 4 13 C6.475 13.495 6.475 13.495 9 14 C9 14.33 9 14.66 9 15 C7.02 15 5.04 15 3 15 C3.144375 16.27875 3.28875 17.5575 3.4375 18.875 C3.51871094 19.59429687 3.59992188 20.31359375 3.68359375 21.0546875 C3.91292961 23.07404316 3.91292961 23.07404316 5 25 C4.34 25 3.68 25 3 25 C3 26.32 3 27.64 3 29 C2.01 29 1.02 29 0 29 C0 27.68 0 26.36 0 25 C-0.886875 24.938125 -1.77375 24.87625 -2.6875 24.8125 C-6.74081992 23.81828945 -8.29831749 22.09898876 -11 19 C-9.35 18.67 -7.7 18.34 -6 18 C-5.34 18.99 -4.68 19.98 -4 21 C-1.94074861 21.72382467 -1.94074861 21.72382467 0 22 C0 19.69 0 17.38 0 15 C-0.928125 14.87625 -1.85625 14.7525 -2.8125 14.625 C-6 14 -6 14 -9 12 C-9.5 9.5625 -9.5 9.5625 -9 7 C-5.72821183 4.36439287 -4.27931853 4 0 4 C0 2.68 0 1.36 0 0 Z " fill="#F0F7FB" transform="translate(198,62)"/>
<path d="M0 0 C1.75 0.75 1.75 0.75 2.75 1.75 C2.82319621 4.44654854 2.84242537 7.11691458 2.8125 9.8125 C2.80798828 10.57111328 2.80347656 11.32972656 2.79882812 12.11132812 C2.7870068 13.99091871 2.76907078 15.87046899 2.75 17.75 C2.42 17.75 2.09 17.75 1.75 17.75 C1.75 15.44 1.75 13.13 1.75 10.75 C0.821875 10.62625 -0.10625 10.5025 -1.0625 10.375 C-4.25 9.75 -4.25 9.75 -7.25 7.75 C-7.75 5.3125 -7.75 5.3125 -7.25 2.75 C-4.74017696 0.6584808 -3.30372325 -0.36708036 0 0 Z " fill="#E1EFF8" transform="translate(196.25,66.25)"/>
<path d="M0 0 C1.258125 0.12375 2.51625 0.2475 3.8125 0.375 C4.87404297 0.47941406 4.87404297 0.47941406 5.95703125 0.5859375 C8 1 8 1 11 3 C10.6875 5.375 10.6875 5.375 10 8 C7 10 7 10 4.3125 9.625 C3.549375 9.41875 2.78625 9.2125 2 9 C2.66 8.34 3.32 7.68 4 7 C4 6.01 4 5.02 4 4 C2.68 3.34 1.36 2.68 0 2 C0 1.34 0 0.68 0 0 Z " fill="#E9F3FA" transform="translate(211,76)"/>
<path d="M0 0 C2.5 0.3125 2.5 0.3125 5 1 C5.33 1.66 5.66 2.32 6 3 C8.01669827 4.13350534 8.01669827 4.13350534 10 5 C10 5.66 10 6.32 10 7 C4.64951939 6.62671065 2.49087093 5.0042343 -1 1 C-0.67 0.67 -0.34 0.34 0 0 Z " fill="#DFEEF7" transform="translate(188,80)"/>
<path d="M0 0 C1.65 0 3.3 0 5 0 C5 2.31 5 4.62 5 7 C3.35 7 1.7 7 0 7 C0 4.69 0 2.38 0 0 Z " fill="#3397D3" transform="translate(202,78)"/>
<path d="M0 0 C1.65 0 3.3 0 5 0 C5 2.31 5 4.62 5 7 C3.35 7 1.7 7 0 7 C0 4.69 0 2.38 0 0 Z " fill="#3B9BD5" transform="translate(202,68)"/>
<path d="M0 0 C3.78786597 0.5260925 6.17152224 1.38103911 9 4 C9 4.66 9 5.32 9 6 C6.75 6.25 6.75 6.25 4 6 C1.6875 4.125 1.6875 4.125 0 2 C0 1.34 0 0.68 0 0 Z " fill="#E0EFF7" transform="translate(211,66)"/>
<path d="M0 0 C2.475 0.495 2.475 0.495 5 1 C4.67 2.32 4.34 3.64 4 5 C2.68 5 1.36 5 0 5 C0 3.35 0 1.7 0 0 Z " fill="#399AD4" transform="translate(211,79)"/>
<path d="M0 0 C0.66 0.33 1.32 0.66 2 1 C2 1.66 2 2.32 2 3 C-3.2734375 6.22265625 -3.2734375 6.22265625 -5 7 C-5.66 6.67 -6.32 6.34 -7 6 C-4.69 4.02 -2.38 2.04 0 0 Z " fill="#4489D3" transform="translate(220,387)"/>
<path d="M0 0 C0.99 0 1.98 0 3 0 C3 1.65 3 3.3 3 5 C1.68 4.67 0.36 4.34 -1 4 C-0.67 2.68 -0.34 1.36 0 0 Z " fill="#48A1D7" transform="translate(195,69)"/>
</svg>
