<?xml version="1.0" encoding="UTF-8"?>
<svg version="1.1" xmlns="http://www.w3.org/2000/svg" width="1640" height="400">
<path d="M0 0 C0.74619966 0.00910725 1.49239932 0.0182145 2.2612111 0.02759773 C3.0600661 0.01768107 3.8589211 0.00776442 4.68198383 -0.00245273 C7.36225726 -0.02944858 10.04120637 -0.02064139 12.72158402 -0.01187676 C14.64183978 -0.02356187 16.56208382 -0.03733044 18.48231095 -0.05302972 C23.70149954 -0.08868934 28.92024444 -0.09214121 34.13953584 -0.0877189 C38.4958959 -0.08653062 42.85216321 -0.09996891 47.20849979 -0.11310184 C57.48701549 -0.14345168 67.76530444 -0.1467442 78.04384965 -0.13394707 C88.64713821 -0.12126955 99.24951614 -0.15642697 109.85263109 -0.21483088 C118.95513687 -0.26314086 128.05735087 -0.28050549 137.15998161 -0.27335632 C142.59696559 -0.26947468 148.03326422 -0.27760628 153.47012872 -0.31596345 C158.58494454 -0.35079753 163.69830434 -0.34700097 168.81311578 -0.31362504 C170.68881718 -0.30784662 172.5646181 -0.31568446 174.44019288 -0.33823174 C188.63754414 -0.4969144 188.63754414 -0.4969144 192.91607827 2.38902694 C194.66194261 4.3998117 196.02201555 6.40198571 197.38637894 8.68270332 C200.80113401 12.10911038 203.0279155 13.1397098 207.90291947 13.22162849 C208.60644547 13.21345603 209.30997147 13.20528358 210.03481644 13.19686347 C211.1650322 13.20755111 211.1650322 13.20755111 212.3180806 13.21845466 C214.79944887 13.23769484 217.27996112 13.22946409 219.76137894 13.22176582 C221.49104653 13.23167501 223.22070355 13.2436171 224.95034379 13.2575019 C229.49897346 13.28985089 234.04736237 13.30025472 238.59609574 13.30434638 C245.87634705 13.31310511 253.15640068 13.34863957 260.43648881 13.39652091 C262.97633864 13.40909238 265.51593793 13.40834921 268.05581254 13.40624458 C269.61652412 13.41282646 271.177234 13.41983303 272.73794144 13.42733222 C273.44146744 13.42320823 274.14499345 13.41908424 274.86983842 13.41483527 C280.7115564 13.46277334 284.33977095 14.35524936 288.48857087 18.49345046 C292.68547245 23.53843272 292.22044765 28.82724567 292.1482808 35.13228828 C292.15764074 36.38698087 292.16700069 37.64167345 292.17664427 38.93438703 C292.20163872 42.40567025 292.18933756 45.8759609 292.17072695 49.34724718 C292.15713517 53.09514526 292.17811357 56.84287425 292.19460648 60.59073859 C292.22127455 67.92826169 292.21552901 75.26541637 292.19813064 82.60295385 C292.18457559 88.56671679 292.18274465 94.53037654 292.18927354 100.49415046 C292.19019293 101.34321687 292.19111233 102.19228328 292.19205959 103.06707898 C292.19397796 104.79198715 292.19592324 106.51689529 292.19789514 108.24180341 C292.21500096 124.41309052 292.19533793 140.58417349 292.16309294 156.75542712 C292.13628661 170.62858625 292.14094286 184.50144415 292.16860551 198.37459785 C292.20072081 214.48833533 292.21335304 230.60189394 292.19493192 246.71565896 C292.19302065 248.43419134 292.19113442 250.15272374 292.18927354 251.87125617 C292.18834788 252.71678813 292.18742223 253.56232008 292.18646853 254.43347421 C292.18128981 260.38949366 292.19002831 266.34539957 292.20415086 272.30140144 C292.22098552 279.5607162 292.21641165 286.81964174 292.18446639 294.07891196 C292.16870616 297.78223294 292.16250672 301.48490522 292.1823613 305.18822128 C292.20356403 309.20375073 292.17823603 313.21764501 292.1482808 317.23311836 C292.16166513 318.40247475 292.17504946 319.57183115 292.18883938 320.77662259 C292.09635237 327.15477067 291.46447856 330.90355926 286.86740583 335.49147779 C283.76569541 337.98625804 281.39822787 337.81792773 277.4892537 337.8409217 C275.60456628 337.85560493 275.60456628 337.85560493 273.68180436 337.87058479 C272.28173455 337.87648936 270.88166434 337.88229978 269.48159379 337.88802558 C268.01333433 337.89760151 266.54507765 337.90761142 265.07682389 337.91802436 C261.08328574 337.94511045 257.08973573 337.96609992 253.0961563 337.98602635 C248.92542919 338.0078631 244.7547388 338.03526307 240.5840413 338.06208259 C232.68282567 338.11204079 224.78158969 338.15696799 216.8803342 338.20010495 C207.88648068 338.24945063 198.892664 338.30437864 189.89884609 338.35978454 C171.39472456 338.47365259 152.89056829 338.5804811 134.38637894 338.68270332 C134.5294514 340.12360698 134.67735598 341.56403139 134.82729691 343.00423652 C134.90914231 343.80642112 134.99098771 344.60860572 135.07531327 345.43509895 C136.00776912 352.17255669 139.90632847 358.24551226 145.27700394 362.31942207 C153.38780691 367.56140399 161.59860704 370.62521941 170.97939652 372.68294746 C177.34919987 374.21499681 182.02752472 377.19961475 185.74282426 382.685633 C188.47705553 387.42052131 189.01687848 391.27842158 188.38637894 396.68270332 C187.32165116 398.88533241 187.32165116 398.88533241 185.38637894 400.68270332 C182.78092679 401.08431236 180.5921644 401.22327452 177.98452348 401.19063789 C176.8445425 401.19999783 176.8445425 401.19999783 175.68153161 401.20954686 C173.12710549 401.22554098 170.57362516 401.21284814 168.01919144 401.20028144 C166.1911218 401.20569973 164.36305652 401.21282073 162.53499955 401.22152168 C157.5639515 401.23979289 152.59323465 401.23267186 147.62218064 401.22000533 C142.42654607 401.20989731 137.23094037 401.21926489 132.03530473 401.22555 C123.30917857 401.23283282 114.5831877 401.22322205 105.85708207 401.20418769 C95.76010708 401.18241776 85.66345513 401.18946868 75.56648797 401.21149331 C66.90655149 401.22962923 58.24671241 401.23221449 49.58676308 401.22173864 C44.41055983 401.21549375 39.23450855 401.21469536 34.05831498 401.22788459 C29.19255249 401.23941618 24.32720758 401.23146676 19.46149033 401.20830756 C17.67281637 401.20300604 15.88410742 401.2045588 14.09544724 401.21335822 C11.65923078 401.22424082 9.22436414 401.21064001 6.78823441 401.19063789 C5.71883716 401.20402222 5.71883716 401.20402222 4.62783593 401.21767694 C1.47308018 401.16720842 -0.19218842 401.07410601 -2.54889327 398.88533241 C-4.52715373 394.79285534 -4.28753273 390.82477971 -2.95737106 386.59676582 C-0.45447972 380.96526032 3.59329669 376.2267899 9.40029496 373.8628791 C11.55109686 373.26452242 13.70277781 372.77168294 15.88637894 372.30770332 C26.28863092 369.74261721 38.74163728 365.65845917 45.31216019 356.60067207 C48.68930475 350.57093397 50.48766998 345.61875581 50.38637894 338.68270332 C49.62492538 338.68308034 48.86347182 338.68345737 48.07894391 338.68384582 C29.54165778 338.69096632 11.00468674 338.66503538 -7.53249866 338.60242492 C-16.49701992 338.57294176 -25.46130426 338.55460029 -34.42587692 338.56258613 C-42.24043399 338.56951913 -50.05462434 338.55544713 -57.86909127 338.51626724 C-62.0060149 338.49625617 -66.14236279 338.48668586 -70.27931815 338.50227958 C-74.17597614 338.51663538 -78.07153546 338.50283443 -81.96805221 338.46775085 C-83.39543036 338.4598044 -84.82290808 338.46200688 -86.25024635 338.47531158 C-98.36489956 338.57865548 -98.36489956 338.57865548 -102.95564681 334.75939399 C-106.15216675 331.44192673 -106.75111508 329.15093448 -106.92492038 324.5762704 C-106.96614463 323.51110783 -107.00736889 322.44594525 -107.04984236 321.34850502 C-107.08851826 320.18634981 -107.12719417 319.02419461 -107.16704208 317.82682258 C-107.20914253 316.61561423 -107.25124298 315.40440589 -107.2946192 314.15649426 C-107.72154796 300.8965899 -107.7618712 287.64233315 -107.75888473 274.37679511 C-107.76135207 271.66336909 -107.76526447 268.9499455 -107.76906234 266.23652107 C-107.77725339 259.71099144 -107.78011157 253.18547086 -107.78067472 246.65993651 C-107.78115415 241.35742806 -107.78322977 236.05492253 -107.78637534 230.752415 C-107.79513954 215.66916968 -107.79979979 200.58593138 -107.79904487 185.50268348 C-107.79900491 184.69511493 -107.79896496 183.88754638 -107.79892379 183.05550605 C-107.79888291 182.24693878 -107.79884203 181.4383715 -107.79879991 180.60530219 C-107.79839156 167.43874553 -107.80801951 154.27221719 -107.82206216 141.10566875 C-107.83641763 127.53785409 -107.84333324 113.9700533 -107.84246838 100.40223086 C-107.8421368 92.80344039 -107.84486894 85.20467988 -107.85564643 77.60589629 C-107.864739 71.15524848 -107.86693583 64.70464432 -107.86013701 58.25399288 C-107.85686948 54.96601895 -107.85790875 51.67814638 -107.86549026 48.39017707 C-107.87317659 44.82689968 -107.86858802 41.26384378 -107.86085922 37.70057136 C-107.86600278 36.66256391 -107.87114634 35.62455646 -107.87644577 34.55509424 C-107.84886514 28.81734518 -107.77676587 23.63076068 -104.24643356 18.81942207 C-103.74885543 18.34117988 -103.25127731 17.86293769 -102.73862106 17.37020332 C-102.24619918 16.8790705 -101.75377731 16.38793769 -101.24643356 15.88192207 C-97.37947644 13.04183633 -92.72662574 13.55413437 -88.12631637 13.58846503 C-86.57531152 13.5912509 -85.02430646 13.59392087 -83.47330123 13.59649116 C-82.65379234 13.59954135 -81.83428344 13.60259155 -80.98994094 13.60573417 C-76.63529111 13.61710982 -72.28074377 13.59656791 -67.92612106 13.58114082 C-62.39142186 13.56286581 -56.85728014 13.55413897 -51.32260543 13.58309394 C-46.84366572 13.60568654 -42.3659347 13.59413482 -37.88708144 13.5600875 C-36.185552 13.55333743 -34.48392472 13.55894559 -32.78248245 13.57744437 C-22.0735481 13.98623365 -22.0735481 13.98623365 -12.75717574 9.4410041 C-10.89983272 7.41915833 -9.46131335 5.4372026 -8.01090747 3.09933215 C-5.29241999 0.35891065 -3.79351261 0.08228666 0 0 Z " fill="#3F4C69" transform="translate(136.61362105607986,-0.6827033162117004)"/>
<path d="M0 0 C2.46709147 -0.0240216 4.9341557 -0.05100605 7.40118408 -0.08081055 C12.56657951 -0.12698036 17.72908341 -0.12324578 22.89453125 -0.08691406 C29.49003181 -0.04648328 36.07407784 -0.15117793 42.66776657 -0.29655457 C47.76278599 -0.38895529 52.85508458 -0.39262384 57.95078278 -0.37136841 C60.37966353 -0.37376911 62.8087136 -0.40571535 65.23677826 -0.46871948 C83.63417213 -0.88575826 83.63417213 -0.88575826 89.32350159 3.77819824 C93.29313543 8.24567606 96.08669262 13.20267961 98.76432037 18.51617432 C100.88208006 22.41917924 103.58198625 25.8365725 106.328125 29.3125 C107.71362448 31.10871295 109.08422361 32.90847517 110.42211914 34.74047852 C111.69698359 36.43184004 113.04423556 38.06880932 114.41967773 39.67944336 C121.7961232 48.95349738 122.21415876 56.15356477 121.640625 67.75 C121.455 73.091875 121.269375 78.43375 121.078125 83.9375 C137.578125 83.9375 154.078125 83.9375 171.078125 83.9375 C171.078125 84.2675 171.078125 84.5975 171.078125 84.9375 C168.108125 84.9375 165.138125 84.9375 162.078125 84.9375 C162.08181217 85.72987596 162.08549934 86.52225191 162.08929825 87.33863926 C162.17766987 106.62681528 162.24384464 125.91495084 162.28537369 145.20328617 C162.3059911 154.53102455 162.33409601 163.85862771 162.37988281 173.1862793 C162.41977571 181.31711129 162.44556378 189.44784535 162.45447898 197.57877249 C162.45968958 201.88331218 162.47191919 206.18757173 162.50104523 210.49202156 C162.52825318 214.54595926 162.53655921 218.59950216 162.53055573 222.65352249 C162.53165357 224.13899444 162.53957564 225.62447999 162.5549469 227.10987282 C162.6953533 241.38144679 162.6953533 241.38144679 158.078125 246.9375 C153.44731411 250.6981921 148.94381781 250.36192072 143.25404358 250.32518005 C142.25761807 250.33056559 141.26119257 250.33595113 140.23457235 250.34149987 C136.89201481 250.35582002 133.54985102 250.34866557 130.20727539 250.34155273 C127.81235942 250.34725416 125.41744618 250.35421753 123.02253723 250.36235046 C117.19046179 250.37845484 111.35851006 250.38037742 105.52641708 250.37513756 C100.78592036 250.3710956 96.04545546 250.37253972 91.30496025 250.37788582 C90.6301819 250.37863424 89.95540354 250.37938266 89.26017736 250.38015376 C87.8893514 250.38168525 86.51852546 250.38322359 85.14769953 250.38476873 C72.29330085 250.39849566 59.43896304 250.39305474 46.58456575 250.38158352 C34.82626485 250.37165086 23.06812131 250.38459195 11.30984468 250.40851771 C-0.76567149 250.43290374 -12.84111435 250.44251782 -24.91665465 250.43586498 C-31.69532158 250.43237165 -38.47386748 250.43461226 -45.25251579 250.45211601 C-51.62602942 250.46755412 -57.99924201 250.46366411 -64.37274361 250.44481087 C-66.71327277 250.44111637 -69.05382408 250.44425838 -71.39433289 250.45469666 C-74.58684145 250.46784878 -77.77834499 250.45640948 -80.97080994 250.43870544 C-82.36356554 250.45311295 -82.36356554 250.45311295 -83.78445762 250.46781152 C-89.30232343 250.40475467 -92.63338066 249.75062875 -96.921875 245.9375 C-99.94542633 242.11446931 -100.29425087 239.22523648 -100.28263855 234.41386414 C-100.28676254 233.09438278 -100.29088654 231.77490143 -100.2951355 230.41543579 C-100.2845193 228.96014198 -100.27361489 227.50485026 -100.26245117 226.04956055 C-100.26160464 224.51189694 -100.26208055 222.97423212 -100.26377869 221.43656921 C-100.26463906 217.26747031 -100.24700651 213.09863059 -100.22605681 208.92959189 C-100.20729707 204.57073517 -100.20554013 200.21187243 -100.20198059 195.85298157 C-100.19265806 187.60117043 -100.16804146 179.34947859 -100.13793212 171.09771997 C-100.10439459 161.70239453 -100.08790373 152.30706338 -100.07284582 142.91169298 C-100.04149207 123.58688061 -99.9864774 104.26223179 -99.921875 84.9375 C-86.391875 84.9375 -72.861875 84.9375 -58.921875 84.9375 C-59.169375 79.513125 -59.416875 74.08875 -59.671875 68.5 C-59.89352061 55.59727036 -59.47252388 46.52192667 -50.421875 36.63671875 C-49.84566406 36.04294434 -49.26945312 35.44916992 -48.67578125 34.83740234 C-45.49930233 31.39651162 -42.91955412 27.51481329 -40.234375 23.6875 C-38.73327127 21.61864775 -37.23105218 19.55781708 -35.67498779 17.52986145 C-33.80251649 14.92884147 -33.80251649 14.92884147 -32.50694275 11.71173096 C-25.66345923 -1.87152048 -13.72364207 -0.06711237 0 0 Z " fill="#E4EDEA" transform="translate(197.921875,-1.9375)"/>
<path d="M0 0 C1.94326172 0.01933594 1.94326172 0.01933594 3.92578125 0.0390625 C5.28907324 0.07248134 6.65235449 0.10634109 8.015625 0.140625 C9.39450564 0.16069793 10.77341412 0.17894733 12.15234375 0.1953125 C15.52414244 0.24247052 18.89453187 0.30827962 22.265625 0.390625 C21.18464864 2.63572974 20.07435195 4.67138286 18.66772461 6.73608398 C15.96337819 11.85611856 16.79661977 17.78504756 16.828125 23.453125 C16.80814453 24.73251953 16.78816406 26.01191406 16.76757812 27.33007812 C16.76822266 28.55791016 16.76886719 29.78574219 16.76953125 31.05078125 C16.76767822 32.17105713 16.7658252 33.29133301 16.76391602 34.44555664 C17.07761909 37.42222769 17.07761909 37.42222769 18.73413086 39.72436523 C21.44457443 41.50841166 22.76160297 41.70645128 25.92384338 41.99476624 C27.14254797 42.1114319 27.14254797 42.1114319 28.38587284 42.23045444 C29.00619105 42.28331073 29.62650927 42.33616701 30.265625 42.390625 C30.26709156 43.18907648 30.26855812 43.98752796 30.27006912 44.81017494 C30.30712391 64.2400156 30.36612098 83.66967626 30.44952774 103.09937477 C30.48933381 112.49545197 30.52171833 121.89144523 30.53662109 131.28759766 C30.54962949 139.47747896 30.57657335 147.66717567 30.62023807 155.85695302 C30.64287121 160.19325008 30.65853458 164.52931933 30.65750885 168.86568069 C30.65676333 172.94844982 30.67467044 177.03071499 30.70679283 181.11335373 C30.71530126 182.6104884 30.71703532 184.10767953 30.71142769 185.60482788 C30.70477981 187.65271708 30.722723 189.69900647 30.74664307 191.74673462 C30.75033024 192.89160151 30.75401741 194.03646839 30.75781631 195.21602821 C31.38922419 199.16331284 32.74653442 201.31241662 35.265625 204.390625 C38.10826313 206.14351388 40.23712956 206.64119901 43.55448818 206.64510059 C44.4093174 206.65093279 45.26414662 206.65676498 46.14487976 206.66277391 C47.07920918 206.65899458 48.0135386 206.65521526 48.97618103 206.65132141 C50.470596 206.65705973 50.470596 206.65705973 51.99520117 206.66291398 C55.3431268 206.67325639 58.69088132 206.66924944 62.03881836 206.6652832 C64.43520772 206.66962897 66.83159568 206.67481167 69.22798157 206.68077087 C75.0671875 206.69279209 80.90635078 206.69531055 86.74556439 206.69297061 C91.49133182 206.69118824 96.23708528 206.69293534 100.98285103 206.69719505 C101.99565488 206.69808784 101.99565488 206.69808784 103.02891942 206.69899866 C104.40055263 206.7002104 105.77218584 206.70142453 107.14381904 206.70264103 C120.00961592 206.71351972 132.8753866 206.7113525 145.74118496 206.70525619 C157.51313054 206.7000865 169.28499339 206.71134323 181.05692261 206.73035441 C193.14256385 206.74972269 205.22816594 206.7579906 217.31382281 206.75423115 C224.09971976 206.7523176 230.88554628 206.75482164 237.67143059 206.76894569 C244.05144592 206.78148883 250.43129523 206.77961321 256.81130791 206.76653481 C259.15548254 206.76416184 261.49966872 206.76692932 263.84383011 206.77515793 C267.03877647 206.78556601 270.23315963 206.77757226 273.42808533 206.7648468 C274.36018403 206.77222109 275.29228272 206.77959537 276.25262684 206.78719312 C281.01267678 206.74718609 284.5524246 206.70782313 288.265625 203.390625 C291.01145791 199.12862205 291.64401006 195.80519226 291.66435242 190.78469849 C291.67689056 189.47225662 291.68942871 188.15981476 291.7023468 186.80760193 C291.70117291 185.36538671 291.69971383 183.9231717 291.69799805 182.48095703 C291.70702005 180.9529898 291.71734835 179.42502981 291.72888184 177.89707947 C291.75642667 173.75911778 291.76573291 169.62129353 291.77173591 165.48325205 C291.78112613 161.15502905 291.80733006 156.82690843 291.83174133 152.49874878 C291.87539217 144.30725569 291.90394783 136.11578249 291.92706472 127.92420852 C291.95412397 118.59649745 291.99803504 109.26888944 292.04335344 99.94125199 C292.13617944 80.75776409 292.20786954 61.57424893 292.265625 42.390625 C292.8859687 42.33779421 293.50631241 42.28496342 294.14545441 42.23053169 C294.95794395 42.15277441 295.7704335 42.07501713 296.60754395 41.99490356 C297.41351265 41.92144777 298.21948135 41.84799198 299.04987335 41.77231026 C301.4504964 41.51123739 301.4504964 41.51123739 303.79492188 39.72216797 C305.70996057 36.68620854 305.782373 34.66637868 305.796875 31.0859375 C305.80203125 29.86261719 305.8071875 28.63929687 305.8125 27.37890625 C305.79703125 26.10402344 305.7815625 24.82914063 305.765625 23.515625 C305.78109375 22.24847656 305.7965625 20.98132813 305.8125 19.67578125 C305.78405945 10.73076438 305.78405945 10.73076438 301.265625 3.390625 C300.935625 2.400625 300.605625 1.410625 300.265625 0.390625 C304.82791041 0.27436564 309.38981428 0.20335092 313.953125 0.140625 C315.24669922 0.10710938 316.54027344 0.07359375 317.87304688 0.0390625 C319.12021484 0.02617188 320.36738281 0.01328125 321.65234375 0 C322.79920654 -0.02094727 323.94606934 -0.04189453 325.12768555 -0.06347656 C329.13602592 0.51658359 330.51562728 1.41121429 333.265625 4.390625 C334.01261204 7.40818902 333.9359829 10.36689554 333.89381409 13.46252441 C333.90090847 14.39008624 333.90800286 15.31764806 333.91531223 16.27331781 C333.93294863 19.38901052 333.91475837 22.50346504 333.89672852 25.61914062 C333.90186516 27.84967112 333.9091445 30.08019756 333.91841125 32.31071472 C333.9369657 38.37475475 333.92396087 44.43835654 333.90432096 50.50237846 C333.88796666 56.84131275 333.89674286 63.18021857 333.90184021 69.51916504 C333.90636476 80.16536473 333.89057293 90.81137086 333.86254883 101.45751953 C333.83371082 112.41299736 333.82662754 123.36822509 333.84204102 134.32373047 C333.8605859 147.52305118 333.85886944 160.72222336 333.83982658 173.92155457 C333.83294473 178.96456489 333.8340002 184.00748228 333.84137154 189.05049133 C333.84901912 194.98654859 333.83695784 200.92224454 333.80952263 206.85824013 C333.80262172 209.03995503 333.80255898 211.22170358 333.80973816 213.40341759 C333.81839318 216.37559343 333.80254347 219.34664409 333.7802887 222.31872559 C333.79264985 223.62202371 333.79264985 223.62202371 333.80526072 224.9516511 C333.79421303 225.74787929 333.78316534 226.54410748 333.77178288 227.36446381 C333.77059139 228.05034875 333.76939991 228.7362337 333.76817232 229.44290304 C333.01059363 232.37904971 331.64994414 233.56648337 329.265625 235.390625 C326.61899185 235.89202166 326.61899185 235.89202166 323.53717041 235.89398956 C322.3612521 235.90442055 321.18533379 235.91485154 319.97378159 235.92559862 C318.6808028 235.91667573 317.38782402 235.90775285 316.05566406 235.89855957 C314.66912302 235.90316733 313.28258686 235.90951941 311.89606094 235.91746855 C308.08175952 235.93420255 304.26785722 235.92589729 300.45355415 235.91352367 C296.34168893 235.90449203 292.22989346 235.9184335 288.11804199 235.92944336 C280.06128601 235.94725341 272.00467886 235.94337757 263.94791698 235.9317928 C257.40150414 235.9227685 250.85513309 235.92153012 244.30871582 235.92588806 C243.37789129 235.92650099 242.44706677 235.92711393 241.48803544 235.92774543 C239.59723249 235.9290243 237.70642955 235.93032115 235.81562662 235.9316358 C218.07503595 235.94304887 200.33452788 235.92991649 182.59395075 235.90843433 C167.3633737 235.89056269 152.13291859 235.89366659 136.90234375 235.91210938 C119.22633226 235.93350325 101.55039321 235.94195017 83.87437057 235.92966032 C81.99042512 235.92838609 80.10647966 235.92712861 78.22253418 235.92588806 C77.29553593 235.92527096 76.36853768 235.92465386 75.41344857 235.92401806 C68.87298615 235.9205607 62.33256958 235.92640179 55.79211426 235.93580627 C47.82419353 235.94701118 39.85643047 235.94401808 31.88852787 235.9226833 C27.82118105 235.91215246 23.75409734 235.90808542 19.68675232 235.92127991 C15.96593424 235.93316793 12.24562404 235.92670139 8.52485228 235.9053697 C6.53572388 235.89875942 4.54656043 235.91187184 2.55746841 235.92559862 C1.3815501 235.91516763 0.20563179 235.90473664 -1.00592041 235.89398956 C-2.02292149 235.89334015 -3.03992256 235.89269074 -4.08774185 235.89202166 C-7.48804664 235.24784418 -8.66984391 234.12967877 -10.734375 231.390625 C-11.23577166 229.44290304 -11.23577166 229.44290304 -11.23773956 227.36446381 C-11.24817055 226.56823561 -11.25860154 225.77200742 -11.26934862 224.9516511 C-11.26042573 224.08278568 -11.25150285 223.21392026 -11.24230957 222.31872559 C-11.24854953 221.39116376 -11.2547895 220.46360194 -11.26121855 219.50793219 C-11.27720378 216.39240117 -11.26452249 213.27764653 -11.25195312 210.16210938 C-11.25737177 207.93158002 -11.26449298 205.70105425 -11.27319336 203.47053528 C-11.29146009 197.40655846 -11.28434523 191.34285323 -11.27167702 185.27887154 C-11.26156676 178.9399351 -11.2709372 172.60102229 -11.27722168 166.26208496 C-11.2849706 154.93352939 -11.27252134 143.60511203 -11.25218433 132.27658409 C-11.23431307 122.00350122 -11.23741711 111.73059914 -11.25585938 101.45751953 C-11.27726181 89.52991118 -11.28523548 77.60241269 -11.27341032 65.67477846 C-11.26716649 59.36006102 -11.26636427 53.04546816 -11.27955627 46.73075867 C-11.29109045 40.79471597 -11.28313328 34.8590155 -11.25997925 28.92300987 C-11.25467917 26.74128984 -11.25622799 24.55954113 -11.26502991 22.37783241 C-11.2759175 19.40567105 -11.26230364 16.43461484 -11.24230957 13.46252441 C-11.25123246 12.593659 -11.26015534 11.72479358 -11.26934862 10.8295989 C-11.19330336 5.02483957 -11.19330336 5.02483957 -8.89739227 1.85201263 C-5.8514261 -0.20591698 -3.6518132 -0.0640669 0 0 Z " fill="#357DE8" transform="translate(67.734375,40.609375)"/>
<path d="M0 0 C131.34 0 262.68 0 398 0 C398 26 398 26 392 33 C389.2852518 34.3573741 387.14342978 34.14033277 384.10287476 34.15821838 C382.84641647 34.1680072 381.58995819 34.17779602 380.29542542 34.18788147 C378.89535561 34.19378604 377.4952854 34.19959646 376.09521484 34.20532227 C374.62695539 34.21489819 373.15869871 34.2249081 371.69044495 34.23532104 C367.6969068 34.26240713 363.70335679 34.2833966 359.70977736 34.30332303 C355.53905025 34.32515978 351.36835986 34.35255975 347.19766235 34.37937927 C339.29644672 34.42933747 331.39521075 34.47426468 323.49395525 34.51740164 C314.50010174 34.56674732 305.50628505 34.62167533 296.51246715 34.67708123 C278.00834562 34.79094927 259.50418934 34.89777779 241 35 C241.14307246 36.44090366 241.29097704 37.88132807 241.44091797 39.3215332 C241.56368607 40.5248101 241.56368607 40.5248101 241.68893433 41.75239563 C242.62139017 48.48985337 246.51994953 54.56280894 251.890625 58.63671875 C260.00142797 63.87870067 268.21222809 66.9425161 277.59301758 69.00024414 C283.96282093 70.53229349 288.64114577 73.51691143 292.35644531 79.00292969 C295.09067659 83.73781799 295.63049954 87.59571826 295 93 C293.93527222 95.20262909 293.93527222 95.20262909 292 97 C289.39454784 97.40160905 287.20578546 97.54057121 284.59814453 97.50793457 C283.45816356 97.51729451 283.45816356 97.51729451 282.29515266 97.52684355 C279.74072654 97.54283767 277.18724621 97.53014482 274.6328125 97.51757812 C272.80474285 97.52299641 270.97667757 97.53011742 269.14862061 97.53881836 C264.17757256 97.55708957 259.20685571 97.54996854 254.2358017 97.53730202 C249.04016713 97.52719399 243.84456143 97.53656157 238.64892578 97.54284668 C229.92279962 97.5501295 221.19680876 97.54051873 212.47070312 97.52148438 C202.37372813 97.49971445 192.27707619 97.50676537 182.18010902 97.52879 C173.52017254 97.54692591 164.86033347 97.54951118 156.20038414 97.53903532 C151.02418088 97.53279043 145.8481296 97.53199204 140.67193604 97.54518127 C135.80617354 97.55671286 130.94082864 97.54876344 126.07511139 97.52560425 C124.28643742 97.52030273 122.49772848 97.52185548 120.7090683 97.53065491 C118.27285184 97.5415375 115.83798519 97.52793669 113.40185547 97.50793457 C112.68892397 97.51685746 111.97599247 97.52578034 111.24145699 97.53497362 C108.08670124 97.4845051 106.42143264 97.39140269 104.06472778 95.20262909 C102.08646733 91.11015203 102.32608833 87.14207639 103.65625 82.9140625 C106.15914133 77.282557 110.20691775 72.54408658 116.01391602 70.18017578 C118.16471792 69.58181911 120.31639886 69.08897962 122.5 68.625 C132.90225197 66.05991389 145.35525834 61.97575585 151.92578125 52.91796875 C155.3029258 46.88823065 157.10129103 41.93605249 157 35 C156.23854644 35.00037703 155.47709288 35.00075405 154.69256496 35.0011425 C136.15527883 35.008263 117.6183078 34.98233207 99.0811224 34.9197216 C90.11660113 34.89023845 81.15231679 34.87189697 72.18774414 34.87988281 C64.37318706 34.88681582 56.55899672 34.87274381 48.74452978 34.83356392 C44.60760616 34.81355285 40.47125827 34.80398255 36.3343029 34.81957626 C32.43764491 34.83393207 28.5420856 34.82013111 24.64556885 34.78504753 C23.2181907 34.77710109 21.79071297 34.77930356 20.36337471 34.79260826 C8.24872149 34.89595216 8.24872149 34.89595216 3.65797424 31.07669067 C-4.80395653 22.29458424 0 15.71686075 0 0 Z " fill="#D5E5DF" transform="translate(30,303)"/>
<path d="M0 0 C1.04220703 -0.05414063 2.08441406 -0.10828125 3.15820312 -0.1640625 C10.66194304 -0.29763193 10.66194304 -0.29763193 13.65185547 1.77514648 C15.2407197 3.59275464 16.51554191 5.46445368 17.8125 7.5 C18.90456483 8.95442044 20.00385704 10.4034352 21.109375 11.84765625 C22.26347488 13.41702644 23.41440906 14.98872857 24.5625 16.5625 C25.48591187 17.82139038 25.48591187 17.82139038 26.42797852 19.10571289 C30.29934953 24.39421463 34.11609685 29.71895018 37.90429688 35.06713867 C42.90337814 42.08718999 48.11215624 48.95262187 53.296875 55.8359375 C53.88275391 56.61549805 54.46863281 57.39505859 55.07226562 58.19824219 C56.23937608 59.74194552 57.4152969 61.27902441 58.59960938 62.80957031 C59.14939453 63.52467773 59.69917969 64.23978516 60.265625 64.9765625 C60.75708008 65.60900879 61.24853516 66.24145508 61.75488281 66.89306641 C62.8125 68.5 62.8125 68.5 62.8125 70.5 C65.68525829 70.16430211 67.35973253 69.93680857 69.47485352 67.89624023 C69.95881592 67.20731689 70.44277832 66.51839355 70.94140625 65.80859375 C71.49505859 65.03708984 72.04871094 64.26558594 72.61914062 63.47070312 C73.48829102 62.21676758 73.48829102 62.21676758 74.375 60.9375 C75.62555918 59.18566735 76.87687289 57.43437311 78.12890625 55.68359375 C78.75039551 54.80558105 79.37188477 53.92756836 80.01220703 53.02294922 C82.54953849 49.46710662 85.1750508 45.98184289 87.8125 42.5 C92.2305699 36.63543667 96.59199992 30.73098669 100.9375 24.8125 C116.01429863 4.29820137 116.01429863 4.29820137 119.8125 0.5 C122.13500977 0.25708008 122.13500977 0.25708008 125.00390625 0.26953125 C126.03064453 0.27146484 127.05738281 0.27339844 128.11523438 0.27539062 C129.19095703 0.28763672 130.26667969 0.29988281 131.375 0.3125 C132.45458984 0.31314453 133.53417969 0.31378906 134.64648438 0.31445312 C142.67235402 0.35985402 142.67235402 0.35985402 143.8125 1.5 C143.91137812 3.47197538 143.93882256 5.4475444 143.93948364 7.42199707 C143.94230347 8.70929214 143.94512329 9.99658722 143.94802856 11.32289124 C143.94608396 12.762787 143.94403578 14.20268264 143.94189453 15.64257812 C143.94324851 17.14847354 143.94502843 18.65436861 143.94720459 20.16026306 C143.95177928 24.26138807 143.94998922 28.36248804 143.9468255 32.46361351 C143.94430209 36.74596603 143.94663939 41.02831634 143.94821167 45.31066895 C143.95003342 52.50350328 143.94762692 59.69632737 143.94287109 66.88916016 C143.93742846 75.21716334 143.93919112 83.54514204 143.9446975 91.87314463 C143.94922848 99.01027846 143.94987925 106.1474049 143.94725883 113.2845397 C143.94569597 117.55298355 143.94550253 121.82141588 143.94879532 126.08985901 C143.95167381 130.10183934 143.94969875 134.11378796 143.94390106 138.12576485 C143.94257334 139.60244761 143.94296778 141.07913302 143.94516373 142.55581474 C143.94787474 144.56320987 143.94388084 146.57061079 143.93948364 148.57800293 C143.9389181 150.26708393 143.9389181 150.26708393 143.93834114 151.99028778 C143.8125 154.5 143.8125 154.5 142.8125 155.5 C140.89791718 155.59971786 138.97967683 155.63080589 137.0625 155.6328125 C135.8971875 155.63410156 134.731875 155.63539063 133.53125 155.63671875 C131.69046875 155.63091797 131.69046875 155.63091797 129.8125 155.625 C128.5853125 155.62886719 127.358125 155.63273438 126.09375 155.63671875 C124.34578125 155.63478516 124.34578125 155.63478516 122.5625 155.6328125 C121.48484375 155.63168457 120.4071875 155.63055664 119.296875 155.62939453 C116.8125 155.5 116.8125 155.5 115.8125 154.5 C115.70512854 153.14706324 115.66571362 151.78864581 115.65428162 150.4315033 C115.6444928 149.55505661 115.63470398 148.67860992 115.62461853 147.77560425 C115.61886307 146.80672272 115.6131076 145.83784119 115.60717773 144.83959961 C115.59727814 143.82508224 115.58737854 142.81056488 115.57717896 141.76530457 C115.54545872 138.39434179 115.5207651 135.0233649 115.49609375 131.65234375 C115.4755333 129.32206342 115.45453708 126.9917869 115.43312073 124.66151428 C115.37780614 118.51466953 115.3284384 112.36779061 115.28027344 106.22088623 C115.23012677 99.95386701 115.17440512 93.68689769 115.11914062 87.41992188 C115.01144431 75.11332383 114.910025 62.80668255 114.8125 50.5 C113.3275 50.005 113.3275 50.005 111.8125 49.5 C111.53575439 50.08378418 111.25900879 50.66756836 110.97387695 51.26904297 C109.86267006 53.40362539 108.64739695 55.2536429 107.23046875 57.1953125 C106.71701904 57.90228271 106.20356934 58.60925293 105.67456055 59.33764648 C105.12195557 60.09247314 104.56935059 60.8472998 104 61.625 C102.82282823 63.24342526 101.64574753 64.86191677 100.46875 66.48046875 C99.86417969 67.30981934 99.25960938 68.13916992 98.63671875 68.99365234 C95.74546559 72.96602988 92.87377432 76.95247088 90 80.9375 C88.4093984 83.13927336 86.81826017 85.34065806 85.22705078 87.54199219 C83.97167954 89.27966519 82.71804016 91.01857096 81.46484375 92.7578125 C80.17699386 94.53946225 78.88219631 96.31612644 77.578125 98.0859375 C76.35392378 99.75973474 75.15770041 101.4542165 73.984375 103.1640625 C69.69537045 109.18731672 69.69537045 109.18731672 65.8125 110.5625 C57.31766308 107.55391193 52.11080647 96.47845236 47.09765625 89.32910156 C45.08060015 86.45832188 43.04069564 83.60400141 41 80.75 C40.59982666 80.18982178 40.19965332 79.62964355 39.78735352 79.05249023 C36.1806437 74.00703441 32.56228961 68.96997983 28.9375 63.9375 C28.38989014 63.1753418 27.84228027 62.41318359 27.27807617 61.62792969 C23.22534649 55.92155716 23.22534649 55.92155716 18.8125 50.5 C18.1525 50.5 17.4925 50.5 16.8125 50.5 C16.80219254 51.80069931 16.79188507 53.10139862 16.78126526 54.44151306 C16.68371467 66.67036724 16.5809985 78.89916844 16.47316074 91.12793636 C16.41788163 97.41559491 16.3644538 103.70325805 16.31518555 109.9909668 C16.26761539 116.0534186 16.21527553 122.11581182 16.15955925 128.17819405 C16.13910228 130.49674594 16.12039487 132.81531392 16.10342598 135.13389397 C16.07945569 138.36918866 16.04939142 141.60437144 16.01782227 144.83959961 C16.0120668 145.80848114 16.00631134 146.77736267 16.00038147 147.77560425 C15.98569824 149.09027428 15.98569824 149.09027428 15.97071838 150.4315033 C15.96426583 151.19751327 15.95781328 151.96352324 15.9511652 152.75274563 C15.8125 154.5 15.8125 154.5 14.8125 155.5 C12.89791718 155.59971786 10.97967683 155.63080589 9.0625 155.6328125 C7.8971875 155.63410156 6.731875 155.63539063 5.53125 155.63671875 C4.3040625 155.63285156 3.076875 155.62898437 1.8125 155.625 C0.5853125 155.62886719 -0.641875 155.63273438 -1.90625 155.63671875 C-3.0715625 155.63542969 -4.236875 155.63414062 -5.4375 155.6328125 C-6.51515625 155.63168457 -7.5928125 155.63055664 -8.703125 155.62939453 C-11.1875 155.5 -11.1875 155.5 -12.1875 154.5 C-12.28637812 152.52802462 -12.31382256 150.5524556 -12.31448364 148.57800293 C-12.31730347 147.29070786 -12.32012329 146.00341278 -12.32302856 144.67710876 C-12.32108396 143.237213 -12.31903578 141.79731736 -12.31689453 140.35742188 C-12.31824851 138.85152646 -12.32002843 137.34563139 -12.32220459 135.83973694 C-12.32677928 131.73861193 -12.32498922 127.63751196 -12.3218255 123.53638649 C-12.31930209 119.25403397 -12.32163939 114.97168366 -12.32321167 110.68933105 C-12.32503342 103.49649672 -12.32262692 96.30367263 -12.31787109 89.11083984 C-12.31242846 80.78283666 -12.31419112 72.45485796 -12.3196975 64.12685537 C-12.32422848 56.98972154 -12.32487925 49.8525951 -12.32225883 42.7154603 C-12.32069597 38.44701645 -12.32050253 34.17858412 -12.32379532 29.91014099 C-12.32667381 25.89816066 -12.32469875 21.88621204 -12.31890106 17.87423515 C-12.31757334 16.39755239 -12.31796778 14.92086698 -12.32016373 13.44418526 C-12.32287474 11.43679013 -12.31888084 9.42938921 -12.31448364 7.42199707 C-12.31410662 6.29594307 -12.31372959 5.16988907 -12.31334114 4.00971222 C-12.02057061 -1.82915553 -4.56245039 0.09972569 0 0 Z " fill="#C1005C" transform="translate(1097.1875,124.5)"/>
<path d="M0 0 C1.75787769 -0.0115082 3.51575539 -0.0230151 5.27363312 -0.03451681 C6.84629299 -0.04481773 8.41895272 -0.05513994 9.99161232 -0.06548166 C14.34742652 -0.09409278 18.70324266 -0.12231878 23.05906391 -0.14983749 C31.24836302 -0.20192947 39.43745779 -0.25852568 47.62653923 -0.33872223 C50.87235637 -0.36633843 54.11804369 -0.37704314 57.3639679 -0.3817749 C58.94510932 -0.38784836 60.52623425 -0.40177068 62.10725403 -0.42230225 C77.92186951 -0.61710045 91.1574041 1.55489355 103.03125 12.94921875 C111.36602778 21.93735835 114.53499205 32.06665842 114.24609375 44.234375 C113.43338353 53.36768985 109.93758188 60.62756304 103.0546875 66.72265625 C101.82986563 67.73177062 100.58659859 68.71921449 99.3203125 69.67578125 C97.64696923 71.0424139 97.64696923 71.0424139 98 74 C99.99756495 75.45789388 99.99756495 75.45789388 102.5625 76.75 C112.27157239 82.31763191 119.25052153 90.57034776 122.4921875 101.39453125 C124.85938941 113.54009796 122.57647185 124.83006555 115.9375 135.1875 C107.16583899 146.82681941 96.03276982 152.48877946 82 155 C79.18039676 155.24630001 76.38761958 155.26489386 73.55859375 155.24291992 C72.76884659 155.24481827 71.97909943 155.24671661 71.16542053 155.24867249 C68.58934178 155.25233825 66.01355308 155.24174278 63.4375 155.23046875 C61.63671909 155.22927521 59.83593754 155.22882416 58.03515625 155.2290802 C54.27974496 155.227523 50.52443004 155.21928693 46.76904297 155.20581055 C41.94569852 155.18872354 37.12245871 155.1849994 32.29908752 155.18575573 C28.58977248 155.18548463 24.8804805 155.18001479 21.1711731 155.17275429 C19.39128799 155.16956554 17.61140026 155.16759973 15.83151245 155.16686058 C13.35637897 155.16470474 10.88135924 155.15597996 8.40625 155.14526367 C7.66657486 155.14571686 6.92689972 155.14617004 6.16481018 155.14663696 C1.11448427 155.11448427 1.11448427 155.11448427 0 154 C-0.096708 152.01305149 -0.12187052 150.02260987 -0.12025452 148.03330994 C-0.12162918 146.73615555 -0.12300385 145.43900116 -0.12442017 144.10253906 C-0.12088055 142.6516111 -0.11724573 141.20068337 -0.11352539 139.74975586 C-0.11324353 138.23238629 -0.11340123 136.71501658 -0.1139679 135.19764709 C-0.11425591 131.06559484 -0.10835858 126.93357137 -0.10139394 122.80152583 C-0.09516102 118.48801108 -0.09455665 114.17449573 -0.09336853 109.86097717 C-0.09025503 101.68699883 -0.08204139 93.51303379 -0.07201904 85.33906132 C-0.06085848 76.03571031 -0.0553476 66.73235868 -0.05032361 57.42900264 C-0.03985879 38.28599421 -0.02225899 19.14299817 0 0 Z M28 24 C27.97535295 29.67830078 27.95716538 35.35657069 27.94506836 41.03491211 C27.94002744 42.96818585 27.93319481 44.90145576 27.92456055 46.8347168 C27.91248435 49.60726872 27.90676943 52.37977041 27.90234375 55.15234375 C27.89718246 56.02213364 27.89202118 56.89192352 27.88670349 57.78807068 C27.88650815 59.85905814 27.93791832 61.92994324 28 64 C30.94677003 66.94677003 41.86327702 65.32377967 46.04321289 65.35009766 C47.95674889 65.36656165 49.87022587 65.39372333 51.78344727 65.43212891 C66.75836606 66.12343788 66.75836606 66.12343788 80 60 C84.74394469 55.27940478 85.33086027 51.01048166 85.5 44.375 C85.45630616 39.07712246 84.75987319 35.54952967 82 31 C76.1090419 25.23995208 70.92452062 23.7719676 62.91665649 23.77340698 C61.58505997 23.78889084 61.58505997 23.78889084 60.2265625 23.8046875 C58.8409462 23.80893234 58.8409462 23.80893234 57.42733765 23.81326294 C54.49309024 23.82440821 51.5591543 23.84950235 48.625 23.875 C46.62891068 23.88503711 44.63281654 23.89416168 42.63671875 23.90234375 C37.75769351 23.92432903 32.87889946 23.95881983 28 24 Z M28 87 C27.90214659 88.34544327 27.87202015 89.69592563 27.87060547 91.04492188 C27.86745331 91.90251099 27.86430115 92.7601001 27.86105347 93.64367676 C27.8630777 94.57595093 27.86510193 95.5082251 27.8671875 96.46875 C27.86623077 97.41939331 27.86527405 98.37003662 27.86428833 99.3494873 C27.86360643 101.36368882 27.86546138 103.37789252 27.86962891 105.39208984 C27.87497702 108.48670355 27.86968423 111.5811721 27.86328125 114.67578125 C27.86394203 116.62760449 27.86522319 118.57942764 27.8671875 120.53125 C27.86516327 121.46352417 27.86313904 122.39579834 27.86105347 123.35632324 C27.86420563 124.21391235 27.86735779 125.07150146 27.87060547 125.95507812 C27.87140106 126.71373169 27.87219666 127.47238525 27.87301636 128.25402832 C27.81078913 130.02877312 27.81078913 130.02877312 29 131 C30.38910719 131.11361985 31.78385374 131.1595208 33.17749023 131.17700195 C34.06609238 131.18983719 34.95469452 131.20267242 35.870224 131.21589661 C36.83988602 131.22328354 37.80954803 131.23067047 38.80859375 131.23828125 C40.30242332 131.25038887 40.30242332 131.25038887 41.82643127 131.26274109 C43.94408415 131.27660832 46.06175962 131.28731859 48.17944336 131.29516602 C51.39286092 131.3122625 54.60521837 131.35611068 57.81835938 131.40039062 C59.87759661 131.41052754 61.9368426 131.4190405 63.99609375 131.42578125 C65.42325966 131.45204338 65.42325966 131.45204338 66.8792572 131.47883606 C74.80352423 131.45355395 81.06600625 129.30908329 87.875 125.3125 C93.29894088 119.4099761 94.73494812 112.82854723 94.453125 104.9375 C93.54538785 99.05285917 90.78440423 94.83263137 86.6875 90.625 C79.4384165 86.24183323 73.26946817 85.56773216 64.97265625 85.671875 C63.42837196 85.67468475 63.42837196 85.67468475 61.85289001 85.67755127 C59.69217659 85.68423917 57.53147459 85.69808807 55.37084961 85.71875 C52.04855212 85.75013175 48.72672845 85.75974762 45.40429688 85.765625 C43.30207749 85.77478661 41.19986296 85.78515968 39.09765625 85.796875 C38.09984634 85.80112488 37.10203644 85.80537476 36.07398987 85.80975342 C35.15891159 85.81936096 34.24383331 85.82896851 33.30102539 85.83886719 C32.08812584 85.84910919 32.08812584 85.84910919 30.85072327 85.85955811 C28.98371039 85.79909804 28.98371039 85.79909804 28 87 Z " fill="#155BCD" transform="translate(854,125)"/>
<path d="M0 0 C1.07507813 0.36222656 2.15015625 0.72445312 3.2578125 1.09765625 C10.73701526 3.91909463 16.78930132 8.01800214 23 13 C23.72058594 13.55558594 24.44117188 14.11117187 25.18359375 14.68359375 C35.85335956 23.35667824 44.73939083 37.27487287 47 51 C46.69894266 52.67279807 46.36914799 54.34089824 46 56 C41.72952167 56.14486019 37.45967167 56.23392616 33.1875 56.3125 C31.97255859 56.35439453 30.75761719 56.39628906 29.50585938 56.43945312 C28.34248047 56.45556641 27.17910156 56.47167969 25.98046875 56.48828125 C24.37014771 56.52755737 24.37014771 56.52755737 22.72729492 56.56762695 C20 56 20 56 18.23144531 53.66674805 C17.82506836 52.78672119 17.41869141 51.90669434 17 51 C16.44441406 49.9584375 15.88882813 48.916875 15.31640625 47.84375 C14.14769682 45.61565363 12.98102721 43.38648612 11.81640625 41.15625 C6.40000919 31.7445321 -1.72924651 26.983175 -12.05029297 24.08642578 C-29.37720905 19.71085954 -44.74223575 22.93887564 -60 32 C-70.30195238 39.43779968 -75.99109012 51.93853294 -79 64 C-81.29602889 81.83125664 -78.4522001 98.05281229 -68 113 C-58.11644757 124.0888637 -44.75062824 130.13231599 -30 131 C-15.4721232 131 -1.98345126 127.19001973 8.6171875 116.8984375 C12.57106555 112.08896617 14.76138964 106.75642664 17 101 C17.99 99.02 17.99 99.02 19 97 C28.24 97 37.48 97 47 97 C44.90398822 115.86410605 35.88169789 128.57011292 22 141 C3.87309886 155.24256518 -17.74349497 158.68215219 -40.25 156.375 C-58.06711522 153.76450054 -72.08899745 145.3573575 -85 133 C-85.63808594 132.42507813 -86.27617188 131.85015625 -86.93359375 131.2578125 C-92.02677359 126.51627759 -95.51988644 120.99213798 -99 115 C-99.46535156 114.21882813 -99.93070312 113.43765625 -100.41015625 112.6328125 C-110.17567967 94.89360482 -111.02872053 73.24920295 -106 54 C-101.91353348 40.81317541 -95.50238341 30.89765726 -86 21 C-85.27683594 20.21367187 -84.55367187 19.42734375 -83.80859375 18.6171875 C-62.48625589 -3.88760559 -28.79265792 -9.7792435 0 0 Z " fill="#155BCD" transform="translate(599,126)"/>
<path d="M0 0 C1.17111328 -0.01224609 2.34222656 -0.02449219 3.54882812 -0.03710938 C4.66580078 -0.03904297 5.78277344 -0.04097656 6.93359375 -0.04296875 C7.96411865 -0.04707764 8.99464355 -0.05118652 10.05639648 -0.05541992 C12.5625 0.1875 12.5625 0.1875 14.5625 2.1875 C14.7649395 5.30407799 14.84245192 8.33335421 14.83374023 11.45141602 C14.83896698 12.41260849 14.84419373 13.37380096 14.84957886 14.36412048 C14.85984047 16.45721867 14.86560301 18.55034253 14.86746025 20.64346504 C14.87111479 23.96050599 14.88781918 27.27724547 14.90821838 30.59422302 C14.96370001 40.02735778 14.99424272 49.46053838 15.01879883 58.89379883 C15.03471668 64.66039969 15.06498834 70.42678978 15.10356331 76.19328117 C15.11518473 78.38798717 15.12114341 80.58273097 15.12124443 82.77746773 C15.12143751 85.85780789 15.13978185 88.93757202 15.16186523 92.01782227 C15.15728806 92.91739655 15.15271088 93.81697083 15.147995 94.74380493 C15.23338559 102.27488961 17.10144135 108.83804903 20.625 115.5 C20.94597656 116.11488281 21.26695312 116.72976562 21.59765625 117.36328125 C22.07525391 118.26626953 22.07525391 118.26626953 22.5625 119.1875 C22.84996094 119.88230469 23.13742187 120.57710938 23.43359375 121.29296875 C24.85467755 123.67783257 26.02211915 124.1312843 28.5625 125.1875 C29.32304688 125.5896875 30.08359375 125.991875 30.8671875 126.40625 C41.85291068 131.88241596 52.33928982 133.34621909 64.29296875 130.30078125 C73.77988192 127.07047031 80.06914968 122.08404115 84.75 113.25 C89.07907046 104.05072528 89.7001865 94.64166625 89.76782227 84.65039062 C89.77772186 83.73238678 89.78762146 82.81438293 89.79782104 81.86856079 C89.82919067 78.86031598 89.85409556 75.85205543 89.87890625 72.84375 C89.89949701 70.74767669 89.92049402 68.65160734 89.94187927 66.55554199 C89.99688084 61.05817888 90.04638614 55.56077967 90.09472656 50.06335449 C90.14510231 44.44584976 90.2007042 38.82839698 90.25585938 33.2109375 C90.36317264 22.20316788 90.46419301 11.19535374 90.5625 0.1875 C99.4725 0.1875 108.3825 0.1875 117.5625 0.1875 C117.63043476 13.80092915 117.68540783 27.41424462 117.71793652 41.02780533 C117.73355323 47.34998147 117.75471843 53.67203502 117.78881836 59.99414062 C117.82155433 66.10199936 117.83938302 72.20974062 117.84713173 78.31768036 C117.85264973 80.64112953 117.8634247 82.9645727 117.87969017 85.2879715 C118.0158881 105.55979904 116.69582391 122.44964691 101.91796875 137.87109375 C87.41943074 152.12919167 73.14665823 158.02264168 52.625 158.4375 C35.26811555 158.00070423 19.59164886 154.24861973 6.5625 142.1875 C5.87929688 141.58292969 5.19609375 140.97835937 4.4921875 140.35546875 C-6.45855331 130.1333894 -13.00562722 116.64830594 -13.87835693 101.67288208 C-14.09158221 95.27229601 -14.0278604 88.87530975 -13.9609375 82.47265625 C-13.95413515 80.12137854 -13.94942076 77.77009395 -13.94668579 75.41880798 C-13.93608026 70.52810398 -13.90956069 65.63786586 -13.86962891 60.74731445 C-13.81834158 54.46574478 -13.7935331 48.18443982 -13.77869225 41.90268803 C-13.76395758 35.90514066 -13.73873634 29.90765566 -13.7109375 23.91015625 C-13.70602673 22.76333941 -13.70111595 21.61652256 -13.69605637 20.43495369 C-13.67987112 17.21576115 -13.65647815 13.99671341 -13.63037109 10.77758789 C-13.62611115 9.8151416 -13.6218512 8.85269531 -13.61746216 7.86108398 C-13.60886169 6.99093155 -13.60026123 6.12077911 -13.59140015 5.22425842 C-13.58582785 4.46428086 -13.58025555 3.7043033 -13.57451439 2.92129612 C-13.17593106 -2.122424 -3.73233745 0.00204736 0 0 Z " fill="#155BCD" transform="translate(692.4375,124.8125)"/>
<path d="M0 0 C1.52362656 -0.00786278 1.52362656 -0.00786278 3.07803345 -0.0158844 C5.22128386 -0.02229183 7.3645695 -0.02098422 9.5078125 -0.01245117 C12.77147694 -0.00395205 16.03338371 -0.03270423 19.296875 -0.06445312 C21.38541615 -0.06606569 23.47396037 -0.06548655 25.5625 -0.0625 C26.53045502 -0.07373398 27.49841003 -0.08496796 28.49569702 -0.09654236 C34.41496847 -0.03625127 39.67816931 0.597375 44.4140625 4.43359375 C46.9738135 8.06036939 47.78773971 10.51142916 47.77482605 14.9322052 C47.77895004 16.02450439 47.78307404 17.11680359 47.787323 18.24220276 C47.77653717 19.43047165 47.76575134 20.61874054 47.75463867 21.84301758 C47.75529579 23.73142868 47.75529579 23.73142868 47.75596619 25.6579895 C47.7568256 29.10192764 47.73920882 32.54555121 47.71824431 35.98941636 C47.69946845 39.59153532 47.69772636 43.1936618 47.69416809 46.79582214 C47.68485027 53.61329875 47.66024014 60.43063074 47.63011962 67.24804372 C47.5902915 76.46302518 47.5741186 85.6780463 47.55661297 94.89309216 C47.52841878 109.40670098 47.46864767 123.92000463 47.4140625 138.43359375 C24.9740625 138.43359375 2.5340625 138.43359375 -20.5859375 138.43359375 C-20.74714964 106.32550982 -20.74714964 106.32550982 -20.78125 92.87109375 C-20.80498499 83.58096485 -20.83288813 74.29098106 -20.88769531 65.00097656 C-20.92759207 58.23510857 -20.95337715 51.46935829 -20.96229148 44.70337594 C-20.9675015 41.12151841 -20.97972678 37.53999763 -21.00885773 33.95824814 C-21.04113163 29.95752846 -21.04189511 25.95739243 -21.04003906 21.95654297 C-21.05442017 20.77186935 -21.06880127 19.58719574 -21.08361816 18.36662292 C-21.05210263 12.09823584 -20.89699309 8.14762176 -16.5859375 3.43359375 C-11.39122606 -0.27502452 -6.14230211 -0.01855094 0 0 Z " fill="#AE4833" transform="translate(146.5859375,109.56640625)"/>
<path d="M0 0 C0.8560936 -0.00700928 1.71218719 -0.01401855 2.59422302 -0.02124023 C5.41292145 -0.03878698 8.23060846 -0.0272073 11.04931641 -0.01367188 C13.0169799 -0.01636824 14.98464208 -0.02025187 16.95230103 -0.02526855 C21.07298488 -0.03115953 25.19332143 -0.02261532 29.31396484 -0.00390625 C34.58200004 0.01885291 39.84921866 0.00577679 45.11722374 -0.01819611 C49.18030889 -0.0326905 53.24320237 -0.02803089 57.30629349 -0.01768494 C59.24786095 -0.01502615 61.1894461 -0.01825741 63.13099289 -0.02760315 C65.85211613 -0.03782546 68.57194152 -0.02218761 71.29296875 0 C72.48400963 -0.01214539 72.48400963 -0.01214539 73.69911194 -0.02453613 C79.2844575 0.0593296 83.6760507 1.25580282 88.27587891 4.51757812 C91.38322184 8.21154108 91.6571496 11.2109684 91.67993164 15.95678711 C91.69261581 17.23839218 91.70529999 18.51999725 91.71836853 19.84043884 C91.71631688 21.23151817 91.71332869 22.62259638 91.70947266 24.01367188 C91.71403717 25.44947048 91.71934355 26.88526691 91.72535706 28.32106018 C91.73427787 31.32619111 91.73187716 34.33105615 91.72192383 37.33618164 C91.71043757 41.17747056 91.73064431 45.01783971 91.75984097 48.85900784 C91.77823343 51.82312297 91.7779045 54.78701893 91.77220345 57.75117683 C91.77205059 59.16689405 91.77806552 60.58262645 91.79049492 61.99828911 C91.80545703 63.98179918 91.79207097 65.96546098 91.77758789 67.94897461 C91.77742172 69.07528793 91.77725555 70.20160126 91.77708435 71.36204529 C91.14215624 75.35948091 89.8803991 77.43150497 87.27587891 80.51757812 C82.4090008 83.85781426 78.04658816 83.96282932 72.35229492 83.95336914 C71.03648437 83.96848289 71.03648437 83.96848289 69.6940918 83.98390198 C66.80585857 84.01230602 63.91814919 84.01825434 61.02978516 84.02148438 C59.01488533 84.03112945 56.99998761 84.04122222 54.98509216 84.05174255 C50.76613494 84.06968409 46.54736181 84.07526548 42.32836914 84.07348633 C36.92999371 84.0731813 31.53280065 84.11416525 26.13470554 84.16580296 C21.97473253 84.19920283 17.81504446 84.20524284 13.6549511 84.20365715 C11.66506811 84.20719047 9.67517721 84.22042216 7.68542671 84.24365425 C4.89906656 84.27314693 2.11526124 84.26439183 -0.67114258 84.24633789 C-1.89562859 84.27162567 -1.89562859 84.27162567 -3.14485168 84.29742432 C-8.51919549 84.20921095 -11.48998797 82.90983882 -15.35211849 79.135849 C-18.72240128 75.16061567 -18.97860832 71.42263392 -19.01464844 66.35375977 C-19.02740814 65.13221695 -19.04016785 63.91067413 -19.05331421 62.65211487 C-19.05553986 61.34056931 -19.0577655 60.02902374 -19.06005859 58.67773438 C-19.06649136 57.30919762 -19.07322007 55.94066222 -19.08023071 54.5721283 C-19.09218214 51.70829073 -19.09591366 48.84457362 -19.09472656 45.98071289 C-19.09452328 42.32105346 -19.12184363 38.66216974 -19.15627098 35.00269413 C-19.17856639 32.17757151 -19.18256335 29.35263497 -19.18150711 26.5274334 C-19.18499701 24.52555971 -19.20663938 22.5237441 -19.22860718 20.52198792 C-19.17082819 9.0221248 -19.17082819 9.0221248 -14.72412109 4.51757812 C-9.71302339 0.44110111 -6.19126344 -0.06281383 0 0 Z " fill="#29B4FD" transform="translate(240.72412109375,109.482421875)"/>
<path d="M0 0 C4.67389454 2.97303943 8.56563151 6.50063612 12.4375 10.4375 C13.283125 11.283125 14.12875 12.12875 15 13 C15.66 13 16.32 13 17 13 C17.33 8.05 17.66 3.1 18 -2 C26.25 -2 34.5 -2 43 -2 C43.02254768 12.97686593 43.04097956 27.95372321 43.05181217 42.93060207 C43.05697496 49.88416081 43.06401734 56.83770827 43.07543945 63.79125977 C43.08644694 70.49557209 43.09227621 77.19987025 43.09487724 83.90419197 C43.09673202 86.46837613 43.10035364 89.03255962 43.10573006 91.59673882 C43.11293659 95.17445158 43.11399111 98.75211519 43.11352539 102.32983398 C43.11712067 103.40157364 43.12071594 104.47331329 43.12442017 105.57752991 C43.1230455 106.54653229 43.12167084 107.51553467 43.12025452 108.51390076 C43.12117631 109.36102851 43.1220981 110.20815626 43.12304783 111.08095455 C43 113 43 113 42 114 C40.30441274 114.09932153 38.60474253 114.13080007 36.90625 114.1328125 C35.87628906 114.13410156 34.84632812 114.13539063 33.78515625 114.13671875 C32.15900391 114.13091797 32.15900391 114.13091797 30.5 114.125 C29.41589844 114.12886719 28.33179688 114.13273437 27.21484375 114.13671875 C25.66990234 114.13478516 25.66990234 114.13478516 24.09375 114.1328125 C23.14177734 114.13168457 22.18980469 114.13055664 21.20898438 114.12939453 C19 114 19 114 18 113 C17.76346477 110.47403741 17.57826308 107.96892793 17.4375 105.4375 C17.39431641 104.72658203 17.35113281 104.01566406 17.30664062 103.28320312 C17.20028223 101.52238088 17.09961154 99.7612168 17 98 C13.48604871 99.47460456 11.52944424 101.43311891 9 104.25 C-0.23014004 113.66201472 -11.45997888 116.92723258 -24.3125 117.3125 C-41.71137108 116.98460608 -52.839879 110.34114766 -64.75390625 98.21484375 C-73.4654738 88.59345192 -79.46691771 76.08272793 -80 63 C-80.07734375 61.35064453 -80.07734375 61.35064453 -80.15625 59.66796875 C-80.57084248 42.89424793 -76.89586129 27.51161413 -65.625 14.625 C-64.10662914 13.06038434 -62.56523937 11.51772789 -61 10 C-59.89978516 8.90365234 -59.89978516 8.90365234 -58.77734375 7.78515625 C-43.22655822 -6.94283639 -19.00199051 -10.00369342 0 0 Z M-45.85546875 32.0703125 C-52.65526039 41.43891431 -54.34420549 52.4745886 -52.56640625 63.75 C-50.47191381 72.90852597 -46.27546466 81.34964515 -38.1875 86.5 C-28.11122297 91.7824119 -18.98040055 93.69691865 -8 90.375 C2.30118751 86.60051908 8.2409593 81.99093481 13 72 C13.3403125 71.28972656 13.680625 70.57945312 14.03125 69.84765625 C17.56774131 61.0555459 17.24392875 50.24216982 14.09375 41.375 C9.9988185 32.48314874 4.79137067 27.22152981 -4 23 C-4.65871094 22.66097656 -5.31742188 22.32195312 -5.99609375 21.97265625 C-19.67142606 15.80311963 -36.22946242 21.32971596 -45.85546875 32.0703125 Z " fill="#C1005C" transform="translate(1356,166)"/>
<path d="M0 0 C1.07507812 -0.00128906 2.15015625 -0.00257813 3.2578125 -0.00390625 C4.38960937 -0.00003906 5.52140625 0.00382813 6.6875 0.0078125 C7.81929687 0.00394531 8.95109375 0.00007812 10.1171875 -0.00390625 C11.19226562 -0.00261719 12.26734375 -0.00132812 13.375 0 C14.36886719 0.00112793 15.36273437 0.00225586 16.38671875 0.00341797 C18.6875 0.1328125 18.6875 0.1328125 19.6875 1.1328125 C19.84730437 3.57890248 19.94679447 6.00012308 20.00390625 8.44921875 C20.02468735 9.18027328 20.04546844 9.91132782 20.06687927 10.66453552 C20.13245024 13.00802906 20.19129432 15.35163789 20.25 17.6953125 C20.29317808 19.28061105 20.33679213 20.86589779 20.38085938 22.45117188 C20.4881392 26.34493287 20.5893849 30.23881022 20.6875 34.1328125 C21.71222412 34.15786865 22.73694824 34.1829248 23.79272461 34.20874023 C27.58159676 34.30265734 31.37027881 34.40291567 35.15893555 34.50512695 C36.80114303 34.54853547 38.44339739 34.59020608 40.08569336 34.63012695 C42.44138745 34.6876869 44.79684428 34.75142142 47.15234375 34.81640625 C47.89089096 34.83311874 48.62943817 34.84983124 49.3903656 34.86705017 C54.57362829 35.01894079 54.57362829 35.01894079 55.6875 36.1328125 C55.78649523 37.68236809 55.81829524 39.23634923 55.8203125 40.7890625 C55.82160156 41.72878906 55.82289062 42.66851562 55.82421875 43.63671875 C55.82035156 44.62542969 55.81648438 45.61414063 55.8125 46.6328125 C55.81636719 47.62152344 55.82023437 48.61023438 55.82421875 49.62890625 C55.82292969 50.56863281 55.82164063 51.50835937 55.8203125 52.4765625 C55.81918457 53.34474609 55.81805664 54.21292969 55.81689453 55.10742188 C55.6875 57.1328125 55.6875 57.1328125 54.6875 58.1328125 C52.16869483 58.29269741 49.67407734 58.39215475 47.15234375 58.44921875 C46.39909317 58.46999985 45.64584259 58.49078094 44.86976624 58.51219177 C42.4549401 58.57776675 40.04000202 58.63660871 37.625 58.6953125 C35.99152471 58.7384902 34.3580609 58.78210423 32.72460938 58.82617188 C28.71235536 58.93345612 24.69998836 59.03470071 20.6875 59.1328125 C20.61094433 66.1945088 20.55868928 73.25609663 20.52270508 80.31811523 C20.50769138 82.71659342 20.48727421 85.11504449 20.46118164 87.51342773 C20.42447096 90.97646814 20.40769884 94.4391431 20.39453125 97.90234375 C20.37904739 98.96113235 20.36356354 100.01992096 20.34761047 101.11079407 C20.34580308 109.24854256 20.99924499 117.47379873 25.9375 124.1953125 C32.0552332 128.50553362 38.88334299 128.50756085 46.125 128.7578125 C47.50848633 128.81582031 47.50848633 128.81582031 48.91992188 128.875 C51.17559143 128.96849926 53.43126916 129.0542516 55.6875 129.1328125 C55.71637814 132.61196191 55.73425687 136.09108081 55.75 139.5703125 C55.75837891 140.56353516 55.76675781 141.55675781 55.77539062 142.58007812 C55.77861328 143.52431641 55.78183594 144.46855469 55.78515625 145.44140625 C55.79039307 146.31595459 55.79562988 147.19050293 55.80102539 148.09155273 C55.6875 150.1328125 55.6875 150.1328125 54.6875 151.1328125 C50.29221629 151.3776751 45.89086398 151.36144781 41.48950195 151.37304688 C39.29012538 151.38263753 37.09173041 151.413588 34.89257812 151.4453125 C22.15525842 151.54135227 12.64600067 149.79769685 3.0625 140.8828125 C-5.95166904 131.57016104 -6.61090232 120.53624151 -6.69140625 108.17578125 C-6.70760262 106.82293014 -6.72478482 105.47009051 -6.74290466 104.11726379 C-6.78835572 100.57538145 -6.82329151 97.03348336 -6.85510254 93.49145508 C-6.90721419 87.80521061 -6.9720972 82.11913379 -7.04331779 76.43309975 C-7.06614067 74.44887071 -7.08212946 72.4645669 -7.09803772 70.48027039 C-7.11152756 69.28174942 -7.1250174 68.08322845 -7.13891602 66.84838867 C-7.14842789 65.79028488 -7.15793976 64.73218109 -7.16773987 63.64201355 C-7.14662896 61.13542473 -7.14662896 61.13542473 -8.3125 59.1328125 C-19.6975 58.6378125 -19.6975 58.6378125 -31.3125 58.1328125 C-31.3125 50.5428125 -31.3125 42.9528125 -31.3125 35.1328125 C-19.875 34.6953125 -19.875 34.6953125 -16.26391602 34.56469727 C-15.33248779 34.52658936 -14.40105957 34.48848145 -13.44140625 34.44921875 C-12.48306885 34.41256104 -11.52473145 34.37590332 -10.53735352 34.33813477 C-8.34111075 34.37446826 -8.34111075 34.37446826 -7.3125 33.1328125 C-7.16507984 30.7710504 -7.07765541 28.43464729 -7.03125 26.0703125 C-7.01284058 25.36382568 -6.99443115 24.65733887 -6.97546387 23.92944336 C-6.91654448 21.66398666 -6.86379573 19.39845391 -6.8125 17.1328125 C-6.74504576 14.15347843 -6.6713781 11.17439687 -6.59375 8.1953125 C-6.58017456 7.5036499 -6.56659912 6.8119873 -6.5526123 6.09936523 C-6.39519671 0.09784809 -5.88290405 0.00667645 0 0 Z " fill="#C1005C" transform="translate(1555.3125,128.8671875)"/>
<path d="M0 0 C0.64538886 -0.00382555 1.29077772 -0.00765109 1.95572382 -0.01159257 C4.10432042 -0.02185796 6.25264655 -0.01794288 8.40126038 -0.01396179 C9.94742071 -0.01831184 11.49357889 -0.02349596 13.03973389 -0.02944946 C17.22982198 -0.0428188 21.41981977 -0.04342047 25.60992503 -0.04088616 C29.11140115 -0.03981512 32.61285909 -0.0447032 36.11433131 -0.04949158 C44.37632935 -0.06057948 52.63828193 -0.06102812 60.90028381 -0.05497742 C69.41634835 -0.04893646 77.93224773 -0.06125336 86.44828409 -0.08254749 C93.76736055 -0.10017398 101.08638449 -0.10616322 108.4054814 -0.10290974 C112.77357035 -0.10109853 117.14154145 -0.10371701 121.50961113 -0.11762428 C125.61778252 -0.1302152 129.7256967 -0.12824666 133.83386421 -0.11521339 C135.33867099 -0.11285087 136.84349593 -0.1155707 138.34828186 -0.12383652 C147.48602447 -0.17039837 153.81909992 0.16684338 161.51478577 5.44819641 C165.87571056 9.80912121 168.49672348 14.25202485 168.76478577 20.51069641 C168.30915299 24.41612019 168.14608244 25.64275817 165.32728577 28.26069641 C162.72183361 28.66230546 160.53307123 28.80126762 157.9254303 28.76863098 C156.78544932 28.77799093 156.78544932 28.77799093 155.62243843 28.78753996 C153.06801231 28.80353408 150.51453198 28.79084123 147.96009827 28.77827454 C146.13202862 28.78369282 144.30396334 28.79081383 142.47590637 28.79951477 C137.50485832 28.81778599 132.53414148 28.81066495 127.56308746 28.79799843 C122.36745289 28.7878904 117.1718472 28.79725798 111.97621155 28.80354309 C103.25008539 28.81082591 94.52409452 28.80121514 85.79798889 28.78218079 C75.7010139 28.76041086 65.60436195 28.76746178 55.50739479 28.78948641 C46.84745831 28.80762232 38.18761924 28.81020759 29.52766991 28.79973173 C24.35146665 28.79348685 19.17541537 28.79268845 13.9992218 28.80587769 C9.13345931 28.81740928 4.2681144 28.80945985 -0.59760284 28.78630066 C-2.38627681 28.78099914 -4.17498576 28.78255189 -5.96364594 28.79135132 C-8.39986239 28.80223392 -10.83472904 28.7886331 -13.27085876 28.76863098 C-13.98379026 28.77755387 -14.69672176 28.78647676 -15.43125725 28.79567003 C-18.586013 28.74520151 -20.2512816 28.65209911 -22.60798645 26.4633255 C-24.58624691 22.37084844 -24.34662591 18.4027728 -23.01646423 14.17475891 C-20.33224149 8.13525774 -16.16628958 3.62943231 -9.96622372 1.20032978 C-6.47836461 0.20524875 -3.62132708 0.0064615 0 0 Z " fill="#D6E6E0" transform="translate(156.67271423339844,371.7393035888672)"/>
<path d="M0 0 C1.1653125 -0.00128906 2.330625 -0.00257812 3.53125 -0.00390625 C4.7584375 -0.00003906 5.985625 0.00382812 7.25 0.0078125 C9.09078125 0.00201172 9.09078125 0.00201172 10.96875 -0.00390625 C12.71671875 -0.00197266 12.71671875 -0.00197266 14.5 0 C15.57765625 0.00112793 16.6553125 0.00225586 17.765625 0.00341797 C20.25 0.1328125 20.25 0.1328125 21.25 1.1328125 C21.34887812 3.10478788 21.37632256 5.0803569 21.37698364 7.05480957 C21.37980347 8.34210464 21.38262329 9.62939972 21.38552856 10.95570374 C21.38358396 12.3955995 21.38153578 13.83549514 21.37939453 15.27539062 C21.38074851 16.78128604 21.38252843 18.28718111 21.38470459 19.79307556 C21.38927928 23.89420057 21.38748922 27.99530054 21.3843255 32.09642601 C21.38180209 36.37877853 21.38413939 40.66112884 21.38571167 44.94348145 C21.38753342 52.13631578 21.38512692 59.32913987 21.38037109 66.52197266 C21.37492846 74.84997584 21.37669112 83.17795454 21.3821975 91.50595713 C21.38672848 98.64309096 21.38737925 105.7802174 21.38475883 112.9173522 C21.38319597 117.18579605 21.38300253 121.45422838 21.38629532 125.72267151 C21.38917381 129.73465184 21.38719875 133.74660046 21.38140106 137.75857735 C21.38007334 139.23526011 21.38046778 140.71194552 21.38266373 142.18862724 C21.38537474 144.19602237 21.38138084 146.20342329 21.37698364 148.21081543 C21.37660662 149.33686943 21.37622959 150.46292343 21.37584114 151.62310028 C21.25 154.1328125 21.25 154.1328125 20.25 155.1328125 C18.33541718 155.23253036 16.41717683 155.26361839 14.5 155.265625 C13.3346875 155.26691406 12.169375 155.26820313 10.96875 155.26953125 C9.7415625 155.26566406 8.514375 155.26179687 7.25 155.2578125 C6.0228125 155.26167969 4.795625 155.26554688 3.53125 155.26953125 C2.3659375 155.26824219 1.200625 155.26695312 0 155.265625 C-1.07765625 155.26449707 -2.1553125 155.26336914 -3.265625 155.26220703 C-5.75 155.1328125 -5.75 155.1328125 -6.75 154.1328125 C-6.84887812 152.16083712 -6.87632256 150.1852681 -6.87698364 148.21081543 C-6.87980347 146.92352036 -6.88262329 145.63622528 -6.88552856 144.30992126 C-6.88358396 142.8700255 -6.88153578 141.43012986 -6.87939453 139.99023438 C-6.88074851 138.48433896 -6.88252843 136.97844389 -6.88470459 135.47254944 C-6.88927928 131.37142443 -6.88748922 127.27032446 -6.8843255 123.16919899 C-6.88180209 118.88684647 -6.88413939 114.60449616 -6.88571167 110.32214355 C-6.88753342 103.12930922 -6.88512692 95.93648513 -6.88037109 88.74365234 C-6.87492846 80.41564916 -6.87669112 72.08767046 -6.8821975 63.75966787 C-6.88672848 56.62253404 -6.88737925 49.4854076 -6.88475883 42.3482728 C-6.88319597 38.07982895 -6.88300253 33.81139662 -6.88629532 29.54295349 C-6.88917381 25.53097316 -6.88719875 21.51902454 -6.88140106 17.50704765 C-6.88007334 16.03036489 -6.88046778 14.55367948 -6.88266373 13.07699776 C-6.88537474 11.06960263 -6.88138084 9.06220171 -6.87698364 7.05480957 C-6.87660662 5.92875557 -6.87622959 4.80270157 -6.87584114 3.64252472 C-6.64056812 -1.0496418 -4.11965517 0.00431184 0 0 Z " fill="#165BCD" transform="translate(1017.75,124.8671875)"/>
<path d="M0 0 C1.12019531 -0.00128906 2.24039062 -0.00257813 3.39453125 -0.00390625 C4.57402344 -0.00003906 5.75351563 0.00382813 6.96875 0.0078125 C8.73798828 0.00201172 8.73798828 0.00201172 10.54296875 -0.00390625 C12.22326172 -0.00197266 12.22326172 -0.00197266 13.9375 0 C14.97326172 0.00112793 16.00902344 0.00225586 17.07617188 0.00341797 C19.46875 0.1328125 19.46875 0.1328125 20.46875 1.1328125 C20.54133946 3.31920703 20.55248783 5.50781639 20.53125 7.6953125 C20.52222656 8.89285156 20.51320313 10.09039062 20.50390625 11.32421875 C20.49230469 12.25105469 20.48070312 13.17789063 20.46875 14.1328125 C22.81738757 13.74966612 24.1271467 13.51086738 25.75 11.71484375 C26.1521875 11.13089844 26.554375 10.54695312 26.96875 9.9453125 C31.73565677 4.2765585 37.64267372 0.6026556 45.07177734 -0.12060547 C51.24342506 -0.37577224 57.27371402 -0.10545811 63.46875 0.1328125 C63.46875 7.7228125 63.46875 15.3128125 63.46875 23.1328125 C60.87 23.2153125 58.27125 23.2978125 55.59375 23.3828125 C47.73843476 23.75876524 40.74394676 24.86584313 34.33203125 29.765625 C32.46875 31.1328125 32.46875 31.1328125 30.46875 31.1328125 C30.22125 31.7721875 29.97375 32.4115625 29.71875 33.0703125 C28.39529448 36.31277853 26.94639258 39.48162727 25.46875 42.65625 C22.23817419 50.6569729 22.14335356 57.99123081 22.08984375 66.5625 C22.07365037 67.96258687 22.05646847 69.36266261 22.03834534 70.76272583 C21.99288589 74.42829262 21.957951 78.09387454 21.92614746 81.75958252 C21.87403755 87.64752324 21.80925705 93.5353022 21.73793221 99.42303848 C21.715067 101.47991708 21.69882571 103.53677467 21.68321228 105.59371948 C21.66972244 106.83235748 21.6562326 108.07099548 21.64233398 109.34716797 C21.63282211 110.44302216 21.62331024 111.53887634 21.61351013 112.66793823 C21.46875 115.1328125 21.46875 115.1328125 20.46875 116.1328125 C16.32912717 116.38582489 12.17769004 116.31803799 8.03125 116.3203125 C6.86013672 116.33255859 5.68902344 116.34480469 4.48242188 116.35742188 C3.36544922 116.35935547 2.24847656 116.36128906 1.09765625 116.36328125 C0.06713135 116.36739014 -0.96339355 116.37149902 -2.02514648 116.37573242 C-4.53125 116.1328125 -4.53125 116.1328125 -6.53125 114.1328125 C-6.78013897 112.12474728 -6.78013897 112.12474728 -6.77848816 109.6091156 C-6.78268265 108.65701202 -6.78687714 107.70490845 -6.79119873 106.72395325 C-6.78557922 105.67608139 -6.77995972 104.62820953 -6.77416992 103.54858398 C-6.77606827 102.44774475 -6.77796661 101.34690552 -6.77992249 100.21270752 C-6.78363907 96.55970222 -6.77291409 92.906894 -6.76171875 89.25390625 C-6.76052742 86.72567264 -6.76007369 84.19743859 -6.7603302 81.66920471 C-6.75876385 76.36545845 -6.75070369 71.06178111 -6.73706055 65.75805664 C-6.72132654 59.61867378 -6.7160627 53.4793535 -6.7167961 47.33995193 C-6.71740559 41.44208675 -6.71220016 35.54423967 -6.70400429 29.64637947 C-6.70081102 27.13243801 -6.69884869 24.61849469 -6.69811058 22.10455132 C-6.69595446 18.59888391 -6.68722631 15.09329679 -6.67651367 11.58764648 C-6.67696686 10.5377504 -6.67742004 9.48785431 -6.67788696 8.40614319 C-6.67362198 7.45685944 -6.66935699 6.50757568 -6.66496277 5.52952576 C-6.66328692 4.69974433 -6.66161108 3.8699629 -6.65988445 3.01503658 C-6.38386336 -1.02380007 -3.37960217 0.00368034 0 0 Z " fill="#C0015D" transform="translate(1446.53125,163.8671875)"/>
<path d="M0 0 C13.86 0 27.72 0 42 0 C39.72549857 4.54900285 36.99924533 8.5649656 34.125 12.75 C33.54999756 13.58966309 32.97499512 14.42932617 32.38256836 15.29443359 C28.11968167 21.47623153 23.70890323 27.52810958 19.13525391 33.48339844 C18.21224006 34.6899397 17.30284691 35.90702034 16.40722656 37.1340332 C15 39 15 39 13.35058594 40.82495117 C7.23830735 48.28915828 8.10657915 56.89536533 8.125 66.0625 C8.1068477 67.70771406 8.08603711 69.35290104 8.0625 70.99804688 C8.01098712 74.99904362 7.99554526 78.99869013 8 83 C0.97098062 83.12683815 -6.0577434 83.21436744 -13.08764648 83.2746582 C-15.47870919 83.29979315 -17.86969514 83.33390633 -20.26049805 83.37719727 C-23.69859764 83.43789061 -27.13568096 83.46622072 -30.57421875 83.48828125 C-31.64210129 83.51408768 -32.70998383 83.5398941 -33.81022644 83.56648254 C-38.54150505 83.56826816 -41.17645414 83.5516675 -45.17700195 80.87182617 C-47.33611285 77.47051085 -47.61923643 75.57082072 -47.59375 71.5625 C-47.59117188 70.33789062 -47.58859375 69.11328125 -47.5859375 67.8515625 C-47.55757813 66.58054687 -47.52921875 65.30953125 -47.5 64 C-47.50257812 62.72898438 -47.50515625 61.45796875 -47.5078125 60.1484375 C-47.39502386 49.43351638 -44.54039572 45.22638521 -37.1015625 37.90625 C-36.42958832 37.23710571 -35.75761414 36.56796143 -35.0652771 35.87854004 C-32.92318521 33.7476005 -30.77424813 31.62371919 -28.625 29.5 C-27.18703893 28.07207875 -25.74953404 26.64369795 -24.3125 25.21484375 C-21.66639174 22.58502902 -19.01767821 19.95790214 -16.36572266 17.33398438 C-13.56785229 14.56522381 -10.78195315 11.78476194 -8 9 C-7.34515625 8.35675781 -6.6903125 7.71351562 -6.015625 7.05078125 C-5.14164063 6.19033203 -5.14164063 6.19033203 -4.25 5.3125 C-3.65703125 4.73113281 -3.0640625 4.14976562 -2.453125 3.55078125 C-0.90358196 2.04486026 -0.90358196 2.04486026 0 0 Z " fill="#C0015C" transform="translate(131,0)"/>
<path d="M0 0 C5.85307178 -0.19844802 11.70416794 -0.343246 17.55981445 -0.43945312 C19.5494194 -0.479572 21.53879012 -0.53408374 23.52758789 -0.60351562 C26.39528197 -0.7010904 29.25984956 -0.74603859 32.12890625 -0.78125 C33.01147598 -0.82254028 33.89404572 -0.86383057 34.80335999 -0.90637207 C38.6785926 -0.90915855 41.0486621 -0.79950123 44.08322144 1.75073242 C45.84624233 3.76515588 47.425939 5.83692213 49 8 C49.804375 8.78375 50.60875 9.5675 51.4375 10.375 C53 12 53 12 53 14 C53.89173416 14.40474045 53.89173416 14.40474045 54.80148315 14.81765747 C56.99114187 15.99523618 58.4237904 17.17038425 60.17626953 18.91748047 C60.77013458 19.5050412 61.36399963 20.09260193 61.9758606 20.69796753 C62.91980179 21.64798141 62.91980179 21.64798141 63.8828125 22.6171875 C64.86602982 23.59753464 64.86602982 23.59753464 65.86911011 24.59768677 C67.25162658 25.97884413 68.6316281 27.36252288 70.00927734 28.74853516 C72.11728014 30.86724094 74.23572592 32.9750787 76.35546875 35.08203125 C77.6985584 36.42644254 79.04102749 37.77147412 80.3828125 39.1171875 C81.01615509 39.74648163 81.64949768 40.37577576 82.30203247 41.0241394 C83.18337357 41.91493698 83.18337357 41.91493698 84.08251953 42.82373047 C84.59896027 43.34176239 85.115401 43.85979431 85.64749146 44.39352417 C90.45484926 50.10358357 89.3302553 56.92628854 89.3125 64 C89.32861328 65.28390625 89.34472656 66.5678125 89.36132812 67.890625 C89.36197266 69.12296875 89.36261719 70.3553125 89.36328125 71.625 C89.36626221 72.75164062 89.36924316 73.87828125 89.37231445 75.0390625 C88.94852519 78.40936819 88.34826848 79.59033497 86 82 C83.66511536 82.48101807 83.66511536 82.48101807 80.88598633 82.45410156 C79.84513382 82.45379944 78.80428131 82.45349731 77.73188782 82.45318604 C76.60993515 82.43254089 75.48798248 82.41189575 74.33203125 82.390625 C73.18208176 82.38496521 72.03213226 82.37930542 70.84733582 82.37347412 C67.1686366 82.35105474 63.49090563 82.3008458 59.8125 82.25 C57.32097759 82.2299423 54.82943994 82.21169026 52.33789062 82.1953125 C46.22492916 82.15117166 40.11253374 82.08420349 34 82 C34.03778564 81.06430176 34.07557129 80.12860352 34.11450195 79.16455078 C35.20981309 54.65065677 35.20981309 54.65065677 23.625 33.8984375 C23.02042969 33.26389648 22.41585938 32.62935547 21.79296875 31.97558594 C18.72839677 28.59888163 16.24906087 24.8256327 13.6875 21.0625 C12.70994694 19.66462315 11.72957134 18.268715 10.74609375 16.875 C10.05362549 15.89273437 10.05362549 15.89273437 9.34716797 14.890625 C6.73144169 11.21969635 4.03520993 7.60785062 1.328125 4.00390625 C0 2 0 2 0 0 Z " fill="#C0015C" transform="translate(285,0)"/>
<path d="M0 0 C9.24 0 18.48 0 28 0 C29.40244139 4.34756831 30.79635124 8.68481178 32.1328125 13.05078125 C33.39538898 17.14490139 34.76049563 21.1882059 36.1796875 25.23046875 C42.87709829 45.21620518 42.64921961 61.90036254 42 83 C23.52 83 5.04 83 -14 83 C-15.50612569 54.84703511 -12.88496388 25.76992777 0 0 Z " fill="#C1025C" transform="translate(215,0)"/>
<path d="M0 0 C27.06 0 54.12 0 82 0 C82.99 3.96 83.98 7.92 85 12 C91.43549367 24.08617104 101.39257309 28.71189398 114 33 C114 33.33 114 33.66 114 34 C65.82 34 17.64 34 -32 34 C-27.91667077 31.27778051 -23.49721473 29.27955867 -19.06835938 27.18554688 C-12.746442 24.10442531 -7.38772357 20.82632474 -4.25 14.25 C-3.86328125 13.47140625 -3.4765625 12.6928125 -3.078125 11.890625 C-1.64737695 8.05456138 -0.88815537 3.99669915 0 0 Z " fill="#B7CEC7" transform="translate(188,338)"/>
<path d="M0 0 C1.98223229 0.06528067 3.964671 0.1245839 5.94726562 0.17773438 C10.78247566 0.32031912 15.60770527 0.54412514 20.4375 0.8125 C17.96429979 10.99606555 15.29250124 21.09753041 12.34545898 31.15429688 C11.73621395 33.23457265 11.13248841 35.31639924 10.52929688 37.3984375 C7.57814748 47.53120504 7.57814748 47.53120504 6.4375 49.8125 C-13.6925 49.8125 -33.8225 49.8125 -54.5625 49.8125 C-54.5625 61.0325 -54.5625 72.2525 -54.5625 83.8125 C-54.8925 83.8125 -55.2225 83.8125 -55.5625 83.8125 C-57.87950983 48.00281602 -57.87950983 48.00281602 -48.75170898 37.35668945 C-47.62438343 36.12541337 -46.47900038 34.91043348 -45.31640625 33.71240234 C-42.13992733 30.27151162 -39.56017912 26.38981329 -36.875 22.5625 C-35.34893368 20.45924379 -33.81936517 18.36412699 -32.24633789 16.2956543 C-30.4250909 13.74120569 -30.4250909 13.74120569 -28.92358398 10.40161133 C-22.51126764 -2.23204955 -12.88379048 -0.73734792 0 0 Z " fill="#B9CCC6" transform="translate(194.5625,-0.8125)"/>
<path d="M0 0 C36.27116595 -2.9969151 36.27116595 -2.9969151 45.07177734 1.60693359 C49.47415954 5.75017891 51.68524941 10.87426358 53.86767578 16.43017578 C55.7027546 20.59491051 58.47077445 23.91717281 61.3125 27.4375 C62.29850106 28.72494851 63.27915167 30.01651572 64.25390625 31.3125 C64.71555176 31.92609375 65.17719727 32.5396875 65.65283203 33.171875 C75 45.85610729 75 45.85610729 75 48 C54.87 48 34.74 48 14 48 C10.62427667 38.99807112 10.62427667 38.99807112 9.6496582 35.63525391 C9.42965652 34.88152496 9.20965485 34.12779602 8.98298645 33.35122681 C8.75785873 32.56758759 8.53273102 31.78394836 8.30078125 30.9765625 C8.0608696 30.14917572 7.82095795 29.32178894 7.57377625 28.46932983 C7.07230679 26.7369957 6.57239119 25.00421105 6.07397461 23.27099609 C5.30828592 20.61035678 4.53631264 17.95159651 3.76367188 15.29296875 C3.27566882 13.60427437 2.78802555 11.91547596 2.30078125 10.2265625 C2.06958084 9.43077789 1.83838043 8.63499329 1.60017395 7.81509399 C0 2.23038626 0 2.23038626 0 0 Z " fill="#B8CDC6" transform="translate(243,0)"/>
<path d="M0 0 C20.46 0 40.92 0 62 0 C62 11.22 62 22.44 62 34 C78.5 34 95 34 112 34 C112 34.33 112 34.66 112 35 C75.04 35 38.08 35 0 35 C0 23.45 0 11.9 0 0 Z " fill="#D7E2DE" transform="translate(257,48)"/>
<path d="M0 0 C20.13 0 40.26 0 61 0 C61 11.22 61 22.44 61 34 C40.87 34 20.74 34 0 34 C0 22.78 0 11.56 0 0 Z " fill="#D7E6E0" transform="translate(140,49)"/>
<path d="M0 0 C18.48 0 36.96 0 56 0 C56 11.88 56 23.76 56 36 C37.52 36 19.04 36 0 36 C0 24.12 0 12.24 0 0 Z " fill="#F1066F" transform="translate(201,47)"/>
<path d="M0 0 C1.40564713 0.00666183 1.40564713 0.00666183 2.83969116 0.01345825 C3.90063995 0.01360931 4.96158875 0.01376038 6.0546875 0.01391602 C7.20367523 0.02423859 8.35266296 0.03456116 9.53646851 0.04519653 C10.71002899 0.04802643 11.88358948 0.05085632 13.0927124 0.05377197 C16.85271262 0.06499548 20.61247739 0.09010411 24.37240601 0.11550903 C26.91667341 0.12553602 29.46094453 0.13466236 32.00521851 0.14285278 C38.25277873 0.16324299 44.49982783 0.20238822 50.74740601 0.24050903 C50.74740601 11.79050903 50.74740601 23.34050903 50.74740601 35.24050903 C43.71716868 35.3553405 36.69018775 35.45487197 29.65975952 35.51516724 C27.26869681 35.54030218 24.87771087 35.57441537 22.48690796 35.6177063 C19.04880836 35.67839965 15.61172504 35.70672975 12.17318726 35.72879028 C11.10530472 35.75459671 10.03742218 35.78040314 8.93717957 35.80699158 C4.20961668 35.80877579 1.56975684 35.78929023 -2.43179321 33.118927 C-4.60754361 29.67938595 -4.85923235 27.74738434 -4.81118774 23.69754028 C-4.8040979 22.45939575 -4.79700806 21.22125122 -4.78970337 19.94558716 C-4.75683228 18.66103638 -4.72396118 17.3764856 -4.69009399 16.05300903 C-4.68429321 14.75685669 -4.67849243 13.46070435 -4.67251587 12.12527466 C-4.52052345 0.48265543 -4.52052345 0.48265543 0 0 Z " fill="#F0036D" transform="translate(88.25259399414063,47.759490966796875)"/>
<path d="M0 0 C17.82 0 35.64 0 54 0 C56.27901824 4.55803648 55.2301617 10.87078906 55.25 15.875 C55.270625 17.16792969 55.29125 18.46085937 55.3125 19.79296875 C55.32023437 21.65501953 55.32023437 21.65501953 55.328125 23.5546875 C55.34214355 25.26374268 55.34214355 25.26374268 55.35644531 27.00732422 C54.9514722 30.40743405 54.36744825 31.57460714 52 34 C49.66511536 34.48101807 49.66511536 34.48101807 46.88598633 34.45410156 C45.84513382 34.45379944 44.80428131 34.45349731 43.73188782 34.45318604 C42.60993515 34.43254089 41.48798248 34.41189575 40.33203125 34.390625 C39.18208176 34.38496521 38.03213226 34.37930542 36.84733582 34.37347412 C33.1686366 34.35105474 29.49090563 34.3008458 25.8125 34.25 C23.32097759 34.2299423 20.82943994 34.21169026 18.33789062 34.1953125 C12.22458584 34.15457072 6.11337869 34.07628479 0 34 C0 22.78 0 11.56 0 0 Z " fill="#F0006C" transform="translate(319,48)"/>
<path d="M0 0 C0.99 0 1.98 0 3 0 C2.67 0.99 2.34 1.98 2 3 C1.90025663 4.43383808 1.85391764 5.87175381 1.84178162 7.30900574 C1.8319928 8.18820175 1.82220398 9.06739777 1.81211853 9.97323608 C1.80636307 10.93492706 1.8006076 11.89661804 1.79467773 12.88745117 C1.78477814 13.90226059 1.77487854 14.91707001 1.76467896 15.96263123 C1.73304791 19.32271986 1.70830009 22.68282264 1.68359375 26.04296875 C1.66302562 28.37039053 1.64202918 30.69780857 1.62062073 33.02522278 C1.56538558 39.15559863 1.51598262 45.28600828 1.46777344 51.41644287 C1.41756899 57.67023735 1.3618774 63.92398267 1.30664062 70.17773438 C1.19904138 82.45178093 1.09760029 94.72587015 1 107 C0.67 107 0.34 107 0 107 C0 71.69 0 36.38 0 0 Z " fill="#BF0E66" transform="translate(1112,172)"/>
</svg>
