<?xml version="1.0" encoding="UTF-8"?>
<svg version="1.1" xmlns="http://www.w3.org/2000/svg" width="1640" height="400">
<path d="M0 0 C3.14375064 1.33124438 5.9794972 3.07530244 8.875 4.875 C9.70870117 5.37531738 10.54240234 5.87563477 11.40136719 6.39111328 C13.11920592 7.42266339 14.83341541 8.46028131 16.54394531 9.50390625 C20.09103121 11.66459634 23.66906427 13.77106486 27.25 15.875 C27.9294165 16.27654297 28.60883301 16.67808594 29.30883789 17.09179688 C36.23385015 21.17216719 43.24715041 25.09331959 50.25610352 29.02709961 C56.80470657 32.71779416 63.26406326 36.53362205 69.6875 40.4375 C75.71354385 44.09792396 81.74944263 47.47564004 88.109375 50.53125 C92.16805818 52.59349983 96.03281232 54.9518522 99.91845703 57.31738281 C105.30181581 60.59373308 110.73341205 63.78036313 116.1875 66.9375 C117.00162354 67.41018311 117.81574707 67.88286621 118.65454102 68.36987305 C119.42209717 68.81371338 120.18965332 69.25755371 120.98046875 69.71484375 C121.66004639 70.10792725 122.33962402 70.50101074 123.03979492 70.90600586 C124.99936973 71.99964824 126.99008579 73.0026632 129 74 C129.20870479 84.19629896 129.36853048 94.3920885 129.46630955 104.5900898 C129.51324472 109.3258022 129.57687831 114.0600516 129.67895508 118.79492188 C129.77688639 123.36621288 129.83058528 127.93609886 129.85389519 132.508358 C129.87050109 134.25084432 129.9029322 135.99325524 129.95157051 137.73514175 C130.31721209 151.37476153 130.31721209 151.37476153 127.10856628 155.33374023 C124.79081235 156.90704133 122.60322564 157.98241584 120 159 C119.10821045 159.5475293 118.2164209 160.09505859 117.29760742 160.65917969 C116.57420166 161.07586914 115.8507959 161.49255859 115.10546875 161.921875 C114.29529297 162.38980469 113.48511719 162.85773438 112.65039062 163.33984375 C111.83763672 163.80519531 111.02488281 164.27054688 110.1875 164.75 C109.35541016 165.23082031 108.52332031 165.71164063 107.66601562 166.20703125 C104.14943189 168.23181643 100.64493471 170.21367949 97 172 C97 172.66 97 173.32 97 174 C97.62003906 174.32871094 98.24007813 174.65742188 98.87890625 174.99609375 C106.33426241 179.00049902 113.58761564 183.30249934 120.82373047 187.68457031 C124.87595797 190.13390863 128.93889831 192.5654149 133 195 C134.72530319 196.03508495 136.45056423 197.07024018 138.17578125 198.10546875 C139.00158691 198.60095215 139.82739258 199.09643555 140.67822266 199.60693359 C142.69563802 200.81738281 144.71305339 202.02783203 146.73046875 203.23828125 C147.30385986 203.5822998 147.87725098 203.92631836 148.46801758 204.28076172 C149.62286008 204.97370001 150.7776444 205.66673527 151.93237305 206.35986328 C156.96625885 209.38112931 162.0008324 212.4012232 167.04443359 215.40625 C169.22633518 216.72067211 171.39608096 218.05548296 173.55322266 219.41015625 C179.24586151 222.95431931 184.45278182 225.85836093 190.97167969 227.54467773 C195.687265 229.85225731 200.01397413 233.15431281 201.77978516 238.25047302 C202.17911301 240.7915247 202.34403375 243.2412924 202.4140625 245.8125 C202.45759354 246.73214035 202.50112457 247.6517807 202.54597473 248.59928894 C202.6514692 251.5059266 202.68213692 254.40404529 202.6875 257.3125 C202.70068771 258.75370712 202.70068771 258.75370712 202.71414185 260.22402954 C202.69829236 275.59558344 202.69829236 275.59558344 199.33886719 280.35180664 C196.97198511 281.9708084 194.6645976 282.94315836 192 284 C189.89788073 285.22924702 187.81289033 286.48806979 185.7421875 287.76953125 C184.04191796 288.77287618 182.34161179 289.77616427 180.63931274 290.77606201 C178.83711173 291.8347573 177.03683706 292.89666154 175.23706055 293.95947266 C172.87351903 295.35513196 170.50950786 296.74998835 168.14501953 298.14404297 C158.58425795 303.78609464 149.08407453 309.50981389 139.71411133 315.46435547 C136.47443135 317.51033504 133.20944473 319.45765929 129.84765625 321.296875 C124.33290457 324.32775811 118.97995459 327.61586518 113.61279297 330.89907837 C104.28190905 336.60513406 94.92600472 342.26457905 85.5 347.8125 C71.52357721 356.03990929 57.61957536 364.38138931 43.7902832 372.85375977 C30.98007432 380.69401825 18.09417512 388.40966872 5.11499023 395.96704102 C1.87092839 397.72863247 1.87092839 397.72863247 -1 400 C-5.50919625 400.53592906 -7.95014767 399.17142084 -11.734375 396.80859375 C-12.85287842 396.11878418 -13.97138184 395.42897461 -15.1237793 394.71826172 C-16.33254956 393.95805556 -17.54128901 393.1978004 -18.75 392.4375 C-20.00809713 391.65776781 -21.26697935 390.87930104 -22.52661133 390.10205078 C-25.10628609 388.50959972 -27.68314044 386.91272789 -30.25830078 385.31298828 C-35.69895052 381.94086349 -41.19236402 378.65732955 -46.6875 375.375 C-48.73318804 374.1499318 -50.77876089 372.92467123 -52.82421875 371.69921875 C-53.83532715 371.09384277 -54.84643555 370.4884668 -55.88818359 369.86474609 C-59.10028122 367.9399068 -62.31018868 366.01146028 -65.51953125 364.08203125 C-75.42776827 358.12669448 -85.34504974 352.19103801 -95.32104492 346.34985352 C-100.40319731 343.36773315 -105.42441391 340.29471541 -110.43359375 337.19140625 C-117.44438951 332.86533645 -124.53341562 328.66611073 -131.60205078 324.43554688 C-135.00707983 322.39710554 -138.40984834 320.35490633 -141.8125 318.3125 C-143.02993365 317.58200747 -144.24738138 316.85153841 -145.46484375 316.12109375 C-147.76953125 314.73828125 -150.07421875 313.35546875 -152.37890625 311.97265625 C-152.94867188 311.63081299 -153.5184375 311.28896973 -154.10546875 310.93676758 C-155.29693231 310.22185657 -156.48833744 309.50684818 -157.6796875 308.79174805 C-161.7420756 306.35359124 -165.80615789 303.91828208 -169.87109375 301.484375 C-172.018231 300.19791972 -174.16536641 298.91146138 -176.3125 297.625 C-177.29524902 297.03702637 -178.27799805 296.44905273 -179.29052734 295.84326172 C-181.34710104 294.61065185 -183.39081054 293.35638776 -185.42285156 292.08374023 C-188.10539685 290.44962452 -190.84886605 289.13412506 -193.70996094 287.84008789 C-205.45530375 282.19831256 -205.45530375 282.19831256 -208.09671021 276.72924805 C-209.96085971 270.29129724 -209.86533062 263.8311246 -209.625 257.1875 C-209.60909317 255.6959137 -209.60909317 255.6959137 -209.59286499 254.17419434 C-209.30419453 238.39738491 -209.30419453 238.39738491 -204.77490234 231.71923828 C-199.25279421 226.79918305 -192.84539134 224.2724556 -185.88330078 221.99121094 C-182.20787663 220.72768663 -179.46166875 219.04996408 -176.25 216.875 C-168.35227378 211.95734914 -160.35880161 207.20007947 -152.37597656 202.42236328 C-149.08248628 200.45073624 -145.79116049 198.47551262 -142.5 196.5 C-141.30860828 195.78513203 -140.11720169 195.07028885 -138.92578125 194.35546875 C-138.30783691 193.98470215 -137.68989258 193.61393555 -137.05322266 193.23193359 C-119.82421875 182.89453125 -119.82421875 182.89453125 -117.45068359 181.47509766 C-115.70857052 180.42649762 -113.97251737 179.3678009 -112.24072266 178.30224609 C-111.34272949 177.75262207 -110.44473633 177.20299805 -109.51953125 176.63671875 C-108.29327026 175.88007935 -108.29327026 175.88007935 -107.04223633 175.1081543 C-105 174 -105 174 -103 174 C-103 173.34 -103 172.68 -103 172 C-103.86133545 171.740979 -104.7226709 171.48195801 -105.61010742 171.21508789 C-109.09495452 169.96596409 -112.04072668 168.4184234 -115.23828125 166.55859375 C-115.80451706 166.23085464 -116.37075287 165.90311554 -116.95414734 165.56544495 C-118.13962502 164.87798401 -119.32359641 164.1879195 -120.50610352 163.49536133 C-122.32182147 162.43204117 -124.14188772 161.37650471 -125.96289062 160.32226562 C-134.82861268 155.17138732 -134.82861268 155.17138732 -136 154 C-136.12156404 151.55196588 -136.17858482 149.13161612 -136.19287109 146.68212891 C-136.20513733 145.53334007 -136.20513733 145.53334007 -136.21765137 144.36134338 C-136.24254871 141.81642451 -136.25903143 139.27156151 -136.2734375 136.7265625 C-136.27876118 135.8596516 -136.28408485 134.99274071 -136.28956985 134.09955978 C-136.31631903 129.51202019 -136.33568911 124.92450799 -136.35009766 120.33691406 C-136.36675927 115.5894728 -136.4115441 110.84272392 -136.4624691 106.09554482 C-136.4960639 102.45304533 -136.50766646 98.8107118 -136.51332474 95.16807175 C-136.52005775 93.41769488 -136.53533276 91.66732969 -136.55921555 89.91710281 C-136.59070848 87.46970842 -136.59092886 85.02420254 -136.58349609 82.57666016 C-136.59990143 81.85030869 -136.61630676 81.12395721 -136.63320923 80.37559509 C-136.60800171 78.35317993 -136.60800171 78.35317993 -136 75 C-133.6781311 73.15292358 -133.6781311 73.15292358 -131 72 C-129.86691406 71.33226563 -128.73382813 70.66453125 -127.56640625 69.9765625 C-125.49606907 68.76014787 -123.42530423 67.54446347 -121.35449219 66.32885742 C-117.04568283 63.79736434 -112.7435178 61.25526055 -108.44921875 58.69921875 C-99.76858224 53.53749731 -91.10038576 48.43340219 -82.16796875 43.71875 C-77.66357756 41.27493727 -73.2683859 38.65686289 -68.86035156 36.04443359 C-57.53295451 29.34000218 -46.0865898 22.83602998 -34.59667969 16.41455078 C-4.36223358 -0.48469262 -4.36223358 -0.48469262 0 0 Z " fill="#468FDA" transform="translate(208,0)"/>
<path d="M0 0 C3.14375064 1.33124438 5.9794972 3.07530244 8.875 4.875 C9.70870117 5.37531738 10.54240234 5.87563477 11.40136719 6.39111328 C13.11920592 7.42266339 14.83341541 8.46028131 16.54394531 9.50390625 C20.09103121 11.66459634 23.66906427 13.77106486 27.25 15.875 C27.9294165 16.27654297 28.60883301 16.67808594 29.30883789 17.09179688 C36.23385015 21.17216719 43.24715041 25.09331959 50.25610352 29.02709961 C56.80470657 32.71779416 63.26406326 36.53362205 69.6875 40.4375 C75.7110114 44.09638566 81.74415148 47.47329336 88.1015625 50.52734375 C92.87141494 52.9508402 97.40151344 55.76880792 101.96484375 58.5546875 C104.83287038 60.30416236 107.72212497 62.01100933 110.62890625 63.6953125 C111.39887939 64.14229492 112.16885254 64.58927734 112.9621582 65.04980469 C114.45739246 65.91589491 115.95455221 66.77867166 117.45385742 67.63769531 C118.47443237 68.2308252 118.47443237 68.2308252 119.515625 68.8359375 C120.41716309 69.35486572 120.41716309 69.35486572 121.33691406 69.88427734 C123.12580394 71.08439871 124.49127046 72.46980692 126 74 C126.66 74.33 127.32 74.66 128 75 C128 75.66 128 76.32 128 77 C126.42025391 77.81791016 126.42025391 77.81791016 124.80859375 78.65234375 C117.05183666 82.69662769 109.41595051 86.85394298 101.94897461 91.41186523 C96.5250821 94.71376508 91.02158811 97.86468536 85.5 101 C75.77586948 106.52954406 66.1696998 112.2296279 56.625 118.0625 C47.76169745 123.45488517 38.72902865 128.50634179 29.65454102 133.53442383 C21.40053101 138.13981814 13.34351692 143.01025696 5.37255859 148.08886719 C4.55996582 148.60352539 3.74737305 149.11818359 2.91015625 149.6484375 C2.19996338 150.10395996 1.48977051 150.55948242 0.75805664 151.02880859 C-1 152 -1 152 -3 152 C-3 177.41 -3 202.82 -3 229 C-6.48263242 227.60694703 -9.38091423 226.31466148 -12.57421875 224.46875 C-13.40630859 223.98792969 -14.23839844 223.50710937 -15.09570312 223.01171875 C-15.95099609 222.51285156 -16.80628906 222.01398438 -17.6875 221.5 C-18.55439453 221.00113281 -19.42128906 220.50226563 -20.31445312 219.98828125 C-26.74485448 216.25514552 -26.74485448 216.25514552 -29 214 C-30.60830745 213.32969343 -32.21702691 212.6603609 -33.82763672 211.99560547 C-38.43121681 209.8857606 -42.71669855 207.15115303 -47.0625 204.5625 C-55.08880203 199.8240437 -63.16384803 195.22277387 -71.375 190.8125 C-78.17765994 187.1557749 -84.82479811 183.34174949 -91.375 179.25 C-96.0949669 176.30157467 -100.79813111 173.48275067 -105.81617737 171.06803894 C-107.10888946 170.4366721 -108.39422822 169.78972787 -109.66783142 169.12065125 C-113.42789806 167.15616616 -117.05751458 165.63996559 -121.11352539 164.38671875 C-127.27130701 162.12440372 -132.26062799 159.5492209 -136 154 C-139.94389324 142.51129779 -138.17384317 128.64134069 -137.66473389 116.72949219 C-137.52799028 112.99504479 -137.48558999 109.2621716 -137.44690037 105.52561092 C-137.39711324 101.06698578 -137.2977899 96.60992531 -137.19140625 92.15234375 C-137.16593814 90.87947164 -137.16593814 90.87947164 -137.13995552 89.58088493 C-137.08211929 87.18604913 -136.98961442 84.79529374 -136.88500977 82.40209961 C-136.87156525 81.69302963 -136.85812073 80.98395966 -136.8442688 80.25340271 C-136.7358551 78.27915955 -136.7358551 78.27915955 -136 75 C-133.6592865 73.16383362 -133.6592865 73.16383362 -131 72 C-129.86691406 71.33226563 -128.73382813 70.66453125 -127.56640625 69.9765625 C-125.49606907 68.76014787 -123.42530423 67.54446347 -121.35449219 66.32885742 C-117.04568283 63.79736434 -112.7435178 61.25526055 -108.44921875 58.69921875 C-99.76858224 53.53749731 -91.10038576 48.43340219 -82.16796875 43.71875 C-77.66357756 41.27493727 -73.2683859 38.65686289 -68.86035156 36.04443359 C-57.53295451 29.34000218 -46.0865898 22.83602998 -34.59667969 16.41455078 C-4.36223358 -0.48469262 -4.36223358 -0.48469262 0 0 Z " fill="#5DD0E4" transform="translate(208,0)"/>
<path d="M0 0 C1.98 0.66 3.96 1.32 6 2 C6.20870479 12.19629896 6.36853048 22.3920885 6.46630955 32.5900898 C6.51324472 37.3258022 6.57687831 42.0600516 6.67895508 46.79492188 C6.77688639 51.36621288 6.83058528 55.93609886 6.85389519 60.508358 C6.87050109 62.25084432 6.9029322 63.99325524 6.95157051 65.73514175 C7.31721209 79.37476153 7.31721209 79.37476153 4.10856628 83.33374023 C1.79081235 84.90704133 -0.39677436 85.98241584 -3 87 C-4.33768433 87.82129395 -4.33768433 87.82129395 -5.70239258 88.65917969 C-6.42579834 89.07586914 -7.1492041 89.49255859 -7.89453125 89.921875 C-8.70470703 90.38980469 -9.51488281 90.85773438 -10.34960938 91.33984375 C-11.16236328 91.80519531 -11.97511719 92.27054687 -12.8125 92.75 C-13.64458984 93.23082031 -14.47667969 93.71164063 -15.33398438 94.20703125 C-21.53375929 97.77674929 -21.53375929 97.77674929 -24.1394043 99.02441406 C-26.16990589 99.97132104 -26.16990589 99.97132104 -28 102 C-28.74378906 102.13277344 -29.48757813 102.26554687 -30.25390625 102.40234375 C-33.70140761 103.15265343 -35.97400917 104.65286089 -38.9375 106.5625 C-40.09380541 107.29623918 -41.25140154 108.02794752 -42.41015625 108.7578125 C-43.00328613 109.13196289 -43.59641602 109.50611328 -44.20751953 109.89160156 C-47.61561824 111.99903389 -51.11662857 113.94402635 -54.60473633 115.91479492 C-59.80096876 118.86248375 -64.92198602 121.92811025 -70.02685547 125.03100586 C-72.96582225 126.81094912 -75.89196489 128.53102818 -79 130 C-75.24643066 133.15553402 -71.30029853 135.73302604 -67.07421875 138.1953125 C-66.41331741 138.58476044 -65.75241608 138.97420837 -65.07148743 139.37545776 C-63.66729819 140.20269166 -62.26217986 141.02835021 -60.85620117 141.85253906 C-57.23517059 143.97713789 -53.62411038 146.11857005 -50.01171875 148.2578125 C-48.61377177 149.08496471 -47.21582261 149.91211326 -45.81787109 150.73925781 C-36.53647831 156.23431853 -36.53647831 156.23431853 -32 159 C-31.36151123 159.37785645 -30.72302246 159.75571289 -30.06518555 160.14501953 C-28.375 161.1875 -28.375 161.1875 -26 163 C-26 163.99 -26 164.98 -26 166 C-28.17358398 167.66308594 -28.17358398 167.66308594 -31.24609375 169.484375 C-32.0757943 169.98248688 -32.0757943 169.98248688 -32.92225647 170.49066162 C-34.7547001 171.58748306 -36.59594732 172.66855445 -38.4375 173.75 C-39.72198346 174.51522071 -41.00583089 175.28150998 -42.2890625 176.04882812 C-44.91965399 177.6196688 -47.55366838 179.18450441 -50.19091797 180.74414062 C-55.64316581 183.96960196 -61.07009399 187.23712332 -66.5 190.5 C-67.50482422 191.10199219 -68.50964844 191.70398438 -69.54492188 192.32421875 C-76.91963186 196.74250605 -84.27726061 201.18826863 -91.62545776 205.65045166 C-93.41615396 206.73704721 -95.20808085 207.82158801 -97.00024414 208.90576172 C-102.22992396 212.07330212 -107.44133702 215.26245265 -112.59375 218.5546875 C-113.42334229 219.0796582 -114.25293457 219.60462891 -115.10766602 220.14550781 C-116.60836578 221.09848283 -118.101739 222.0631456 -119.58569336 223.04199219 C-124.36716499 226.06436035 -124.36716499 226.06436035 -127.46777344 225.74902344 C-129.97579078 225.007161 -131.76607669 224.13722545 -133.95703125 222.7265625 C-134.72297607 222.24147217 -135.4889209 221.75638184 -136.27807617 221.2565918 C-137.11443604 220.7181665 -137.9507959 220.17974121 -138.8125 219.625 C-148.01084177 213.81357115 -157.31782248 208.21575443 -166.6875 202.6875 C-177.86368118 196.08636182 -188.95485102 189.36897597 -199.98852539 182.53198242 C-209.21689819 176.82877648 -218.57027194 171.36244777 -228 166 C-226.59507703 162.55551012 -225.19247759 161.18615156 -221.9765625 159.36328125 C-221.13343506 158.87633789 -220.29030762 158.38939453 -219.42163086 157.88769531 C-218.49874268 157.36788086 -217.57585449 156.84806641 -216.625 156.3125 C-214.63803751 155.17020174 -212.65242875 154.02554646 -210.66796875 152.87890625 C-209.59981934 152.26289551 -208.53166992 151.64688477 -207.43115234 151.01220703 C-203.75346485 148.8554189 -200.1168719 146.6403106 -196.48828125 144.40234375 C-195.85980286 144.01569046 -195.23132446 143.62903717 -194.58380127 143.23066711 C-192.08311351 141.69154558 -189.58284245 140.15195561 -187.09039307 138.59951782 C-185.34424292 137.51277757 -183.59264295 136.43534744 -181.83984375 135.359375 C-180.83300537 134.73514648 -179.82616699 134.11091797 -178.78881836 133.46777344 C-176.05857389 132.03082782 -174.06859679 131.23081944 -171 131 C-169.13476563 131.6809082 -169.13476563 131.6809082 -167.40625 132.80078125 C-166.76816406 133.20103516 -166.13007813 133.60128906 -165.47265625 134.01367188 C-164.82167969 134.44228516 -164.17070312 134.87089844 -163.5 135.3125 C-159.39150982 137.9443744 -155.56115127 140.22580826 -151 142 C-148.9574059 143.19265561 -146.93809569 144.42566208 -144.9375 145.6875 C-140.58906255 148.42378031 -136.20088544 151.06313915 -131.76000977 153.64770508 C-130.68090836 154.27606766 -129.60180695 154.90443024 -128.49000549 155.55183411 C-127.66830368 156.02972885 -126.84660187 156.5076236 -126 157 C-126.10658936 155.61629463 -126.10658936 155.61629463 -126.21533203 154.20463562 C-126.86165505 145.42846051 -127.34589835 136.66041882 -127.6579895 127.86577129 C-127.82394179 123.34383317 -128.04749566 118.84176348 -128.4140625 114.33129883 C-130.65171721 86.06000101 -130.65171721 86.06000101 -124.6166687 78.19787216 C-117.31432314 70.83668757 -107.49764355 66.66580078 -98.05801392 62.75262451 C-91.91279613 60.1774005 -86.25228765 56.7813512 -80.5 53.4375 C-78.47358403 52.30848838 -76.44525512 51.18289522 -74.4140625 50.0625 C-69.16785353 47.12593135 -64.08038792 43.9890157 -59.01806641 40.74902344 C-52.46906961 36.59023311 -45.70396296 32.83067598 -38.93603516 29.04248047 C-31.09192999 24.64351768 -23.33761425 20.10703796 -15.62060547 15.48901367 C1.96635128 5 1.96635128 5 5 5 C5 4.34 5 3.68 5 3 C3.35 2.34 1.7 1.68 0 1 C0 0.67 0 0.34 0 0 Z " fill="#2F94D3" transform="translate(331,72)"/>
<path d="M0 0 C1.03932175 -0.00744736 1.03932175 -0.00744736 2.09963989 -0.01504517 C4.40652446 -0.02971994 6.71333996 -0.03648256 9.02026367 -0.04199219 C10.62676495 -0.04774556 12.23326621 -0.05350327 13.83976746 -0.05926514 C17.22016724 -0.06979445 20.60054314 -0.07562239 23.98095703 -0.07910156 C28.28341697 -0.0845472 32.58555413 -0.10848148 36.8879137 -0.13707352 C40.21423711 -0.15584582 43.54048566 -0.1609135 46.86685753 -0.16243744 C48.45066757 -0.16543895 50.0344771 -0.17338147 51.61823463 -0.18662262 C66.80655769 -0.30439064 80.24314199 1.56954051 92.25073242 11.75097656 C100.4777892 20.51364901 103.74586922 31.54503702 103.58666992 43.29394531 C102.83666338 53.48847873 98.19957296 62.068967 90.50073242 68.72363281 C89.46948242 69.52800781 88.43823242 70.33238281 87.37573242 71.16113281 C87.93260742 71.42925781 88.48948242 71.69738281 89.06323242 71.97363281 C98.77418118 76.96033623 106.85255086 84.54071753 110.34448242 95.08691406 C113.52093941 106.89568704 112.64764589 118.3468295 106.65307617 129.22753906 C99.14710961 140.58978202 88.59956419 147.20608416 75.37573242 150.16113281 C68.96070067 150.83654595 62.48754837 150.62912813 56.04760742 150.55175781 C54.20388406 150.54428204 52.36015266 150.53859544 50.51641846 150.53460693 C45.70275287 150.51945561 40.88958286 150.48026652 36.07611084 150.43579102 C31.14870911 150.39460956 26.221226 150.37654743 21.29370117 150.35644531 C11.65416251 150.31376032 2.01498894 150.24563895 -7.62426758 150.16113281 C-7.6475952 130.75121869 -7.66524608 111.3413074 -7.67607975 91.93138218 C-7.681243 82.91966344 -7.68828624 73.90795339 -7.69970703 64.89624023 C-7.70965299 57.04453731 -7.71612079 49.19284068 -7.71835607 41.34113163 C-7.71966333 37.18109829 -7.72275012 33.02108296 -7.72999763 28.86105537 C-7.73675647 24.95004869 -7.73888482 21.03906754 -7.73737526 17.12805557 C-7.73765165 15.68846053 -7.73965759 14.24886469 -7.74347305 12.80927467 C-7.74840809 10.85219049 -7.74666565 8.89509278 -7.74452209 6.93800354 C-7.74544389 5.8401481 -7.74636568 4.74229265 -7.74731541 3.61116886 C-7.50103474 -1.29258702 -4.21590671 0.02287486 0 0 Z M20.37573242 25.16113281 C20.37573242 37.37113281 20.37573242 49.58113281 20.37573242 62.16113281 C26.10535442 62.23013361 31.83352546 62.28982827 37.56323242 62.32592773 C39.51087336 62.34098181 41.45848058 62.36142962 43.40600586 62.38745117 C46.2111037 62.42398335 49.01575196 62.44089314 51.82104492 62.45410156 C52.68690216 62.46958542 53.5527594 62.48506927 54.44485474 62.50102234 C61.08026024 62.50285503 65.24947859 61.23906269 70.12573242 56.47363281 C73.81222015 51.64552308 74.6522006 46.50797197 74.25073242 40.53613281 C73.3901828 34.78924399 70.97187737 31.39149454 66.37573242 27.84863281 C62.59451201 25.72169633 59.64484929 25.03363568 55.34155273 25.04760742 C54.56104553 25.04768295 53.78053833 25.04775848 52.97637939 25.0478363 C52.14394714 25.05299759 51.31151489 25.05815887 50.45385742 25.06347656 C49.59387146 25.06489151 48.7338855 25.06630646 47.84783936 25.06776428 C45.10710133 25.07335184 42.36644566 25.08590207 39.62573242 25.09863281 C37.76505652 25.10364942 35.90437934 25.10821205 34.04370117 25.11230469 C29.4876545 25.12246536 24.93178541 25.1420432 20.37573242 25.16113281 Z M20.37573242 84.16113281 C20.37573242 98.02113281 20.37573242 111.88113281 20.37573242 126.16113281 C26.95510742 126.20238281 33.53448242 126.24363281 40.31323242 126.28613281 C42.37178467 126.30434082 44.43033691 126.32254883 46.55126953 126.34130859 C48.21020244 126.34715798 49.86913825 126.35225248 51.52807617 126.35644531 C52.36729614 126.36667725 53.20651611 126.37690918 54.07116699 126.38745117 C62.36533488 126.38986262 69.76431367 125.54252017 76.37573242 120.16113281 C81.40270362 114.71524734 82.86226536 110.03301637 82.68823242 102.72363281 C81.99907835 97.07256942 79.54913782 93.36120652 75.62573242 89.34863281 C68.47137175 84.53319775 62.37242718 83.72691764 53.96948242 83.86816406 C52.52152283 83.87453133 52.52152283 83.87453133 51.04431152 83.88102722 C47.98782412 83.89770184 44.93201757 83.9353329 41.87573242 83.97363281 C39.79240867 83.98869415 37.70907449 84.00238001 35.62573242 84.01464844 C30.54193137 84.04500553 25.45958606 84.10374818 20.37573242 84.16113281 Z " fill="#F2F6FC" transform="translate(855.624267578125,123.8388671875)"/>
<path d="M0 0 C4.06038201 1.49339794 7.64898543 3.4403048 11.375 5.6328125 C12.28366821 6.16610672 12.28366821 6.16610672 13.21069336 6.71017456 C14.49249627 7.46335508 15.77332151 8.21820165 17.05322266 8.97460938 C18.96433966 10.10392757 20.87833538 11.22821855 22.79296875 12.3515625 C29.92599321 16.54510404 37.00091685 20.82140121 44.03857422 25.17333984 C48.19173449 27.73508306 52.37424822 30.24618725 56.5625 32.75 C58.29949101 33.79034481 60.03646984 34.83070996 61.7734375 35.87109375 C62.64323242 36.39171387 63.51302734 36.91233398 64.40917969 37.44873047 C68.50372651 39.90036546 72.5955257 42.35657457 76.6875 44.8125 C78.35415213 45.81252422 80.02081914 46.81252365 81.6875 47.8125 C116.48567708 68.69140625 151.28385417 89.5703125 186.08203125 110.44921875 C187.07412598 111.04009277 188.0662207 111.6309668 189.08837891 112.23974609 C191.0232242 113.409479 192.9426195 114.6051724 194.84521484 115.82666016 C195.72516113 116.38530762 196.60510742 116.94395508 197.51171875 117.51953125 C198.28346436 118.02202393 199.05520996 118.5245166 199.8503418 119.04223633 C201.89565343 120.1536365 201.89565343 120.1536365 203.88134766 119.8762207 C206.87084336 118.63984134 209.58893122 117.08587172 212.38671875 115.4609375 C213.00093185 115.10502533 213.61514496 114.74911316 214.24797058 114.38241577 C220.22914994 110.90100531 226.14713688 107.31538245 232.05004883 103.70321655 C235.09943983 101.83768751 238.15307108 99.97913069 241.20703125 98.12109375 C241.8025882 97.75871109 242.39814514 97.39632843 243.01174927 97.02296448 C248.3077013 93.80476893 253.63944153 90.6517091 258.98950195 87.5246582 C266.77831138 82.96973708 274.50473237 78.3114758 282.23681641 73.66113281 C286.16981361 71.2967475 290.10504173 68.93608703 294.0402832 66.57543945 C296.15221525 65.30854236 298.26403017 64.04145 300.37573242 62.77416992 C305.63713945 59.61668549 310.89948936 56.46079675 316.1640625 53.30859375 C327.5634623 46.48038411 338.93755507 39.6124928 350.28610229 32.70016479 C361.64123225 25.78748498 373.06798401 18.99764409 384.51782227 12.24316406 C385.17288254 11.85592667 385.82794281 11.46868927 386.50285339 11.06971741 C388.2763819 10.02136703 390.05099314 8.97484897 391.82568359 7.9284668 C394.94848607 6.03129584 397.9758736 4.04908961 401 2 C401.66 2.33 402.32 2.66 403 3 C385.25413572 17.44538487 385.25413572 17.44538487 379.53515625 21.98046875 C377.6137054 23.51111604 375.70846778 25.05629218 373.80859375 26.61328125 C367.69534783 31.57672476 361.50779279 36.13119102 354.75 40.1875 C354.10587158 40.57413818 353.46174316 40.96077637 352.7980957 41.35913086 C348.27445797 44 348.27445797 44 346 44 C345.92523438 44.73734375 345.85046875 45.4746875 345.7734375 46.234375 C344.79868211 49.71986396 343.36387756 50.92771547 340.625 53.25 C339.83351563 53.93578125 339.04203125 54.6215625 338.2265625 55.328125 C336 57 336 57 333 58 C333 56.35 333 54.7 333 53 C332.47043701 53.29769287 331.94087402 53.59538574 331.39526367 53.90209961 C328.99416434 55.24990512 326.59086631 56.59374141 324.1875 57.9375 C322.93743164 58.64036133 322.93743164 58.64036133 321.66210938 59.35742188 C320.85966797 59.80537109 320.05722656 60.25332031 319.23046875 60.71484375 C318.12288208 61.33540649 318.12288208 61.33540649 316.99291992 61.96850586 C315 63 315 63 312 64 C312.17402344 65.16015625 312.17402344 65.16015625 312.3515625 66.34375 C313.07632652 74.70959749 313.07632652 74.70959749 309.87890625 78.54296875 C306.38577827 81.32631746 303.25340929 83.5821969 299 85 C298.67 81.04 298.34 77.08 298 73 C296.08574219 74.19109375 296.08574219 74.19109375 294.1328125 75.40625 C292.46368559 76.43773292 290.79440688 77.46897026 289.125 78.5 C288.28324219 79.02464844 287.44148438 79.54929687 286.57421875 80.08984375 C285.36572266 80.83427734 285.36572266 80.83427734 284.1328125 81.59375 C283.38918457 82.05458984 282.64555664 82.51542969 281.87939453 82.99023438 C280 84 280 84 278 84 C278.19142578 85.90072266 278.19142578 85.90072266 278.38671875 87.83984375 C279.29396032 100.79694961 279.29396032 100.79694961 276.95263672 104.78320312 C274.13543675 107.91962378 270.74588771 110.12705614 267 112 C266.34 112 265.68 112 265 112 C265 105.73 265 99.46 265 93 C259.05081262 96.19768822 253.19380764 99.3916199 247.55859375 103.1171875 C246 104 246 104 244 104 C244.13353882 105.07145264 244.13353882 105.07145264 244.26977539 106.16455078 C246.40967984 125.94472492 246.40967984 125.94472492 242.55712891 132.42822266 C238.74280883 136.61098853 234.12223007 139.59813197 229.31835938 142.53710938 C225.7036411 144.81800574 222.44276216 147.50167133 219.125 150.1875 C218.00363442 151.0573194 216.88131644 151.92591312 215.7578125 152.79296875 C212.87924515 155.09663809 210.51533279 157.39877842 208.125 160.1875 C206 162 206 162 203.72558594 162.31274414 C200.24269843 161.91310433 198.23732119 160.66408595 195.265625 158.80859375 C194.14712158 158.11878418 193.02861816 157.42897461 191.8762207 156.71826172 C190.66745044 155.95805556 189.45871099 155.1978004 188.25 154.4375 C186.99190287 153.65776781 185.73302065 152.87930104 184.47338867 152.10205078 C181.89371391 150.50959972 179.31685956 148.91272789 176.74169922 147.31298828 C171.30104948 143.94086349 165.80763598 140.65732955 160.3125 137.375 C158.26681196 136.1499318 156.22123911 134.92467123 154.17578125 133.69921875 C153.16467285 133.09384277 152.15356445 132.4884668 151.11181641 131.86474609 C147.89971878 129.9399068 144.68981132 128.01146028 141.48046875 126.08203125 C131.57223173 120.12669448 121.65495026 114.19103801 111.67895508 108.34985352 C106.59680269 105.36773315 101.57558609 102.29471541 96.56640625 99.19140625 C89.55561049 94.86533645 82.46658438 90.66611073 75.39794922 86.43554688 C71.99292017 84.39710554 68.59015166 82.35490633 65.1875 80.3125 C63.97006635 79.58200747 62.75261862 78.85153841 61.53515625 78.12109375 C59.23046875 76.73828125 56.92578125 75.35546875 54.62109375 73.97265625 C54.05132812 73.63081299 53.4815625 73.28896973 52.89453125 72.93676758 C51.70306769 72.22185657 50.51166256 71.50684818 49.3203125 70.79174805 C44.19849099 67.71774239 39.07612221 64.64467266 33.94458008 61.58691406 C31.76704379 60.27526714 29.60140777 58.94366518 27.44799805 57.59277344 C21.75809206 54.0533865 16.52754909 51.13602593 10.02832031 49.40039062 C5.8834978 47.36000683 2.73348416 44.73763434 0 41 C-1.04962702 37.71424404 -1.11496811 34.63142441 -1.09765625 31.19921875 C-1.13093521 29.83128426 -1.13093521 29.83128426 -1.16488647 28.43571472 C-1.31801824 18.93996383 -0.75301825 9.4616421 0 0 Z " fill="#135296" transform="translate(1,238)"/>
<path d="M0 0 C6.3656591 5.9804759 11.72669439 12.48815272 12.08178711 21.40087891 C12.24532423 30.05448699 11.47745873 35.84835411 5.6875 42.6875 C4.96240234 43.615625 4.96240234 43.615625 4.22265625 44.5625 C-7.61911424 58.06151572 -31.9311109 66.43904379 -49.3125 67.6875 C-80.56530697 69.1078847 -112.99472857 67.43761319 -137.375 45.25 C-143.46842693 38.66292836 -146.69709347 30.25352702 -146.59375 21.37890625 C-146.13332056 16.9728523 -144.47129239 13.5102121 -142.3125 9.6875 C-141.99667969 9.09324219 -141.68085938 8.49898437 -141.35546875 7.88671875 C-132.52685194 -6.4969828 -113.22185626 -13.30062246 -97.734375 -17.3671875 C-66.78836556 -24.51915413 -24.88840134 -21.30121719 0 0 Z " fill="#3296D3" transform="translate(271.3125,52.3125)"/>
<path d="M0 0 C1.16080078 -0.00128906 2.32160156 -0.00257812 3.51757812 -0.00390625 C4.74025391 -0.00003906 5.96292969 0.00382812 7.22265625 0.0078125 C8.44146484 0.00394531 9.66027344 0.00007813 10.91601562 -0.00390625 C12.65915039 -0.00197266 12.65915039 -0.00197266 14.4375 0 C15.50991943 0.00112793 16.58233887 0.00225586 17.68725586 0.00341797 C20.28515625 0.1328125 20.28515625 0.1328125 22.28515625 1.1328125 C22.28515625 21.2628125 22.28515625 41.3928125 22.28515625 62.1328125 C46.37515625 62.1328125 70.46515625 62.1328125 95.28515625 62.1328125 C95.24554405 42.10264777 95.24554405 42.10264777 95.19506836 22.07250977 C95.19214948 19.57307986 95.18960086 17.07364948 95.1875 14.57421875 C95.18238403 13.26223511 95.17726807 11.95025146 95.17199707 10.59851074 C95.1718158 8.74099182 95.1718158 8.74099182 95.17163086 6.84594727 C95.16941025 5.76450943 95.16718964 4.68307159 95.16490173 3.56886292 C95.28515625 1.1328125 95.28515625 1.1328125 96.28515625 0.1328125 C98.19973907 0.03309464 100.11797942 0.00200661 102.03515625 0 C103.20046875 -0.00128906 104.36578125 -0.00257812 105.56640625 -0.00390625 C106.79359375 -0.00003906 108.02078125 0.00382812 109.28515625 0.0078125 C111.1259375 0.00201172 111.1259375 0.00201172 113.00390625 -0.00390625 C114.751875 -0.00197266 114.751875 -0.00197266 116.53515625 0 C117.6128125 0.00112793 118.69046875 0.00225586 119.80078125 0.00341797 C122.28515625 0.1328125 122.28515625 0.1328125 123.28515625 1.1328125 C123.38176577 3.05642877 123.40702793 4.98364316 123.40541077 6.90968323 C123.40747276 8.79230865 123.40747276 8.79230865 123.40957642 10.71296692 C123.4060368 12.11666894 123.40240199 13.52037072 123.39868164 14.92407227 C123.39839978 16.39218138 123.39855749 17.86029063 123.39912415 19.32839966 C123.39941215 23.32615907 123.39351499 27.32388874 123.38655019 31.32164121 C123.3803171 35.49501983 123.37971289 39.66839906 123.37852478 43.84178162 C123.37541133 51.75014042 123.36719776 59.65848547 123.35717529 67.5668382 C123.34601457 76.56789744 123.34050381 85.56895732 123.33547986 94.57002175 C123.32501516 113.09096139 123.30666951 131.61188217 123.28515625 150.1328125 C114.04515625 150.1328125 104.80515625 150.1328125 95.28515625 150.1328125 C95.28515625 129.6728125 95.28515625 109.2128125 95.28515625 88.1328125 C71.19515625 88.1328125 47.10515625 88.1328125 22.28515625 88.1328125 C22.28515625 108.5928125 22.28515625 129.0528125 22.28515625 150.1328125 C13.04515625 150.1328125 3.80515625 150.1328125 -5.71484375 150.1328125 C-7.48668244 148.36097381 -6.8409969 145.79983984 -6.84182739 143.40063477 C-6.84464722 142.15541046 -6.84746704 140.91018616 -6.85037231 139.62722778 C-6.84842772 138.23455796 -6.84637953 136.84188828 -6.84423828 135.44921875 C-6.84559228 133.99258378 -6.8473722 132.53594916 -6.84954834 131.07931519 C-6.85412287 127.11248314 -6.85233303 123.14567698 -6.84916925 119.17884445 C-6.84664575 115.03662799 -6.84898316 110.89441381 -6.85055542 106.75219727 C-6.85237715 99.79475505 -6.84997073 92.83732342 -6.84521484 85.87988281 C-6.83977222 77.82453722 -6.84153487 69.76921693 -6.84704125 61.71387196 C-6.8515723 54.81028177 -6.85222297 47.90669922 -6.84960258 41.00310802 C-6.84803976 36.87439242 -6.84784618 32.74568873 -6.85113907 28.61697388 C-6.85401766 24.73631728 -6.85204232 20.85569347 -6.84624481 16.97504044 C-6.84491715 15.54673441 -6.84531144 14.11842565 -6.84750748 12.6901207 C-6.8502187 10.74841151 -6.84622441 8.80669633 -6.84182739 6.86499023 C-6.84145037 5.77580795 -6.84107334 4.68662567 -6.84068489 3.56443787 C-6.60216666 -1.04444421 -4.02826504 0.00424124 0 0 Z " fill="#F2F6FC" transform="translate(1515.71484375,123.8671875)"/>
<path d="M0 0 C2.20729099 1.24296708 4.37220133 2.5628824 6.5 3.9375 C10.29085957 6.37764442 13.82149723 8.34833985 18 10 C20.08448211 11.21298828 22.14558341 12.46665169 24.1875 13.75 C25.33590616 14.46229012 26.48434402 15.17452912 27.6328125 15.88671875 C29.74019232 17.20933184 31.84042772 18.5434766 33.9296875 19.89453125 C34.79851562 20.44496094 35.66734375 20.99539062 36.5625 21.5625 C37.32691406 22.05878906 38.09132813 22.55507812 38.87890625 23.06640625 C40.89365073 24.14435807 40.89365073 24.14435807 42.828125 23.8984375 C46.09544296 22.54684913 49.12906368 20.82333908 52.1875 19.0625 C52.88367432 18.66643555 53.57984863 18.27037109 54.29711914 17.86230469 C59.53708631 14.87004305 64.73937309 11.81418336 69.9375 8.75 C70.65349365 8.32944336 71.3694873 7.90888672 72.10717773 7.47558594 C75.05050682 5.74579188 77.98508745 4.00915683 80.89453125 2.22265625 C81.67183594 1.75730469 82.44914063 1.29195312 83.25 0.8125 C84.18585938 0.23435547 84.18585938 0.23435547 85.140625 -0.35546875 C87.77573905 -1.26890114 89.31250764 -0.73195348 92 0 C93.97532911 1.03427384 95.90758263 2.15262129 97.8046875 3.32421875 C98.35748383 3.66249191 98.91028015 4.00076508 99.47982788 4.34928894 C101.28277235 5.45481238 103.07898929 6.57075357 104.875 7.6875 C106.12038748 8.45585836 107.36615979 9.2235933 108.61230469 9.99072266 C110.51952164 11.16490492 112.42637012 12.33963977 114.3314209 13.51733398 C118.51620209 16.10125801 122.72749665 18.63326055 126.9609375 21.13671875 C128.0245752 21.76940674 129.08821289 22.40209473 130.18408203 23.05395508 C132.19860695 24.25051037 134.21770651 25.43940333 136.24169922 26.61987305 C137.13646973 27.15523682 138.03124023 27.69060059 138.953125 28.2421875 C139.73848633 28.7047998 140.52384766 29.16741211 141.33300781 29.64404297 C141.88311523 30.09150879 142.43322266 30.53897461 143 31 C143 31.99 143 32.98 143 34 C140.82641602 35.66308594 140.82641602 35.66308594 137.75390625 37.484375 C137.20077255 37.81644958 136.64763885 38.14852417 136.07774353 38.49066162 C134.2452999 39.58748306 132.40405268 40.66855445 130.5625 41.75 C129.27801654 42.51522071 127.99416911 43.28150998 126.7109375 44.04882812 C124.08034601 45.6196688 121.44633162 47.18450441 118.80908203 48.74414062 C113.35683419 51.96960196 107.92990601 55.23712332 102.5 58.5 C101.49517578 59.10199219 100.49035156 59.70398438 99.45507812 60.32421875 C92.08036814 64.74250605 84.72273939 69.18826863 77.37454224 73.65045166 C75.58384604 74.73704721 73.79191915 75.82158801 71.99975586 76.90576172 C66.77007604 80.07330212 61.55866298 83.26245265 56.40625 86.5546875 C55.57665771 87.0796582 54.74706543 87.60462891 53.89233398 88.14550781 C52.39163422 89.09848283 50.898261 90.0631456 49.41430664 91.04199219 C44.63283501 94.06436035 44.63283501 94.06436035 41.53222656 93.74902344 C39.02420922 93.007161 37.23392331 92.13722545 35.04296875 90.7265625 C34.27702393 90.24147217 33.5110791 89.75638184 32.72192383 89.2565918 C31.88556396 88.7181665 31.0492041 88.17974121 30.1875 87.625 C20.98915823 81.81357115 11.68217752 76.21575443 2.3125 70.6875 C-8.86368118 64.08636182 -19.95485102 57.36897597 -30.98852539 50.53198242 C-40.21689819 44.82877648 -49.57027194 39.36244777 -59 34 C-57.59507703 30.55551012 -56.19247759 29.18615156 -52.9765625 27.36328125 C-52.13319336 26.87633789 -51.28982422 26.38939453 -50.42089844 25.88769531 C-49.49825195 25.36788086 -48.57560547 24.84806641 -47.625 24.3125 C-45.64209539 23.16993415 -43.66038556 22.02529301 -41.6796875 20.87890625 C-40.61202148 20.26289551 -39.54435547 19.64688477 -38.44433594 19.01220703 C-32.1622471 15.34216336 -25.95984936 11.54055917 -19.75 7.75 C-17.91461099 6.63034677 -16.07903133 5.51101149 -14.2428894 4.39259338 C-12.64409538 3.41860202 -11.04614134 2.4432322 -9.44824219 1.46777344 C-5.61028908 -0.83316135 -4.35900774 -1.26729579 0 0 Z " fill="#3C6AB2" transform="translate(162,204)"/>
<path d="M0 0 C1.19431641 -0.01611328 2.38863281 -0.03222656 3.61914062 -0.04882812 C23.73132753 -0.05977651 40.39928034 7.70542592 55.08984375 21.15234375 C63.59444865 29.9103447 71.92859136 43.56935898 72.26171875 56.10546875 C72.23722656 56.83378906 72.21273437 57.56210938 72.1875 58.3125 C69.60855432 59.60197284 67.7322811 59.4419785 64.84765625 59.4453125 C63.78482422 59.44660156 62.72199219 59.44789063 61.62695312 59.44921875 C60.51255859 59.44535156 59.39816406 59.44148438 58.25 59.4375 C57.13947266 59.44136719 56.02894531 59.44523437 54.88476562 59.44921875 C53.28858398 59.44728516 53.28858398 59.44728516 51.66015625 59.4453125 C50.68312744 59.44418457 49.70609863 59.44305664 48.69946289 59.44189453 C46.1875 59.3125 46.1875 59.3125 43.1875 58.3125 C41.9765625 55.8359375 41.9765625 55.8359375 40.8125 52.6875 C36.37377097 41.57092046 30.12943017 35.47581397 19.38012695 30.22875977 C7.56936586 25.29325299 -5.80742493 25.42406374 -17.8125 29.3125 C-30.32579689 34.483396 -39.5624355 42.50576333 -44.96875 54.98046875 C-47.04728571 60.36239157 -48.56606646 65.5213117 -48.8125 71.3125 C-48.8640625 72.26640625 -48.915625 73.2203125 -48.96875 74.203125 C-49.42124337 89.81414639 -45.81601738 103.78540775 -34.97265625 115.27734375 C-24.40201955 125.23629803 -11.51025061 128.67331315 2.74609375 128.52734375 C14.75009851 127.77794504 26.12532712 123.47427295 34.43359375 114.62890625 C37.51391174 110.56069117 39.36173938 106.04673974 41.1875 101.3125 C41.8475 99.6625 42.5075 98.0125 43.1875 96.3125 C52.7575 96.3125 62.3275 96.3125 72.1875 96.3125 C71.02969689 109.04833416 71.02969689 109.04833416 67.5625 115.375 C67.20349609 116.05618896 66.84449219 116.73737793 66.47460938 117.43920898 C56.71765166 135.59584038 42.44969959 147.08417753 22.58227539 153.1015625 C15.15399612 155.14587558 8.18990231 155.85812198 0.5 155.8125 C-0.6334082 155.80677979 -1.76681641 155.80105957 -2.93457031 155.79516602 C-12.573911 155.59177839 -20.94166102 154.04905407 -29.8125 150.3125 C-30.44075684 150.05017578 -31.06901367 149.78785156 -31.71630859 149.51757812 C-39.99422305 145.94881066 -47.11882373 141.35489966 -53.8125 135.3125 C-54.43511719 134.75949219 -55.05773437 134.20648438 -55.69921875 133.63671875 C-70.4159794 119.77981377 -78.60721636 100.5776619 -79.28564453 80.51635742 C-79.48381026 60.56467156 -73.48936124 41.24012788 -59.8125 26.3125 C-58.98878906 25.40886719 -58.16507813 24.50523437 -57.31640625 23.57421875 C-41.61531682 7.11591366 -22.51074296 -0.06015698 0 0 Z " fill="#F1F4FD" transform="translate(578.8125,121.6875)"/>
<path d="M0 0 C1.21623047 -0.020625 2.43246094 -0.04125 3.68554688 -0.0625 C21.91963725 -0.1407999 39.82672654 6.86421987 53.0625 19.5625 C63.54569955 30.60729953 69.44253045 42.36349127 72.3125 57.25 C68.94537354 59.49475097 67.81125945 59.4971312 63.875 59.48046875 C62.28558594 59.47756836 62.28558594 59.47756836 60.6640625 59.47460938 C59.55804687 59.46236328 58.45203125 59.45011719 57.3125 59.4375 C56.20648437 59.43685547 55.10046875 59.43621094 53.9609375 59.43554688 C45.73402713 59.39050904 45.73402713 59.39050904 42.3125 58.25 C41.35546875 56.28125 41.35546875 56.28125 40.5 53.75 C36.76094437 43.83583734 30.98294936 35.9547727 21.4375 31.0625 C7.17868539 25.35897416 -6.83272054 25.16103896 -21.140625 30.55078125 C-33.6332749 36.37336054 -41.64119355 45.19004499 -46.8203125 58.06640625 C-51.60126789 73.26798771 -50.7498777 89.25206125 -43.875 103.6875 C-37.62623182 115.20723401 -28.73709939 122.44276361 -16.203125 126.5390625 C-3.52584207 130.12177289 10.36928113 128.98387699 22.26953125 123.40234375 C25.29359785 121.69660829 27.70817934 119.53672058 30.3125 117.25 C30.9725 117.25 31.6325 117.25 32.3125 117.25 C32.59351563 116.66605469 32.87453125 116.08210938 33.1640625 115.48046875 C34.56113628 112.76710437 36.21209013 110.27868196 37.8984375 107.73828125 C39.99005916 104.05772048 41.59316622 100.11850101 43.3125 96.25 C52.5525 96.25 61.7925 96.25 71.3125 96.25 C73.5256396 102.88941881 68.61172422 112.47467698 65.734375 118.62109375 C56.03436783 136.04937766 40.5747397 147.47199937 21.75 153.625 C-0.42068937 159.0363835 -22.7554342 155.70073799 -42.30859375 144.35546875 C-59.91507689 133.38449255 -72.37498563 116.33794494 -77.6875 96.25 C-82.78624121 73.65620303 -78.02148651 53.13441588 -66.5 33.5 C-55.52211894 17.19281203 -38.58744332 6.28998489 -19.6875 1.25 C-13.11756236 -0.00498452 -6.66918497 0.02783176 0 0 Z " fill="#F1F4FD" transform="translate(1405.6875,121.75)"/>
<path d="M0 0 C13.28187409 -0.02312079 26.56374343 -0.04091374 39.84563351 -0.05181217 C46.0122492 -0.05704158 52.17885118 -0.06414027 58.34545898 -0.07543945 C64.29116006 -0.08626629 70.23684789 -0.0922764 76.18255806 -0.09487724 C78.45646943 -0.09673186 80.73038004 -0.10035317 83.00428581 -0.10573006 C86.1772712 -0.11293778 89.35020117 -0.11399106 92.52319336 -0.11352539 C93.47337341 -0.11712067 94.42355347 -0.12071594 95.40252686 -0.12442017 C101.88594784 -0.11405216 101.88594784 -0.11405216 103 1 C103.09946453 2.76859193 103.13080217 4.54111451 103.1328125 6.3125 C103.13410156 7.38757813 103.13539062 8.46265625 103.13671875 9.5703125 C103.13285156 10.70210937 103.12898438 11.83390625 103.125 13 C103.12886719 14.13179687 103.13273437 15.26359375 103.13671875 16.4296875 C103.13542969 17.50476563 103.13414063 18.57984375 103.1328125 19.6875 C103.13168457 20.68136719 103.13055664 21.67523438 103.12939453 22.69921875 C103 25 103 25 102 26 C99.69946165 26.09443335 97.39597827 26.11742128 95.09350586 26.11352539 C94.37159561 26.11367142 93.64968536 26.11381744 92.90589905 26.1139679 C90.50885053 26.11326869 88.11187877 26.10547595 85.71484375 26.09765625 C84.05717511 26.0957921 82.39950593 26.09436818 80.74183655 26.09336853 C76.37045786 26.08954312 71.99911219 26.07971265 67.62774658 26.06866455 C63.17045539 26.05845092 58.71315889 26.05387101 54.25585938 26.04882812 C45.50389107 26.0380904 36.75194964 26.02101371 28 26 C28.33 26.66 28.66 27.32 29 28 C29.08649451 30.48099734 29.11565054 32.93344928 29.09765625 35.4140625 C29.0962413 36.14370209 29.09482635 36.87334167 29.09336853 37.62509155 C29.08776531 39.95843585 29.07521235 42.29168464 29.0625 44.625 C29.05748541 46.20572778 29.05292243 47.78645707 29.04882812 49.3671875 C29.03779484 53.24482854 29.02052811 57.12239807 29 61 C29.77452011 61.01030746 30.54904022 61.02061493 31.34703064 61.03123474 C38.63128921 61.12904297 45.91545946 61.23153311 53.19957638 61.33933926 C56.94478798 61.39460231 60.69000734 61.44802755 64.43530273 61.49731445 C68.04688586 61.54490835 71.65837132 61.59724906 75.26983833 61.65294075 C76.65057519 61.67338694 78.03133886 61.69209622 79.41212273 61.70907402 C81.33983314 61.7330678 83.26745749 61.76370264 85.19506836 61.79467773 C86.29427109 61.81022202 87.39347382 61.8257663 88.52598572 61.84178162 C91 62 91 62 92 63 C92.09932153 64.69558726 92.13080007 66.39525747 92.1328125 68.09375 C92.13410156 69.12371094 92.13539062 70.15367187 92.13671875 71.21484375 C92.13285156 72.29894531 92.12898438 73.38304687 92.125 74.5 C92.12886719 75.58410156 92.13273437 76.66820312 92.13671875 77.78515625 C92.13542969 78.81511719 92.13414063 79.84507812 92.1328125 80.90625 C92.13168457 81.85822266 92.13055664 82.81019531 92.12939453 83.79101562 C92 86 92 86 91 87 C89.06776005 87.12357078 87.13106201 87.17794458 85.19506836 87.20532227 C83.95385727 87.22526749 82.71264618 87.24521271 81.43382263 87.26576233 C80.0691643 87.28274793 78.70450463 87.29962669 77.33984375 87.31640625 C75.95121125 87.33696936 74.5625851 87.35796566 73.17396545 87.37937927 C69.51285941 87.43466647 65.85169627 87.48404626 62.19049072 87.53222656 C58.45702012 87.58239321 54.72363176 87.63805065 50.99023438 87.69335938 C43.6602188 87.80154395 36.33015956 87.90051473 29 88 C29 99.88 29 111.76 29 124 C36.76144531 123.98259766 36.76144531 123.98259766 44.6796875 123.96484375 C47.95182417 123.95973604 51.22395594 123.9549222 54.49609375 123.95117188 C59.69320696 123.94518712 64.8903026 123.93809657 70.08740234 123.92456055 C74.27598387 123.91371915 78.46454656 123.90772049 82.65314102 123.90512276 C84.25357485 123.90327078 85.8540076 123.89965448 87.45443344 123.89426994 C89.69083661 123.8870429 91.92716131 123.88600977 94.16357422 123.88647461 C95.43820526 123.884254 96.7128363 123.88203339 98.02609253 123.87974548 C101 124 101 124 103 125 C103.02886751 129.14581887 103.04675327 133.29161216 103.0625 137.4375 C103.07087891 138.62150391 103.07925781 139.80550781 103.08789062 141.02539062 C103.09111328 142.15009766 103.09433594 143.27480469 103.09765625 144.43359375 C103.10289307 145.47572021 103.10812988 146.51784668 103.11352539 147.59155273 C103 150 103 150 102 151 C98.86976516 151.10068417 95.7615508 151.1361416 92.63085938 151.12939453 C91.64720901 151.13114685 90.66355865 151.13289917 89.65010071 151.13470459 C86.38129947 151.13912505 83.11255184 151.13618443 79.84375 151.1328125 C77.58312978 151.13348548 75.32250962 151.13445546 73.06188965 151.13571167 C68.31713168 151.13718891 63.57239251 151.13503326 58.82763672 151.13037109 C52.73061376 151.1246738 46.63363481 151.12795266 40.53661346 151.13394356 C35.86651271 151.13754848 31.19642247 151.1364109 26.52632141 151.13381577 C24.27753189 151.1331463 22.02874143 151.13397558 19.779953 151.13629532 C16.64298962 151.13882071 13.50609859 151.13498285 10.36914062 151.12939453 C9.42988235 151.13141876 8.49062408 151.13344299 7.52290344 151.13552856 C1.11426225 151.11426225 1.11426225 151.11426225 0 150 C-0.09662973 148.063717 -0.12187144 146.12385738 -0.12025452 144.18516541 C-0.12162918 142.92166763 -0.12300385 141.65816986 -0.12442017 140.35638428 C-0.12088055 138.94323707 -0.11724574 137.5300901 -0.11352539 136.11694336 C-0.11324353 134.63898216 -0.11340124 133.16102081 -0.1139679 131.68305969 C-0.1142559 127.65844172 -0.1083587 123.63385328 -0.10139394 119.6092422 C-0.09516088 115.40783635 -0.09455664 111.2064299 -0.09336853 107.00502014 C-0.09025507 99.04353743 -0.08204149 91.08206838 -0.07201904 83.1205917 C-0.06085836 74.05907411 -0.05534757 64.99755588 -0.05032361 55.93603313 C-0.03985888 37.290681 -0.02225916 18.64534159 0 0 Z " fill="#EFF3FB" transform="translate(1202,124)"/>
<path d="M0 0 C3.14375064 1.33124438 5.9794972 3.07530244 8.875 4.875 C9.70870117 5.37531738 10.54240234 5.87563477 11.40136719 6.39111328 C13.11920592 7.42266339 14.83341541 8.46028131 16.54394531 9.50390625 C20.09103121 11.66459634 23.66906427 13.77106486 27.25 15.875 C27.9294165 16.27654297 28.60883301 16.67808594 29.30883789 17.09179688 C36.23385015 21.17216719 43.24715041 25.09331959 50.25610352 29.02709961 C56.80470657 32.71779416 63.26406326 36.53362205 69.6875 40.4375 C75.7110114 44.09638566 81.74415148 47.47329336 88.1015625 50.52734375 C92.87141494 52.9508402 97.40151344 55.76880792 101.96484375 58.5546875 C104.83287038 60.30416236 107.72212497 62.01100933 110.62890625 63.6953125 C111.39887939 64.14229492 112.16885254 64.58927734 112.9621582 65.04980469 C114.45739246 65.91589491 115.95455221 66.77867166 117.45385742 67.63769531 C118.47443237 68.2308252 118.47443237 68.2308252 119.515625 68.8359375 C120.11665039 69.18188965 120.71767578 69.5278418 121.33691406 69.88427734 C123.12580394 71.08439871 124.49127046 72.46980692 126 74 C126.66 74.33 127.32 74.66 128 75 C128 75.66 128 76.32 128 77 C126.42025391 77.81791016 126.42025391 77.81791016 124.80859375 78.65234375 C117.05183666 82.69662769 109.41595051 86.85394298 101.94897461 91.41186523 C96.5250821 94.71376508 91.02158811 97.86468536 85.5 101 C75.77586948 106.52954406 66.1696998 112.2296279 56.625 118.0625 C47.7600285 123.45590055 38.73055874 128.51830885 29.64575195 133.53222656 C24.31540544 136.49723935 19.07255415 139.5369996 13.93359375 142.82421875 C12.98436035 143.43104492 12.03512695 144.03787109 11.05712891 144.66308594 C9.26938325 145.81887098 7.49108681 146.98944751 5.72412109 148.17675781 C4.92441895 148.69463867 4.1247168 149.21251953 3.30078125 149.74609375 C2.61153564 150.20685303 1.92229004 150.6676123 1.2121582 151.14233398 C-1.89097632 152.34543647 -3.81289028 151.84955515 -7 151 C-9.52612305 149.78833008 -9.52612305 149.78833008 -12.01171875 148.26953125 C-12.93533203 147.71330078 -13.85894531 147.15707031 -14.81054688 146.58398438 C-16.23463867 145.70709961 -16.23463867 145.70709961 -17.6875 144.8125 C-19.56525142 143.67127478 -21.44415818 142.53194835 -23.32421875 141.39453125 C-24.26265625 140.82645752 -25.20109375 140.25838379 -26.16796875 139.6730957 C-29.82330677 137.51361023 -33.55059461 135.50364858 -37.28735352 133.48950195 C-41.80466694 131.00906552 -46.20680781 128.33913424 -50.625 125.6875 C-57.2086725 121.76208392 -63.81439083 117.95502253 -70.625 114.4375 C-82.57767296 108.24723743 -94.03021645 101.17412984 -105.38330078 93.953125 C-112.08906156 89.69195022 -118.84224185 85.90153651 -126.01171875 82.47265625 C-128.7748693 81.11094676 -131.38510216 79.6252148 -134 78 C-133.6875 76.0625 -133.6875 76.0625 -133 74 C-131.515 73.505 -131.515 73.505 -130 73 C-129.40396973 72.39687988 -128.80793945 71.79375977 -128.19384766 71.17236328 C-125.63632534 68.63988681 -123.00948064 67.05104151 -119.8984375 65.2421875 C-119.30908417 64.89753952 -118.71973083 64.55289154 -118.11251831 64.19779968 C-116.20358754 63.08392032 -114.28950653 61.97926364 -112.375 60.875 C-111.05155425 60.10573747 -109.72831311 59.33612283 -108.40527344 58.56616211 C-100.69134868 54.08647213 -92.93691279 49.68564597 -85.11791992 45.39160156 C-79.54981272 42.32917524 -74.07172426 39.12990792 -68.60473633 35.89111328 C-57.36155768 29.23970834 -45.9997346 22.78748836 -34.59667969 16.41455078 C-4.36223358 -0.48469262 -4.36223358 -0.48469262 0 0 Z M-33 35 C-33.71212646 35.135271 -34.42425293 35.27054199 -35.15795898 35.40991211 C-51.54474141 38.80442633 -69.10567746 46.86811108 -78.81640625 61.0078125 C-83.10084664 68.21924682 -84.3405743 75.26234198 -82.4140625 83.5078125 C-78.133845 96.03432058 -67.41976167 104.19061539 -56 110 C-29.44702888 122.42386722 6.76624594 125.07688173 34.55859375 115.453125 C49.73739084 109.94617387 65.86138261 102.86775752 73.9921875 88 C76.45242174 80.67651202 76.51160781 72.25550459 73.921875 64.96484375 C72.47534241 62.39367182 70.91101139 60.24461467 69 58 C68.443125 57.30777344 67.88625 56.61554687 67.3125 55.90234375 C54.43151384 41.49451656 31.73672774 34.28371167 13 33 C7.39505998 32.78243699 1.79630124 32.70416898 -3.8125 32.6875 C-4.51583466 32.68373352 -5.21916931 32.67996704 -5.94381714 32.67608643 C-15.11582052 32.65121229 -23.96730728 33.26895196 -33 35 Z " fill="#B1EDEE" transform="translate(208,0)"/>
<path d="M0 0 C1.11568359 -0.00128906 2.23136719 -0.00257812 3.38085938 -0.00390625 C5.14333008 0.00189453 5.14333008 0.00189453 6.94140625 0.0078125 C8.11251953 0.00394531 9.28363281 0.00007813 10.49023438 -0.00390625 C12.16569336 -0.00197266 12.16569336 -0.00197266 13.875 0 C14.9055249 0.00112793 15.9360498 0.00225586 16.99780273 0.00341797 C19.50390625 0.1328125 19.50390625 0.1328125 21.50390625 1.1328125 C21.50755188 2.32138855 21.51119751 3.5099646 21.51495361 4.73455811 C21.55200718 15.97411648 21.60989275 27.21340349 21.68780899 38.45275497 C21.72720031 44.23007031 21.75942973 50.00723513 21.77490234 55.78466797 C21.79012384 61.36752199 21.82466682 66.94996196 21.87221527 72.53263092 C21.88697252 74.65506629 21.89494399 76.7775608 21.8957901 78.9000473 C21.79660767 98.88500537 21.79660767 98.88500537 30.6796875 116.3828125 C38.03298222 123.43693678 46.53468505 126.10588969 56.50390625 126.3828125 C67.15485459 126.08695282 76.3059987 122.80962406 83.87890625 115.0078125 C91.10652677 105.77365711 91.63536335 93.2224516 91.69335938 81.97875977 C91.70165268 81.1013765 91.70994598 80.22399323 91.7184906 79.32002258 C91.73578482 77.43000067 91.75097978 75.53995858 91.76426697 73.64990425 C91.78541765 70.66229485 91.81242374 67.6747882 91.84094238 64.6872406 C91.91051529 57.27679619 91.97035117 49.86627964 92.02996826 42.45574951 C92.08081066 36.17463979 92.13556402 29.89358921 92.19578552 23.61256218 C92.22242192 20.66266995 92.24318847 17.71277228 92.26379395 14.76283264 C92.28038533 12.96892018 92.29725613 11.17501027 92.31445312 9.38110352 C92.31863754 8.55570068 92.32282196 7.73029785 92.32713318 6.87988281 C92.39004629 1.24667246 92.39004629 1.24667246 93.50390625 0.1328125 C95.41848907 0.03309464 97.33672942 0.00200661 99.25390625 0 C100.41921875 -0.00128906 101.58453125 -0.00257812 102.78515625 -0.00390625 C104.01234375 -0.00003906 105.23953125 0.00382812 106.50390625 0.0078125 C108.3446875 0.00201172 108.3446875 0.00201172 110.22265625 -0.00390625 C111.970625 -0.00197266 111.970625 -0.00197266 113.75390625 0 C114.8315625 0.00112793 115.90921875 0.00225586 117.01953125 0.00341797 C119.50390625 0.1328125 119.50390625 0.1328125 120.50390625 1.1328125 C120.60995321 4.25126846 120.65068004 7.34769778 120.64916992 10.46679688 C120.65252853 11.44735046 120.65588715 12.42790405 120.65934753 13.43817139 C120.66889554 16.70098111 120.67080307 19.96373965 120.671875 23.2265625 C120.6750867 25.49043804 120.67845071 27.75431338 120.68196106 30.01818848 C120.6879632 34.77645346 120.68980003 39.53470025 120.68920898 44.29296875 C120.68910771 50.37802647 120.70271922 56.46296659 120.71998119 62.54799652 C120.73112875 67.23043345 120.73312729 71.9128423 120.73259926 76.59529114 C120.73377678 78.83747256 120.73818577 81.07965477 120.74593163 83.32182312 C120.75577978 86.4691881 120.75283358 89.61630246 120.74682617 92.76367188 C120.75244568 93.68351868 120.75806519 94.60336548 120.76385498 95.55108643 C120.69089263 110.67014624 114.76537079 124.83024086 104.31640625 135.8203125 C96.50359774 143.22743079 87.80770966 148.10059141 77.50390625 151.1328125 C75.74626953 151.66648437 75.74626953 151.66648437 73.953125 152.2109375 C56.15743722 156.53803563 37.22508852 153.44594536 21.25390625 145.0703125 C7.29348984 136.2312445 -2.10437357 123.59670646 -6.06170654 107.4794178 C-6.84771333 103.23332663 -6.76469574 98.99935396 -6.73901367 94.69360352 C-6.74091202 93.67967026 -6.74281036 92.665737 -6.74476624 91.62107849 C-6.74845056 88.29287821 -6.7378074 84.96489939 -6.7265625 81.63671875 C-6.72536979 79.31884283 -6.72491773 77.00096642 -6.72517395 74.68309021 C-6.72361341 69.83890738 -6.715353 64.99479891 -6.7019043 60.15063477 C-6.68484858 53.9271347 -6.68109207 47.70371575 -6.68184948 41.48019505 C-6.68157835 36.70115885 -6.67610746 31.92214054 -6.66884804 27.14311028 C-6.66565725 24.84687371 -6.66369301 22.55063511 -6.66295433 20.25439644 C-6.66079886 17.05831524 -6.65207389 13.86232219 -6.64135742 10.66625977 C-6.64181061 9.70994659 -6.64226379 8.75363342 -6.64273071 7.76834106 C-6.63846573 6.90345566 -6.63420074 6.03857025 -6.62980652 5.1474762 C-6.62813067 4.39185678 -6.62645483 3.63623735 -6.6247282 2.85772038 C-6.33545986 -1.02118783 -3.19089071 0.00349632 0 0 Z " fill="#F4F7FD" transform="translate(687.49609375,123.8671875)"/>
<path d="M0 0 C0.96755722 -0.00281982 1.93511444 -0.00563965 2.93199158 -0.00854492 C4.00216019 -0.00652069 5.0723288 -0.00449646 6.17492676 -0.00241089 C7.29512711 -0.00416321 8.41532745 -0.00591553 9.56947327 -0.00772095 C13.29279098 -0.01214213 17.01606164 -0.00920053 20.73937988 -0.00582886 C23.31388356 -0.00650182 25.88838717 -0.00747178 28.46289062 -0.00872803 C33.86674663 -0.01020536 39.27058478 -0.00814389 44.67443848 -0.00338745 C50.9302446 0.00205514 57.18601815 0.00029247 63.44182348 -0.00521386 C69.44914038 -0.0102907 75.45644128 -0.00976344 81.46376038 -0.00683212 C84.02515162 -0.00616259 86.58654368 -0.00699219 89.14793396 -0.00931168 C92.72075641 -0.01183663 96.29351532 -0.00799982 99.86633301 -0.00241089 C101.47158592 -0.00544724 101.47158592 -0.00544724 103.10926819 -0.00854492 C104.56060402 -0.00431519 104.56060402 -0.00431519 106.04125977 0 C106.8870887 0.00037703 107.73291763 0.00075405 108.60437775 0.0011425 C110.52062988 0.12698364 110.52062988 0.12698364 111.52062988 1.12698364 C111.62009441 2.89557557 111.65143206 4.66809815 111.65344238 6.43948364 C111.65473145 7.51456177 111.65602051 8.58963989 111.65734863 9.69729614 C111.65348145 10.82909302 111.64961426 11.96088989 111.64562988 13.12698364 C111.64949707 14.25878052 111.65336426 15.39057739 111.65734863 16.55667114 C111.65605957 17.63174927 111.65477051 18.70682739 111.65344238 19.81448364 C111.65231445 20.80835083 111.65118652 21.80221802 111.65002441 22.82620239 C111.52062988 25.12698364 111.52062988 25.12698364 110.52062988 26.12698364 C96.00062988 26.12698364 81.48062988 26.12698364 66.52062988 26.12698364 C66.52062988 67.04698364 66.52062988 107.96698364 66.52062988 150.12698364 C57.28062988 150.12698364 48.04062988 150.12698364 38.52062988 150.12698364 C38.52062988 109.20698364 38.52062988 68.28698364 38.52062988 26.12698364 C24.00062988 26.12698364 9.48062988 26.12698364 -5.47937012 26.12698364 C-5.49999512 22.02260864 -5.52062012 17.91823364 -5.54187012 13.68948364 C-5.55097412 12.39341187 -5.56007813 11.09734009 -5.56945801 9.76199341 C-5.57195557 8.74935425 -5.57445312 7.73671509 -5.57702637 6.69338989 C-5.58226318 5.65126343 -5.5875 4.60913696 -5.59289551 3.53543091 C-5.39700144 -0.62047227 -3.70287823 0.00165055 0 0 Z " fill="#F3F6FC" transform="translate(1061.4793701171875,123.87301635742188)"/>
<path d="M0 0 C1.98 0.99 1.98 0.99 4 2 C4.22300529 7.87132905 4.3860246 13.74018051 4.49438477 19.61474609 C4.53956174 21.61127669 4.60092086 23.60751086 4.67895508 25.60302734 C5.30473501 42.02054786 5.30473501 42.02054786 2.41796875 46.40014648 C0.0235941 48.02517479 -2.29817274 48.96683067 -5 50 C-7.10370746 51.22652705 -9.18866166 52.48556533 -11.2578125 53.76953125 C-12.95808204 54.77287618 -14.65838821 55.77616427 -16.36068726 56.77606201 C-18.16288827 57.8347573 -19.96316294 58.89666154 -21.76293945 59.95947266 C-24.12648097 61.35513196 -26.49049214 62.74998835 -28.85498047 64.14404297 C-38.41574205 69.78609464 -47.91592547 75.50981389 -57.28588867 81.46435547 C-60.52556865 83.51033504 -63.79055527 85.45765929 -67.15234375 87.296875 C-72.66709543 90.32775811 -78.02004541 93.61586518 -83.38720703 96.89907837 C-92.71809095 102.60513406 -102.07399528 108.26457905 -111.5 113.8125 C-125.47272884 122.03773479 -139.37347674 130.37639847 -153.19873047 138.84716797 C-161.35709223 143.84072552 -169.5561997 148.76515793 -177.77197266 153.66357422 C-179.79769299 154.87865126 -181.8126648 156.10932192 -183.82421875 157.34765625 C-184.89285156 157.99605469 -185.96148437 158.64445313 -187.0625 159.3125 C-188.41021484 160.14201172 -188.41021484 160.14201172 -189.78515625 160.98828125 C-192 162 -192 162 -195 161 C-194.18660156 160.36835938 -193.37320313 159.73671875 -192.53515625 159.0859375 C-184.78683874 153.04470162 -177.15381399 146.88004936 -169.59985352 140.59716797 C-168.57009399 139.74276123 -168.57009399 139.74276123 -167.51953125 138.87109375 C-166.60844604 138.11203735 -166.60844604 138.11203735 -165.67895508 137.33764648 C-164.1805699 136.14386251 -162.59403949 135.06269299 -161 134 C-160.78701634 131.45599692 -160.78701634 131.45599692 -161.12109375 128.50390625 C-162.04295177 110.68390014 -162.04295177 110.68390014 -158.24755859 105.69775391 C-153.04039193 101.29098008 -145.97185867 97 -139 97 C-139 103.27 -139 109.54 -139 116 C-132.16186996 112.44905441 -132.16186996 112.44905441 -127 107 C-126.48586157 103.86703732 -126.7644757 100.8424734 -127 97.6875 C-127.21194746 94.21427465 -127.21801547 91.28779982 -126 88 C-120.66778118 82.40224312 -113.07214469 78.92618916 -106 76 C-105.67 76 -105.34 76 -105 76 C-105 80.29 -105 84.58 -105 89 C-103.84371094 88.02546875 -103.84371094 88.02546875 -102.6640625 87.03125 C-101.66117187 86.1959375 -100.65828125 85.360625 -99.625 84.5 C-98.62726563 83.6646875 -97.62953125 82.829375 -96.6015625 81.96875 C-94 80 -94 80 -92 80 C-92.22042969 79.26136719 -92.44085938 78.52273438 -92.66796875 77.76171875 C-93.32874454 73.85171466 -93.38613547 71.76113393 -92 68 C-87.13750005 63.62724825 -77.7351224 57 -71 57 C-70.505 58.98 -70.505 58.98 -70 61 C-68.36493227 59.78425776 -66.7422814 58.55180487 -65.125 57.3125 C-64.22007812 56.62800781 -63.31515625 55.94351563 -62.3828125 55.23828125 C-59.85579738 53.21619276 -59.85579738 53.21619276 -59.15625 50.51171875 C-57.35534438 46.59961635 -54.08317327 45.4499947 -50.375 43.5 C-41.77966083 38.71791892 -34.45548188 33.00024044 -26.97167969 26.65673828 C-23.69323385 23.90196693 -20.34694248 21.23326709 -17 18.5625 C-16.06450317 17.81045288 -16.06450317 17.81045288 -15.11010742 17.04321289 C-11.86747035 14.44551538 -8.58242702 11.96035836 -5.1875 9.5625 C-2.26355908 7.41235689 -0.81278752 5.65754385 0 2 C0 1.34 0 0.68 0 0 Z " fill="#4389DB" transform="translate(405,234)"/>
<path d="M0 0 C0.81146484 -0.01998047 1.62292969 -0.03996094 2.45898438 -0.06054688 C8.41925121 -0.0556574 8.41925121 -0.0556574 11.5234375 2.32421875 C12.03132813 3.02160156 12.53921875 3.71898437 13.0625 4.4375 C14.8585527 6.83223693 16.01511249 8.26742916 19.03515625 8.7578125 C22.98026716 8.8525493 26.51081279 8.41902395 30.3125 7.375 C36.04665898 5.94146026 39.63234611 7.53658432 44.875 10 C45.85082031 10.45503906 46.82664062 10.91007812 47.83203125 11.37890625 C48.56808594 11.72824219 49.30414063 12.07757813 50.0625 12.4375 C48.81273244 16.09066671 48.39151247 17.21815836 45.0625 19.4375 C45.76123461 21.45155992 45.76123461 21.45155992 47.0625 23.4375 C49.03225997 24.28042516 49.03225997 24.28042516 51.3125 24.5625 C55.03637893 25.23628746 58.4906907 26.15531204 62.0625 27.4375 C62.0625 30.4075 62.0625 33.3775 62.0625 36.4375 C60.33568563 36.94556447 58.60592021 37.44360467 56.875 37.9375 C55.91207031 38.2159375 54.94914062 38.494375 53.95703125 38.78125 C51.20904124 39.40427608 48.86651584 39.56052812 46.0625 39.4375 C45.10747842 41.16226911 45.10747842 41.16226911 45.0625 43.4375 C47.41676499 46.20872275 47.41676499 46.20872275 50.0625 48.4375 C48.82550821 52.14847537 47.90163266 52.39562034 44.5 54.125 C43.67371094 54.56199219 42.84742188 54.99898437 41.99609375 55.44921875 C35.71440173 57.56542126 29.00537335 56.32041227 22.5625 55.4375 C21.83546875 55.34210938 21.1084375 55.24671875 20.359375 55.1484375 C18.59314133 54.91603833 16.82772594 54.67743362 15.0625 54.4375 C14.77375 55.200625 14.485 55.96375 14.1875 56.75 C13.0625 59.4375 13.0625 59.4375 11.0625 62.4375 C7.64951902 63.14870372 4.16589248 62.99304322 0.6875 63 C-0.2715625 63.03673828 -1.230625 63.07347656 -2.21875 63.11132812 C-4.92779326 63.12830681 -7.30127198 63.06829947 -9.9375 62.4375 C-12.4140625 59.46484375 -12.4140625 59.46484375 -13.9375 56.4375 C-19.76063512 54.49645496 -26.01055926 55.1559993 -31.9375 56.4375 C-38.71494607 57.2348466 -43.19749669 54.67130468 -48.9375 51.4375 C-48.9375 50.4475 -48.9375 49.4575 -48.9375 48.4375 C-48.256875 47.798125 -47.57625 47.15875 -46.875 46.5 C-46.235625 45.819375 -45.59625 45.13875 -44.9375 44.4375 C-45.26044477 42.327139 -45.26044477 42.327139 -45.9375 40.4375 C-46.92492187 40.25574219 -47.91234375 40.07398438 -48.9296875 39.88671875 C-50.85167969 39.50966797 -50.85167969 39.50966797 -52.8125 39.125 C-54.08867187 38.88136719 -55.36484375 38.63773438 -56.6796875 38.38671875 C-59.9375 37.4375 -59.9375 37.4375 -61.9375 34.4375 C-62.01655064 32.10550612 -62.02548769 29.76917378 -61.9375 27.4375 C-56.64737333 25.86171759 -51.33545989 24.58808556 -45.9375 23.4375 C-45.2560177 21.54570797 -45.2560177 21.54570797 -44.9375 19.4375 C-45.5975 18.7775 -46.2575 18.1175 -46.9375 17.4375 C-47.5975 16.7775 -48.2575 16.1175 -48.9375 15.4375 C-48.87109375 13.4921875 -48.87109375 13.4921875 -47.9375 11.4375 C-44.00099459 8.59407141 -39.36842968 6.31195903 -34.44140625 6.56640625 C-32.83157528 6.94441254 -31.23071273 7.36246185 -29.640625 7.81640625 C-24.49585282 8.99851431 -19.18715728 8.58560945 -13.9375 8.4375 C-13.669375 7.674375 -13.40125 6.91125 -13.125 6.125 C-10.23534652 -0.41474209 -6.50316848 -0.05654929 0 0 Z " fill="#F6FAFC" transform="translate(203.9375,44.5625)"/>
<path d="M0 0 C1.1653125 -0.00128906 2.330625 -0.00257812 3.53125 -0.00390625 C4.7584375 -0.00003906 5.985625 0.00382812 7.25 0.0078125 C9.09078125 0.00201172 9.09078125 0.00201172 10.96875 -0.00390625 C12.71671875 -0.00197266 12.71671875 -0.00197266 14.5 0 C15.57765625 0.00112793 16.6553125 0.00225586 17.765625 0.00341797 C20.25 0.1328125 20.25 0.1328125 21.25 1.1328125 C21.34660952 3.05642877 21.37187168 4.98364316 21.37025452 6.90968323 C21.37162918 8.16476685 21.37300385 9.41985046 21.37442017 10.71296692 C21.37088055 12.11666894 21.36724574 13.52037072 21.36352539 14.92407227 C21.36324353 16.39218138 21.36340124 17.86029063 21.3639679 19.32839966 C21.3642559 23.32615907 21.35835874 27.32388874 21.35139394 31.32164121 C21.34516085 35.49501983 21.34455664 39.66839906 21.34336853 43.84178162 C21.34025508 51.75014042 21.33204151 59.65848547 21.32201904 67.5668382 C21.31085832 76.56789744 21.30534756 85.56895732 21.30032361 94.57002175 C21.28985891 113.09096139 21.27151326 131.61188217 21.25 150.1328125 C12.01 150.1328125 2.77 150.1328125 -6.75 150.1328125 C-6.77254587 130.72289536 -6.7909785 111.31298876 -6.80181217 91.90306187 C-6.80697542 82.89134313 -6.81401866 73.87963308 -6.82543945 64.86791992 C-6.83538541 57.016217 -6.84185322 49.16452036 -6.84408849 41.31281132 C-6.84539575 37.15277798 -6.84848255 32.99276265 -6.85573006 28.83273506 C-6.86248889 24.92172838 -6.86461724 21.01074723 -6.86310768 17.09973526 C-6.86338407 15.66014022 -6.86539001 14.22054437 -6.86920547 12.78095436 C-6.87414051 10.82387017 -6.87239807 8.86677246 -6.87025452 6.90968323 C-6.87117631 5.81182778 -6.8720981 4.71397234 -6.87304783 3.58284855 C-6.64011031 -1.05522866 -4.05407137 0.0042432 0 0 Z " fill="#F5F8FD" transform="translate(1005.75,123.8671875)"/>
<path d="M0 0 C13.449232 -1.10597745 21.8291398 -0.31897463 32.81884766 7.51513672 C37.19882998 10.49689769 41.84529492 13.0500874 46.4375 15.6875 C48.51110547 16.89334755 50.58401343 18.10039528 52.65625 19.30859375 C53.70167969 19.91687012 54.74710938 20.52514648 55.82421875 21.15185547 C60.01083029 23.58825225 64.19599879 26.02711442 68.38012695 28.46777344 C70.40112962 29.6458713 72.42308699 30.82233308 74.44604492 31.99707031 C79.03931436 34.66799262 83.6139674 37.36054721 88.14453125 40.13671875 C88.92836182 40.61270508 89.71219238 41.08869141 90.51977539 41.57910156 C91.96159505 42.45729364 93.39747708 43.34534279 94.82592773 44.24511719 C98.16616224 46.4335792 98.16616224 46.4335792 101.99291992 46.70751953 C105.3815112 45.51300092 108.44353287 43.69801619 111.5625 41.9375 C112.33916016 41.50268311 113.11582031 41.06786621 113.91601562 40.61987305 C122.16782843 35.96506565 130.30278963 31.11203989 138.44091797 26.26220703 C147.71721276 20.73745322 157.05320183 15.32343243 166.42382812 9.96020508 C167.43251953 9.38165771 168.44121094 8.80311035 169.48046875 8.20703125 C170.43679199 7.66344971 171.39311523 7.11986816 172.37841797 6.55981445 C174.7113325 5.17175421 176.87403705 3.66767493 179.08203125 2.09375 C183.69949452 -0.83022629 188.18499509 -0.56357218 193.5 -0.3125 C194.4178125 -0.28994141 195.335625 -0.26738281 196.28125 -0.24414062 C198.52259364 -0.1857723 200.76038827 -0.10398197 203 0 C199.89618418 3.40688202 196.48185857 5.70155702 192.5234375 7.984375 C191.88991364 8.3566925 191.25638977 8.72901001 190.60366821 9.11260986 C189.24118279 9.91275276 187.87714632 10.71025931 186.51171875 11.50537109 C182.86215793 13.63122359 179.22450099 15.77727196 175.5859375 17.921875 C174.85155457 18.35415405 174.11717163 18.78643311 173.36053467 19.23181152 C166.85320153 23.0693256 160.41818122 27.01496787 154 31 C142.61818568 38.05798652 131.11947309 44.90725245 119.58203125 51.70703125 C118.92237366 52.09654968 118.26271606 52.48606812 117.58306885 52.88739014 C116.35459978 53.61259215 115.1252971 54.33638492 113.8949585 55.05841064 C111.11145696 56.70199532 108.49199069 58.3782504 105.89550781 60.31152344 C103 62 103 62 100.37231445 61.89208984 C98.04819479 61.01812326 96.1287176 60.06948794 94.04296875 58.7265625 C93.27702393 58.24147217 92.5110791 57.75638184 91.72192383 57.2565918 C90.88556396 56.7181665 90.0492041 56.17974121 89.1875 55.625 C79.98915823 49.81357115 70.68217752 44.21575443 61.3125 38.6875 C50.13576297 32.08603351 39.03896449 25.37600751 28.01147461 18.52758789 C20.58404407 13.92915099 13.07328098 9.50318534 5.43041992 5.27148438 C3.58912554 4.23445949 1.78886918 3.12504785 0 2 C0 1.34 0 0.68 0 0 Z " fill="#0A3372" transform="translate(103,236)"/>
<path d="M0 0 C3.40618577 3.08178712 3.91722323 4.34813291 4.5 8.9375 C4.24059696 13.2500755 2.90243307 15.7347628 0 19 C-13.32697375 29.58937869 -30.87582433 28.97827285 -47 28 C-56.72341185 26.73548355 -64.12397568 22.34871021 -70.5625 15.125 C-72.0418299 11.90906543 -72.59891862 9.60530216 -71.91796875 6.0859375 C-69.53360642 0.6678546 -64.48331329 -2.78177084 -59.30859375 -5.3203125 C-56.56323512 -6.37471766 -53.83751501 -7.22981735 -51 -8 C-50.22140625 -8.22429688 -49.4428125 -8.44859375 -48.640625 -8.6796875 C-32.27942034 -12.68763361 -13.56472739 -10.32860952 0 0 Z " fill="#3598D4" transform="translate(238,67)"/>
<path d="M0 0 C1.32 0 2.64 0 4 0 C4 0.99 4 1.98 4 3 C5.65 3 7.3 3 9 3 C9 2.01 9 1.02 9 0 C10.32 0 11.64 0 13 0 C13 1.32 13 2.64 13 4 C13.7425 4.103125 14.485 4.20625 15.25 4.3125 C18.1973519 5.04933797 19.78383074 5.94799142 22 8 C22 8.66 22 9.32 22 10 C18.85375007 10.26218749 17.38162983 10.24754367 14.6875 8.5 C14.130625 8.005 13.57375 7.51 13 7 C13 9.31 13 11.62 13 14 C14.98567708 14.1953125 16.97135417 14.390625 18.95703125 14.5859375 C21 15 21 15 24 17 C23.9375 19.3125 23.9375 19.3125 23 22 C19.49851158 23.88042897 16.9919694 25 13 25 C13 26.32 13 27.64 13 29 C11.68 29 10.36 29 9 29 C9 28.01 9 27.02 9 26 C7.35 26 5.7 26 4 26 C4 26.99 4 27.98 4 29 C2.68 29 1.36 29 0 29 C0 27.68 0 26.36 0 25 C-0.886875 24.938125 -1.77375 24.87625 -2.6875 24.8125 C-6.74081992 23.81828945 -8.29831749 22.09898876 -11 19 C-9.35 18.67 -7.7 18.34 -6 18 C-5.34 18.99 -4.68 19.98 -4 21 C-1.94074861 21.72382467 -1.94074861 21.72382467 0 22 C0 19.69 0 17.38 0 15 C-0.928125 14.87625 -1.85625 14.7525 -2.8125 14.625 C-6 14 -6 14 -9 12 C-9.5 9.5625 -9.5 9.5625 -9 7 C-5.72821183 4.36439287 -4.27931853 4 0 4 C0 2.68 0 1.36 0 0 Z " fill="#D4E9F5" transform="translate(198,62)"/>
<path d="M0 0 C1.16413503 8.18664997 2.40772725 16.96280854 0 25 C-4.64153363 30.73358645 -12.07368691 33.84592864 -19 36 C-19.66 36 -20.32 36 -21 36 C-22.24000882 28.13643635 -23.48387425 19.70245417 -21 12 C-16.83487853 7.04823783 -6.82182139 0 0 0 Z " fill="#B1D7F7" transform="translate(300,310)"/>
<path d="M0 0 C2.00737751 0.64411179 4.00541909 1.3172911 6 2 C6.62745117 2.2052832 7.25490234 2.41056641 7.90136719 2.62207031 C12.94088356 4.41206247 17.87921465 6.48998326 21 11 C22.92095319 18.7866475 21.91112273 27.11388232 21 35 C18.99262249 34.35588821 16.99458091 33.6827089 15 33 C14.37254883 32.7947168 13.74509766 32.58943359 13.09863281 32.37792969 C8.05911644 30.58793753 3.12078535 28.51001674 0 24 C-1.92095319 16.2133525 -0.91112273 7.88611768 0 0 Z " fill="#B0D6F6" transform="translate(177,351)"/>
<path d="M0 0 C2.00737751 0.64411179 4.00541909 1.3172911 6 2 C6.62745117 2.2052832 7.25490234 2.41056641 7.90136719 2.62207031 C12.94088356 4.41206247 17.87921465 6.48998326 21 11 C22.92095319 18.7866475 21.91112273 27.11388232 21 35 C18.99262249 34.35588821 16.99458091 33.6827089 15 33 C14.37254883 32.7947168 13.74509766 32.58943359 13.09863281 32.37792969 C8.05911644 30.58793753 3.12078535 28.51001674 0 24 C-1.92095319 16.2133525 -0.91112273 7.88611768 0 0 Z " fill="#B0D6F6" transform="translate(143,331)"/>
<path d="M0 0 C0.99 0 1.98 0 3 0 C4.10849599 7.87221641 5.25784575 16.2623797 3 24 C-1.30952422 29.55866168 -8.38124927 32.91131914 -15 35 C-15.99 35 -16.98 35 -18 35 C-20.16104862 18.62296725 -20.16104862 18.62296725 -18 11 C-14.15829749 6.11272775 -8.38488842 3.758593 -2.67407227 1.65063477 C-0.99197506 1.12628353 -0.99197506 1.12628353 0 0 Z " fill="#B1D8F8" transform="translate(365,271)"/>
<path d="M0 0 C1.1681429 7.85918975 2.3878337 16.29220364 0 24 C-4.68386041 29.6648128 -12.10739021 32.80092113 -19 35 C-19.66 35 -20.32 35 -21 35 C-22.10849599 27.12778359 -23.25784575 18.7376203 -21 11 C-16.46750362 5.15373656 -7.49563828 0 0 0 Z " fill="#B1D7F7" transform="translate(266,331)"/>
<path d="M0 0 C1.1681429 7.85918975 2.3878337 16.29220364 0 24 C-4.68386041 29.6648128 -12.10739021 32.80092113 -19 35 C-19.66 35 -20.32 35 -21 35 C-22.10849599 27.12778359 -23.25784575 18.7376203 -21 11 C-16.46750362 5.15373656 -7.49563828 0 0 0 Z " fill="#B1D6F6" transform="translate(232,351)"/>
<path d="M0 0 C3.13236146 1.20347373 6.07245926 2.50465161 8.98828125 4.1640625 C9.62548096 4.5245166 10.26268066 4.8849707 10.91918945 5.25634766 C11.70898193 5.70800293 12.49877441 6.1596582 13.3125 6.625 C15.849375 8.06875 18.38625 9.5125 21 11 C21 18.92 21 26.84 21 35 C13.4389206 33.10973015 4.89890508 30.4200263 0 24 C-2.1594221 16.25526543 -1.0384726 7.86983669 0 0 Z " fill="#B0D6F6" transform="translate(109,311)"/>
<path d="M0 0 C1.1681429 7.85918975 2.3878337 16.29220364 0 24 C-4.68386041 29.6648128 -12.10739021 32.80092113 -19 35 C-19.66 35 -20.32 35 -21 35 C-22.1681429 27.14081025 -23.3878337 18.70779636 -21 11 C-16.56304266 5.63379979 -7.17285783 0 0 0 Z " fill="#B1D7F7" transform="translate(334,291)"/>
<path d="M0 0 C2.70003222 20.46160162 2.70003222 20.46160162 -1.60400391 26.10205078 C-7.19653581 30.71498629 -13.9997267 33.3538573 -21 35 C-22.1681429 27.14081025 -23.3878337 18.70779636 -21 11 C-16.56304266 5.63379979 -7.17285783 0 0 0 Z " fill="#B2D8F9" transform="translate(402,251)"/>
<path d="M0 0 C2.95700688 1.14196186 5.76693259 2.33073744 8.515625 3.91015625 C9.43214844 4.43512695 9.43214844 4.43512695 10.3671875 4.97070312 C10.98851562 5.33099609 11.60984375 5.69128906 12.25 6.0625 C12.88679688 6.42666016 13.52359375 6.79082031 14.1796875 7.16601562 C18.85925752 9.85925752 18.85925752 9.85925752 20 11 C20.08726223 12.78071246 20.10699041 14.5648314 20.09765625 16.34765625 C20.09443359 17.42724609 20.09121094 18.50683594 20.08789062 19.61914062 C20.07951172 20.75544922 20.07113281 21.89175781 20.0625 23.0625 C20.05798828 24.20267578 20.05347656 25.34285156 20.04882812 26.51757812 C20.03699747 29.34510351 20.0205141 32.1725264 20 35 C17.04299312 33.85803814 14.23306741 32.66926256 11.484375 31.08984375 C10.87335937 30.73986328 10.26234375 30.38988281 9.6328125 30.02929688 C9.01148438 29.66900391 8.39015625 29.30871094 7.75 28.9375 C7.11320313 28.57333984 6.47640625 28.20917969 5.8203125 27.83398438 C1.14074248 25.14074248 1.14074248 25.14074248 0 24 C-0.08726223 22.21928754 -0.10699041 20.4351686 -0.09765625 18.65234375 C-0.09443359 17.57275391 -0.09121094 16.49316406 -0.08789062 15.38085938 C-0.07951172 14.24455078 -0.07113281 13.10824219 -0.0625 11.9375 C-0.05798828 10.79732422 -0.05347656 9.65714844 -0.04882812 8.48242188 C-0.03699747 5.65489649 -0.0205141 2.8274736 0 0 Z " fill="#B3D8F8" transform="translate(7,251)"/>
<path d="M0 0 C2.95700688 1.14196186 5.76693259 2.33073744 8.515625 3.91015625 C9.43214844 4.43512695 9.43214844 4.43512695 10.3671875 4.97070312 C10.98851562 5.33099609 11.60984375 5.69128906 12.25 6.0625 C12.88679688 6.42666016 13.52359375 6.79082031 14.1796875 7.16601562 C18.85925752 9.85925752 18.85925752 9.85925752 20 11 C20.08726223 12.78071246 20.10699041 14.5648314 20.09765625 16.34765625 C20.09443359 17.42724609 20.09121094 18.50683594 20.08789062 19.61914062 C20.07951172 20.75544922 20.07113281 21.89175781 20.0625 23.0625 C20.05798828 24.20267578 20.05347656 25.34285156 20.04882812 26.51757812 C20.03699747 29.34510351 20.0205141 32.1725264 20 35 C19.25274658 34.69723145 18.50549316 34.39446289 17.7355957 34.08251953 C15.58619479 33.23196677 13.41208884 32.44381972 11.23046875 31.6796875 C6.81414874 29.83413344 2.80719515 28.00985665 0 24 C-1.93187053 16.21908316 -0.91069837 7.88244463 0 0 Z " fill="#B3D9F8" transform="translate(41,271)"/>
<path d="M0 0 C2.95700688 1.14196186 5.76693259 2.33073744 8.515625 3.91015625 C9.43214844 4.43512695 9.43214844 4.43512695 10.3671875 4.97070312 C10.98851563 5.33099609 11.60984375 5.69128906 12.25 6.0625 C12.88679688 6.42666016 13.52359375 6.79082031 14.1796875 7.16601562 C18.85925752 9.85925752 18.85925752 9.85925752 20 11 C20.08726223 12.78071246 20.10699041 14.5648314 20.09765625 16.34765625 C20.09443359 17.42724609 20.09121094 18.50683594 20.08789062 19.61914062 C20.07951172 20.75544922 20.07113281 21.89175781 20.0625 23.0625 C20.05798828 24.20267578 20.05347656 25.34285156 20.04882812 26.51757812 C20.03699747 29.34510351 20.0205141 32.1725264 20 35 C17.78904188 33.92177933 15.58132694 32.83762596 13.375 31.75 C12.75753906 31.44964844 12.14007813 31.14929688 11.50390625 30.83984375 C10.26163963 30.22524868 9.02884666 29.59114191 7.80615234 28.93847656 C6.09951747 28.05170926 4.33109256 27.28692137 2.5625 26.53125 C-0.51669333 23.48960781 -0.42241761 22.56283738 -0.5859375 18.359375 C-0.54610822 16.15548815 -0.47462619 13.95199415 -0.375 11.75 C-0.34792969 10.62335938 -0.32085937 9.49671875 -0.29296875 8.3359375 C-0.22227604 5.55535763 -0.1236504 2.77864641 0 0 Z " fill="#B3D9F8" transform="translate(75,291)"/>
<path d="M0 0 C0.99 0 1.98 0 3 0 C3 1.32 3 2.64 3 4 C4.32 4.33 5.64 4.66 7 5 C6.01 5 5.02 5 4 5 C4 7.64 4 10.28 4 13 C6.475 13.495 6.475 13.495 9 14 C9 14.33 9 14.66 9 15 C7.02 15 5.04 15 3 15 C3.144375 16.27875 3.28875 17.5575 3.4375 18.875 C3.51871094 19.59429687 3.59992188 20.31359375 3.68359375 21.0546875 C3.91292961 23.07404316 3.91292961 23.07404316 5 25 C4.34 25 3.68 25 3 25 C3 26.32 3 27.64 3 29 C2.01 29 1.02 29 0 29 C0 27.68 0 26.36 0 25 C-0.886875 24.938125 -1.77375 24.87625 -2.6875 24.8125 C-6.74081992 23.81828945 -8.29831749 22.09898876 -11 19 C-9.35 18.67 -7.7 18.34 -6 18 C-5.34 18.99 -4.68 19.98 -4 21 C-1.94074861 21.72382467 -1.94074861 21.72382467 0 22 C0 19.69 0 17.38 0 15 C-0.928125 14.87625 -1.85625 14.7525 -2.8125 14.625 C-6 14 -6 14 -9 12 C-9.5 9.5625 -9.5 9.5625 -9 7 C-5.72821183 4.36439287 -4.27931853 4 0 4 C0 2.68 0 1.36 0 0 Z " fill="#F0F7FB" transform="translate(198,62)"/>
<path d="M0 0 C1.75 0.75 1.75 0.75 2.75 1.75 C2.82319621 4.44654854 2.84242537 7.11691458 2.8125 9.8125 C2.80798828 10.57111328 2.80347656 11.32972656 2.79882812 12.11132812 C2.7870068 13.99091871 2.76907078 15.87046899 2.75 17.75 C2.42 17.75 2.09 17.75 1.75 17.75 C1.75 15.44 1.75 13.13 1.75 10.75 C0.821875 10.62625 -0.10625 10.5025 -1.0625 10.375 C-4.25 9.75 -4.25 9.75 -7.25 7.75 C-7.75 5.3125 -7.75 5.3125 -7.25 2.75 C-4.74017696 0.6584808 -3.30372325 -0.36708036 0 0 Z " fill="#E2F0F8" transform="translate(196.25,66.25)"/>
<path d="M0 0 C1.258125 0.12375 2.51625 0.2475 3.8125 0.375 C4.87404297 0.47941406 4.87404297 0.47941406 5.95703125 0.5859375 C8 1 8 1 11 3 C10.6875 5.375 10.6875 5.375 10 8 C7 10 7 10 4.3125 9.625 C3.549375 9.41875 2.78625 9.2125 2 9 C2.66 8.34 3.32 7.68 4 7 C4 6.01 4 5.02 4 4 C2.68 3.34 1.36 2.68 0 2 C0 1.34 0 0.68 0 0 Z " fill="#E9F3FA" transform="translate(211,76)"/>
<path d="M0 0 C-1.61010527 4.07376031 -4.53822271 6.76507069 -7.625 9.75 C-8.140625 10.25660156 -8.65625 10.76320312 -9.1875 11.28515625 C-10.45383339 12.52803902 -11.7263144 13.76465276 -13 15 C-13.66 14.67 -14.32 14.34 -15 14 C-2.98984772 0 -2.98984772 0 0 0 Z " fill="#98A3FB" transform="translate(1357,138)"/>
<path d="M0 0 C2.5 0.3125 2.5 0.3125 5 1 C5.33 1.66 5.66 2.32 6 3 C8.01669827 4.13350534 8.01669827 4.13350534 10 5 C10 5.66 10 6.32 10 7 C4.64951939 6.62671065 2.49087093 5.0042343 -1 1 C-0.67 0.67 -0.34 0.34 0 0 Z " fill="#DFEEF7" transform="translate(188,80)"/>
<path d="M0 0 C1.65 0 3.3 0 5 0 C5 2.31 5 4.62 5 7 C3.35 7 1.7 7 0 7 C0 4.69 0 2.38 0 0 Z " fill="#3397D3" transform="translate(202,78)"/>
<path d="M0 0 C1.65 0 3.3 0 5 0 C5 2.31 5 4.62 5 7 C3.35 7 1.7 7 0 7 C0 4.69 0 2.38 0 0 Z " fill="#3C9BD5" transform="translate(202,68)"/>
<path d="M0 0 C5.66153846 1.47692308 5.66153846 1.47692308 7.375 4.125 C7.58125 4.74375 7.7875 5.3625 8 6 C5.75 6.25 5.75 6.25 3 6 C0.6875 4 0.6875 4 -1 2 C-0.67 1.34 -0.34 0.68 0 0 Z " fill="#E1EFF8" transform="translate(212,66)"/>
<path d="M0 0 C2.475 0.495 2.475 0.495 5 1 C4.67 2.32 4.34 3.64 4 5 C2.68 5 1.36 5 0 5 C0 3.35 0 1.7 0 0 Z " fill="#399AD5" transform="translate(211,79)"/>
<path d="M0 0 C0.33 0.99 0.66 1.98 1 3 C-1.3125 4.5625 -1.3125 4.5625 -4 6 C-4.99 5.67 -5.98 5.34 -7 5 C-4.69 3.35 -2.38 1.7 0 0 Z " fill="#2F69DB" transform="translate(217,390)"/>
<path d="M0 0 C0.99 0 1.98 0 3 0 C3 1.65 3 3.3 3 5 C1.68 4.67 0.36 4.34 -1 4 C-0.67 2.68 -0.34 1.36 0 0 Z " fill="#49A2D8" transform="translate(195,69)"/>
<path d="M0 0 C0 0.66 0 1.32 0 2 C-4.15267176 5.11450382 -4.15267176 5.11450382 -7.3125 4.6875 C-7.869375 4.460625 -8.42625 4.23375 -9 4 C-2.25 0 -2.25 0 0 0 Z " fill="#5685E9" transform="translate(143,35)"/>
</svg>
