<?xml version="1.0" encoding="UTF-8"?>
<svg version="1.1" xmlns="http://www.w3.org/2000/svg" width="1640" height="400">
<path d="M0 0 C2.10304477 -0.1080023 4.20766909 -0.18558987 6.3125 -0.25 C8.07013672 -0.31960937 8.07013672 -0.31960937 9.86328125 -0.390625 C13 0 13 0 14.875 1.64453125 C16.23546201 4.49299859 16.45034036 6.79221886 16.6875 9.9375 C17.58701724 16.79535794 20.27232345 21.25003548 24.02734375 26.9609375 C30.10300385 36.32106336 30.73032507 45.13210035 31 56 C31.80836304 56.21148682 31.80836304 56.21148682 32.63305664 56.42724609 C35.10974866 57.07569489 37.58612556 57.7253395 40.0625 58.375 C40.91005859 58.59671875 41.75761719 58.8184375 42.63085938 59.046875 C45.08879432 59.69220155 47.54465457 60.34489841 50 61 C51.21558594 61.32226562 52.43117188 61.64453125 53.68359375 61.9765625 C57 63 57 63 60.33203125 64.4765625 C64.71729488 66.297918 69.06539097 67.33897295 73.6875 68.375 C75.56533636 68.80889213 77.44293523 69.24381325 79.3203125 69.6796875 C80.2680957 69.89850586 81.21587891 70.11732422 82.19238281 70.34277344 C87.31662202 71.542291 92.41971244 72.82577662 97.51904297 74.12670898 C101.81837946 75.22048948 106.1207156 76.25952746 110.453125 77.21484375 C111.35023193 77.41980469 112.24733887 77.62476562 113.17163086 77.8359375 C114.87443662 78.22381893 116.58090084 78.59612978 118.29125977 78.94921875 C122.93887482 80.02927454 127.21304193 81.41263149 130.72924805 84.74047852 C133.77266186 90.15196647 132.72246609 97.22640339 132.5 103.25 C132.47341949 104.7278114 132.44995525 106.2056823 132.4296875 107.68359375 C132.29921935 115.16167687 131.88113356 122.56910698 131 130 C128.69 130.99 126.38 131.98 124 133 C123.27483984 157.38524145 122.909248 181.76929139 122.70505953 206.16360486 C122.65539701 212.09434883 122.60137209 218.02503939 122.54455566 223.95571899 C122.53643529 224.80670115 122.52831492 225.6576833 122.51994848 226.5344528 C122.48681672 230.00237555 122.45359617 233.47029738 122.42003155 236.93821597 C122.32563823 246.71355003 122.240101 256.48881578 122.17675781 266.2644043 C122.12554471 274.15696849 122.05696916 282.04916521 121.96783805 289.94139534 C121.92171078 294.08470605 121.8843568 298.22766773 121.86847687 302.37121391 C121.85354771 306.23069524 121.81573754 310.08926037 121.76004791 313.94836235 C121.74377148 315.36085794 121.73599242 316.77348075 121.73731995 318.18606949 C121.73788693 320.11147479 121.70504835 322.03680392 121.67047119 323.9618988 C121.65720984 325.57606768 121.65720984 325.57606768 121.64368057 327.22284603 C120.7755597 330.96834561 119.17428842 331.95149223 116 334 C113.49933706 335.19778625 111.04614563 336.2883085 108.48046875 337.3203125 C107.75333679 337.62056839 107.02620483 337.92082428 106.27703857 338.23017883 C103.91692153 339.20277227 101.55230495 340.16386852 99.1875 341.125 C97.5505207 341.79742666 95.91388527 342.47069102 94.27758789 343.14477539 C91.02189913 344.48494729 87.76463729 345.8211664 84.50585938 347.15380859 C78.63849881 349.55486326 72.78719684 351.99373947 66.9375 354.4375 C65.97529541 354.8382373 65.01309082 355.23897461 64.02172852 355.65185547 C59.11645305 357.69497567 54.2166098 359.75024709 49.32275391 361.82055664 C39.59214469 365.93568986 29.83063627 369.9749481 20.0625 374 C18.94374985 374.46104126 18.94374985 374.46104126 17.80239868 374.93139648 C8.57032854 378.73364056 -0.67817189 382.48636067 -9.96679688 386.14868164 C-17.53011411 389.15755946 -24.97387415 392.43994751 -32.40307617 395.76464844 C-33.32064697 396.17102539 -34.23821777 396.57740234 -35.18359375 396.99609375 C-36.39873657 397.54027954 -36.39873657 397.54027954 -37.63842773 398.09545898 C-41.96579877 399.75294991 -43.87890817 400.46345897 -48.33789062 398.62011719 C-49.61685291 397.94053392 -50.88930172 397.24860145 -52.15625 396.546875 C-58.05610786 393.439064 -63.99022696 390.61897195 -70.15625 388.078125 C-70.92291992 387.76153931 -71.68958984 387.44495361 -72.47949219 387.11877441 C-74.81782916 386.15796653 -77.15862271 385.20337227 -79.5 384.25 C-81.87903569 383.27733145 -84.25728151 382.30283034 -86.63415527 381.32489014 C-88.09317225 380.72495534 -89.5534412 380.12805125 -91.01525879 379.53497314 C-95.13391351 377.84569183 -99.10673288 375.97481594 -103.07403564 373.9569397 C-105.97934503 372.51340006 -108.95485429 371.25981487 -111.9453125 370.00390625 C-112.58493423 369.73413971 -113.22455597 369.46437317 -113.88356018 369.18643188 C-115.25251117 368.60923074 -116.62193288 368.03314489 -117.99179077 367.45809937 C-121.67273282 365.91270508 -125.35010149 364.35886081 -129.02734375 362.8046875 C-129.77758316 362.48773422 -130.52782257 362.17078094 -131.30079651 361.84422302 C-138.78563986 358.67702911 -146.23738862 355.43532328 -153.6875 352.1875 C-163.38086409 347.96391874 -173.10662138 343.83972694 -182.91479492 339.8894043 C-194.20530461 335.33785073 -194.20530461 335.33785073 -199 333 C-199.59106033 332.77795898 -200.18212067 332.55591797 -200.79109192 332.32714844 C-202.87212365 331.41108635 -204.35597939 330.57813666 -206 329 C-207.10477379 325.78020525 -207.04625341 322.62306254 -207.05078125 319.2421875 C-207.07980026 318.22925629 -207.10881927 317.21632507 -207.13871765 316.17269897 C-207.22900598 312.74007438 -207.27015555 309.30852659 -207.3125 305.875 C-207.36852504 303.40584932 -207.42786609 300.93677203 -207.49023438 298.46777344 C-207.62251714 292.99597198 -207.73415796 287.52429718 -207.83056641 282.05175781 C-208.00202363 272.41616989 -208.23852316 262.7824758 -208.48046875 253.1484375 C-208.56693881 249.68880521 -208.65323068 246.2291685 -208.73950195 242.76953125 C-208.76112994 241.9043475 -208.78275793 241.03916374 -208.80504131 240.1477623 C-208.95800737 234.00618847 -209.1039771 227.864473 -209.24682617 221.72265625 C-209.95318266 191.4737275 -210.90843188 161.23748994 -212 131 C-214.64 130.01 -217.28 129.02 -220 128 C-221.13836436 119.90081747 -221.28784748 111.80695764 -221.35009766 103.64208984 C-221.3667753 102.04005527 -221.39421757 100.43809855 -221.43212891 98.83642578 C-221.48690884 96.49994247 -221.508752 94.16516364 -221.5234375 91.828125 C-221.54610687 91.11658264 -221.56877625 90.40504028 -221.59213257 89.67193604 C-221.57653191 85.99734763 -221.10762655 84.14895269 -218.93994141 81.14892578 C-215.55858622 78.67735226 -212.45987233 77.65483835 -208.4375 76.7890625 C-207.70120865 76.61524048 -206.9649173 76.44141846 -206.20631409 76.2623291 C-203.80772317 75.69995909 -201.40422557 75.16271478 -199 74.625 C-197.33802122 74.23870057 -195.67648351 73.85049883 -194.01538086 73.46044922 C-190.64493542 72.67154471 -187.2725927 71.89184276 -183.89794922 71.12109375 C-178.03548443 69.78175987 -172.18002998 68.41394556 -166.33007812 67.02099609 C-163.87632005 66.43744943 -161.42065571 65.86184299 -158.96289062 65.29541016 C-153.56056165 64.01920093 -148.91133424 62.65021175 -144 60 C-141.89199367 59.37683024 -139.76568623 58.81199345 -137.625 58.3125 C-136.56539063 58.06113281 -135.50578125 57.80976562 -134.4140625 57.55078125 C-133.61742187 57.36902344 -132.82078125 57.18726563 -132 57 C-131.87044922 55.90945312 -131.87044922 55.90945312 -131.73828125 54.796875 C-130.53460879 46.18343906 -127.8812137 38.76242741 -124 31 C-123.80176189 27.83186128 -123.65436475 24.67101941 -123.5703125 21.49804688 C-123.33402807 16.47208013 -123.33402807 16.47208013 -121.6484375 14.08984375 C-116.75763676 10.85635227 -110.59902008 11.51708452 -105 12 C-97.41411109 13.9086291 -91.89228643 19.12299984 -86 24 C-80.49523559 28.42074926 -76.08734928 31.68860014 -68.91015625 32.22265625 C-66.66980063 32.10821425 -66.66980063 32.10821425 -64 30 C-60.91915441 29.20372106 -57.76930916 28.79170027 -54.625 28.3125 C-53.77421875 28.17005859 -52.9234375 28.02761719 -52.046875 27.88085938 C-46.50091401 27.01268324 -42.57041409 27.06530397 -37.25 29 C-31.8687869 29 -28.88284987 25.45418324 -25 22 C-24.12214844 21.24203125 -23.24429688 20.4840625 -22.33984375 19.703125 C-17.36717485 15.35968191 -17.36717485 15.35968191 -12.99609375 10.43359375 C-10.96056048 7.9519162 -9.05820391 6.4239547 -6.375 4.6875 C-5.59898437 4.17574219 -4.82296875 3.66398438 -4.0234375 3.13671875 C-2 2 -2 2 0 2 C0 1.34 0 0.68 0 0 Z " fill="#0249AC" transform="translate(322,0)"/>
<path d="M0 0 C1.99523891 0.55284725 3.9911021 1.10339929 5.98701477 1.65380859 C7.34552215 2.02879714 8.70366567 2.40510632 10.06144714 2.78271484 C14.59007873 4.03658363 19.13443756 5.19934499 23.69921875 6.31640625 C24.87822754 6.611521 26.05723633 6.90663574 27.27197266 7.21069336 C29.49804376 7.76585862 31.72812894 8.30524101 33.96240234 8.82641602 C40.25446232 10.42998725 43.72245098 11.76410316 47.125 17.4375 C47.125 18.4275 47.125 19.4175 47.125 20.4375 C46.42640869 20.6233667 45.72781738 20.8092334 45.00805664 21.00073242 C28.521606 25.37068586 28.521606 25.37068586 12.125 30.0625 C6.19746161 31.82774521 0.26377953 33.56619421 -5.6875 35.25 C-6.44740234 35.46930176 -7.20730469 35.68860352 -7.99023438 35.91455078 C-11.450941 36.8864038 -14.25034208 37.4375 -17.875 37.4375 C-17.875 51.6275 -17.875 65.8175 -17.875 80.4375 C-14.94625 79.591875 -12.0175 78.74625 -9 77.875 C6.76866406 73.35398509 22.60649517 69.06119341 38.5 65 C39.70398438 64.69191406 40.90796875 64.38382812 42.1484375 64.06640625 C45.125 63.4375 45.125 63.4375 49.125 63.4375 C51.1283568 133.76112131 51.27949834 204.09100716 51.125 274.4375 C49.53113701 275.23845884 47.93680855 276.03849145 46.34228516 276.83813477 C45.45449371 277.28375259 44.56670227 277.72937042 43.65200806 278.18849182 C35.29482986 282.31914107 26.6377599 285.64733124 17.88500977 288.82470703 C9.98151318 291.76085648 2.31855534 295.26569118 -5.35864258 298.74291992 C-6.90394653 299.43671753 -6.90394653 299.43671753 -8.48046875 300.14453125 C-9.85948364 300.77065308 -9.85948364 300.77065308 -11.26635742 301.40942383 C-17.67312362 303.93435527 -17.67312362 303.93435527 -22.21289062 302.05761719 C-23.49185291 301.37803392 -24.76430172 300.68610145 -26.03125 299.984375 C-31.93110786 296.876564 -37.86522696 294.05647195 -44.03125 291.515625 C-44.79791992 291.19903931 -45.56458984 290.88245361 -46.35449219 290.55627441 C-48.69282916 289.59546653 -51.03362271 288.64087227 -53.375 287.6875 C-55.75403569 286.71483145 -58.13228151 285.74033034 -60.50915527 284.76239014 C-61.96817225 284.16245534 -63.4284412 283.56555125 -64.89025879 282.97247314 C-69.67172933 281.0113355 -74.27691699 278.79369623 -78.875 276.4375 C-80.20796979 275.77010675 -81.54125859 275.1033499 -82.875 274.4375 C-83.63162066 248.77576777 -84.10800519 223.12006404 -84.38025212 197.44886827 C-84.43152871 192.6737641 -84.48616571 187.89869816 -84.54039001 183.12362671 C-84.64180408 174.15051042 -84.74035745 165.17736529 -84.83778423 156.20420492 C-84.94916649 145.95923632 -85.06388834 135.71430588 -85.17883885 125.4693768 C-85.41451042 104.45879057 -85.64615667 83.44816165 -85.875 62.4375 C-86.535 62.1075 -87.195 61.7775 -87.875 61.4375 C-88.05077828 57.12552347 -88.15635237 52.81448002 -88.25 48.5 C-88.30027344 47.28763672 -88.35054687 46.07527344 -88.40234375 44.82617188 C-88.5662238 34.74754886 -85.99812729 29.97294002 -79.375 22.6875 C-64.31786838 9.13608154 -49.25062109 2.86787883 -29.75 -1.9375 C-29.07606201 -2.10548096 -28.40212402 -2.27346191 -27.70776367 -2.4465332 C-17.56683263 -4.77802785 -9.83550967 -2.7631154 0 0 Z " fill="#5270FE" transform="translate(295.875,96.5625)"/>
<path d="M0 0 C2.10304477 -0.1080023 4.20766909 -0.18558987 6.3125 -0.25 C8.07013672 -0.31960937 8.07013672 -0.31960937 9.86328125 -0.390625 C13 0 13 0 14.875 1.64453125 C16.23546201 4.49299859 16.45034036 6.79221886 16.6875 9.9375 C17.5863964 16.79062471 20.26162855 21.24548223 24.02734375 26.9453125 C30.07136863 36.30457479 32.09900053 46.33476584 30.375 57.375 C28.99504397 62.97547089 26.61103448 66.33505972 21.80078125 69.40234375 C10.75837272 75.38292608 -3.88468822 77.4252696 -16.21777344 74.46826172 C-19.0119913 73.61069963 -21.75650186 72.6422215 -24.5065918 71.65380859 C-30.3566366 69.64154082 -34.26135323 70.03624322 -40 72 C-45.5692377 73.60167926 -50.24910657 73.98609149 -56.0625 73.6875 C-63.11548132 73.56041926 -67.85944034 75.26517507 -74.15405273 78.28637695 C-83.74868423 82.88538883 -93.09761515 84.33806458 -103.7109375 84.30078125 C-107.16625894 85.03534483 -107.64335282 85.4177196 -109.9921875 87.76953125 C-115.17906203 92.61431117 -122.04858155 93.68202733 -128.75 95.375 C-130.09029109 95.73139485 -131.43014037 96.08945555 -132.76953125 96.44921875 C-142.45068171 99 -142.45068171 99 -146 99 C-146.84069555 101.94695034 -147.14646768 104.61631919 -147.20532227 107.67675781 C-147.22526749 108.59741028 -147.24521271 109.51806274 -147.26576233 110.46661377 C-147.28247482 111.45216248 -147.29918732 112.43771118 -147.31640625 113.453125 C-147.3475779 114.97616241 -147.3475779 114.97616241 -147.37937927 116.52996826 C-147.44470597 119.76991073 -147.50368137 123.00993348 -147.5625 126.25 C-147.60570126 128.44792493 -147.64931607 130.64584178 -147.69335938 132.84375 C-147.80037007 138.22908206 -147.90216773 143.6144938 -148 149 C-147.01 149 -146.02 149 -145 149 C-143.49673377 217.99073598 -142.76285964 286.99323002 -143 356 C-148.7609748 354.15859039 -154.35487302 352.11395456 -159.90234375 349.70703125 C-160.61879562 349.39957474 -161.3352475 349.09211823 -162.07341003 348.77534485 C-164.36307647 347.79148091 -166.6503751 346.80225593 -168.9375 345.8125 C-170.51083081 345.13443082 -172.08423602 344.45653423 -173.65771484 343.77880859 C-181.82601167 340.25655292 -189.98913018 336.72161018 -198.125 333.125 C-198.83906006 332.81022705 -199.55312012 332.4954541 -200.28881836 332.17114258 C-204.87604432 330.12395568 -204.87604432 330.12395568 -206 329 C-206.21212952 325.84030446 -206.35852669 322.69913921 -206.46484375 319.53515625 C-206.50235245 318.51798019 -206.53986115 317.50080414 -206.57850647 316.45280457 C-206.70382806 312.98954562 -206.82100109 309.52606637 -206.9375 306.0625 C-206.97979736 304.85130493 -207.02209473 303.64010986 -207.06567383 302.39221191 C-207.9410479 277.26053097 -208.53740886 252.1225685 -209.12271118 226.98275757 C-209.86818459 194.97994227 -210.84513937 162.99075333 -212 131 C-214.64 130.01 -217.28 129.02 -220 128 C-221.13836436 119.90081747 -221.28784748 111.80695764 -221.35009766 103.64208984 C-221.3667753 102.04005527 -221.39421757 100.43809855 -221.43212891 98.83642578 C-221.48690884 96.49994247 -221.508752 94.16516364 -221.5234375 91.828125 C-221.54610687 91.11658264 -221.56877625 90.40504028 -221.59213257 89.67193604 C-221.57653191 85.99734763 -221.10762655 84.14895269 -218.93994141 81.14892578 C-215.55858622 78.67735226 -212.45987233 77.65483835 -208.4375 76.7890625 C-207.70120865 76.61524048 -206.9649173 76.44141846 -206.20631409 76.2623291 C-203.80772317 75.69995909 -201.40422557 75.16271478 -199 74.625 C-197.33802122 74.23870057 -195.67648351 73.85049883 -194.01538086 73.46044922 C-190.64493542 72.67154471 -187.2725927 71.89184276 -183.89794922 71.12109375 C-178.03548443 69.78175987 -172.18002998 68.41394556 -166.33007812 67.02099609 C-163.87632005 66.43744943 -161.42065571 65.86184299 -158.96289062 65.29541016 C-153.56056165 64.01920093 -148.91133424 62.65021175 -144 60 C-141.89199367 59.37683024 -139.76568623 58.81199345 -137.625 58.3125 C-136.56539063 58.06113281 -135.50578125 57.80976562 -134.4140625 57.55078125 C-133.61742187 57.36902344 -132.82078125 57.18726563 -132 57 C-131.87044922 55.90945312 -131.87044922 55.90945312 -131.73828125 54.796875 C-130.53460879 46.18343906 -127.8812137 38.76242741 -124 31 C-123.80176189 27.83186128 -123.65436475 24.67101941 -123.5703125 21.49804688 C-123.33402807 16.47208013 -123.33402807 16.47208013 -121.6484375 14.08984375 C-116.75763676 10.85635227 -110.59902008 11.51708452 -105 12 C-97.41411109 13.9086291 -91.89228643 19.12299984 -86 24 C-80.49523559 28.42074926 -76.08734928 31.68860014 -68.91015625 32.22265625 C-66.66980063 32.10821425 -66.66980063 32.10821425 -64 30 C-60.91915441 29.20372106 -57.76930916 28.79170027 -54.625 28.3125 C-53.77421875 28.17005859 -52.9234375 28.02761719 -52.046875 27.88085938 C-46.50091401 27.01268324 -42.57041409 27.06530397 -37.25 29 C-31.8687869 29 -28.88284987 25.45418324 -25 22 C-24.12214844 21.24203125 -23.24429688 20.4840625 -22.33984375 19.703125 C-17.36717485 15.35968191 -17.36717485 15.35968191 -12.99609375 10.43359375 C-10.96056048 7.9519162 -9.05820391 6.4239547 -6.375 4.6875 C-5.59898437 4.17574219 -4.82296875 3.66398438 -4.0234375 3.13671875 C-2 2 -2 2 0 2 C0 1.34 0 0.68 0 0 Z " fill="#37B5FE" transform="translate(322,0)"/>
<path d="M0 0 C2.54408482 0.63055661 5.08780837 1.26251334 7.63134766 1.89526367 C8.3450502 2.07200371 9.05875275 2.24874374 9.79408264 2.43083954 C15.70311654 3.90264765 21.54289602 5.56074767 27.375 7.3125 C37.49878873 10.31672379 47.67099367 13.10218109 57.88623047 15.77856445 C58.93311035 16.05531006 59.97999023 16.33205566 61.05859375 16.6171875 C61.98986084 16.86065918 62.92112793 17.10413086 63.88061523 17.35498047 C66 18 66 18 67 19 C67.15575565 22.13981178 67.24688802 25.25944834 67.29663086 28.40161133 C67.32553374 29.88117215 67.32553374 29.88117215 67.35502052 31.39062309 C67.4176535 34.68351937 67.47273467 37.97649276 67.52734375 41.26953125 C67.56892204 43.58722728 67.6106676 45.90492032 67.65257263 48.22261047 C68.069761 71.91054444 68.32433058 95.60010782 68.53242874 119.29067612 C68.56304533 122.74909984 68.59473925 126.20751233 68.62667847 129.66592407 C68.96758948 166.77799947 69.14607572 203.88649981 69 241 C65.88427215 240.26204496 63.2067251 239.25789494 60.30859375 237.8828125 C59.37660156 237.44590088 58.44460938 237.00898926 57.484375 236.55883789 C56.47890625 236.08567139 55.4734375 235.61250488 54.4375 235.125 C44.11420575 230.31897191 33.66820465 225.91296014 23.08764648 221.70556641 C17.23901432 219.3699871 11.58467264 216.91182819 6 214 C4.6677836 213.33110412 3.33471925 212.6638876 2 212 C1.27968974 187.10241171 0.75248228 162.20881231 0.46757126 137.30242538 C0.43693846 134.63866971 0.40519119 131.97492888 0.37332153 129.31118774 C-0.13608413 86.20824691 -0.10334167 43.10519452 0 0 Z " fill="#5BE0E5" transform="translate(211,159)"/>
<path d="M0 0 C0.14424234 35.52053408 -0.13852091 71.03947772 -0.52325249 106.55768394 C-0.6192265 115.45986239 -0.70533542 124.36192552 -0.76831055 133.2644043 C-0.82414497 141.15698452 -0.89716248 149.04917759 -0.99149162 156.94139534 C-1.04046902 161.08469104 -1.08108867 165.22766777 -1.10095787 169.37121391 C-1.11977142 173.23072311 -1.16168531 177.08927986 -1.22165871 180.94836235 C-1.23953274 182.36084819 -1.24892336 183.77347059 -1.2492218 185.18606949 C-1.25089369 187.11150141 -1.28597763 189.03681828 -1.32279968 190.9618988 C-1.33293941 192.03801139 -1.34307913 193.11412397 -1.35352612 194.22284603 C-2.22520678 197.96745426 -3.82538316 198.95130032 -7 201 C-9.52374343 202.20931923 -12.00095488 203.31178925 -14.58984375 204.35546875 C-15.32325989 204.65882141 -16.05667603 204.96217407 -16.81231689 205.27471924 C-19.18421367 206.25355261 -21.56068199 207.22068563 -23.9375 208.1875 C-25.56645008 208.85680281 -27.19511137 209.52680893 -28.82348633 210.19750977 C-32.05035907 211.52500655 -35.27909987 212.84777702 -38.50976562 214.16601562 C-42.42201307 215.762471 -46.32915228 217.37081306 -50.234375 218.984375 C-52.2185844 219.80248508 -54.20294444 220.62022997 -56.1875 221.4375 C-57.53799438 221.99377075 -57.53799438 221.99377075 -58.91577148 222.5612793 C-64.88153305 225 -64.88153305 225 -66 225 C-66 156.36 -66 87.72 -66 17 C-32.8040402 7.84249385 -32.8040402 7.84249385 -19.875 4.5625 C-17.26785118 3.89860135 -14.66121946 3.23272769 -12.0546875 2.56640625 C-10.95624512 2.28740479 -9.85780273 2.00840332 -8.72607422 1.72094727 C-2.21876058 0 -2.21876058 0 0 0 Z " fill="#5270FD" transform="translate(445,133)"/>
<path d="M0 0 C7.59009619 1.68562156 15.07641216 3.50124994 22.5 5.8125 C24.21840445 6.3370708 25.93716737 6.86046847 27.65625 7.3828125 C28.96722656 7.78161621 28.96722656 7.78161621 30.3046875 8.18847656 C34.85884361 9.55967356 39.42786942 10.87768888 44 12.1875 C44.82306641 12.42509033 45.64613281 12.66268066 46.49414062 12.9074707 C52.9597474 14.75451005 59.46949922 16.39893328 66 18 C67.50326623 86.99073598 68.23714036 155.99323002 68 225 C62.2390252 223.15859039 56.64512698 221.11395456 51.09765625 218.70703125 C50.38120438 218.39957474 49.6647525 218.09211823 48.92658997 217.77534485 C46.63692353 216.79148091 44.3496249 215.80225593 42.0625 214.8125 C40.48916919 214.13443082 38.91576398 213.45653423 37.34228516 212.77880859 C29.17398833 209.25655292 21.01086982 205.72161018 12.875 202.125 C12.16093994 201.81022705 11.44687988 201.4954541 10.71118164 201.17114258 C6.12395568 199.12395568 6.12395568 199.12395568 5 198 C4.7878703 194.84030183 4.64147326 191.69914172 4.53515625 188.53515625 C4.49760223 187.51662064 4.46004822 186.49808502 4.4213562 185.44868469 C4.29609392 181.9867986 4.1789551 178.52469294 4.0625 175.0625 C3.99955246 173.26066254 3.99955246 173.26066254 3.93533325 171.42242432 C2.97772709 143.94116693 2.32838628 116.45156994 1.69750977 88.96118164 C1.62019661 85.60692796 1.54256809 82.25268167 1.46484375 78.8984375 C1.44610954 78.08503214 1.42737534 77.27162678 1.40807343 76.43357277 C1.15433134 65.48412253 0.83254012 54.53925703 0.4453125 43.59375 C0.08704339 33.43058207 -0.13474218 23.29447672 -0.0625 13.125 C-0.05798828 11.82949219 -0.05347656 10.53398437 -0.04882812 9.19921875 C-0.03747084 6.13275223 -0.02136298 3.06640992 0 0 Z " fill="#5CE0E5" transform="translate(111,131)"/>
<path d="M0 0 C0.73683014 -0.00817749 1.47366028 -0.01635498 2.2328186 -0.02478027 C4.68759347 -0.04971526 7.14230947 -0.06618567 9.59716797 -0.08056641 C10.4380685 -0.08589008 11.27896904 -0.09121376 12.14535141 -0.09669876 C16.61056355 -0.12348657 21.07574741 -0.14282885 25.54101562 -0.15722656 C29.21510208 -0.170477 32.88862135 -0.19815378 36.5625 -0.23925781 C41.01172681 -0.28903514 45.46044552 -0.31340466 49.90993881 -0.32045364 C51.59457817 -0.32710268 53.27920908 -0.34215546 54.9636879 -0.36634445 C69.28113734 -0.5599287 82.63519857 1.01919485 93.81591797 10.97412109 C101.97955009 19.40492663 106.8737182 29.38546731 107.46435547 41.25537109 C106.9062917 52.01553805 102.38393371 60.5559224 94.96435547 68.19287109 C94.22185547 68.71751953 93.47935547 69.24216797 92.71435547 69.78271484 C92.13685547 70.24806641 91.55935547 70.71341797 90.96435547 71.19287109 C90.96435547 72.18287109 90.96435547 73.17287109 90.96435547 74.19287109 C92.49850485 75.45625575 92.49850485 75.45625575 94.52685547 76.50537109 C104.1316226 82.22088393 111.63126992 89.79199982 114.90185547 100.75537109 C117.35989798 111.65625526 115.85239946 123.21902998 110.44482422 133.12255859 C102.38789744 144.38950105 92.25801711 150.79483669 78.96435547 154.19287109 C78.42199753 154.36712616 77.87963959 154.54138123 77.32084656 154.72091675 C73.89098798 155.40784345 70.48184138 155.3316562 66.9987793 155.32226562 C66.2000087 155.32401794 65.4012381 155.32577026 64.57826233 155.32757568 C61.94261492 155.33197106 59.30703479 155.32906518 56.67138672 155.32568359 C54.84103889 155.3263571 53.01069115 155.32732751 51.18034363 155.32858276 C47.34800361 155.33005643 43.51568692 155.32791504 39.68334961 155.32324219 C34.76009938 155.31753301 29.83690353 155.3208335 24.91365528 155.32681465 C21.13656704 155.33041889 17.35949181 155.32928253 13.58240318 155.32668686 C11.76623211 155.32601783 9.95005987 155.32684517 8.13389015 155.32916641 C5.60314399 155.33169199 3.07248749 155.32785427 0.54174805 155.32226562 C-0.59357361 155.32530197 -0.59357361 155.32530197 -1.75183105 155.32839966 C-6.92137936 155.30713627 -6.92137936 155.30713627 -8.03564453 154.19287109 C-8.13452265 152.22089571 -8.16196709 150.2453267 -8.16262817 148.27087402 C-8.165448 146.98357895 -8.16826782 145.69628387 -8.1711731 144.36997986 C-8.1692285 142.93008409 -8.16718031 141.49018846 -8.16503906 140.05029297 C-8.16639305 138.54439756 -8.16817296 137.03850248 -8.17034912 135.53260803 C-8.17492382 131.43148302 -8.17313375 127.33038305 -8.16997004 123.22925758 C-8.16744662 118.94690506 -8.16978392 114.66455475 -8.1713562 110.38220215 C-8.17317795 103.18936781 -8.17077145 95.99654372 -8.16601562 88.80371094 C-8.16057299 80.47570776 -8.16233565 72.14772905 -8.16784203 63.81972647 C-8.17237301 56.68259264 -8.17302379 49.5454662 -8.17040336 42.40833139 C-8.1688405 38.13988754 -8.16864706 33.87145521 -8.17193985 29.60301208 C-8.17481834 25.59103176 -8.17284328 21.57908313 -8.16704559 17.56710625 C-8.16571788 16.09042349 -8.16611231 14.61373808 -8.16830826 13.13705635 C-8.17101927 11.12966123 -8.16702537 9.1222603 -8.16262817 7.11486816 C-8.16225115 5.98881416 -8.16187412 4.86276016 -8.16148567 3.70258331 C-7.90890961 -1.33466625 -4.07811655 0.02474032 0 0 Z M19.96435547 25.19287109 C19.86328673 28.06551166 19.82465875 30.91360738 19.83154297 33.78662109 C19.83058624 34.64848022 19.82962952 35.51033936 19.8286438 36.39831543 C19.82796197 38.22420321 19.82981642 40.05009341 19.83398438 41.87597656 C19.83933261 44.68088188 19.83403948 47.48562705 19.82763672 50.29052734 C19.8282975 52.06005895 19.82957866 53.82959045 19.83154297 55.59912109 C19.82951874 56.44390015 19.82749451 57.2886792 19.82540894 58.15905762 C19.46511036 61.9847397 19.46511036 61.9847397 20.96435547 65.19287109 C26.78468431 65.48748632 32.60774376 65.50717534 38.43481445 65.54296875 C40.39684995 65.55943609 42.35882779 65.5866023 44.32055664 65.625 C59.56076356 66.42283633 59.56076356 66.42283633 72.96435547 60.19287109 C77.90143559 54.43085937 78.71484814 48.76138947 78.37451172 41.28271484 C77.662887 35.92180859 76.31021183 32.1108971 72.05810547 28.63427734 C67.38816519 25.55873832 63.37791225 24.06971224 57.76245117 24.06347656 C56.94513016 24.0603244 56.12780914 24.05717224 55.28572083 24.05392456 C53.97615669 24.05696091 53.97615669 24.05696091 52.64013672 24.06005859 C51.73813034 24.05910187 50.83612396 24.05814514 49.90678406 24.05715942 C48.00466848 24.05647999 46.10255056 24.05831777 44.20043945 24.0625 C41.27729141 24.06787029 38.35429573 24.06253743 35.43115234 24.05615234 C33.58414679 24.0568128 31.73714134 24.05809329 29.89013672 24.06005859 C29.01102127 24.05803436 28.13190582 24.05601013 27.22615051 24.05392456 C23.27986539 23.6737562 23.27986539 23.6737562 19.96435547 25.19287109 Z M19.96435547 87.19287109 C19.86650206 88.53831436 19.83637562 89.88879672 19.83496094 91.23779297 C19.83180878 92.09538208 19.82865662 92.95297119 19.82540894 93.83654785 C19.82743317 94.76882202 19.8294574 95.70109619 19.83154297 96.66162109 C19.83058624 97.6122644 19.82962952 98.56290771 19.8286438 99.5423584 C19.8279619 101.55655992 19.82981685 103.57076362 19.83398438 105.58496094 C19.83933249 108.67957464 19.8340397 111.77404319 19.82763672 114.86865234 C19.8282975 116.82047558 19.82957866 118.77229873 19.83154297 120.72412109 C19.82951874 121.65639526 19.82749451 122.58866943 19.82540894 123.54919434 C19.8285611 124.40678345 19.83171326 125.26437256 19.83496094 126.14794922 C19.83575653 126.90660278 19.83655212 127.66525635 19.83737183 128.44689941 C19.77514459 130.22164421 19.77514459 130.22164421 20.96435547 131.19287109 C22.35896321 131.30131964 23.75894936 131.34188084 25.15771484 131.35400391 C26.04954468 131.36361145 26.94137451 131.37321899 27.86022949 131.38311768 C28.83302856 131.38736755 29.80582764 131.39161743 30.80810547 131.39599609 C31.80636353 131.40169617 32.80462158 131.40739624 33.83312988 131.41326904 C35.95498591 131.42274051 38.07685679 131.42926149 40.19873047 131.43310547 C43.42295757 131.4427473 46.64652992 131.47372373 49.87060547 131.50537109 C51.93310169 131.51190737 53.99560247 131.51715538 56.05810547 131.52099609 C57.01471069 131.5333429 57.97131592 131.5456897 58.95690918 131.55841064 C67.60909876 131.53009577 75.10725299 129.90112505 81.52685547 123.85302734 C85.7685013 118.95438745 87.13973076 112.53732998 86.96435547 106.19287109 C85.92996195 100.45668884 84.34534577 95.21864596 79.96435547 91.19287109 C74.52757925 87.89717582 69.59825742 86.06965009 63.21166992 86.06347656 C61.80550163 86.05874832 61.80550163 86.05874832 60.3709259 86.05392456 C58.86449776 86.05696091 58.86449776 86.05696091 57.32763672 86.06005859 C56.29245407 86.05910187 55.25727142 86.05814514 54.1907196 86.05715942 C52.00613341 86.05647958 49.82154519 86.05832021 47.63696289 86.0625 C44.27925126 86.06786726 40.9216724 86.06254002 37.56396484 86.05615234 C35.44352184 86.05681284 33.32307892 86.05809341 31.20263672 86.06005859 C29.68709953 86.05702225 29.68709953 86.05702225 28.14094543 86.05392456 C27.21295639 86.05707672 26.28496735 86.06022888 25.32885742 86.06347656 C24.5081929 86.06427216 23.68752838 86.06506775 22.84199524 86.06588745 C20.95097782 85.98698773 20.95097782 85.98698773 19.96435547 87.19287109 Z " fill="#FEFEFE" transform="translate(897.03564453125,124.80712890625)"/>
<path d="M0 0 C2.53067896 1.94607251 4.90790368 3.97735845 7.26953125 6.125 C8.12417969 6.8984375 8.97882813 7.671875 9.859375 8.46875 C19.26447016 17.40712615 24.76480117 26.65164389 28.26953125 39.125 C25.54588087 41.84865038 17.61884756 40.45883497 13.95703125 40.5 C12.70728516 40.53738281 11.45753906 40.57476562 10.16992188 40.61328125 C8.96916016 40.62488281 7.76839844 40.63648438 6.53125 40.6484375 C4.8754895 40.6781665 4.8754895 40.6781665 3.1862793 40.70849609 C0.26953125 40.125 0.26953125 40.125 -2.01538086 37.7277832 C-2.86434937 36.43940552 -2.86434937 36.43940552 -3.73046875 35.125 C-4.2925 34.40957031 -4.85453125 33.69414062 -5.43359375 32.95703125 C-5.9440625 32.29058594 -6.45453125 31.62414062 -6.98046875 30.9375 C-7.76164062 29.92623047 -7.76164062 29.92623047 -8.55859375 28.89453125 C-9.73046875 27.125 -9.73046875 27.125 -9.73046875 25.125 C-10.29765625 24.85429687 -10.86484375 24.58359375 -11.44921875 24.3046875 C-13.81381987 23.0818972 -15.99222167 21.68993896 -18.23046875 20.25 C-32.11851532 11.85973258 -47.38803504 10.33069697 -63 13.95703125 C-75.81818123 17.97026286 -86.46275076 24.79782322 -92.97094727 36.7331543 C-101.42987659 53.14051049 -103.04344467 69.51252381 -97.43701172 87.17041016 C-92.89193049 99.74398318 -86.06986419 107.44257146 -74.73046875 114.125 C-74.09238281 114.53105469 -73.45429687 114.93710938 -72.796875 115.35546875 C-60.81121556 122.32263382 -45.84308662 121.98103175 -32.73046875 119.125 C-20.74331951 115.77509802 -11.19874716 109.80785742 -4.5078125 99.18359375 C-1.76098471 94.15266543 -1.51355273 91.38967183 -0.73046875 85.125 C-16.57046875 84.795 -32.41046875 84.465 -48.73046875 84.125 C-48.73046875 62.125 -48.73046875 62.125 -47.73046875 61.125 C-45.26602818 61.02999452 -42.82972249 60.99942015 -40.36499023 61.01147461 C-39.59431213 61.01132858 -38.82363403 61.01118256 -38.02960205 61.0110321 C-35.47022736 61.0117314 -32.91092455 61.01952455 -30.3515625 61.02734375 C-28.5817926 61.02920787 -26.81202219 61.0306318 -25.04225159 61.03163147 C-20.37495509 61.03545712 -15.70768952 61.0452878 -11.04040527 61.05633545 C-6.2814984 61.06654856 -1.52258654 61.07112887 3.23632812 61.07617188 C12.58074278 61.08691003 21.92513445 61.10398701 31.26953125 61.125 C31.29678965 63.63939779 31.31649352 66.15349281 31.33203125 68.66796875 C31.34041016 69.369823 31.34878906 70.07167725 31.35742188 70.7947998 C31.44120026 88.94852907 24.67181719 107.80402621 12.26953125 121.125 C11.48578125 122.15625 10.70203125 123.1875 9.89453125 124.25 C-4.2880809 139.78333712 -23.55230963 146.13705423 -44.05859375 147.31640625 C-66.96796183 147.73960886 -86.8272936 140.65830857 -103.73046875 125.125 C-110.49669073 118.43803098 -116.00975444 111.37993892 -120.73046875 103.125 C-121.32988281 102.07699219 -121.32988281 102.07699219 -121.94140625 101.0078125 C-127.73891512 90.15382973 -128.9101369 78.87371 -128.91796875 66.75 C-128.93021484 65.76 -128.94246094 64.77 -128.95507812 63.75 C-128.96727143 57.58831523 -128.33578598 52.06874271 -126.73046875 46.125 C-126.53066406 45.26390625 -126.33085938 44.4028125 -126.125 43.515625 C-120.89460075 24.27898883 -106.58704207 7.40159514 -89.73046875 -2.875 C-61.51483844 -18.57086764 -27.01455703 -18.55076877 0 0 Z " fill="#98ABFE" transform="translate(1238.73046875,135.875)"/>
<path d="M0 0 C0.91652344 0.30035156 1.83304688 0.60070312 2.77734375 0.91015625 C20.05043013 7.05820394 34.45279117 22.26788406 42.7421875 38.2578125 C45.62950765 44.55252909 47.37731163 49.11344186 46 56 C37.09 56 28.18 56 19 56 C17.2365625 52.2875 17.2365625 52.2875 15.4375 48.5 C9.53864685 36.61277245 3.4007724 30.46224499 -9 25 C-24.06663114 19.97778962 -39.35608197 21.42526309 -53.5 28.375 C-65.78077706 34.65885555 -72.5572099 44.09795806 -77 57 C-77.391875 58.051875 -77.78375 59.10375 -78.1875 60.1875 C-82.89120286 76.46954835 -79.6690201 93.29520892 -71.80859375 107.9375 C-65.17666481 119.16737535 -54.54439428 125.69194824 -42 129 C-26.74723984 132.50917717 -12.6284524 130.4776495 1.046875 122.921875 C10.5929693 116.70933744 14.25141982 106.99701091 19 97 C28.24 97 37.48 97 47 97 C44.1776523 116.75643392 34.32393796 131.05055212 19.12109375 143.32421875 C1.71149332 155.75964763 -20.11935774 159.49308347 -41.08789062 156.17724609 C-58.25246873 153.1039144 -71.50525051 145.96926938 -84 134 C-84.84820313 133.23816406 -85.69640625 132.47632813 -86.5703125 131.69140625 C-99.89796395 119.28079504 -108.49229473 100.34304228 -109.3359375 82.08984375 C-109.69528023 61.47230667 -105.23367729 43.30792537 -92 27 C-90.98099609 25.73349609 -90.98099609 25.73349609 -89.94140625 24.44140625 C-68.03523225 -1.32346995 -32.09657685 -11.60940014 0 0 Z " fill="#FEFEFE" transform="translate(635,126)"/>
<path d="M0 0 C4.31248609 -0.02886537 8.62494762 -0.04675255 12.9375 -0.0625 C14.16919922 -0.07087891 15.40089844 -0.07925781 16.66992188 -0.08789062 C17.83974609 -0.09111328 19.00957031 -0.09433594 20.21484375 -0.09765625 C21.84087524 -0.10551147 21.84087524 -0.10551147 23.49975586 -0.11352539 C26 0 26 0 27 1 C27.11466941 3.85277486 27.16486057 6.68231474 27.17358398 9.53613281 C27.180271 10.43223267 27.18695801 11.32833252 27.19384766 12.25158691 C27.2079393 14.20664335 27.21982009 16.16171663 27.22979546 18.1167984 C27.24618585 21.22056557 27.26942986 24.32421063 27.29469299 27.42791748 C27.36547372 36.25624491 27.42522944 45.08462604 27.47680664 53.91308594 C27.50881361 59.30894695 27.55015845 64.70467414 27.59700203 70.10042572 C27.61291243 72.14947823 27.62528388 74.19856165 27.63390923 76.24765778 C27.41003006 100.72827124 27.41003006 100.72827124 38.5 121.9375 C44.72775914 127.07540129 50.19188293 129.25611218 58 131 C59.85625 131.433125 59.85625 131.433125 61.75 131.875 C71.56036364 132.80164626 81.7519866 129.62313353 89.69140625 124.01953125 C97.06861098 117.56603743 100.75374075 108.58442017 102 99 C102.15435859 95.77968778 102.17435174 92.56225166 102.18945312 89.33862305 C102.19774643 88.38350327 102.20603973 87.42838348 102.21458435 86.44432068 C102.23193071 84.37855842 102.2471121 82.31277708 102.26036072 80.24698448 C102.28143996 76.98229793 102.30845455 73.71770817 102.33703613 70.45307922 C102.4067574 62.35143875 102.46640734 54.24973005 102.52606201 46.14801025 C102.57690006 39.29032444 102.6316686 32.43269291 102.69187927 25.57508278 C102.71853343 22.35042027 102.73929304 19.12575285 102.7598877 15.90104675 C102.77648034 13.93883009 102.79335125 11.97661576 102.81054688 10.0144043 C102.81473129 9.11105347 102.81891571 8.20770264 102.82322693 7.27697754 C102.88614578 1.11385422 102.88614578 1.11385422 104 0 C105.91458282 -0.09971786 107.83282317 -0.13080589 109.75 -0.1328125 C110.9153125 -0.13410156 112.080625 -0.13539062 113.28125 -0.13671875 C114.5084375 -0.13285156 115.735625 -0.12898438 117 -0.125 C118.84078125 -0.13080078 118.84078125 -0.13080078 120.71875 -0.13671875 C122.46671875 -0.13478516 122.46671875 -0.13478516 124.25 -0.1328125 C125.32765625 -0.13168457 126.4053125 -0.13055664 127.515625 -0.12939453 C130 0 130 0 131 1 C131.10389365 2.33427829 131.13959796 3.67395722 131.14717102 5.01225281 C131.15790398 6.30919571 131.15790398 6.30919571 131.16885376 7.63233948 C131.17154266 8.58857712 131.17423157 9.54481476 131.17700195 10.5300293 C131.18357315 11.53181213 131.19014435 12.53359497 131.19691467 13.56573486 C131.21672056 16.90189686 131.22833291 20.23801346 131.23828125 23.57421875 C131.24235678 24.71424662 131.2464323 25.85427448 131.25063133 27.02884865 C131.27153353 33.07497605 131.28581129 39.12108055 131.29516602 45.16723633 C131.30617581 51.38867869 131.34050073 57.60975796 131.38033772 63.83107281 C131.40661549 68.63123698 131.41486826 73.43131665 131.41844749 78.2315464 C131.42329293 80.52264644 131.43484793 82.81374322 131.45348549 85.10477257 C131.54699428 97.37246364 131.53538099 108.42634509 127 120 C126.64251175 120.91637741 126.2850235 121.83275482 125.91670227 122.77690125 C120.22523743 136.42486951 106.82884188 147.28092007 93.578125 152.95703125 C92.72734375 153.30121094 91.8765625 153.64539063 91 154 C90.18789063 154.35191406 89.37578125 154.70382812 88.5390625 155.06640625 C71.33164511 161.39344126 49.15374078 158.9411582 32.6640625 151.4296875 C21.3812272 145.37467618 10.16882294 134.80861526 5 123 C4.62230469 122.15179688 4.24460937 121.30359375 3.85546875 120.4296875 C0.44764242 112.36168878 -0.14541027 105.1785122 -0.11352539 96.49658203 C-0.11367142 95.45207382 -0.11381744 94.40756561 -0.1139679 93.33140564 C-0.11327305 89.89018656 -0.10550066 86.44902208 -0.09765625 83.0078125 C-0.09579055 80.61742177 -0.09436736 78.22703065 -0.09336853 75.8366394 C-0.08955532 69.55337463 -0.07973522 63.27013306 -0.06866455 56.98687744 C-0.05842473 50.57198399 -0.0538654 44.15708677 -0.04882812 37.7421875 C-0.03811189 25.16144845 -0.02124277 12.58072546 0 0 Z " fill="#FEFEFE" transform="translate(715,125)"/>
<path d="M0 0 C9.32933479 0.94874591 9.32933479 0.94874591 13 3 C14.8340541 5.93098407 15.2463037 8.15794212 15.22705078 11.58496094 C15.22689972 12.48559265 15.22674866 13.38622437 15.22659302 14.31414795 C15.21627045 15.27782288 15.20594788 16.2414978 15.1953125 17.234375 C15.1924826 18.22753723 15.18965271 19.22069946 15.18673706 20.24395752 C15.17555143 23.41276144 15.15044962 26.58128165 15.125 29.75 C15.11496812 31.8997355 15.10584263 34.04947543 15.09765625 36.19921875 C15.07561741 41.46624246 15.04215584 46.73310096 15 52 C13.68 52 12.36 52 11 52 C11 120.64 11 189.28 11 260 C-0.2653486 265.6326743 -0.2653486 265.6326743 -4.28125 267.23828125 C-5.14234375 267.58310547 -6.0034375 267.92792969 -6.890625 268.28320312 C-7.75171875 268.62287109 -8.6128125 268.96253906 -9.5 269.3125 C-10.83804687 269.85100586 -10.83804687 269.85100586 -12.203125 270.40039062 C-18.73928571 273 -18.73928571 273 -21 273 C-21.26399243 251.70781622 -21.5248793 230.41559627 -21.78230286 209.12333202 C-21.90196124 199.23169894 -22.02254727 189.34007896 -22.14550781 179.44848633 C-22.25297395 170.80313933 -22.35850574 162.15777098 -22.46193409 153.5123747 C-22.51650082 148.95639997 -22.57188594 144.40043934 -22.62960815 139.8445034 C-22.96175543 113.56193247 -23.05540051 87.28459705 -23 61 C-20.525 60.505 -20.525 60.505 -18 60 C-18 50.76 -18 41.52 -18 32 C-17.67 32.99 -17.34 33.98 -17 35 C-16.34 35 -15.68 35 -15 35 C-15.04125 34.175 -15.0825 33.35 -15.125 32.5 C-15.01086323 29.30417052 -14.41887474 26.69554371 -13.578125 23.6328125 C-12.23466678 17.51463116 -11.70934161 11.21805835 -11 5 C-5.14340094 6.66153012 0.4590134 8.47041916 6 11 C4.02 7.37 2.04 3.74 0 0 Z " fill="#FD1617" transform="translate(368,98)"/>
<path d="M0 0 C-0.556875 0.4125 -1.11375 0.825 -1.6875 1.25 C-13.62634095 10.28479856 -22.81036282 20.71484081 -28 35 C-26.64455078 34.22462891 -26.64455078 34.22462891 -25.26171875 33.43359375 C-24.07060933 32.76769793 -22.8791866 32.10236234 -21.6875 31.4375 C-20.79514648 30.92413086 -20.79514648 30.92413086 -19.88476562 30.40039062 C-18.29717441 29.52233738 -16.65006069 28.75413732 -15 28 C-14.01 28.33 -13.02 28.66 -12 29 C-10.83325195 31.59204102 -10.83325195 31.59204102 -9.73828125 35.00390625 C-9.34189453 36.21884766 -8.94550781 37.43378906 -8.53710938 38.68554688 C-8.12864688 39.97778263 -7.72044714 41.27010146 -7.3125 42.5625 C-6.89367951 43.85908024 -6.4737709 45.15530955 -6.05273438 46.45117188 C-5.02442304 49.63066324 -4.01083694 52.81491002 -3 56 C-1.68 51.71 -0.36 47.42 1 43 C1.33 43 1.66 43 2 43 C2 50.26 2 57.52 2 65 C3.32 65.33 4.64 65.66 6 66 C6.26351701 88.03046321 6.52439681 110.06095634 6.78230286 132.09148598 C6.90216477 142.3251655 7.02282684 152.55883432 7.14550781 162.79248047 C7.25267982 171.73260182 7.35821303 180.67274092 7.46193409 189.612903 C7.51669041 194.32800552 7.57216087 199.0430967 7.62960815 203.75816727 C7.93048758 228.50663483 8.06081856 253.24970121 8 278 C7.37351625 277.75527482 6.74703251 277.51054964 6.10156441 277.25840855 C5.27971594 276.93744174 4.45786747 276.61647493 3.6111145 276.28578186 C2.79642763 275.96758012 1.98174076 275.64937838 1.14236641 275.32153416 C-0.53817873 274.66629851 -2.22013267 274.01467368 -3.90283203 273.36499023 C-9.19295605 271.27274235 -14.28680613 268.91394787 -19.35888672 266.34790039 C-20.00071396 266.02501289 -20.6425412 265.7021254 -21.30381775 265.36945343 C-22.87002368 264.58124674 -24.43512728 263.79085028 -26 263 C-26.26520397 243.83630071 -26.52609302 224.67254685 -26.78230286 205.50872517 C-26.90144911 196.60385255 -27.02185259 187.69900069 -27.14550781 178.79418945 C-27.7132205 137.86022326 -28.18092744 96.93883349 -28 56 C-28.99 56 -29.98 56 -31 56 C-31.05070326 49.52216941 -31.08573492 43.04438999 -31.10986328 36.56640625 C-31.11992183 34.36261075 -31.13357026 32.1588286 -31.15087891 29.95507812 C-31.1751334 26.78772691 -31.1864846 23.62055213 -31.1953125 20.453125 C-31.20563507 19.46757629 -31.21595764 18.48202759 -31.22659302 17.46661377 C-31.22674408 16.5459613 -31.22689514 15.62530884 -31.22705078 14.67675781 C-31.231492 13.8684552 -31.23593323 13.06015259 -31.24050903 12.22735596 C-30.9686985 9.7101166 -30.36368178 8.12694986 -29 6 C-26.54150391 4.88745117 -26.54150391 4.88745117 -23.4765625 4.04296875 C-21.82140625 3.58180664 -21.82140625 3.58180664 -20.1328125 3.11132812 C-18.97523438 2.80646484 -17.81765625 2.50160156 -16.625 2.1875 C-14.90023437 1.70120117 -14.90023437 1.70120117 -13.140625 1.20507812 C-3.78348318 -1.34141676 -3.78348318 -1.34141676 0 0 Z " fill="#FC1718" transform="translate(205,93)"/>
<path d="M0 0 C0.98396507 0.00424484 0.98396507 0.00424484 1.98780823 0.00857544 C4.05587034 0.01965266 6.12347798 0.04473187 8.19140625 0.0703125 C9.6048114 0.08035848 11.01822342 0.08948148 12.43164062 0.09765625 C15.87270616 0.11783845 19.31280549 0.15700711 22.75390625 0.1953125 C22.75390625 7.4553125 22.75390625 14.7153125 22.75390625 22.1953125 C20.15515625 22.2984375 17.55640625 22.4015625 14.87890625 22.5078125 C4.88069414 22.74488554 4.88069414 22.74488554 -4.24609375 26.1953125 C-8.00409008 31.78591197 -7.24609375 37.5567006 -7.24609375 44.1953125 C2.32390625 44.5253125 11.89390625 44.8553125 21.75390625 45.1953125 C21.77453125 48.8046875 21.79515625 52.4140625 21.81640625 56.1328125 C21.82551025 57.27226318 21.83461426 58.41171387 21.84399414 59.58569336 C21.8464917 60.47651611 21.84898926 61.36733887 21.8515625 62.28515625 C21.85679932 63.20159912 21.86203613 64.11804199 21.86743164 65.06225586 C21.75390625 67.1953125 21.75390625 67.1953125 20.75390625 68.1953125 C18.68305905 68.353739 16.60712596 68.44655672 14.53125 68.51171875 C12.64116211 68.57456055 12.64116211 68.57456055 10.71289062 68.63867188 C9.37239889 68.67848846 8.03190405 68.71820064 6.69140625 68.7578125 C5.34699102 68.80099292 4.00258965 68.84460706 2.65820312 68.88867188 C-0.64311715 68.99516608 -3.94451611 69.0971771 -7.24609375 69.1953125 C-7.2541806 70.31839813 -7.26226746 71.44148376 -7.27059937 72.59860229 C-7.34796454 83.1642739 -7.43567913 93.7298152 -7.53362083 104.2953167 C-7.58364277 109.72761336 -7.62997214 115.15989001 -7.66796875 120.59228516 C-7.70474723 125.83135112 -7.75108657 131.07025201 -7.80415726 136.3091774 C-7.82274087 138.31149536 -7.83783404 140.31384875 -7.84943771 142.31621933 C-7.86623251 145.11316717 -7.89525057 147.90973364 -7.92724609 150.70654297 C-7.92940628 151.54091888 -7.93156647 152.3752948 -7.93379211 153.23495483 C-8.01798943 158.96720818 -8.01798943 158.96720818 -10.24609375 161.1953125 C-12.75219727 161.43823242 -12.75219727 161.43823242 -15.875 161.42578125 C-16.99197266 161.42384766 -18.10894531 161.42191406 -19.25976562 161.41992188 C-20.43087891 161.40767578 -21.60199219 161.39542969 -22.80859375 161.3828125 C-23.98357422 161.38216797 -25.15855469 161.38152344 -26.36914062 161.38085938 C-35.10597234 161.33543391 -35.10597234 161.33543391 -36.24609375 160.1953125 C-36.37132454 157.36570532 -36.43218603 154.55931913 -36.45141602 151.72827148 C-36.46131561 150.84055054 -36.47121521 149.95282959 -36.48141479 149.03820801 C-36.51312859 146.08930168 -36.53782609 143.14037921 -36.5625 140.19140625 C-36.58306101 138.1525886 -36.60405724 136.11377529 -36.62547302 134.07496643 C-36.68078185 128.69751495 -36.73015213 123.32002444 -36.77832031 117.94250488 C-36.82847117 112.45968129 -36.88419064 106.97691466 -36.93945312 101.49414062 C-37.0471424 90.7279132 -37.14856329 79.9616364 -37.24609375 69.1953125 C-38.19246704 69.15772827 -38.19246704 69.15772827 -39.15795898 69.11938477 C-42.000062 69.00377113 -44.84180458 68.88088934 -47.68359375 68.7578125 C-48.67681641 68.71849609 -49.67003906 68.67917969 -50.69335938 68.63867188 C-51.63759766 68.59677734 -52.58183594 68.55488281 -53.5546875 68.51171875 C-54.42923584 68.47506104 -55.30378418 68.43840332 -56.20483398 68.40063477 C-58.24609375 68.1953125 -58.24609375 68.1953125 -59.24609375 67.1953125 C-59.34508898 65.64575691 -59.37688899 64.09177577 -59.37890625 62.5390625 C-59.38019531 61.59933594 -59.38148437 60.65960938 -59.3828125 59.69140625 C-59.37894531 58.70269531 -59.37507813 57.71398437 -59.37109375 56.6953125 C-59.37496094 55.70660156 -59.37882812 54.71789062 -59.3828125 53.69921875 C-59.38152344 52.75949219 -59.38023438 51.81976563 -59.37890625 50.8515625 C-59.37777832 49.98337891 -59.37665039 49.11519531 -59.37548828 48.22070312 C-59.24609375 46.1953125 -59.24609375 46.1953125 -58.24609375 45.1953125 C-56.68660833 45.03845001 -55.12066707 44.94454611 -53.5546875 44.87890625 C-52.61044922 44.83701172 -51.66621094 44.79511719 -50.69335938 44.75195312 C-49.70013672 44.71263672 -48.70691406 44.67332031 -47.68359375 44.6328125 C-46.68650391 44.58962891 -45.68941406 44.54644531 -44.66210938 44.50195312 C-42.19025225 44.39550952 -39.71829065 44.29349322 -37.24609375 44.1953125 C-37.148125 43.16792969 -37.05015625 42.14054687 -36.94921875 41.08203125 C-35.50588064 27.16737613 -32.97352412 17.0022373 -22.24609375 7.1953125 C-15.48878049 1.88421389 -8.62163835 -0.07400548 0 0 Z " fill="#98ABFE" transform="translate(1416.24609375,118.8046875)"/>
<path d="M0 0 C1.12341797 -0.01224609 2.24683594 -0.02449219 3.40429688 -0.03710938 C5.01208008 -0.04000977 5.01208008 -0.04000977 6.65234375 -0.04296875 C8.13528931 -0.04913208 8.13528931 -0.04913208 9.64819336 -0.05541992 C12.0625 0.1875 12.0625 0.1875 14.0625 2.1875 C14.30751495 4.61926397 14.43574921 6.94614884 14.4765625 9.3828125 C14.49592865 10.09025604 14.5152948 10.79769958 14.5352478 11.52658081 C14.59507652 13.78843085 14.64144101 16.0503317 14.6875 18.3125 C14.72567686 19.8450744 14.76472842 21.37762728 14.8046875 22.91015625 C14.90078039 26.66909624 14.98479849 30.42813668 15.0625 34.1875 C16.05693115 34.21255615 17.0513623 34.2376123 18.07592773 34.26342773 C21.75298747 34.35734882 25.4298515 34.45760619 29.10668945 34.55981445 C30.700393 34.60322146 32.2941448 34.64489219 33.88793945 34.68481445 C36.17413908 34.74237807 38.46009449 34.80611149 40.74609375 34.87109375 C41.46276718 34.88780624 42.17944061 34.90451874 42.91783142 34.92173767 C47.94862829 35.07362829 47.94862829 35.07362829 49.0625 36.1875 C49.14950342 37.82222882 49.16951063 39.46064055 49.16015625 41.09765625 C49.15765869 41.988479 49.15516113 42.87930176 49.15258789 43.79711914 C49.14348389 44.93656982 49.13437988 46.07602051 49.125 47.25 C49.104375 50.859375 49.08375 54.46875 49.0625 58.1875 C37.8425 58.5175 26.6225 58.8475 15.0625 59.1875 C14.99346146 66.85589146 14.93377495 74.52319527 14.89770508 82.19165039 C14.88266116 84.79780745 14.86222105 87.40393937 14.83618164 90.01000977 C14.79960576 93.76585105 14.78272905 97.52135624 14.76953125 101.27734375 C14.75404739 102.43395004 14.73856354 103.59055634 14.72261047 104.7822113 C14.72129301 111.18053832 14.87022842 117.46723395 18.0625 123.1875 C22.60822396 127.15074855 27.98195575 128.24157814 33.828125 128.50390625 C34.63024414 128.54201416 35.43236328 128.58012207 36.25878906 128.61938477 C37.26651367 128.66248779 38.27423828 128.70559082 39.3125 128.75 C42.53 128.894375 45.7475 129.03875 49.0625 129.1875 C49.0625 136.4475 49.0625 143.7075 49.0625 151.1875 C44.70600334 151.2569775 40.3514857 151.31651851 35.99487305 151.35229492 C34.51791819 151.36723313 33.04100651 151.38759131 31.56420898 151.41381836 C19.48816 151.62266153 8.61478663 151.32582566 -0.9375 143.12109375 C-9.44948441 134.89173382 -12.95691354 125.05478663 -13.4675293 113.21972656 C-13.5014701 110.75604913 -13.51550412 108.29203331 -13.51171875 105.828125 C-13.5333537 103.82571197 -13.55499242 101.82329898 -13.57686329 99.82088852 C-13.60216753 97.06041401 -13.60968312 94.29999954 -13.61743164 91.53942871 C-13.63501344 86.65650964 -13.68165687 81.77377384 -13.72749329 76.89105225 C-13.75001983 74.29918416 -13.76581527 71.70724738 -13.77433777 69.11529541 C-13.78137222 67.95608582 -13.78840668 66.79687622 -13.7956543 65.60253906 C-13.79913376 64.57807678 -13.80261322 63.5536145 -13.80619812 62.49810791 C-13.67812531 60.22492444 -13.67812531 60.22492444 -14.9375 59.1875 C-16.55872423 59.04242735 -18.18569889 58.9603999 -19.8125 58.90625 C-20.79734375 58.86886719 -21.7821875 58.83148438 -22.796875 58.79296875 C-23.83328125 58.75816406 -24.8696875 58.72335938 -25.9375 58.6875 C-27.97931732 58.61893151 -30.02100185 58.54624142 -32.0625 58.46875 C-32.97257812 58.43845703 -33.88265625 58.40816406 -34.8203125 58.37695312 C-36.9375 58.1875 -36.9375 58.1875 -37.9375 57.1875 C-38.03649523 55.63794441 -38.06829524 54.08396327 -38.0703125 52.53125 C-38.07160156 51.59152344 -38.07289062 50.65179688 -38.07421875 49.68359375 C-38.07035156 48.69488281 -38.06648438 47.70617187 -38.0625 46.6875 C-38.06636719 45.69878906 -38.07023437 44.71007812 -38.07421875 43.69140625 C-38.07292969 42.75167969 -38.07164063 41.81195313 -38.0703125 40.84375 C-38.06918457 39.97556641 -38.06805664 39.10738281 -38.06689453 38.21289062 C-37.9375 36.1875 -37.9375 36.1875 -36.9375 35.1875 C-35.23186222 35.03009395 -33.52022756 34.93656608 -31.80859375 34.87109375 C-30.77412109 34.82919922 -29.73964844 34.78730469 -28.67382812 34.74414062 C-27.58521484 34.70482422 -26.49660156 34.66550781 -25.375 34.625 C-23.7362793 34.56022461 -23.7362793 34.56022461 -22.06445312 34.49414062 C-19.35560436 34.38767932 -16.64666008 34.28566484 -13.9375 34.1875 C-13.91244385 33.19306885 -13.8873877 32.1986377 -13.86157227 31.17407227 C-13.76765118 27.49701253 -13.66739381 23.8201485 -13.56518555 20.14331055 C-13.52177854 18.549607 -13.48010781 16.9558552 -13.44018555 15.36206055 C-13.38262193 13.07586092 -13.31888851 10.78990551 -13.25390625 8.50390625 C-13.23719376 7.78723282 -13.22048126 7.07055939 -13.20326233 6.33216858 C-12.93962278 -2.39988485 -7.50527337 0.00429118 0 0 Z " fill="#98ABFE" transform="translate(1487.9375,128.8125)"/>
<path d="M0 0 C1.99523891 0.55284725 3.9911021 1.10339929 5.98701477 1.65380859 C7.34552215 2.02879714 8.70366567 2.40510632 10.06144714 2.78271484 C14.59007873 4.03658363 19.13443756 5.19934499 23.69921875 6.31640625 C24.87822754 6.611521 26.05723633 6.90663574 27.27197266 7.21069336 C29.49804376 7.76585862 31.72812894 8.30524101 33.96240234 8.82641602 C40.25446232 10.42998725 43.72245098 11.76410316 47.125 17.4375 C47.125 18.4275 47.125 19.4175 47.125 20.4375 C46.42640869 20.6233667 45.72781738 20.8092334 45.00805664 21.00073242 C28.521606 25.37068586 28.521606 25.37068586 12.125 30.0625 C6.19746161 31.82774521 0.26377953 33.56619421 -5.6875 35.25 C-6.44740234 35.46930176 -7.20730469 35.68860352 -7.99023438 35.91455078 C-11.450941 36.8864038 -14.25034208 37.4375 -17.875 37.4375 C-17.875 51.9575 -17.875 66.4775 -17.875 81.4375 C-33.52820959 77.31823432 -49.14524245 73.14141024 -64.6875 68.625 C-65.3373587 68.43672638 -65.98721741 68.24845276 -66.6567688 68.05447388 C-73.78080296 65.9873726 -80.8574659 63.8424279 -87.875 61.4375 C-88.05077828 57.12552347 -88.15635237 52.81448002 -88.25 48.5 C-88.30027344 47.28763672 -88.35054687 46.07527344 -88.40234375 44.82617188 C-88.5662238 34.74754886 -85.99812729 29.97294002 -79.375 22.6875 C-64.31786838 9.13608154 -49.25062109 2.86787883 -29.75 -1.9375 C-29.07606201 -2.10548096 -28.40212402 -2.27346191 -27.70776367 -2.4465332 C-17.56683263 -4.77802785 -9.83550967 -2.7631154 0 0 Z " fill="#38B3FC" transform="translate(295.875,96.5625)"/>
<path d="M0 0 C1.1653125 -0.00128906 2.330625 -0.00257812 3.53125 -0.00390625 C4.7584375 -0.00003906 5.985625 0.00382812 7.25 0.0078125 C9.09078125 0.00201172 9.09078125 0.00201172 10.96875 -0.00390625 C12.71671875 -0.00197266 12.71671875 -0.00197266 14.5 0 C15.57765625 0.00112793 16.6553125 0.00225586 17.765625 0.00341797 C20.25 0.1328125 20.25 0.1328125 21.25 1.1328125 C21.34887812 3.10478788 21.37632256 5.0803569 21.37698364 7.05480957 C21.37980347 8.34210464 21.38262329 9.62939972 21.38552856 10.95570374 C21.38358396 12.3955995 21.38153578 13.83549514 21.37939453 15.27539062 C21.38074851 16.78128604 21.38252843 18.28718111 21.38470459 19.79307556 C21.38927928 23.89420057 21.38748922 27.99530054 21.3843255 32.09642601 C21.38180209 36.37877853 21.38413939 40.66112884 21.38571167 44.94348145 C21.38753342 52.13631578 21.38512692 59.32913987 21.38037109 66.52197266 C21.37492846 74.84997584 21.37669112 83.17795454 21.3821975 91.50595713 C21.38672848 98.64309096 21.38737925 105.7802174 21.38475883 112.9173522 C21.38319597 117.18579605 21.38300253 121.45422838 21.38629532 125.72267151 C21.38917381 129.73465184 21.38719875 133.74660046 21.38140106 137.75857735 C21.38007334 139.23526011 21.38046778 140.71194552 21.38266373 142.18862724 C21.38537474 144.19602237 21.38138084 146.20342329 21.37698364 148.21081543 C21.37660662 149.33686943 21.37622959 150.46292343 21.37584114 151.62310028 C21.25 154.1328125 21.25 154.1328125 20.25 155.1328125 C18.33541718 155.23253036 16.41717683 155.26361839 14.5 155.265625 C13.3346875 155.26691406 12.169375 155.26820313 10.96875 155.26953125 C9.7415625 155.26566406 8.514375 155.26179687 7.25 155.2578125 C6.0228125 155.26167969 4.795625 155.26554688 3.53125 155.26953125 C2.3659375 155.26824219 1.200625 155.26695312 0 155.265625 C-1.07765625 155.26449707 -2.1553125 155.26336914 -3.265625 155.26220703 C-5.75 155.1328125 -5.75 155.1328125 -6.75 154.1328125 C-6.84887812 152.16083712 -6.87632256 150.1852681 -6.87698364 148.21081543 C-6.87980347 146.92352036 -6.88262329 145.63622528 -6.88552856 144.30992126 C-6.88358396 142.8700255 -6.88153578 141.43012986 -6.87939453 139.99023438 C-6.88074851 138.48433896 -6.88252843 136.97844389 -6.88470459 135.47254944 C-6.88927928 131.37142443 -6.88748922 127.27032446 -6.8843255 123.16919899 C-6.88180209 118.88684647 -6.88413939 114.60449616 -6.88571167 110.32214355 C-6.88753342 103.12930922 -6.88512692 95.93648513 -6.88037109 88.74365234 C-6.87492846 80.41564916 -6.87669112 72.08767046 -6.8821975 63.75966787 C-6.88672848 56.62253404 -6.88737925 49.4854076 -6.88475883 42.3482728 C-6.88319597 38.07982895 -6.88300253 33.81139662 -6.88629532 29.54295349 C-6.88917381 25.53097316 -6.88719875 21.51902454 -6.88140106 17.50704765 C-6.88007334 16.03036489 -6.88046778 14.55367948 -6.88266373 13.07699776 C-6.88537474 11.06960263 -6.88138084 9.06220171 -6.87698364 7.05480957 C-6.87660662 5.92875557 -6.87622959 4.80270157 -6.87584114 3.64252472 C-6.64056812 -1.0496418 -4.11965517 0.00431184 0 0 Z " fill="#FEFEFE" transform="translate(1053.75,124.8671875)"/>
<path d="M0 0 C1.1653125 -0.00128906 2.330625 -0.00257813 3.53125 -0.00390625 C4.7584375 -0.00003906 5.985625 0.00382813 7.25 0.0078125 C9.09078125 0.00201172 9.09078125 0.00201172 10.96875 -0.00390625 C12.71671875 -0.00197266 12.71671875 -0.00197266 14.5 0 C15.57765625 0.00112793 16.6553125 0.00225586 17.765625 0.00341797 C20.25 0.1328125 20.25 0.1328125 21.25 1.1328125 C21.34997278 2.595649 21.38075151 4.06328007 21.38371277 5.52952576 C21.38797775 6.47880951 21.39224274 7.42809326 21.39663696 8.40614319 C21.39618378 9.45603928 21.39573059 10.50593536 21.39526367 11.58764648 C21.39862228 12.6867334 21.4019809 13.78582031 21.40544128 14.91821289 C21.41498401 18.57178866 21.41689604 22.22531877 21.41796875 25.87890625 C21.42117895 28.4061739 21.42454283 30.93344137 21.42805481 33.46070862 C21.43405435 38.76620998 21.43593652 44.07169417 21.43530273 49.37719727 C21.43470179 55.51599339 21.4452552 61.65470168 21.4610464 67.79347557 C21.47567799 73.69079617 21.47929135 79.58808982 21.47869301 85.48542976 C21.47987721 87.99854961 21.48432343 90.51167004 21.49202538 93.02477837 C21.5017696 96.53278873 21.49896933 100.04057032 21.49291992 103.54858398 C21.49853943 104.59645584 21.50415894 105.6443277 21.50994873 106.72395325 C21.50575424 107.67605682 21.50155975 108.6281604 21.49723816 109.6091156 C21.49778293 110.43927405 21.49832769 111.26943251 21.49888897 112.12474728 C21.25 114.1328125 21.25 114.1328125 19.25 116.1328125 C16.74389648 116.37573242 16.74389648 116.37573242 13.62109375 116.36328125 C12.50412109 116.36134766 11.38714844 116.35941406 10.23632812 116.35742188 C9.06521484 116.34517578 7.89410156 116.33292969 6.6875 116.3203125 C5.51251953 116.31966797 4.33753906 116.31902344 3.12695312 116.31835938 C-5.60987859 116.27293391 -5.60987859 116.27293391 -6.75 115.1328125 C-6.84784774 113.65497449 -6.87631765 112.17247982 -6.87698364 110.69140625 C-6.87980347 109.73226318 -6.88262329 108.77312012 -6.88552856 107.78491211 C-6.88350433 106.72409424 -6.8814801 105.66327637 -6.87939453 104.5703125 C-6.88114685 103.45986572 -6.88289917 102.34941895 -6.88470459 101.20532227 C-6.88912572 97.51447004 -6.88618419 93.82366526 -6.8828125 90.1328125 C-6.88348546 87.58072907 -6.88445542 85.02864571 -6.88571167 82.4765625 C-6.887189 77.11978488 -6.88512756 71.76302445 -6.88037109 66.40625 C-6.87492851 60.20497535 -6.87669118 54.00373357 -6.8821975 47.80245972 C-6.88727437 41.84747035 -6.88674707 35.89249123 -6.88381577 29.9375 C-6.88314624 27.39843745 -6.88397582 24.85937408 -6.88629532 22.3203125 C-6.8888203 18.77862286 -6.88498342 15.23699733 -6.87939453 11.6953125 C-6.88141876 10.63449463 -6.88344299 9.57367676 -6.88552856 8.48071289 C-6.88270874 7.52156982 -6.87988892 6.56242676 -6.87698364 5.57421875 C-6.87660662 4.73576416 -6.87622959 3.89730957 -6.87584114 3.03344727 C-6.60290699 -1.08879874 -3.43121227 0.00359128 0 0 Z " fill="#97ABFE" transform="translate(1309.75,163.8671875)"/>
<path d="M0 0 C9.14034762 2.23980208 18.230655 4.55653851 27.25 7.25 C29.29271528 7.85372287 31.33569641 8.45654677 33.37890625 9.05859375 C34.44125488 9.3716748 35.50360352 9.68475586 36.59814453 10.00732422 C40.25733695 11.07509201 43.92237061 12.1212925 47.58984375 13.16015625 C48.85473633 13.51883789 50.11962891 13.87751953 51.42285156 14.24707031 C53.88908266 14.9450361 56.35586092 15.64107209 58.82324219 16.33496094 C59.94762695 16.65368164 61.07201172 16.97240234 62.23046875 17.30078125 C63.72163208 17.72097534 63.72163208 17.72097534 65.24291992 18.1496582 C67.87529131 18.9615372 70.44229922 19.97691969 73 21 C73 35.52 73 50.04 73 65 C51.2812328 59.28453495 51.2812328 59.28453495 42.125 56.5625 C40.09653565 55.96422807 38.06788575 55.36658495 36.0390625 54.76953125 C35.03907227 54.4751416 34.03908203 54.18075195 33.00878906 53.87744141 C30.03858428 53.01125218 27.06377757 52.16375319 24.0859375 51.32421875 C23.14476074 51.05859131 22.20358398 50.79296387 21.23388672 50.51928711 C19.47326363 50.0238662 17.71192183 49.53098881 15.94970703 49.04125977 C10.85229191 47.60404187 5.93508578 45.92423069 1 44 C-0.32456929 34.99918661 -0.11081876 26.01139818 -0.0625 16.9375 C-0.0574758 15.29231907 -0.05291452 13.64713665 -0.04882812 12.00195312 C-0.03789342 8.00126502 -0.0206793 4.00064912 0 0 Z " fill="#37B6FE" transform="translate(101,84)"/>
<path d="M0 0 C0.02496844 4.51659796 0.04298537 9.03315791 0.05493164 13.54980469 C0.05991896 15.08203838 0.06671122 16.61426742 0.07543945 18.14648438 C0.12174177 26.49179593 0.04734171 34.70373415 -1 43 C-6.57069046 45.58449721 -12.11275316 47.20357538 -18.0625 48.6875 C-20.09923448 49.2059476 -22.13567762 49.72554069 -24.171875 50.24609375 C-25.26306641 50.52437012 -26.35425781 50.80264648 -27.47851562 51.08935547 C-31.26797858 52.0692984 -35.04907199 53.07850463 -38.828125 54.09765625 C-39.82246803 54.36536079 -39.82246803 54.36536079 -40.8368988 54.63847351 C-44.09863022 55.51702405 -47.35949512 56.39856181 -50.61938477 57.28393555 C-52.42620728 57.76987183 -52.42620728 57.76987183 -54.26953125 58.265625 C-55.32760986 58.55211914 -56.38568848 58.83861328 -57.47583008 59.13378906 C-61.95082256 60.23370408 -66.48130265 61.09626053 -71 62 C-71 47.48 -71 32.96 -71 18 C-65.5859375 16.5459375 -65.5859375 16.5459375 -60.0625 15.0625 C-49.14026943 12.12453117 -38.22473826 9.16234722 -27.3125 6.1875 C-26.59917511 5.9931839 -25.88585022 5.7988678 -25.15090942 5.59866333 C-23.09656491 5.03892588 -21.04239335 4.47855843 -18.98828125 3.91796875 C-17.80790283 3.59594482 -16.62752441 3.2739209 -15.41137695 2.94213867 C-13.05570067 2.29155864 -10.71066989 1.60160611 -8.37573242 0.88012695 C-5.38400117 0.10011747 -3.06203022 -0.18557759 0 0 Z " fill="#004AAD" transform="translate(454,87)"/>
<path d="M0 0 C2.10304477 -0.1080023 4.20766909 -0.18558987 6.3125 -0.25 C8.07013672 -0.31960937 8.07013672 -0.31960937 9.86328125 -0.390625 C13 0 13 0 14.875 1.64453125 C16.23546201 4.49299859 16.45034036 6.79221886 16.6875 9.9375 C17.5863964 16.79062471 20.26162855 21.24548223 24.02734375 26.9453125 C30.64083047 37.18639491 32.06256776 48.08294182 30 60 C29.01 60 28.02 60 27 60 C26.34 59.34 25.68 58.68 25 58 C18.1837124 56.96613627 12.45513599 58.23581427 6.16796875 60.78515625 C1.53256332 62.56272849 -3.2177275 63.88059805 -7.98681641 65.2487793 C-8.6782373 65.44769775 -9.3696582 65.64661621 -10.08203125 65.8515625 C-11.08435791 66.13858032 -11.08435791 66.13858032 -12.10693359 66.43139648 C-13.82607995 66.94776118 -15.52249921 67.53833204 -17.21484375 68.13671875 C-19.90045407 68.96914495 -21.95633752 69.24048325 -24.75 69.1875 C-25.88695312 69.17783203 -25.88695312 69.17783203 -27.046875 69.16796875 C-29 69 -29 69 -31 68 C-31.0093457 67.39639648 -31.01869141 66.79279297 -31.02832031 66.17089844 C-31.25074455 54.73131448 -31.54701571 44.65005409 -36 34 C-36.35971756 32.6735415 -36.7031673 31.34193116 -37 30 C-35.71416016 29.41798828 -35.71416016 29.41798828 -34.40234375 28.82421875 C-30.73893378 26.86002535 -27.69088848 24.51289594 -24.5625 21.8125 C-23.99047852 21.32563721 -23.41845703 20.83877441 -22.82910156 20.3371582 C-19.07128112 17.083553 -15.85026402 13.63268308 -12.69140625 9.79296875 C-9.63485522 6.55288348 -5.91308518 4.10398062 -2 2 C-1.34 2 -0.68 2 0 2 C0 1.34 0 0.68 0 0 Z " fill="#37B5FE" transform="translate(322,0)"/>
<path d="M0 0 C0.61230469 0.43828125 1.22460938 0.8765625 1.85546875 1.328125 C6.16984321 3.62197875 10.58318332 4.59999008 15.3125 5.75 C23.96495319 7.92880572 32.56020929 10.2478524 41.125 12.75 C42.13731689 13.04358398 43.14963379 13.33716797 44.19262695 13.63964844 C48.58327156 14.92849465 52.73806428 16.29522571 57 18 C57 32.19 57 46.38 57 61 C45.73015873 58.74603175 45.73015873 58.74603175 40.1640625 57.265625 C38.94420654 56.94166748 37.72435059 56.61770996 36.4675293 56.28393555 C35.19949463 55.94273682 33.93145996 55.60153809 32.625 55.25 C31.96891754 55.07425446 31.31283508 54.89850891 30.63687134 54.71743774 C16.29807164 50.8735563 2.06619988 46.75067164 -12 42 C-12.17577828 37.68802347 -12.28135237 33.37698002 -12.375 29.0625 C-12.42527344 27.85013672 -12.47554687 26.63777344 -12.52734375 25.38867188 C-12.68086708 15.94698733 -10.58889116 10.97910299 -4.27734375 4.13085938 C-2.89305017 2.7122039 -1.45249432 1.34874473 0 0 Z " fill="#37B5FE" transform="translate(220,116)"/>
<path d="M0 0 C4.68281356 6.19339858 7.07999048 14.05413792 7.03515625 21.765625 C7.03032227 23.23515625 7.03032227 23.23515625 7.02539062 24.734375 C7.01282227 26.25804687 7.01282227 26.25804687 7 27.8125 C6.99548828 28.84375 6.99097656 29.875 6.98632812 30.9375 C6.97456088 33.47922573 6.95812011 36.02083319 6.9375 38.5625 C14.17751119 38.89673227 20.03791611 38.3740608 26.8125 35.8125 C28.36282463 35.26043477 29.91361039 34.70966287 31.46484375 34.16015625 C32.21749512 33.8883252 32.97014648 33.61649414 33.74560547 33.33642578 C37.93160338 31.85841137 42.18530918 30.61009799 46.43359375 29.32421875 C48.27653053 28.76357496 50.11002532 28.17165823 51.9375 27.5625 C55.65201586 27.16552884 59.23257071 27.04114767 62.9375 27.5625 C65.625 30.0625 65.625 30.0625 66.9375 32.5625 C62.1082506 39.48442413 55.57951036 42.86410625 47.4375 44.875 C35.54632548 46.77609687 24.74486748 46.28267138 13.4309082 42.21630859 C7.5808634 40.20404082 3.67614677 40.59874322 -2.0625 42.5625 C-7.6317377 44.16417926 -12.31160657 44.54859149 -18.125 44.25 C-25.95564861 44.10890723 -31.27982001 46.49127439 -38.24609375 49.8046875 C-47.21644187 54.0457022 -56.14299094 54.82330545 -65.9375 54.9375 C-67.27590942 54.95864868 -67.27590942 54.95864868 -68.64135742 54.98022461 C-75.96063946 54.92594663 -81.33567344 53.37303431 -87.0625 48.5625 C-86.1875 41.6875 -86.1875 41.6875 -85.0625 40.5625 C-77.83698587 39.98543314 -70.75732866 41.02985956 -63.625 42.0625 C-50.74984724 43.80090039 -37.9384456 44.66055158 -25.0625 42.5625 C-25.40023437 41.75167969 -25.73796875 40.94085938 -26.0859375 40.10546875 C-31.12982799 27.58320882 -32.38661971 16.90542794 -32.0625 3.5625 C-26.96389504 0.61111241 -22.23465888 -0.34482004 -16.5 -1.1875 C-15.66275391 -1.32542969 -14.82550781 -1.46335937 -13.96289062 -1.60546875 C-4.40903664 -3.07296493 -4.40903664 -3.07296493 0 0 Z " fill="#5071FD" transform="translate(284.0625,29.4375)"/>
<path d="M0 0 C8.19351259 2.39656301 16.44710746 4.45538712 24.75 6.4375 C25.99354248 6.73712646 27.23708496 7.03675293 28.51831055 7.34545898 C34.16276636 8.70324837 39.80969754 10.04179248 45.47265625 11.3203125 C46.38418457 11.53236328 47.29571289 11.74441406 48.23486328 11.96289062 C49.89020396 12.34795567 51.54861256 12.72018487 53.21044922 13.07617188 C58.45803828 14.31632251 61.46669764 16.20881851 65.375 19.9375 C62.73591269 21.32837532 60.20644402 22.37994997 57.33984375 23.19921875 C56.54384766 23.42754395 55.74785156 23.65586914 54.92773438 23.89111328 C54.06470703 24.1332959 53.20167969 24.37547852 52.3125 24.625 C50.9502832 25.01147705 50.9502832 25.01147705 49.56054688 25.40576172 C40.76173819 27.8772874 31.9152797 30.16327489 23.05444336 32.40112305 C16.39627658 34.09637584 9.8651663 36.00281262 3.34765625 38.18115234 C0.24030528 38.97177104 -2.43246841 39.07369406 -5.625 38.9375 C-6.12 36.9575 -6.12 36.9575 -6.625 34.9375 C-7.36105469 34.75574219 -8.09710938 34.57398438 -8.85546875 34.38671875 C-9.83128906 34.13535156 -10.80710937 33.88398437 -11.8125 33.625 C-12.77542969 33.38136719 -13.73835938 33.13773438 -14.73046875 32.88671875 C-19.85575475 31.20595695 -22.95372417 28.85500493 -26.3125 24.6875 C-32.25119088 17.79637756 -39.69596412 13.24675863 -47.625 8.9375 C-45.12970558 6.44220558 -43.32471048 6.16000323 -39.91796875 5.28125 C-38.77392578 4.98089844 -37.62988281 4.68054688 -36.45117188 4.37109375 C-35.25041016 4.06300781 -34.04964844 3.75492187 -32.8125 3.4375 C-30.45109718 2.82571108 -28.090391 2.21122545 -25.73046875 1.59375 C-24.68012451 1.32369141 -23.62978027 1.05363281 -22.54760742 0.77539062 C-19.63200149 -0.0040788 -19.63200149 -0.0040788 -16.9519043 -1.15014648 C-11.21485828 -3.39957897 -5.64698041 -1.73549737 0 0 Z " fill="#38B4FD" transform="translate(387.625,66.0625)"/>
<path d="M0 0 C-5.16696192 10.73138245 -12.32674138 16.94462484 -22.33959961 23.03125 C-25.73571972 24.95092295 -25.73571972 24.95092295 -28 28 C-29.41732474 28.57346682 -30.86063181 29.08317509 -32.3125 29.5625 C-43.29540798 33.79272133 -57.5077059 44.17113554 -63.21875 54.72070312 C-64.99383105 59.89950209 -64.68749229 65.51921771 -64.75 70.9375 C-64.79447266 72.82178711 -64.79447266 72.82178711 -64.83984375 74.74414062 C-64.91023196 77.82949054 -64.96308502 80.91409823 -65 84 C-65.33 84 -65.66 84 -66 84 C-66.33 77.4 -66.66 70.8 -67 64 C-67.99 68.29 -68.98 72.58 -70 77 C-72.53109726 74.46890274 -73.05140044 72.30000436 -74.1640625 68.8984375 C-74.56367188 67.68671875 -74.96328125 66.475 -75.375 65.2265625 C-75.79179655 63.94275049 -76.20846153 62.65889576 -76.625 61.375 C-77.04892797 60.08315232 -77.47340066 58.79148327 -77.8984375 57.5 C-78.93767384 54.33505298 -79.97127375 51.16837569 -81 48 C-84.4777477 49.12988369 -87.6361941 50.1967257 -90.75 52.125 C-94 54 -94 54 -96 54 C-92.41474581 40.5552968 -83.84297068 31.3133041 -74 22 C-73.11570313 21.09121094 -72.23140625 20.18242188 -71.3203125 19.24609375 C-68.87480281 16.87880743 -67.1218413 16.21827953 -64 15 C-63.195625 14.154375 -62.39125 13.30875 -61.5625 12.4375 C-57.56832365 8.93240647 -52.92616365 9.49198919 -47.84765625 9.2890625 C-38.63964532 8.59729315 -30.25727824 5.68595681 -22 1.6875 C-14.33573296 -1.81140452 -8.1672883 -1.2582657 0 0 Z " fill="#044AAC" transform="translate(273,74)"/>
<path d="M0 0 C2.9885917 -0.36702003 5.09050194 -0.57670408 8 0 C9.5625 1.27734375 9.5625 1.27734375 11.0625 3 C18.19545485 10.98441118 29.60890564 14.88496205 39.25 19.0625 C48.41963064 23.03833393 57.30131159 27.37735457 64 35 C56.721119 33.79274227 49.67277849 32.21020289 42.58203125 30.1796875 C40.64917198 29.63902453 38.71622671 29.09866895 36.78320312 28.55859375 C33.78699536 27.71547196 30.79178723 26.86910507 27.7980957 26.01708984 C24.8743782 25.18719598 21.9472919 24.37018413 19.01953125 23.5546875 C17.68955864 23.17037064 17.68955864 23.17037064 16.3327179 22.77828979 C9.7732489 20.9630028 3.65460684 20.08634829 -3.078125 21.76953125 C-3.75883057 21.93485352 -4.43953613 22.10017578 -5.14086914 22.27050781 C-5.83688232 22.44936523 -6.53289551 22.62822266 -7.25 22.8125 C-7.9814624 22.99264648 -8.7129248 23.17279297 -9.46655273 23.35839844 C-11.64658331 23.89714848 -13.82332112 24.44788896 -16 25 C-17.86591797 25.46212891 -17.86591797 25.46212891 -19.76953125 25.93359375 C-22.51516103 26.61430149 -25.25853447 27.30274865 -28 28 C-25.32598047 25.01635716 -22.15134369 23.05914394 -18.8125 20.875 C-10.59673264 15.32927134 -4.52981566 8.870889 0 0 Z " fill="#F7171A" transform="translate(273,73)"/>
<path d="M0 0 C4.37463749 2.2474621 6.89804948 5.32503521 9.5625 9.375 C10.37383426 14.24300557 10.39568288 18.78947233 7.6953125 23.06640625 C4.57300601 26.78676647 1.9047755 29.79650846 -3.14453125 30.3359375 C-15.41269254 30.46658884 -15.41269254 30.46658884 -20 26 C-20.78375 25.34 -21.5675 24.68 -22.375 24 C-25.01349141 19.12893894 -25.06557023 14.39053177 -24 9 C-18.22715105 -0.68639071 -10.51647055 -1.33215847 0 0 Z " fill="#98ABFE" transform="translate(1324,114)"/>
<path d="M0 0 C6.72443461 0.42694823 12.61703824 1.92438527 19 4 C29.10403981 7.18507971 39.27440781 10.05007738 49.5 12.8125 C50.57918701 13.10411011 50.57918701 13.10411011 51.68017578 13.40161133 C54.96656707 14.28912477 58.25331402 15.17520796 61.54101562 16.05786133 C65.03636143 17.00990392 68.51881949 17.99763133 72 19 C71.34 20.98 70.68 22.96 70 25 C60.59585371 22.44669975 51.20268697 19.85408177 41.8125 17.25 C41.02629272 17.03200745 40.24008545 16.81401489 39.43005371 16.5894165 C25.91945638 12.84005593 12.44288895 8.98620675 -1 5 C-1 1 -1 1 0 0 Z " fill="#58DDE6" transform="translate(104,80)"/>
<path d="M0 0 C0.495 1.98 0.495 1.98 1 4 C0.30140869 4.1858667 -0.39718262 4.3717334 -1.11694336 4.56323242 C-17.603394 8.93318586 -17.603394 8.93318586 -34 13.625 C-39.92753839 15.39024521 -45.86122047 17.12869421 -51.8125 18.8125 C-52.57240234 19.03180176 -53.33230469 19.25110352 -54.11523438 19.47705078 C-57.575941 20.4489038 -60.37534208 21 -64 21 C-64 18.69 -64 16.38 -64 14 C-63.43192627 13.86948242 -62.86385254 13.73896484 -62.27856445 13.60449219 C-52.48048507 11.34240654 -42.7634121 9.04965902 -33.18359375 5.97265625 C-26.8613583 4.04107757 -20.42501184 2.54663594 -14 1 C-13.06285156 0.75894531 -12.12570312 0.51789063 -11.16015625 0.26953125 C-7.13216081 -0.72908992 -4.0084636 -1.29305277 0 0 Z " fill="#4E70FC" transform="translate(342,113)"/>
<path d="M0 0 C-0.556875 0.4125 -1.11375 0.825 -1.6875 1.25 C-12.72686599 9.60411481 -22.51170603 19.53511808 -27 33 C-27.66 33 -28.32 33 -29 33 C-29.33 40.59 -29.66 48.18 -30 56 C-30.33 56 -30.66 56 -31 56 C-31.05070326 49.52216941 -31.08573492 43.04438999 -31.10986328 36.56640625 C-31.11992183 34.36261075 -31.13357026 32.1588286 -31.15087891 29.95507812 C-31.1751334 26.78772691 -31.1864846 23.62055213 -31.1953125 20.453125 C-31.20563507 19.46757629 -31.21595764 18.48202759 -31.22659302 17.46661377 C-31.22674408 16.5459613 -31.22689514 15.62530884 -31.22705078 14.67675781 C-31.231492 13.8684552 -31.23593323 13.06015259 -31.24050903 12.22735596 C-30.9686985 9.7101166 -30.36368178 8.12694986 -29 6 C-26.54150391 4.88745117 -26.54150391 4.88745117 -23.4765625 4.04296875 C-21.82140625 3.58180664 -21.82140625 3.58180664 -20.1328125 3.11132812 C-18.97523438 2.80646484 -17.81765625 2.50160156 -16.625 2.1875 C-14.90023437 1.70120117 -14.90023437 1.70120117 -13.140625 1.20507812 C-3.78348318 -1.34141676 -3.78348318 -1.34141676 0 0 Z " fill="#EE1D22" transform="translate(205,93)"/>
<path d="M0 0 C0.99 1.485 0.99 1.485 2 3 C-12.12837249 7.02321346 -26.27908208 10.91714885 -40.52270508 14.51391602 C-47.10998616 16.19221385 -53.56981982 18.08730106 -60.01855469 20.24145508 C-63.12972075 21.0330038 -65.80361319 21.13670719 -69 21 C-69.12375 20.360625 -69.2475 19.72125 -69.375 19.0625 C-69.58125 18.381875 -69.7875 17.70125 -70 17 C-70.66 16.67 -71.32 16.34 -72 16 C-71.36835938 15.84966309 -70.73671875 15.69932617 -70.0859375 15.54443359 C-58.25340023 12.72482862 -46.42709416 9.88224764 -34.625 6.9375 C-33.64241211 6.69298096 -32.65982422 6.44846191 -31.64746094 6.1965332 C-26.88892007 5.00452425 -22.14405609 3.77752003 -17.4140625 2.4765625 C-16.54056152 2.2381665 -15.66706055 1.99977051 -14.76708984 1.75415039 C-13.13738707 1.30633778 -11.5099091 0.85031412 -9.88525391 0.38452148 C-3.51183406 -1.36606542 -3.51183406 -1.36606542 0 0 Z " fill="#4E70FB" transform="translate(451,84)"/>
<path d="M0 0 C7.10791397 0.44772208 14.25009444 3.18204482 21 5.3125 C29.16184474 7.84784482 37.33974638 10.26473641 45.59179688 12.48950195 C50.80869376 13.90434688 50.80869376 13.90434688 53 15 C53 16.98 53 18.96 53 21 C39.46385937 17.5482617 25.94328477 14.09681587 12.56640625 10.06640625 C7.7346019 8.62162795 2.87384709 7.29478011 -2 6 C-2 2 -2 2 0 0 Z " fill="#58DCE6" transform="translate(224,113)"/>
<path d="M0 0 C4.12776709 0.94667021 8.25164909 1.90929145 12.375 2.875 C13.550625 3.14441406 14.72625 3.41382813 15.9375 3.69140625 C17.05898438 3.95566406 18.18046875 4.21992187 19.3359375 4.4921875 C20.37282715 4.73308105 21.4097168 4.97397461 22.47802734 5.22216797 C25 6 25 6 27 8 C25.80375 8.2475 24.6075 8.495 23.375 8.75 C15.53639602 10.49191199 7.83181918 12.80912559 0.1640625 15.18359375 C-1.06570313 15.55613281 -2.29546875 15.92867187 -3.5625 16.3125 C-4.67753906 16.65925781 -5.79257812 17.00601563 -6.94140625 17.36328125 C-10.06546968 18.01362906 -11.96373331 17.87638983 -15 17 C-13.01617864 14.66609251 -11.3367255 13.65027344 -8.5625 12.1875 C-4.85324508 10.14074411 -3.03394781 7.75498057 -1 4 C-0.63557727 2.67482644 -0.29507852 1.34231798 0 0 Z " fill="#F6191C" transform="translate(352,56)"/>
<path d="M0 0 C0.33 3.63 0.66 7.26 1 11 C-0.464375 10.54625 -1.92875 10.0925 -3.4375 9.625 C-8.25559054 8.17476162 -13.07662222 7.03232115 -18 6 C-15.24776028 3.24776028 -12.1043889 2.79427577 -8.4375 1.875 C-7.73947266 1.69324219 -7.04144531 1.51148438 -6.32226562 1.32421875 C-1.1896734 0 -1.1896734 0 0 0 Z " fill="#E6242D" transform="translate(191,57)"/>
<path d="M0 0 C0.66 0.33 1.32 0.66 2 1 C1.2890625 2.921875 1.2890625 2.921875 0 5 C-2.1640625 5.828125 -2.1640625 5.828125 -4.625 6.25 C-5.85089844 6.47429687 -5.85089844 6.47429687 -7.1015625 6.703125 C-7.72804687 6.80109375 -8.35453125 6.8990625 -9 7 C-6.28672425 4.15635664 -3.30410823 2.12931419 0 0 Z " fill="#D6212F" transform="translate(254,94)"/>
</svg>
