<svg xmlns="http://www.w3.org/2000/svg" xmlns:xlink="http://www.w3.org/1999/xlink" width="1704" zoomAndPan="magnify" viewBox="0 0 1278 299.999988" height="400" preserveAspectRatio="xMidYMid meet" version="1.0"><defs><g/><clipPath id="37d71e8cd4"><path d="M 89.070312 69 L 339.503906 69 L 339.503906 120 L 89.070312 120 Z M 89.070312 69 " clip-rule="nonzero"/></clipPath><clipPath id="e4c7012dab"><path d="M 261 69 L 339.503906 69 L 339.503906 120 L 261 120 Z M 261 69 " clip-rule="nonzero"/></clipPath></defs><g fill="#ffffff" fill-opacity="1"><g transform="translate(416.13148, 212.403495)"><g><path d="M 67.078125 2.484375 C 60.234375 2.484375 53.726562 1.472656 47.5625 -0.546875 C 41.40625 -2.578125 35.773438 -5.445312 30.671875 -9.15625 C 25.566406 -12.863281 21.144531 -17.253906 17.40625 -22.328125 C 13.675781 -27.410156 10.78125 -33.003906 8.71875 -39.109375 C 6.664062 -45.210938 5.640625 -51.628906 5.640625 -58.359375 C 5.640625 -65.140625 6.664062 -71.566406 8.71875 -77.640625 C 10.78125 -83.722656 13.675781 -89.285156 17.40625 -94.328125 C 21.144531 -99.378906 25.566406 -103.757812 30.671875 -107.46875 C 35.773438 -111.175781 41.40625 -114.039062 47.5625 -116.0625 C 53.726562 -118.09375 60.234375 -119.109375 67.078125 -119.109375 C 73.242188 -119.109375 79.347656 -118.191406 85.390625 -116.359375 C 91.441406 -114.535156 97.085938 -111.753906 102.328125 -108.015625 C 107.578125 -104.285156 112.023438 -99.566406 115.671875 -93.859375 C 119.328125 -88.160156 121.84375 -81.429688 123.21875 -73.671875 L 101.484375 -73.671875 C 99.941406 -79.660156 97.472656 -84.566406 94.078125 -88.390625 C 90.679688 -92.210938 86.613281 -95.035156 81.875 -96.859375 C 77.144531 -98.679688 72.015625 -99.59375 66.484375 -99.59375 C 61.003906 -99.59375 55.867188 -98.609375 51.078125 -96.640625 C 46.285156 -94.671875 42.078125 -91.859375 38.453125 -88.203125 C 34.835938 -84.554688 32.015625 -80.207031 29.984375 -75.15625 C 27.960938 -70.113281 26.953125 -64.484375 26.953125 -58.265625 C 26.953125 -51.929688 27.960938 -46.238281 29.984375 -41.1875 C 32.015625 -36.144531 34.835938 -31.828125 38.453125 -28.234375 C 42.078125 -24.640625 46.285156 -21.882812 51.078125 -19.96875 C 55.867188 -18.0625 61.003906 -17.109375 66.484375 -17.109375 C 72.015625 -17.109375 77.132812 -18.019531 81.84375 -19.84375 C 86.550781 -21.675781 90.613281 -24.5 94.03125 -28.3125 C 97.457031 -32.132812 99.910156 -37.015625 101.390625 -42.953125 L 123.21875 -42.953125 C 121.84375 -35.191406 119.328125 -28.445312 115.671875 -22.71875 C 112.023438 -16.988281 107.609375 -12.269531 102.421875 -8.5625 C 97.234375 -4.851562 91.597656 -2.082031 85.515625 -0.25 C 79.441406 1.570312 73.296875 2.484375 67.078125 2.484375 Z M 67.078125 2.484375 "/></g></g></g><g fill="#ffffff" fill-opacity="1"><g transform="translate(551.381185, 212.403495)"><g><path d="M 61.515625 2.5625 C 54.503906 2.5625 47.988281 1.453125 41.96875 -0.765625 C 35.945312 -2.992188 30.671875 -6.175781 26.140625 -10.3125 C 21.609375 -14.445312 18.085938 -19.453125 15.578125 -25.328125 C 13.066406 -31.203125 11.8125 -37.757812 11.8125 -45 L 11.8125 -116.359375 L 33.03125 -116.359375 L 33.03125 -46.546875 C 33.03125 -41.066406 34.125 -36.085938 36.3125 -31.609375 C 38.507812 -27.140625 41.734375 -23.578125 45.984375 -20.921875 C 50.234375 -18.265625 55.410156 -16.9375 61.515625 -16.9375 C 67.503906 -16.9375 72.609375 -18.25 76.828125 -20.875 C 81.054688 -23.5 84.296875 -27.050781 86.546875 -31.53125 C 88.796875 -36.007812 89.921875 -40.988281 89.921875 -46.46875 L 89.921875 -116.359375 L 111.234375 -116.359375 L 111.234375 -45 C 111.234375 -38.039062 110.035156 -31.664062 107.640625 -25.875 C 105.242188 -20.09375 101.847656 -15.078125 97.453125 -10.828125 C 93.066406 -6.578125 87.820312 -3.28125 81.71875 -0.9375 C 75.613281 1.394531 68.878906 2.5625 61.515625 2.5625 Z M 61.515625 2.5625 "/></g></g></g><g fill="#ffffff" fill-opacity="1"><g transform="translate(680.641578, 212.403495)"><g><path d="M 69.484375 0 L 13.859375 0 L 13.859375 -116.359375 L 64.59375 -116.359375 C 71.664062 -116.359375 77.851562 -115.085938 83.15625 -112.546875 C 88.46875 -110.015625 92.609375 -106.394531 95.578125 -101.6875 C 98.546875 -96.988281 100.03125 -91.382812 100.03125 -84.875 C 100.03125 -81.457031 99.359375 -78.191406 98.015625 -75.078125 C 96.671875 -71.972656 94.882812 -69.234375 92.65625 -66.859375 C 90.4375 -64.492188 87.988281 -62.742188 85.3125 -61.609375 C 89.238281 -60.347656 92.8125 -58.363281 96.03125 -55.65625 C 99.257812 -52.945312 101.84375 -49.722656 103.78125 -45.984375 C 105.726562 -42.253906 106.703125 -38.191406 106.703125 -33.796875 C 106.703125 -28.035156 105.660156 -23.03125 103.578125 -18.78125 C 101.492188 -14.53125 98.664062 -11.019531 95.09375 -8.25 C 91.53125 -5.488281 87.539062 -3.421875 83.125 -2.046875 C 78.707031 -0.679688 74.160156 0 69.484375 0 Z M 35.34375 -98.0625 L 35.34375 -67.765625 L 63.578125 -67.765625 C 66.429688 -67.765625 68.984375 -68.429688 71.234375 -69.765625 C 73.484375 -71.109375 75.265625 -72.9375 76.578125 -75.25 C 77.890625 -77.5625 78.546875 -80.144531 78.546875 -83 C 78.546875 -85.851562 77.890625 -88.421875 76.578125 -90.703125 C 75.265625 -92.984375 73.492188 -94.78125 71.265625 -96.09375 C 69.046875 -97.40625 66.507812 -98.0625 63.65625 -98.0625 Z M 35.34375 -51.765625 L 35.34375 -18.390625 L 67.59375 -18.390625 C 70.90625 -18.390625 73.859375 -19.117188 76.453125 -20.578125 C 79.046875 -22.035156 81.097656 -24.046875 82.609375 -26.609375 C 84.117188 -29.171875 84.875 -32.109375 84.875 -35.421875 C 84.875 -38.441406 84.132812 -41.175781 82.65625 -43.625 C 81.175781 -46.082031 79.132812 -48.050781 76.53125 -49.53125 C 73.9375 -51.019531 71.015625 -51.765625 67.765625 -51.765625 Z M 35.34375 -51.765625 "/></g></g></g><g fill="#ffffff" fill-opacity="1"><g transform="translate(799.121189, 212.403495)"><g><path d="M 35.171875 0 L 13.859375 0 L 13.859375 -116.359375 L 35.171875 -116.359375 Z M 35.171875 0 "/></g></g></g><g fill="#5271ff" fill-opacity="1"><g transform="translate(854.378291, 212.403495)"><g><path d="M 67.078125 2.484375 C 60.296875 2.484375 53.835938 1.457031 47.703125 -0.59375 C 41.566406 -2.644531 35.945312 -5.523438 30.84375 -9.234375 C 25.738281 -12.941406 21.300781 -17.320312 17.53125 -22.375 C 13.769531 -27.425781 10.863281 -32.988281 8.8125 -39.0625 C 6.757812 -45.132812 5.734375 -51.535156 5.734375 -58.265625 C 5.734375 -65.054688 6.757812 -71.503906 8.8125 -77.609375 C 10.863281 -83.710938 13.785156 -89.285156 17.578125 -94.328125 C 21.367188 -99.378906 25.832031 -103.757812 30.96875 -107.46875 C 36.101562 -111.175781 41.75 -114.039062 47.90625 -116.0625 C 54.070312 -118.09375 60.578125 -119.109375 67.421875 -119.109375 C 72.328125 -119.109375 77.257812 -118.519531 82.21875 -117.34375 C 87.1875 -116.175781 91.9375 -114.453125 96.46875 -112.171875 C 101.007812 -109.890625 105.160156 -107.078125 108.921875 -103.734375 C 112.679688 -100.398438 115.890625 -96.582031 118.546875 -92.28125 C 121.203125 -87.976562 123.070312 -83.203125 124.15625 -77.953125 L 102.5 -77.953125 C 99.476562 -84.734375 94.859375 -90.035156 88.640625 -93.859375 C 82.421875 -97.679688 75.175781 -99.59375 66.90625 -99.59375 C 61.4375 -99.59375 56.273438 -98.609375 51.421875 -96.640625 C 46.578125 -94.671875 42.328125 -91.859375 38.671875 -88.203125 C 35.023438 -84.554688 32.160156 -80.207031 30.078125 -75.15625 C 27.992188 -70.113281 26.953125 -64.484375 26.953125 -58.265625 C 26.953125 -51.929688 27.992188 -46.238281 30.078125 -41.1875 C 32.160156 -36.144531 35.023438 -31.828125 38.671875 -28.234375 C 42.328125 -24.640625 46.578125 -21.882812 51.421875 -19.96875 C 56.273438 -18.0625 61.4375 -17.109375 66.90625 -17.109375 C 73.863281 -17.109375 79.878906 -18.289062 84.953125 -20.65625 C 90.035156 -23.03125 94.160156 -26.296875 97.328125 -30.453125 C 100.492188 -34.617188 102.617188 -39.410156 103.703125 -44.828125 L 66.0625 -44.828125 L 66.0625 -62.625 L 126.8125 -62.625 C 126.863281 -53.101562 125.578125 -44.363281 122.953125 -36.40625 C 120.328125 -28.445312 116.445312 -21.554688 111.3125 -15.734375 C 106.1875 -9.921875 99.914062 -5.429688 92.5 -2.265625 C 85.082031 0.898438 76.609375 2.484375 67.078125 2.484375 Z M 67.078125 2.484375 "/></g></g></g><g fill="#5271ff" fill-opacity="1"><g transform="translate(993.221589, 212.403495)"><g><path d="M 22.328125 -101.65625 C 18.335938 -101.65625 15.210938 -102.804688 12.953125 -105.109375 C 10.703125 -107.421875 9.578125 -110.234375 9.578125 -113.546875 C 9.578125 -116.734375 10.703125 -119.492188 12.953125 -121.828125 C 15.210938 -124.171875 18.367188 -125.34375 22.421875 -125.34375 C 26.578125 -125.34375 29.78125 -124.171875 32.03125 -121.828125 C 34.289062 -119.492188 35.421875 -116.734375 35.421875 -113.546875 C 35.421875 -110.234375 34.289062 -107.421875 32.03125 -105.109375 C 29.78125 -102.804688 26.546875 -101.65625 22.328125 -101.65625 Z M 32.859375 0 L 12.15625 0 L 12.15625 -87.953125 L 32.859375 -87.953125 Z M 32.859375 0 "/></g></g></g><g fill="#5271ff" fill-opacity="1"><g transform="translate(1044.449749, 212.403495)"><g><path d="M 39.78125 0 L 19.078125 0 L 19.078125 -70.25 L 1.546875 -70.25 L 1.546875 -87.953125 L 19.078125 -87.953125 L 19.078125 -93 C 19.078125 -96.375 19.578125 -99.742188 20.578125 -103.109375 C 21.578125 -106.472656 23.144531 -109.550781 25.28125 -112.34375 C 27.425781 -115.132812 30.238281 -117.375 33.71875 -119.0625 C 37.195312 -120.75 41.414062 -121.59375 46.375 -121.59375 L 63.234375 -121.59375 L 63.234375 -104.390625 L 51.59375 -104.390625 C 49.03125 -104.390625 46.878906 -103.789062 45.140625 -102.59375 C 43.398438 -101.394531 42.070312 -99.8125 41.15625 -97.84375 C 40.238281 -95.875 39.78125 -93.71875 39.78125 -91.375 L 39.78125 -87.953125 L 62.796875 -87.953125 L 62.796875 -70.25 L 39.78125 -70.25 Z M 39.78125 0 "/></g></g></g><g fill="#5271ff" fill-opacity="1"><g transform="translate(1114.92927, 212.403495)"><g><path d="M 66.21875 0 L 48.34375 0 C 45.71875 0 43.019531 -0.238281 40.25 -0.71875 C 37.488281 -1.207031 34.851562 -2.109375 32.34375 -3.421875 C 29.832031 -4.734375 27.59375 -6.628906 25.625 -9.109375 C 23.65625 -11.585938 22.085938 -14.8125 20.921875 -18.78125 C 19.753906 -22.75 19.171875 -27.640625 19.171875 -33.453125 L 19.171875 -70.15625 L 0.9375 -70.15625 L 0.9375 -87.953125 L 19.171875 -87.953125 L 19.171875 -113.71875 L 39.875 -113.890625 L 39.875 -87.953125 L 66.21875 -87.953125 L 66.21875 -70.15625 L 39.875 -70.15625 L 39.875 -32.515625 C 39.875 -28.410156 40.472656 -25.242188 41.671875 -23.015625 C 42.867188 -20.785156 44.453125 -19.257812 46.421875 -18.4375 C 48.390625 -17.613281 50.457031 -17.203125 52.625 -17.203125 L 66.21875 -17.203125 Z M 66.21875 0 "/></g></g></g><path fill="#d51515" d="M 146.773438 70.683594 C 146.773438 70.683594 148.542969 33.226562 207.363281 68.625 L 206.460938 66.816406 C 206.460938 66.816406 179.652344 29.539062 156.746094 43.332031 C 140.90625 52.867188 146.773438 70.683594 146.773438 70.683594 " fill-opacity="1" fill-rule="nonzero"/><path fill="#ff1616" d="M 146.824219 70.664062 C 143.910156 63.164062 146.0625 53.621094 151.382812 47.753906 C 152.238281 46.808594 153.171875 45.929688 154.148438 45.117188 C 154.148438 45.117188 131.886719 70.609375 206.460938 66.816406 C 206.460938 66.816406 207.363281 68.625 207.363281 68.625 C 207.597656 69.09375 197.855469 74.414062 197.246094 74.734375 C 190.167969 78.46875 182.542969 81.574219 174.59375 82.777344 C 166.261719 84.042969 157.804688 82.789062 151.304688 77.109375 C 149.238281 75.304688 147.765625 73.09375 146.824219 70.664062 " fill-opacity="1" fill-rule="nonzero"/><path fill="#d51515" d="M 167.808594 21.171875 C 167.808594 21.171875 198.953125 0.285156 205.539062 68.621094 L 206.460938 66.816406 C 206.460938 66.816406 220.4375 23.082031 195.71875 12.890625 C 178.625 5.851562 167.808594 21.171875 167.808594 21.171875 " fill-opacity="1" fill-rule="nonzero"/><path fill="#ff1616" d="M 167.851562 21.195312 C 172.140625 14.390625 181.09375 10.4375 188.972656 11.21875 C 190.242188 11.34375 191.5 11.566406 192.738281 11.867188 C 192.738281 11.867188 165.527344 5.191406 206.460938 66.816406 C 206.460938 66.816406 205.542969 68.621094 205.539062 68.621094 C 205.304688 69.082031 195.230469 64.425781 194.613281 64.128906 C 187.402344 60.664062 180.363281 56.390625 174.660156 50.71875 C 168.679688 44.78125 164.65625 37.238281 165.347656 28.632812 C 165.566406 25.902344 166.464844 23.398438 167.851562 21.195312 " fill-opacity="1" fill-rule="nonzero"/><path fill="#d51515" d="M 220.113281 8.582031 C 220.113281 8.582031 255.4375 21.164062 204.460938 67.152344 L 206.460938 66.816406 C 206.460938 66.816406 249.921875 52 243.382812 26.074219 C 238.863281 8.148438 220.113281 8.582031 220.113281 8.582031 " fill-opacity="1" fill-rule="nonzero"/><path fill="#ff1616" d="M 220.117188 8.632812 C 228.140625 8.023438 236.640625 12.863281 240.710938 19.65625 C 241.363281 20.753906 241.933594 21.894531 242.433594 23.070312 C 242.433594 23.070312 237.375 5.035156 206.460938 66.816406 C 206.460938 66.816406 204.464844 67.152344 204.460938 67.152344 C 203.949219 67.238281 201.691406 56.371094 201.566406 55.699219 C 200.050781 47.839844 199.292969 39.640625 200.449219 31.679688 C 201.664062 23.34375 205.324219 15.617188 212.648438 11.046875 C 214.976562 9.597656 217.519531 8.828125 220.117188 8.632812 " fill-opacity="1" fill-rule="nonzero"/><path fill="#d51515" d="M 261.375 43.101562 C 261.375 43.101562 272.300781 78.972656 205 65.410156 L 206.460938 66.816406 C 206.460938 66.816406 244.242188 92.90625 261.175781 72.214844 C 272.886719 57.910156 261.375 43.101562 261.375 43.101562 " fill-opacity="1" fill-rule="nonzero"/><path fill="#ff1616" d="M 261.332031 43.136719 C 266.601562 49.222656 267.78125 58.929688 264.738281 66.25 C 264.253906 67.425781 263.671875 68.5625 263.023438 69.664062 C 263.023438 69.664062 265.890625 59.867188 207.363281 68.625 L 205 65.410156 C 204.625 65.050781 212.011719 56.765625 212.476562 56.261719 C 217.886719 50.363281 224.023438 44.875 231.105469 41.0625 C 238.527344 37.074219 246.910156 35.410156 254.945312 38.578125 C 257.5 39.582031 259.628906 41.171875 261.332031 43.136719 " fill-opacity="1" fill-rule="nonzero"/><path fill="#5ce1e6" d="M 102.652344 106.035156 L 102.652344 289.324219 C 102.652344 295.074219 107.316406 299.730469 113.0625 299.730469 L 316.039062 299.730469 C 321.492188 299.730469 325.917969 295.308594 325.917969 289.851562 L 325.917969 106.035156 L 102.652344 106.035156 " fill-opacity="1" fill-rule="nonzero"/><path fill="#5271ff" d="M 247.167969 106.035156 L 247.167969 299.730469 L 316.039062 299.730469 C 321.492188 299.730469 325.917969 295.308594 325.917969 289.851562 L 325.917969 106.035156 L 247.167969 106.035156 " fill-opacity="1" fill-rule="nonzero"/><path fill="#2473de" d="M 102.652344 130.664062 L 325.917969 130.664062 L 325.917969 106.035156 L 102.652344 106.035156 L 102.652344 130.664062 " fill-opacity="1" fill-rule="nonzero"/><g clip-path="url(#37d71e8cd4)"><path fill="#5ce1e6" d="M 332.9375 69.09375 L 95.632812 69.09375 C 91.992188 69.09375 89.042969 72.042969 89.042969 75.679688 L 89.042969 112.640625 C 89.042969 116.28125 91.992188 119.230469 95.632812 119.230469 L 332.9375 119.230469 C 336.574219 119.230469 339.527344 116.28125 339.527344 112.640625 L 339.527344 75.679688 C 339.527344 72.042969 336.574219 69.09375 332.9375 69.09375 " fill-opacity="1" fill-rule="nonzero"/></g><g clip-path="url(#e4c7012dab)"><path fill="#5271ff" d="M 332.9375 69.09375 L 261.238281 69.09375 L 261.238281 119.230469 L 332.9375 119.230469 C 336.574219 119.230469 339.527344 116.28125 339.527344 112.640625 L 339.527344 75.679688 C 339.527344 72.042969 336.574219 69.09375 332.9375 69.09375 " fill-opacity="1" fill-rule="nonzero"/></g><path fill="#ff1616" d="M 146.886719 119.230469 L 186.46875 119.230469 L 186.46875 69.09375 L 146.886719 69.09375 L 146.886719 119.230469 " fill-opacity="1" fill-rule="nonzero"/><path fill="#ff1616" d="M 155.683594 299.730469 L 195.269531 299.730469 L 195.269531 137.898438 L 155.683594 137.898438 L 155.683594 299.730469 " fill-opacity="1" fill-rule="nonzero"/><path fill="#d51515" d="M 146.886719 119.230469 L 155.683594 137.898438 L 195.269531 137.898438 L 186.46875 119.230469 L 146.886719 119.230469 " fill-opacity="1" fill-rule="nonzero"/></svg>