<?xml version="1.0" encoding="UTF-8"?>
<svg version="1.1" xmlns="http://www.w3.org/2000/svg" width="1640" height="400">
<path d="M0 0 C4.91515989 5.37238406 8.35680311 11.82870829 11.95776367 18.12866211 C14.59949885 22.72900942 17.40324681 27.20441701 20.29296875 31.65234375 C24.53220396 38.18941198 28.51954682 44.85110029 32.42825317 51.58990479 C34.27786619 54.77847141 36.13791466 57.96095183 37.99609375 61.14453125 C38.53290016 62.06525421 38.53290016 62.06525421 39.08055115 63.00457764 C42.18606193 68.32851868 45.34832263 73.61499548 48.53515625 78.890625 C50.72974313 82.53498107 52.89449451 86.19686771 55.05859375 89.859375 C55.60333092 90.78083817 55.60333092 90.78083817 56.15907288 91.72091675 C57.64147912 94.22877673 59.12376694 96.73669971 60.60305786 99.24639893 C61.64033736 101.00617378 62.67939894 102.76488559 63.71875 104.5234375 C64.32654297 105.55388184 64.93433594 106.58432617 65.56054688 107.64599609 C66.79778404 109.87590785 66.79778404 109.87590785 68 111 C69.38564833 111.09616472 70.77605805 111.12515385 72.16503906 111.12597656 C73.04975891 111.12978333 73.93447876 111.13359009 74.8460083 111.13751221 C75.80948181 111.13853943 76.77295532 111.13956665 77.765625 111.140625 C79.7903758 111.15895621 81.8151157 111.17852681 83.83984375 111.19921875 C87.04396875 111.22818204 90.24739579 111.2499996 93.45166016 111.25048828 C96.53611738 111.25382283 99.6189497 111.28838063 102.703125 111.328125 C103.65850159 111.3210553 104.61387817 111.3139856 105.59820557 111.30670166 C106.49553406 111.32311707 107.39286255 111.33953247 108.31738281 111.35644531 C109.49533417 111.36191376 109.49533417 111.36191376 110.69708252 111.36749268 C114.3234813 112.36350048 115.7647656 114.01000046 118 117 C118.46890269 120.07424287 118.63607488 122.58101038 118.56762695 125.64575195 C118.56835709 126.5047963 118.56908722 127.36384064 118.56983948 128.24891663 C118.56636484 131.07935429 118.52751033 133.90813224 118.48828125 136.73828125 C118.47895267 138.70410768 118.47183677 140.66994575 118.46684265 142.63578796 C118.44777648 147.80311325 118.39867863 152.96973282 118.34332275 158.13677979 C118.29212226 163.41205296 118.26932688 168.68744046 118.24414062 173.96289062 C118.19055979 184.30890336 118.10525131 194.65439293 118 205 C119.43279297 204.92845703 119.43279297 204.92845703 120.89453125 204.85546875 C121.91933594 204.90316406 122.94414062 204.95085937 124 205 C125.6875 207.3125 125.6875 207.3125 127 210 C127.53625 210.53625 128.0725 211.0725 128.625 211.625 C131.83130495 214.83130495 131.15459096 219.29926082 131.16113281 223.51318359 C131.16609772 224.27612228 131.17106262 225.03906097 131.17617798 225.82511902 C131.19078546 228.34956768 131.19759901 230.87395351 131.203125 233.3984375 C131.20887734 235.15337119 131.21463507 236.90830487 131.22039795 238.66323853 C131.23090372 242.34352918 131.23674925 246.02379802 131.24023438 249.70410156 C131.24572011 254.41746639 131.26975154 259.13054249 131.29820633 263.84381676 C131.31683889 267.46923666 131.32203862 271.09458707 131.32357025 274.72005081 C131.3265956 276.45757248 131.33462018 278.19509295 131.34775543 279.9325676 C131.36483006 282.3646105 131.36293252 284.79594865 131.35644531 287.22802734 C131.3656601 287.94404617 131.37487488 288.660065 131.3843689 289.39778137 C131.34773698 293.78675492 130.65299855 296.49285055 128 300 C125.04177251 302.73067153 122.90230459 304.17148523 119 305 C118.99413376 306.09136765 118.98826752 307.18273529 118.98222351 308.30717468 C118.92501028 318.59234721 118.85225589 328.87730803 118.76428509 339.16226482 C118.71955782 344.44987654 118.68030679 349.73741079 118.65356445 355.02514648 C118.62755514 360.12812403 118.58716931 365.23080383 118.53681374 370.33359718 C118.52012901 372.28039662 118.50862474 374.22724757 118.50238609 376.17410851 C118.49276254 378.9011392 118.46472414 381.62740539 118.43237305 384.35424805 C118.43380814 385.15913666 118.43524323 385.96402527 118.4367218 386.79330444 C118.359239 391.41155949 117.94061773 394.39385911 115 398 C112.19083339 398.62099248 112.19083339 398.62099248 108.69625568 398.61523914 C108.05121215 398.62100836 107.40616862 398.62677759 106.74157831 398.63272163 C104.56473576 398.64603166 102.38971641 398.62346959 100.21296692 398.60127258 C98.6429492 398.6034516 97.07293323 398.60782699 95.50292701 398.61421841 C91.1768758 398.62543496 86.8514398 398.60534951 82.52546704 398.58032811 C77.8649443 398.55879405 73.20445801 398.56603852 68.54389954 398.56983948 C60.46530203 398.57246494 52.38690598 398.5567389 44.30835915 398.52865028 C32.62808138 398.48806503 20.94790132 398.47499817 9.26756068 398.46871033 C-9.68162614 398.45775932 -28.63070552 398.42446326 -47.57983398 398.37719727 C-65.99031027 398.33132253 -84.40075741 398.29592041 -102.8112793 398.2746582 C-103.94554945 398.27334459 -105.0798196 398.27203097 -106.24846157 398.27067754 C-111.93859656 398.26415249 -117.62873175 398.25783392 -123.31886709 398.25161803 C-170.54598566 398.19975991 -217.7729876 398.1116727 -265 398 C-266.77902858 394.92878654 -267.25134622 392.71204984 -267.25726891 389.17735291 C-267.2637178 388.20347154 -267.27016669 387.22959017 -267.276811 386.22619724 C-267.2737138 385.15889346 -267.2706166 384.09158968 -267.26742554 382.99194336 C-267.27195665 381.85612037 -267.27648776 380.72029737 -267.28115618 379.5500555 C-267.29385418 375.729944 -267.29217633 371.90997407 -267.29052734 368.08984375 C-267.29542067 365.35685689 -267.30325686 362.62388007 -267.31088257 359.89089966 C-267.32749918 353.229867 -267.33299237 346.56886973 -267.33410732 339.90781808 C-267.33505729 334.49508933 -267.33916502 329.08237227 -267.34550858 323.66964722 C-267.36312122 308.32970363 -267.37234717 292.98978804 -267.37084763 277.64983428 C-267.37076772 276.82276201 -267.3706878 275.99568975 -267.37060547 275.14355469 C-267.37052371 274.31547503 -267.37044195 273.48739537 -267.37035771 272.63422239 C-267.36954435 259.20615534 -267.38869447 245.77820035 -267.4168822 232.35016572 C-267.44558477 218.56838053 -267.45942401 204.78665003 -267.45769465 191.00483418 C-267.45702993 183.26488323 -267.46255803 175.5250498 -267.48405075 167.78512573 C-267.50222785 161.19694852 -267.50663849 154.60894214 -267.4930319 148.02075076 C-267.48648495 144.65809049 -267.48860388 141.29602691 -267.5037384 137.93335342 C-267.51907305 134.29129077 -267.50996008 130.65009926 -267.49447632 127.00805664 C-267.50476344 125.94075286 -267.51505057 124.87344908 -267.52564943 123.77380276 C-267.45849267 116.66295015 -267.45849267 116.66295015 -265.15906143 113.33812428 C-262.10691214 111.44648979 -259.92413817 111.58306559 -256.34912109 111.69213867 C-255.68804352 111.70589539 -255.02696594 111.7196521 -254.34585571 111.73382568 C-252.90959923 111.76464713 -251.47350316 111.80382044 -250.03767014 111.85036278 C-247.736311 111.91907728 -245.43692225 111.95277326 -243.13467407 111.97566223 C-236.58917392 112.04185667 -230.04601154 112.12670015 -223.50341797 112.33911133 C-201.12748832 113.03277127 -186.06288656 111.23568223 -167.52723694 97.8162384 C-163.94720029 95.243389 -160.20245291 92.97564473 -156.4375 90.6875 C-155.18973103 89.89978279 -153.94339783 89.10978146 -152.69921875 88.31640625 C-148.0648164 85.39039122 -143.33321958 82.63442217 -138.6015625 79.86962891 C-133.35764636 76.80400917 -128.14144336 73.69545357 -122.9375 70.5625 C-116.83637386 66.89079526 -110.72427529 63.23834749 -104.59765625 59.609375 C-103.94482162 59.22265121 -103.291987 58.83592743 -102.61936951 58.43748474 C-101.26790379 57.6369423 -99.91643793 56.83640011 -98.56497192 56.03585815 C-86.53376967 48.90817317 -74.54934463 41.71109358 -62.60864258 34.43286133 C-52.2106521 28.1018788 -41.74746681 21.88252221 -31.27148438 15.68164062 C-30.32693893 15.12216736 -30.32693893 15.12216736 -29.36331177 14.5513916 C-28.1171664 13.81417089 -26.87016805 13.07838992 -25.62228394 12.34411621 C-22.35248622 10.4157257 -19.10998776 8.45304404 -15.89306641 6.4375 C-15.21826736 6.01927979 -14.54346832 5.60105957 -13.84822083 5.17016602 C-12.55965706 4.36995588 -11.27646086 3.56101238 -9.99980164 2.74194336 C-6.57497322 0.62671881 -4.05079331 -0.77738482 0 0 Z " fill="#1F89FE" transform="translate(351,2)"/>
<path d="M0 0 C4.91515989 5.37238406 8.35680311 11.82870829 11.95776367 18.12866211 C14.59949885 22.72900942 17.40324681 27.20441701 20.29296875 31.65234375 C24.91996025 38.7873475 29.2359065 46.08155772 33.5 53.4375 C34.97641593 55.97740727 36.45458736 58.51628791 37.93359375 61.0546875 C38.46544533 61.96828789 38.46544533 61.96828789 39.00804138 62.90034485 C41.00016722 66.3143886 43.02374401 69.70536019 45.09765625 73.0703125 C45.73960937 74.11360718 45.73960937 74.11360718 46.39453125 75.17797852 C47.46535264 76.90575241 48.54661758 78.62704232 49.62890625 80.34765625 C51 83 51 83 51 87 C48.56005859 88.87182617 48.56005859 88.87182617 45.1484375 90.79296875 C44.53795563 91.14329666 43.92747375 91.49362457 43.29849243 91.85456848 C41.33173072 92.97983427 39.35421848 94.08431718 37.375 95.1875 C35.44813309 96.27654566 33.52388552 97.36998776 31.60147095 98.46687317 C29.17046005 99.85060964 26.72918917 101.21566486 24.28426361 102.57464218 C21.85480585 104.03264989 21.85480585 104.03264989 19.23654938 106.1788063 C9.07776445 113.98078607 0.15256787 114.24384176 -12.31591797 114.02172852 C-14.36013192 114.01896624 -16.40435443 114.0201819 -18.44856453 114.02501583 C-23.88505937 114.02703395 -29.31974335 113.97517081 -34.7558136 113.91152191 C-39.87119768 113.85996988 -44.98615862 113.85783812 -50.10180664 113.85144043 C-65.02644094 113.80436001 -79.95074386 113.67870832 -94.875 113.5625 C-128.24625 113.376875 -161.6175 113.19125 -196 113 C-196 206.72 -196 300.44 -196 397 C-218.77 397 -241.54 397 -265 397 C-267.13724384 393.79413424 -267.25110232 392.98231985 -267.25726891 389.30040073 C-267.2637178 388.32851041 -267.27016669 387.35662009 -267.276811 386.35527855 C-267.2737138 385.28506193 -267.2706166 384.21484531 -267.26742554 383.11219788 C-267.27195665 381.97722931 -267.27648776 380.84226074 -267.28115618 379.67289919 C-267.29387 375.84968174 -267.29217532 372.02660546 -267.29052734 368.20336914 C-267.2954189 365.47052977 -267.30325557 362.73770047 -267.31088257 360.00486755 C-267.32750934 353.34035568 -267.33299285 346.67587919 -267.33410732 340.01134831 C-267.33505693 334.59573523 -267.3391628 329.18013384 -267.34550858 323.76452446 C-267.36312491 308.41867273 -267.37234674 293.07284899 -267.37084763 277.72698707 C-267.37076772 276.8993494 -267.3706878 276.07171174 -267.37060547 275.21899414 C-267.37052371 274.39034898 -267.37044195 273.56170382 -267.37035771 272.7079482 C-267.36954451 259.27335106 -267.38868972 245.83886596 -267.4168822 232.40430123 C-267.44558509 218.61802765 -267.45942396 204.83180875 -267.45769465 191.04550451 C-267.45702989 183.30218523 -267.46255982 175.55898342 -267.48405075 167.81569099 C-267.5022284 161.22382979 -267.50663813 154.63213932 -267.4930319 148.04026396 C-267.48648489 144.67558549 -267.48860397 141.31150335 -267.5037384 137.94681168 C-267.51907311 134.30250616 -267.50995999 130.65907125 -267.49447632 127.01478577 C-267.50476344 125.94679987 -267.51505057 124.87881396 -267.52564943 123.77846485 C-267.45849215 116.66305414 -267.45849215 116.66305414 -265.15906143 113.3377037 C-262.10688082 111.44664435 -259.92388083 111.58307344 -256.34912109 111.69213867 C-255.68804352 111.70589539 -255.02696594 111.7196521 -254.34585571 111.73382568 C-252.90959923 111.76464713 -251.47350316 111.80382044 -250.03767014 111.85036278 C-247.736311 111.91907728 -245.43692225 111.95277326 -243.13467407 111.97566223 C-236.58917392 112.04185667 -230.04601154 112.12670015 -223.50341797 112.33911133 C-201.12748832 113.03277127 -186.06288656 111.23568223 -167.52723694 97.8162384 C-163.94720029 95.243389 -160.20245291 92.97564473 -156.4375 90.6875 C-155.18973103 89.89978279 -153.94339783 89.10978146 -152.69921875 88.31640625 C-148.0648164 85.39039122 -143.33321958 82.63442217 -138.6015625 79.86962891 C-133.35764636 76.80400917 -128.14144336 73.69545357 -122.9375 70.5625 C-116.83637386 66.89079526 -110.72427529 63.23834749 -104.59765625 59.609375 C-103.94482162 59.22265121 -103.291987 58.83592743 -102.61936951 58.43748474 C-101.26790379 57.6369423 -99.91643793 56.83640011 -98.56497192 56.03585815 C-86.53376967 48.90817317 -74.54934463 41.71109358 -62.60864258 34.43286133 C-52.2106521 28.1018788 -41.74746681 21.88252221 -31.27148438 15.68164062 C-30.32693893 15.12216736 -30.32693893 15.12216736 -29.36331177 14.5513916 C-28.1171664 13.81417089 -26.87016805 13.07838992 -25.62228394 12.34411621 C-22.35248622 10.4157257 -19.10998776 8.45304404 -15.89306641 6.4375 C-15.21826736 6.01927979 -14.54346832 5.60105957 -13.84822083 5.17016602 C-12.55965706 4.36995588 -11.27646086 3.56101238 -9.99980164 2.74194336 C-6.57497322 0.62671881 -4.05079331 -0.77738482 0 0 Z " fill="#0074DE" transform="translate(351,2)"/>
<path d="M0 0 C0.33 0 0.66 0 1 0 C1 29.04 1 58.08 1 88 C2.98 88 4.96 88 7 88 C8.6875 90.3125 8.6875 90.3125 10 93 C10.53625 93.53625 11.0725 94.0725 11.625 94.625 C14.83130495 97.83130495 14.15459096 102.29926082 14.16113281 106.51318359 C14.16609772 107.27612228 14.17106262 108.03906097 14.17617798 108.82511902 C14.19078546 111.34956768 14.19759901 113.87395351 14.203125 116.3984375 C14.20887734 118.15337119 14.21463507 119.90830487 14.22039795 121.66323853 C14.23090372 125.34352918 14.23674925 129.02379802 14.24023438 132.70410156 C14.24572011 137.41746639 14.26975154 142.13054249 14.29820633 146.84381676 C14.31683889 150.46923666 14.32203862 154.09458707 14.32357025 157.72005081 C14.3265956 159.45757248 14.33462018 161.19509295 14.34775543 162.9325676 C14.36483006 165.3646105 14.36293252 167.79594865 14.35644531 170.22802734 C14.3656601 170.94404617 14.37487488 171.660065 14.3843689 172.39778137 C14.34773698 176.78675492 13.65299855 179.49285055 11 183 C6.13643373 187.48944579 2.69483066 188.120194 -3.78009033 188.14717102 C-4.96042343 188.15432632 -6.14075653 188.16148163 -7.3568573 188.16885376 C-8.64836197 188.17154266 -9.93986664 188.17423157 -11.27050781 188.17700195 C-12.64726431 188.18326993 -14.02401912 188.18991703 -15.40077209 188.19691467 C-19.91821117 188.21791732 -24.43565043 188.22831336 -28.953125 188.23828125 C-30.5106381 188.24233019 -32.06815102 188.24644716 -33.62566376 188.25063133 C-40.94378974 188.2696745 -48.26190568 188.28390748 -55.58005166 188.2922433 C-64.01720555 188.30201345 -72.45409693 188.32833066 -80.89115834 188.36874419 C-87.41955002 188.39893824 -93.94786658 188.41371528 -100.4763267 188.41702431 C-104.37226824 188.419371 -108.26792906 188.42828146 -112.16379547 188.45348549 C-115.83123622 188.47682922 -119.49821265 188.48097451 -123.16570854 188.47072411 C-125.14418906 188.46999564 -127.12264634 188.48904227 -129.10102844 188.50878906 C-137.32528124 188.46086433 -143.26181971 187.73818029 -149.3125 181.6875 C-152.85946771 176.0386255 -154.37221197 171.59891869 -154.43579102 164.92236328 C-154.44586685 164.25304779 -154.45594269 163.5837323 -154.46632385 162.89413452 C-154.49459574 160.70268612 -154.50066937 158.5119314 -154.50390625 156.3203125 C-154.51356118 154.78245776 -154.52365467 153.24460572 -154.53416443 151.70675659 C-154.55207333 148.49080014 -154.55769084 145.27508478 -154.5559082 142.05908203 C-154.55560348 137.95777733 -154.59656697 133.85803258 -154.64822483 129.75709724 C-154.68173958 126.58268265 -154.68766124 123.40863934 -154.68607903 120.23406601 C-154.6895959 118.7230987 -154.70273419 117.21211937 -154.72607613 115.70132828 C-154.83775209 107.72774402 -154.71433978 101.2585791 -149.67881775 94.70114136 C-145.44653289 90.41257888 -141.19297888 88.27156819 -135.10651588 87.75390434 C-134.09438719 87.75574793 -133.08225849 87.75759151 -132.03945923 87.75949097 C-130.87005798 87.75674164 -129.70065674 87.75399231 -128.49581909 87.75115967 C-127.22698883 87.75835022 -125.95815857 87.76554077 -124.65087891 87.77294922 C-123.29040536 87.77351385 -121.9299312 87.77319575 -120.56945801 87.77206421 C-116.88805874 87.77149173 -113.20679051 87.78322901 -109.52542162 87.79721212 C-105.67372335 87.80973699 -101.82202189 87.81089137 -97.9703064 87.81326294 C-90.68187126 87.81947255 -83.39349631 87.83587634 -76.10508764 87.85596192 C-66.25249614 87.88252303 -56.39988811 87.89329775 -46.54726982 87.90496635 C-31.03146816 87.92375731 -15.51579348 87.96360643 0 88 C0 58.96 0 29.92 0 0 Z " fill="#DBE9EE" transform="translate(468,119)"/>
<path d="M0 0 C4.91515989 5.37238406 8.35680311 11.82870829 11.95776367 18.12866211 C14.59949885 22.72900942 17.40324681 27.20441701 20.29296875 31.65234375 C24.91996025 38.7873475 29.2359065 46.08155772 33.5 53.4375 C34.97641593 55.97740727 36.45458736 58.51628791 37.93359375 61.0546875 C38.46544533 61.96828789 38.46544533 61.96828789 39.00804138 62.90034485 C41.00016722 66.3143886 43.02374401 69.70536019 45.09765625 73.0703125 C45.73960937 74.11360718 45.73960937 74.11360718 46.39453125 75.17797852 C47.46535264 76.90575241 48.54661758 78.62704232 49.62890625 80.34765625 C51 83 51 83 51 87 C48.56005859 88.87182617 48.56005859 88.87182617 45.1484375 90.79296875 C44.53795563 91.14329666 43.92747375 91.49362457 43.29849243 91.85456848 C41.33173072 92.97983427 39.35421848 94.08431718 37.375 95.1875 C35.44813309 96.27654566 33.52388552 97.36998776 31.60147095 98.46687317 C29.16427899 99.85412792 26.718361 101.22481473 24.26023865 102.57464218 C21.86589395 104.00850942 21.86589395 104.00850942 19.45277405 106.1788063 C7.86455965 115.31052987 -4.26895814 114.21129161 -18.46630859 114.02172852 C-21.13837356 114.01918668 -23.81021614 114.02022567 -26.48225403 114.02571106 C-32.21132939 114.03040538 -37.9394745 114.00243359 -43.66831589 113.95157051 C-51.95084665 113.87808301 -60.23293265 113.85495289 -68.51575406 113.84367859 C-81.95737156 113.82403424 -95.39849444 113.76428621 -108.83984375 113.67895508 C-121.88832138 113.59620476 -134.93666413 113.53256754 -147.98535156 113.49438477 C-148.79114924 113.49202025 -149.59694691 113.48965574 -150.42716269 113.48721958 C-154.47005628 113.47547331 -158.51295081 113.46410016 -162.55584598 113.45291245 C-196.03758919 113.35977824 -229.51873371 113.20140697 -263 113 C-263 112.67 -263 112.34 -263 112 C-262.15571442 112.0207811 -261.31142883 112.04156219 -260.44155884 112.06297302 C-252.35548984 112.24803135 -244.27240063 112.35656184 -236.18421364 112.38603115 C-232.02864509 112.40368753 -227.87734472 112.44758509 -223.72314453 112.55883789 C-201.32780134 113.13445312 -186.0621388 111.22493121 -167.52320862 97.81221008 C-163.94406923 95.24161309 -160.20053815 92.97492052 -156.4375 90.6875 C-155.18973739 89.89977272 -153.94340498 89.10977025 -152.69921875 88.31640625 C-148.0648164 85.39039122 -143.33321958 82.63442217 -138.6015625 79.86962891 C-133.35764636 76.80400917 -128.14144336 73.69545357 -122.9375 70.5625 C-116.83637386 66.89079526 -110.72427529 63.23834749 -104.59765625 59.609375 C-103.94482162 59.22265121 -103.291987 58.83592743 -102.61936951 58.43748474 C-101.26790379 57.6369423 -99.91643793 56.83640011 -98.56497192 56.03585815 C-86.53376967 48.90817317 -74.54934463 41.71109358 -62.60864258 34.43286133 C-52.2106521 28.1018788 -41.74746681 21.88252221 -31.27148438 15.68164062 C-30.32693893 15.12216736 -30.32693893 15.12216736 -29.36331177 14.5513916 C-28.1171664 13.81417089 -26.87016805 13.07838992 -25.62228394 12.34411621 C-22.35248622 10.4157257 -19.10998776 8.45304404 -15.89306641 6.4375 C-15.21826736 6.01927979 -14.54346832 5.60105957 -13.84822083 5.17016602 C-12.55965706 4.36995588 -11.27646086 3.56101238 -9.99980164 2.74194336 C-6.57497322 0.62671881 -4.05079331 -0.77738482 0 0 Z " fill="#4678DC" transform="translate(351,2)"/>
<path d="M0 0 C1.75212488 -0.01438526 3.50424977 -0.0287689 5.25637472 -0.04314601 C6.82387385 -0.05602208 8.39137277 -0.06892484 9.95887148 -0.08185208 C14.30062466 -0.11761799 18.6423809 -0.15290083 22.98414516 -0.18729687 C31.14204448 -0.25236913 39.29962174 -0.32305163 47.45717812 -0.42340279 C50.69582373 -0.45799392 53.93426649 -0.47131258 57.17308044 -0.47721863 C58.74749361 -0.48479269 60.32188164 -0.5021567 61.89610291 -0.52787781 C76.40012968 -0.75258031 89.58394231 0.84644965 100.91796875 10.90234375 C109.01038669 19.05549278 113.93867819 28.93467432 114.3125 40.5625 C114.13257667 51.57053624 109.5705135 60.20769412 102 68 C101.2575 68.52464844 100.515 69.04929687 99.75 69.58984375 C99.1725 70.05519531 98.595 70.52054687 98 71 C98 71.99 98 72.98 98 74 C99.50139618 75.22866145 99.50139618 75.22866145 101.5 76.25 C111.82897111 82.38168603 119.46392203 90.57512783 122.53125 102.40625 C124.42357874 112.87713571 122.94563945 123.95640357 117.0625 132.9375 C116.06931253 134.31207146 115.04716009 135.66608703 114 137 C113.37867188 137.825 112.75734375 138.65 112.1171875 139.5 C105.14082477 147.73777149 96.30607511 151.58066937 86 154 C84.91564667 154.26488724 84.91564667 154.26488724 83.80938721 154.53512573 C80.23281004 155.12694828 76.71801062 155.139435 73.10449219 155.12939453 C71.93537796 155.13202301 71.93537796 155.13202301 70.74264526 155.13470459 C68.17736559 155.13909109 65.61215532 155.13619756 63.046875 155.1328125 C61.2627969 155.13348619 59.4787189 155.13445675 57.69464111 155.13571167 C53.96243411 155.13718407 50.23025109 155.13504777 46.49804688 155.13037109 C41.70374025 155.12465751 36.9094894 155.12796597 32.11518478 155.13394356 C28.43503393 155.13754743 24.75489643 155.13641168 21.07474518 155.13381577 C19.30602258 155.13314687 17.53729878 155.13397363 15.76857758 155.13629532 C13.30499527 155.13882077 10.84150508 155.13498356 8.37792969 155.12939453 C7.27301682 155.13243088 7.27301682 155.13243088 6.14578247 155.13552856 C1.11426618 155.11426618 1.11426618 155.11426618 0 154 C-0.096708 152.01305149 -0.12187052 150.02260987 -0.12025452 148.03330994 C-0.12162918 146.73615555 -0.12300385 145.43900116 -0.12442017 144.10253906 C-0.12088055 142.6516111 -0.11724573 141.20068337 -0.11352539 139.74975586 C-0.11324353 138.23238629 -0.11340123 136.71501658 -0.1139679 135.19764709 C-0.11425591 131.06559484 -0.10835858 126.93357137 -0.10139394 122.80152583 C-0.09516102 118.48801108 -0.09455665 114.17449573 -0.09336853 109.86097717 C-0.09025503 101.68699883 -0.08204139 93.51303379 -0.07201904 85.33906132 C-0.06085848 76.03571031 -0.0553476 66.73235868 -0.05032361 57.42900264 C-0.03985879 38.28599421 -0.02225899 19.14299817 0 0 Z M27 25 C26.89893126 27.87264056 26.86030328 30.72073628 26.8671875 33.59375 C26.86623077 34.45560913 26.86527405 35.31746826 26.86428833 36.20544434 C26.8636065 38.03133212 26.86546096 39.85722231 26.86962891 41.68310547 C26.87497714 44.48801078 26.86968401 47.29275595 26.86328125 50.09765625 C26.86394203 51.86718786 26.86522319 53.63671936 26.8671875 55.40625 C26.86516327 56.25102905 26.86313904 57.09580811 26.86105347 57.96618652 C26.50075489 61.7918686 26.50075489 61.7918686 28 65 C33.82032885 65.29461522 39.64338829 65.31430424 45.47045898 65.35009766 C47.43249448 65.366565 49.39447232 65.3937312 51.35620117 65.43212891 C66.5617114 66.1747716 66.5617114 66.1747716 80 60 C84.6739977 55.34639553 85.36495045 51.04024618 85.625 44.5 C85.36315164 36.76777201 83.53570476 32.42164977 78.0625 27.125 C72.17612524 23.91425013 66.7959513 23.71645398 60.26171875 23.76953125 C58.87965996 23.77021858 58.87965996 23.77021858 57.46968079 23.7709198 C55.53242699 23.77392935 53.59517535 23.78177657 51.65795898 23.79418945 C48.68008959 23.81254568 45.70252967 23.81469828 42.72460938 23.81445312 C40.84114312 23.81936499 38.95767899 23.82519186 37.07421875 23.83203125 C36.17950363 23.83314407 35.28478851 23.8342569 34.36296082 23.83540344 C30.36243049 23.46470837 30.36243049 23.46470837 27 25 Z M59.3828125 85.0859375 C58.0361702 85.11779648 58.0361702 85.11779648 56.662323 85.15029907 C54.77806563 85.19631461 52.89387683 85.24522013 51.00976562 85.296875 C48.11342322 85.37531352 45.21697043 85.44217974 42.3203125 85.5078125 C40.48696176 85.55400184 38.65362756 85.60085307 36.8203125 85.6484375 C35.51575607 85.67821182 35.51575607 85.67821182 34.18484497 85.70858765 C30.27555203 85.44537912 30.27555203 85.44537912 27 87 C26.90214659 88.34544327 26.87202015 89.69592563 26.87060547 91.04492188 C26.86745331 91.90251099 26.86430115 92.7601001 26.86105347 93.64367676 C26.8630777 94.57595093 26.86510193 95.5082251 26.8671875 96.46875 C26.86623077 97.41939331 26.86527405 98.37003662 26.86428833 99.3494873 C26.86360643 101.36368882 26.86546138 103.37789252 26.86962891 105.39208984 C26.87497702 108.48670355 26.86968423 111.5811721 26.86328125 114.67578125 C26.86394203 116.62760449 26.86522319 118.57942764 26.8671875 120.53125 C26.86516327 121.46352417 26.86313904 122.39579834 26.86105347 123.35632324 C26.86420563 124.21391235 26.86735779 125.07150146 26.87060547 125.95507812 C26.87140106 126.71373169 26.87219666 127.47238525 26.87301636 128.25402832 C26.81078913 130.02877312 26.81078913 130.02877312 28 131 C29.41977052 131.11372833 30.845076 131.15953273 32.26928711 131.17700195 C33.17791 131.18983719 34.0865329 131.20267242 35.02268982 131.21589661 C36.01422562 131.22328354 37.00576141 131.23067047 38.02734375 131.23828125 C39.04542618 131.246353 40.06350861 131.25442474 41.11244202 131.26274109 C43.27717373 131.27660836 45.44192755 131.28731861 47.60668945 131.29516602 C50.89252523 131.31226595 54.17732521 131.35611477 57.46289062 131.40039062 C59.56770094 131.41052721 61.67251982 131.41904028 63.77734375 131.42578125 C64.75066147 131.44328934 65.72397919 131.46079742 66.72679138 131.47883606 C74.70032732 131.45394032 81.46449514 129.69005805 87.875 124.8125 C92.34556942 118.89556988 94.78064387 113.0564365 94.453125 105.55859375 C93.42221976 99.73753398 90.73162315 94.8252244 86.6875 90.5625 C77.98926863 85.50538874 69.27954469 84.81014046 59.3828125 85.0859375 Z " fill="#155BCD" transform="translate(910,125)"/>
<path d="M0 0 C1.051875 0.33902344 2.10375 0.67804688 3.1875 1.02734375 C20.39274161 7.32249075 35.44934506 22.48604812 43.15234375 38.92578125 C45.59649985 44.90664248 47.43382134 49.59471087 46 56 C41.72939382 56.11589162 37.45919016 56.18714802 33.1875 56.25 C31.97255859 56.28351563 30.75761719 56.31703125 29.50585938 56.3515625 C28.34248047 56.36445313 27.17910156 56.37734375 25.98046875 56.390625 C24.90692139 56.41157227 23.83337402 56.43251953 22.72729492 56.45410156 C20 56 20 56 18.22485352 54.17602539 C16.5760269 51.24678648 15.16400829 48.23686834 13.75 45.1875 C8.50282802 34.45270097 2.11766242 29.40964976 -9 25 C-24.41957865 20.16319821 -38.27360597 21.58475949 -53 28 C-55.80102914 29.50055133 -58.40551386 31.16894886 -61 33 C-61.845625 33.556875 -62.69125 34.11375 -63.5625 34.6875 C-73.95477802 44.54684069 -79.26029081 58.94703772 -80.203125 73.03515625 C-80.44046968 88.36366687 -76.71265377 104.99794856 -65.77734375 116.484375 C-54.08809235 126.45235202 -39.19237651 131.6357056 -23.83154297 130.89550781 C-11.55402039 129.76761531 -0.22776602 125.8190753 8.5 116.75 C12.39386932 111.96070503 14.69299449 106.67809496 17 101 C17.99 99.02 17.99 99.02 19 97 C28.24 97 37.48 97 47 97 C44.51572834 116.8741733 34.29229196 131.12795205 18.984375 143.421875 C11.8391727 148.50375685 4.36317824 151.48183373 -4 154 C-4.77472656 154.23460937 -5.54945313 154.46921875 -6.34765625 154.7109375 C-26.58709893 160.26370706 -48.71171488 157.04849267 -67.1015625 147.3671875 C-73.75570716 143.33721256 -79.39895457 138.36766854 -85 133 C-85.7115625 132.35160156 -86.423125 131.70320312 -87.15625 131.03515625 C-101.30495105 117.72993545 -107.86984869 99.20995311 -109.28125 80.21484375 C-109.79401527 59.89652008 -103.95042558 41.71117522 -91 26 C-90.39671875 25.23429687 -89.7934375 24.46859375 -89.171875 23.6796875 C-67.75139563 -2.15089056 -31.29569518 -10.58325406 0 0 Z " fill="#155BCD" transform="translate(655,126)"/>
<path d="M0 0 C1.03932175 -0.00744736 1.03932175 -0.00744736 2.09963989 -0.01504517 C4.40652446 -0.02971994 6.71333996 -0.03648256 9.02026367 -0.04199219 C10.62676495 -0.04774556 12.23326621 -0.05350327 13.83976746 -0.05926514 C17.22016724 -0.06979445 20.60054314 -0.07562239 23.98095703 -0.07910156 C28.28341697 -0.0845472 32.58555413 -0.10848148 36.8879137 -0.13707352 C40.21423711 -0.15584582 43.54048566 -0.1609135 46.86685753 -0.16243744 C48.45066757 -0.16543895 50.0344771 -0.17338147 51.61823463 -0.18662262 C69.1509372 -0.32256861 82.08577156 2.69121216 95.08666992 14.90722656 C106.01444429 25.66716822 110.49999324 36.7388082 110.68823242 51.97363281 C110.62595115 67.17026212 106.38721937 79.71598044 95.82495117 90.83691406 C84.1861037 101.88175337 71.60759577 105.20298835 55.94604492 105.47753906 C54.95571259 105.49832016 53.96538025 105.51910126 52.94503784 105.54051208 C49.79700325 105.60563602 46.64888875 105.6647191 43.50073242 105.72363281 C41.36009932 105.7668534 39.21947416 105.8104688 37.07885742 105.85449219 C31.84456566 105.96127909 26.6101953 106.06311293 21.37573242 106.16113281 C21.36764557 106.74551117 21.35955872 107.32988953 21.35122681 107.93197632 C21.26535678 113.99882256 21.16586168 120.06533541 21.05834961 126.13183594 C21.01999972 128.39772963 20.98515759 130.66368546 20.95385742 132.9296875 C20.90833716 136.18154148 20.85032166 139.43296541 20.78979492 142.68457031 C20.77246811 144.2111879 20.77246811 144.2111879 20.75479126 145.76864624 C20.73492157 146.70947052 20.71505188 147.6502948 20.69458008 148.61962891 C20.68125641 149.45013763 20.66793274 150.28064636 20.65420532 151.13632202 C20.37573242 153.16113281 20.37573242 153.16113281 18.37573242 155.16113281 C15.86962891 155.40405273 15.86962891 155.40405273 12.74682617 155.39160156 C11.62985352 155.38966797 10.51288086 155.38773438 9.36206055 155.38574219 C8.19094727 155.37349609 7.01983398 155.36125 5.81323242 155.34863281 C4.63825195 155.34798828 3.46327148 155.34734375 2.25268555 155.34667969 C-6.48414617 155.30125422 -6.48414617 155.30125422 -7.62426758 154.16113281 C-7.7231457 152.18915743 -7.75059013 150.21358841 -7.75125122 148.23913574 C-7.75407104 146.95184067 -7.75689087 145.66454559 -7.75979614 144.33824158 C-7.75785154 142.89834581 -7.75580336 141.45845018 -7.75366211 140.01855469 C-7.75501609 138.51265928 -7.75679601 137.0067642 -7.75897217 135.50086975 C-7.76354686 131.39974474 -7.7617568 127.29864477 -7.75859308 123.1975193 C-7.75606967 118.91516678 -7.75840697 114.63281647 -7.75997925 110.35046387 C-7.761801 103.15762953 -7.75939449 95.96480544 -7.75463867 88.77197266 C-7.74919604 80.44396948 -7.75095869 72.11599077 -7.75646508 63.78798819 C-7.76099605 56.65085436 -7.76164683 49.51372792 -7.75902641 42.37659311 C-7.75746355 38.10814926 -7.75727011 33.83971693 -7.7605629 29.5712738 C-7.76344139 25.55929348 -7.76146633 21.54734485 -7.75566864 17.53536797 C-7.75434092 16.0586852 -7.75473535 14.5819998 -7.7569313 13.10531807 C-7.75964232 11.09792294 -7.75564842 9.09052202 -7.75125122 7.08312988 C-7.7508742 5.95707588 -7.75049717 4.83102188 -7.75010872 3.67084503 C-7.50137608 -1.28975325 -4.28784019 0.02326516 0 0 Z M20.37573242 26.16113281 C20.27698072 27.84368516 20.24774338 29.5303731 20.24633789 31.21582031 C20.24318573 32.2936377 20.24003357 33.37145508 20.23678589 34.48193359 C20.23881012 35.65481934 20.24083435 36.82770508 20.24291992 38.03613281 C20.2419632 39.23093262 20.24100647 40.42573242 20.24002075 41.65673828 C20.23933871 44.18880262 20.24119465 46.72086869 20.24536133 49.25292969 C20.25070921 53.14424541 20.2454171 57.03544571 20.23901367 60.92675781 C20.23967445 63.37988307 20.2409556 65.83300825 20.24291992 68.28613281 C20.24089569 69.45901855 20.23887146 70.6319043 20.23678589 71.84033203 C20.23993805 72.91814941 20.24309021 73.9959668 20.24633789 75.10644531 C20.24713348 76.0605127 20.24792908 77.01458008 20.24874878 77.99755859 C20.13412395 80.1410117 20.13412395 80.1410117 21.37573242 81.16113281 C23.94853835 81.27468667 26.49342528 81.32531908 29.06713867 81.32910156 C30.23514259 81.33409416 30.23514259 81.33409416 31.42674255 81.33918762 C33.08201506 81.34426365 34.73729785 81.34659574 36.39257812 81.34643555 C38.90341632 81.34860276 41.41380132 81.36669692 43.92456055 81.38574219 C45.53458509 81.38867999 47.14461172 81.39066219 48.75463867 81.39160156 C49.49766739 81.39878708 50.24069611 81.4059726 51.00624084 81.41337585 C58.89392576 81.37952598 66.82302135 79.76024058 73.37573242 75.16113281 C79.73634674 68.57078976 82.52265347 62.04248907 82.93823242 52.97363281 C82.78679331 45.3411014 80.86140057 39.3593337 76.37573242 33.16113281 C69.49025122 26.66562577 62.72767223 24.54940023 53.44213867 24.73535156 C52.52359604 24.73863968 51.60505341 24.7419278 50.65867615 24.74531555 C48.73331526 24.75567571 46.80798403 24.77552135 44.8828125 24.80444336 C41.92259737 24.84886745 38.96319417 24.86593788 36.00268555 24.87792969 C34.12832475 24.89134048 32.25397401 24.90625976 30.37963867 24.92285156 C29.49119766 24.93023849 28.60275665 24.93762543 27.68739319 24.94523621 C23.7127793 24.61542086 23.7127793 24.61542086 20.37573242 26.16113281 Z " fill="#90C2CD" transform="translate(1148.624267578125,124.8388671875)"/>
<path d="M0 0 C4.31248609 -0.02886537 8.62494762 -0.04675255 12.9375 -0.0625 C14.16919922 -0.07087891 15.40089844 -0.07925781 16.66992188 -0.08789062 C17.83974609 -0.09111328 19.00957031 -0.09433594 20.21484375 -0.09765625 C21.84087524 -0.10551147 21.84087524 -0.10551147 23.49975586 -0.11352539 C26 0 26 0 27 1 C27.11465129 3.82225622 27.16485839 6.62102739 27.17358398 9.44433594 C27.180271 10.33068222 27.18695801 11.2170285 27.19384766 12.13023376 C27.2079392 14.06400912 27.21982003 15.99780151 27.22979546 17.93160248 C27.24618659 21.00176535 27.26943072 24.07180483 27.29469299 27.14190674 C27.36547103 35.87465244 27.42522398 44.60745246 27.47680664 53.34033203 C27.5088173 58.67783918 27.55016315 64.01521114 27.59700203 69.35260773 C27.61291047 71.37933129 27.6252828 73.40608606 27.63390923 75.4328537 C27.46562111 100.28559592 27.46562111 100.28559592 38.5 122 C39.325 122.66 40.15 123.32 41 124 C42.299375 125.051875 42.299375 125.051875 43.625 126.125 C48.23786888 128.68770493 52.87376538 129.85509169 58 131 C59.85625 131.433125 59.85625 131.433125 61.75 131.875 C70.98121492 132.76773066 81.30658268 129.86002629 88.91796875 124.72265625 C98.54622627 116.75631185 101.71084446 104.98368321 103 93 C103.39701708 85.83672871 103.37277437 78.6564574 103.4140625 71.484375 C103.43280273 69.41643526 103.4523782 67.34850294 103.4727478 65.28057861 C103.52377359 59.87534994 103.56355631 54.47009656 103.60089111 49.0647583 C103.64111742 43.53399695 103.69212419 38.00333576 103.7421875 32.47265625 C103.83859625 21.64850817 103.92311169 10.82430313 104 0 C108.31248609 -0.02886537 112.62494762 -0.04675255 116.9375 -0.0625 C118.16919922 -0.07087891 119.40089844 -0.07925781 120.66992188 -0.08789062 C121.83974609 -0.09111328 123.00957031 -0.09433594 124.21484375 -0.09765625 C125.84087524 -0.10551147 125.84087524 -0.10551147 127.49975586 -0.11352539 C130 0 130 0 131 1 C131.10175098 2.33885914 131.13517122 3.68300138 131.14044189 5.02571106 C131.14615204 5.89322998 131.15186218 6.7607489 131.15774536 7.65455627 C131.15942215 9.09362587 131.15942215 9.09362587 131.16113281 10.56176758 C131.16609772 11.566763 131.17106262 12.57175842 131.17617798 13.60720825 C131.19085448 16.95298944 131.19761395 20.29872307 131.203125 23.64453125 C131.20887602 25.96848044 131.21463376 28.29242962 131.22039795 30.61637878 C131.2309263 35.50328798 131.2367556 40.39018066 131.24023438 45.27709961 C131.24569486 51.51660821 131.26966255 57.7558959 131.29820633 63.99533558 C131.31691141 68.80399695 131.32204269 73.61260623 131.32357025 78.42130089 C131.32658424 80.71962365 131.33457007 83.01794577 131.34775543 85.31623268 C131.4707609 108.42420313 131.4707609 108.42420313 128 118 C127.39671875 119.670625 127.39671875 119.670625 126.78125 121.375 C119.30269685 136.69691376 106.70154312 147.6480121 91 154 C90.21367188 154.35191406 89.42734375 154.70382812 88.6171875 155.06640625 C79.84968303 158.19391904 69.22648885 158.56797811 60 158 C58.86175781 157.93167969 57.72351563 157.86335937 56.55078125 157.79296875 C42.81867711 156.48719918 30.19508072 151.44282234 20 142 C18.86498047 141.00033203 18.86498047 141.00033203 17.70703125 139.98046875 C6.76703077 129.81011655 0.34629287 116.57089434 -0.34509277 101.61968994 C-0.5121322 95.15488242 -0.45067776 88.69249142 -0.390625 82.2265625 C-0.38315125 79.84761026 -0.37746369 77.4686518 -0.37347412 75.08969116 C-0.35830715 68.87213714 -0.31910327 62.65496549 -0.2746582 56.43756104 C-0.23351154 50.07561411 -0.2154219 43.71360454 -0.1953125 37.3515625 C-0.15259963 24.900875 -0.084458 12.45046948 0 0 Z " fill="#155BCD" transform="translate(735,125)"/>
<path d="M0 0 C6.08529224 3.19880059 10.71770262 7.44091556 15.37109375 12.4609375 C16.86879056 14.22892569 16.86879056 14.22892569 19 14 C19.06058594 13.00097656 19.12117188 12.00195312 19.18359375 10.97265625 C19.30927734 9.03712891 19.30927734 9.03712891 19.4375 7.0625 C19.55931641 5.13083984 19.55931641 5.13083984 19.68359375 3.16015625 C20 0 20 0 21 -1 C22.78071246 -1.08726223 24.5648314 -1.10699041 26.34765625 -1.09765625 C27.42724609 -1.09443359 28.50683594 -1.09121094 29.61914062 -1.08789062 C31.32360352 -1.07532227 31.32360352 -1.07532227 33.0625 -1.0625 C34.77276367 -1.05573242 34.77276367 -1.05573242 36.51757812 -1.04882812 C39.34510351 -1.03699747 42.1725264 -1.0205141 45 -1 C45.02332977 13.97686306 45.04097956 28.95372472 45.05181217 43.93060207 C45.05697496 50.88416081 45.06401734 57.83770827 45.07543945 64.79125977 C45.08644694 71.49557209 45.09227621 78.19987025 45.09487724 84.90419197 C45.09673202 87.46837613 45.10035364 90.03255962 45.10573006 92.59673882 C45.11293659 96.17445158 45.11399111 99.75211519 45.11352539 103.32983398 C45.11712067 104.40157364 45.12071594 105.47331329 45.12442017 106.57752991 C45.1230455 107.54653229 45.12167084 108.51553467 45.12025452 109.51390076 C45.12117631 110.36102851 45.1220981 111.20815626 45.12304783 112.08095455 C45 114 45 114 44 115 C42.30441274 115.09932153 40.60474253 115.13080007 38.90625 115.1328125 C37.87628906 115.13410156 36.84632812 115.13539063 35.78515625 115.13671875 C34.15900391 115.13091797 34.15900391 115.13091797 32.5 115.125 C31.41589844 115.12886719 30.33179688 115.13273437 29.21484375 115.13671875 C27.66990234 115.13478516 27.66990234 115.13478516 26.09375 115.1328125 C25.14177734 115.13168457 24.18980469 115.13055664 23.20898438 115.12939453 C21 115 21 115 20 114 C19.76346477 111.47403741 19.57826308 108.96892793 19.4375 106.4375 C19.39431641 105.72658203 19.35113281 105.01566406 19.30664062 104.28320312 C19.20028223 102.52238088 19.09961154 100.7612168 19 99 C15.48604871 100.47460456 13.52944424 102.43311891 11 105.25 C2.48836072 113.98711316 -7.18224599 117.07255767 -19.06005859 117.29248047 C-33.14408619 117.38447428 -42.58677479 115.56552462 -54 107 C-55.546875 105.8553125 -55.546875 105.8553125 -57.125 104.6875 C-60.93046576 101.13021679 -63.96299308 97.22044154 -67 93 C-67.69996094 92.0409375 -67.69996094 92.0409375 -68.4140625 91.0625 C-77.77435322 77.28047685 -79.08057273 58.64340998 -76.3515625 42.5546875 C-72.85922478 25.71492205 -62.84054158 12.44428603 -48.8515625 2.69140625 C-44.45334648 0.08260141 -39.8818801 -1.54038382 -35 -3 C-24.32138015 -6.55953995 -10.02587782 -4.51515057 0 0 Z M-42 31 C-48.1335855 38.89509042 -50.3853414 47.00290855 -50.3125 56.875 C-50.30686035 57.67220459 -50.3012207 58.46940918 -50.29541016 59.29077148 C-50.17760282 64.98809733 -49.69826448 69.89073874 -47 75 C-46.41412109 76.14855469 -46.41412109 76.14855469 -45.81640625 77.3203125 C-41.23355932 85.18774944 -34.46670398 88.99951563 -26 91.875 C-16.33798408 94.38832813 -8.08255419 93.0658817 1 89 C9.92437563 83.69479299 14.31013715 76.54700575 18 67 C20.60489549 56.46645386 19.13434965 46.01445839 13.609375 36.640625 C8.14142726 28.98549816 0.41324028 22.78645436 -9 21 C-21.79901661 20.09817227 -32.35052744 22.09919341 -42 31 Z " fill="#90C2CD" transform="translate(1357,165)"/>
<path d="M0 0 C42.57 0 85.14 0 129 0 C129.061875 14.4375 129.12375 28.875 129.1875 43.75 C129.22846802 50.5867041 129.22846802 50.5867041 129.27026367 57.56152344 C129.28381348 63.12939453 129.28381348 63.12939453 129.28633118 65.73638916 C129.29093637 67.55623576 129.30148444 69.37607323 129.31672668 71.19586182 C129.33866716 73.95332735 129.34171869 76.71023377 129.34057617 79.46777344 C129.3513705 80.2777969 129.36216482 81.08782036 129.37328625 81.92238998 C129.35590987 85.0524767 129.20932673 87.55344329 127.87075806 90.40901184 C121.96183438 95.4342622 111.64549917 95.4593798 104.19279385 95.20774364 C81.16100303 93.11589849 62.83743263 67.560822 47.94929302 51.52677286 C42.77514226 45.96227174 37.49362039 40.50449029 32.20373023 35.0502826 C24.00033098 26.58649478 15.85514885 18.07036648 7.7980957 9.46704102 C7.00216507 8.61971909 6.20623444 7.77239716 5.38618469 6.8993988 C4.67107727 6.13233612 3.95596985 5.36527344 3.2191925 4.57496643 C2.59358586 3.90482293 1.96797922 3.23467943 1.3234148 2.54422855 C0 1 0 1 0 0 Z " fill="#0280F2" transform="translate(340,307)"/>
<path d="M0 0 C4.43715855 -0.14483042 8.87371277 -0.23391752 13.3125 -0.3125 C14.57513672 -0.35439453 15.83777344 -0.39628906 17.13867188 -0.43945312 C18.34716797 -0.45556641 19.55566406 -0.47167969 20.80078125 -0.48828125 C21.91622314 -0.51446533 23.03166504 -0.54064941 24.1809082 -0.56762695 C27 0 27 0 28.74072266 2.17431641 C30.00043809 5.00098302 31.22628885 7.8144508 32.34765625 10.69921875 C32.78319824 11.81345215 33.21874023 12.92768555 33.66748047 14.07568359 C34.35801514 15.86353271 34.35801514 15.86353271 35.0625 17.6875 C35.54801622 18.93583555 36.033861 20.18404336 36.52001953 21.43212891 C37.77279462 24.65222717 39.01956772 27.87461375 40.2645874 31.09771729 C41.42985455 34.11189947 42.60030054 37.12407227 43.76953125 40.13671875 C55.47557518 70.36796625 55.47557518 70.36796625 57 77 C57.66 77 58.32 77 59 77 C59.4125 75.86272461 59.825 74.72544922 60.25 73.55371094 C61.81980278 69.22845963 63.3939479 64.90479833 64.96923828 60.58154297 C65.64322731 58.73006862 66.31612453 56.87819637 66.98779297 55.02587891 C71.47078581 42.66572323 76.15815077 30.41087867 81.10084534 18.22721863 C82.56644552 14.59690656 84.00257687 10.95502372 85.4375 7.3125 C87.87765957 1.12234043 87.87765957 1.12234043 89 0 C91.07262076 -0.08767112 93.14820294 -0.10695873 95.22265625 -0.09765625 C96.48271484 -0.09443359 97.74277344 -0.09121094 99.04101562 -0.08789062 C100.38151109 -0.07953403 101.72200588 -0.07106907 103.0625 -0.0625 C104.40689942 -0.0574866 105.7513006 -0.05292342 107.09570312 -0.04882812 C110.39717941 -0.03699488 113.69856803 -0.02050971 117 0 C114.88615118 7.70996283 112.07458024 15.00250874 109 22.375 C108.00502942 24.78845248 107.01158438 27.20253434 106.01953125 29.6171875 C105.76685989 30.23160706 105.51418854 30.84602661 105.25386047 31.47906494 C102.66316974 37.79269838 100.16988501 44.14318697 97.6875 50.5 C92.01186516 65.01149613 86.24418287 79.48518796 80.43113708 93.94213867 C78.73897041 98.1520551 77.06030559 102.36703591 75.390625 106.5859375 C60.17760325 144.80681925 60.17760325 144.80681925 43 153 C35.15352445 156.2873162 27.41499751 156.4059689 19.0559082 156.28125 C16.91014534 156.24959647 14.76511575 156.24021903 12.61914062 156.234375 C2.1642175 156.1642175 2.1642175 156.1642175 1 155 C0.90119203 153.52347336 0.86920755 152.04232764 0.8671875 150.5625 C0.86589844 149.66789063 0.86460938 148.77328125 0.86328125 147.8515625 C0.86908203 146.44003906 0.86908203 146.44003906 0.875 145 C0.87113281 144.05898438 0.86726563 143.11796875 0.86328125 142.1484375 C0.86457031 141.25382813 0.86585937 140.35921875 0.8671875 139.4375 C0.86831543 138.61121094 0.86944336 137.78492188 0.87060547 136.93359375 C1 135 1 135 2 134 C3.67454547 133.89073328 5.35326174 133.84414701 7.03125 133.82421875 C8.07023437 133.80037109 9.10921875 133.77652344 10.1796875 133.75195312 C12.36179181 133.70959463 14.54413706 133.67801934 16.7265625 133.65820312 C23.42511439 133.48127577 29.39697499 132.96774621 35 129 C36.95305845 126.79088958 37.79525268 124.95267559 39.0625 122.1875 C39.63097656 121.00542969 40.19945312 119.82335937 40.78515625 118.60546875 C42.99929335 112.03425155 41.9975402 106.95479042 39.359375 100.71484375 C38.94227013 99.68690453 38.94227013 99.68690453 38.51673889 98.63819885 C37.60564024 96.3998886 36.67787857 94.16889988 35.75 91.9375 C35.1077205 90.36769737 34.46670487 88.79737709 33.8269043 87.2265625 C32.52112603 84.02372866 31.20971245 80.82329444 29.89404297 77.62451172 C27.14833954 70.93700662 24.48391917 64.2174219 21.8125 57.5 C17.50707284 46.71671533 13.14906253 35.95597672 8.73950195 25.21484375 C6.51961471 19.79368146 4.32918436 14.36117728 2.18359375 8.91015625 C1.55602173 7.32086304 1.55602173 7.32086304 0.91577148 5.69946289 C0 3 0 3 0 0 Z " fill="#90C2CD" transform="translate(1432,164)"/>
<path d="M0 0 C3.67306035 3.43534746 6.28368087 6.77355563 8.78515625 11.12890625 C9.12337402 11.71196533 9.4615918 12.29502441 9.81005859 12.89575195 C10.90153184 14.7805472 11.98216882 16.6713002 13.0625 18.5625 C14.57013558 21.17869236 16.08218605 23.79232598 17.59375 26.40625 C17.96742203 27.05437149 18.34109406 27.70249298 18.72608948 28.37025452 C21.02672227 32.35216125 23.37720143 36.2979841 25.78125 40.21875 C26.34062256 41.13197021 26.89999512 42.04519043 27.47631836 42.98608398 C28.50947607 44.66422979 29.54904682 46.3384496 30.59594727 48.00805664 C31.05026123 48.74918701 31.5045752 49.49031738 31.97265625 50.25390625 C32.56445679 51.20245483 32.56445679 51.20245483 33.16821289 52.17016602 C34 54 34 54 34 58 C31.54418945 59.88769531 31.54418945 59.88769531 28.11328125 61.828125 C27.5004277 62.18082458 26.88757416 62.53352417 26.25614929 62.89691162 C24.28267338 64.02885607 22.2982989 65.13984224 20.3125 66.25 C18.37584293 67.3501907 16.44167871 68.45464682 14.50810242 69.5602417 C12.07463195 70.9477504 9.63710829 72.32542277 7.17170715 73.65551758 C4.88388369 74.99096198 4.88388369 74.99096198 2.67436218 77.02612305 C-8.46223491 85.78673027 -22.0890287 84.03182889 -35.56890321 83.8111515 C-39.17754201 83.76068506 -42.78625012 83.75640629 -46.39518738 83.74694824 C-53.2092865 83.72221506 -60.02234241 83.65674947 -66.83598489 83.57615232 C-74.60140757 83.48631707 -82.36688362 83.44264361 -90.1326977 83.40258884 C-106.08906649 83.31926774 -122.04439802 83.17881726 -138 83 C-134.50691559 80.16015452 -131.05445535 77.73970289 -127.15234375 75.48828125 C-126.59229141 75.16309006 -126.03223907 74.83789886 -125.45521545 74.50285339 C-124.24851271 73.802357 -123.04083449 73.10353877 -121.83227539 72.40625 C-118.55824492 70.51633163 -115.29255382 68.61213729 -112.02734375 66.70703125 C-111.35609467 66.31552887 -110.68484558 65.92402649 -109.99325562 65.5206604 C-103.27890272 61.59514286 -96.63574929 57.55649154 -90 53.5 C-79.89037263 47.3251433 -69.71330969 41.27791182 -59.48214722 35.3067627 C-49.95170203 29.74405104 -40.46918269 24.10725208 -31.01513672 18.4152832 C-20.71298366 12.21542441 -10.36165432 6.09976732 0 0 Z " fill="#24252A" transform="translate(368,31)"/>
<path d="M0 0 C1.1653125 -0.00128906 2.330625 -0.00257812 3.53125 -0.00390625 C4.7584375 -0.00003906 5.985625 0.00382812 7.25 0.0078125 C9.09078125 0.00201172 9.09078125 0.00201172 10.96875 -0.00390625 C12.71671875 -0.00197266 12.71671875 -0.00197266 14.5 0 C15.57765625 0.00112793 16.6553125 0.00225586 17.765625 0.00341797 C20.25 0.1328125 20.25 0.1328125 21.25 1.1328125 C21.34887812 3.10478788 21.37632256 5.0803569 21.37698364 7.05480957 C21.37980347 8.34210464 21.38262329 9.62939972 21.38552856 10.95570374 C21.38358396 12.3955995 21.38153578 13.83549514 21.37939453 15.27539062 C21.38074851 16.78128604 21.38252843 18.28718111 21.38470459 19.79307556 C21.38927928 23.89420057 21.38748922 27.99530054 21.3843255 32.09642601 C21.38180209 36.37877853 21.38413939 40.66112884 21.38571167 44.94348145 C21.38753342 52.13631578 21.38512692 59.32913987 21.38037109 66.52197266 C21.37492846 74.84997584 21.37669112 83.17795454 21.3821975 91.50595713 C21.38672848 98.64309096 21.38737925 105.7802174 21.38475883 112.9173522 C21.38319597 117.18579605 21.38300253 121.45422838 21.38629532 125.72267151 C21.38917381 129.73465184 21.38719875 133.74660046 21.38140106 137.75857735 C21.38007334 139.23526011 21.38046778 140.71194552 21.38266373 142.18862724 C21.38537474 144.19602237 21.38138084 146.20342329 21.37698364 148.21081543 C21.37660662 149.33686943 21.37622959 150.46292343 21.37584114 151.62310028 C21.25 154.1328125 21.25 154.1328125 20.25 155.1328125 C18.33541718 155.23253036 16.41717683 155.26361839 14.5 155.265625 C13.3346875 155.26691406 12.169375 155.26820313 10.96875 155.26953125 C9.7415625 155.26566406 8.514375 155.26179687 7.25 155.2578125 C6.0228125 155.26167969 4.795625 155.26554688 3.53125 155.26953125 C2.3659375 155.26824219 1.200625 155.26695312 0 155.265625 C-1.07765625 155.26449707 -2.1553125 155.26336914 -3.265625 155.26220703 C-5.75 155.1328125 -5.75 155.1328125 -6.75 154.1328125 C-6.84887812 152.16083712 -6.87632256 150.1852681 -6.87698364 148.21081543 C-6.87980347 146.92352036 -6.88262329 145.63622528 -6.88552856 144.30992126 C-6.88358396 142.8700255 -6.88153578 141.43012986 -6.87939453 139.99023438 C-6.88074851 138.48433896 -6.88252843 136.97844389 -6.88470459 135.47254944 C-6.88927928 131.37142443 -6.88748922 127.27032446 -6.8843255 123.16919899 C-6.88180209 118.88684647 -6.88413939 114.60449616 -6.88571167 110.32214355 C-6.88753342 103.12930922 -6.88512692 95.93648513 -6.88037109 88.74365234 C-6.87492846 80.41564916 -6.87669112 72.08767046 -6.8821975 63.75966787 C-6.88672848 56.62253404 -6.88737925 49.4854076 -6.88475883 42.3482728 C-6.88319597 38.07982895 -6.88300253 33.81139662 -6.88629532 29.54295349 C-6.88917381 25.53097316 -6.88719875 21.51902454 -6.88140106 17.50704765 C-6.88007334 16.03036489 -6.88046778 14.55367948 -6.88266373 13.07699776 C-6.88537474 11.06960263 -6.88138084 9.06220171 -6.87698364 7.05480957 C-6.87660662 5.92875557 -6.87622959 4.80270157 -6.87584114 3.64252472 C-6.64056812 -1.0496418 -4.11965517 0.00431184 0 0 Z " fill="#155BCD" transform="translate(1073.75,124.8671875)"/>
<path d="M0 0 C4.50334071 3.23992499 7.52260466 7.39203273 9.26953125 12.6328125 C9.95228512 19.76271361 10.25230069 26.01281266 5.8203125 31.91796875 C1.22288377 37.00177533 -2.71554451 40.58057386 -9.73046875 41.6328125 C-16.69116138 41.89727651 -22.16605085 40.79494434 -27.78125 36.55078125 C-32.98082097 31.43457014 -35.0015123 25.72135956 -35.29296875 18.5078125 C-34.97126741 12.07378573 -33.63279253 7.34730322 -28.859375 2.8828125 C-19.64293285 -4.36490004 -10.5089539 -5.79233679 0 0 Z " fill="#218AFE" transform="translate(374.73046875,238.3671875)"/>
<path d="M0 0 C3.98030541 3.67645404 6.41905414 8.32994523 9.1875 12.9375 C10.02571289 14.2977832 10.02571289 14.2977832 10.88085938 15.68554688 C11.40873047 16.56146484 11.93660156 17.43738281 12.48046875 18.33984375 C12.96410889 19.13769287 13.44774902 19.93554199 13.94604492 20.75756836 C15 23 15 23 15 27 C-3.81 27 -22.62 27 -42 27 C-38.63958524 24.31166819 -35.79577401 22.16391771 -32.15625 20.046875 C-31.24520508 19.51344482 -30.33416016 18.98001465 -29.39550781 18.43041992 C-28.43999023 17.87588135 -27.48447266 17.32134277 -26.5 16.75 C-19.01358262 12.37511714 -11.58608779 7.94012118 -4.265625 3.29296875 C-2 2 -2 2 0 2 C0 1.34 0 0.68 0 0 Z " fill="#4677DB" transform="translate(402,87)"/>
<path d="M0 0 C0.99 0.33 1.98 0.66 3 1 C4.68720226 1.10146875 6.37807473 1.14625533 8.06828308 1.15821838 C9.11576218 1.1680072 10.16324127 1.17779602 11.24246216 1.18788147 C12.39116791 1.19363693 13.53987366 1.1993924 14.72338867 1.20532227 C16.53820992 1.22017166 16.53820992 1.22017166 18.38969421 1.23532104 C21.70758731 1.26151452 25.02545627 1.2833742 28.34338927 1.30332303 C31.81076506 1.32518984 35.27809712 1.35257513 38.74543762 1.37937927 C45.31143412 1.42929676 51.87745491 1.47423909 58.44349891 1.51740164 C65.91866669 1.56678208 73.39379058 1.62169722 80.86891592 1.67708123 C96.24590339 1.79088678 111.62293122 1.89772892 127 2 C127 2.33 127 2.66 127 3 C84.1 3 41.2 3 -3 3 C-2.01 2.01 -1.02 1.02 0 0 Z " fill="#212F3E" transform="translate(233,111)"/>
<path d="M0 0 C0.66 0.33 1.32 0.66 2 1 C-0.97 3.97 -3.94 6.94 -7 10 C-7 7 -7 7 -4.625 4.4375 C-3.75875 3.633125 -2.8925 2.82875 -2 2 C-1.34 1.34 -0.68 0.68 0 0 Z " fill="#B7D6EF" transform="translate(324,209)"/>
</svg>
