<?xml version="1.0" encoding="UTF-8"?>
<svg version="1.1" xmlns="http://www.w3.org/2000/svg" width="1640" height="400">
<path d="M0 0 C6.51200949 2.58233495 10.63759768 12.96961463 14.00952148 18.734375 C16.84054843 23.55228154 19.66450595 28.34426786 22.81030273 32.96484375 C27.2331995 39.51725678 31.17934096 46.36711662 35.19702148 53.171875 C36.04970035 54.61212233 36.90248435 56.05230741 37.75537109 57.49243164 C43.08036704 66.49197057 48.35967459 75.51672085 53.57202148 84.58203125 C55.29984448 87.58250563 57.05302993 90.56657987 58.82202148 93.54296875 C59.28342529 94.320354 59.7448291 95.09773926 60.22021484 95.89868164 C61.09036852 97.36192904 61.96335625 98.82349674 62.83984375 100.28295898 C63.22712646 100.93466064 63.61440918 101.5863623 64.01342773 102.2578125 C64.35188721 102.82290527 64.69034668 103.38799805 65.0390625 103.97021484 C66.21424387 106.18221661 67.11209074 108.46030079 68.00952148 110.796875 C68.58945862 110.80052063 69.16939575 110.80416626 69.76690674 110.80792236 C75.80179958 110.84972568 81.83593034 110.91905559 87.87036133 111.00439453 C90.12256245 111.03262411 92.37486301 111.0538287 94.62719727 111.06787109 C97.86453231 111.0892726 101.10066922 111.13590995 104.33764648 111.1875 C105.34506897 111.18872864 106.35249146 111.18995728 107.39044189 111.19122314 C108.33111511 111.21094177 109.27178833 111.2306604 110.2409668 111.25097656 C111.0670343 111.25985901 111.89310181 111.26874146 112.74420166 111.27789307 C116.01175579 112.02648562 117.09418252 113.03968652 119.00952148 115.796875 C119.41228215 118.76284756 119.57387824 121.36246776 119.55541992 124.32910156 C119.5657576 125.18799988 119.57609528 126.04689819 119.58674622 126.93182373 C119.61621457 129.76723961 119.61767423 132.60194291 119.61889648 135.4375 C119.63387541 137.4047787 119.65060195 139.3720448 119.66900635 141.33929443 C119.7127243 146.51453219 119.73268885 151.68960029 119.7477417 156.86499023 C119.76729672 162.14707489 119.80926854 167.4289759 119.84936523 172.7109375 C119.92471554 183.07286009 119.97497786 193.43474166 120.00952148 203.796875 C121.98952148 204.126875 123.96952148 204.456875 126.00952148 204.796875 C126.33952148 205.786875 126.66952148 206.776875 127.00952148 207.796875 C127.83452148 208.621875 128.65952148 209.446875 129.50952148 210.296875 C133.49109741 214.27845093 133.16240473 217.9961136 133.1706543 223.31005859 C133.1756192 224.07299728 133.18058411 224.83593597 133.18569946 225.62199402 C133.20030695 228.14644268 133.2071205 230.67082851 133.21264648 233.1953125 C133.21839883 234.95024619 133.22415655 236.70517987 133.22991943 238.46011353 C133.24042521 242.14040418 133.24627074 245.82067302 133.24975586 249.50097656 C133.2552416 254.21434139 133.27927303 258.92741749 133.30772781 263.64069176 C133.32636037 267.26611166 133.33156011 270.89146207 133.33309174 274.51692581 C133.33611709 276.25444748 133.34414167 277.99196795 133.35727692 279.7294426 C133.37435154 282.1614855 133.372454 284.59282365 133.3659668 287.02490234 C133.37518158 287.74092117 133.38439636 288.45694 133.39389038 289.19465637 C133.34395521 295.1775308 131.44731913 298.13205667 127.63452148 302.546875 C124.8577201 304.92699047 123.51460044 305.25763208 120.00952148 305.796875 C120.00365524 306.89046326 119.997789 307.98405151 119.991745 309.11077881 C119.93456088 319.41097919 119.86182187 329.71096756 119.77380657 340.010952 C119.72905685 345.30643954 119.68981084 350.60184932 119.66308594 355.89746094 C119.63709893 361.00691808 119.59672913 366.11607674 119.54633522 371.22534943 C119.52963534 373.17576641 119.51814054 375.12623505 119.51190758 377.07671356 C119.50230042 379.80634439 119.47428198 382.53520617 119.44189453 385.26464844 C119.44332962 386.07313232 119.44476471 386.88161621 119.44624329 387.71459961 C119.39478945 390.77579307 119.2888836 393.25279657 117.87610912 396.00427961 C115.20733695 398.56726063 113.40882895 398.2981627 109.74539185 398.30023956 C109.10462385 398.30605333 108.46385585 398.31186709 107.80367064 398.31785703 C105.64160548 398.33253584 103.4806617 398.31853668 101.31860352 398.30480957 C99.75897195 398.30941542 98.19934473 398.3157662 96.63972664 398.32371855 C92.34238434 398.34047867 88.04539552 398.3321354 83.74805164 398.31977367 C79.11812203 398.31075269 74.48825477 398.32467819 69.8583374 398.33569336 C60.78376692 398.35351484 51.70932849 398.34962248 42.63475275 398.3380428 C35.26212635 398.32902298 27.88953706 398.32777817 20.51690674 398.33213806 C19.46909283 398.33275099 18.42127892 398.33336393 17.34171307 398.33399543 C15.21334885 398.33527428 13.08498465 398.33657114 10.95662045 398.3378858 C-9.01865252 398.34930222 -28.99385216 398.33616124 -48.96911311 398.31468433 C-66.12275603 398.29681239 -83.27629068 398.2999162 -100.42993164 398.31835938 C-120.3318949 398.33974734 -140.23379383 398.34820349 -160.13576698 398.33591032 C-162.2564659 398.33463607 -164.37716483 398.33337859 -166.49786377 398.33213806 C-168.06315364 398.33121241 -168.06315364 398.33121241 -169.66006553 398.33026806 C-177.02703444 398.32680892 -184.39396268 398.3326556 -191.76092529 398.34205627 C-200.73423393 398.35325463 -209.70740254 398.35028193 -218.68069506 398.3289333 C-223.26231884 398.31839363 -227.84370886 398.31435043 -232.42533112 398.32752991 C-236.61489017 398.33939964 -240.80399752 398.33298166 -244.99351525 398.3116197 C-246.51365276 398.30713048 -248.03382799 398.3094715 -249.55394149 398.31912285 C-251.61196211 398.33119281 -253.66841196 398.31891147 -255.72634888 398.30023956 C-256.87185778 398.29959015 -258.01736668 398.29894074 -259.19758797 398.29827166 C-261.99047852 397.796875 -261.99047852 397.796875 -263.8583914 396.06700474 C-265.14769264 393.48161971 -265.3663347 391.8514586 -265.36800194 388.97143459 C-265.37582518 387.99693653 -265.38364842 387.02243846 -265.39170873 386.01841015 C-265.38501657 384.95042424 -265.3783244 383.88243834 -265.37142944 382.78208923 C-265.37610942 381.64556068 -265.38078939 380.50903212 -265.38561118 379.3380633 C-265.39761283 375.51554134 -265.3880835 371.69337447 -265.37866211 367.87084961 C-265.38107462 365.13623817 -265.38795717 362.40164198 -265.39459229 359.66703796 C-265.40794406 353.00230334 -265.40504561 346.33766998 -265.39635436 339.67293137 C-265.38958446 334.25780701 -265.38865808 328.84271107 -265.39192581 323.42758369 C-265.39238551 322.6574414 -265.39284521 321.8872991 -265.39331884 321.09381916 C-265.39427799 319.52939648 -265.39525063 317.96497381 -265.39623661 316.40055115 C-265.40479459 301.72546925 -265.3949497 287.05044355 -265.37883551 272.37537087 C-265.36542929 259.7761794 -265.36776213 247.17707084 -265.3815918 234.57788086 C-265.39763583 219.95444691 -265.40397339 205.3310622 -265.39475501 190.70762068 C-265.39379933 189.14919731 -265.39285622 187.59077393 -265.39192581 186.03235054 C-265.39123157 184.88211969 -265.39123157 184.88211969 -265.39052331 183.70865185 C-265.38793008 178.29784613 -265.39231151 172.88707157 -265.39936447 167.47627068 C-265.40776651 160.88551539 -265.40552666 154.29486734 -265.38952224 147.70412438 C-265.38162224 144.33965537 -265.38018403 140.97551399 -265.3884697 137.61102295 C-265.39661519 133.96872668 -265.38644809 130.32694051 -265.37142944 126.68467712 C-265.37812161 125.6144605 -265.38481377 124.54424388 -265.39170873 123.44159645 C-265.38388549 122.46970613 -265.37606225 121.49781581 -265.36800194 120.49647427 C-265.36751488 119.6552837 -265.36702782 118.81409314 -265.36652601 117.94741195 C-264.89633235 115.25847279 -264.18049686 114.39437231 -261.99047852 112.796875 C-254.86548915 111.50066917 -247.71225439 111.71149107 -240.49021721 111.78103638 C-236.95191133 111.80857681 -233.41362747 111.79810799 -229.87524414 111.79296875 C-225.40768121 111.78679607 -220.94138296 111.79181904 -216.47412109 111.84814453 C-192.76277375 112.26159215 -192.76277375 112.26159215 -171.99047852 101.796875 C-169.92063265 100.5041905 -167.83906052 99.22986635 -165.74047852 97.984375 C-164.70149414 97.33726563 -163.66250977 96.69015625 -162.59204102 96.0234375 C-158.13049932 93.25129197 -153.62166741 90.55810399 -149.11547852 87.859375 C-148.25083984 87.34141357 -147.38620117 86.82345215 -146.49536133 86.28979492 C-144.78585676 85.2660575 -143.07622406 84.24253403 -141.36645508 83.21923828 C-138.07296469 81.24761118 -134.78168006 79.27231937 -131.49047852 77.296875 C-130.89178955 76.93779053 -130.29310059 76.57870605 -129.67626953 76.20874023 C-126.36423443 74.22222004 -123.05355318 72.23347978 -119.74438477 70.2421875 C-112.03605154 65.6068375 -104.31909596 60.98670357 -96.58032227 56.40234375 C-95.60147064 55.82242424 -95.60147064 55.82242424 -94.60284424 55.23078918 C-93.93944031 54.83776108 -93.27603638 54.44473297 -92.5925293 54.03979492 C-80.3401062 46.78073542 -68.12040988 39.47417779 -55.95986938 32.06216431 C-46.10906739 26.05975704 -36.21069635 20.1431191 -26.27026367 14.29052734 C-21.51993598 11.49250565 -16.78021413 8.68820941 -12.10766602 5.76171875 C-11.40681885 5.32601563 -10.70597168 4.8903125 -9.98388672 4.44140625 C-8.2207789 3.3392688 -6.46646806 2.22309056 -4.71313477 1.10546875 C-1.99047852 -0.203125 -1.99047852 -0.203125 0 0 Z " fill="#1F88FE" transform="translate(348.990478515625,2.203125)"/>
<path d="M0 0 C1.16665192 -0.00137466 2.33330383 -0.00274933 3.53530884 -0.00416565 C4.81132965 -0.00057037 6.08735046 0.0030249 7.40203857 0.00672913 C8.76221718 0.00701126 10.12239594 0.00685274 11.48257446 0.00628662 C15.17231592 0.00599969 18.86202487 0.01187965 22.55175877 0.01886058 C26.40881244 0.02511139 30.26586685 0.02569929 34.1229248 0.02688599 C41.42557124 0.0299942 48.7282027 0.03820073 56.03084254 0.04823548 C64.34516441 0.05941243 72.65948698 0.06491105 80.97381449 0.06993091 C98.0758744 0.08038376 115.17791975 0.09797335 132.27996826 0.12025452 C132.27996826 0.45025452 132.27996826 0.78025452 132.27996826 1.12025452 C108.18996826 1.12025452 84.09996826 1.12025452 59.27996826 1.12025452 C59.27996826 94.84025452 59.27996826 188.56025452 59.27996826 285.12025452 C149.69996826 284.79025452 240.11996826 284.46025452 333.27996826 284.12025452 C303.57996826 254.42025452 273.87996826 224.72025452 243.27996826 194.12025452 C243.27996826 193.79025452 243.27996826 193.46025452 243.27996826 193.12025452 C285.84996826 193.12025452 328.41996826 193.12025452 372.27996826 193.12025452 C372.17684326 207.72275452 372.07371826 222.32525452 371.96746826 237.37025452 C371.94257324 241.98026428 371.91767822 246.59027405 371.89202881 251.33998108 C371.84210205 256.97132874 371.84210205 256.97132874 371.81495667 259.60798645 C371.79881182 261.44860431 371.78852023 263.28927917 371.78285217 265.12995911 C371.77312561 267.9190263 371.74480248 270.70734822 371.71234131 273.49623108 C371.71376727 274.3156229 371.71519323 275.13501472 371.71666241 275.9792366 C371.66541328 279.05851995 371.56677679 281.56107323 370.1465559 284.33003187 C367.47740817 286.88998063 365.67757208 286.62154318 362.01583862 286.62361908 C361.37507063 286.62943284 360.73430263 286.63524661 360.07411742 286.64123654 C357.91205226 286.65591535 355.75110847 286.6419162 353.58905029 286.62818909 C352.02941873 286.63279493 350.4697915 286.63914572 348.91017342 286.64709806 C344.61283112 286.66385819 340.3158423 286.65551492 336.01849842 286.64315319 C331.38856881 286.6341322 326.75870155 286.6480577 322.12878418 286.65907288 C313.0542137 286.67689435 303.97977527 286.673002 294.90519953 286.66142231 C287.53257313 286.6524025 280.15998384 286.65115768 272.78735352 286.65551758 C271.73953961 286.65613051 270.6917257 286.65674344 269.61215985 286.65737495 C267.48379563 286.6586538 265.35543143 286.65995065 263.22706723 286.66126531 C243.25179426 286.67268174 223.27659461 286.65954076 203.30133367 286.63806385 C186.14769075 286.62019191 168.9941561 286.62329572 151.84051514 286.64173889 C131.93855187 286.66312686 112.03665294 286.67158301 92.13467979 286.65928984 C90.01398088 286.65801559 87.89328195 286.65675811 85.77258301 286.65551758 C84.20729314 286.65459192 84.20729314 286.65459192 82.61038125 286.65364757 C75.24341233 286.65018844 67.8764841 286.65603512 60.50952148 286.66543579 C51.53621285 286.67663414 42.56304424 286.67366144 33.58975172 286.65231282 C29.00812793 286.64177315 24.42673792 286.63772994 19.84511566 286.65090942 C15.65555661 286.66277916 11.46644926 286.65636118 7.27693152 286.63499922 C5.75679402 286.63051 4.23661879 286.63285102 2.71650529 286.64250237 C0.65848466 286.65457232 -1.39796518 286.64229098 -3.4559021 286.62361908 C-4.601411 286.62296967 -5.7469199 286.62232026 -6.92714119 286.62165117 C-9.72003174 286.12025452 -9.72003174 286.12025452 -11.58794463 284.39038426 C-12.87724586 281.80499922 -13.09588792 280.17483811 -13.09755516 277.29481411 C-13.1053784 276.32031604 -13.11320164 275.34581797 -13.12126195 274.34178966 C-13.11456979 273.27380376 -13.10787762 272.20581786 -13.10098267 271.10546875 C-13.10566264 269.96894019 -13.11034261 268.83241163 -13.1151644 267.66144282 C-13.12716605 263.83892086 -13.11763673 260.01675398 -13.10821533 256.19422913 C-13.11062784 253.45961768 -13.11751039 250.7250215 -13.12414551 247.99041748 C-13.13749728 241.32568286 -13.13459883 234.6610495 -13.12590759 227.99631088 C-13.11913768 222.58118653 -13.11821131 217.16609058 -13.12147903 211.75096321 C-13.12193873 210.98082091 -13.12239843 210.21067862 -13.12287206 209.41719868 C-13.12383122 207.852776 -13.12480386 206.28835333 -13.12578984 204.72393066 C-13.13434781 190.04884877 -13.12450292 175.37382306 -13.10838874 160.69875038 C-13.09498251 148.09955892 -13.09731535 135.50045035 -13.11114502 122.90126038 C-13.12718906 108.27782642 -13.13352661 93.65444172 -13.12430823 79.0310002 C-13.12335256 77.47257682 -13.12240944 75.91415344 -13.12147903 74.35573006 C-13.12078479 73.20549921 -13.12078479 73.20549921 -13.12007653 72.03203137 C-13.1174833 66.62122564 -13.12186473 61.21045109 -13.12891769 55.79965019 C-13.13731973 49.20889491 -13.13507989 42.61824685 -13.11907546 36.0275039 C-13.11117546 32.66303489 -13.10973725 29.29889351 -13.11802292 25.93440247 C-13.12616841 22.2921062 -13.11600131 18.65032003 -13.10098267 15.00805664 C-13.10767483 13.93784002 -13.114367 12.86762339 -13.12126195 11.76497597 C-13.11343871 10.79308564 -13.10561547 9.82119532 -13.09755516 8.81985378 C-13.0970681 7.97866322 -13.09658105 7.13747266 -13.09607923 6.27079147 C-12.63341734 3.62492489 -11.80635507 2.75803409 -9.72003174 1.12025452 C-6.51630952 -0.07017308 -3.39235029 -0.00308395 0 0 Z " fill="#0074DE" transform="translate(96.72003173828125,113.87974548339844)"/>
<path d="M0 0 C1.15928513 -0.00563965 2.31857025 -0.0112793 3.51298523 -0.01708984 C4.77081818 -0.01304138 6.02865112 -0.00899292 7.32460022 -0.00482178 C8.67371814 -0.00753431 10.02283459 -0.01109672 11.37194824 -0.01544189 C15.02487614 -0.02453786 18.67769071 -0.02103297 22.33062053 -0.01468372 C26.16036829 -0.00960821 29.99010658 -0.01431958 33.81985474 -0.01745605 C40.25146724 -0.02109162 46.68303377 -0.01630781 53.11463928 -0.0067749 C60.54004541 0.00410424 67.96534165 0.00058637 75.3907451 -0.01042771 C81.77564555 -0.01951779 88.16051301 -0.02077732 94.54541785 -0.01555037 C98.35456585 -0.01243953 102.16366229 -0.01199682 105.97280693 -0.01862335 C109.5556468 -0.02442109 113.13834571 -0.02035572 116.72117043 -0.00883484 C118.65564915 -0.00494929 120.59013985 -0.01085351 122.52461243 -0.01708984 C137.89007395 0.05747812 137.89007395 0.05747812 144.08656311 6.25396729 C146.2615912 10.43665204 146.3772616 14.37860799 146.36122131 18.99420166 C146.36633224 19.7574324 146.37144318 20.52066315 146.37670898 21.30702209 C146.39056749 23.82066772 146.38965131 26.33403808 146.38734436 28.84771729 C146.39123285 30.59979351 146.39556783 32.3518688 146.40032959 34.10394287 C146.40778337 37.77230895 146.40750626 41.44057877 146.40223694 45.10894775 C146.39643801 49.80658757 146.4133875 54.50383367 146.43658161 59.20140839 C146.4513211 62.81826068 146.45219046 66.43501814 146.44907188 70.05189514 C146.44958481 71.78382651 146.45481719 73.51576322 146.4648838 75.24766541 C146.47723764 77.66994769 146.4704637 80.09146266 146.45887756 82.51373291 C146.4665213 83.22660965 146.47416504 83.93948639 146.48204041 84.67396545 C146.43543305 89.08841501 145.77764159 91.75145034 143.08656311 95.25396729 C142.181679 96.62663002 142.181679 96.62663002 141.2585144 98.02702332 C136.08119236 101.66188559 130.47403428 100.94141867 124.33534241 100.8850708 C122.91902267 100.89021156 121.50270932 100.89749402 120.08641052 100.90675354 C116.24514171 100.92526154 112.40456742 100.91233135 108.56332755 100.89266324 C104.53784633 100.87626052 100.51240855 100.88509233 96.48690796 100.8901825 C89.72387118 100.89470322 82.96111098 100.87883897 76.19813538 100.85089111 C68.3914997 100.818878 60.58536388 100.81883985 52.7786929 100.83610588 C45.25815833 100.85200325 37.7378061 100.84521433 30.21727943 100.82816887 C27.02246528 100.82131592 23.82779806 100.82231281 20.63298607 100.82971382 C16.86449289 100.83740858 13.09656409 100.82514767 9.32816696 100.79786491 C7.29489122 100.78775718 5.26154748 100.79713194 3.22827148 100.80718994 C-5.08058543 100.72080031 -11.11204504 100.05535914 -17.22593689 93.94146729 C-20.7729046 88.29259278 -22.28564886 83.85288597 -22.34922791 77.17633057 C-22.35930374 76.50701508 -22.36937958 75.83769958 -22.37976074 75.14810181 C-22.40803263 72.95665341 -22.41410626 70.76589868 -22.41734314 68.57427979 C-22.42699807 67.03642505 -22.43709156 65.49857301 -22.44760132 63.96072388 C-22.46551022 60.74476743 -22.47112773 57.52905207 -22.46934509 54.31304932 C-22.46904037 50.21174462 -22.51000386 46.11199986 -22.56166172 42.01106453 C-22.59517647 38.83664993 -22.60109813 35.66260663 -22.59951591 32.48803329 C-22.60303279 30.97706599 -22.61617108 29.46608665 -22.63951302 27.95529556 C-22.75118897 19.98171131 -22.62777667 13.51254639 -17.59225464 6.95510864 C-12.4983378 1.79345687 -7.23525589 0.00543923 0 0 Z " fill="#DBEAED" transform="translate(335.91343688964844,206.74603271484375)"/>
<path d="M0 0 C0.74004272 -0.0065712 1.48008545 -0.0131424 2.24255371 -0.01991272 C4.70695085 -0.03971551 7.17128645 -0.05133225 9.63574219 -0.0612793 C10.47913902 -0.06535482 11.32253586 -0.06943035 12.19149017 -0.07362938 C16.66737119 -0.09453354 21.14322128 -0.10880853 25.61914062 -0.11816406 C30.21528616 -0.12915432 34.81093754 -0.16345465 39.40690994 -0.20333576 C42.96059986 -0.2296764 46.5141761 -0.23787191 50.06795502 -0.24144554 C51.75980667 -0.24627757 53.45165442 -0.25779334 55.14340973 -0.27648354 C69.75664176 -0.42770959 82.45200286 1.20964962 93.93261719 11.17700195 C102.67785074 19.87264061 106.79710622 29.21295934 107.43261719 41.61450195 C107.04357723 52.41425126 102.25232463 60.70940764 94.92089844 68.34887695 C92.93261719 70.17700195 92.93261719 70.17700195 90.93261719 71.17700195 C90.93261719 72.16700195 90.93261719 73.15700195 90.93261719 74.17700195 C92.43401337 75.4056634 92.43401337 75.4056634 94.43261719 76.42700195 C104.71125569 82.52880856 112.42105285 90.7290607 115.45996094 102.52075195 C117.59957542 114.54503167 115.20010561 125.88796021 108.30761719 135.98950195 C99.74425457 146.86814409 89.40414533 152.53758973 75.93261719 155.17700195 C73.09060176 155.43233794 70.27317954 155.44141224 67.42114258 155.41992188 C66.6120343 155.42182022 65.80292603 155.42371857 64.96929932 155.42567444 C62.32285551 155.42934825 59.67669238 155.41873206 57.03027344 155.4074707 C55.18322278 155.40627752 53.33617151 155.40582603 51.48912048 155.40608215 C47.63357706 155.4045235 43.7781273 155.3962769 39.92260742 155.3828125 C34.97031955 155.36573988 30.0181336 155.36200086 25.06581974 155.36275768 C21.25956746 155.36248656 17.45333765 155.35701597 13.64709282 155.34975624 C11.81975919 155.34656684 9.99242301 155.34460153 8.16508675 155.34386253 C5.62278975 155.34170656 3.08060348 155.33298106 0.53833008 155.32226562 C-0.60159142 155.3229454 -0.60159142 155.3229454 -1.76454163 155.32363892 C-6.95290023 155.29148453 -6.95290023 155.29148453 -8.06738281 154.17700195 C-8.16626093 152.20502657 -8.19370537 150.22945756 -8.19436646 148.25500488 C-8.19718628 146.96770981 -8.2000061 145.68041473 -8.20291138 144.35411072 C-8.20096678 142.91421495 -8.19891859 141.47431932 -8.19677734 140.03442383 C-8.19813133 138.52852842 -8.19991124 137.02263334 -8.2020874 135.51673889 C-8.2066621 131.41561388 -8.20487203 127.31451391 -8.20170832 123.21338844 C-8.1991849 118.93103592 -8.2015222 114.64868561 -8.20309448 110.36633301 C-8.20491623 103.17349867 -8.20250973 95.98067458 -8.19775391 88.7878418 C-8.19231128 80.45983862 -8.19407393 72.13185991 -8.19958031 63.80385733 C-8.20411129 56.6667235 -8.20476207 49.52959706 -8.20214164 42.39246225 C-8.20057878 38.1240184 -8.20038534 33.85558607 -8.20367813 29.58714294 C-8.20655662 25.57516262 -8.20458156 21.56321399 -8.19878387 17.55123711 C-8.19745616 16.07455434 -8.19785059 14.59786894 -8.20004654 13.12118721 C-8.20275755 11.11379209 -8.19876365 9.10639116 -8.19436646 7.09899902 C-8.19398943 5.97294502 -8.1936124 4.84689102 -8.19322395 3.68671417 C-7.94003453 -1.36276793 -4.08273282 0.01556426 0 0 Z M20.93261719 25.17700195 C20.75995713 28.04780888 20.64858131 30.89687937 20.58105469 33.77075195 C20.55790192 34.63261108 20.53474915 35.49447021 20.51089478 36.38244629 C20.46318926 38.20827202 20.41796338 40.03416395 20.375 41.86010742 C20.30789939 44.6652046 20.23016726 47.46986811 20.15136719 50.2746582 C20.10645452 52.04417328 20.06216273 53.81370425 20.01855469 55.58325195 C19.99465668 56.42803101 19.97075867 57.27281006 19.94613647 58.14318848 C19.90251056 60.15399149 19.91205689 62.16583084 19.93261719 64.17700195 C22.9214967 67.16588147 34.15763389 65.50102152 38.40307617 65.52709961 C40.36511167 65.54356695 42.32708951 65.57073316 44.28881836 65.60913086 C59.50405773 66.37134369 59.50405773 66.37134369 72.93261719 60.17700195 C78.17618344 54.49289018 78.40761417 48.18170975 78.33105469 40.77075195 C77.74369027 35.47295528 76.00981952 31.65098183 71.93261719 28.17700195 C65.65064603 24.61392712 60.26736154 23.60352333 53.12011719 23.7512207 C52.22518555 23.75450882 51.33025391 23.75779694 50.40820312 23.76118469 C48.53589489 23.77152978 46.66361668 23.79134896 44.79150391 23.8203125 C41.91258299 23.86481162 39.03449746 23.8818204 36.15527344 23.89379883 C34.33104251 23.907207 32.50682191 23.92212554 30.68261719 23.9387207 C29.81918701 23.94610764 28.95575684 23.95349457 28.06616211 23.96110535 C24.18584116 23.64712839 24.18584116 23.64712839 20.93261719 25.17700195 Z M20.93261719 86.17700195 C20.90734594 92.4249587 20.88978375 98.67290237 20.87768555 104.92089844 C20.8726442 107.04818209 20.86581128 109.17546227 20.85717773 111.30273438 C20.8451034 114.35328021 20.83938705 117.40378041 20.83496094 120.4543457 C20.82979965 121.41163071 20.82463837 122.36891571 20.81932068 123.35520935 C20.81924515 124.23604691 20.81916962 125.11688446 20.8190918 126.02441406 C20.81687119 126.80384872 20.81465057 127.58328339 20.81236267 128.38633728 C20.73690332 130.2006673 20.73690332 130.2006673 21.93261719 131.17700195 C23.32172438 131.2906218 24.71647093 131.33652276 26.11010742 131.35400391 C26.99870956 131.36683914 27.88731171 131.37967438 28.80284119 131.39289856 C29.7725032 131.40028549 30.74216522 131.40767242 31.74121094 131.4152832 C33.23504051 131.42739082 33.23504051 131.42739082 34.75904846 131.43974304 C36.87670134 131.45361027 38.99437681 131.46432054 41.11206055 131.47216797 C44.32547811 131.48926446 47.53783556 131.53311263 50.75097656 131.57739258 C52.8102138 131.58752949 54.86945979 131.59604246 56.92871094 131.6027832 C58.35587685 131.62904533 58.35587685 131.62904533 59.81187439 131.65583801 C67.71740539 131.63061568 74.45581356 129.82239602 80.80761719 124.98950195 C85.04943346 119.37533336 87.69055835 113.64898205 87.31542969 106.5090332 C86.33474197 100.53484375 84.33739315 95.71245475 80.24511719 91.23950195 C72.67802796 86.52791809 65.55069699 85.7455667 56.77246094 85.8840332 C55.74198135 85.88827805 54.71150177 85.89252289 53.64979553 85.89689636 C50.38962604 85.9135598 47.1300968 85.95118894 43.87011719 85.98950195 C41.64681888 86.00456473 39.4235108 86.01825033 37.20019531 86.03051758 C31.77745438 86.06342272 26.35508155 86.11349739 20.93261719 86.17700195 Z " fill="#FDFDFE" transform="translate(917.0673828125,124.822998046875)"/>
<path d="M0 0 C1.051875 0.36222656 2.10375 0.72445312 3.1875 1.09765625 C18.19309065 6.74389253 33.57290801 19.56621745 41 34 C44.08966567 40.83778468 46.70962659 47.45029126 47 55 C46 56 46 56 43.40795898 56.11352539 C42.28204346 56.10828857 41.15612793 56.10305176 39.99609375 56.09765625 C38.78115234 56.09443359 37.56621094 56.09121094 36.31445312 56.08789062 C35.03505859 56.07951172 33.75566406 56.07113281 32.4375 56.0625 C31.15423828 56.05798828 29.87097656 56.05347656 28.54882812 56.04882812 C25.36583978 56.03699545 22.18294238 56.02051068 19 56 C18.25556641 54.40671875 18.25556641 54.40671875 17.49609375 52.78125 C11.00583074 39.15121417 5.29959072 31.29862925 -9 25 C-24.06663114 19.97778962 -39.35608197 21.42526309 -53.5 28.375 C-60.86958889 32.14588777 -66.21632164 36.52858288 -70.625 43.5625 C-71.01107422 44.1723877 -71.39714844 44.78227539 -71.79492188 45.41064453 C-80.12895476 59.04718816 -81.85975994 74.70670126 -78.69140625 90.23828125 C-76.69311995 98.22013668 -73.78793325 105.29985811 -69 112 C-68.29875 113.010625 -67.5975 114.02125 -66.875 115.0625 C-58.04957944 125.1841542 -43.89514807 129.43017382 -31.02734375 130.8671875 C-17.69737517 131.61992327 -4.00846324 127.44329127 6.3984375 119.0703125 C12.54867903 112.82581439 15.56934925 104.93337985 19 97 C28.24 97 37.48 97 47 97 C44.96428723 115.32141496 35.65644055 129.08517029 22 141 C5.16721161 154.30333276 -15.91593698 159.06118729 -37.06152344 156.77734375 C-56.99651697 154.08777693 -71.73869278 145.75630342 -86 132 C-86.68320312 131.37996094 -87.36640625 130.75992188 -88.0703125 130.12109375 C-101.83820403 117.31016329 -108.73290133 97.55175944 -109.40283203 79.11352539 C-109.71601968 57.19700641 -102.41574779 37.36032165 -87.34375 21.375 C-86.23544359 20.24381571 -85.12113767 19.1184683 -84 18 C-83.51015625 17.50886719 -83.0203125 17.01773438 -82.515625 16.51171875 C-61.4174905 -4.06475857 -27.34817565 -10.02547305 0 0 Z " fill="#FEFEFE" transform="translate(655,126)"/>
<path d="M0 0 C4.29161047 -0.05783842 8.58312145 -0.0935412 12.875 -0.125 C14.09832031 -0.14175781 15.32164062 -0.15851563 16.58203125 -0.17578125 C17.74863281 -0.18222656 18.91523437 -0.18867187 20.1171875 -0.1953125 C21.19597168 -0.20578613 22.27475586 -0.21625977 23.38623047 -0.22705078 C26 0 26 0 28 2 C28.25053978 3.79272366 28.25053978 3.79272366 28.2515564 6.00083923 C28.25693924 6.83752136 28.26232208 7.67420349 28.26786804 8.53623962 C28.26168205 9.91616844 28.26168205 9.91616844 28.25537109 11.32397461 C28.25899155 12.29170807 28.262612 13.25944153 28.26634216 14.25650024 C28.27324988 16.36433403 28.27573904 18.47218576 28.27439499 20.58003044 C28.2734316 23.92282593 28.28635292 27.26529816 28.30337524 30.60804749 C28.34968428 40.11473012 28.37422643 49.62138239 28.38085938 59.12817383 C28.38589275 64.94021277 28.41024426 70.75191876 28.44618607 76.56384468 C28.45595026 78.77364662 28.45833459 80.98349459 28.45301437 83.19331169 C28.13717028 99.08592084 28.13717028 99.08592084 33 114 C33.36797699 114.76154892 33.73595398 115.52309784 34.11508179 116.307724 C37.83451297 123.69112028 45.45637882 127.35513282 53 130 C65.53552291 132.63464136 77.85675522 131.72217572 88.70703125 124.7578125 C97.55168633 117.97741253 100.90919459 107.44482694 102.58953857 96.81555176 C103.49420516 88.40598646 103.36542017 79.93394181 103.4140625 71.484375 C103.43280273 69.41643526 103.4523782 67.34850294 103.4727478 65.28057861 C103.52377359 59.87534994 103.56355631 54.47009656 103.60089111 49.0647583 C103.64111742 43.53399695 103.69212419 38.00333576 103.7421875 32.47265625 C103.83859631 21.64850135 103.92211364 10.82430405 104 0 C112.91 0 121.82 0 131 0 C131.06793476 13.61342915 131.12290783 27.22674462 131.15543652 40.84030533 C131.17105323 47.16248147 131.19221843 53.48453502 131.22631836 59.80664062 C131.25905433 65.91449936 131.27688302 72.02224062 131.28463173 78.13018036 C131.29014973 80.45362953 131.3009247 82.7770727 131.31719017 85.1004715 C131.47420515 108.47072784 131.47420515 108.47072784 128 118 C127.39671875 119.670625 127.39671875 119.670625 126.78125 121.375 C119.60673682 136.07400262 106.35255416 148.94051647 90.875 154.625 C73.64763501 159.950351 51.53242533 160.52713177 35.0546875 152.1328125 C34.37664063 151.75898438 33.69859375 151.38515625 33 151 C32.23945312 150.62617188 31.47890625 150.25234375 30.6953125 149.8671875 C16.63564484 142.36570348 6.07138515 129.49430327 1.43286133 114.3137207 C-1.10621976 103.90654633 -0.36673216 93.06060501 -0.29296875 82.421875 C-0.2873655 80.04006214 -0.28309885 77.65824579 -0.28010559 75.27642822 C-0.26871427 69.04248312 -0.23929665 62.80875155 -0.20599365 56.57489014 C-0.17516907 50.19969571 -0.16157388 43.8244664 -0.14648438 37.44921875 C-0.11442115 24.96605262 -0.06329455 12.48304414 0 0 Z " fill="#FDFDFE" transform="translate(735,125)"/>
<path d="M0 0 C9.70185591 -0.09311451 19.40355549 -0.16397361 29.10576248 -0.20724869 C33.61201125 -0.22802968 38.11795192 -0.25617142 42.62402344 -0.30175781 C46.98125949 -0.34555732 51.33820117 -0.36920825 55.69564056 -0.37950897 C57.34925717 -0.38683968 59.0028596 -0.40115303 60.65634918 -0.42292023 C78.07831895 -0.64292778 91.84324975 3.64937101 104.89453125 15.73046875 C110.51717268 21.79123808 114.73223507 29.04685256 117 37 C117.30550781 38.02480469 117.30550781 38.02480469 117.6171875 39.0703125 C121.29217339 53.11580651 118.40855884 67.99583937 111.5390625 80.66015625 C103.09356711 93.49988147 91.42747321 101.77536669 76.4375 105.1328125 C67.3365472 106.6901948 58.0120694 106.20881215 48.8125 106.125 C46.88737445 106.11495051 44.96224382 106.10582814 43.03710938 106.09765625 C38.3579459 106.07579785 33.67902992 106.04137636 29 106 C28.9845388 106.89869057 28.9845388 106.89869057 28.96876526 107.8155365 C28.86093035 114.02810088 28.74631456 120.24051341 28.62768555 126.45288086 C28.58426261 128.77413773 28.54259316 131.09542808 28.50268555 133.41674805 C28.4451606 136.74538278 28.38141575 140.07384785 28.31640625 143.40234375 C28.29969376 144.44712387 28.28298126 145.49190399 28.26576233 146.56834412 C28.24581711 147.52926468 28.22587189 148.49018524 28.20532227 149.48022461 C28.18977798 150.33071884 28.1742337 151.18121307 28.15821838 152.05747986 C28 154 28 154 27 155 C25.08541718 155.09971786 23.16717683 155.13080589 21.25 155.1328125 C20.0846875 155.13410156 18.919375 155.13539063 17.71875 155.13671875 C16.4915625 155.13285156 15.264375 155.12898437 14 155.125 C12.7728125 155.12886719 11.545625 155.13273438 10.28125 155.13671875 C9.1159375 155.13542969 7.950625 155.13414062 6.75 155.1328125 C5.67234375 155.13168457 4.5946875 155.13055664 3.484375 155.12939453 C1 155 1 155 0 154 C-0.096708 152.01305149 -0.12187052 150.02260987 -0.12025452 148.03330994 C-0.12162918 146.73615555 -0.12300385 145.43900116 -0.12442017 144.10253906 C-0.12088055 142.6516111 -0.11724573 141.20068337 -0.11352539 139.74975586 C-0.11324353 138.23238629 -0.11340123 136.71501658 -0.1139679 135.19764709 C-0.11425591 131.06559484 -0.10835858 126.93357137 -0.10139394 122.80152583 C-0.09516102 118.48801108 -0.09455665 114.17449573 -0.09336853 109.86097717 C-0.09025503 101.68699883 -0.08204139 93.51303379 -0.07201904 85.33906132 C-0.06085848 76.03571031 -0.0553476 66.73235868 -0.05032361 57.42900264 C-0.03985879 38.28599421 -0.02225899 19.14299817 0 0 Z M28 26 C27.9012483 27.68255235 27.87201096 29.36924028 27.87060547 31.0546875 C27.86745331 32.13250488 27.86430115 33.21032227 27.86105347 34.32080078 C27.8630777 35.49368652 27.86510193 36.66657227 27.8671875 37.875 C27.86623077 39.0697998 27.86527405 40.26459961 27.86428833 41.49560547 C27.86360629 44.0276698 27.86546222 46.55973588 27.86962891 49.09179688 C27.87497679 52.9831126 27.86968467 56.87431289 27.86328125 60.765625 C27.86394203 63.21875026 27.86522318 65.67187544 27.8671875 68.125 C27.86516327 69.29788574 27.86313904 70.47077148 27.86105347 71.67919922 C27.86420563 72.7570166 27.86735779 73.83483398 27.87060547 74.9453125 C27.87140106 75.89937988 27.87219666 76.85344727 27.87301636 77.83642578 C27.75839152 79.97987889 27.75839152 79.97987889 29 81 C31.48848084 81.11354648 33.94808449 81.16418518 36.4375 81.16796875 C37.19160156 81.17129715 37.94570312 81.17462555 38.72265625 81.17805481 C40.32665394 81.18313141 41.93066225 81.18546291 43.53466797 81.18530273 C45.96209859 81.18746622 48.38905755 81.20554902 50.81640625 81.22460938 C62.83950237 81.27030329 73.19882992 80.79638529 83 73 C85.09466848 70.49912244 86.63329526 67.955499 88 65 C88.36351562 64.23171875 88.72703125 63.4634375 89.1015625 62.671875 C91.79050225 54.67520199 90.58230847 45.77774599 87.265625 38.18359375 C83.56198945 31.79367933 78.98617269 28.0381972 72.02972412 25.53094482 C64.58418529 23.5833056 56.43224717 24.37317722 48.8125 24.5625 C46.90041901 24.58406421 44.98830604 24.60296518 43.07617188 24.61914062 C34.99047172 24.01401892 34.99047172 24.01401892 28 26 Z " fill="#AFDFEA" transform="translate(1141,125)"/>
<path d="M0 0 C3.97587626 2.82439297 7.31158334 6.14067778 10.62109375 9.7109375 C12.11879056 11.47892569 12.11879056 11.47892569 14.25 11.25 C14.58 6.3 14.91 1.35 15.25 -3.75 C23.5 -3.75 31.75 -3.75 40.25 -3.75 C40.27254768 11.22686593 40.29097956 26.20372321 40.30181217 41.18060207 C40.30697496 48.13416081 40.31401734 55.08770827 40.32543945 62.04125977 C40.33644694 68.74557209 40.34227621 75.44987025 40.34487724 82.15419197 C40.34673202 84.71837613 40.35035364 87.28255962 40.35573006 89.84673882 C40.36293659 93.42445158 40.36399111 97.00211519 40.36352539 100.57983398 C40.36712067 101.65157364 40.37071594 102.72331329 40.37442017 103.82752991 C40.3730455 104.79653229 40.37167084 105.76553467 40.37025452 106.76390076 C40.37117631 107.61102851 40.3720981 108.45815626 40.37304783 109.33095455 C40.25 111.25 40.25 111.25 39.25 112.25 C37.55441274 112.34932153 35.85474253 112.38080007 34.15625 112.3828125 C33.12628906 112.38410156 32.09632812 112.38539063 31.03515625 112.38671875 C29.40900391 112.38091797 29.40900391 112.38091797 27.75 112.375 C26.66589844 112.37886719 25.58179688 112.38273437 24.46484375 112.38671875 C22.91990234 112.38478516 22.91990234 112.38478516 21.34375 112.3828125 C20.39177734 112.38168457 19.43980469 112.38055664 18.45898438 112.37939453 C16.25 112.25 16.25 112.25 15.25 111.25 C15.01346477 108.72403741 14.82826308 106.21892793 14.6875 103.6875 C14.64431641 102.97658203 14.60113281 102.26566406 14.55664062 101.53320312 C14.45028223 99.77238088 14.34961154 98.0112168 14.25 96.25 C13.59 96.25 12.93 96.25 12.25 96.25 C11.18139005 97.41629452 10.1697002 98.63505932 9.1875 99.875 C1.42454238 108.93445158 -9.00314727 113.67071762 -20.75 115.25 C-36.9900356 116.34672968 -50.18770069 112.19977443 -62.5 101.5 C-75.88344438 88.7456919 -82.55261075 72.74066144 -83.125 54.25 C-82.50206968 36.3287738 -76.33303933 20.44398414 -63.53125 7.8046875 C-45.92736285 -8.36517514 -20.95717894 -12.95663428 0 0 Z M-47.75 30.25 C-54.88506116 41.28118008 -56.75514992 52.62528039 -54.06640625 65.53125 C-50.71452729 75.43389656 -45.06188421 82.42884704 -35.75 87.25 C-25.63161746 91.46599272 -17.21055067 91.01851289 -6.90234375 87.56640625 C1.97235665 83.86036655 7.21988267 77.8656675 11.25 69.25 C15.74267794 58.30760638 15.00556246 48.74145548 10.84765625 37.8125 C6.39914697 27.89308566 -0.85889285 23.20644286 -10.75 19.25 C-23.69846024 15.19264882 -39.16924339 19.7775766 -47.75 30.25 Z " fill="#AFDFEA" transform="translate(1361.75,167.75)"/>
<path d="M0 0 C24.42 0 48.84 0 74 0 C74 0.33 74 0.66 74 1 C49.91 1 25.82 1 1 1 C1 94.72 1 188.44 1 285 C91.42 284.67 181.84 284.34 275 284 C245.3 254.3 215.6 224.6 185 194 C185 193.67 185 193.34 185 193 C227.57 193 270.14 193 314 193 C313.896875 207.6025 313.79375 222.205 313.6875 237.25 C313.66260498 241.86000977 313.63770996 246.47001953 313.61206055 251.21972656 C313.56213379 256.85107422 313.56213379 256.85107422 313.5349884 259.48773193 C313.51884356 261.32834979 313.50855197 263.16902466 313.50288391 265.00970459 C313.49315734 267.79877178 313.46483422 270.58709371 313.43237305 273.37597656 C313.43379901 274.19536839 313.43522497 275.01476021 313.43669415 275.85898209 C313.3636939 280.24517235 313.15103821 282.8685834 310 286 C307.63967544 286.49679399 307.63967544 286.49679399 304.78947163 286.49219131 C303.16073297 286.50413761 303.16073297 286.50413761 301.49909049 286.51632524 C300.30163505 286.50467387 299.1041796 286.4930225 297.87043762 286.48101807 C296.60197312 286.48443577 295.33350861 286.48785347 294.02660578 286.49137473 C290.49871427 286.50034162 286.9713062 286.4842882 283.44347632 286.46426249 C279.64185744 286.4470262 275.84026694 286.45283146 272.03862 286.45587158 C265.44970527 286.45797138 258.86094869 286.44539653 252.27207375 286.42292023 C242.74563478 286.39044427 233.21927248 286.37999773 223.69278415 286.37496826 C208.23761025 286.36620868 192.78252068 286.33957514 177.32739258 286.30175781 C162.31209733 286.26505487 147.29682509 286.23678057 132.28149414 286.21972656 C131.3468722 286.21865457 130.41225025 286.21758258 129.44930643 286.21647811 C122.14020308 286.20816067 114.83109923 286.20033288 107.52199519 286.19265985 C71.68125272 286.15490913 35.84072131 286.07443985 0 286 C0 191.62 0 97.24 0 0 Z " fill="#027FF2" transform="translate(155,114)"/>
<path d="M0 0 C1.258125 -0.03738281 2.51625 -0.07476562 3.8125 -0.11328125 C5.61847656 -0.13068359 5.61847656 -0.13068359 7.4609375 -0.1484375 C8.57001465 -0.16825684 9.6790918 -0.18807617 10.82177734 -0.20849609 C13.625 0.375 13.625 0.375 15.38208008 2.61157227 C15.99732544 3.97946899 15.99732544 3.97946899 16.625 5.375 C16.97860596 6.14497314 17.33221191 6.91494629 17.6965332 7.70825195 C18.01968506 8.50191162 18.34283691 9.29557129 18.67578125 10.11328125 C19.22371338 11.45338257 19.22371338 11.45338257 19.78271484 12.82055664 C20.16379395 13.76664795 20.54487305 14.71273926 20.9375 15.6875 C21.54005615 17.17334595 21.54005615 17.17334595 22.15478516 18.68920898 C24.83034466 25.31903277 27.4092392 31.97421498 29.87890625 38.68359375 C31.35005627 42.66913939 32.87442679 46.63362714 34.40234375 50.59765625 C35.16065234 52.57186017 35.91845064 54.54625923 36.67608643 56.52072144 C37.17950257 57.82934112 37.68480194 59.13723806 38.19207764 60.44436646 C38.91059085 62.29684174 39.62142639 64.15228921 40.33203125 66.0078125 C40.7494458 67.08949707 41.16686035 68.17118164 41.59692383 69.28564453 C42.60671478 72.32005315 43.19133315 75.21139881 43.625 78.375 C46.6746413 75.85724791 47.39770323 73.46374361 48.4296875 69.69921875 C50.77034241 61.67997972 53.72957215 53.96837401 56.75 46.1875 C57.32432155 44.7000037 57.8982915 43.2123716 58.47192383 41.72460938 C59.34229546 39.46789375 60.21316189 37.21137812 61.08595276 34.95559692 C62.95349165 30.12753509 64.79878897 25.29157587 66.62890625 20.44921875 C67.31218994 18.64843872 67.31218994 18.64843872 68.00927734 16.8112793 C68.86101116 14.56546562 69.709149 12.31828398 70.55322266 10.06958008 C70.93140137 9.07724365 71.30958008 8.08490723 71.69921875 7.0625 C72.18781372 5.76892578 72.18781372 5.76892578 72.6862793 4.44921875 C73.625 2.375 73.625 2.375 75.625 0.375 C78.42236328 0.14794922 78.42236328 0.14794922 81.9453125 0.1796875 C83.83056641 0.18935547 83.83056641 0.18935547 85.75390625 0.19921875 C87.73197266 0.22435547 87.73197266 0.22435547 89.75 0.25 C91.08983721 0.26003017 92.42968152 0.26915596 93.76953125 0.27734375 C97.05486573 0.30097925 100.33984465 0.33392766 103.625 0.375 C102.88622545 4.31582035 101.78169918 7.72335084 100.25 11.4375 C99.70324777 12.77686294 99.15778826 14.11675397 98.61328125 15.45703125 C98.30213379 16.22225098 97.99098633 16.9874707 97.67041016 17.77587891 C96.02772376 21.85996097 94.4315593 25.96206734 92.82958984 30.06225586 C88.2337642 41.82424879 83.54213658 53.54136481 78.7512207 65.2253418 C75.46236547 73.26573811 72.27826594 81.34310891 69.125 89.4375 C65.45784482 98.80525969 61.7333988 108.14670581 57.875 117.4375 C57.45154297 118.47720947 57.02808594 119.51691895 56.59179688 120.58813477 C51.11997756 133.61964881 43.16090011 147.58226857 29.70703125 153.65625 C23.9937786 155.62855486 19.04230415 156.62467605 12.9765625 156.60546875 C11.9295668 156.60478142 11.9295668 156.60478142 10.86141968 156.6040802 C9.40092242 156.60108197 7.94042766 156.59326949 6.47998047 156.58081055 C4.23523788 156.56237879 1.99090466 156.5603024 -0.25390625 156.56054688 C-11.22730839 156.52269161 -11.22730839 156.52269161 -12.375 155.375 C-12.47380797 153.89847336 -12.50579245 152.41732764 -12.5078125 150.9375 C-12.50910156 150.04289063 -12.51039062 149.14828125 -12.51171875 148.2265625 C-12.50591797 146.81503906 -12.50591797 146.81503906 -12.5 145.375 C-12.50386719 144.43398438 -12.50773437 143.49296875 -12.51171875 142.5234375 C-12.51042969 141.62882813 -12.50914063 140.73421875 -12.5078125 139.8125 C-12.50668457 138.98621094 -12.50555664 138.15992188 -12.50439453 137.30859375 C-12.375 135.375 -12.375 135.375 -11.375 134.375 C-9.68871611 134.26576475 -7.99829443 134.21915157 -6.30859375 134.19921875 C-5.26509766 134.17537109 -4.22160156 134.15152344 -3.14648438 134.12695312 C-0.95135962 134.08451662 1.24400731 134.05298192 3.43945312 134.03320312 C9.97245341 133.86117679 15.2437867 133.3090793 20.625 129.375 C24.46559191 125.29715145 27.56918524 119.88869929 28.625 114.375 C28.18550293 108.34611533 26.75747864 103.45547315 24.44921875 97.8984375 C24.12808105 97.10335281 23.80694336 96.30826813 23.47607422 95.48908997 C22.43036898 92.90571103 21.37151072 90.32794948 20.3125 87.75 C19.58017266 85.94741258 18.84881834 84.14442957 18.1184082 82.34106445 C16.6495335 78.71702905 15.1761889 75.09486439 13.69921875 71.47412109 C10.86522358 64.51885144 8.08989871 57.54050442 5.3125 50.5625 C0.98976901 39.73659733 -3.38847922 28.93432406 -7.81176758 18.14916992 C-10.08845037 12.58735533 -12.30207338 7.01607899 -14.375 1.375 C-11.64469533 -1.35530467 -3.67206899 0.04113316 0 0 Z " fill="#AFDFEA" transform="translate(1445.375,163.625)"/>
<path d="M0 0 C3.47235855 3.1531507 5.79383044 6.66469255 8.125 10.6875 C8.50911545 11.33887939 8.8932309 11.99025879 9.28898621 12.66137695 C10.53153462 14.77104776 11.76573879 16.88547219 13 19 C13.85130777 20.44830577 14.70328008 21.89622113 15.5559082 23.34375 C17.24983149 26.22012072 18.94135768 29.09787933 20.63134766 31.9765625 C23.782935 37.3380512 26.98013438 42.67169896 30.1875 48 C30.68572266 48.82886719 31.18394531 49.65773437 31.69726562 50.51171875 C32.79742776 52.34159655 33.8985728 54.17088338 35 56 C32.0694662 59.17832513 29.1367663 61.26855378 25.37890625 63.390625 C23.72665039 64.33228516 23.72665039 64.33228516 22.04101562 65.29296875 C20.89310547 65.93878906 19.74519531 66.58460937 18.5625 67.25 C16.31268458 68.52407034 14.06398605 69.80011495 11.81640625 71.078125 C10.22632675 71.97409665 8.63436169 72.86710962 7.02778625 73.7331543 C4.87116812 75.00458469 4.87116812 75.00458469 2.72355652 76.99926758 C-8.43586108 85.777794 -22.06203357 84.03227082 -35.56890321 83.8111515 C-39.17754201 83.76068506 -42.78625012 83.75640629 -46.39518738 83.74694824 C-53.2092865 83.72221506 -60.02234241 83.65674947 -66.83598489 83.57615232 C-74.60140757 83.48631707 -82.36688362 83.44264361 -90.1326977 83.40258884 C-106.08906649 83.31926774 -122.04439802 83.17881726 -138 83 C-134.50691559 80.16015452 -131.05445535 77.73970289 -127.15234375 75.48828125 C-126.59229141 75.16309006 -126.03223907 74.83789886 -125.45521545 74.50285339 C-124.24851271 73.802357 -123.04083449 73.10353877 -121.83227539 72.40625 C-118.55824492 70.51633163 -115.29255382 68.61213729 -112.02734375 66.70703125 C-111.35609467 66.31552887 -110.68484558 65.92402649 -109.99325562 65.5206604 C-103.27890272 61.59514286 -96.63574929 57.55649154 -90 53.5 C-79.89037263 47.3251433 -69.71330969 41.27791182 -59.48214722 35.3067627 C-49.95170203 29.74405104 -40.46918269 24.10725208 -31.01513672 18.4152832 C-20.71298366 12.21542441 -10.36165432 6.09976732 0 0 Z " fill="#23252A" transform="translate(368,31)"/>
<path d="M0 0 C2.39558752 1.06473947 3.28967376 2.19755881 4.79931641 4.33227539 C5.56743652 5.41581299 5.56743652 5.41581299 6.35107422 6.52124023 C8.92239845 10.34935333 11.39073722 14.22717975 13.79150391 18.16430664 C14.28908203 18.9615918 14.78666016 19.75887695 15.29931641 20.58032227 C15.76853516 21.34666992 16.23775391 22.11301758 16.72119141 22.90258789 C17.14384277 23.59006104 17.56649414 24.27753418 18.00195312 24.98583984 C18.91650391 26.85180664 18.91650391 26.85180664 18.91650391 29.85180664 C17.22119141 31.17602539 17.22119141 31.17602539 14.79150391 32.53930664 C13.87377197 33.06322998 12.95604004 33.58715332 12.01049805 34.12695312 C10.98947998 34.69615479 9.96846191 35.26535645 8.91650391 35.85180664 C6.7059813 37.1119704 4.49639422 38.3737762 2.28759766 39.63696289 C1.69925644 39.97172134 1.11091522 40.3064798 0.50474548 40.65138245 C-6.72589769 44.77031575 -13.87116873 49.03219663 -21.02099609 53.28930664 C-22.40115043 54.10970999 -23.78135886 54.93002233 -25.16162109 55.75024414 C-34.31204122 61.19023959 -43.44454665 66.65969647 -52.56713867 72.14624023 C-58.34617782 75.61895495 -64.13508852 79.07436211 -69.93505859 82.51196289 C-70.61957092 82.91776581 -71.30408325 83.32356873 -72.00933838 83.7416687 C-75.3238784 85.70619112 -78.63939395 87.66903676 -81.95654297 89.62915039 C-93.73083621 96.6019786 -105.3910504 103.73466578 -117.08349609 110.85180664 C-75.17349609 111.18180664 -33.26349609 111.51180664 9.91650391 111.85180664 C9.91650391 112.18180664 9.91650391 112.51180664 9.91650391 112.85180664 C-10.33348977 112.88254302 -30.58348303 112.90281766 -50.83349609 112.91430664 C-51.57727351 112.91474094 -52.32105093 112.91517525 -53.08736706 112.91562271 C-126.6988595 112.95745656 -126.6988595 112.95745656 -162.20849609 112.35180664 C-162.91034531 112.33984882 -163.61219452 112.32789101 -164.33531189 112.31557083 C-172.251752 112.17917207 -180.16783267 112.02787697 -188.08349609 111.85180664 C-185.40684596 109.82289681 -182.73162778 107.96952126 -179.84521484 106.25024414 C-179.03310547 105.76491211 -178.22099609 105.27958008 -177.38427734 104.77954102 C-176.09070313 104.0109375 -176.09070313 104.0109375 -174.77099609 103.22680664 C-172.95197703 102.14088362 -171.13296668 101.05494602 -169.31396484 99.96899414 C-168.41983887 99.43628906 -167.52571289 98.90358398 -166.60449219 98.35473633 C-163.25991049 96.36081371 -159.92132156 94.35701016 -156.58349609 92.35180664 C-155.3791126 91.62907774 -154.17468452 90.90642316 -152.97021484 90.18383789 C-152.35065918 89.81210449 -151.73110352 89.44037109 -151.09277344 89.05737305 C-144.41552734 85.05102539 -144.41552734 85.05102539 -141.93701172 83.56396484 C-140.2312252 82.54046016 -138.52549682 81.51685858 -136.81982422 80.49316406 C-132.66295616 77.99849504 -128.50530258 75.50516586 -124.34521484 73.01586914 C-117.08901713 68.67144181 -109.83945365 64.31741533 -102.61865234 59.91430664 C-90.06647751 52.26101502 -77.47103279 44.69914378 -64.77026367 37.29470825 C-56.26952567 32.33646887 -47.82012035 27.30242401 -39.41674805 22.18084717 C-37.66648309 21.11429077 -35.91520181 20.04942419 -34.16357422 18.98510742 C-27.47054994 14.91747986 -27.47054994 14.91747986 -20.79003906 10.8293457 C-17.72786786 8.95059306 -14.65684418 7.08720052 -11.58349609 5.22680664 C-10.67543213 4.66380859 -9.76736816 4.10081055 -8.83178711 3.52075195 C-7.99703857 3.01898438 -7.16229004 2.5172168 -6.30224609 2.00024414 C-5.57972656 1.5585791 -4.85720703 1.11691406 -4.11279297 0.66186523 C-2.08349609 -0.14819336 -2.08349609 -0.14819336 0 0 Z " fill="#4577DC" transform="translate(349.08349609375,2.148193359375)"/>
<path d="M0 0 C1.1653125 -0.00128906 2.330625 -0.00257812 3.53125 -0.00390625 C4.7584375 -0.00003906 5.985625 0.00382812 7.25 0.0078125 C9.09078125 0.00201172 9.09078125 0.00201172 10.96875 -0.00390625 C12.71671875 -0.00197266 12.71671875 -0.00197266 14.5 0 C15.57765625 0.00112793 16.6553125 0.00225586 17.765625 0.00341797 C20.25 0.1328125 20.25 0.1328125 21.25 1.1328125 C21.34887812 3.10478788 21.37632256 5.0803569 21.37698364 7.05480957 C21.37980347 8.34210464 21.38262329 9.62939972 21.38552856 10.95570374 C21.38358396 12.3955995 21.38153578 13.83549514 21.37939453 15.27539062 C21.38074851 16.78128604 21.38252843 18.28718111 21.38470459 19.79307556 C21.38927928 23.89420057 21.38748922 27.99530054 21.3843255 32.09642601 C21.38180209 36.37877853 21.38413939 40.66112884 21.38571167 44.94348145 C21.38753342 52.13631578 21.38512692 59.32913987 21.38037109 66.52197266 C21.37492846 74.84997584 21.37669112 83.17795454 21.3821975 91.50595713 C21.38672848 98.64309096 21.38737925 105.7802174 21.38475883 112.9173522 C21.38319597 117.18579605 21.38300253 121.45422838 21.38629532 125.72267151 C21.38917381 129.73465184 21.38719875 133.74660046 21.38140106 137.75857735 C21.38007334 139.23526011 21.38046778 140.71194552 21.38266373 142.18862724 C21.38537474 144.19602237 21.38138084 146.20342329 21.37698364 148.21081543 C21.37660662 149.33686943 21.37622959 150.46292343 21.37584114 151.62310028 C21.25 154.1328125 21.25 154.1328125 20.25 155.1328125 C18.33541718 155.23253036 16.41717683 155.26361839 14.5 155.265625 C13.3346875 155.26691406 12.169375 155.26820313 10.96875 155.26953125 C9.7415625 155.26566406 8.514375 155.26179687 7.25 155.2578125 C6.0228125 155.26167969 4.795625 155.26554688 3.53125 155.26953125 C2.3659375 155.26824219 1.200625 155.26695312 0 155.265625 C-1.07765625 155.26449707 -2.1553125 155.26336914 -3.265625 155.26220703 C-5.75 155.1328125 -5.75 155.1328125 -6.75 154.1328125 C-6.84887812 152.16083712 -6.87632256 150.1852681 -6.87698364 148.21081543 C-6.87980347 146.92352036 -6.88262329 145.63622528 -6.88552856 144.30992126 C-6.88358396 142.8700255 -6.88153578 141.43012986 -6.87939453 139.99023438 C-6.88074851 138.48433896 -6.88252843 136.97844389 -6.88470459 135.47254944 C-6.88927928 131.37142443 -6.88748922 127.27032446 -6.8843255 123.16919899 C-6.88180209 118.88684647 -6.88413939 114.60449616 -6.88571167 110.32214355 C-6.88753342 103.12930922 -6.88512692 95.93648513 -6.88037109 88.74365234 C-6.87492846 80.41564916 -6.87669112 72.08767046 -6.8821975 63.75966787 C-6.88672848 56.62253404 -6.88737925 49.4854076 -6.88475883 42.3482728 C-6.88319597 38.07982895 -6.88300253 33.81139662 -6.88629532 29.54295349 C-6.88917381 25.53097316 -6.88719875 21.51902454 -6.88140106 17.50704765 C-6.88007334 16.03036489 -6.88046778 14.55367948 -6.88266373 13.07699776 C-6.88537474 11.06960263 -6.88138084 9.06220171 -6.87698364 7.05480957 C-6.87660662 5.92875557 -6.87622959 4.80270157 -6.87584114 3.64252472 C-6.64056812 -1.0496418 -4.11965517 0.00431184 0 0 Z " fill="#FEFEFE" transform="translate(1073.75,124.8671875)"/>
<path d="M0 0 C5.11662433 3.44388176 8.29069703 7.09340864 10 13 C11.19908771 21.08350507 10.37776314 27.18968181 5.72265625 33.96875 C1.89542131 38.48158939 -2.29676057 40.74393775 -8.2578125 41.30859375 C-15.47826709 41.54927557 -21.33089166 41.65373004 -27.19140625 36.87890625 C-32.49329705 31.37089442 -34.30462972 26.61817201 -34.625 18.9375 C-34.34321823 11.67379223 -32.48420242 7.63365883 -27.54296875 2.48046875 C-19.69638387 -4.70360765 -9.09844065 -4.77042977 0 0 Z " fill="#2089FE" transform="translate(374,238)"/>
<path d="M0 0 C2.24140201 2.09362172 3.83118203 4.15511501 5.375 6.80078125 C5.80296875 7.53103516 6.2309375 8.26128906 6.671875 9.01367188 C7.11015625 9.77228516 7.5484375 10.53089844 8 11.3125 C8.43828125 12.05951172 8.8765625 12.80652344 9.328125 13.57617188 C11.71404103 17.66888025 13.87438123 21.74876245 16 26 C-3.14 26 -22.28 26 -42 26 C-38.66179693 23.32943754 -35.8386645 21.1878176 -32.2265625 19.08203125 C-30.87522217 18.28962036 -30.87522217 18.28962036 -29.49658203 17.48120117 C-28.54895996 16.93052979 -27.60133789 16.3798584 -26.625 15.8125 C-24.65600656 14.65926971 -22.68725774 13.50562167 -20.71875 12.3515625 C-19.75195312 11.78598633 -18.78515625 11.22041016 -17.7890625 10.63769531 C-13.88598817 8.34586911 -10.00288916 6.02161904 -6.125 3.6875 C-5.4954541 3.30891846 -4.8659082 2.93033691 -4.21728516 2.5402832 C-2.81111023 1.69420851 -1.40548 0.8472286 0 0 Z " fill="#4576DB" transform="translate(402,88)"/>
<path d="M0 0 C0.99 0.33 1.98 0.66 3 1 C4.68720226 1.10146875 6.37807473 1.14625533 8.06828308 1.15821838 C9.11576218 1.1680072 10.16324127 1.17779602 11.24246216 1.18788147 C12.39116791 1.19363693 13.53987366 1.1993924 14.72338867 1.20532227 C16.53820992 1.22017166 16.53820992 1.22017166 18.38969421 1.23532104 C21.70758731 1.26151452 25.02545627 1.2833742 28.34338927 1.30332303 C31.81076506 1.32518984 35.27809712 1.35257513 38.74543762 1.37937927 C45.31143412 1.42929676 51.87745491 1.47423909 58.44349891 1.51740164 C65.91866669 1.56678208 73.39379058 1.62169722 80.86891592 1.67708123 C96.24590339 1.79088678 111.62293122 1.89772892 127 2 C127 2.33 127 2.66 127 3 C84.1 3 41.2 3 -3 3 C-2.01 2.01 -1.02 1.02 0 0 Z " fill="#212F3E" transform="translate(233,111)"/>
<path d="M0 0 C0.66 0.33 1.32 0.66 2 1 C-0.97 3.97 -3.94 6.94 -7 10 C-7 7 -7 7 -4.625 4.4375 C-3.75875 3.633125 -2.8925 2.82875 -2 2 C-1.34 1.34 -0.68 0.68 0 0 Z " fill="#B7D6EF" transform="translate(324,209)"/>
</svg>
