<?xml version="1.0" encoding="UTF-8"?>
<svg version="1.1" xmlns="http://www.w3.org/2000/svg" width="1640" height="400">
<path d="M0 0 C25.41 0 50.82 0 77 0 C80.15032224 5.51306392 81.73312101 8.92921125 82.66796875 14.8671875 C82.79311356 15.58738068 82.91825836 16.30757385 83.04719543 17.04959106 C83.44002284 19.32277617 83.81459513 21.59847006 84.1875 23.875 C84.57445682 26.17224086 84.96520905 28.46876128 85.35993958 30.76467896 C85.60339422 32.18718879 85.84174373 33.61058356 86.07450867 35.03488159 C86.40192675 38.30005915 86.40192675 38.30005915 88 41 C91.26598787 41.20497832 94.53015954 41.31956845 97.80078125 41.42578125 C101.53059429 42.09523487 102.72550261 43.02777032 105 46 C105.5625 48.5 105.5625 48.5 105 51 C104.154375 51.515625 103.30875 52.03125 102.4375 52.5625 C99.72937094 54.72931777 99.72937094 54.72931777 99.85546875 57.56640625 C100.13445305 60.73227152 100.54249981 63.85516674 101 67 C101.19655195 68.91575956 101.38494321 70.83238665 101.5625 72.75 C101.70729599 74.16677307 101.85270744 75.58348431 102 77 C100.5459375 77.185625 100.5459375 77.185625 99.0625 77.375 C97.5465625 77.684375 97.5465625 77.684375 96 78 C94.41651309 81.16697382 94.51413269 84.63484623 94.24609375 88.12109375 C94.18092056 88.93562515 94.11574738 89.75015656 94.04859924 90.58937073 C93.91127491 92.32007866 93.77607679 94.05095639 93.64282227 95.78198242 C93.44069239 98.39621149 93.22965246 101.0096081 93.01757812 103.62304688 C92.34575686 112.09213097 91.74992667 120.49629857 92 129 C93.65 129.66 95.3 130.32 97 131 C95.65566313 150.64182687 94.10731379 170.26187857 92.43992615 189.87858224 C92.24697658 192.14885526 92.05441473 194.41916091 91.86193848 196.68947411 C91.25619999 203.83201496 90.64880316 210.97441204 90.0390892 218.11661464 C89.34077774 226.29712352 88.64842907 234.47810996 87.9609108 242.65953285 C87.42391486 249.04528751 86.88158365 255.43057526 86.33523178 261.8155362 C86.01099637 265.60617779 85.68900078 269.39697671 85.37268066 273.18828773 C85.07670619 276.73415217 84.77409994 280.27938923 84.46644592 283.8242588 C84.30235721 285.73428177 84.14513907 287.64489112 83.98815918 289.55551147 C82.97146585 301.12253064 82.97146585 301.12253064 81 306 C80.01 306.33 79.02 306.66 78 307 C76.64843865 316.4941793 75.71032398 325.98033805 75 335.54296875 C74.91766113 336.64867218 74.83532227 337.75437561 74.75048828 338.89358521 C74.41091094 343.49935115 74.0767476 348.1054638 73.75 352.7121582 C73.50701573 356.11464981 73.2541481 359.51629545 73 362.91796875 C72.92910156 363.9575322 72.85820312 364.99709564 72.78515625 366.06816101 C72.71167969 367.03719864 72.63820313 368.00623627 72.5625 369.00463867 C72.50191406 369.85128586 72.44132812 370.69793304 72.37890625 371.57023621 C71.9514315 374.31144905 71.21787799 376.50813927 70 379 C50.10718571 393.08313917 20.70236031 395.61454565 -2.73486328 398.04956055 C-4.32790283 398.21645386 -4.32790283 398.21645386 -5.953125 398.38671875 C-6.90348633 398.48170654 -7.85384766 398.57669434 -8.83300781 398.67456055 C-10.97484198 398.77675889 -10.97484198 398.77675889 -12 400 C-14.5270563 400.09996282 -17.02684514 400.13441202 -19.55444336 400.12698364 C-20.35496848 400.12854363 -21.1554936 400.13010362 -21.98027706 400.13171089 C-24.68348426 400.13572418 -27.38663606 400.13252998 -30.08984375 400.12939453 C-32.019379 400.13074843 -33.94891399 400.13252829 -35.87844849 400.13470459 C-41.13449354 400.13928032 -46.39051907 400.13748879 -51.64656448 400.1343255 C-57.13408716 400.13180262 -62.62160812 400.13413924 -68.10913086 400.13571167 C-77.32633771 400.13753358 -86.54353655 400.13512651 -95.76074219 400.13037109 C-106.43360122 400.12492843 -117.10644116 400.12669108 -127.77929974 400.1321975 C-136.92490904 400.13672803 -146.07051257 400.13737947 -155.21612263 400.13475883 C-160.68622971 400.13319572 -166.15632781 400.1330032 -171.62643433 400.13629532 C-176.76779962 400.13917316 -181.90914017 400.13719994 -187.05050278 400.13140106 C-188.94322544 400.130073 -190.83595017 400.13046836 -192.72867203 400.13266373 C-195.30099551 400.13537342 -197.87323837 400.13199634 -200.44555664 400.12698364 C-201.20458755 400.12921436 -201.96361845 400.13144509 -202.74565029 400.13374341 C-207.88585015 400.11414985 -207.88585015 400.11414985 -209 399 C-211.07586767 398.66777653 -213.15294506 398.34172169 -215.23486328 398.04980469 C-229.51995578 396.04193603 -242.26666832 393.50216169 -251.875 381.8125 C-257.17981453 373.36312991 -257.56429104 362.43546773 -258.1875 352.75 C-258.26935547 351.61175781 -258.35121094 350.47351563 -258.43554688 349.30078125 C-258.63314777 346.53436869 -258.82116051 343.76767762 -259 341 C-260.05960937 340.95101563 -261.11921875 340.90203125 -262.2109375 340.8515625 C-263.59898497 340.77653291 -264.98700451 340.70098515 -266.375 340.625 C-267.07367188 340.5940625 -267.77234375 340.563125 -268.4921875 340.53125 C-273.7734375 340.2265625 -273.7734375 340.2265625 -276 338 C-276.48932565 332.60401168 -275.33296213 328.29500126 -273.4375 323.3125 C-271.17665527 317.75813232 -271.17665527 317.75813232 -272 312 C-272.30524594 305.99682987 -271.50527044 300.80604311 -270 295 C-271.2065625 294.2884375 -271.2065625 294.2884375 -272.4375 293.5625 C-275 292 -275 292 -276 291 C-276.6581025 284.08992375 -275.42494865 280.47351069 -272.1015625 274.4765625 C-270.64433884 271.20039299 -270.80224383 268.66869571 -271 265.15234375 C-271 257.18642783 -265.34803151 250.83092068 -260.375 245.140625 C-257.41239806 240.52839244 -257.86756903 234.88372804 -257.70996094 229.56494141 C-257.37614483 218.50488458 -256.41501632 207.80625956 -254 197 C-253.8457959 196.30680664 -253.6915918 195.61361328 -253.53271484 194.89941406 C-248.74203732 174.56172224 -234.37081671 159.08310106 -216.86328125 148.21484375 C-204.30638397 140.80868975 -189.9972414 137.57939598 -176 134 C-175.67 132.68 -175.34 131.36 -175 130 C-173.35 129.67 -171.7 129.34 -170 129 C-170.58885653 111.9231605 -172.25607115 94.98977152 -174 78 C-175.98 77.67 -177.96 77.34 -180 77 C-179.85416667 75.39583333 -179.70833333 73.79166667 -179.5625 72.1875 C-179.47871094 71.18976563 -179.39492187 70.19203125 -179.30859375 69.1640625 C-179.10632656 67.09018376 -178.85021007 65.02070111 -178.53515625 62.9609375 C-178.15008811 60.23978934 -177.82789811 57.7443274 -178 55 C-180.34079757 52.64352999 -180.34079757 52.64352999 -183 51 C-183.50735484 47.89245161 -183.6813461 46.03308795 -181.91796875 43.359375 C-179.00855857 41.29730831 -176.33061901 41.47388161 -172.8125 41.3125 C-170.90404297 41.21388672 -170.90404297 41.21388672 -168.95703125 41.11328125 C-167.49330078 41.05720703 -167.49330078 41.05720703 -166 41 C-164.13669481 34.87091527 -163.07314696 28.75656832 -162.07421875 22.42578125 C-160.78308707 18.30824494 -159.57086656 17.322738 -156 15 C-153.27590752 14.5117445 -153.27590752 14.5117445 -150.271698 14.52812195 C-149.12798233 14.52432526 -147.98426666 14.52052856 -146.80589294 14.51661682 C-145.56009964 14.5326445 -144.31430634 14.54867218 -143.03076172 14.56518555 C-141.00551015 14.56657691 -138.98025857 14.56796147 -136.95500684 14.56909049 C-134.78180804 14.57400238 -132.60886061 14.58864283 -130.43572617 14.60584068 C-125.89554875 14.64057955 -121.35574548 14.64162361 -116.81546021 14.63691711 C-104.71916176 14.62942442 -92.62305885 14.66255043 -80.52691567 14.72334844 C-72.58084858 14.76324864 -64.63530197 14.78302215 -56.68913662 14.76497108 C-52.18480044 14.75631633 -47.68210427 14.77909175 -43.17802119 14.82599866 C-40.36171835 14.8479652 -37.54603809 14.84040123 -34.72971535 14.82498169 C-32.82211433 14.82307454 -30.91457438 14.85580033 -29.00727844 14.88996887 C-20.16868739 14.79663439 -14.96312151 12.31992776 -8 7 C-6.62604235 6.06097304 -5.2511784 5.12326934 -3.875 4.1875 C-0.97267846 2.31286794 -0.97267846 2.31286794 0 0 Z " fill="#BA8E60" transform="translate(293,0)"/>
<path d="M0 0 C12.54 0 25.08 0 38 0 C39.85675509 17.1177558 41.03262429 34.2590607 42.15662003 51.43629074 C42.58510321 57.96801955 43.02116742 64.49925005 43.45670128 71.03051186 C43.56914914 72.71702592 43.68147491 74.40354813 43.79368019 76.09007835 C44.64081877 88.81516442 45.52574243 101.5372008 46.4375 114.2578125 C46.55472246 115.89733237 46.67192537 117.53685364 46.78910828 119.17637634 C47.29316462 126.2219381 47.79950862 133.26731381 48.31378365 140.3121376 C48.52358395 143.19690111 48.73022421 146.08188523 48.93611145 148.96693039 C49.07639106 150.9176611 49.22078764 152.86809443 49.36535645 154.81851196 C49.44950806 156.00302948 49.53365967 157.187547 49.62036133 158.40795898 C49.69410477 159.42164047 49.76784821 160.43532196 49.84382629 161.47972107 C50.05835366 166.31533769 50 171.15962708 50 176 C39.77 176 29.54 176 19 176 C19.45375 181.011875 19.9075 186.02375 20.375 191.1875 C22.03985288 210.10240619 23.09227523 229.03555981 24 248 C24.76248047 248.30325195 25.52496094 248.60650391 26.31054688 248.91894531 C28.22662714 249.68913444 30.13263626 250.48458149 32.03125 251.296875 C55.74874101 261.23258069 80.54272895 265.37126005 106 268 C106 268.33 106 268.66 106 269 C87.76354002 269.02332809 69.52708389 269.04097873 51.29061222 269.05181217 C42.82370061 269.05697532 34.35679825 269.06401838 25.88989258 269.07543945 C18.51282906 269.08538572 11.13577225 269.09185329 3.75870222 269.09408849 C-0.14982053 269.0953957 -4.05832412 269.09848217 -7.96684074 269.10573006 C-11.64146442 269.11248937 -15.31606093 269.11461715 -18.99069023 269.11310768 C-20.99079611 269.11351638 -22.99089898 269.11891204 -24.99099731 269.12442017 C-26.76003166 269.12235817 -26.76003166 269.12235817 -28.56480408 269.12025452 C-29.59629043 269.12117631 -30.62777678 269.1220981 -31.69052029 269.12304783 C-34 269 -34 269 -35 268 C-37.07586767 267.66777653 -39.15294506 267.34172169 -41.23486328 267.04980469 C-55.51995578 265.04193603 -68.26666832 262.50216169 -77.875 250.8125 C-83.17981453 242.36312991 -83.56429104 231.43546773 -84.1875 221.75 C-84.26935547 220.61175781 -84.35121094 219.47351563 -84.43554688 218.30078125 C-84.63314777 215.53436869 -84.82116051 212.76767762 -85 210 C-86.58941406 209.92652344 -86.58941406 209.92652344 -88.2109375 209.8515625 C-89.59898497 209.77653291 -90.98700451 209.70098515 -92.375 209.625 C-93.07367188 209.5940625 -93.77234375 209.563125 -94.4921875 209.53125 C-99.7734375 209.2265625 -99.7734375 209.2265625 -102 207 C-102.48932565 201.60401168 -101.33296213 197.29500126 -99.4375 192.3125 C-97.17665527 186.75813232 -97.17665527 186.75813232 -98 181 C-98.30524594 174.99682987 -97.50527044 169.80604311 -96 164 C-96.804375 163.525625 -97.60875 163.05125 -98.4375 162.5625 C-101 161 -101 161 -102 160 C-102.6581025 153.08992375 -101.42494865 149.47351069 -98.1015625 143.4765625 C-96.64433884 140.20039299 -96.80224383 137.66869571 -97 134.15234375 C-97 126.18642783 -91.34803151 119.83092068 -86.375 114.140625 C-83.41239806 109.52839244 -83.86756903 103.88372804 -83.70996094 98.56494141 C-83.37614483 87.50488458 -82.41501632 76.80625956 -80 66 C-79.8457959 65.30680664 -79.6915918 64.61361328 -79.53271484 63.89941406 C-74.74202992 43.56169083 -60.3788266 28.11506843 -42.890625 17.22265625 C-30.48885825 9.90139304 -15.34118384 5.17070888 -1 4 C-0.67 2.68 -0.34 1.36 0 0 Z " fill="#BA8F5F" transform="translate(119,131)"/>
<path d="M0 0 C11.13350028 -0.06310454 22.2433554 0.10247073 33.37199211 0.42041397 C56.42914678 1.06448817 79.47837314 1.15535005 102.54321289 1.13037109 C107.88928182 1.12464878 113.23530117 1.12807797 118.58136845 1.13382244 C140.26330467 1.15343544 161.91446628 1.00092766 183.58518791 0.2883482 C193.7892967 -0.04591514 203.97911996 -0.11963847 214.1875 -0.0625 C215.85872251 -0.05744014 217.52994663 -0.05288568 219.20117188 -0.04882812 C223.13415764 -0.03825565 227.06705824 -0.02128038 231 0 C231.33155417 12.9735918 230.43664661 25.79506454 229.40087891 38.72192383 C229.12255787 42.21817788 228.85962217 45.71537724 228.59765625 49.21289062 C228.42279317 51.44798869 228.24704454 53.68301769 228.0703125 55.91796875 C227.95455368 57.47731392 227.95455368 57.47731392 227.8364563 59.06816101 C227.75652435 60.03719864 227.67659241 61.00623627 227.59423828 62.00463867 C227.49431076 63.27460945 227.49431076 63.27460945 227.3923645 64.57023621 C226.9508513 67.30435915 226.21412623 69.51142576 225 72 C205.10718571 86.08313917 175.70236031 88.61454565 152.26513672 91.04956055 C151.20311035 91.16082275 150.14108398 91.27208496 149.046875 91.38671875 C147.62133301 91.52920044 147.62133301 91.52920044 146.16699219 91.67456055 C144.02515802 91.77675889 144.02515802 91.77675889 143 93 C141.41562877 93.1144338 139.8261962 93.15961081 138.23779297 93.17700195 C137.21567215 93.18964584 136.19355133 93.20228973 135.14045715 93.21531677 C134.01902817 93.22289505 132.89759918 93.23047333 131.7421875 93.23828125 C130.58397995 93.2480751 129.4257724 93.25786896 128.23246765 93.26795959 C79.06335581 93.59738131 79.06335581 93.59738131 56 89 C54.88802246 88.78037598 53.77604492 88.56075195 52.63037109 88.33447266 C36.83101595 85.09857052 18.49908675 81.33484405 5 72 C3.57602076 67.46773602 3.59763608 62.46651068 3.28125 57.74609375 C3.21844849 56.84939468 3.15564697 55.95269562 3.09094238 55.02882385 C2.89093088 52.16525023 2.69528232 49.30139966 2.5 46.4375 C2.30434418 43.60532163 2.10776372 40.77320953 1.91065979 37.94113159 C1.78339673 36.11249787 1.656712 34.28382379 1.53062439 32.45510864 C1.19809134 27.67025519 0.8313977 22.89133082 0.41015625 18.11328125 C-0.11201372 12.0553528 -0.06606236 6.07773748 0 0 Z " fill="#EFEFEF" transform="translate(138,307)"/>
<path d="M0 0 C25.41 0 50.82 0 77 0 C80.15032224 5.51306392 81.73312101 8.92921125 82.66796875 14.8671875 C82.79311356 15.58738068 82.91825836 16.30757385 83.04719543 17.04959106 C83.44002284 19.32277617 83.81459513 21.59847006 84.1875 23.875 C84.57445682 26.17224086 84.96520905 28.46876128 85.35993958 30.76467896 C85.60339422 32.18718879 85.84174373 33.61058356 86.07450867 35.03488159 C86.40192675 38.30005915 86.40192675 38.30005915 88 41 C91.26598787 41.20497832 94.53015954 41.31956845 97.80078125 41.42578125 C101.53059429 42.09523487 102.72550261 43.02777032 105 46 C105.5625 48.5 105.5625 48.5 105 51 C104.154375 51.515625 103.30875 52.03125 102.4375 52.5625 C99.72937094 54.72931777 99.72937094 54.72931777 99.85546875 57.56640625 C100.13445305 60.73227152 100.54249981 63.85516674 101 67 C101.19655195 68.91575956 101.38494321 70.83238665 101.5625 72.75 C101.70729599 74.16677307 101.85270744 75.58348431 102 77 C101.05125 77.12375 100.1025 77.2475 99.125 77.375 C95.91332809 77.71687177 95.91332809 77.71687177 94 80 C94 79.34 94 78.68 94 78 C93.43519845 78.00037972 92.87039691 78.00075944 92.28848016 78.00115067 C58.8195026 78.02352499 25.35052691 78.04068466 -8.11845646 78.05106533 C-12.13642541 78.05231605 -16.15439435 78.05361037 -20.17236328 78.05493164 C-21.37222963 78.05532511 -21.37222963 78.05532511 -22.59633569 78.05572652 C-35.55120367 78.06007874 -48.50606722 78.06796384 -61.46093257 78.0771528 C-74.75216712 78.08650177 -88.04339934 78.09205825 -101.33463705 78.09408849 C-109.53712328 78.09546113 -117.73959698 78.09979774 -125.94207935 78.10791647 C-131.56555289 78.11319925 -137.18901994 78.11480079 -142.81249578 78.11350138 C-146.05772591 78.1128604 -149.30292948 78.11439373 -152.54815674 78.11920547 C-156.06684092 78.12416772 -159.58547111 78.12298885 -163.10415649 78.12025452 C-164.64210214 78.12462378 -164.64210214 78.12462378 -166.21111739 78.12908131 C-170.92286058 78.11915921 -175.36672958 77.98395962 -180 77 C-179.85416667 75.39583333 -179.70833333 73.79166667 -179.5625 72.1875 C-179.47871094 71.18976563 -179.39492187 70.19203125 -179.30859375 69.1640625 C-179.10632656 67.09018376 -178.85021007 65.02070111 -178.53515625 62.9609375 C-178.15008811 60.23978934 -177.82789811 57.7443274 -178 55 C-180.34079757 52.64352999 -180.34079757 52.64352999 -183 51 C-183.50735484 47.89245161 -183.6813461 46.03308795 -181.91796875 43.359375 C-179.00855857 41.29730831 -176.33061901 41.47388161 -172.8125 41.3125 C-170.90404297 41.21388672 -170.90404297 41.21388672 -168.95703125 41.11328125 C-167.49330078 41.05720703 -167.49330078 41.05720703 -166 41 C-164.13669481 34.87091527 -163.07314696 28.75656832 -162.07421875 22.42578125 C-160.78308707 18.30824494 -159.57086656 17.322738 -156 15 C-153.27590752 14.5117445 -153.27590752 14.5117445 -150.271698 14.52812195 C-149.12798233 14.52432526 -147.98426666 14.52052856 -146.80589294 14.51661682 C-145.56009964 14.5326445 -144.31430634 14.54867218 -143.03076172 14.56518555 C-141.00551015 14.56657691 -138.98025857 14.56796147 -136.95500684 14.56909049 C-134.78180804 14.57400238 -132.60886061 14.58864283 -130.43572617 14.60584068 C-125.89554875 14.64057955 -121.35574548 14.64162361 -116.81546021 14.63691711 C-104.71916176 14.62942442 -92.62305885 14.66255043 -80.52691567 14.72334844 C-72.58084858 14.76324864 -64.63530197 14.78302215 -56.68913662 14.76497108 C-52.18480044 14.75631633 -47.68210427 14.77909175 -43.17802119 14.82599866 C-40.36171835 14.8479652 -37.54603809 14.84040123 -34.72971535 14.82498169 C-32.82211433 14.82307454 -30.91457438 14.85580033 -29.00727844 14.88996887 C-20.16868739 14.79663439 -14.96312151 12.31992776 -8 7 C-6.62604235 6.06097304 -5.2511784 5.12326934 -3.875 4.1875 C-0.97267846 2.31286794 -0.97267846 2.31286794 0 0 Z " fill="#494949" transform="translate(293,0)"/>
<path d="M0 0 C88.11 0 176.22 0 267 0 C267 19.13909521 267 19.13909521 266.37890625 25.5546875 C266.31468979 26.23379181 266.25047333 26.91289612 266.18431091 27.61257935 C266.05106025 29.00527084 265.91409708 30.39761275 265.77319336 31.78955078 C265.5576804 33.92270458 265.35518399 36.05682956 265.15429688 38.19140625 C264.15219559 48.54341323 264.15219559 48.54341323 263 52 C177.53 52 92.06 52 4 52 C1.62427746 27.05491329 1.62427746 27.05491329 0.875 18.125 C0.78863281 17.13371094 0.70226562 16.14242187 0.61328125 15.12109375 C0.53207031 14.15558594 0.45085937 13.19007812 0.3671875 12.1953125 C0.29612793 11.36016113 0.22506836 10.52500977 0.15185547 9.66455078 C-0.03146726 6.44785584 0 3.22191458 0 0 Z " fill="#EFEFEF" transform="translate(120,78)"/>
<path d="M0 0 C1.75787769 -0.0115082 3.51575539 -0.0230151 5.27363312 -0.03451681 C6.84629299 -0.04481773 8.41895272 -0.05513994 9.99161232 -0.06548166 C14.34742652 -0.09409278 18.70324266 -0.12231878 23.05906391 -0.14983749 C31.24836302 -0.20192947 39.43745779 -0.25852568 47.62653923 -0.33872223 C50.87235637 -0.36633843 54.11804369 -0.37704314 57.3639679 -0.3817749 C58.94510932 -0.38784836 60.52623425 -0.40177068 62.10725403 -0.42230225 C78.6991332 -0.62667447 91.67214793 2.23392521 104.25 13.6875 C112.56618005 22.33566329 114.42375993 33.02843811 114.265625 44.625 C113.43241178 55.21170909 108.37867613 61.72103571 101 69 C100.34 69.66 99.68 70.32 99 71 C99.01083475 73.02173386 99.01083475 73.02173386 100 75 C101.83324698 76.5384955 101.83324698 76.5384955 104.125 77.8125 C113.79076805 83.94949559 119.91912042 91.88440362 123 103 C124.09536081 114.94707486 123.05251874 125.8864219 115.75 135.8125 C106.76578668 146.36084388 95.13901376 153.99233299 81.00429535 155.16566467 C75.3463428 155.43112758 69.68577409 155.36994321 64.0234375 155.328125 C62.20309608 155.32506221 60.3827523 155.32319005 58.56240845 155.32244873 C54.77181857 155.31787313 50.98144441 155.30354369 47.19091797 155.28125 C42.32278608 155.25276701 37.45482195 155.24201532 32.58661461 155.2375679 C28.83955196 155.23342437 25.09252338 155.22361917 21.34547806 155.21169281 C19.54884743 155.20598537 17.75221352 155.20122824 15.95557785 155.19742584 C13.45909511 155.19059087 10.96274832 155.1769772 8.46630859 155.16113281 C7.7204248 155.16001495 6.97454102 155.15889709 6.20605469 155.15774536 C1.11470318 155.11470318 1.11470318 155.11470318 0 154 C-0.096708 152.01305149 -0.12187052 150.02260987 -0.12025452 148.03330994 C-0.12162918 146.73615555 -0.12300385 145.43900116 -0.12442017 144.10253906 C-0.12088055 142.6516111 -0.11724573 141.20068337 -0.11352539 139.74975586 C-0.11324353 138.23238629 -0.11340123 136.71501658 -0.1139679 135.19764709 C-0.11425591 131.06559484 -0.10835858 126.93357137 -0.10139394 122.80152583 C-0.09516102 118.48801108 -0.09455665 114.17449573 -0.09336853 109.86097717 C-0.09025503 101.68699883 -0.08204139 93.51303379 -0.07201904 85.33906132 C-0.06085848 76.03571031 -0.0553476 66.73235868 -0.05032361 57.42900264 C-0.03985879 38.28599421 -0.02225899 19.14299817 0 0 Z M28 25 C27.89893126 27.87264056 27.86030328 30.72073628 27.8671875 33.59375 C27.86623077 34.45560913 27.86527405 35.31746826 27.86428833 36.20544434 C27.8636065 38.03133212 27.86546096 39.85722231 27.86962891 41.68310547 C27.87497714 44.48801078 27.86968401 47.29275595 27.86328125 50.09765625 C27.86394203 51.86718786 27.86522319 53.63671936 27.8671875 55.40625 C27.86516327 56.25102905 27.86313904 57.09580811 27.86105347 57.96618652 C27.50075489 61.7918686 27.50075489 61.7918686 29 65 C34.67784607 65.29449796 40.35846134 65.31430496 46.04321289 65.35009766 C47.95674889 65.36656165 49.87022587 65.39372333 51.78344727 65.43212891 C66.78160422 66.16188155 66.78160422 66.16188155 80 60 C84.50555266 54.94012627 86.18390966 49.7471858 86 43 C85.52408105 37.10058798 83.80675087 33.03466723 80.0234375 28.5078125 C73.9717419 23.99824782 67.53946518 23.56679785 60.28515625 23.671875 C59.38880966 23.67374817 58.49246307 23.67562134 57.56895447 23.67755127 C55.69070671 23.68423094 53.81247188 23.69806308 51.93432617 23.71875 C49.04658213 23.75017321 46.15938321 23.7597528 43.27148438 23.765625 C41.44270161 23.77478526 39.61392442 23.7851579 37.78515625 23.796875 C36.4853054 23.80324982 36.4853054 23.80324982 35.15919495 23.80975342 C31.26591426 23.47518481 31.26591426 23.47518481 28 25 Z M28 87 C27.90214659 88.34544327 27.87202015 89.69592563 27.87060547 91.04492188 C27.86745331 91.90251099 27.86430115 92.7601001 27.86105347 93.64367676 C27.8630777 94.57595093 27.86510193 95.5082251 27.8671875 96.46875 C27.86623077 97.41939331 27.86527405 98.37003662 27.86428833 99.3494873 C27.86360643 101.36368882 27.86546138 103.37789252 27.86962891 105.39208984 C27.87497702 108.48670355 27.86968423 111.5811721 27.86328125 114.67578125 C27.86394203 116.62760449 27.86522319 118.57942764 27.8671875 120.53125 C27.86516327 121.46352417 27.86313904 122.39579834 27.86105347 123.35632324 C27.86420563 124.21391235 27.86735779 125.07150146 27.87060547 125.95507812 C27.87140106 126.71373169 27.87219666 127.47238525 27.87301636 128.25402832 C27.81078913 130.02877312 27.81078913 130.02877312 29 131 C30.38910719 131.11361985 31.78385374 131.1595208 33.17749023 131.17700195 C34.06609238 131.18983719 34.95469452 131.20267242 35.870224 131.21589661 C36.83988602 131.22328354 37.80954803 131.23067047 38.80859375 131.23828125 C40.30242332 131.25038887 40.30242332 131.25038887 41.82643127 131.26274109 C43.94408415 131.27660832 46.06175962 131.28731859 48.17944336 131.29516602 C51.39286092 131.3122625 54.60521837 131.35611068 57.81835938 131.40039062 C59.87759661 131.41052754 61.9368426 131.4190405 63.99609375 131.42578125 C65.42325966 131.45204338 65.42325966 131.45204338 66.8792572 131.47883606 C74.80352423 131.45355395 81.06600625 129.30908329 87.875 125.3125 C93.34777697 119.35683095 94.68622599 112.81662091 94.3828125 104.8671875 C93.60078176 99.00993683 91.34815477 95.41085965 87.3125 91.1875 C79.94196967 86.32016865 72.76705644 85.55992956 64.09375 85.671875 C63.08783813 85.67374817 62.08192627 85.67562134 61.04553223 85.67755127 C58.93787274 85.68423067 56.83022478 85.69806221 54.72265625 85.71875 C51.48165494 85.75017789 48.24113929 85.75975337 45 85.765625 C42.94791067 85.77478504 40.89582632 85.7851576 38.84375 85.796875 C37.87095093 85.80112488 36.89815186 85.80537476 35.89587402 85.80975342 C34.55812927 85.82416473 34.55812927 85.82416473 33.19335938 85.83886719 C32.40554077 85.84569519 31.61772217 85.85252319 30.80603027 85.85955811 C28.97849245 85.80478842 28.97849245 85.80478842 28 87 Z " fill="#FEFEFE" transform="translate(841,125)"/>
<path d="M0 0 C2.75417718 2.16728427 5.32358958 4.42209373 7.8671875 6.83203125 C8.65609375 7.56808594 9.445 8.30414063 10.2578125 9.0625 C18.47042843 17.40081923 26.73381538 31.01539674 26.91577148 43.04370117 C26.89973877 43.9638501 26.88370605 44.88399902 26.8671875 45.83203125 C22.43002895 45.97686167 17.99347473 46.06594877 13.5546875 46.14453125 C12.29205078 46.18642578 11.02941406 46.22832031 9.72851562 46.27148438 C8.52001953 46.28759766 7.31152344 46.30371094 6.06640625 46.3203125 C4.95096436 46.34649658 3.83552246 46.37268066 2.6862793 46.3996582 C-0.1328125 45.83203125 -0.1328125 45.83203125 -1.9309082 43.48291016 C-2.32753662 42.60812012 -2.72416504 41.73333008 -3.1328125 40.83203125 C-3.60460937 39.87425781 -4.07640625 38.91648438 -4.5625 37.9296875 C-5.03945313 36.92808594 -5.51640625 35.92648438 -6.0078125 34.89453125 C-11.43687017 24.07614072 -18.45084444 18.76392836 -29.8203125 14.51953125 C-44.85891842 9.94256423 -60.16309365 11.2559657 -74.0703125 18.51953125 C-85.84646934 25.12625411 -92.75357565 34.11327298 -97.1328125 46.83203125 C-101.86037644 64.00391534 -100.84125863 81.05451186 -92.125 96.71484375 C-84.44762561 108.72767662 -74.07433142 116.13024991 -60.23779297 119.54907227 C-45.60785619 122.56345258 -30.77724511 119.71632981 -17.765625 112.5234375 C-9.76551427 107.19506186 -6.16195109 98.16432199 -2.11328125 89.765625 C-1.1328125 87.83203125 -1.1328125 87.83203125 -0.1328125 86.83203125 C1.86683732 86.74445122 3.8695486 86.72506549 5.87109375 86.734375 C7.69350586 86.73920898 7.69350586 86.73920898 9.55273438 86.74414062 C10.83212891 86.75251953 12.11152344 86.76089844 13.4296875 86.76953125 C14.71294922 86.77404297 15.99621094 86.77855469 17.31835938 86.78320312 C20.50134772 86.7950358 23.68424512 86.81152057 26.8671875 86.83203125 C25.90371398 101.15830735 20.07425734 111.92720385 10.8671875 122.83203125 C10.32578125 123.486875 9.784375 124.14171875 9.2265625 124.81640625 C-3.67536789 139.02156193 -24.06401064 145.98674787 -42.75390625 147.03515625 C-60.93771766 147.25849887 -78.24826081 143.92415885 -93.1328125 132.83203125 C-93.78507813 132.38214844 -94.43734375 131.93226563 -95.109375 131.46875 C-111.6036783 119.80445185 -124.0280553 101.71680669 -127.703125 81.73046875 C-128.263342 76.6477727 -128.31699669 71.62918946 -128.3203125 66.51953125 C-128.33255859 65.53791016 -128.34480469 64.55628906 -128.35742188 63.54492188 C-128.39974606 42.22764085 -119.67160784 25.00294813 -105.1328125 9.83203125 C-104.48441406 9.12046875 -103.83601563 8.40890625 -103.16796875 7.67578125 C-76.66025202 -20.51238378 -30.6659567 -21.22145383 0 0 Z " fill="#FEFEFE" transform="translate(606.1328125,136.16796875)"/>
<path d="M0 0 C8.58 0 17.16 0 26 0 C26.02311719 20.58336875 26.0409783 41.16673439 26.05181217 61.75011349 C26.05697551 71.30663939 26.06401892 80.86315709 26.07543945 90.41967773 C26.08538514 98.74602007 26.09185315 107.07235648 26.09408849 115.39870459 C26.0953958 119.81024857 26.09848288 124.22177557 26.10573006 128.63331413 C26.11248846 132.78070387 26.11461733 136.92806953 26.11310768 141.07546425 C26.11338409 142.6021373 26.11539028 144.12881112 26.11920547 145.65547943 C26.12413994 147.73083459 26.12299923 149.80609742 26.12025452 151.88145447 C26.12117631 153.04567901 26.1220981 154.20990355 26.12304783 155.40940762 C26 158 26 158 25 159 C23.30441274 159.09932153 21.60474253 159.13080007 19.90625 159.1328125 C18.87628906 159.13410156 17.84632812 159.13539063 16.78515625 159.13671875 C15.15900391 159.13091797 15.15900391 159.13091797 13.5 159.125 C12.41589844 159.12886719 11.33179688 159.13273438 10.21484375 159.13671875 C9.18488281 159.13542969 8.15492187 159.13414062 7.09375 159.1328125 C6.14177734 159.13168457 5.18980469 159.13055664 4.20898438 159.12939453 C2 159 2 159 1 158 C0.76346477 155.47403741 0.57826308 152.96892793 0.4375 150.4375 C0.37272461 149.37112305 0.37272461 149.37112305 0.30664062 148.28320312 C0.20028223 146.52238088 0.09961154 144.7612168 0 143 C-3.28227023 144.41701534 -5.22893771 146.11942949 -7.625 148.75 C-16.80096841 158.06115763 -27.59282334 161.99645577 -40.625 162.3125 C-56.05753678 161.73350151 -68.52820761 156.3621719 -79.59765625 145.6015625 C-91.88804184 132.29197421 -97.8301034 115.74947648 -97.34375 97.6328125 C-95.5223536 78.38396422 -87.15153437 62.32227113 -72.45703125 49.83984375 C-66.74245978 45.56072902 -60.78802454 43.1007863 -54 41 C-53.01 40.67 -52.02 40.34 -51 40 C-35.80203727 38.65627769 -23.20748845 40.31188065 -11 50 C-8.51559772 52.19968335 -6.07851564 54.40686795 -4 57 C-4 57.66 -4 58.32 -4 59 C-3.01 58.67 -2.02 58.34 -1 58 C-0.67 38.86 -0.34 19.72 0 0 Z M-61 75 C-69.13594334 86.74097392 -71.27005514 97.84367278 -68.796875 111.9140625 C-67.61600207 116.48705082 -65.64570575 120.12126472 -63 124 C-62.46375 124.886875 -61.9275 125.77375 -61.375 126.6875 C-54.55587438 133.32717495 -45.21778194 136.9456576 -35.8125 137.375 C-25.51301803 137.13482004 -16.18686813 133.44354199 -9 126 C-2.83830428 118.0816805 0.69900902 108.34050272 0.28515625 98.24609375 C-1.01946991 87.96992882 -5.42839139 78.13690449 -13.58203125 71.57421875 C-28.04838995 62.15589475 -48.66738165 61.46419937 -61 75 Z " fill="#3BDC97" transform="translate(1593,121)"/>
<path d="M0 0 C1.1653125 -0.00128906 2.330625 -0.00257812 3.53125 -0.00390625 C4.7584375 -0.00003906 5.985625 0.00382812 7.25 0.0078125 C9.09078125 0.00201172 9.09078125 0.00201172 10.96875 -0.00390625 C12.71671875 -0.00197266 12.71671875 -0.00197266 14.5 0 C15.57765625 0.00112793 16.6553125 0.00225586 17.765625 0.00341797 C20.25 0.1328125 20.25 0.1328125 21.25 1.1328125 C21.3487888 4.19952472 21.38297378 7.24437615 21.37597656 10.31152344 C21.3778447 11.27589828 21.37971283 12.24027313 21.38163757 13.23387146 C21.38565352 15.3379057 21.3877175 17.44194433 21.38809967 19.54598236 C21.39150886 24.02960779 21.41287424 28.5130874 21.43333054 32.99666214 C21.47133925 41.34951792 21.50262652 49.70222376 21.50048828 58.05517578 C21.49969736 63.85965973 21.52323683 69.66361773 21.5623703 75.46796417 C21.57278312 77.67331828 21.57438942 79.87873346 21.56671906 82.08409882 C21.52117157 96.64517673 21.82580977 109.70279255 31.6015625 121.48828125 C37.45599495 127.32884064 44.315113 129.4215961 52.25 131.1328125 C53.508125 131.4215625 54.76625 131.7103125 56.0625 132.0078125 C64.86448678 132.87714453 74.11689295 129.8649833 81.48046875 125.21875 C83.25 124.1328125 83.25 124.1328125 86.25 123.1328125 C87.34403788 121.31043278 87.34403788 121.31043278 88.25 119.1328125 C89.07875229 117.67187096 89.91226963 116.21362443 90.75 114.7578125 C95.63498674 105.96483637 96.39196166 97.42624277 96.43945312 87.54150391 C96.44774643 86.60574524 96.45603973 85.66998657 96.46458435 84.70587158 C96.48190868 82.6854173 96.49709585 80.66494378 96.51036072 78.64445877 C96.53146995 75.45110201 96.55848105 72.257843 96.58703613 69.06454468 C96.6566949 61.14154968 96.71642386 53.21848588 96.77606201 45.29541016 C96.82690134 38.58509342 96.8816632 31.87483211 96.94187927 25.16459274 C96.96852641 22.01083753 96.98928865 18.85707727 97.0098877 15.70327759 C97.02647976 13.78476713 97.04335062 11.86625905 97.06054688 9.94775391 C97.06473129 9.0646756 97.06891571 8.18159729 97.07322693 7.27175903 C97.13614333 1.24666917 97.13614333 1.24666917 98.25 0.1328125 C100.16458282 0.03309464 102.08282317 0.00200661 104 0 C105.1653125 -0.00128906 106.330625 -0.00257812 107.53125 -0.00390625 C108.7584375 -0.00003906 109.985625 0.00382812 111.25 0.0078125 C113.09078125 0.00201172 113.09078125 0.00201172 114.96875 -0.00390625 C116.71671875 -0.00197266 116.71671875 -0.00197266 118.5 0 C119.57765625 0.00112793 120.6553125 0.00225586 121.765625 0.00341797 C124.25 0.1328125 124.25 0.1328125 125.25 1.1328125 C125.36674317 4.24995807 125.4180439 7.34522182 125.42700195 10.46337891 C125.43357315 11.44404831 125.44014435 12.42471771 125.44691467 13.43510437 C125.46672247 16.70152864 125.47833419 19.9679065 125.48828125 23.234375 C125.49235678 24.35108959 125.4964323 25.46780418 125.50063133 26.61835861 C125.52153571 32.54244555 125.53581173 38.4665091 125.54516602 44.390625 C125.5561679 50.48193628 125.59048276 56.5728759 125.63033772 62.66405678 C125.65663881 67.3673261 125.66487037 72.0705093 125.66844749 76.77384567 C125.67328805 79.01667125 125.68482878 81.25949365 125.70348549 83.50224686 C125.87149824 105.06033974 123.36597152 123.40293566 107.5625 139.5078125 C93.42340698 153.32509201 76.85234075 158.57326043 57.24389648 158.36035156 C40.13946868 157.92902782 24.77954846 153.15855044 12.25 141.1328125 C11.47140625 140.39417969 10.6928125 139.65554688 9.890625 138.89453125 C-6.27638572 122.32063268 -7.20479832 103.1094883 -7.078125 81.24609375 C-7.0750634 78.93393578 -7.07319033 76.62177596 -7.07244873 74.30961609 C-7.06786777 69.48929675 -7.0535183 64.66914654 -7.03125 59.84887695 C-7.00279421 53.65687588 -6.99201863 47.46500663 -6.9875679 41.27294636 C-6.98342442 36.51106948 -6.97361881 31.74921943 -6.96169281 26.98735619 C-6.95598286 24.70228477 -6.95122656 22.41721078 -6.94742584 20.13213539 C-6.94059267 16.95563772 -6.92697905 13.77924705 -6.91113281 10.6027832 C-6.91001495 9.65275421 -6.90889709 8.70272522 -6.90774536 7.72390747 C-6.85645517 0.00717631 -6.85645517 0.00717631 0 0 Z " fill="#FEFEFE" transform="translate(672.75,124.8671875)"/>
<path d="M0 0 C1.37345714 0.00223852 1.37345714 0.00223852 2.77466089 0.00452226 C3.77174323 0.01132605 4.76882558 0.01812984 5.79612255 0.02513981 C7.39511616 0.0299835 7.39511616 0.0299835 9.02641267 0.03492504 C12.60399774 0.04700409 16.18150623 0.06637626 19.75905895 0.08570194 C22.32133855 0.09584431 24.88361995 0.10553803 27.44590282 0.11481571 C32.96523141 0.13581168 38.48453231 0.15993372 44.00383472 0.18689632 C51.9838026 0.22587424 59.9637862 0.25921883 67.94378486 0.29119159 C80.89101732 0.34321897 93.83822574 0.39979783 106.78542614 0.4592371 C119.36191401 0.51696472 131.93840835 0.57254994 144.51491833 0.62525272 C145.67787618 0.6301273 145.67787618 0.6301273 146.86432812 0.63510036 C150.75383333 0.65139013 154.64333871 0.66763778 158.53284419 0.68386447 C190.79667417 0.81852102 223.0604677 0.96056339 255.3242445 1.10743046 C255.3242445 1.43743046 255.3242445 1.76743046 255.3242445 2.10743046 C196.2542445 2.10743046 137.1842445 2.10743046 76.3242445 2.10743046 C77.7061195 18.50430546 79.0879945 34.90118046 80.5117445 51.79493046 C81.33786071 61.61909971 82.16383367 71.44327965 82.988307 81.26758671 C83.08750061 82.44953176 83.18669422 83.63147682 83.2888937 84.8492384 C83.69187683 89.65129612 84.0948265 94.45335665 84.49764347 99.25542831 C85.00673858 105.32445978 85.51629843 111.39345178 86.02649307 117.4623909 C86.71249121 125.6234001 87.39501892 133.78468419 88.07195568 141.94645023 C88.28027437 144.45190911 88.48987018 146.95726215 88.7008009 149.46250248 C88.98633838 152.85688597 89.26728811 156.25161704 89.54690075 159.64649296 C89.62769878 160.59467396 89.70849682 161.54285496 89.79174328 162.51976871 C89.89883114 163.83860806 89.89883114 163.83860806 90.00808239 165.18409061 C90.10060032 166.29549915 90.10060032 166.29549915 90.1949873 167.42936039 C90.38266124 171.31776244 90.3242445 175.214502 90.3242445 179.10743046 C116.0642445 179.10743046 141.8042445 179.10743046 168.3242445 179.10743046 C168.3242445 179.43743046 168.3242445 179.76743046 168.3242445 180.10743046 C156.14162202 180.13101594 143.95900532 180.14857317 131.77636433 180.15924263 C126.11425606 180.16437364 120.45216384 180.17128329 114.79006481 180.18286991 C85.61841565 180.24101439 56.48364602 179.98179229 27.3242445 179.10743046 C27.3242445 178.77743046 27.3242445 178.44743046 27.3242445 178.10743046 C31.9442445 178.10743046 36.5642445 178.10743046 41.3242445 178.10743046 C41.21878307 176.762616 41.11332165 175.41780155 41.00466442 174.03223515 C38.86774348 146.73377957 36.80998187 119.43337316 34.99383068 92.1116724 C34.40661823 83.29358836 33.80427834 74.47656651 33.20084858 65.65958118 C32.85283022 60.57102803 32.50607813 55.48238842 32.15933418 50.39374828 C31.87023187 46.15198706 31.58050965 41.91027015 31.28936291 37.66864872 C31.01340288 33.64725265 30.73943315 29.62572554 30.46689129 25.60409641 C30.36495706 24.10504915 30.26231495 22.60604983 30.15892315 21.10710239 C30.01593752 19.03262796 29.87548326 16.95799642 29.73562145 14.88330936 C29.61595768 13.13046131 29.61595768 13.13046131 29.49387646 11.34220219 C29.33264645 8.26765023 29.3242445 5.18620698 29.3242445 2.10743046 C16.7842445 2.10743046 4.2442445 2.10743046 -8.6757555 2.10743046 C-9.0057555 3.75743046 -9.3357555 5.40743046 -9.6757555 7.10743046 C-10.9957555 6.77743046 -12.3157555 6.44743046 -13.6757555 6.10743046 C-12.6857555 5.77743046 -11.6957555 5.44743046 -10.6757555 5.10743046 C-9.94251754 3.09234688 -9.94251754 3.09234688 -9.6757555 1.10743046 C-6.39011572 0.37331312 -3.36433037 -0.01459228 0 0 Z " fill="#C89A70" transform="translate(127.67575550079346,128.89256954193115)"/>
<path d="M0 0 C1.18335938 0.5259375 1.18335938 0.5259375 2.390625 1.0625 C16.40747725 8.1199361 28.427573 20.73671253 33.93359375 35.50390625 C39.00347064 51.39275488 38.3447819 68.85797451 31.5390625 84.12109375 C28.9538321 88.95691813 25.67831601 92.95650821 22 97 C21.28585937 97.79535156 20.57171875 98.59070313 19.8359375 99.41015625 C7.76128699 112.18880582 -7.44288862 117.64106964 -24.8125 118.3125 C-44.05776293 117.78051712 -59.05942555 110.52116879 -72.35546875 96.51953125 C-84.18972129 82.55378107 -87.36817814 65.82397207 -86 48 C-83.67874576 30.18280532 -73.35499046 16.22772119 -59.5 5.5 C-54.30941629 1.92591236 -49.02477754 -0.24132216 -43 -2 C-41.96617188 -2.35578125 -40.93234375 -2.7115625 -39.8671875 -3.078125 C-27.16900243 -6.1051671 -11.93741833 -5.36830647 0 0 Z M-52 33 C-58.70574419 44.20565147 -60.97650885 55.30796263 -58.3515625 68.1796875 C-55.31938184 77.32806162 -50.62858512 83.9722072 -42 88.4375 C-30.73789131 93.49424283 -22.79160286 94.10048057 -11.125 90.265625 C-1.7087223 86.45203253 4.20725735 79.43331405 8.203125 70.24609375 C11.57023966 60.75545194 10.8932638 50.19691751 7 41 C2.61184359 31.78623856 -2.79508637 26.55670803 -12.1875 22.625 C-26.00114654 18.10936658 -42.647828 21.22476526 -52 33 Z " fill="#3BDC97" transform="translate(1435,165)"/>
<path d="M0 0 C13.32083013 10.5794419 23.33125574 23.83029134 26 41 C27.17837126 60.40095968 24.45300892 76.22728894 11.5 91.33203125 C0.1465116 103.44833216 -13.35469512 110.81730729 -30 112 C-30.8146875 112.06960938 -31.629375 112.13921875 -32.46875 112.2109375 C-49.63732465 112.95490907 -64.89421231 106.88174841 -77.64453125 95.67578125 C-90.24036086 83.6464807 -96.76826541 68.81848409 -97.25 51.4375 C-97.07207369 34.65904856 -91.57518726 20.21713872 -80 8 C-73.09794853 1.4382654 -65.78765466 -3.34433566 -57 -7 C-56.19820312 -7.3403125 -55.39640625 -7.680625 -54.5703125 -8.03125 C-36.70053182 -14.19718071 -15.398661 -10.32669847 0 0 Z M-60.5078125 24.140625 C-68.36868026 33.93584242 -71.22487019 44.62881111 -70 57 C-67.73778547 67.38562123 -63.10085844 75.54318511 -54.33203125 81.6796875 C-46.04619596 86.37083043 -37.34479531 88.5756663 -28.05859375 86.26953125 C-18.42283511 83.31488686 -10.7127512 79.68516213 -5.6875 70.63671875 C-0.44173005 60.57735876 0.86408613 49.74518676 -2.1875 38.625 C-5.85723513 28.21319335 -12.17052534 21.59872509 -22.0078125 16.76171875 C-34.53522611 11.97182531 -50.78272222 14.75421946 -60.5078125 24.140625 Z " fill="#3BDC97" transform="translate(1298,171)"/>
<path d="M0 0 C13.67302562 -0.0231205 27.34604664 -0.04091359 41.01908779 -0.05181217 C47.36730576 -0.05704164 53.7155104 -0.06414044 60.0637207 -0.07543945 C66.18448582 -0.08626606 72.30523809 -0.09227635 78.42601204 -0.09487724 C80.76690943 -0.0967319 83.10780609 -0.10035329 85.44869804 -0.10573006 C88.71508202 -0.11293748 91.98141215 -0.11399107 95.24780273 -0.11352539 C96.226035 -0.11712067 97.20426727 -0.12071594 98.21214294 -0.12442017 C99.09700378 -0.1230455 99.98186462 -0.12167084 100.89353943 -0.12025452 C101.66692374 -0.12117631 102.44030806 -0.1220981 103.23712826 -0.12304783 C105 0 105 0 106 1 C106.09932153 2.69558726 106.13080007 4.39525747 106.1328125 6.09375 C106.13410156 7.12371094 106.13539062 8.15367187 106.13671875 9.21484375 C106.13285156 10.29894531 106.12898438 11.38304687 106.125 12.5 C106.12886719 13.58410156 106.13273437 14.66820312 106.13671875 15.78515625 C106.13542969 16.81511719 106.13414063 17.84507812 106.1328125 18.90625 C106.13168457 19.85822266 106.13055664 20.81019531 106.12939453 21.79101562 C106 24 106 24 105 25 C102.62798453 25.12486954 100.28359657 25.18600052 97.90991211 25.20532227 C97.16849472 25.21522186 96.42707733 25.22512146 95.66319275 25.23532104 C93.20127607 25.26702466 90.73934007 25.29172826 88.27734375 25.31640625 C86.57482895 25.33696814 84.87231935 25.3579644 83.16981506 25.37937927 C78.68012691 25.43467899 74.19039208 25.48405328 69.70062256 25.53222656 C64.31830468 25.59119654 58.93607244 25.65746779 53.55382538 25.72252655 C45.36926904 25.82063542 37.18465879 25.90942337 29 26 C29 40.52 29 55.04 29 70 C61.67 70.495 61.67 70.495 95 71 C95 78.26 95 85.52 95 93 C93.18502618 94.81497382 90.36404428 94.17235393 87.91967773 94.20532227 C85.96776772 94.2352401 85.96776772 94.2352401 83.97642517 94.26576233 C82.5454826 94.28274799 81.11453875 94.29962675 79.68359375 94.31640625 C78.2277008 94.33696906 76.77181391 94.35796534 75.31593323 94.37937927 C71.47727353 94.43466961 67.63855935 94.48404802 63.79980469 94.53222656 C59.88536712 94.58239091 55.97100904 94.63810336 52.05664062 94.69335938 C44.37116099 94.80102603 36.68561543 94.90245193 29 95 C28.9845388 96.10540382 28.9845388 96.10540382 28.96876526 97.23313904 C28.87095357 104.16421076 28.76846284 111.09519902 28.66066074 118.02612209 C28.60539973 121.58972968 28.55197482 125.15334543 28.50268555 128.71704102 C28.44599468 132.81015245 28.38142682 136.9031061 28.31640625 140.99609375 C28.29133751 142.92418129 28.29133751 142.92418129 28.26576233 144.89122009 C28.24581711 146.07236893 28.22587189 147.25351776 28.20532227 148.47045898 C28.18977798 149.51636703 28.1742337 150.56227509 28.15821838 151.63987732 C28 154 28 154 27 155 C25.08541718 155.09971786 23.16717683 155.13080589 21.25 155.1328125 C20.0846875 155.13410156 18.919375 155.13539063 17.71875 155.13671875 C16.4915625 155.13285156 15.264375 155.12898437 14 155.125 C12.7728125 155.12886719 11.545625 155.13273438 10.28125 155.13671875 C9.1159375 155.13542969 7.950625 155.13414062 6.75 155.1328125 C5.67234375 155.13168457 4.5946875 155.13055664 3.484375 155.12939453 C1 155 1 155 0 154 C-0.096708 152.01305149 -0.12187052 150.02260987 -0.12025452 148.03330994 C-0.12162918 146.73615555 -0.12300385 145.43900116 -0.12442017 144.10253906 C-0.12088055 142.6516111 -0.11724573 141.20068337 -0.11352539 139.74975586 C-0.11324353 138.23238629 -0.11340123 136.71501658 -0.1139679 135.19764709 C-0.11425591 131.06559484 -0.10835858 126.93357137 -0.10139394 122.80152583 C-0.09516102 118.48801108 -0.09455665 114.17449573 -0.09336853 109.86097717 C-0.09025503 101.68699883 -0.08204139 93.51303379 -0.07201904 85.33906132 C-0.06085848 76.03571031 -0.0553476 66.73235868 -0.05032361 57.42900264 C-0.03985879 38.28599421 -0.02225899 19.14299817 0 0 Z " fill="#3BDC97" transform="translate(1072,125)"/>
<path d="M0 0 C2.05650684 19.53130453 3.6237273 39.06497736 4.93798828 58.65917969 C5.63080337 68.94984816 6.36600197 79.22709756 7.44165039 89.48657227 C8.00809637 95.08320515 8 100.28714189 8 106 C-21.7 106 -51.4 106 -82 106 C-82 73.48396794 -82 73.48396794 -79 61 C-78.8443457 60.31405762 -78.68869141 59.62811523 -78.52832031 58.92138672 C-73.74462547 38.56919998 -59.39221665 23.12340834 -41.890625 12.22265625 C-29.58677136 4.9591951 -14.33813181 -0.40921123 0 0 Z " fill="#FEA03C" transform="translate(118,136)"/>
<path d="M0 0 C1.14901495 0.00138269 1.14901495 0.00138269 2.32124233 0.00279331 C3.19768902 0.00141865 4.0741357 0.00004398 4.97714138 -0.00137234 C6.43046368 0.00402058 6.43046368 0.00402058 7.91314602 0.00952244 C8.92766338 0.00937641 9.94218075 0.00923038 10.98744106 0.00907993 C14.35844936 0.00977954 17.72940317 0.01757414 21.10040188 0.02539158 C23.43067806 0.02725559 25.76095463 0.02867957 28.09123135 0.0296793 C34.23811828 0.03350581 40.38498176 0.04333723 46.5318594 0.05438328 C52.79884429 0.06459454 59.06583295 0.06917631 65.33282375 0.0742197 C77.63947471 0.08495938 89.94610822 0.10203739 102.25274563 0.12304783 C103.85962051 3.33679759 103.61703019 6.8738645 103.78790188 10.41211033 C103.85236759 11.63974598 103.85236759 11.63974598 103.91813564 12.89218235 C104.054673 15.5106082 104.18502771 18.12930083 104.31524563 20.74804783 C104.406636 22.52150632 104.49842779 24.29494418 104.59063625 26.06836033 C104.81600087 30.4196969 105.03582046 34.7712827 105.25274563 39.12304783 C106.0152261 39.42629978 106.77770657 39.72955173 107.5632925 40.04199314 C109.47937277 40.81218227 111.38538189 41.60762932 113.28399563 42.41992283 C137.00148664 52.35562852 161.79547457 56.49430788 187.25274563 59.12304783 C187.25274563 59.45304783 187.25274563 59.78304783 187.25274563 60.12304783 C169.01628564 60.14637592 150.77982951 60.16402656 132.54335785 60.17486 C124.07644624 60.18002315 115.60954388 60.1870662 107.14263821 60.19848728 C99.76557469 60.20843355 92.38851788 60.21490112 85.01144785 60.21713632 C81.10292509 60.21844353 77.19442151 60.22153 73.28590488 60.22877789 C69.61128121 60.2355372 65.9366847 60.23766497 62.2620554 60.23615551 C60.26194952 60.2365642 58.26184665 60.24195987 56.26174831 60.24746799 C54.49271397 60.245406 54.49271397 60.245406 52.68794155 60.24330235 C51.6564552 60.24422414 50.62496885 60.24514593 49.56222534 60.24609566 C47.25274563 60.12304783 47.25274563 60.12304783 46.25274563 59.12304783 C44.17687796 58.79082436 42.09980057 58.46476952 40.01788235 58.17285252 C25.73278985 56.16498386 12.98607731 53.62520952 3.37774563 41.93554783 C-1.96449516 33.41390668 -2.25426959 22.69543667 -2.49725437 12.93554783 C-2.53979343 11.80568455 -2.5823325 10.67582127 -2.62616062 9.5117197 C-2.8215813 3.50072439 -2.8215813 3.50072439 -2.74725437 1.12304783 C-1.74725437 0.12304783 -1.74725437 0.12304783 0 0 Z " fill="#FC9F3D" transform="translate(37.747254371643066,339.8769521713257)"/>
<path d="M0 0 C0.66 0.66 1.32 1.32 2 2 C3.64991582 2.70710678 5.31562256 3.37943989 7 4 C5.65566313 23.64182687 4.10731379 43.26187857 2.43992615 62.87858224 C2.24697658 65.14885526 2.05441473 67.41916091 1.86193848 69.68947411 C1.25619999 76.83201496 0.64880316 83.97441204 0.0390892 91.11661464 C-0.65922226 99.29712352 -1.35157093 107.47810996 -2.0390892 115.65953285 C-2.57608514 122.04528751 -3.11841635 128.43057526 -3.66476822 134.8155362 C-3.98900363 138.60617779 -4.31099922 142.39697671 -4.62731934 146.18828773 C-4.92329381 149.73415217 -5.22590006 153.27938923 -5.53355408 156.8242588 C-5.69764279 158.73428177 -5.85486093 160.64489112 -6.01184082 162.55551147 C-7.02853415 174.12253064 -7.02853415 174.12253064 -9 179 C-9.99 179.33 -10.98 179.66 -12 180 C-12.33 181.65 -12.66 183.3 -13 185 C-13.33 185 -13.66 185 -14 185 C-14 183.02 -14 181.04 -14 179 C-22.91 179 -31.82 179 -41 179 C-41 170.97182112 -40.92963601 163.25940883 -40.23730469 155.31176758 C-40.15594772 154.32704468 -40.07459076 153.34232178 -39.99076843 152.32775879 C-39.72283 149.09957413 -39.44736032 145.87207986 -39.171875 142.64453125 C-38.97918146 140.33912712 -38.78699284 138.03368074 -38.59527588 135.72819519 C-38.08856088 129.649574 -37.57559225 123.5714972 -37.06109619 117.49353027 C-36.45396496 110.30968003 -35.85356146 103.12526564 -35.25255585 95.9409008 C-35.15418678 94.7650297 -35.05581772 93.58915859 -34.95446777 92.37765503 C-34.80717476 90.61690454 -34.80717476 90.61690454 -34.65690613 88.82058334 C-34.35998431 85.27680335 -34.06176103 81.73313478 -33.76330566 78.18948364 C-32.76070375 66.26319533 -31.78152096 54.33553624 -30.84570312 42.40380859 C-30.75369251 41.23449515 -30.6616819 40.06518171 -30.56688309 38.86043453 C-30.12904992 33.29118542 -29.69530739 27.72166999 -29.26849365 22.15156555 C-29.11435273 20.1787512 -28.96008374 18.20594685 -28.80566406 16.2331543 C-28.73842384 15.3354727 -28.67118362 14.4377911 -28.60190582 13.51290703 C-28.53703728 12.69316965 -28.47216873 11.87343227 -28.40533447 11.02885437 C-28.35082249 10.31862971 -28.2963105 9.60840506 -28.24014664 8.87665844 C-28 7 -28 7 -27 4 C-18.09 4 -9.18 4 0 4 C0 2.68 0 1.36 0 0 Z " fill="#AC8059" transform="translate(383,127)"/>
<path d="M0 0 C25.41 0 50.82 0 77 0 C81.50333087 7.88082902 81.50333087 7.88082902 82.484375 13.5625 C82.69707031 14.77164062 82.90976562 15.98078125 83.12890625 17.2265625 C83.33386719 18.47179687 83.53882813 19.71703125 83.75 21 C83.97042969 22.24523437 84.19085938 23.49046875 84.41796875 24.7734375 C85.43629939 30.70632038 86 35.92230798 86 42 C27.59 42 -30.82 42 -91 42 C-90.28821105 37.72926632 -89.72243859 34.87707212 -88.15234375 31.0390625 C-87.61577148 29.71455078 -87.61577148 29.71455078 -87.06835938 28.36328125 C-86.69517578 27.45964844 -86.32199219 26.55601563 -85.9375 25.625 C-85.56044922 24.69816406 -85.18339844 23.77132813 -84.79492188 22.81640625 C-83.86873604 20.54197521 -82.93697332 18.27000333 -82 16 C-81.26243469 16.0030162 -80.52486938 16.00603241 -79.76495361 16.00914001 C-72.763398 16.03152264 -65.76287635 16.01991709 -58.76150894 15.97153378 C-55.16314434 15.94782824 -51.56569893 15.93659071 -47.96728516 15.95532227 C-44.48478781 15.97296704 -41.00392901 15.95593518 -37.52162933 15.91632271 C-35.5677671 15.90270711 -33.6137602 15.9236517 -31.65997314 15.94554138 C-22.41248076 15.797837 -16.50443787 13.3181585 -9 8 C-8.15439514 7.4075499 -7.30879028 6.81509979 -6.43756104 6.20469666 C-2.63054606 3.62793411 -2.63054606 3.62793411 0 0 Z " fill="#49494A" transform="translate(293,0)"/>
<path d="M0 0 C1.14278412 -0.00549866 2.28556824 -0.01099731 3.46298218 -0.0166626 C4.7073555 -0.00228149 5.95172882 0.01209961 7.23381042 0.0269165 C8.55127258 0.0263324 9.86873474 0.02574829 11.22612 0.02514648 C14.83130009 0.02400024 18.43594633 0.04749439 22.04100251 0.07544231 C25.81127344 0.10047119 29.58155701 0.10279913 33.35189819 0.10754395 C40.48816695 0.1199694 47.62419018 0.15278502 54.76035088 0.1929419 C62.88603326 0.23767313 71.01172744 0.25965002 79.13750231 0.27972364 C95.84968031 0.32151818 112.56161148 0.39186166 129.27360535 0.48101807 C129.27360535 0.81101807 129.27360535 1.14101807 129.27360535 1.48101807 C109.14360535 1.48101807 89.01360535 1.48101807 68.27360535 1.48101807 C67.28360535 4.78101807 66.29360535 8.08101807 65.27360535 11.48101807 C63.29360535 16.76101807 61.31360535 22.04101807 59.27360535 27.48101807 C117.68360535 27.48101807 176.09360535 27.48101807 236.27360535 27.48101807 C236.60360535 26.82101807 236.93360535 26.16101807 237.27360535 25.48101807 C237.60360535 25.81101807 237.93360535 26.14101807 238.27360535 26.48101807 C241.53959322 26.68599638 244.80376489 26.80058652 248.0743866 26.90679932 C251.80419964 27.57625294 252.99910795 28.50878838 255.27360535 31.48101807 C255.83610535 33.98101807 255.83610535 33.98101807 255.27360535 36.48101807 C252.89860535 38.66851807 252.89860535 38.66851807 250.27360535 40.48101807 C249.61360535 41.14101807 248.95360535 41.80101807 248.27360535 42.48101807 C248.27360535 41.82101807 248.27360535 41.16101807 248.27360535 40.48101807 C247.69149632 40.48253695 247.1093873 40.48405583 246.50963861 40.48562074 C212.02199028 40.57510041 177.5343651 40.64374776 143.04662539 40.68527938 C138.90719729 40.69028231 134.76776943 40.69545959 130.62834167 40.70074463 C129.80424355 40.70179387 128.98014543 40.70284311 128.13107463 40.70392415 C114.78103879 40.72133736 101.43107173 40.75288008 88.08107672 40.78962925 C74.38643659 40.8270132 60.69183252 40.84924852 46.99714345 40.85737205 C38.54429289 40.86286512 30.09163673 40.88022484 21.638846 40.91268393 C15.84529227 40.93380042 10.05183929 40.94022464 4.25824986 40.93502358 C0.91370611 40.93245723 -2.43022287 40.93861164 -5.77475357 40.95783997 C-9.39914132 40.9776606 -13.02268865 40.97298528 -16.64709473 40.96203613 C-17.70643225 40.9736875 -18.76576977 40.98533886 -19.85720843 40.9973433 C-24.30558261 40.96087149 -26.98582849 40.91175473 -30.8876009 38.64236069 C-32.72639465 36.48101807 -32.72639465 36.48101807 -33.22639465 33.41851807 C-32.72639465 30.48101807 -32.72639465 30.48101807 -31.6443634 28.84039307 C-28.73495322 26.77832638 -26.05701367 26.95489967 -22.53889465 26.79351807 C-20.63043762 26.69490479 -20.63043762 26.69490479 -18.6834259 26.59429932 C-17.70760559 26.5569165 -16.73178528 26.51953369 -15.72639465 26.48101807 C-13.86308946 20.35193334 -12.79954162 14.23758639 -11.8006134 7.90679932 C-9.90474558 1.86070448 -6.12046345 -0.02277382 0 0 Z " fill="#555658" transform="translate(142.7263946533203,14.51898193359375)"/>
<path d="M0 0 C4.47915328 -0.02886338 8.95828291 -0.04675187 13.4375 -0.0625 C14.71689453 -0.07087891 15.99628906 -0.07925781 17.31445312 -0.08789062 C19.13686523 -0.09272461 19.13686523 -0.09272461 20.99609375 -0.09765625 C22.12200928 -0.10289307 23.2479248 -0.10812988 24.40795898 -0.11352539 C27 0 27 0 28 1 C28.1010467 2.95700135 28.13077376 4.91769798 28.13371277 6.87730408 C28.13797775 8.15473984 28.14224274 9.4321756 28.14663696 10.74832153 C28.1462874 12.17718509 28.14582584 13.60604862 28.14526367 15.03491211 C28.14825354 16.52933334 28.15165566 18.02375379 28.15544128 19.51817322 C28.16430306 23.58837052 28.16662031 27.65854683 28.16725707 31.72875285 C28.16820436 35.12108985 28.17188057 38.51342191 28.17542917 41.90575701 C28.18358199 49.90616801 28.18601265 57.90656775 28.18530273 65.90698242 C28.18470171 74.17250049 28.19525656 82.43795335 28.2110464 90.70345491 C28.22410172 97.78880114 28.22948748 104.87412599 28.22884732 111.95948416 C28.22859174 116.19612101 28.23147576 120.43269995 28.24202538 124.66932487 C28.2516727 128.65260605 28.25180885 132.63577354 28.24450874 136.61905861 C28.24345869 138.08403564 28.24585055 139.54901963 28.2518692 141.01398468 C28.2595326 143.00787975 28.25377075 145.00181318 28.24723816 146.99571228 C28.24778293 148.11347014 28.24832769 149.23122801 28.24888897 150.38285732 C28 153 28 153 26 155 C23.49389648 155.24291992 23.49389648 155.24291992 20.37109375 155.23046875 C19.25412109 155.22853516 18.13714844 155.22660156 16.98632812 155.22460938 C15.81521484 155.21236328 14.64410156 155.20011719 13.4375 155.1875 C12.26251953 155.18685547 11.08753906 155.18621094 9.87695312 155.18554688 C1.14012141 155.14012141 1.14012141 155.14012141 0 154 C-0.096708 152.01305149 -0.12187052 150.02260987 -0.12025452 148.03330994 C-0.12162918 146.73615555 -0.12300385 145.43900116 -0.12442017 144.10253906 C-0.12088055 142.6516111 -0.11724573 141.20068337 -0.11352539 139.74975586 C-0.11324353 138.23238629 -0.11340123 136.71501658 -0.1139679 135.19764709 C-0.11425591 131.06559484 -0.10835858 126.93357137 -0.10139394 122.80152583 C-0.09516102 118.48801108 -0.09455665 114.17449573 -0.09336853 109.86097717 C-0.09025503 101.68699883 -0.08204139 93.51303379 -0.07201904 85.33906132 C-0.06085848 76.03571031 -0.0553476 66.73235868 -0.05032361 57.42900264 C-0.03985879 38.28599421 -0.02225899 19.14299817 0 0 Z " fill="#FCFCFE" transform="translate(999,125)"/>
<path d="M0 0 C1.52264277 0.83002258 3.04324103 1.66379986 4.5625 2.5 C5.68785156 2.9434375 6.81320313 3.386875 7.97265625 3.84375 C11.74962448 5.58633382 15.05399998 7.13113132 17.5625 10.5 C18.42894569 13.9382758 18.44748674 17.27969114 18.4375 20.8125 C18.458125 21.74384766 18.47875 22.67519531 18.5 23.63476562 C18.54696018 25.9240742 18.56695527 28.21030978 18.5625 30.5 C5.0009464 30.65449157 -8.56066055 30.8026633 -22.12236881 30.9429636 C-28.42089152 31.00831826 -34.71937647 31.07577739 -41.01782227 31.14819336 C-47.10618483 31.21811403 -53.19458425 31.28231415 -59.28304863 31.34269524 C-61.59564813 31.366607 -63.90822796 31.39251399 -66.22078133 31.42053413 C-94.57049457 31.76094886 -94.57049457 31.76094886 -102.4375 30.5 C-104.4375 28.5 -104.4375 28.5 -104.71875 25.359375 C-104.40841305 21.10086247 -103.40938542 17.72011257 -101.9375 13.75 C-100.05855211 8.76130605 -100.05855211 8.76130605 -99.4375 3.5 C-98.44169922 3.55220703 -98.44169922 3.55220703 -97.42578125 3.60546875 C-91.95303475 3.77324638 -89.09880594 3.48801663 -84.4375 0.5 C-79.82933416 -1.23950631 -76.11088513 -0.91214278 -71.625 0.96875 C-68.94455267 2.1879566 -66.31557664 3.49285681 -63.6953125 4.8359375 C-55.30288775 9.12271561 -43.91237529 9.07425175 -34.9375 6.265625 C-29.77512134 4.41447199 -24.81735129 2.14262933 -19.84765625 -0.171875 C-13.45147122 -2.66294363 -6.38267492 -2.6447548 0 0 Z " fill="#BC012D" transform="translate(121.4375,309.5)"/>
<path d="M0 0 C1.28824928 0.02157166 1.28824928 0.02157166 2.6025238 0.0435791 C3.51004395 0.042995 4.41756409 0.04241089 5.35258484 0.04180908 C8.355963 0.04459857 11.35835197 0.07573152 14.36155701 0.10705566 C16.44234678 0.11451497 18.52314357 0.12020937 20.60394287 0.12420654 C26.08352517 0.13948723 31.5626841 0.17879025 37.042099 0.22302246 C42.6322507 0.26392255 48.22247073 0.28220632 53.81272888 0.30236816 C64.78361813 0.34528195 75.754193 0.41356289 86.72483826 0.49768066 C87.0649545 3.66365638 87.39567013 6.83054946 87.72483826 9.99768066 C87.82022888 10.88455566 87.91561951 11.77143066 88.01390076 12.68518066 C88.55998772 17.99002541 88.82451356 23.16505219 88.72483826 28.49768066 C87.52215145 29.15396915 86.31231271 29.79715572 85.09983826 30.43518066 C84.42694763 30.7948291 83.75405701 31.15447754 83.06077576 31.52502441 C69.34489928 37.23615024 50.39588023 33.83819689 36.72483826 29.49768066 C35.99393982 29.10322754 35.26304138 28.70877441 34.50999451 28.30236816 C32.15417432 27.24044484 31.17654596 27.78416764 28.72483826 28.49768066 C28.06338806 28.68660889 27.40193787 28.87553711 26.72044373 29.07019043 C26.0180658 29.27442627 25.31568787 29.47866211 24.59202576 29.68908691 C16.02458043 32.08489141 7.78185 33.99193314 -1.15016174 34.06018066 C-1.87993225 34.07444092 -2.60970276 34.08870117 -3.36158752 34.10339355 C-9.45450003 33.98898267 -13.05766277 31.71517964 -17.27516174 27.49768066 C-18.79724521 21.64351347 -18.04021366 17.70073534 -15.27516174 12.49768066 C-13.41246632 9.71125073 -11.37837485 7.10478857 -9.27516174 4.49768066 C-8.93232651 3.8086969 -8.58949127 3.11971313 -8.23626709 2.40985107 C-5.64024978 -0.12138851 -3.51871957 0.02459603 0 0 Z " fill="#3BDC96" transform="translate(40.27516174316406,242.5023193359375)"/>
<path d="M0 0 C1.14901495 0.00138269 1.14901495 0.00138269 2.32124233 0.00279331 C3.19768902 0.00141865 4.0741357 0.00004398 4.97714138 -0.00137234 C6.43046368 0.00402058 6.43046368 0.00402058 7.91314602 0.00952244 C8.92766338 0.00937641 9.94218075 0.00923038 10.98744106 0.00907993 C14.35844936 0.00977954 17.72940317 0.01757414 21.10040188 0.02539158 C23.43067806 0.02725559 25.76095463 0.02867957 28.09123135 0.0296793 C34.23811828 0.03350581 40.38498176 0.04333723 46.5318594 0.05438328 C52.79884429 0.06459454 59.06583295 0.06917631 65.33282375 0.0742197 C77.63947471 0.08495938 89.94610822 0.10203739 102.25274563 0.12304783 C103.25274563 2.12304783 103.25274563 2.12304783 103.25274563 13.12304783 C76.85274563 13.12304783 50.45274563 13.12304783 23.25274563 13.12304783 C21.74697049 28.58163307 21.74697049 28.58163307 27.58477688 38.67773533 C45.60177322 54.74566346 72.20368256 57.34126674 95.25274563 58.12304783 C95.25274563 58.45304783 95.25274563 58.78304783 95.25274563 59.12304783 C88.62237082 59.20031158 81.99211561 59.25214506 75.36138821 59.28784275 C73.1145993 59.302754 70.86783857 59.32309014 68.62115383 59.34936619 C21.54900528 59.8853518 21.54900528 59.8853518 6.25274563 45.12304783 C-1.98320766 36.74260413 -2.22103065 24.03053406 -2.49725437 12.93554783 C-2.53979343 11.80568455 -2.5823325 10.67582127 -2.62616062 9.5117197 C-2.8215813 3.50072439 -2.8215813 3.50072439 -2.74725437 1.12304783 C-1.74725437 0.12304783 -1.74725437 0.12304783 0 0 Z " fill="#F86E0A" transform="translate(37.747254371643066,339.8769521713257)"/>
<path d="M0 0 C1.6328125 0.3125 1.6328125 0.3125 4 1 C5.06992188 1.309375 6.13984375 1.61875 7.2421875 1.9375 C9.65926499 2.64443019 12.07593411 3.35275818 14.4921875 4.0625 C21.2014362 5.85561769 27.46831043 6.18263613 34.375 6.1875 C35.73625 6.20586914 35.73625 6.20586914 37.125 6.22460938 C42.80103585 6.23687746 47.54422327 5.54484625 53 4 C54.99601306 3.6435691 56.994845 3.30077325 59 3 C59.34234065 4.97762855 59.67335561 6.95721839 60 8.9375 C60.185625 10.03964844 60.37125 11.14179688 60.5625 12.27734375 C60.90337332 15.17781047 61.04594997 17.82893262 61.02734375 20.73266602 C61.023396 21.53438736 61.01944824 22.3361087 61.01538086 23.16212463 C61.01030518 23.7686235 61.00522949 24.37512238 61 25 C47.00511285 25.20077581 33.01009001 25.38386002 19.01470661 25.54658794 C12.51625751 25.62266389 6.01798246 25.70441194 -0.48022461 25.79907227 C-6.75002414 25.8901975 -13.01984403 25.96648921 -19.28995705 26.03244972 C-21.68343666 26.06024509 -24.0768601 26.09340713 -26.47019005 26.13199425 C-29.81957378 26.18508362 -33.16864843 26.21917748 -36.51831055 26.2487793 C-37.51021393 26.26891586 -38.50211731 26.28905243 -39.52407837 26.30979919 C-44.51785879 26.33319814 -47.94877972 26.28565525 -52 23 C-53 22 -53 22 -53.4375 18.1875 C-53.42702984 11.69600141 -50.13310046 6.51089992 -47 1 C-46.05125 1.825 -45.1025 2.65 -44.125 3.5 C-35.05360161 9.07015691 -22.44672913 6.55857439 -12.64746094 4.24951172 C-5.85204535 3.06196651 -5.85204535 3.06196651 0 0 Z " fill="#E1024C" transform="translate(70,269)"/>
<path d="M0 0 C1.17113799 0.00138269 1.17113799 0.00138269 2.36593533 0.00279331 C3.70584782 0.00073132 3.70584782 0.00073132 5.07282925 -0.00137234 C6.55420376 0.00402058 6.55420376 0.00402058 8.06550503 0.00952244 C9.09952953 0.00937641 10.13355404 0.00923038 11.19891262 0.00907993 C14.63485175 0.00977956 18.07073742 0.01757425 21.50666714 0.02539158 C23.88178382 0.02725558 26.25690089 0.02867957 28.63201809 0.0296793 C34.89727233 0.03350586 41.16250356 0.04333732 47.42774868 0.05438328 C53.81537979 0.06459443 60.2030146 0.06917628 66.59065151 0.0742197 C79.13428144 0.08495947 91.67789425 0.10203754 104.22151089 0.12304783 C104.71651089 6.06304783 104.71651089 6.06304783 105.22151089 12.12304783 C107.20151089 12.12304783 109.18151089 12.12304783 111.22151089 12.12304783 C111.22151089 16.74304783 111.22151089 21.36304783 111.22151089 26.12304783 C102.86708051 21.5660858 102.86708051 21.5660858 99.03401089 18.93554783 C92.48730743 14.71656115 85.8426306 13.91722434 78.22151089 15.12304783 C72.0545492 17.07573516 66.11817381 19.66049682 60.20759487 22.27514744 C52.35872601 25.62599213 41.75840379 25.38248541 33.57697964 23.11132908 C29.53566757 21.41855308 25.80822745 19.46817522 22.03401089 17.24804783 C17.94568025 15.61271557 14.44626044 16.05897844 10.22151089 17.12304783 C9.37588589 17.63867283 8.53026089 18.15429783 7.65901089 18.68554783 C4.01744027 20.83314075 1.41932213 20.46158099 -2.77848911 20.12304783 C-3.76848911 19.46304783 -4.75848911 18.80304783 -5.77848911 18.12304783 C-6.43112824 11.9229761 -5.19357831 6.84167872 -2.77848911 1.12304783 C-1.77848911 0.12304783 -1.77848911 0.12304783 0 0 Z " fill="#E2C301" transform="translate(26.778489112854004,293.8769521713257)"/>
<path d="M0 0 C-1.58068471 4.03216578 -4.46820195 6.49206897 -7.5625 9.375 C-18.48907239 19.95723378 -26.9781062 32.87557583 -27.5 48.4375 C-27.30439673 55.55166343 -25.73518174 61.46987976 -23 68 C-22.5875 69.155 -22.175 70.31 -21.75 71.5 C-17.04640571 78.21942041 -7.59093544 79.22505355 -0.0625 80.625 C1.59640259 80.94355957 1.59640259 80.94355957 3.28881836 81.26855469 C17.45824758 83.9251296 31.61335084 85.26420906 46 86 C46 88.31 46 90.62 46 93 C16.3 93 -13.4 93 -44 93 C-44 60.48396794 -44 60.48396794 -41 48 C-40.8443457 47.31405762 -40.68869141 46.62811523 -40.52832031 45.92138672 C-36.01891045 26.73614298 -23.11122581 12.44229669 -7.2890625 1.14453125 C-4.66159598 -0.16920201 -2.89968438 -0.23054028 0 0 Z " fill="#F86F0A" transform="translate(80,149)"/>
<path d="M0 0 C29.04 0 58.08 0 88 0 C86.68 5.61 85.36 11.22 84 17 C85.95484314 16.99777939 87.90968628 16.99555878 89.92376709 16.99327087 C108.45738895 16.9728906 126.99100851 16.95789637 145.52463913 16.94818783 C155.05012212 16.94306386 164.57559666 16.93609691 174.10107422 16.92456055 C182.41778833 16.91449305 190.73449632 16.90811835 199.05121636 16.90591151 C203.44182359 16.90462455 207.83241331 16.90167022 212.22301483 16.89426994 C232.50819309 16.86136679 252.7326006 17.07060562 273 18 C272.34 18.99 271.68 19.98 271 21 C271 20.34 271 19.68 271 19 C270.43519845 19.00037972 269.87039691 19.00075944 269.28848016 19.00115067 C235.8195026 19.02352499 202.35052691 19.04068466 168.88154354 19.05106533 C164.86357459 19.05231605 160.84560565 19.05361037 156.82763672 19.05493164 C155.62777037 19.05532511 155.62777037 19.05532511 154.40366431 19.05572652 C141.44879633 19.06007874 128.49393278 19.06796384 115.53906743 19.0771528 C102.24783288 19.08650177 88.95660066 19.09205825 75.66536295 19.09408849 C67.46287672 19.09546113 59.26040302 19.09979774 51.05792065 19.10791647 C45.43444711 19.11319925 39.81098006 19.11480079 34.18750422 19.11350138 C30.94227409 19.1128604 27.69707052 19.11439373 24.45184326 19.11920547 C20.93315908 19.12416772 17.41452889 19.12298885 13.89584351 19.12025452 C12.35789786 19.12462378 12.35789786 19.12462378 10.78888261 19.12908131 C6.07713942 19.11915921 1.63327042 18.98395962 -3 18 C-2.88399745 16.31185763 -2.75668975 14.62449113 -2.625 12.9375 C-2.55539063 11.99777344 -2.48578125 11.05804688 -2.4140625 10.08984375 C-2 7 -2 7 0 0 Z " fill="#575757" transform="translate(116,59)"/>
<path d="M0 0 C90.75 0 181.5 0 275 0 C278 12 278 12 279 22 C267.78 22 256.56 22 245 22 C242 14 242 14 240 4 C160.8 4 81.6 4 0 4 C0 2.68 0 1.36 0 0 Z " fill="#2D2D2E" transform="translate(116,55)"/>
<path d="M0 0 C8.91 0 17.82 0 27 0 C31.50333087 7.88082902 31.50333087 7.88082902 32.484375 13.5625 C32.69707031 14.77164062 32.90976562 15.98078125 33.12890625 17.2265625 C33.33386719 18.47179687 33.53882813 19.71703125 33.75 21 C33.97042969 22.24523437 34.19085938 23.49046875 34.41796875 24.7734375 C35.43629939 30.70632038 36 35.92230798 36 42 C29.07 42 22.14 42 15 42 C14.00419922 39.28523438 14.00419922 39.28523438 12.98828125 36.515625 C12.09648749 34.0937009 11.20455288 31.67182867 10.3125 29.25 C9.87744141 28.06277344 9.44238281 26.87554688 8.99414062 25.65234375 C6.47469458 18.82184558 3.82742644 12.08680004 0.90698242 5.41699219 C0 3 0 3 0 0 Z " fill="#2C2D2F" transform="translate(343,0)"/>
<path d="M0 0 C1.52167457 0.79306428 3.01966346 1.63221651 4.5 2.5 C6.09521484 3.39138672 6.09521484 3.39138672 7.72265625 4.30078125 C14.16616039 8.18195626 14.16616039 8.18195626 16.5 10.5 C16.83984375 14.26171875 16.83984375 14.26171875 16.5 17.5 C13.01461573 16.2242639 10.19673712 14.7245296 7.1875 12.5625 C0.32991038 7.92654272 -6.10717192 5.23686534 -14.5 6.5 C-17.95340698 7.57413662 -21.19668674 9.03603162 -24.5 10.5 C-26.74415915 11.41036645 -28.99443265 12.30577822 -31.25 13.1875 C-32.29671875 13.60386719 -33.3434375 14.02023437 -34.421875 14.44921875 C-46.61867262 18.61284636 -57.89362851 16.28844899 -69.25 10.8125 C-73.60640906 8.77621814 -76.62582333 7.68763722 -81.5 8.5 C-83.77689188 9.46633116 -85.99303782 10.52691302 -88.21875 11.60546875 C-91.8102836 13.01379271 -94.67821261 12.83524451 -98.5 12.5 C-99.16 12.17 -99.82 11.84 -100.5 11.5 C-100.17 8.86 -99.84 6.22 -99.5 3.5 C-98.50419922 3.55220703 -98.50419922 3.55220703 -97.48828125 3.60546875 C-92.01553475 3.77324638 -89.16130594 3.48801663 -84.5 0.5 C-79.89183416 -1.23950631 -76.17338513 -0.91214278 -71.6875 0.96875 C-69.00705267 2.1879566 -66.37807664 3.49285681 -63.7578125 4.8359375 C-55.36538775 9.12271561 -43.97487529 9.07425175 -35 6.265625 C-29.83762134 4.41447199 -24.87985129 2.14262933 -19.91015625 -0.171875 C-13.48718462 -2.67337598 -6.41500372 -2.6243197 0 0 Z " fill="#A60528" transform="translate(121.5,309.5)"/>
<path d="M0 0 C1.29873047 0.00966797 2.59746094 0.01933594 3.93554688 0.02929688 C5.30729764 0.0543629 6.67904243 0.07975774 8.05078125 0.10546875 C9.43423049 0.12051855 10.81769526 0.13420645 12.20117188 0.14648438 C15.58893332 0.18189652 18.97591264 0.23128821 22.36328125 0.29296875 C20.59857347 6.44263631 18.66056676 12.43365016 16.23828125 18.35546875 C15.97402344 19.01740234 15.70976562 19.67933594 15.4375 20.36132812 C13.49976468 25.15648532 13.49976468 25.15648532 12.36328125 26.29296875 C10.36363143 26.38054878 8.36092015 26.39993451 6.359375 26.390625 C5.14443359 26.38740234 3.92949219 26.38417969 2.67773438 26.38085938 C1.39833984 26.37248047 0.11894531 26.36410156 -1.19921875 26.35546875 C-2.48248047 26.35095703 -3.76574219 26.34644531 -5.08789062 26.34179688 C-8.27087897 26.3299642 -11.45377637 26.31347943 -14.63671875 26.29296875 C-14.33636719 25.13410156 -14.03601563 23.97523437 -13.7265625 22.78125 C-12.38568897 17.42836966 -11.4695316 12.02047968 -10.515625 6.5859375 C-8.83116321 0.27482067 -6.27367506 -0.08218788 0 0 Z " fill="#49494A" transform="translate(141.63671875,15.70703125)"/>
<path d="M0 0 C0.66 0 1.32 0 2 0 C2.83819158 1.62249941 3.6704116 3.24808497 4.5 4.875 C4.9640625 5.77992188 5.428125 6.68484375 5.90625 7.6171875 C7 10 7 10 7 12 C11.94451404 14.63360432 16.86674558 14.2597047 22.3125 14.1875 C23.22451172 14.18685547 24.13652344 14.18621094 25.07617188 14.18554688 C30.47496739 14.15071594 35.6553247 13.7445606 41 13 C48.42501806 12.3822385 55.20296109 13.72313466 62.45703125 15.265625 C75.82554079 18.03660603 88.60961053 16.88171094 102 15 C102 13.35 102 11.7 102 10 C102.33 10 102.66 10 103 10 C103 12.64 103 15.28 103 18 C101.79731319 18.65628849 100.58747446 19.29947505 99.375 19.9375 C98.70210938 20.29714844 98.02921875 20.65679687 97.3359375 21.02734375 C83.62006103 26.73846957 64.67104197 23.34051622 51 19 C50.26910156 18.60554688 49.53820312 18.21109375 48.78515625 17.8046875 C46.42933606 16.74276418 45.4517077 17.28648698 43 18 C42.3385498 18.18892822 41.67709961 18.37785645 40.99560547 18.57250977 C40.29322754 18.77674561 39.59084961 18.98098145 38.8671875 19.19140625 C30.29974217 21.58721075 22.05701174 23.49425247 13.125 23.5625 C12.39522949 23.57676025 11.66545898 23.59102051 10.91357422 23.60571289 C4.82066171 23.49130201 1.21749897 21.21749897 -3 17 C-4.73851935 10.31338713 -2.95327213 5.90654427 0 0 Z " fill="#4ABD81" transform="translate(26,253)"/>
<path d="M0 0 C0.99 0.495 0.99 0.495 2 1 C5.27788517 1.19879357 8.55383662 1.31835357 11.8359375 1.42578125 C15.54045655 2.09808286 16.73626744 3.04896551 19 6 C19.5625 8.5 19.5625 8.5 19 11 C16.625 13.1875 16.625 13.1875 14 15 C13.34 15.66 12.68 16.32 12 17 C12 16.34 12 15.68 12 15 C-49.38 15 -110.76 15 -174 15 C-174 14.67 -174 14.34 -174 14 C-124.5 14 -75 14 -24 14 C-23.01 10.37 -22.02 6.74 -21 3 C-20 2 -20 2 -18.05053711 1.88647461 C-17.2178833 1.89171143 -16.38522949 1.89694824 -15.52734375 1.90234375 C-14.62822266 1.90556641 -13.72910156 1.90878906 -12.80273438 1.91210938 C-11.85720703 1.92048828 -10.91167969 1.92886719 -9.9375 1.9375 C-8.5134082 1.94426758 -8.5134082 1.94426758 -7.06054688 1.95117188 C-4.70696935 1.9629989 -2.35351523 1.97947975 0 2 C0 1.34 0 0.68 0 0 Z " fill="#48494A" transform="translate(379,40)"/>
<path d="M0 0 C1.17113799 0.00138269 1.17113799 0.00138269 2.36593533 0.00279331 C3.70584782 0.00073132 3.70584782 0.00073132 5.07282925 -0.00137234 C6.55420376 0.00402058 6.55420376 0.00402058 8.06550503 0.00952244 C9.09952953 0.00937641 10.13355404 0.00923038 11.19891262 0.00907993 C14.63485175 0.00977956 18.07073742 0.01757425 21.50666714 0.02539158 C23.88178382 0.02725558 26.25690089 0.02867957 28.63201809 0.0296793 C34.89727233 0.03350586 41.16250356 0.04333732 47.42774868 0.05438328 C53.81537979 0.06459443 60.2030146 0.06917628 66.59065151 0.0742197 C79.13428115 0.08495947 91.6778948 0.10184656 104.22151089 0.12304783 C104.22151089 2.10304783 104.22151089 4.08304783 104.22151089 6.12304783 C50.76151089 6.61804783 50.76151089 6.61804783 -3.77848911 7.12304783 C-2.62154381 0.18137602 -2.62154381 0.18137602 0 0 Z " fill="#DEAB07" transform="translate(26.778489112854004,293.8769521713257)"/>
<path d="M0 0 C15.18 0 30.36 0 46 0 C50 10 50 10 50 13 C34.49 13 18.98 13 3 13 C0 4 0 4 0 0 Z " fill="#707070" transform="translate(155,42)"/>
<path d="M0 0 C29.37 0 58.74 0 89 0 C88.67 1.32 88.34 2.64 88 4 C58.96 4 29.92 4 0 4 C0 2.68 0 1.36 0 0 Z " fill="#494949" transform="translate(116,55)"/>
<path d="M0 0 C13.86 0 27.72 0 42 0 C41.67 1.32 41.34 2.64 41 4 C27.47 4 13.94 4 0 4 C0 2.68 0 1.36 0 0 Z " fill="#2E2E2E" transform="translate(116,55)"/>
<path d="M0 0 C11.88 0 23.76 0 36 0 C36 1.32 36 2.64 36 4 C24.45 4 12.9 4 1 4 C0.67 2.68 0.34 1.36 0 0 Z " fill="#1E1E1E" transform="translate(355,55)"/>
<path d="M0 0 C-1.51376081 3.56764285 -3.60513129 5.83706287 -6.3515625 8.546875 C-7.20234375 9.39121094 -8.053125 10.23554688 -8.9296875 11.10546875 C-9.81914063 11.97816406 -10.70859375 12.85085937 -11.625 13.75 C-12.5221875 14.63816406 -13.419375 15.52632812 -14.34375 16.44140625 C-16.55807004 18.63216969 -18.77692435 20.81812763 -21 23 C-21 20 -21 20 -19.82250977 18.49780273 C-19.01511353 17.72351929 -19.01511353 17.72351929 -18.19140625 16.93359375 C-17.31838867 16.0818457 -17.31838867 16.0818457 -16.42773438 15.21289062 C-15.81220703 14.62701172 -15.19667969 14.04113281 -14.5625 13.4375 C-13.35337718 12.27169665 -12.14624786 11.10382113 -10.94140625 9.93359375 C-10.40201416 9.41853271 -9.86262207 8.90347168 -9.30688477 8.37280273 C-7.88431169 7.01262539 -7.88431169 7.01262539 -7 5 C-7.99 4.67 -8.98 4.34 -10 4 C-8.71086513 3.32845067 -7.41859796 2.66291141 -6.125 2 C-5.40570313 1.62875 -4.68640625 1.2575 -3.9453125 0.875 C-2 0 -2 0 0 0 Z " fill="#FB9934" transform="translate(87,144)"/>
<path d="M0 0 C0 0.66 0 1.32 0 2 C-2.31 3.32 -4.62 4.64 -7 6 C-7.99 5.34 -8.98 4.68 -10 4 C-8.71086513 3.32845067 -7.41859796 2.66291141 -6.125 2 C-5.40570313 1.62875 -4.68640625 1.2575 -3.9453125 0.875 C-2 0 -2 0 0 0 Z " fill="#DC8136" transform="translate(87,144)"/>
</svg>
