<?xml version="1.0" encoding="UTF-8"?>
<svg version="1.1" xmlns="http://www.w3.org/2000/svg" width="1640" height="400">
<path d="M0 0 C26.07 0 52.14 0 79 0 C81.47831491 4.95662981 82.74412471 8.72004005 83.60546875 14.0234375 C83.73440018 14.76961334 83.8633316 15.51578918 83.99617004 16.28457642 C84.40221696 18.64662882 84.79504857 21.01065481 85.1875 23.375 C85.46201742 24.98582614 85.73739943 26.59650519 86.01367188 28.20703125 C86.68579164 32.13639049 87.34607623 36.0675734 88 40 C88.80824219 40.03738281 89.61648438 40.07476562 90.44921875 40.11328125 C91.51785156 40.17902344 92.58648437 40.24476562 93.6875 40.3125 C95.27111328 40.39951172 95.27111328 40.39951172 96.88671875 40.48828125 C100.55047039 41.09047882 103.34737457 42.34737457 106 45 C106.375 47.8125 106.375 47.8125 106 51 C105.154375 51.556875 104.30875 52.11375 103.4375 52.6875 C100.75584035 54.70600146 100.75584035 54.70600146 100.85546875 57.3046875 C101.14072032 60.22334854 101.55662399 63.10128959 102 66 C102.20103305 68.06122493 102.38918844 70.12375932 102.5625 72.1875 C102.68818359 73.57001953 102.68818359 73.57001953 102.81640625 74.98046875 C102.87699219 75.64691406 102.93757813 76.31335938 103 77 C99.535 77.495 99.535 77.495 96 78 C95.42859822 84.78086033 94.85912965 91.56188101 94.29101562 98.34301758 C94.09745258 100.65067233 93.90344423 102.95828978 93.70898438 105.26586914 C93.42982242 108.57949308 93.15225332 111.89324714 92.875 115.20703125 C92.78750488 116.2414888 92.70000977 117.27594635 92.60986328 118.3417511 C92.48973877 119.78290535 92.48973877 119.78290535 92.3671875 121.25317383 C92.29612793 122.09922684 92.22506836 122.94527985 92.15185547 123.81697083 C92.03191344 125.54122192 92 127.27158224 92 129 C93.98 129.66 95.96 130.32 98 131 C97.27146974 147.89827845 95.74308441 164.73937158 94.30645943 181.58851576 C94.01959689 184.95656926 93.73438384 188.32476166 93.44915342 191.69295371 C92.77689566 199.63111632 92.10198003 207.56904975 91.42529297 215.50683594 C90.72812021 223.68542966 90.03528969 231.86438314 89.34456968 240.04352415 C88.74904412 247.09377583 88.15098231 254.14380916 87.55084658 261.19366992 C87.19337935 265.39308727 86.83684527 269.59257837 86.48271179 273.79227829 C86.15075274 277.72758259 85.81562404 281.66260423 85.47803307 285.59742928 C85.3547534 287.0405184 85.23259189 288.48370355 85.11162758 289.9269886 C84.94646666 291.89546046 84.77687608 293.86355916 84.60705566 295.83163452 C84.51340981 296.93284323 84.41976395 298.03405193 84.32328033 299.1686306 C84.05241541 301.54093279 83.65548239 303.70968363 83 306 C81.35 306.33 79.7 306.66 78 307 C77.95432892 307.55027359 77.90865784 308.10054718 77.86160278 308.66749573 C77.37523211 314.52650347 76.88822114 320.38545776 76.40087891 326.24438477 C76.22038442 328.41527024 76.04003984 330.58616819 75.85986328 332.75708008 C75.77333496 333.79952881 75.68680664 334.84197754 75.59765625 335.91601562 C75.51134949 336.96147552 75.42504272 338.00693542 75.33612061 339.08407593 C75.1585587 341.2015475 74.97596106 343.31860267 74.78839111 345.43521118 C74.31712047 350.80585506 73.9300053 356.15951609 73.70214844 361.54638672 C73.64533905 362.59406723 73.58852966 363.64174774 73.52999878 364.72117615 C73.42432293 366.70484166 73.34797484 368.69036817 73.30618286 370.67640686 C72.91935266 377.11407543 72.91935266 377.11407543 70.25004578 379.68632507 C68.20966216 380.98698291 66.21500884 382.03130643 64 383 C62.87722656 383.52464844 61.75445312 384.04929687 60.59765625 384.58984375 C39.33685912 392.69478851 17.39237307 396.11857062 -5.09692383 398.61450195 C-7.82438517 398.8956424 -7.82438517 398.8956424 -9.68436909 399.51615715 C-13.09335637 400.22845293 -16.4864982 400.13723736 -19.95317078 400.12698364 C-20.76034272 400.12854363 -21.56751467 400.13010362 -22.39914638 400.13171089 C-25.10685503 400.13570314 -27.81450772 400.13253812 -30.5222168 400.12939453 C-32.46204664 400.13074932 -34.40187623 400.1325297 -36.34170532 400.13470459 C-41.61203508 400.1392687 -46.88234529 400.13749378 -52.15267539 400.1343255 C-57.66019987 400.13179773 -63.16772265 400.13414051 -68.67524719 400.13571167 C-77.92160341 400.13753168 -87.16795164 400.13513098 -96.41430664 400.13037109 C-107.11960637 400.12492398 -117.82488708 400.12669507 -128.53018636 400.1321975 C-137.70982613 400.13672767 -146.88946015 400.1373798 -156.06910068 400.13475883 C-161.55704836 400.13319614 -167.04498708 400.13300216 -172.53293419 400.13629532 C-177.68829241 400.1391728 -182.84362594 400.13720063 -187.99898148 400.13140106 C-189.89654436 400.13007301 -191.7941093 400.13046834 -193.69167137 400.13266373 C-196.27040284 400.13537333 -198.84905389 400.13199651 -201.42778015 400.12698364 C-202.18865565 400.12921436 -202.94953114 400.13144509 -203.73346347 400.13374341 C-208.88584983 400.11415017 -208.88584983 400.11415017 -210 399 C-211.48846222 398.70462714 -212.9871005 398.46013984 -214.48828125 398.23828125 C-241.0228368 394.06909158 -241.0228368 394.06909158 -250.44921875 382.26171875 C-258.15959043 371.01661748 -257.27920944 354.20184812 -258 341 C-259.05960937 340.95101563 -260.11921875 340.90203125 -261.2109375 340.8515625 C-262.59898497 340.77653291 -263.98700451 340.70098515 -265.375 340.625 C-266.07367188 340.5940625 -266.77234375 340.563125 -267.4921875 340.53125 C-272.7734375 340.2265625 -272.7734375 340.2265625 -275 338 C-275.577638 332.80125803 -274.84074778 329.25755084 -273 324.375 C-270.87762129 318.50506448 -270.78607621 313.48317783 -270.9921875 307.29296875 C-271.00257661 302.91396017 -270.1605475 299.20698468 -269 295 C-269.78375 294.566875 -270.5675 294.13375 -271.375 293.6875 C-274 292 -274 292 -276 289 C-275.7679071 283.97429595 -274.35617891 279.35092444 -271.875 275 C-270.11201933 271.80861894 -269.83376373 269.63503302 -270 266 C-270.19561521 260.65318421 -268.96325648 257.40466517 -266 253 C-265.35716064 252.31164062 -264.71432129 251.62328125 -264.05200195 250.9140625 C-257.57323517 243.93910356 -256.81623166 238.30406535 -256.6875 229 C-256.57905056 226.41379799 -256.4644792 223.82784536 -256.34375 221.2421875 C-256.2921875 219.99791992 -256.240625 218.75365234 -256.1875 217.47167969 C-254.89841041 193.60338033 -246.70124806 174.11931769 -229.18359375 157.75 C-213.79285644 144.07780775 -194.69389264 138.41941541 -175 134 C-174.67 132.68 -174.34 131.36 -174 130 C-172.35 129.67 -170.7 129.34 -169 129 C-169.45361595 111.8879022 -170.99981999 94.99682599 -173 78 C-174.98 77.67 -176.96 77.34 -179 77 C-178.85530469 75.20824107 -178.70916739 73.41659858 -178.5625 71.625 C-178.43681641 69.98917969 -178.43681641 69.98917969 -178.30859375 68.3203125 C-178.11576151 66.24553522 -177.86686428 64.17433475 -177.53515625 62.1171875 C-177.15184428 59.67129204 -176.82552029 57.47100999 -177 55 C-179.360962 52.7110076 -179.360962 52.7110076 -182 51 C-182.625 48 -182.625 48 -182 45 C-179.67927192 41.93332361 -177.76580305 41.11850528 -173.99609375 40.53515625 C-170.99502575 40.27650458 -168.01033314 40.09602339 -165 40 C-163.3071131 34.67949832 -162.47551926 29.51611954 -161.85546875 23.96484375 C-160.72634444 20.05157731 -159.37852736 17.29712859 -156 15 C-151.66127053 14.09366141 -147.36947417 14.21497989 -142.95141602 14.2746582 C-141.6106682 14.27139748 -140.26992463 14.26545896 -138.92919922 14.25704956 C-136.04679047 14.24465728 -133.16525664 14.25106216 -130.28289986 14.27211952 C-125.72297327 14.30522416 -121.16373007 14.29587306 -116.60374451 14.2808075 C-109.38962039 14.26193337 -102.17584831 14.27094774 -94.96174043 14.29212874 C-82.0473835 14.32981113 -69.13307653 14.33396784 -56.21869415 14.30727643 C-51.68835112 14.29919586 -47.15843444 14.30776086 -42.62814152 14.32983935 C-39.80679418 14.34094514 -36.98553934 14.3399343 -34.16417694 14.3359642 C-32.23781063 14.33712224 -30.31147174 14.3533554 -28.38517761 14.37007141 C-19.00043786 14.33861556 -14.16611767 12.09070165 -6.6875 6.4375 C-5.63949219 5.65246094 -4.59148437 4.86742187 -3.51171875 4.05859375 C-0.95382058 2.2478774 -0.95382058 2.2478774 0 0 Z " fill="#BA8E60" transform="translate(292,0)"/>
<path d="M0 0 C12.54 0 25.08 0 38 0 C39.85675509 17.1177558 41.03262429 34.2590607 42.15662003 51.43629074 C42.58510321 57.96801955 43.02116742 64.49925005 43.45670128 71.03051186 C43.56914914 72.71702592 43.68147491 74.40354813 43.79368019 76.09007835 C44.64081877 88.81516442 45.52574243 101.5372008 46.4375 114.2578125 C46.55472246 115.89733237 46.67192537 117.53685364 46.78910828 119.17637634 C47.29316462 126.2219381 47.79950862 133.26731381 48.31378365 140.3121376 C48.52358395 143.19690111 48.73022421 146.08188523 48.93611145 148.96693039 C49.07639106 150.9176611 49.22078764 152.86809443 49.36535645 154.81851196 C49.44950806 156.00302948 49.53365967 157.187547 49.62036133 158.40795898 C49.69410477 159.42164047 49.76784821 160.43532196 49.84382629 161.47972107 C50.05835366 166.31533769 50 171.15962708 50 176 C39.77 176 29.54 176 19 176 C19.45375 181.011875 19.9075 186.02375 20.375 191.1875 C22.03985288 210.10240619 23.09227523 229.03555981 24 248 C24.76248047 248.30325195 25.52496094 248.60650391 26.31054688 248.91894531 C28.22662714 249.68913444 30.13263626 250.48458149 32.03125 251.296875 C57.0394427 261.77328005 83.10653283 265.87093385 110 268 C110 268.33 110 268.66 110 269 C90.98123736 269.02332777 71.96247761 269.04097858 52.94370365 269.05181217 C44.11358729 269.05697539 35.28347981 269.06401857 26.45336914 269.07543945 C18.75987935 269.08538551 11.06639599 269.09185324 3.37289995 269.09408849 C-0.70329652 269.09539574 -4.77947461 269.09848243 -8.85566521 269.10573006 C-12.68787755 269.11248904 -16.52006384 269.11461721 -20.35228157 269.11310768 C-21.76285061 269.11338406 -23.17342047 269.11538991 -24.58398438 269.11920547 C-26.50165689 269.12414075 -28.41934321 269.12239802 -30.33702087 269.12025452 C-31.41275329 269.12117631 -32.4884857 269.1220981 -33.59681606 269.12304783 C-36 269 -36 269 -37 268 C-38.48846222 267.70462714 -39.9871005 267.46013984 -41.48828125 267.23828125 C-68.0228368 263.06909158 -68.0228368 263.06909158 -77.44921875 251.26171875 C-85.15959043 240.01661748 -84.27920944 223.20184812 -85 210 C-86.58941406 209.92652344 -86.58941406 209.92652344 -88.2109375 209.8515625 C-89.59898497 209.77653291 -90.98700451 209.70098515 -92.375 209.625 C-93.07367188 209.5940625 -93.77234375 209.563125 -94.4921875 209.53125 C-99.7734375 209.2265625 -99.7734375 209.2265625 -102 207 C-102.577638 201.80125803 -101.84074778 198.25755084 -100 193.375 C-97.87762129 187.50506448 -97.78607621 182.48317783 -97.9921875 176.29296875 C-98.00257661 171.91396017 -97.1605475 168.20698468 -96 164 C-96.78375 163.566875 -97.5675 163.13375 -98.375 162.6875 C-101 161 -101 161 -103 158 C-102.7679071 152.97429595 -101.35617891 148.35092444 -98.875 144 C-97.11201933 140.80861894 -96.83376373 138.63503302 -97 135 C-97.19561521 129.65318421 -95.96325648 126.40466517 -93 122 C-92.35716064 121.31164062 -91.71432129 120.62328125 -91.05200195 119.9140625 C-84.57323517 112.93910356 -83.81623166 107.30406535 -83.6875 98 C-83.57905056 95.41379799 -83.4644792 92.82784536 -83.34375 90.2421875 C-83.2921875 88.99791992 -83.240625 87.75365234 -83.1875 86.47167969 C-81.89841041 62.60338033 -73.70124806 43.11931769 -56.18359375 26.75 C-41.93830211 14.09535181 -19.32580835 3.25784146 0 4 C0 2.68 0 1.36 0 0 Z " fill="#BA8F5F" transform="translate(119,131)"/>
<path d="M0 0 C11.13350028 -0.06310454 22.2433554 0.10247073 33.37199211 0.42041397 C56.42914678 1.06448817 79.47837314 1.15535005 102.54321289 1.13037109 C107.88928182 1.12464878 113.23530117 1.12807797 118.58136845 1.13382244 C140.26330467 1.15343544 161.91446628 1.00092766 183.58518791 0.2883482 C193.7892967 -0.04591514 203.97911996 -0.11963847 214.1875 -0.0625 C215.85872251 -0.05744014 217.52994663 -0.05288568 219.20117188 -0.04882812 C223.13415764 -0.03825565 227.06705824 -0.02128038 231 0 C230.41314132 15.00064773 229.73595786 29.9941876 228.6550293 44.96826172 C228.5078553 47.10401911 228.37578677 49.2408623 228.25756836 51.37841797 C228.08130764 54.52928587 227.85651449 57.6733815 227.62109375 60.8203125 C227.55649208 62.24828659 227.55649208 62.24828659 227.49058533 63.70510864 C226.9401488 70.10366519 226.9401488 70.10366519 224.23390198 72.68379211 C222.19866984 73.98118768 220.2072919 75.02878025 218 76 C216.87722656 76.52464844 215.75445312 77.04929687 214.59765625 77.58984375 C193.33685912 85.69478851 171.39237307 89.11857062 148.90307617 91.61450195 C146.14749442 91.91481152 146.14749442 91.91481152 144.11077881 92.51402283 C141.78871055 93.04864643 139.70660026 93.14104376 137.32446289 93.16113281 C136.39627747 93.17059433 135.46809204 93.18005585 134.51177979 93.18980408 C133.50886902 93.19419998 132.50595825 93.19859589 131.47265625 93.203125 C129.90025177 93.21364647 129.90025177 93.21364647 128.29608154 93.22438049 C124.88484459 93.24197472 121.47378081 93.24824285 118.0625 93.25 C116.90374359 93.25067474 115.74498718 93.25134949 114.55111694 93.25204468 C32.02798943 93.17547203 32.02798943 93.17547203 5 72 C3.67861445 67.3935341 3.60030928 62.50639433 3.28125 57.74609375 C3.21844849 56.84939468 3.15564697 55.95269562 3.09094238 55.02882385 C2.89093088 52.16525023 2.69528232 49.30139966 2.5 46.4375 C2.30434418 43.60532163 2.10776372 40.77320953 1.91065979 37.94113159 C1.78339673 36.11249787 1.656712 34.28382379 1.53062439 32.45510864 C1.19809134 27.67025519 0.8313977 22.89133082 0.41015625 18.11328125 C-0.11201372 12.0553528 -0.06606236 6.07773748 0 0 Z " fill="#F0F0EF" transform="translate(138,307)"/>
<path d="M0 0 C26.07 0 52.14 0 79 0 C81.47831491 4.95662981 82.74412471 8.72004005 83.60546875 14.0234375 C83.73440018 14.76961334 83.8633316 15.51578918 83.99617004 16.28457642 C84.40221696 18.64662882 84.79504857 21.01065481 85.1875 23.375 C85.46201742 24.98582614 85.73739943 26.59650519 86.01367188 28.20703125 C86.68579164 32.13639049 87.34607623 36.0675734 88 40 C88.80824219 40.03738281 89.61648438 40.07476562 90.44921875 40.11328125 C91.51785156 40.17902344 92.58648437 40.24476562 93.6875 40.3125 C95.27111328 40.39951172 95.27111328 40.39951172 96.88671875 40.48828125 C100.55047039 41.09047882 103.34737457 42.34737457 106 45 C106.375 47.8125 106.375 47.8125 106 51 C105.154375 51.556875 104.30875 52.11375 103.4375 52.6875 C100.75584035 54.70600146 100.75584035 54.70600146 100.85546875 57.3046875 C101.14072032 60.22334854 101.55662399 63.10128959 102 66 C102.20103305 68.06122493 102.38918844 70.12375932 102.5625 72.1875 C102.68818359 73.57001953 102.68818359 73.57001953 102.81640625 74.98046875 C102.87699219 75.64691406 102.93757813 76.31335938 103 77 C96.9692596 78.05543475 91.09982681 78.14032524 84.98631287 78.12698364 C83.8860897 78.12854363 82.78586654 78.13010362 81.65230328 78.13171089 C77.97058109 78.13569526 74.28890022 78.13254115 70.60717773 78.12939453 C67.9656665 78.1307497 65.3241581 78.13249415 62.68264771 78.13470459 C56.25597565 78.13914674 49.82931529 78.13819277 43.40264278 78.13529195 C38.17927108 78.13303201 32.95590265 78.13272796 27.73253059 78.13381577 C26.98863919 78.133969 26.24474778 78.13412223 25.47831421 78.13428011 C23.96704633 78.13459984 22.45577846 78.13492405 20.94451059 78.1352527 C6.78009623 78.13810289 -7.38431165 78.13482759 -21.54872494 78.12945233 C-33.70004839 78.12498379 -45.85136228 78.12576153 -58.00268555 78.13037109 C-72.11855744 78.1357234 -86.23442367 78.13782921 -100.35029644 78.13475883 C-101.85564641 78.13444028 -103.36099638 78.13412591 -104.86634636 78.13381577 C-105.60698283 78.13366149 -106.34761931 78.13350721 -107.11069931 78.13334826 C-112.32775868 78.13248515 -117.54481444 78.13394155 -122.76187325 78.13629532 C-129.11967273 78.13910075 -135.47745988 78.13833929 -141.83525795 78.13301457 C-145.07850977 78.13038777 -148.32173676 78.12989422 -151.56498909 78.13266373 C-155.08111219 78.13538976 -158.59717713 78.13197618 -162.11329651 78.12698364 C-163.64991632 78.13032973 -163.64991632 78.13032973 -165.21757895 78.13374341 C-169.92655919 78.12074424 -174.36941445 77.98230767 -179 77 C-178.85530469 75.20824107 -178.70916739 73.41659858 -178.5625 71.625 C-178.47871094 70.53445312 -178.39492187 69.44390625 -178.30859375 68.3203125 C-178.11576151 66.24553522 -177.86686428 64.17433475 -177.53515625 62.1171875 C-177.15184428 59.67129204 -176.82552029 57.47100999 -177 55 C-179.360962 52.7110076 -179.360962 52.7110076 -182 51 C-182.625 48 -182.625 48 -182 45 C-179.67927192 41.93332361 -177.76580305 41.11850528 -173.99609375 40.53515625 C-170.99502575 40.27650458 -168.01033314 40.09602339 -165 40 C-163.3071131 34.67949832 -162.47551926 29.51611954 -161.85546875 23.96484375 C-160.72634444 20.05157731 -159.37852736 17.29712859 -156 15 C-151.66127053 14.09366141 -147.36947417 14.21497989 -142.95141602 14.2746582 C-141.6106682 14.27139748 -140.26992463 14.26545896 -138.92919922 14.25704956 C-136.04679047 14.24465728 -133.16525664 14.25106216 -130.28289986 14.27211952 C-125.72297327 14.30522416 -121.16373007 14.29587306 -116.60374451 14.2808075 C-109.38962039 14.26193337 -102.17584831 14.27094774 -94.96174043 14.29212874 C-82.0473835 14.32981113 -69.13307653 14.33396784 -56.21869415 14.30727643 C-51.68835112 14.29919586 -47.15843444 14.30776086 -42.62814152 14.32983935 C-39.80679418 14.34094514 -36.98553934 14.3399343 -34.16417694 14.3359642 C-32.23781063 14.33712224 -30.31147174 14.3533554 -28.38517761 14.37007141 C-19.00043786 14.33861556 -14.16611767 12.09070165 -6.6875 6.4375 C-5.11548828 5.25994141 -5.11548828 5.25994141 -3.51171875 4.05859375 C-0.95382058 2.2478774 -0.95382058 2.2478774 0 0 Z " fill="#494949" transform="translate(292,0)"/>
<path d="M0 0 C88.11 0 176.22 0 267 0 C267 17.36215552 265.26701438 34.68413678 264 52 C177.87 52 91.74 52 3 52 C2.67 44.08 2.34 36.16 2 28 C1.68726536 23.94129787 1.36588004 19.91763833 0.9375 15.875 C0.75658928 14.10181833 0.57812746 12.32838477 0.40234375 10.5546875 C0.32491943 9.81718262 0.24749512 9.07967773 0.16772461 8.31982422 C-0.03230334 5.55320763 0 2.77383823 0 0 Z " fill="#F0F0F0" transform="translate(120,78)"/>
<path d="M0 0 C0.73028915 -0.0065712 1.46057831 -0.0131424 2.21299744 -0.01991272 C4.64492898 -0.03971545 7.07679814 -0.05133237 9.50878906 -0.0612793 C10.34115334 -0.06535482 11.17351761 -0.06943035 12.03110504 -0.07362938 C16.44863133 -0.09453374 20.86612628 -0.10880851 25.28369141 -0.11816406 C29.81930582 -0.12915301 34.35441931 -0.16345169 38.88985825 -0.20333576 C42.39722511 -0.22968052 45.90447683 -0.23787228 49.4119339 -0.24144554 C51.0814573 -0.2462767 52.75097679 -0.2577899 54.42040253 -0.27648354 C70.88887435 -0.44921657 83.80229739 2.50721135 96.27441406 13.86450195 C104.59059412 22.51266524 106.448174 33.20544007 106.29003906 44.80200195 C105.45682585 55.38871104 100.40309019 61.89803767 93.02441406 69.17700195 C92.36441406 69.83700195 91.70441406 70.49700195 91.02441406 71.17700195 C91.03524881 73.19873582 91.03524881 73.19873582 92.02441406 75.17700195 C93.85766104 76.71549745 93.85766104 76.71549745 96.14941406 77.98950195 C105.81518211 84.12649754 111.94353448 92.06140557 115.02441406 103.17700195 C116.11977487 115.12407681 115.0769328 126.06342385 107.77441406 135.98950195 C98.38694916 147.01130257 86.6838646 154.14693486 71.98840714 155.34266663 C66.38394957 155.60439601 60.77771578 155.54720861 55.16894531 155.50512695 C53.3724534 155.50206331 51.5759591 155.5001918 49.77946472 155.49945068 C46.04192813 155.49487918 42.30461081 155.48056475 38.56713867 155.45825195 C33.76741628 155.42974565 28.96786412 155.4190145 24.16806507 155.41456985 C20.47161653 155.41042682 16.77520256 155.4006224 13.07877159 155.38869476 C11.30726078 155.38298839 9.53574665 155.3782309 7.76423073 155.3744278 C5.30377881 155.36759335 2.8434649 155.35398058 0.38305664 155.33813477 C-0.35190536 155.33701691 -1.08686737 155.33589905 -1.84410095 155.33474731 C-6.86088058 155.29170731 -6.86088058 155.29170731 -7.97558594 154.17700195 C-8.07446406 152.20502657 -8.10190849 150.22945756 -8.10256958 148.25500488 C-8.1053894 146.96770981 -8.10820923 145.68041473 -8.1111145 144.35411072 C-8.1091699 142.91421495 -8.10712171 141.47431932 -8.10498047 140.03442383 C-8.10633445 138.52852842 -8.10811437 137.02263334 -8.11029053 135.51673889 C-8.11486522 131.41561388 -8.11307516 127.31451391 -8.10991144 123.21338844 C-8.10738802 118.93103592 -8.10972533 114.64868561 -8.11129761 110.36633301 C-8.11311936 103.17349867 -8.11071285 95.98067458 -8.10595703 88.7878418 C-8.1005144 80.45983862 -8.10227705 72.13185991 -8.10778344 63.80385733 C-8.11231441 56.6667235 -8.11296519 49.52959706 -8.11034477 42.39246225 C-8.10878191 38.1240184 -8.10858847 33.85558607 -8.11188126 29.58714294 C-8.11475975 25.57516262 -8.11278469 21.56321399 -8.106987 17.55123711 C-8.10565928 16.07455434 -8.10605371 14.59786894 -8.10824966 13.12118721 C-8.11096068 11.11379209 -8.10696678 9.10639116 -8.10256958 7.09899902 C-8.10219255 5.97294502 -8.10181553 4.84689102 -8.10142708 3.68671417 C-7.8495363 -1.33686834 -4.06841696 0.01571806 0 0 Z M20.02441406 25.17700195 C19.92334532 28.04964252 19.88471734 30.89773824 19.89160156 33.77075195 C19.89064484 34.63261108 19.88968811 35.49447021 19.88870239 36.38244629 C19.88802057 38.20833407 19.88987502 40.03422427 19.89404297 41.86010742 C19.8993912 44.66501273 19.89409807 47.46975791 19.88769531 50.2746582 C19.88835609 52.04418981 19.88963726 53.81372131 19.89160156 55.58325195 C19.88957733 56.42803101 19.8875531 57.27281006 19.88546753 58.14318848 C19.52516896 61.96887056 19.52516896 61.96887056 21.02441406 65.17700195 C26.70226013 65.47149991 32.3828754 65.49130691 38.06762695 65.52709961 C39.98116295 65.54356361 41.89463993 65.57072528 43.80786133 65.60913086 C58.8233272 66.36553892 58.8233272 66.36553892 72.02441406 60.17700195 C77.04219031 54.05909461 78.7883522 48.10466189 78.02441406 40.17700195 C76.86356924 34.48992731 74.45493106 31.09104644 70.03613281 27.40356445 C64.3934994 23.96320156 58.89842921 23.89328195 52.50488281 23.9465332 C51.15611809 23.94722054 51.15611809 23.94722054 49.78010559 23.94792175 C47.88992992 23.95093079 45.99975643 23.95877645 44.10961914 23.97119141 C41.204176 23.98955085 38.29905002 23.99170021 35.39355469 23.99145508 C33.55566129 23.99636685 31.71777005 24.00219368 29.87988281 24.0090332 C29.00704147 24.01014603 28.13420013 24.01125885 27.23490906 24.0124054 C23.31511821 23.65500361 23.31511821 23.65500361 20.02441406 25.17700195 Z M20.02441406 86.17700195 C19.92646095 87.55310077 19.89643318 88.93414078 19.89501953 90.3137207 C19.89186737 91.19133057 19.88871521 92.06894043 19.88546753 92.97314453 C19.88749176 93.92729248 19.88951599 94.88144043 19.89160156 95.86450195 C19.89064484 96.83734131 19.88968811 97.81018066 19.88870239 98.8125 C19.88802048 100.87377995 19.88987554 102.93506204 19.89404297 104.99633789 C19.89939106 108.16337884 19.89409834 111.33027795 19.88769531 114.49731445 C19.88835609 116.4947106 19.88963725 118.49210666 19.89160156 120.48950195 C19.88957733 121.4436499 19.8875531 122.39779785 19.88546753 123.38085938 C19.88861969 124.25846924 19.89177185 125.1360791 19.89501953 126.0402832 C19.89581512 126.81670166 19.89661072 127.59312012 19.89743042 128.39306641 C19.83037865 130.20133857 19.83037865 130.20133857 21.02441406 131.17700195 C22.42982213 131.28028428 23.84032994 131.31549922 25.24951172 131.32226562 C26.14779694 131.32864548 27.04608215 131.33502533 27.97158813 131.34159851 C28.95066132 131.34271133 29.9297345 131.34382416 30.93847656 131.3449707 C32.44297867 131.3499633 32.44297867 131.3499633 33.97787476 131.35505676 C36.10812927 131.36013278 38.23839178 131.36246488 40.36865234 131.36230469 C43.61471913 131.36447872 46.8604393 131.38259273 50.10644531 131.40161133 C52.17545457 131.40454767 54.24446544 131.40653085 56.31347656 131.4074707 C57.76386826 131.41824898 57.76386826 131.41824898 59.24356079 131.429245 C68.43572207 131.39841101 75.26029225 129.73570575 82.02441406 123.17700195 C86.37114049 117.83186778 86.63993103 112.00389061 86.40722656 105.30200195 C85.66412107 99.23583467 83.49858608 95.68467788 79.27441406 91.36450195 C71.99179272 86.46273759 65.55949743 85.71305773 56.99707031 85.63012695 C55.96754745 85.60980408 54.9380246 85.5894812 53.87730408 85.56854248 C51.71673692 85.5285409 49.55603493 85.49530362 47.39526367 85.46850586 C44.07264874 85.42682299 40.75092122 85.36421178 37.42871094 85.2980957 C35.32651797 85.26172977 33.22430441 85.22653145 31.12207031 85.19262695 C30.12426041 85.17500305 29.1264505 85.15737915 28.09840393 85.13922119 C26.72578651 85.12360138 26.72578651 85.12360138 25.32543945 85.10766602 C24.51683975 85.09672913 23.70824005 85.08579224 22.87513733 85.07452393 C21.00751625 84.97158933 21.00751625 84.97158933 20.02441406 86.17700195 Z " fill="#155BCD" transform="translate(848.9755859375,124.822998046875)"/>
<path d="M0 0 C1.084021 0.00523682 2.16804199 0.01047363 3.28491211 0.01586914 C4.45473633 0.0190918 5.62456055 0.02231445 6.82983398 0.02563477 C8.0615332 0.03401367 9.29323242 0.04239258 10.56225586 0.05102539 C12.41560547 0.05779297 12.41560547 0.05779297 14.30639648 0.06469727 C17.37089703 0.07652931 20.43530307 0.09301366 23.49975586 0.11352539 C23.52308307 20.69689377 23.54073416 41.28025998 23.55156803 61.86363888 C23.55673137 71.42016478 23.56377478 80.97668248 23.57519531 90.53320312 C23.585141 98.85954546 23.59160901 107.18588187 23.59384435 115.51222998 C23.59515166 119.92377396 23.59823874 124.33530097 23.60548592 128.74683952 C23.61224432 132.89422926 23.61437319 137.04159492 23.61286354 141.18898964 C23.61313995 142.71566269 23.61514614 144.24233651 23.61896133 145.76900482 C23.6238958 147.84435998 23.62275509 149.91962281 23.62001038 151.99497986 C23.62093217 153.1592044 23.62185396 154.32342894 23.62280369 155.52293301 C23.49975586 158.11352539 23.49975586 158.11352539 22.49975586 159.11352539 C20.8041686 159.21284693 19.10449839 159.24432546 17.40600586 159.24633789 C16.37604492 159.24762695 15.34608398 159.24891602 14.28491211 159.25024414 C12.65875977 159.24444336 12.65875977 159.24444336 10.99975586 159.23852539 C9.9156543 159.24239258 8.83155273 159.24625977 7.71459961 159.25024414 C6.68463867 159.24895508 5.65467773 159.24766602 4.59350586 159.24633789 C3.6415332 159.24520996 2.68956055 159.24408203 1.70874023 159.24291992 C-0.50024414 159.11352539 -0.50024414 159.11352539 -1.50024414 158.11352539 C-1.73677937 155.5875628 -1.92198106 153.08245332 -2.06274414 150.55102539 C-2.12751953 149.48464844 -2.12751953 149.48464844 -2.19360352 148.39672852 C-2.29996191 146.63590627 -2.4006326 144.87474219 -2.50024414 143.11352539 C-6.01419543 144.58812995 -7.9707999 146.5466443 -10.50024414 149.36352539 C-19.39788286 158.45140968 -30.37039582 162.056597 -42.81274414 162.42602539 C-58.119539 162.12344921 -71.03215357 156.32196042 -82.02368164 145.75805664 C-93.40505349 133.60476209 -99.54173724 117.68331533 -99.93774414 101.05102539 C-99.22430887 81.40926058 -92.52948624 66.50416756 -78.50024414 53.11352539 C-74.71354367 49.74535498 -71.11173662 47.15568925 -66.56274414 44.92602539 C-65.5843457 44.4374707 -64.60594727 43.94891602 -63.59790039 43.44555664 C-52.3388249 38.6040122 -37.22287403 37.65102488 -25.68774414 42.23852539 C-19.36421141 45.4317745 -14.0866346 49.3979913 -9.18774414 54.48852539 C-6.76868351 57.46289515 -6.76868351 57.46289515 -3.50024414 57.11352539 C-3.50246475 56.41417374 -3.50468536 55.71482208 -3.50697327 54.99427795 C-3.52697694 48.41647618 -3.54221866 41.83868285 -3.55205631 35.26085758 C-3.55728389 31.87880726 -3.56437925 28.49678199 -3.57568359 25.11474609 C-3.58858681 21.23022762 -3.59347338 17.34571942 -3.59790039 13.46118164 C-3.60306168 12.24141129 -3.60822296 11.02164093 -3.61354065 9.76490784 C-3.61361618 8.64382126 -3.61369171 7.52273468 -3.61376953 6.36767578 C-3.61599014 5.37506241 -3.61821075 4.38244904 -3.62049866 3.35975647 C-3.4497006 0.16942392 -3.20634777 0.14558654 0 0 Z M-63.50024414 75.11352539 C-71.56680445 86.74298331 -72.67330569 97.27139907 -71.50024414 111.11352539 C-70.70072976 114.89304793 -69.51333464 117.83199855 -67.50024414 121.11352539 C-67.0993457 121.82508789 -66.69844727 122.53665039 -66.28540039 123.26977539 C-61.74710343 130.32057878 -54.36155313 134.17406597 -46.43774414 136.48852539 C-34.4250128 138.39530814 -24.4964301 135.98569804 -14.50415039 128.87133789 C-6.73216668 122.05380832 -3.19186929 111.95394149 -2.43774414 101.85180664 C-2.68229707 91.13733157 -6.31236518 80.90573927 -14.00024414 73.36352539 C-21.68986981 67.16268063 -30.89720643 64.29709225 -40.71118164 64.75024414 C-48.97111639 65.82611799 -57.50273918 69.26595805 -63.50024414 75.11352539 Z " fill="#46C785" transform="translate(1595.500244140625,120.886474609375)"/>
<path d="M0 0 C1.06476563 0.37382813 2.12953125 0.74765625 3.2265625 1.1328125 C10.23473644 3.81188659 16.12034584 7.36225299 22 12 C22.76054688 12.59554687 23.52109375 13.19109375 24.3046875 13.8046875 C37.71359168 24.98650725 45.26943099 38.69430991 47 56 C38.09 56 29.18 56 20 56 C15.875 47.9375 15.875 47.9375 14.61669922 45.44116211 C8.46288332 33.62725025 0.11007064 27.91976216 -12.44921875 23.89453125 C-28.51053057 19.84594022 -43.44105783 22.46504164 -57.65234375 30.85546875 C-68.69851318 37.93171964 -75.04422083 48.84862629 -78.23828125 61.4765625 C-80.40556404 71.61685883 -80.06000806 80.88925773 -78 91 C-77.81308594 91.92296875 -77.62617188 92.8459375 -77.43359375 93.796875 C-73.98144134 107.43179144 -65.68259225 116.80765579 -54 124 C-53.40703125 124.38414062 -52.8140625 124.76828125 -52.203125 125.1640625 C-40.440201 131.98239455 -25.87840816 131.94327523 -13 129 C0.13810479 125.26219524 7.35139558 119.92492956 14.23828125 108.31640625 C15.50603415 105.92988249 16.62248153 103.63102761 17.66796875 101.15234375 C19 98 19 98 20 97 C21.99964982 96.91241997 24.0023611 96.89303424 26.00390625 96.90234375 C27.82631836 96.90717773 27.82631836 96.90717773 29.68554688 96.91210938 C30.96494141 96.92048828 32.24433594 96.92886719 33.5625 96.9375 C34.84576172 96.94201172 36.12902344 96.94652344 37.45117188 96.95117188 C40.63416022 96.96300455 43.81705762 96.97948932 47 97 C45.87125903 113.78370437 37.78377935 126.70123639 25.8125 138.25 C9.28232291 152.61001418 -11.24914067 158.29240251 -33 157 C-55.38983695 155.28513654 -75.28721412 145.03133774 -90 128 C-102.23153187 111.95898429 -108.17439869 96.90582714 -108.1875 76.625 C-108.19974609 75.635 -108.21199219 74.645 -108.22460938 73.625 C-108.23680472 67.46228476 -107.59945677 61.94568928 -106 56 C-105.81179688 55.16210938 -105.62359375 54.32421875 -105.4296875 53.4609375 C-101.75049546 39.62510265 -94.08068711 28.83965802 -84 19 C-83.19691406 18.18789062 -82.39382813 17.37578125 -81.56640625 16.5390625 C-60.41265821 -3.81577552 -27.43240381 -9.96949592 0 0 Z " fill="#155BCD" transform="translate(586,126)"/>
<path d="M0 0 C1.1653125 -0.00128906 2.330625 -0.00257812 3.53125 -0.00390625 C4.7584375 -0.00003906 5.985625 0.00382812 7.25 0.0078125 C9.09078125 0.00201172 9.09078125 0.00201172 10.96875 -0.00390625 C12.71671875 -0.00197266 12.71671875 -0.00197266 14.5 0 C15.57765625 0.00112793 16.6553125 0.00225586 17.765625 0.00341797 C20.25 0.1328125 20.25 0.1328125 21.25 1.1328125 C21.3487888 4.19952472 21.38297378 7.24437615 21.37597656 10.31152344 C21.3778447 11.27589828 21.37971283 12.24027313 21.38163757 13.23387146 C21.38565352 15.3379057 21.3877175 17.44194433 21.38809967 19.54598236 C21.39150886 24.02960779 21.41287424 28.5130874 21.43333054 32.99666214 C21.47133925 41.34951792 21.50262652 49.70222376 21.50048828 58.05517578 C21.49969736 63.85965973 21.52323683 69.66361773 21.5623703 75.46796417 C21.57278312 77.67331828 21.57438942 79.87873346 21.56671906 82.08409882 C21.52930756 94.04418198 21.50371577 104.33955678 27.25 115.1328125 C27.58034241 115.76725281 27.91068481 116.40169312 28.2510376 117.05535889 C33.2021057 125.39534163 41.34510062 128.58647171 50.29296875 130.9296875 C61.22202151 133.11283568 71.93029455 131.40233659 81.4296875 125.42578125 C89.71990085 119.53723915 93.74259349 110.37712824 95.83169365 100.63034058 C96.52433697 96.49486395 96.55015471 92.40746923 96.55297852 88.22265625 C96.56563751 86.80394981 96.56563751 86.80394981 96.57855225 85.35658264 C96.60414002 82.26115364 96.61642143 79.1658195 96.62890625 76.0703125 C96.64509311 73.91079973 96.66227435 71.7512942 96.68040466 69.59179688 C96.72592649 63.93043352 96.76082861 58.2690604 96.79260254 52.60760498 C96.84465196 43.51795636 96.90945313 34.42841322 96.98081779 25.33889771 C97.00370502 22.16075604 97.01993368 18.98262808 97.03553772 15.80444336 C97.0489354 13.87223148 97.06254941 11.94002108 97.07641602 10.0078125 C97.07902939 9.11852554 97.08164276 8.22923859 97.08433533 7.31300354 C97.13635261 1.24645989 97.13635261 1.24645989 98.25 0.1328125 C100.16458282 0.03309464 102.08282317 0.00200661 104 0 C105.1653125 -0.00128906 106.330625 -0.00257812 107.53125 -0.00390625 C108.7584375 -0.00003906 109.985625 0.00382812 111.25 0.0078125 C113.09078125 0.00201172 113.09078125 0.00201172 114.96875 -0.00390625 C116.71671875 -0.00197266 116.71671875 -0.00197266 118.5 0 C119.57765625 0.00112793 120.6553125 0.00225586 121.765625 0.00341797 C124.25 0.1328125 124.25 0.1328125 125.25 1.1328125 C125.36137618 4.19426595 125.40740721 7.23336084 125.41113281 10.2956543 C125.41609772 11.25842285 125.42106262 12.22119141 125.42617798 13.21313477 C125.44085725 16.41944075 125.44761534 19.62569708 125.453125 22.83203125 C125.45887697 25.06150819 125.4646347 27.29098512 125.47039795 29.52046204 C125.48092786 34.21066519 125.48675575 38.90085113 125.49023438 43.59106445 C125.49568713 49.57030781 125.51963721 55.54931974 125.54820633 61.52849102 C125.56694415 66.14336276 125.57204447 70.75818038 125.57357025 75.37308693 C125.57657826 77.57486024 125.5845434 79.77663303 125.59775543 81.97836876 C125.67857619 96.49771781 125.72881893 110.87021284 118.9375 124.1328125 C118.60266602 124.79015381 118.26783203 125.44749512 117.92285156 126.12475586 C110.41699734 139.83560307 96.74096426 151.17625968 81.71484375 155.578125 C61.43991324 160.14078765 39.56366103 159.41830586 21.421875 148.41796875 C6.99806429 138.5670701 -2.29041846 125.35903297 -6.11170959 108.3555603 C-7.71650008 99.18407821 -7.13251641 89.63962355 -7.078125 80.3671875 C-7.07506274 78.07887903 -7.07319017 75.7905687 -7.07244873 73.5022583 C-7.06787092 68.73499284 -7.05353296 63.96789868 -7.03125 59.20068359 C-7.00277628 53.07709218 -6.99201649 46.95363411 -6.9875679 40.82998276 C-6.98342481 36.11872009 -6.97361981 31.40748454 -6.96169281 26.69623566 C-6.95598367 24.43628405 -6.9512271 22.17632983 -6.94742584 19.91637421 C-6.94059311 16.77590771 -6.92698019 13.63554946 -6.91113281 10.49511719 C-6.91001495 9.55600998 -6.90889709 8.61690277 -6.90774536 7.64933777 C-6.85636111 0.00717622 -6.85636111 0.00717622 0 0 Z " fill="#155BCD" transform="translate(672.75,124.8671875)"/>
<path d="M0 0 C89.43 0 178.86 0 271 0 C271 0.33 271 0.66 271 1 C209.95 1 148.9 1 86 1 C87.381875 17.396875 88.76375 33.79375 90.1875 50.6875 C91.01361621 60.51166925 91.83958917 70.3358492 92.6640625 80.16015625 C92.76325611 81.34210131 92.86244972 82.52404636 92.9646492 83.74180794 C93.36763233 88.54386566 93.770582 93.34592619 94.17339897 98.14799786 C94.68249408 104.21702932 95.19205393 110.28602132 95.70224857 116.35496044 C96.38824671 124.51596964 97.07077442 132.67725374 97.74771118 140.83901978 C97.95602987 143.34447865 98.16562568 145.8498317 98.3765564 148.35507202 C98.66209388 151.74945552 98.94304361 155.14418658 99.22265625 158.5390625 C99.30345428 159.4872435 99.38425232 160.4354245 99.46749878 161.41233826 C99.57458664 162.7311776 99.57458664 162.7311776 99.68383789 164.07666016 C99.77635582 165.1880687 99.77635582 165.1880687 99.8707428 166.32192993 C100.05841674 170.21033198 100 174.10707154 100 178 C125.74 178 151.48 178 178 178 C178 178.33 178 178.66 178 179 C165.81737752 179.02358548 153.63476082 179.04114271 141.45211983 179.05181217 C135.79001156 179.05694319 130.12791934 179.06385283 124.46582031 179.07543945 C95.29417115 179.13358393 66.15940152 178.87436183 37 178 C37 177.67 37 177.34 37 177 C41.62 177 46.24 177 51 177 C50.89453857 175.65518555 50.78907715 174.31037109 50.68041992 172.92480469 C48.54349898 145.62634911 46.48573737 118.3259427 44.66958618 91.00424194 C44.08237373 82.1861579 43.48003384 73.36913605 42.87660408 64.55215073 C42.52858572 59.46359757 42.18183363 54.37495796 41.83508968 49.28631783 C41.54598737 45.0445566 41.25626515 40.80283969 40.96511841 36.56121826 C40.68915838 32.53982219 40.41518865 28.51829508 40.14264679 24.49666595 C40.04071256 22.99761869 39.93807045 21.49861937 39.83467865 19.99967194 C39.69169302 17.9251975 39.55123877 15.85056596 39.41137695 13.77587891 C39.29171318 12.02303085 39.29171318 12.02303085 39.16963196 10.23477173 C39.00840195 7.16021977 39 4.07877652 39 1 C26.46 1 13.92 1 1 1 C1 2.32 1 3.64 1 5 C0.34 4.67 -0.32 4.34 -1 4 C-0.67 2.68 -0.34 1.36 0 0 Z " fill="#C89A70" transform="translate(118,130)"/>
<path d="M0 0 C1.42119141 0.63615234 1.42119141 0.63615234 2.87109375 1.28515625 C9.90902171 4.78947822 15.45907979 9.46856766 21 15 C21.6496875 15.63808594 22.299375 16.27617187 22.96875 16.93359375 C28.01438834 22.255857 31.1467088 28.28179619 34 35 C34.34289063 35.80566406 34.68578125 36.61132812 35.0390625 37.44140625 C40.06801912 52.08177997 38.2976527 70.06544693 32 84 C29.9804258 87.65828578 27.68811236 90.80786657 25 94 C24.319375 94.85207031 23.63875 95.70414062 22.9375 96.58203125 C12.30938045 109.24088078 -1.89563837 115.63936065 -18 118 C-33.87748646 118.88666483 -49.2722016 116.4742787 -61.77734375 106.01171875 C-76.00590292 93.13349736 -84.85730204 80.31622827 -86.23828125 60.59765625 C-86.62675001 42.09427567 -81.37224232 26.94738912 -68.44140625 13.31640625 C-60.89442826 6.15583353 -52.82005826 1.38713239 -43 -2 C-41.95585938 -2.36609375 -40.91171875 -2.7321875 -39.8359375 -3.109375 C-27.11944312 -6.06188082 -11.93813052 -5.38978889 0 0 Z M-51.85546875 33.1875 C-58.28870235 42.84529267 -60.25703916 54.69730776 -58 66 C-55.96073222 75.13949208 -51.08125474 82.28528938 -43.40234375 87.6796875 C-35.28228387 92.1424196 -26.23549992 94.52881403 -17.1640625 92.3046875 C-8.20847656 89.62026753 -0.74143767 86.27598601 4.375 78.1875 C5.28908344 76.4786718 6.16660372 74.74959796 7 73 C7.3403125 72.28972656 7.680625 71.57945312 8.03125 70.84765625 C11.62417881 61.91523602 11.14044237 51.22985976 7.97265625 42.2421875 C3.87140066 32.78788747 -1.69307163 27.1745949 -11.1875 23.125 C-25.74051258 17.95133727 -41.63852402 21.14225989 -51.85546875 33.1875 Z " fill="#46C785" transform="translate(1287,165)"/>
<path d="M0 0 C1.18335938 0.5259375 1.18335938 0.5259375 2.390625 1.0625 C18.39858641 9.1224526 29.46180815 23.03373757 35.3125 39.75 C38.7011906 55.76926466 37.80772429 72.37790057 30 87 C27.59494342 90.59955016 24.90301913 93.79383374 22 97 C21.28199219 97.845625 20.56398438 98.69125 19.82421875 99.5625 C9.36405365 111.09505177 -5.4880633 117.12433283 -20.90234375 118.203125 C-37.41836074 118.45819862 -52.65641857 114.65849009 -65.375 103.6875 C-78.2132338 91.20705304 -85.84180815 77.43365759 -86.22998047 59.39306641 C-86.38342953 41.05028964 -81.15337183 26.24733657 -68.25 12.75 C-50.36535297 -4.19476318 -23.00911885 -10.34729605 0 0 Z M-52 33 C-58.70574419 44.20565147 -60.97650885 55.30796263 -58.3515625 68.1796875 C-55.33120134 77.29240109 -50.64281856 83.95798943 -42.0625 88.4375 C-31.13272262 93.35726263 -22.64519286 94.02597495 -11.15625 90.2578125 C-2.56946358 86.83585058 3.4414285 80.6097872 7.2578125 72.2421875 C11.19310272 61.70221438 11.40999557 51.41757443 7 41 C2.61184359 31.78623856 -2.79508637 26.55670803 -12.1875 22.625 C-26.00114654 18.10936658 -42.647828 21.22476526 -52 33 Z " fill="#46C785" transform="translate(1435,165)"/>
<path d="M0 0 C34.98 0 69.96 0 106 0 C106 7.92 106 15.84 106 24 C104.08203154 25.91796846 100.52508878 25.18403477 97.90991211 25.20532227 C97.16849472 25.21522186 96.42707733 25.22512146 95.66319275 25.23532104 C93.20127607 25.26702466 90.73934007 25.29172826 88.27734375 25.31640625 C86.57482895 25.33696814 84.87231935 25.3579644 83.16981506 25.37937927 C78.68012691 25.43467899 74.19039208 25.48405328 69.70062256 25.53222656 C64.31830468 25.59119654 58.93607244 25.65746779 53.55382538 25.72252655 C45.36926904 25.82063542 37.18465879 25.90942337 29 26 C29 40.52 29 55.04 29 70 C61.67 70.495 61.67 70.495 95 71 C95 78.26 95 85.52 95 93 C93.18502618 94.81497382 90.36404428 94.17235393 87.91967773 94.20532227 C85.96776772 94.2352401 85.96776772 94.2352401 83.97642517 94.26576233 C82.5454826 94.28274799 81.11453875 94.29962675 79.68359375 94.31640625 C78.2277008 94.33696906 76.77181391 94.35796534 75.31593323 94.37937927 C71.47727353 94.43466961 67.63855935 94.48404802 63.79980469 94.53222656 C59.88536712 94.58239091 55.97100904 94.63810336 52.05664062 94.69335938 C44.37116099 94.80102603 36.68561543 94.90245193 29 95 C28.9845388 96.10540382 28.9845388 96.10540382 28.96876526 97.23313904 C28.87095357 104.16421076 28.76846284 111.09519902 28.66066074 118.02612209 C28.60539973 121.58972968 28.55197482 125.15334543 28.50268555 128.71704102 C28.44599468 132.81015245 28.38142682 136.9031061 28.31640625 140.99609375 C28.29133751 142.92418129 28.29133751 142.92418129 28.26576233 144.89122009 C28.24581711 146.07236893 28.22587189 147.25351776 28.20532227 148.47045898 C28.18977798 149.51636703 28.1742337 150.56227509 28.15821838 151.63987732 C28 154 28 154 27 155 C25.08541718 155.09971786 23.16717683 155.13080589 21.25 155.1328125 C20.0846875 155.13410156 18.919375 155.13539063 17.71875 155.13671875 C16.4915625 155.13285156 15.264375 155.12898437 14 155.125 C12.7728125 155.12886719 11.545625 155.13273438 10.28125 155.13671875 C9.1159375 155.13542969 7.950625 155.13414062 6.75 155.1328125 C5.67234375 155.13168457 4.5946875 155.13055664 3.484375 155.12939453 C1 155 1 155 0 154 C-0.096708 152.01305149 -0.12187052 150.02260987 -0.12025452 148.03330994 C-0.12162918 146.73615555 -0.12300385 145.43900116 -0.12442017 144.10253906 C-0.12088055 142.6516111 -0.11724573 141.20068337 -0.11352539 139.74975586 C-0.11324353 138.23238629 -0.11340123 136.71501658 -0.1139679 135.19764709 C-0.11425591 131.06559484 -0.10835858 126.93357137 -0.10139394 122.80152583 C-0.09516102 118.48801108 -0.09455665 114.17449573 -0.09336853 109.86097717 C-0.09025503 101.68699883 -0.08204139 93.51303379 -0.07201904 85.33906132 C-0.05877341 74.29760874 -0.05335815 63.25615254 -0.04751682 52.21469402 C-0.03810151 34.80978604 -0.01818272 17.40490614 0 0 Z " fill="#46C785" transform="translate(1072,125)"/>
<path d="M0 0 C2.05650684 19.53130453 3.6237273 39.06497736 4.93798828 58.65917969 C5.63080337 68.94984816 6.36600197 79.22709756 7.44165039 89.48657227 C8.00809637 95.08320515 8 100.28714189 8 106 C-21.7 106 -51.4 106 -82 106 C-82 72.09318637 -82 72.09318637 -79 60 C-78.8443457 59.34789551 -78.68869141 58.69579102 -78.52832031 58.02392578 C-73.82071961 39.18882479 -59.83196099 23.28806896 -43.56787109 13.09399414 C-30.31312175 5.25572745 -15.47838204 -0.32565903 0 0 Z " fill="#FEA03C" transform="translate(118,136)"/>
<path d="M0 0 C34.98 0 69.96 0 106 0 C107.60687488 3.21374977 107.36428456 6.75081667 107.53515625 10.2890625 C107.59962196 11.51669815 107.59962196 11.51669815 107.66539001 12.76913452 C107.80192737 15.38756037 107.93228209 18.006253 108.0625 20.625 C108.15389037 22.39845849 108.24568216 24.17189635 108.33789062 25.9453125 C108.56325524 30.29664907 108.78307483 34.64823487 109 39 C109.76248047 39.30325195 110.52496094 39.60650391 111.31054688 39.91894531 C113.22662714 40.68913444 115.13263626 41.48458149 117.03125 42.296875 C142.0394427 52.77328005 168.10653283 56.87093385 195 59 C195 59.33 195 59.66 195 60 C175.98123736 60.02332777 156.96247761 60.04097858 137.94370365 60.05181217 C129.11358729 60.05697539 120.28347981 60.06401857 111.45336914 60.07543945 C103.75987935 60.08538551 96.06639599 60.09185324 88.37289995 60.09408849 C84.29670348 60.09539574 80.22052539 60.09848243 76.14433479 60.10573006 C72.31212245 60.11248904 68.47993616 60.11461721 64.64771843 60.11310768 C63.23714939 60.11338406 61.82657953 60.11538991 60.41601562 60.11920547 C58.49834311 60.12414075 56.58065679 60.12239802 54.66297913 60.12025452 C53.58724671 60.12117631 52.5115143 60.1220981 51.40318394 60.12304783 C49 60 49 60 48 59 C46.51153778 58.70462714 45.0128995 58.46013984 43.51171875 58.23828125 C16.9771632 54.06909158 16.9771632 54.06909158 7.55078125 42.26171875 C-0.36063972 30.7233995 0.81609665 13.0575464 0 0 Z " fill="#FDA03D" transform="translate(34,340)"/>
<path d="M0 0 C11.22 0 22.44 0 34 0 C33.20968234 16.89849465 31.74340011 33.73566887 30.30645943 50.58851576 C30.01959689 53.95656926 29.73438384 57.32476166 29.44915342 60.69295371 C28.77689566 68.63111632 28.10198003 76.56904975 27.42529297 84.50683594 C26.72812021 92.68542966 26.03528969 100.86438314 25.34456968 109.04352415 C24.74904412 116.09377583 24.15098231 123.14380916 23.55084658 130.19366992 C23.19337935 134.39308727 22.83684527 138.59257837 22.48271179 142.79227829 C22.15075274 146.72758259 21.81562404 150.66260423 21.47803307 154.59742928 C21.3547534 156.0405184 21.23259189 157.48370355 21.11162758 158.9269886 C20.94646666 160.89546046 20.77687608 162.86355916 20.60705566 164.83163452 C20.51340981 165.93284323 20.41976395 167.03405193 20.32328033 168.1686306 C20 171 20 171 19 175 C8.11 175 -2.78 175 -14 175 C-14 166.97182112 -13.92963601 159.25940883 -13.23730469 151.31176758 C-13.15594772 150.32704468 -13.07459076 149.34232178 -12.99076843 148.32775879 C-12.72283 145.09957413 -12.44736032 141.87207986 -12.171875 138.64453125 C-11.97918146 136.33912712 -11.78699284 134.03368074 -11.59527588 131.72819519 C-11.08856088 125.649574 -10.57559225 119.5714972 -10.06109619 113.49353027 C-9.45396496 106.30968003 -8.85356146 99.12526564 -8.25255585 91.9409008 C-8.15418678 90.7650297 -8.05581772 89.58915859 -7.95446777 88.37765503 C-7.80717476 86.61690454 -7.80717476 86.61690454 -7.65690613 84.82058334 C-7.35998431 81.27680335 -7.06176103 77.73313478 -6.76330566 74.18948364 C-5.76070375 62.26319533 -4.78152096 50.33553624 -3.84570312 38.40380859 C-3.75369251 37.23449515 -3.6616819 36.06518171 -3.56688309 34.86043453 C-3.12904992 29.29118542 -2.69530739 23.72166999 -2.26849365 18.15156555 C-2.11435273 16.1787512 -1.96008374 14.20594685 -1.80566406 12.2331543 C-1.73842384 11.3354727 -1.67118362 10.4377911 -1.60190582 9.51290703 C-1.53703728 8.69316965 -1.47216873 7.87343227 -1.40533447 7.02885437 C-1.35082249 6.31862971 -1.2963105 5.60840506 -1.24014664 4.87665844 C-1 3 -1 3 0 0 Z " fill="#AD8159" transform="translate(356,131)"/>
<path d="M0 0 C0.77126221 -0.00073013 1.54252441 -0.00146027 2.3371582 -0.00221252 C4.87548214 0.00125899 7.41194959 0.04009633 9.94995117 0.0793457 C11.71399432 0.08867546 13.47805045 0.0957908 15.24211121 0.1007843 C19.87682088 0.11984148 24.5107425 0.16893086 29.1451416 0.2243042 C33.87749573 0.27552454 38.60997766 0.29830427 43.3425293 0.32348633 C52.62217172 0.37705114 61.90123019 0.46234818 71.18041992 0.56762695 C73.34963486 4.76343453 74.73930079 8.33732723 75.56713867 12.99731445 C75.78305664 14.20516602 75.99897461 15.41301758 76.22143555 16.6574707 C76.43477539 17.90657227 76.64811523 19.15567383 76.86791992 20.44262695 C77.20533203 22.30467773 77.20533203 22.30467773 77.54956055 24.2043457 C78.66321343 30.56130655 79.18041992 36.02044218 79.18041992 42.56762695 C20.77041992 42.56762695 -37.63958008 42.56762695 -97.81958008 42.56762695 C-97.10779113 38.29689327 -96.54201867 35.44469907 -94.97192383 31.60668945 C-94.43535156 30.28217773 -94.43535156 30.28217773 -93.88793945 28.9309082 C-93.51475586 28.02727539 -93.14157227 27.12364258 -92.75708008 26.19262695 C-92.3800293 25.26579102 -92.00297852 24.33895508 -91.61450195 23.3840332 C-90.68831612 21.10960216 -89.7565534 18.83763028 -88.81958008 16.56762695 C-87.67897881 16.58214401 -87.67897881 16.58214401 -86.51533508 16.59695435 C-79.29318151 16.67985807 -72.07314471 16.71369706 -64.85059834 16.69459724 C-61.13856247 16.68645324 -57.42850275 16.69623144 -53.71679688 16.74926758 C-34.53382563 17.91694836 -34.53382563 17.91694836 -17.61254883 10.80981445 C-15.11138695 8.29995247 -12.91146693 5.68007457 -10.67105103 2.93833923 C-7.09636634 -0.03365278 -4.4444314 -0.11085228 0 0 Z " fill="#4A4A4A" transform="translate(299.819580078125,-0.567626953125)"/>
<path d="M0 0 C-1 1 -1 1 -3.51197815 1.12025452 C-4.62894577 1.11803391 -5.74591339 1.11581329 -6.89672852 1.11352539 C-8.15796036 1.11344986 -9.4191922 1.11337433 -10.71864319 1.11329651 C-12.10539794 1.1081891 -13.49215229 1.10297309 -14.87890625 1.09765625 C-16.28995209 1.09579201 -17.70099857 1.09436814 -19.11204529 1.09336853 C-22.83240535 1.08954379 -26.5527266 1.0797139 -30.27307129 1.06866455 C-34.06680781 1.05844948 -37.86055058 1.05387071 -41.65429688 1.04882812 C-49.10288231 1.03809158 -56.55143572 1.0210157 -64 1 C-64.14695312 1.53625 -64.29390625 2.0725 -64.4453125 2.625 C-66.84387914 11.00619838 -69.90043553 18.73449475 -73 27 C-14.59 27 43.82 27 104 27 C104.33 26.34 104.66 25.68 105 25 C106.89666526 25.08772455 108.79238993 25.19591301 110.6875 25.3125 C112.27111328 25.39951172 112.27111328 25.39951172 113.88671875 25.48828125 C117.55047039 26.09047882 120.34737457 27.34737457 123 30 C123.375 32.8125 123.375 32.8125 123 36 C121.37064759 37.37868281 119.70250393 38.71274093 118 40 C117.12056596 42.63460948 117.12056596 42.63460948 117 45 C116.67 45 116.34 45 116 45 C116 43.35 116 41.7 116 40 C115.41789098 40.00151888 114.83578195 40.00303776 114.23603326 40.00460267 C79.74838493 40.09408234 45.26075976 40.16272969 10.77302005 40.20426132 C6.63359195 40.20926425 2.49416408 40.21444152 -1.64526367 40.21972656 C-2.4693618 40.2207758 -3.29345992 40.22182505 -4.14253072 40.22290608 C-17.49256656 40.2403193 -30.84253361 40.27186202 -44.19252863 40.30861118 C-57.88716876 40.34599514 -71.58177283 40.36823046 -85.2764619 40.37635398 C-93.72931246 40.38184705 -102.18196862 40.39920678 -110.63475934 40.43166587 C-116.42831307 40.45278236 -122.22176606 40.45920657 -128.01535549 40.45400551 C-131.35989924 40.45143916 -134.70382822 40.45759358 -138.04835892 40.4768219 C-141.67274666 40.49664253 -145.29629399 40.49196722 -148.92070007 40.48101807 C-149.9800376 40.49266943 -151.03937512 40.5043208 -152.13081378 40.51632524 C-156.57920172 40.47985331 -159.25585142 40.43481443 -163.15339375 38.15743637 C-165 36 -165 36 -165.625 33 C-165 30 -165 30 -163.25 27.6875 C-158.36781415 25.15251889 -153.43199744 25.17326946 -148 25 C-146.3071131 19.67949832 -145.47551926 14.51611954 -144.85546875 8.96484375 C-143.72563907 5.04913266 -142.37908732 2.29975331 -139 0 C-134.64310677 -0.92503948 -130.32803863 -0.82634932 -125.88793945 -0.78881836 C-124.54068949 -0.7986311 -123.19345641 -0.81105789 -121.84625244 -0.82589722 C-118.19544426 -0.85858277 -114.54551064 -0.85436896 -110.89460778 -0.84322429 C-107.07442115 -0.83756342 -103.25446945 -0.86495799 -99.43437195 -0.88856506 C-93.02283978 -0.92358005 -86.61157433 -0.93686685 -80.19995117 -0.93481445 C-71.1507765 -0.93196589 -62.10208651 -0.96915156 -53.05304015 -1.01392543 C-46.03148337 -1.04716139 -39.00988438 -1.06913704 -31.98828125 -1.08984375 C-30.85677781 -1.09341294 -30.85677781 -1.09341294 -29.7024157 -1.09705424 C-25.37217971 -1.110151 -21.04200273 -1.11767428 -16.71174622 -1.11646652 C-14.7703263 -1.11693222 -12.82890942 -1.12221174 -10.88749695 -1.12760925 C-9.73923431 -1.12597778 -8.59097168 -1.12434631 -7.40791321 -1.12266541 C-6.40596578 -1.12316863 -5.40401834 -1.12367186 -4.37170887 -1.12419033 C-2 -1 -2 -1 0 0 Z " fill="#595B5D" transform="translate(275,15)"/>
<path d="M0 0 C4.29161047 -0.05783842 8.58312145 -0.0935412 12.875 -0.125 C14.09832031 -0.14175781 15.32164062 -0.15851563 16.58203125 -0.17578125 C17.74863281 -0.18222656 18.91523437 -0.18867187 20.1171875 -0.1953125 C21.19597168 -0.20578613 22.27475586 -0.21625977 23.38623047 -0.22705078 C26 0 26 0 28 2 C28.25168228 4.59873199 28.25168228 4.59873199 28.25396729 7.95959473 C28.25960693 9.229991 28.26524658 10.50038727 28.27105713 11.8092804 C28.26716816 13.2250677 28.2630718 14.64085445 28.25878906 16.05664062 C28.26149785 17.54135815 28.26505815 19.02607434 28.26940918 20.51078796 C28.27854886 24.54996454 28.27498246 28.58903927 28.26865101 32.6282177 C28.26359916 36.84870561 28.26828018 41.06918461 28.27142334 45.28967285 C28.27506537 52.37818981 28.27025769 59.46666514 28.26074219 66.55517578 C28.24985717 74.75880536 28.25338259 82.96233553 28.264395 91.1659627 C28.27346114 98.20037962 28.27475646 105.23476657 28.26951766 112.26918745 C28.26639424 116.47450357 28.26599877 120.67977292 28.27259064 124.88508606 C28.27835371 128.83802269 28.27438638 132.79083074 28.26280212 136.74375343 C28.26014995 138.19743956 28.26093008 139.65113645 28.26532745 141.10481834 C28.27076218 143.08334348 28.26275046 145.06189217 28.25396729 147.04040527 C28.25321323 148.14948997 28.25245918 149.25857468 28.25168228 150.40126801 C28 153 28 153 26 155 C23.49389648 155.24291992 23.49389648 155.24291992 20.37109375 155.23046875 C19.25412109 155.22853516 18.13714844 155.22660156 16.98632812 155.22460938 C15.81521484 155.21236328 14.64410156 155.20011719 13.4375 155.1875 C12.26251953 155.18685547 11.08753906 155.18621094 9.87695312 155.18554688 C1.14012141 155.14012141 1.14012141 155.14012141 0 154 C-0.096708 152.01305149 -0.12187052 150.02260987 -0.12025452 148.03330994 C-0.12162918 146.73615555 -0.12300385 145.43900116 -0.12442017 144.10253906 C-0.12088055 142.6516111 -0.11724573 141.20068337 -0.11352539 139.74975586 C-0.11324353 138.23238629 -0.11340123 136.71501658 -0.1139679 135.19764709 C-0.11425591 131.06559484 -0.10835858 126.93357137 -0.10139394 122.80152583 C-0.09516102 118.48801108 -0.09455665 114.17449573 -0.09336853 109.86097717 C-0.09025503 101.68699883 -0.08204139 93.51303379 -0.07201904 85.33906132 C-0.06085848 76.03571031 -0.0553476 66.73235868 -0.05032361 57.42900264 C-0.03985879 38.28599421 -0.02225899 19.14299817 0 0 Z " fill="#165CCD" transform="translate(999,125)"/>
<path d="M0 0 C1.52264277 0.83002258 3.04324103 1.66379986 4.5625 2.5 C5.68785156 2.9434375 6.81320313 3.386875 7.97265625 3.84375 C11.74962448 5.58633382 15.05399998 7.13113132 17.5625 10.5 C18.42894569 13.9382758 18.44748674 17.27969114 18.4375 20.8125 C18.458125 21.74384766 18.47875 22.67519531 18.5 23.63476562 C18.54696018 25.9240742 18.56695527 28.21030978 18.5625 30.5 C2.82061163 30.54667656 -12.92125812 30.58196748 -28.66319847 30.60362434 C-35.97210373 30.61394632 -43.28096605 30.62802417 -50.58984375 30.65087891 C-56.9586746 30.67078467 -63.32747435 30.68370973 -69.69633543 30.68817699 C-73.0700405 30.69078916 -76.44365661 30.69694785 -79.81733322 30.71146011 C-83.57928587 30.72589009 -87.34105167 30.72798151 -91.10302734 30.72705078 C-92.22727615 30.73424133 -93.35152496 30.74143188 -94.50984192 30.74884033 C-95.53070389 30.746091 -96.55156586 30.74334167 -97.60336304 30.74050903 C-98.49381506 30.74235262 -99.38426708 30.74419621 -100.3017025 30.74609566 C-102.4375 30.5 -102.4375 30.5 -104.4375 28.5 C-105.44909102 20.98532388 -103.30095243 12.97022143 -99.4375 6.5 C-95.99609375 5.21484375 -95.99609375 5.21484375 -92.4375 4.5 C-90.35457779 3.51398737 -90.35457779 3.51398737 -88.5625 2.4375 C-84.13088437 0.22591277 -80.44021313 -1.20023546 -75.4375 -0.5 C-71.36685148 0.93792346 -67.53117168 2.86851135 -63.6953125 4.8359375 C-55.30288775 9.12271561 -43.91237529 9.07425175 -34.9375 6.265625 C-29.77512134 4.41447199 -24.81735129 2.14262933 -19.84765625 -0.171875 C-13.45147122 -2.66294363 -6.38267492 -2.6447548 0 0 Z " fill="#BD012D" transform="translate(121.4375,309.5)"/>
<path d="M0 0 C1.36171829 -0.00131424 1.36171829 -0.00131424 2.75094604 -0.00265503 C5.74394548 0.00151668 8.73468832 0.04814899 11.72729492 0.09521484 C13.80521928 0.10640846 15.88315949 0.11494786 17.96110535 0.12094116 C23.42446784 0.14382625 28.88686992 0.2027476 34.34985352 0.26916504 C39.92670703 0.33059395 45.50371607 0.35795753 51.08081055 0.38818359 C62.01938305 0.45249043 72.95724343 0.55486677 83.89526367 0.68115234 C84.23537992 3.84712806 84.56609554 7.01402114 84.89526367 10.18115234 C84.9906543 11.06802734 85.08604492 11.95490234 85.18432617 12.86865234 C85.73041313 18.17349709 85.99493897 23.34852387 85.89526367 28.68115234 C84.69257686 29.33744083 83.48273813 29.9806274 82.27026367 30.61865234 C81.59737305 30.97830078 80.92448242 31.33794922 80.23120117 31.70849609 C66.5153247 37.41962192 47.56630564 34.02166857 33.89526367 29.68115234 C33.16436523 29.28669922 32.4334668 28.89224609 31.68041992 28.48583984 C29.32459973 27.42391652 28.34697137 27.96763932 25.89526367 28.68115234 C25.23381348 28.87008057 24.57236328 29.05900879 23.89086914 29.25366211 C23.18849121 29.45789795 22.48611328 29.66213379 21.76245117 29.87255859 C13.19500584 32.26836309 4.95227541 34.17540482 -3.97973633 34.24365234 C-4.70950684 34.2579126 -5.43927734 34.27217285 -6.19116211 34.28686523 C-11.2648275 34.19159347 -14.18609981 32.83246243 -18.10473633 29.68115234 C-20.78892671 26.65061482 -21.34548456 24.37318054 -21.16723633 20.43115234 C-20.33111943 14.90910557 -17.50414738 10.99058273 -14.10473633 6.68115234 C-13.4311055 5.65903656 -12.75747467 4.63692078 -12.06343079 3.58383179 C-8.64223765 -0.47443186 -5.02344073 -0.12724113 0 0 Z " fill="#3BDC96" transform="translate(43.104736328125,242.31884765625)"/>
<path d="M0 0 C34.98 0 69.96 0 106 0 C107 2 107 2 107 13 C80.6 13 54.2 13 27 13 C25.49422486 28.45858524 25.49422486 28.45858524 31.33203125 38.5546875 C47.46416068 52.94165253 69.54935181 55.1514269 90 58 C90 58.33 90 58.66 90 59 C26.63613392 60.14709687 26.63613392 60.14709687 11.61328125 46.89453125 C-0.45855241 34.30254677 1.02727597 16.43641544 0 0 Z " fill="#F86F0A" transform="translate(34,340)"/>
<path d="M0 0 C2.06326977 0.08760589 4.1256716 0.19579273 6.1875 0.3125 C7.91033203 0.39951172 7.91033203 0.39951172 9.66796875 0.48828125 C13.46408132 1.07127157 16.25674745 2.25674745 19 5 C19.375 7.8125 19.375 7.8125 19 11 C17.37064759 12.37868281 15.70250393 13.71274093 14 15 C13.12056596 17.63460948 13.12056596 17.63460948 13 20 C12.67 20 12.34 20 12 20 C12 18.35 12 16.7 12 15 C-49.38 15 -110.76 15 -174 15 C-177 7 -177 7 -176 2 C-117.92 2 -59.84 2 0 2 C0 1.34 0 0.68 0 0 Z " fill="#565656" transform="translate(379,40)"/>
<path d="M0 0 C1.6328125 0.3125 1.6328125 0.3125 4 1 C5.06992188 1.309375 6.13984375 1.61875 7.2421875 1.9375 C9.65926499 2.64443019 12.07593411 3.35275818 14.4921875 4.0625 C21.2014362 5.85561769 27.46831043 6.18263613 34.375 6.1875 C35.73625 6.20586914 35.73625 6.20586914 37.125 6.22460938 C42.80103585 6.23687746 47.54422327 5.54484625 53 4 C54.99601306 3.6435691 56.994845 3.30077325 59 3 C59.34234065 4.97762855 59.67335561 6.95721839 60 8.9375 C60.185625 10.03964844 60.37125 11.14179688 60.5625 12.27734375 C60.90337332 15.17781047 61.04594997 17.82893262 61.02734375 20.73266602 C61.023396 21.53438736 61.01944824 22.3361087 61.01538086 23.16212463 C61.01030518 23.7686235 61.00522949 24.37512238 61 25 C47.00511285 25.20077581 33.01009001 25.38386002 19.01470661 25.54658794 C12.51625751 25.62266389 6.01798246 25.70441194 -0.48022461 25.79907227 C-6.75002414 25.8901975 -13.01984403 25.96648921 -19.28995705 26.03244972 C-21.68343666 26.06024509 -24.0768601 26.09340713 -26.47019005 26.13199425 C-29.81957378 26.18508362 -33.16864843 26.21917748 -36.51831055 26.2487793 C-37.51021393 26.26891586 -38.50211731 26.28905243 -39.52407837 26.30979919 C-48.05330538 26.3497639 -48.05330538 26.3497639 -52 23 C-54 20 -54 20 -53.93359375 17.8359375 C-52.65493147 11.49296714 -50.45671738 6.4621412 -47 1 C-46.05125 1.825 -45.1025 2.65 -44.125 3.5 C-35.05360161 9.07015691 -22.44672913 6.55857439 -12.64746094 4.24951172 C-5.85204535 3.06196651 -5.85204535 3.06196651 0 0 Z " fill="#E2034D" transform="translate(70,269)"/>
<path d="M0 0 C1.17113799 0.00138269 1.17113799 0.00138269 2.36593533 0.00279331 C3.70584782 0.00073132 3.70584782 0.00073132 5.07282925 -0.00137234 C6.55420376 0.00402058 6.55420376 0.00402058 8.06550503 0.00952244 C9.09952953 0.00937641 10.13355404 0.00923038 11.19891262 0.00907993 C14.63485175 0.00977956 18.07073742 0.01757425 21.50666714 0.02539158 C23.88178382 0.02725558 26.25690089 0.02867957 28.63201809 0.0296793 C34.89727233 0.03350586 41.16250356 0.04333732 47.42774868 0.05438328 C53.81537979 0.06459443 60.2030146 0.06917628 66.59065151 0.0742197 C79.13428144 0.08495947 91.67789425 0.10203754 104.22151089 0.12304783 C104.71651089 6.06304783 104.71651089 6.06304783 105.22151089 12.12304783 C107.20151089 12.12304783 109.18151089 12.12304783 111.22151089 12.12304783 C111.22151089 16.74304783 111.22151089 21.36304783 111.22151089 26.12304783 C102.86708051 21.5660858 102.86708051 21.5660858 99.03401089 18.93554783 C92.48730743 14.71656115 85.8426306 13.91722434 78.22151089 15.12304783 C72.0545492 17.07573516 66.11817381 19.66049682 60.20759487 22.27514744 C52.35872601 25.62599213 41.75840379 25.38248541 33.57697964 23.11132908 C29.53566757 21.41855308 25.80822745 19.46817522 22.03401089 17.24804783 C17.89758222 15.59347636 14.48994652 16.02690194 10.22151089 17.12304783 C8.12813591 18.04956009 6.15278418 19.09186022 4.15119839 20.20117283 C1.2004702 21.61083245 -1.53783464 21.85299329 -4.77848911 22.12304783 C-7.21305337 14.81935505 -5.67866009 7.99029205 -2.77848911 1.12304783 C-1.77848911 0.12304783 -1.77848911 0.12304783 0 0 Z " fill="#E1C302" transform="translate(26.778489112854004,293.8769521713257)"/>
<path d="M0 0 C-2.70575472 2.73118475 -5.43651553 5.42176811 -8.234375 8.05859375 C-20.76898385 20.01378259 -31.89341843 33.35034032 -32.5 51.4375 C-32.30439673 58.55166343 -30.73518174 64.46987976 -28 71 C-27.5875 72.155 -27.175 73.31 -26.75 74.5 C-22.04640571 81.21942041 -12.59093544 82.22505355 -5.0625 83.625 C-3.40359741 83.94355957 -3.40359741 83.94355957 -1.71118164 84.26855469 C12.45824758 86.9251296 26.61335084 88.26420906 41 89 C41 91.31 41 93.62 41 96 C11.3 96 -18.4 96 -49 96 C-49 62.09318637 -49 62.09318637 -46 50 C-45.8443457 49.34789551 -45.68869141 48.69579102 -45.52832031 48.02392578 C-40.87856156 29.42025028 -27.3595252 14.13631506 -11.5625 3.75 C-10.98338867 3.36674561 -10.40427734 2.98349121 -9.80761719 2.58862305 C-6.41386276 0.48258027 -3.99839348 -0.44841796 0 0 Z " fill="#F8700B" transform="translate(85,146)"/>
<path d="M0 0 C44.055 0.495 44.055 0.495 89 1 C87.68 6.61 86.36 12.22 85 18 C149.02 18 213.04 18 279 18 C279.33 17.01 279.66 16.02 280 15 C280 16.32 280 17.64 280 19 C273.9692596 20.05543475 268.09982681 20.14032524 261.98631287 20.12698364 C260.8860897 20.12854363 259.78586654 20.13010362 258.65230328 20.13171089 C254.97058109 20.13569526 251.28890022 20.13254115 247.60717773 20.12939453 C244.9656665 20.1307497 242.3241581 20.13249415 239.68264771 20.13470459 C233.25597565 20.13914674 226.82931529 20.13819277 220.40264278 20.13529195 C215.17927108 20.13303201 209.95590265 20.13272796 204.73253059 20.13381577 C203.98863919 20.133969 203.24474778 20.13412223 202.47831421 20.13428011 C200.96704633 20.13459984 199.45577846 20.13492405 197.94451059 20.1352527 C183.78009623 20.13810289 169.61568835 20.13482759 155.45127506 20.12945233 C143.29995161 20.12498379 131.14863772 20.12576153 118.99731445 20.13037109 C104.88144256 20.1357234 90.76557633 20.13782921 76.64970356 20.13475883 C75.14435359 20.13444028 73.63900362 20.13412591 72.13365364 20.13381577 C71.39301717 20.13366149 70.65238069 20.13350721 69.88930069 20.13334826 C64.67224132 20.13248515 59.45518556 20.13394155 54.23812675 20.13629532 C47.88032727 20.13910075 41.52254012 20.13833929 35.16474205 20.13301457 C31.92149023 20.13038777 28.67826324 20.12989422 25.43501091 20.13266373 C21.91888781 20.13538976 18.40282287 20.13197618 14.88670349 20.12698364 C13.35008368 20.13032973 13.35008368 20.13032973 11.78242105 20.13374341 C7.07344081 20.12074424 2.63058555 19.98230767 -2 19 C-1.85688704 17.14562138 -1.71036549 15.29150571 -1.5625 13.4375 C-1.48128906 12.40496094 -1.40007812 11.37242188 -1.31640625 10.30859375 C-0.986633 6.86022414 -0.48989802 3.42928612 0 0 Z " fill="#575757" transform="translate(115,58)"/>
<path d="M0 0 C90.75 0 181.5 0 275 0 C275 1.65 275 3.3 275 5 C275.66 5 276.32 5 277 5 C278.12862175 10.36095333 278.09688221 15.55306686 278 21 C271.20336964 22.26750669 264.45701316 22.11139726 257.5625 22.0625 C256.35400391 22.05798828 255.14550781 22.05347656 253.90039062 22.04882812 C250.93354211 22.03710145 247.9667973 22.02068896 245 22 C242.50000796 15.86365589 241.33864511 10.69322557 240 4 C160.8 4 81.6 4 0 4 C0 2.68 0 1.36 0 0 Z " fill="#2E2E2E" transform="translate(116,55)"/>
<path d="M0 0 C4.41632177 -0.14509751 8.83203193 -0.23400818 13.25 -0.3125 C14.50425781 -0.35439453 15.75851562 -0.39628906 17.05078125 -0.43945312 C18.85869141 -0.46362305 18.85869141 -0.46362305 20.703125 -0.48828125 C22.36843262 -0.52755737 22.36843262 -0.52755737 24.06738281 -0.56762695 C27 -0 27 -0 29.30078125 2.13476562 C31.16965218 5.28606868 31.86457462 7.72897802 32.484375 11.33203125 C32.69707031 12.54310547 32.90976562 13.75417969 33.12890625 15.00195312 C33.33386719 16.25943359 33.53882813 17.51691406 33.75 18.8125 C33.97042969 20.05837891 34.19085938 21.30425781 34.41796875 22.58789062 C35.50399086 28.9455045 36 34.46432515 36 41 C29.07 41 22.14 41 15 41 C14.00419922 38.28523438 14.00419922 38.28523438 12.98828125 35.515625 C12.09648749 33.0937009 11.20455288 30.67182867 10.3125 28.25 C9.87744141 27.06277344 9.44238281 25.87554688 8.99414062 24.65234375 C6.46504465 17.79568354 3.80876792 11.02743252 0.90698242 4.31933594 C0 2 0 2 0 0 Z " fill="#2E2F30" transform="translate(343,1)"/>
<path d="M0 0 C1.52167457 0.79306428 3.01966346 1.63221651 4.5 2.5 C6.09521484 3.39138672 6.09521484 3.39138672 7.72265625 4.30078125 C14.16616039 8.18195626 14.16616039 8.18195626 16.5 10.5 C16.83984375 14.26171875 16.83984375 14.26171875 16.5 17.5 C13.01461573 16.2242639 10.19673712 14.7245296 7.1875 12.5625 C0.32991038 7.92654272 -6.10717192 5.23686534 -14.5 6.5 C-17.95340698 7.57413662 -21.19668674 9.03603162 -24.5 10.5 C-26.74415915 11.41036645 -28.99443265 12.30577822 -31.25 13.1875 C-32.29671875 13.60386719 -33.3434375 14.02023437 -34.421875 14.44921875 C-46.61867262 18.61284636 -57.89362851 16.28844899 -69.25 10.8125 C-73.60640906 8.77621814 -76.62582333 7.68763722 -81.5 8.5 C-83.77593197 9.46592377 -85.99079583 10.52587087 -88.21484375 11.60546875 C-91.80030643 13.00900884 -94.68911799 12.84025732 -98.5 12.5 C-99.5 11.5 -99.5 11.5 -99.5625 8.9375 C-99.541875 8.133125 -99.52125 7.32875 -99.5 6.5 C-98.015 6.12875 -98.015 6.12875 -96.5 5.75 C-93.63556269 4.95048838 -91.22509148 3.87329349 -88.625 2.4375 C-84.19338437 0.22591277 -80.50271313 -1.20023546 -75.5 -0.5 C-71.42935148 0.93792346 -67.59367168 2.86851135 -63.7578125 4.8359375 C-55.36538775 9.12271561 -43.97487529 9.07425175 -35 6.265625 C-29.83762134 4.41447199 -24.87985129 2.14262933 -19.91015625 -0.171875 C-13.48718462 -2.67337598 -6.41500372 -2.6243197 0 0 Z " fill="#A60328" transform="translate(121.5,309.5)"/>
<path d="M0 0 C1.19399414 0.02618408 2.38798828 0.05236816 3.61816406 0.0793457 C5.56142578 0.10351562 5.56142578 0.10351562 7.54394531 0.12817383 C8.90724334 0.16994756 10.27052459 0.21227226 11.63378906 0.25512695 C13.01265531 0.28021785 14.39156503 0.30302966 15.77050781 0.32348633 C19.14270262 0.38244078 22.51269647 0.46469525 25.88378906 0.56762695 C24.11908128 6.71729452 22.18107457 12.70830837 19.75878906 18.63012695 C19.49453125 19.29206055 19.23027344 19.95399414 18.95800781 20.63598633 C17.0202725 25.43114352 17.0202725 25.43114352 15.88378906 26.56762695 C14.03009295 26.6550034 12.17311365 26.67460848 10.31738281 26.6652832 C9.19267578 26.66206055 8.06796875 26.65883789 6.90917969 26.65551758 C5.72517578 26.64713867 4.54117188 26.63875977 3.32128906 26.63012695 C2.13341797 26.62561523 0.94554687 26.62110352 -0.27832031 26.61645508 C-3.2243332 26.6046237 -6.17024774 26.58813982 -9.11621094 26.56762695 C-9.1938528 21.4173833 -9.15786961 16.42246044 -8.36621094 11.31762695 C-8.22699219 10.3430957 -8.08777344 9.36856445 -7.94433594 8.36450195 C-6.5853535 3.77473107 -4.88113738 0.88911348 0 0 Z " fill="#4A4A4A" transform="translate(138.1162109375,15.432373046875)"/>
<path d="M0 0 C0.66 0 1.32 0 2 0 C2.83819158 1.62249941 3.6704116 3.24808497 4.5 4.875 C4.9640625 5.77992188 5.428125 6.68484375 5.90625 7.6171875 C7 10 7 10 7 12 C11.94451404 14.63360432 16.86674558 14.2597047 22.3125 14.1875 C23.22451172 14.18685547 24.13652344 14.18621094 25.07617188 14.18554688 C30.47496739 14.15071594 35.6553247 13.7445606 41 13 C48.42501806 12.3822385 55.20296109 13.72313466 62.45703125 15.265625 C75.82554079 18.03660603 88.60961053 16.88171094 102 15 C102 13.35 102 11.7 102 10 C102.33 10 102.66 10 103 10 C103 12.64 103 15.28 103 18 C101.79731319 18.65628849 100.58747446 19.29947505 99.375 19.9375 C98.70210938 20.29714844 98.02921875 20.65679687 97.3359375 21.02734375 C83.62006103 26.73846957 64.67104197 23.34051622 51 19 C50.26910156 18.60554688 49.53820312 18.21109375 48.78515625 17.8046875 C46.42933606 16.74276418 45.4517077 17.28648698 43 18 C42.3385498 18.18892822 41.67709961 18.37785645 40.99560547 18.57250977 C40.29322754 18.77674561 39.59084961 18.98098145 38.8671875 19.19140625 C30.29974217 21.58721075 22.05701174 23.49425247 13.125 23.5625 C12.39522949 23.57676025 11.66545898 23.59102051 10.91357422 23.60571289 C5.83990883 23.51044112 2.91863652 22.15131008 -1 19 C-3.114569 16.61258339 -3.97103682 15.06005237 -4.05859375 11.85546875 C-3.70205494 7.28115173 -2.95290738 3.66160515 0 0 Z " fill="#4BBD82" transform="translate(26,253)"/>
<path d="M0 0 C2.06326977 0.08760589 4.1256716 0.19579273 6.1875 0.3125 C7.91033203 0.39951172 7.91033203 0.39951172 9.66796875 0.48828125 C13.46408132 1.07127157 16.25674745 2.25674745 19 5 C19.375 7.8125 19.375 7.8125 19 11 C17.37064759 12.37868281 15.70250393 13.71274093 14 15 C13.12056596 17.63460948 13.12056596 17.63460948 13 20 C12.67 20 12.34 20 12 20 C12 18.35 12 16.7 12 15 C-49.38 15 -110.76 15 -174 15 C-174 14.67 -174 14.34 -174 14 C-124.5 14 -75 14 -24 14 C-23.01 10.37 -22.02 6.74 -21 3 C-20 2 -20 2 -18.05053711 1.88647461 C-17.2178833 1.89171143 -16.38522949 1.89694824 -15.52734375 1.90234375 C-14.62822266 1.90556641 -13.72910156 1.90878906 -12.80273438 1.91210938 C-11.85720703 1.92048828 -10.91167969 1.92886719 -9.9375 1.9375 C-8.5134082 1.94426758 -8.5134082 1.94426758 -7.06054688 1.95117188 C-4.70696935 1.9629989 -2.35351523 1.97947975 0 2 C0 1.34 0 0.68 0 0 Z " fill="#4B4C4D" transform="translate(379,40)"/>
<path d="M0 0 C1.17113799 0.00138269 1.17113799 0.00138269 2.36593533 0.00279331 C3.70584782 0.00073132 3.70584782 0.00073132 5.07282925 -0.00137234 C6.55420376 0.00402058 6.55420376 0.00402058 8.06550503 0.00952244 C9.09952953 0.00937641 10.13355404 0.00923038 11.19891262 0.00907993 C14.63485175 0.00977956 18.07073742 0.01757425 21.50666714 0.02539158 C23.88178382 0.02725558 26.25690089 0.02867957 28.63201809 0.0296793 C34.89727233 0.03350586 41.16250356 0.04333732 47.42774868 0.05438328 C53.81537979 0.06459443 60.2030146 0.06917628 66.59065151 0.0742197 C79.13428115 0.08495947 91.6778948 0.10184656 104.22151089 0.12304783 C104.22151089 2.10304783 104.22151089 4.08304783 104.22151089 6.12304783 C68.91151089 6.12304783 33.60151089 6.12304783 -2.77848911 6.12304783 C-2.77848911 0.19223455 -2.77848911 0.19223455 0 0 Z " fill="#DEAC07" transform="translate(26.778489112854004,293.8769521713257)"/>
<path d="M0 0 C15.18 0 30.36 0 46 0 C50 10 50 10 50 13 C34.49 13 18.98 13 3 13 C0 4 0 4 0 0 Z " fill="#707070" transform="translate(155,42)"/>
<path d="M0 0 C29.37 0 58.74 0 89 0 C88.67 1.32 88.34 2.64 88 4 C58.96 4 29.92 4 0 4 C0 2.68 0 1.36 0 0 Z " fill="#494949" transform="translate(116,55)"/>
<path d="M0 0 C13.86 0 27.72 0 42 0 C41.67 1.32 41.34 2.64 41 4 C27.47 4 13.94 4 0 4 C0 2.68 0 1.36 0 0 Z " fill="#2E2E2E" transform="translate(116,55)"/>
<path d="M0 0 C11.88 0 23.76 0 36 0 C36 1.32 36 2.64 36 4 C24.45 4 12.9 4 1 4 C0.67 2.68 0.34 1.36 0 0 Z " fill="#1E1E1E" transform="translate(355,55)"/>
</svg>
