<?xml version="1.0" encoding="UTF-8"?>
<svg version="1.1" xmlns="http://www.w3.org/2000/svg" width="1640" height="400">
<path d="M0 0 C0.80464839 -0.00512655 1.60929677 -0.0102531 2.43832844 -0.015535 C5.13224478 -0.02541155 7.82391453 0.00756696 10.5176239 0.04037476 C12.4493708 0.04206733 14.38112156 0.04111695 16.31286621 0.03771973 C21.55654236 0.03599702 26.79939632 0.07129196 32.04288125 0.11316347 C37.52279771 0.15065141 43.00273267 0.15419431 48.48275757 0.16131592 C58.85965142 0.17997041 69.23616635 0.22921584 79.61289328 0.28941286 C91.42651567 0.35645902 103.24015608 0.38946227 115.05392134 0.41958547 C139.35542752 0.48231416 163.65659726 0.58786116 187.95780945 0.7215271 C187.95780945 1.7115271 187.95780945 2.7015271 187.95780945 3.7215271 C188.54304382 3.97805054 189.1282782 4.23457397 189.73124695 4.49887085 C192.15015553 5.82714872 193.68979817 7.28677511 195.58280945 9.2840271 C199.14217047 13.03346637 199.14217047 13.03346637 204.18832397 13.83937073 C205.59805844 13.84173775 207.00780763 13.83872455 208.41752625 13.83163452 C210.01239015 13.83217733 211.60725404 13.83276434 213.20211792 13.83338928 C214.04984457 13.83196112 214.89757122 13.83053295 215.77098656 13.82906151 C220.25715018 13.82554605 224.74318774 13.85134411 229.22929382 13.87191772 C234.93960517 13.89623668 240.64955323 13.9119786 246.35990906 13.89657593 C250.97261586 13.88489742 255.5844194 13.90235908 260.19698524 13.93902016 C261.95235567 13.94762328 263.70781281 13.94557395 265.46315575 13.9325161 C280.93989736 13.82602865 280.93989736 13.82602865 285.52738953 17.6446228 C288.57073765 21.49749235 289.08281666 22.96126234 289.09761715 27.74260235 C289.10330839 28.81167 289.10899963 29.88073764 289.11486334 30.98220128 C289.11604321 32.16612188 289.11722309 33.35004249 289.11843872 34.56983948 C289.12607045 36.44547017 289.12607045 36.44547017 289.13385636 38.3589924 C289.14778812 41.84123911 289.15535329 45.32347534 289.16182935 48.80574286 C289.16819317 51.7897751 289.17826429 54.77379007 289.18839001 57.75781157 C289.22174085 67.59075049 289.24324062 77.42369992 289.26158985 87.25667688 C289.26638357 89.8165123 289.27136704 92.37634729 289.27639508 94.93618226 C289.30736544 110.82631077 289.33405602 126.71644289 289.35081387 142.60659313 C289.35476349 146.28854059 289.35876646 149.97048798 289.36283875 153.6524353 C289.36384711 154.56758686 289.36485547 155.48273842 289.36589438 156.42562184 C289.38290269 171.25182695 289.4240124 186.07786518 289.47486173 200.9039888 C289.52661867 216.11970241 289.55575361 231.33533016 289.56301075 246.55113107 C289.56767551 255.09667379 289.58245273 263.64194327 289.62275505 272.18739891 C289.65703614 279.46507132 289.67100231 286.74242123 289.65833091 294.02016976 C289.65249931 297.73362605 289.65640158 301.44640013 289.68650055 305.1597538 C289.7188726 309.18640459 289.70473044 313.21155934 289.68606567 317.23829651 C289.7028606 318.41106351 289.71965553 319.5838305 289.7369594 320.79213589 C289.6627777 327.18173638 289.04939819 330.93658865 284.44001919 335.53148443 C281.33618226 338.02350583 278.97021412 337.85674825 275.0606842 337.87974548 C273.17599678 337.89442871 273.17599678 337.89442871 271.25323486 337.90940857 C269.85316505 337.91531314 268.45309484 337.92112356 267.05302429 337.92684937 C265.58476484 337.93642529 264.11650815 337.9464352 262.64825439 337.95684814 C258.65471625 337.98393423 254.66116623 338.0049237 250.6675868 338.02485013 C246.4968597 338.04668688 242.32616931 338.07408685 238.1554718 338.10090637 C230.25425617 338.15086457 222.3530202 338.19579178 214.4517647 338.23892874 C205.45791119 338.28827442 196.4640945 338.34320243 187.47027659 338.39860833 C168.96615506 338.51247637 150.46199879 338.61930489 131.95780945 338.7215271 C132.09792806 340.15865855 132.24361967 341.59524734 132.39164734 343.03158569 C132.4721785 343.83164032 132.55270966 344.63169495 132.63568115 345.45599365 C133.48700559 351.443372 136.81497327 356.7285396 141.19218445 360.7996521 C149.49354791 366.88026865 158.2418816 370.42201812 168.20780945 372.5965271 C174.7908977 374.07747309 179.21371674 375.92185408 182.95780945 381.7215271 C185.90363131 386.94798524 186.53385216 390.86509283 185.95780945 396.7215271 C184.89698792 398.92806244 184.89698792 398.92806244 182.95780945 400.7215271 C180.35235729 401.12313615 178.16359491 401.2620983 175.55595398 401.22946167 C174.41597301 401.23882161 174.41597301 401.23882161 173.25296211 401.24837065 C170.69853599 401.26436476 168.14505566 401.25167192 165.59062195 401.23910522 C163.7625523 401.24452351 161.93448702 401.25164452 160.10643005 401.26034546 C155.135382 401.27861667 150.16466516 401.27149564 145.19361115 401.25882912 C139.99797658 401.24872109 134.80237088 401.25808867 129.60673523 401.26437378 C120.88060907 401.2716566 112.15461821 401.26204583 103.42851257 401.24301147 C93.33153758 401.22124155 83.23488563 401.22829247 73.13791847 401.2503171 C64.47798199 401.26845301 55.81814292 401.27103828 47.15819359 401.26056242 C41.98199033 401.25431753 36.80593905 401.25351914 31.62974548 401.26670837 C26.76398299 401.27823996 21.89863809 401.27029054 17.03292084 401.24713135 C15.24424687 401.24182983 13.45553792 401.24338258 11.66687775 401.25218201 C9.23066129 401.2630646 6.79579464 401.24946379 4.35966492 401.22946167 C3.29026767 401.242846 3.29026767 401.242846 2.19926643 401.25650072 C-1.02870902 401.20486086 -2.62454052 401.13050281 -4.97990417 398.82405853 C-7.27947644 394.2726277 -6.55595602 389.39982761 -5.10469055 384.6590271 C0.53853972 376.62169914 6.20157776 373.20570814 15.71562195 371.22885132 C25.44809571 369.1351848 36.810512 364.54792948 42.72343445 356.24105835 C43.45820007 354.90107788 43.45820007 354.90107788 44.20780945 353.5340271 C44.95804382 352.21338257 44.95804382 352.21338257 45.72343445 350.86605835 C46.83519278 348.03388919 47.24195092 346.00699956 47.53495789 343.0249939 C47.65746918 341.81458687 47.65746918 341.81458687 47.78245544 340.57972717 C47.84032227 339.96652115 47.89818909 339.35331512 47.95780945 338.7215271 C47.19727768 338.72282592 46.43674591 338.72412474 45.65316772 338.72546291 C27.13221575 338.75468748 8.6116504 338.7452734 -9.90925598 338.69306087 C-18.8659454 338.66873891 -27.82229679 338.65740765 -36.77900696 338.67684937 C-44.58737377 338.69376529 -52.39526769 338.68611232 -60.20357227 338.64917952 C-64.33670177 338.63048217 -68.46903184 338.62393712 -72.60215759 338.64683342 C-76.49647246 338.66801808 -80.3893264 338.65623045 -84.28351402 338.61968231 C-85.70886615 338.61201965 -87.13434107 338.61617063 -88.55961037 338.63334084 C-96.35099936 338.71997579 -101.82104454 338.39402929 -107.70732117 333.00286198 C-111.41634573 326.66401924 -110.18176401 317.52229149 -110.16485596 310.41743469 C-110.16586022 309.19047255 -110.16686449 307.9635104 -110.16789919 306.69936758 C-110.16953653 303.31046182 -110.1666348 299.92161727 -110.16166747 296.53271854 C-110.15823347 293.62215975 -110.15856933 290.71160625 -110.1589409 287.80104583 C-110.16015133 278.22154012 -110.14948546 268.64206403 -110.13562927 259.06256971 C-110.13204432 256.5683384 -110.12866059 254.07410689 -110.12532735 251.57987523 C-110.10439433 236.0804824 -110.07926654 220.58110012 -110.04404354 205.08173275 C-110.03596331 201.49739024 -110.02793439 197.91304761 -110.01997375 194.32870483 C-110.0179915 193.43788059 -110.01600925 192.54705634 -110.01396693 191.62923742 C-109.98248984 177.18176837 -109.97512106 162.73438922 -109.97743743 148.2868902 C-109.97939032 133.44607623 -109.9588146 118.60542502 -109.91642481 103.76467043 C-109.89321736 95.43500633 -109.880053 87.10558645 -109.89233208 78.77589226 C-109.90274038 71.6867676 -109.89291281 64.59803933 -109.85654222 57.5089938 C-109.83861953 53.89275444 -109.83038521 50.27717768 -109.84825706 46.660923 C-109.86737052 42.73977338 -109.84013915 38.8197213 -109.80841064 34.89863586 C-109.82131463 33.75719822 -109.83421861 32.61576058 -109.84751362 31.43973392 C-109.75136758 25.1242879 -109.05712721 21.46886244 -104.52306563 16.92233187 C-101.11899076 14.16205222 -97.77604242 14.59722033 -93.5983429 14.62728882 C-92.00673949 14.63007605 -90.41513588 14.63274585 -88.8235321 14.63531494 C-87.97742748 14.63836514 -87.13132286 14.64141533 -86.2595787 14.64455795 C-81.77952107 14.65589093 -77.29956548 14.63539737 -72.8195343 14.6199646 C-67.11801172 14.60169223 -61.41702902 14.59292208 -55.7155304 14.62191772 C-51.1092311 14.64450833 -46.50410725 14.63295652 -41.897892 14.59891129 C-40.1461229 14.59215747 -38.39425886 14.59777969 -36.64257431 14.61626816 C-25.73215891 15.06741628 -25.73215891 15.06741628 -16.21650696 10.54232788 C-14.22505953 8.35146967 -12.61357516 6.09097638 -10.94494915 3.63620377 C-7.84764167 -0.03659798 -4.59072973 -0.10725373 0 0 Z " fill="#3F4C69" transform="translate(139.0421905517578,-0.721527099609375)"/>
<path d="M0 0 C2.46709147 -0.0240216 4.9341557 -0.05100605 7.40118408 -0.08081055 C12.56657951 -0.12698036 17.72908341 -0.12324578 22.89453125 -0.08691406 C29.49003181 -0.04648328 36.07407784 -0.15117793 42.66776657 -0.29655457 C47.76278599 -0.38895529 52.85508458 -0.39262384 57.95078278 -0.37136841 C60.37966353 -0.37376911 62.8087136 -0.40571535 65.23677826 -0.46871948 C83.63417213 -0.88575826 83.63417213 -0.88575826 89.32350159 3.77819824 C93.29313543 8.24567606 96.08669262 13.20267961 98.76432037 18.51617432 C100.88208006 22.41917924 103.58198625 25.8365725 106.328125 29.3125 C107.71362448 31.10871295 109.08422361 32.90847517 110.42211914 34.74047852 C111.69698359 36.43184004 113.04423556 38.06880932 114.41967773 39.67944336 C121.7961232 48.95349738 122.21415876 56.15356477 121.640625 67.75 C121.455 73.091875 121.269375 78.43375 121.078125 83.9375 C137.578125 83.9375 154.078125 83.9375 171.078125 83.9375 C171.078125 84.2675 171.078125 84.5975 171.078125 84.9375 C168.108125 84.9375 165.138125 84.9375 162.078125 84.9375 C162.08181217 85.72987596 162.08549934 86.52225191 162.08929825 87.33863926 C162.17766987 106.62681528 162.24384464 125.91495084 162.28537369 145.20328617 C162.3059911 154.53102455 162.33409601 163.85862771 162.37988281 173.1862793 C162.41977571 181.31711129 162.44556378 189.44784535 162.45447898 197.57877249 C162.45968958 201.88331218 162.47191919 206.18757173 162.50104523 210.49202156 C162.52825318 214.54595926 162.53655921 218.59950216 162.53055573 222.65352249 C162.53165357 224.13899444 162.53957564 225.62447999 162.5549469 227.10987282 C162.6953533 241.38144679 162.6953533 241.38144679 158.078125 246.9375 C153.44731411 250.6981921 148.94381781 250.36192072 143.25404358 250.32518005 C142.25761807 250.33056559 141.26119257 250.33595113 140.23457235 250.34149987 C136.89201481 250.35582002 133.54985102 250.34866557 130.20727539 250.34155273 C127.81235942 250.34725416 125.41744618 250.35421753 123.02253723 250.36235046 C117.19046179 250.37845484 111.35851006 250.38037742 105.52641708 250.37513756 C100.78592036 250.3710956 96.04545546 250.37253972 91.30496025 250.37788582 C90.6301819 250.37863424 89.95540354 250.37938266 89.26017736 250.38015376 C87.8893514 250.38168525 86.51852546 250.38322359 85.14769953 250.38476873 C72.29330085 250.39849566 59.43896304 250.39305474 46.58456575 250.38158352 C34.82626485 250.37165086 23.06812131 250.38459195 11.30984468 250.40851771 C-0.76567149 250.43290374 -12.84111435 250.44251782 -24.91665465 250.43586498 C-31.69532158 250.43237165 -38.47386748 250.43461226 -45.25251579 250.45211601 C-51.62602942 250.46755412 -57.99924201 250.46366411 -64.37274361 250.44481087 C-66.71327277 250.44111637 -69.05382408 250.44425838 -71.39433289 250.45469666 C-74.58684145 250.46784878 -77.77834499 250.45640948 -80.97080994 250.43870544 C-82.36356554 250.45311295 -82.36356554 250.45311295 -83.78445762 250.46781152 C-89.30232343 250.40475467 -92.63338066 249.75062875 -96.921875 245.9375 C-99.94542633 242.11446931 -100.29425087 239.22523648 -100.28263855 234.41386414 C-100.28676254 233.09438278 -100.29088654 231.77490143 -100.2951355 230.41543579 C-100.2845193 228.96014198 -100.27361489 227.50485026 -100.26245117 226.04956055 C-100.26160464 224.51189694 -100.26208055 222.97423212 -100.26377869 221.43656921 C-100.26463906 217.26747031 -100.24700651 213.09863059 -100.22605681 208.92959189 C-100.20729707 204.57073517 -100.20554013 200.21187243 -100.20198059 195.85298157 C-100.19265806 187.60117043 -100.16804146 179.34947859 -100.13793212 171.09771997 C-100.10439459 161.70239453 -100.08790373 152.30706338 -100.07284582 142.91169298 C-100.04149207 123.58688061 -99.9864774 104.26223179 -99.921875 84.9375 C-86.391875 84.9375 -72.861875 84.9375 -58.921875 84.9375 C-59.169375 79.513125 -59.416875 74.08875 -59.671875 68.5 C-59.89352061 55.59727036 -59.47252388 46.52192667 -50.421875 36.63671875 C-49.84566406 36.04294434 -49.26945312 35.44916992 -48.67578125 34.83740234 C-45.49930233 31.39651162 -42.91955412 27.51481329 -40.234375 23.6875 C-38.73327127 21.61864775 -37.23105218 19.55781708 -35.67498779 17.52986145 C-33.80251649 14.92884147 -33.80251649 14.92884147 -32.50694275 11.71173096 C-25.66345923 -1.87152048 -13.72364207 -0.06711237 0 0 Z " fill="#E4EDEA" transform="translate(197.921875,-1.9375)"/>
<path d="M0 0 C1.94326172 0.01933594 1.94326172 0.01933594 3.92578125 0.0390625 C5.28907324 0.07248134 6.65235449 0.10634109 8.015625 0.140625 C9.39450564 0.16069793 10.77341412 0.17894733 12.15234375 0.1953125 C15.52414244 0.24247052 18.89453187 0.30827962 22.265625 0.390625 C21.18464864 2.63572974 20.07435195 4.67138286 18.66772461 6.73608398 C15.96337819 11.85611856 16.79661977 17.78504756 16.828125 23.453125 C16.80814453 24.73251953 16.78816406 26.01191406 16.76757812 27.33007812 C16.76822266 28.55791016 16.76886719 29.78574219 16.76953125 31.05078125 C16.76767822 32.17105713 16.7658252 33.29133301 16.76391602 34.44555664 C17.07761909 37.42222769 17.07761909 37.42222769 18.73413086 39.72436523 C21.44457443 41.50841166 22.76160297 41.70645128 25.92384338 41.99476624 C27.14254797 42.1114319 27.14254797 42.1114319 28.38587284 42.23045444 C29.00619105 42.28331073 29.62650927 42.33616701 30.265625 42.390625 C30.26709156 43.18907648 30.26855812 43.98752796 30.27006912 44.81017494 C30.30712391 64.2400156 30.36612098 83.66967626 30.44952774 103.09937477 C30.48933381 112.49545197 30.52171833 121.89144523 30.53662109 131.28759766 C30.54962949 139.47747896 30.57657335 147.66717567 30.62023807 155.85695302 C30.64287121 160.19325008 30.65853458 164.52931933 30.65750885 168.86568069 C30.65676333 172.94844982 30.67467044 177.03071499 30.70679283 181.11335373 C30.71530126 182.6104884 30.71703532 184.10767953 30.71142769 185.60482788 C30.70477981 187.65271708 30.722723 189.69900647 30.74664307 191.74673462 C30.75033024 192.89160151 30.75401741 194.03646839 30.75781631 195.21602821 C31.38922419 199.16331284 32.74653442 201.31241662 35.265625 204.390625 C38.10826313 206.14351388 40.23712956 206.64119901 43.55448818 206.64510059 C44.4093174 206.65093279 45.26414662 206.65676498 46.14487976 206.66277391 C47.07920918 206.65899458 48.0135386 206.65521526 48.97618103 206.65132141 C50.470596 206.65705973 50.470596 206.65705973 51.99520117 206.66291398 C55.3431268 206.67325639 58.69088132 206.66924944 62.03881836 206.6652832 C64.43520772 206.66962897 66.83159568 206.67481167 69.22798157 206.68077087 C75.0671875 206.69279209 80.90635078 206.69531055 86.74556439 206.69297061 C91.49133182 206.69118824 96.23708528 206.69293534 100.98285103 206.69719505 C101.99565488 206.69808784 101.99565488 206.69808784 103.02891942 206.69899866 C104.40055263 206.7002104 105.77218584 206.70142453 107.14381904 206.70264103 C120.00961592 206.71351972 132.8753866 206.7113525 145.74118496 206.70525619 C157.51313054 206.7000865 169.28499339 206.71134323 181.05692261 206.73035441 C193.14256385 206.74972269 205.22816594 206.7579906 217.31382281 206.75423115 C224.09971976 206.7523176 230.88554628 206.75482164 237.67143059 206.76894569 C244.05144592 206.78148883 250.43129523 206.77961321 256.81130791 206.76653481 C259.15548254 206.76416184 261.49966872 206.76692932 263.84383011 206.77515793 C267.03877647 206.78556601 270.23315963 206.77757226 273.42808533 206.7648468 C274.36018403 206.77222109 275.29228272 206.77959537 276.25262684 206.78719312 C281.01267678 206.74718609 284.5524246 206.70782313 288.265625 203.390625 C291.01145791 199.12862205 291.64401006 195.80519226 291.66435242 190.78469849 C291.67689056 189.47225662 291.68942871 188.15981476 291.7023468 186.80760193 C291.70117291 185.36538671 291.69971383 183.9231717 291.69799805 182.48095703 C291.70702005 180.9529898 291.71734835 179.42502981 291.72888184 177.89707947 C291.75642667 173.75911778 291.76573291 169.62129353 291.77173591 165.48325205 C291.78112613 161.15502905 291.80733006 156.82690843 291.83174133 152.49874878 C291.87539217 144.30725569 291.90394783 136.11578249 291.92706472 127.92420852 C291.95412397 118.59649745 291.99803504 109.26888944 292.04335344 99.94125199 C292.13617944 80.75776409 292.20786954 61.57424893 292.265625 42.390625 C292.8859687 42.33779421 293.50631241 42.28496342 294.14545441 42.23053169 C294.95794395 42.15277441 295.7704335 42.07501713 296.60754395 41.99490356 C297.41351265 41.92144777 298.21948135 41.84799198 299.04987335 41.77231026 C301.4504964 41.51123739 301.4504964 41.51123739 303.79492188 39.72216797 C305.70996057 36.68620854 305.782373 34.66637868 305.796875 31.0859375 C305.80203125 29.86261719 305.8071875 28.63929687 305.8125 27.37890625 C305.79703125 26.10402344 305.7815625 24.82914063 305.765625 23.515625 C305.78109375 22.24847656 305.7965625 20.98132813 305.8125 19.67578125 C305.78405945 10.73076438 305.78405945 10.73076438 301.265625 3.390625 C300.935625 2.400625 300.605625 1.410625 300.265625 0.390625 C304.82791041 0.27436564 309.38981428 0.20335092 313.953125 0.140625 C315.24669922 0.10710938 316.54027344 0.07359375 317.87304688 0.0390625 C319.12021484 0.02617188 320.36738281 0.01328125 321.65234375 0 C322.79920654 -0.02094727 323.94606934 -0.04189453 325.12768555 -0.06347656 C329.13602592 0.51658359 330.51562728 1.41121429 333.265625 4.390625 C334.01261204 7.40818902 333.9359829 10.36689554 333.89381409 13.46252441 C333.90090847 14.39008624 333.90800286 15.31764806 333.91531223 16.27331781 C333.93294863 19.38901052 333.91475837 22.50346504 333.89672852 25.61914062 C333.90186516 27.84967112 333.9091445 30.08019756 333.91841125 32.31071472 C333.9369657 38.37475475 333.92396087 44.43835654 333.90432096 50.50237846 C333.88796666 56.84131275 333.89674286 63.18021857 333.90184021 69.51916504 C333.90636476 80.16536473 333.89057293 90.81137086 333.86254883 101.45751953 C333.83371082 112.41299736 333.82662754 123.36822509 333.84204102 134.32373047 C333.8605859 147.52305118 333.85886944 160.72222336 333.83982658 173.92155457 C333.83294473 178.96456489 333.8340002 184.00748228 333.84137154 189.05049133 C333.84901912 194.98654859 333.83695784 200.92224454 333.80952263 206.85824013 C333.80262172 209.03995503 333.80255898 211.22170358 333.80973816 213.40341759 C333.81839318 216.37559343 333.80254347 219.34664409 333.7802887 222.31872559 C333.79264985 223.62202371 333.79264985 223.62202371 333.80526072 224.9516511 C333.79421303 225.74787929 333.78316534 226.54410748 333.77178288 227.36446381 C333.77059139 228.05034875 333.76939991 228.7362337 333.76817232 229.44290304 C333.01059363 232.37904971 331.64994414 233.56648337 329.265625 235.390625 C326.61899185 235.89202166 326.61899185 235.89202166 323.53717041 235.89398956 C322.3612521 235.90442055 321.18533379 235.91485154 319.97378159 235.92559862 C318.6808028 235.91667573 317.38782402 235.90775285 316.05566406 235.89855957 C314.66912302 235.90316733 313.28258686 235.90951941 311.89606094 235.91746855 C308.08175952 235.93420255 304.26785722 235.92589729 300.45355415 235.91352367 C296.34168893 235.90449203 292.22989346 235.9184335 288.11804199 235.92944336 C280.06128601 235.94725341 272.00467886 235.94337757 263.94791698 235.9317928 C257.40150414 235.9227685 250.85513309 235.92153012 244.30871582 235.92588806 C243.37789129 235.92650099 242.44706677 235.92711393 241.48803544 235.92774543 C239.59723249 235.9290243 237.70642955 235.93032115 235.81562662 235.9316358 C218.07503595 235.94304887 200.33452788 235.92991649 182.59395075 235.90843433 C167.3633737 235.89056269 152.13291859 235.89366659 136.90234375 235.91210938 C119.22633226 235.93350325 101.55039321 235.94195017 83.87437057 235.92966032 C81.99042512 235.92838609 80.10647966 235.92712861 78.22253418 235.92588806 C77.29553593 235.92527096 76.36853768 235.92465386 75.41344857 235.92401806 C68.87298615 235.9205607 62.33256958 235.92640179 55.79211426 235.93580627 C47.82419353 235.94701118 39.85643047 235.94401808 31.88852787 235.9226833 C27.82118105 235.91215246 23.75409734 235.90808542 19.68675232 235.92127991 C15.96593424 235.93316793 12.24562404 235.92670139 8.52485228 235.9053697 C6.53572388 235.89875942 4.54656043 235.91187184 2.55746841 235.92559862 C1.3815501 235.91516763 0.20563179 235.90473664 -1.00592041 235.89398956 C-2.02292149 235.89334015 -3.03992256 235.89269074 -4.08774185 235.89202166 C-7.48804664 235.24784418 -8.66984391 234.12967877 -10.734375 231.390625 C-11.23577166 229.44290304 -11.23577166 229.44290304 -11.23773956 227.36446381 C-11.24817055 226.56823561 -11.25860154 225.77200742 -11.26934862 224.9516511 C-11.26042573 224.08278568 -11.25150285 223.21392026 -11.24230957 222.31872559 C-11.24854953 221.39116376 -11.2547895 220.46360194 -11.26121855 219.50793219 C-11.27720378 216.39240117 -11.26452249 213.27764653 -11.25195312 210.16210938 C-11.25737177 207.93158002 -11.26449298 205.70105425 -11.27319336 203.47053528 C-11.29146009 197.40655846 -11.28434523 191.34285323 -11.27167702 185.27887154 C-11.26156676 178.9399351 -11.2709372 172.60102229 -11.27722168 166.26208496 C-11.2849706 154.93352939 -11.27252134 143.60511203 -11.25218433 132.27658409 C-11.23431307 122.00350122 -11.23741711 111.73059914 -11.25585938 101.45751953 C-11.27726181 89.52991118 -11.28523548 77.60241269 -11.27341032 65.67477846 C-11.26716649 59.36006102 -11.26636427 53.04546816 -11.27955627 46.73075867 C-11.29109045 40.79471597 -11.28313328 34.8590155 -11.25997925 28.92300987 C-11.25467917 26.74128984 -11.25622799 24.55954113 -11.26502991 22.37783241 C-11.2759175 19.40567105 -11.26230364 16.43461484 -11.24230957 13.46252441 C-11.25123246 12.593659 -11.26015534 11.72479358 -11.26934862 10.8295989 C-11.19330336 5.02483957 -11.19330336 5.02483957 -8.89739227 1.85201263 C-5.8514261 -0.20591698 -3.6518132 -0.0640669 0 0 Z " fill="#357DE8" transform="translate(67.734375,40.609375)"/>
<path d="M0 0 C131.34 0 262.68 0 398 0 C398 26 398 26 392 33 C389.2852518 34.3573741 387.14342978 34.14033277 384.10287476 34.15821838 C382.84641647 34.1680072 381.58995819 34.17779602 380.29542542 34.18788147 C378.89535561 34.19378604 377.4952854 34.19959646 376.09521484 34.20532227 C374.62695539 34.21489819 373.15869871 34.2249081 371.69044495 34.23532104 C367.6969068 34.26240713 363.70335679 34.2833966 359.70977736 34.30332303 C355.53905025 34.32515978 351.36835986 34.35255975 347.19766235 34.37937927 C339.29644672 34.42933747 331.39521075 34.47426468 323.49395525 34.51740164 C314.50010174 34.56674732 305.50628505 34.62167533 296.51246715 34.67708123 C278.00834562 34.79094927 259.50418934 34.89777779 241 35 C241.14011861 36.43713146 241.28581023 37.87372024 241.43383789 39.31005859 C241.51436905 40.11011322 241.59490021 40.91016785 241.6778717 41.73446655 C242.52919614 47.7218449 245.85716382 53.0070125 250.234375 57.078125 C258.53573846 63.15874155 267.28407215 66.70049102 277.25 68.875 C283.83308825 70.35594599 288.25590729 72.20032698 292 78 C294.94582186 83.22645814 295.57604272 87.14356573 295 93 C293.93917847 95.20653534 293.93917847 95.20653534 292 97 C289.39454784 97.40160905 287.20578546 97.54057121 284.59814453 97.50793457 C283.45816356 97.51729451 283.45816356 97.51729451 282.29515266 97.52684355 C279.74072654 97.54283767 277.18724621 97.53014482 274.6328125 97.51757812 C272.80474285 97.52299641 270.97667757 97.53011742 269.14862061 97.53881836 C264.17757256 97.55708957 259.20685571 97.54996854 254.2358017 97.53730202 C249.04016713 97.52719399 243.84456143 97.53656157 238.64892578 97.54284668 C229.92279962 97.5501295 221.19680876 97.54051873 212.47070312 97.52148438 C202.37372813 97.49971445 192.27707619 97.50676537 182.18010902 97.52879 C173.52017254 97.54692591 164.86033347 97.54951118 156.20038414 97.53903532 C151.02418088 97.53279043 145.8481296 97.53199204 140.67193604 97.54518127 C135.80617354 97.55671286 130.94082864 97.54876344 126.07511139 97.52560425 C124.28643742 97.52030273 122.49772848 97.52185548 120.7090683 97.53065491 C118.27285184 97.5415375 115.83798519 97.52793669 113.40185547 97.50793457 C112.68892397 97.51685746 111.97599247 97.52578034 111.24145699 97.53497362 C108.01348153 97.48333376 106.41765003 97.40897571 104.06228638 95.10253143 C101.76271411 90.5511006 102.48623454 85.67830051 103.9375 80.9375 C109.58073027 72.90017204 115.24376831 69.48418104 124.7578125 67.50732422 C134.49028626 65.4136577 145.85270256 60.82640238 151.765625 52.51953125 C152.50039063 51.17955078 152.50039063 51.17955078 153.25 49.8125 C153.75015625 48.93207031 154.2503125 48.05164063 154.765625 47.14453125 C155.87738333 44.31236209 156.28414147 42.28547246 156.57714844 39.3034668 C156.65882263 38.49652878 156.74049683 37.68959076 156.824646 36.85820007 C156.88251282 36.24499405 156.94037964 35.63178802 157 35 C156.23946823 35.00129882 155.47893646 35.00259764 154.69535828 35.00393581 C136.1744063 35.03316038 117.65384095 35.0237463 99.13293457 34.97153378 C90.17624515 34.94721181 81.21989376 34.93588055 72.26318359 34.95532227 C64.45481678 34.97223819 56.64692287 34.96458522 48.83861828 34.92765242 C44.70548878 34.90895507 40.57315871 34.90241002 36.44003296 34.92530632 C32.54571809 34.94649098 28.65286415 34.93470335 24.75867653 34.89815521 C23.33332441 34.89049255 21.90784948 34.89464353 20.48258018 34.91181374 C8.40440914 35.0461148 8.40440914 35.0461148 3.15039062 30.68727112 C0.15091596 27.70146843 -0.92994009 25.30428723 -1.04980469 21.09277344 C-1.02515137 20.05685059 -1.02515137 20.05685059 -1 19 C-1.02223633 18.27586914 -1.04447266 17.55173828 -1.06738281 16.80566406 C-1.13262901 14.57658138 -1.13673633 12.3549022 -1.125 10.125 C-1.12886719 9.36703125 -1.13273437 8.6090625 -1.13671875 7.828125 C-1.12679967 2.25359933 -1.12679967 2.25359933 0 0 Z " fill="#D4E5DF" transform="translate(30,303)"/>
<path d="M0 0 C1.05058594 -0.04576172 2.10117188 -0.09152344 3.18359375 -0.13867188 C10.97660345 -0.2522582 10.97660345 -0.2522582 14.67578125 3.046875 C15.36027344 4.16578125 16.04476563 5.2846875 16.75 6.4375 C17.5403005 7.51169645 18.34138587 8.57803078 19.15234375 9.63671875 C19.99926428 10.79811895 20.84422014 11.96095366 21.6875 13.125 C22.65601247 14.45329822 23.62477475 15.78141433 24.59375 17.109375 C25.10421875 17.80998047 25.6146875 18.51058594 26.140625 19.23242188 C33.38560002 29.15909274 40.68565012 39.04593919 48.0625 48.875 C48.54871826 49.523479 49.03493652 50.17195801 49.53588867 50.84008789 C51.84270466 53.91283734 54.15946722 56.97719208 56.49609375 60.02734375 C56.92043701 60.58429932 57.34478027 61.14125488 57.78198242 61.71508789 C58.91880197 63.20600998 60.06076846 64.69300364 61.203125 66.1796875 C62.75 68.4375 62.75 68.4375 62.75 70.4375 C66.01176259 70.1548516 67.41778916 69.78490139 69.71484375 67.3828125 C70.36582031 66.45210938 71.01679687 65.52140625 71.6875 64.5625 C72.47358887 63.46197559 73.2600745 62.36173451 74.046875 61.26171875 C74.47548828 60.65247559 74.90410156 60.04323242 75.34570312 59.41552734 C77.9872689 55.6947405 80.72255933 52.04238053 83.4375 48.375 C87.06607096 43.45114214 90.68829457 38.52265168 94.3046875 33.58984375 C100.14075605 25.63679375 106.01511286 17.7169193 112 9.875 C112.54922119 9.15425293 113.09844238 8.43350586 113.66430664 7.69091797 C114.1721167 7.02850098 114.67992676 6.36608398 115.203125 5.68359375 C115.64817383 5.10279053 116.09322266 4.5219873 116.55175781 3.92358398 C117.75 2.4375 117.75 2.4375 119.75 0.4375 C122.07250977 0.19458008 122.07250977 0.19458008 124.94140625 0.20703125 C125.96814453 0.20896484 126.99488281 0.21089844 128.05273438 0.21289062 C129.12845703 0.22513672 130.20417969 0.23738281 131.3125 0.25 C132.39208984 0.25064453 133.47167969 0.25128906 134.58398438 0.25195312 C142.60985402 0.29735402 142.60985402 0.29735402 143.75 1.4375 C143.84887812 3.40947538 143.87632256 5.3850444 143.87698364 7.35949707 C143.87980347 8.64679214 143.88262329 9.93408722 143.88552856 11.26039124 C143.88358396 12.700287 143.88153578 14.14018264 143.87939453 15.58007812 C143.88074851 17.08597354 143.88252843 18.59186861 143.88470459 20.09776306 C143.88927928 24.19888807 143.88748922 28.29998804 143.8843255 32.40111351 C143.88180209 36.68346603 143.88413939 40.96581634 143.88571167 45.24816895 C143.88753342 52.44100328 143.88512692 59.63382737 143.88037109 66.82666016 C143.87492846 75.15466334 143.87669112 83.48264204 143.8821975 91.81064463 C143.88672848 98.94777846 143.88737925 106.0849049 143.88475883 113.2220397 C143.88319597 117.49048355 143.88300253 121.75891588 143.88629532 126.02735901 C143.88917381 130.03933934 143.88719875 134.05128796 143.88140106 138.06326485 C143.88007334 139.53994761 143.88046778 141.01663302 143.88266373 142.49331474 C143.88537474 144.50070987 143.88138084 146.50811079 143.87698364 148.51550293 C143.8764181 150.20458393 143.8764181 150.20458393 143.87584114 151.92778778 C143.75 154.4375 143.75 154.4375 142.75 155.4375 C140.83541718 155.53721786 138.91717683 155.56830589 137 155.5703125 C135.8346875 155.57160156 134.669375 155.57289063 133.46875 155.57421875 C131.62796875 155.56841797 131.62796875 155.56841797 129.75 155.5625 C128.5228125 155.56636719 127.295625 155.57023438 126.03125 155.57421875 C124.28328125 155.57228516 124.28328125 155.57228516 122.5 155.5703125 C121.42234375 155.56918457 120.3446875 155.56805664 119.234375 155.56689453 C116.75 155.4375 116.75 155.4375 115.75 154.4375 C115.64262854 153.08456324 115.60321362 151.72614581 115.59178162 150.3690033 C115.5819928 149.49255661 115.57220398 148.61610992 115.56211853 147.71310425 C115.55636307 146.74422272 115.5506076 145.77534119 115.54467773 144.77709961 C115.53477814 143.76258224 115.52487854 142.74806488 115.51467896 141.70280457 C115.48295872 138.33184179 115.4582651 134.9608649 115.43359375 131.58984375 C115.4130333 129.25956342 115.39203708 126.9292869 115.37062073 124.59901428 C115.31530614 118.45216953 115.2659384 112.30529061 115.21777344 106.15838623 C115.16762677 99.89136701 115.11190512 93.62439769 115.05664062 87.35742188 C114.94894431 75.05082383 114.847525 62.74418255 114.75 50.4375 C113.265 49.9425 113.265 49.9425 111.75 49.4375 C111.47325439 50.02128418 111.19650879 50.60506836 110.91137695 51.20654297 C109.80017006 53.34112539 108.58489695 55.1911429 107.16796875 57.1328125 C106.39851929 58.19230103 106.39851929 58.19230103 105.61352539 59.27319336 C104.78389282 60.40640015 104.78389282 60.40640015 103.9375 61.5625 C102.75249395 63.19132607 101.5676012 64.82023458 100.3828125 66.44921875 C99.77727539 67.2798584 99.17173828 68.11049805 98.54785156 68.96630859 C96.32112021 72.02700587 94.1094743 75.09835795 91.90014648 78.17163086 C90.30342617 80.38759286 88.6968191 82.59615504 87.08984375 84.8046875 C84.70327656 88.0923418 82.37527387 91.41518675 80.06640625 94.7578125 C78.83613517 96.50534751 77.60567118 98.25274673 76.375 100 C75.81627197 100.82814209 75.25754395 101.65628418 74.68188477 102.50952148 C71.95499885 106.3386707 70.61477217 108.15319134 66.04296875 109.65625 C62.75 109.4375 62.75 109.4375 60.88671875 108.27734375 C60.40847656 107.64957031 59.93023438 107.02179688 59.4375 106.375 C58.86 105.63378906 58.2825 104.89257812 57.6875 104.12890625 C57.048125 103.24074219 56.40875 102.35257812 55.75 101.4375 C54.986875 100.39464844 54.22375 99.35179687 53.4375 98.27734375 C51.27875435 95.29971933 49.15973288 92.29549781 47.04833984 89.28417969 C44.96631154 86.32282917 42.85732176 83.38087652 40.75 80.4375 C38.19961798 76.86967567 35.65156469 73.30022974 33.109375 69.7265625 C32.23966146 68.5051527 31.36987104 67.28379763 30.5 66.0625 C30.08443848 65.47823242 29.66887695 64.89396484 29.24072266 64.29199219 C26.48107765 60.42428274 23.64918182 56.62430563 20.7109375 52.890625 C19.75 51.4375 19.75 51.4375 19.75 49.4375 C18.265 49.9325 18.265 49.9325 16.75 50.4375 C16.73969254 51.73819931 16.72938507 53.03889862 16.71876526 54.37901306 C16.62121467 66.60786724 16.5184985 78.83666844 16.41066074 91.06543636 C16.35538163 97.35309491 16.3019538 103.64075805 16.25268555 109.9284668 C16.20511539 115.9909186 16.15277553 122.05331182 16.09705925 128.11569405 C16.07660228 130.43424594 16.05789487 132.75281392 16.04092598 135.07139397 C16.01695569 138.30668866 15.98689142 141.54187144 15.95532227 144.77709961 C15.9495668 145.74598114 15.94381134 146.71486267 15.93788147 147.71310425 C15.92319824 149.02777428 15.92319824 149.02777428 15.90821838 150.3690033 C15.90176583 151.13501327 15.89531328 151.90102324 15.8886652 152.69024563 C15.75 154.4375 15.75 154.4375 14.75 155.4375 C12.83541718 155.53721786 10.91717683 155.56830589 9 155.5703125 C7.8346875 155.57160156 6.669375 155.57289063 5.46875 155.57421875 C4.2415625 155.57035156 3.014375 155.56648437 1.75 155.5625 C0.5228125 155.56636719 -0.704375 155.57023438 -1.96875 155.57421875 C-3.1340625 155.57292969 -4.299375 155.57164062 -5.5 155.5703125 C-6.57765625 155.56918457 -7.6553125 155.56805664 -8.765625 155.56689453 C-11.25 155.4375 -11.25 155.4375 -12.25 154.4375 C-12.34887812 152.46552462 -12.37632256 150.4899556 -12.37698364 148.51550293 C-12.37980347 147.22820786 -12.38262329 145.94091278 -12.38552856 144.61460876 C-12.38358396 143.174713 -12.38153578 141.73481736 -12.37939453 140.29492188 C-12.38074851 138.78902646 -12.38252843 137.28313139 -12.38470459 135.77723694 C-12.38927928 131.67611193 -12.38748922 127.57501196 -12.3843255 123.47388649 C-12.38180209 119.19153397 -12.38413939 114.90918366 -12.38571167 110.62683105 C-12.38753342 103.43399672 -12.38512692 96.24117263 -12.38037109 89.04833984 C-12.37492846 80.72033666 -12.37669112 72.39235796 -12.3821975 64.06435537 C-12.38672848 56.92722154 -12.38737925 49.7900951 -12.38475883 42.6529603 C-12.38319597 38.38451645 -12.38300253 34.11608412 -12.38629532 29.84764099 C-12.38917381 25.83566066 -12.38719875 21.82371204 -12.38140106 17.81173515 C-12.38007334 16.33505239 -12.38046778 14.85836698 -12.38266373 13.38168526 C-12.38537474 11.37429013 -12.38138084 9.36688921 -12.37698364 7.35949707 C-12.37660662 6.23344307 -12.37622959 5.10738907 -12.37584114 3.94721222 C-12.08228781 -1.90726729 -4.56525342 0.08004374 0 0 Z " fill="#F1006C" transform="translate(1097.25,124.5625)"/>
<path d="M0 0 C1.75787769 -0.0115082 3.51575539 -0.0230151 5.27363312 -0.03451681 C6.84629299 -0.04481773 8.41895272 -0.05513994 9.99161232 -0.06548166 C14.34742652 -0.09409278 18.70324266 -0.12231878 23.05906391 -0.14983749 C31.24836302 -0.20192947 39.43745779 -0.25852568 47.62653923 -0.33872223 C50.87235637 -0.36633843 54.11804369 -0.37704314 57.3639679 -0.3817749 C58.94510932 -0.38784836 60.52623425 -0.40177068 62.10725403 -0.42230225 C78.33502464 -0.62218953 91.41139019 1.99697604 103.75 13.25 C111.80437132 21.73418696 114.51717811 32.81693955 114.24609375 44.234375 C113.2261522 55.69657523 107.50100736 62.94062085 99.3203125 70.5546875 C97.77518047 71.91983945 97.77518047 71.91983945 98 74 C100.01939223 75.34831269 100.01939223 75.34831269 102.5625 76.6875 C112.75312694 82.65239447 119.85493726 91.48246432 123 103 C124.18543401 115.03353364 122.78197115 126.47652212 115.375 136.3125 C106.24849167 146.70657893 95.01105659 153.91241509 80.96512032 155.1842556 C78.83443034 155.25024953 76.71196656 155.25918601 74.58032227 155.24291992 C73.78096756 155.24481827 72.98161285 155.24671661 72.15803528 155.24867249 C69.54405578 155.25234566 66.93036057 155.24173111 64.31640625 155.23046875 C62.49177584 155.22927553 60.66714482 155.22882409 58.84251404 155.2290802 C55.03404857 155.22752166 51.22567796 155.2192759 47.41723633 155.20581055 C42.5254823 155.1887369 37.63383146 155.18499894 32.74205112 155.18575573 C28.98212187 155.1854846 25.22221535 155.18001404 21.46229362 155.17275429 C19.65728871 155.16956497 17.85228122 155.1675996 16.04727364 155.16686058 C13.53610911 155.16470458 11.02505666 155.15597905 8.51391602 155.14526367 C7.76331909 155.14571686 7.01272217 155.14617004 6.23937988 155.14663696 C1.11448274 155.11448274 1.11448274 155.11448274 0 154 C-0.096708 152.01305149 -0.12187052 150.02260987 -0.12025452 148.03330994 C-0.12162918 146.73615555 -0.12300385 145.43900116 -0.12442017 144.10253906 C-0.12088055 142.6516111 -0.11724573 141.20068337 -0.11352539 139.74975586 C-0.11324353 138.23238629 -0.11340123 136.71501658 -0.1139679 135.19764709 C-0.11425591 131.06559484 -0.10835858 126.93357137 -0.10139394 122.80152583 C-0.09516102 118.48801108 -0.09455665 114.17449573 -0.09336853 109.86097717 C-0.09025503 101.68699883 -0.08204139 93.51303379 -0.07201904 85.33906132 C-0.06085848 76.03571031 -0.0553476 66.73235868 -0.05032361 57.42900264 C-0.03985879 38.28599421 -0.02225899 19.14299817 0 0 Z M28 25 C27.89893126 27.87264056 27.86030328 30.72073628 27.8671875 33.59375 C27.86623077 34.45560913 27.86527405 35.31746826 27.86428833 36.20544434 C27.8636065 38.03133212 27.86546096 39.85722231 27.86962891 41.68310547 C27.87497714 44.48801078 27.86968401 47.29275595 27.86328125 50.09765625 C27.86394203 51.86718786 27.86522319 53.63671936 27.8671875 55.40625 C27.86516327 56.25102905 27.86313904 57.09580811 27.86105347 57.96618652 C27.50075489 61.7918686 27.50075489 61.7918686 29 65 C34.67784607 65.29449796 40.35846134 65.31430496 46.04321289 65.35009766 C47.95674889 65.36656165 49.87022587 65.39372333 51.78344727 65.43212891 C66.75836606 66.12343788 66.75836606 66.12343788 80 60 C84.74394469 55.27940478 85.33086027 51.01048166 85.5 44.375 C85.45630616 39.07712246 84.75987319 35.54952967 82 31 C75.34952873 24.49731698 69.35644096 23.6956041 60.48046875 23.76953125 C59.13170403 23.77021858 59.13170403 23.77021858 57.75569153 23.7709198 C55.86551586 23.77392883 53.97534237 23.78177449 52.08520508 23.79418945 C49.17976194 23.8125489 46.27463596 23.81469825 43.36914062 23.81445312 C41.53124722 23.8193649 39.69335599 23.82519172 37.85546875 23.83203125 C36.98262741 23.83314407 36.10978607 23.8342569 35.210495 23.83540344 C31.29070415 23.47800166 31.29070415 23.47800166 28 25 Z M28 87 C27.90214659 88.34544327 27.87202015 89.69592563 27.87060547 91.04492188 C27.86745331 91.90251099 27.86430115 92.7601001 27.86105347 93.64367676 C27.8630777 94.57595093 27.86510193 95.5082251 27.8671875 96.46875 C27.86623077 97.41939331 27.86527405 98.37003662 27.86428833 99.3494873 C27.86360643 101.36368882 27.86546138 103.37789252 27.86962891 105.39208984 C27.87497702 108.48670355 27.86968423 111.5811721 27.86328125 114.67578125 C27.86394203 116.62760449 27.86522319 118.57942764 27.8671875 120.53125 C27.86516327 121.46352417 27.86313904 122.39579834 27.86105347 123.35632324 C27.86420563 124.21391235 27.86735779 125.07150146 27.87060547 125.95507812 C27.87140106 126.71373169 27.87219666 127.47238525 27.87301636 128.25402832 C27.81078913 130.02877312 27.81078913 130.02877312 29 131 C30.38910719 131.11361985 31.78385374 131.1595208 33.17749023 131.17700195 C34.06609238 131.18983719 34.95469452 131.20267242 35.870224 131.21589661 C36.83988602 131.22328354 37.80954803 131.23067047 38.80859375 131.23828125 C40.30242332 131.25038887 40.30242332 131.25038887 41.82643127 131.26274109 C43.94408415 131.27660832 46.06175962 131.28731859 48.17944336 131.29516602 C51.39286092 131.3122625 54.60521837 131.35611068 57.81835938 131.40039062 C59.87759661 131.41052754 61.9368426 131.4190405 63.99609375 131.42578125 C65.42325966 131.45204338 65.42325966 131.45204338 66.8792572 131.47883606 C74.80352423 131.45355395 81.06600625 129.30908329 87.875 125.3125 C93.02726258 119.70562602 94.74919569 113.30990482 94.453125 105.78125 C93.4840315 99.83302094 90.8102314 94.96108402 86.75 90.5625 C79.40160589 86.38727607 72.43382894 85.56423049 64.09375 85.671875 C63.08783813 85.67374817 62.08192627 85.67562134 61.04553223 85.67755127 C58.93787274 85.68423067 56.83022478 85.69806221 54.72265625 85.71875 C51.48165494 85.75017789 48.24113929 85.75975337 45 85.765625 C42.94791067 85.77478504 40.89582632 85.7851576 38.84375 85.796875 C37.87095093 85.80112488 36.89815186 85.80537476 35.89587402 85.80975342 C34.55812927 85.82416473 34.55812927 85.82416473 33.19335938 85.83886719 C32.40554077 85.84569519 31.61772217 85.85252319 30.80603027 85.85955811 C28.97849245 85.80478842 28.97849245 85.80478842 28 87 Z " fill="#FEFEFE" transform="translate(854,125)"/>
<path d="M0 0 C1.051875 0.36222656 2.10375 0.72445312 3.1875 1.09765625 C10.70120354 3.92487888 16.76169019 7.99585349 23 13 C23.72058594 13.55558594 24.44117188 14.11117187 25.18359375 14.68359375 C35.85335956 23.35667824 44.73939083 37.27487287 47 51 C46.69894266 52.67279807 46.36914799 54.34089824 46 56 C41.72952167 56.14486019 37.45967167 56.23392616 33.1875 56.3125 C31.97255859 56.35439453 30.75761719 56.39628906 29.50585938 56.43945312 C28.34248047 56.45556641 27.17910156 56.47167969 25.98046875 56.48828125 C24.37014771 56.52755737 24.37014771 56.52755737 22.72729492 56.56762695 C20 56 20 56 18.23144531 53.66674805 C17.82506836 52.78672119 17.41869141 51.90669434 17 51 C16.44441406 49.9584375 15.88882813 48.916875 15.31640625 47.84375 C14.14769682 45.61565363 12.98102721 43.38648612 11.81640625 41.15625 C6.70121771 32.26792239 -1.13296492 27.45021213 -10.75 24.125 C-25.82043329 20.30331118 -41.05546585 21.72495715 -55 28.6875 C-66.99329051 36.03588526 -74.6022631 47.54192387 -78.17578125 61.078125 C-81.91754242 77.54789307 -79.44982331 93.77803888 -71.0625 108.375 C-64.07676565 119.4679249 -52.93502537 126.57261874 -40.25537109 129.58911133 C-25.35027642 132.64307704 -10.22258025 129.85794611 2.64453125 121.71875 C10.12452216 116.26071351 13.52251474 109.38764235 17 101 C17.99 99.02 17.99 99.02 19 97 C28.24 97 37.48 97 47 97 C45.6164895 110.83510495 41.42516586 120.82149051 32 131 C31.20207031 131.86625 30.40414062 132.7325 29.58203125 133.625 C14.1972671 149.65377754 -4.78121625 156.83731545 -26.8125 157.3125 C-49.63551308 157.19703788 -68.58076067 148.68447131 -85 133 C-85.61488281 132.45988281 -86.22976563 131.91976562 -86.86328125 131.36328125 C-101.2554907 118.22832228 -108.01334049 98.57128104 -109.21484375 79.609375 C-109.80490664 58.55593126 -102.74294158 38.77785347 -88.34765625 23.4453125 C-87.57292969 22.63835937 -86.79820312 21.83140625 -86 21 C-85.27683594 20.21367187 -84.55367187 19.42734375 -83.80859375 18.6171875 C-62.84693517 -3.50692442 -28.38487058 -10.40551145 0 0 Z " fill="#FEFEFE" transform="translate(599,126)"/>
<path d="M0 0 C1.1653125 -0.00128906 2.330625 -0.00257812 3.53125 -0.00390625 C4.7584375 -0.00003906 5.985625 0.00382812 7.25 0.0078125 C9.09078125 0.00201172 9.09078125 0.00201172 10.96875 -0.00390625 C12.71671875 -0.00197266 12.71671875 -0.00197266 14.5 0 C15.57765625 0.00112793 16.6553125 0.00225586 17.765625 0.00341797 C20.25 0.1328125 20.25 0.1328125 21.25 1.1328125 C21.35944697 4.2204609 21.40424101 7.28655724 21.40771484 10.375 C21.41533592 11.83120003 21.41533592 11.83120003 21.42311096 13.31681824 C21.43384279 15.43395066 21.44245184 17.55109463 21.44923019 19.66824341 C21.46099056 23.02294894 21.48043896 26.37752405 21.50234985 29.73217773 C21.56404112 39.27371856 21.61791368 48.81524882 21.65136719 58.35693359 C21.67236185 64.18723558 21.70771242 70.01730461 21.75212479 75.84747314 C21.76625641 78.06729378 21.77500079 80.2871557 21.77817917 82.50701904 C21.78311059 85.62341489 21.80632937 88.73919822 21.83349609 91.85546875 C21.83048996 92.76596481 21.82748383 93.67646088 21.8243866 94.61454773 C21.90175581 100.61798406 23.01780528 105.56820445 25.25 111.1328125 C25.5396633 111.85787491 25.82932659 112.58293732 26.12776756 113.32997131 C29.28137441 120.83819611 35.02118761 125.43518233 42.4375 128.5078125 C52.2655536 132.15959332 64.31688382 132.85109128 74.25 129.1328125 C83.54822172 124.63051567 89.57078883 118.86455582 93.25 109.1328125 C96.65962303 96.87688074 96.72284532 84.73876037 96.76171875 72.10546875 C96.77860083 70.0193936 96.79675569 67.9333284 96.81611633 65.84727478 C96.86323962 60.40755323 96.89329117 54.96787204 96.91955566 49.52801514 C96.94955315 43.95674674 96.99601662 38.38561698 97.04101562 32.81445312 C97.12661915 21.92064601 97.1941535 11.02681002 97.25 0.1328125 C101.72915328 0.10394912 106.20828291 0.08606063 110.6875 0.0703125 C111.96689453 0.06193359 113.24628906 0.05355469 114.56445312 0.04492188 C116.38686523 0.04008789 116.38686523 0.04008789 118.24609375 0.03515625 C119.37200928 0.02991943 120.4979248 0.02468262 121.65795898 0.01928711 C124.25 0.1328125 124.25 0.1328125 125.25 1.1328125 C125.35601129 4.13858266 125.39677467 7.12149707 125.39526367 10.12792969 C125.39862228 11.07279739 125.4019809 12.0176651 125.40544128 12.99116516 C125.41499299 16.13735243 125.41689732 19.2834866 125.41796875 22.4296875 C125.42118137 24.61671979 125.42454544 26.80375186 125.42805481 28.99078369 C125.43405867 33.59102882 125.43589372 38.19125514 125.43530273 42.79150391 C125.43520171 48.65869489 125.4487857 54.52576321 125.46607494 60.39292526 C125.47725696 64.91939841 125.47921995 69.44584265 125.47869301 73.97232819 C125.47986642 76.13305326 125.48425197 78.29377925 125.49202538 80.45449066 C125.58675294 109.53749617 125.58675294 109.53749617 120.3125 121.1953125 C120.01529053 121.86232178 119.71808105 122.52933105 119.41186523 123.21655273 C115.9779834 130.41041043 110.97940201 135.69487716 105.25 141.1328125 C104.569375 141.81988281 103.88875 142.50695312 103.1875 143.21484375 C90.32012445 155.51927162 72.2907081 158.47535519 55.14453125 158.2734375 C39.4947813 157.70835124 24.88701479 152.90522981 13.25 142.1328125 C12.56679688 141.52824219 11.88359375 140.92367187 11.1796875 140.30078125 C0.22894669 130.0787019 -6.31812722 116.59361844 -7.19085693 101.61819458 C-7.40408221 95.21760851 -7.3403604 88.82062225 -7.2734375 82.41796875 C-7.26663515 80.06669104 -7.26192076 77.71540645 -7.25918579 75.36412048 C-7.24858026 70.47341648 -7.22206069 65.58317836 -7.18212891 60.69262695 C-7.13084158 54.41105728 -7.1060331 48.12975232 -7.09119225 41.84800053 C-7.07645758 35.85045316 -7.05123634 29.85296816 -7.0234375 23.85546875 C-7.01852673 22.70865191 -7.01361595 21.56183506 -7.00855637 20.38026619 C-6.99237112 17.16107365 -6.96897815 13.94202591 -6.94287109 10.72290039 C-6.93861115 9.7604541 -6.9343512 8.79800781 -6.92996216 7.80639648 C-6.92136169 6.93624405 -6.91276123 6.06609161 -6.90390015 5.16957092 C-6.89832785 4.40959336 -6.89275555 3.6496158 -6.88701439 2.86660862 C-6.57425327 -1.09110717 -3.24115823 0.00339236 0 0 Z " fill="#FDFDFE" transform="translate(685.75,124.8671875)"/>
<path d="M0 0 C1.52362656 -0.00786278 1.52362656 -0.00786278 3.07803345 -0.0158844 C5.22128386 -0.02229183 7.3645695 -0.02098422 9.5078125 -0.01245117 C12.77147694 -0.00395205 16.03338371 -0.03270423 19.296875 -0.06445312 C21.38541615 -0.06606569 23.47396037 -0.06548655 25.5625 -0.0625 C26.53045502 -0.07373398 27.49841003 -0.08496796 28.49569702 -0.09654236 C34.41496847 -0.03625127 39.67816931 0.597375 44.4140625 4.43359375 C46.9738135 8.06036939 47.78773971 10.51142916 47.77482605 14.9322052 C47.77895004 16.02450439 47.78307404 17.11680359 47.787323 18.24220276 C47.77653717 19.43047165 47.76575134 20.61874054 47.75463867 21.84301758 C47.75529579 23.73142868 47.75529579 23.73142868 47.75596619 25.6579895 C47.7568256 29.10192764 47.73920882 32.54555121 47.71824431 35.98941636 C47.69946845 39.59153532 47.69772636 43.1936618 47.69416809 46.79582214 C47.68485027 53.61329875 47.66024014 60.43063074 47.63011962 67.24804372 C47.5902915 76.46302518 47.5741186 85.6780463 47.55661297 94.89309216 C47.52841878 109.40670098 47.46864767 123.92000463 47.4140625 138.43359375 C24.9740625 138.43359375 2.5340625 138.43359375 -20.5859375 138.43359375 C-20.74714964 106.32550982 -20.74714964 106.32550982 -20.78125 92.87109375 C-20.80498499 83.58096485 -20.83288813 74.29098106 -20.88769531 65.00097656 C-20.92759207 58.23510857 -20.95337715 51.46935829 -20.96229148 44.70337594 C-20.9675015 41.12151841 -20.97972678 37.53999763 -21.00885773 33.95824814 C-21.04113163 29.95752846 -21.04189511 25.95739243 -21.04003906 21.95654297 C-21.05442017 20.77186935 -21.06880127 19.58719574 -21.08361816 18.36662292 C-21.05210263 12.09823584 -20.89699309 8.14762176 -16.5859375 3.43359375 C-11.39122606 -0.27502452 -6.14230211 -0.01855094 0 0 Z " fill="#AE4833" transform="translate(146.5859375,109.56640625)"/>
<path d="M0 0 C0.8560936 -0.00700928 1.71218719 -0.01401855 2.59422302 -0.02124023 C5.41292145 -0.03878698 8.23060846 -0.0272073 11.04931641 -0.01367188 C13.0169799 -0.01636824 14.98464208 -0.02025187 16.95230103 -0.02526855 C21.07298488 -0.03115953 25.19332143 -0.02261532 29.31396484 -0.00390625 C34.58200004 0.01885291 39.84921866 0.00577679 45.11722374 -0.01819611 C49.18030889 -0.0326905 53.24320237 -0.02803089 57.30629349 -0.01768494 C59.24786095 -0.01502615 61.1894461 -0.01825741 63.13099289 -0.02760315 C65.85211613 -0.03782546 68.57194152 -0.02218761 71.29296875 0 C72.48400963 -0.01214539 72.48400963 -0.01214539 73.69911194 -0.02453613 C79.2844575 0.0593296 83.6760507 1.25580282 88.27587891 4.51757812 C91.38322184 8.21154108 91.6571496 11.2109684 91.67993164 15.95678711 C91.69261581 17.23839218 91.70529999 18.51999725 91.71836853 19.84043884 C91.71631688 21.23151817 91.71332869 22.62259638 91.70947266 24.01367188 C91.71403717 25.44947048 91.71934355 26.88526691 91.72535706 28.32106018 C91.73427787 31.32619111 91.73187716 34.33105615 91.72192383 37.33618164 C91.71043757 41.17747056 91.73064431 45.01783971 91.75984097 48.85900784 C91.77823343 51.82312297 91.7779045 54.78701893 91.77220345 57.75117683 C91.77205059 59.16689405 91.77806552 60.58262645 91.79049492 61.99828911 C91.80545703 63.98179918 91.79207097 65.96546098 91.77758789 67.94897461 C91.77742172 69.07528793 91.77725555 70.20160126 91.77708435 71.36204529 C91.14215624 75.35948091 89.8803991 77.43150497 87.27587891 80.51757812 C82.4090008 83.85781426 78.04658816 83.96282932 72.35229492 83.95336914 C71.03648437 83.96848289 71.03648437 83.96848289 69.6940918 83.98390198 C66.80585857 84.01230602 63.91814919 84.01825434 61.02978516 84.02148438 C59.01488533 84.03112945 56.99998761 84.04122222 54.98509216 84.05174255 C50.76613494 84.06968409 46.54736181 84.07526548 42.32836914 84.07348633 C36.92999371 84.0731813 31.53280065 84.11416525 26.13470554 84.16580296 C21.97473253 84.19920283 17.81504446 84.20524284 13.6549511 84.20365715 C11.66506811 84.20719047 9.67517721 84.22042216 7.68542671 84.24365425 C4.89906656 84.27314693 2.11526124 84.26439183 -0.67114258 84.24633789 C-1.89562859 84.27162567 -1.89562859 84.27162567 -3.14485168 84.29742432 C-8.51919549 84.20921095 -11.48998797 82.90983882 -15.35211849 79.135849 C-18.72240128 75.16061567 -18.97860832 71.42263392 -19.01464844 66.35375977 C-19.02740814 65.13221695 -19.04016785 63.91067413 -19.05331421 62.65211487 C-19.05553986 61.34056931 -19.0577655 60.02902374 -19.06005859 58.67773438 C-19.06649136 57.30919762 -19.07322007 55.94066222 -19.08023071 54.5721283 C-19.09218214 51.70829073 -19.09591366 48.84457362 -19.09472656 45.98071289 C-19.09452328 42.32105346 -19.12184363 38.66216974 -19.15627098 35.00269413 C-19.17856639 32.17757151 -19.18256335 29.35263497 -19.18150711 26.5274334 C-19.18499701 24.52555971 -19.20663938 22.5237441 -19.22860718 20.52198792 C-19.17082819 9.0221248 -19.17082819 9.0221248 -14.72412109 4.51757812 C-9.71302339 0.44110111 -6.19126344 -0.06281383 0 0 Z " fill="#29B4FD" transform="translate(240.72412109375,109.482421875)"/>
<path d="M0 0 C3.5045447 2.58956505 6.40616835 5.36239818 9.12890625 8.7578125 C9.83015625 9.6034375 10.53140625 10.4490625 11.25390625 11.3203125 C12.24390625 11.3203125 13.23390625 11.3203125 14.25390625 11.3203125 C14.58390625 6.3703125 14.91390625 1.4203125 15.25390625 -3.6796875 C23.50390625 -3.6796875 31.75390625 -3.6796875 40.25390625 -3.6796875 C40.27645393 11.29717843 40.29488581 26.27403571 40.30571842 41.25091457 C40.31088121 48.20447331 40.31792359 55.15802077 40.3293457 62.11157227 C40.34035319 68.81588459 40.34618246 75.52018275 40.34878349 82.22450447 C40.35063827 84.78868863 40.35425989 87.35287212 40.35963631 89.91705132 C40.36684284 93.49476408 40.36789736 97.07242769 40.36743164 100.65014648 C40.37102692 101.72188614 40.37462219 102.79362579 40.37832642 103.89784241 C40.37695175 104.86684479 40.37557709 105.83584717 40.37416077 106.83421326 C40.37508256 107.68134101 40.37600435 108.52846876 40.37695408 109.40126705 C40.25390625 111.3203125 40.25390625 111.3203125 39.25390625 112.3203125 C37.55831899 112.41963403 35.85864878 112.45111257 34.16015625 112.453125 C33.13019531 112.45441406 32.10023437 112.45570313 31.0390625 112.45703125 C29.41291016 112.45123047 29.41291016 112.45123047 27.75390625 112.4453125 C26.66980469 112.44917969 25.58570313 112.45304687 24.46875 112.45703125 C22.92380859 112.45509766 22.92380859 112.45509766 21.34765625 112.453125 C20.39568359 112.45199707 19.44371094 112.45086914 18.46289062 112.44970703 C16.25390625 112.3203125 16.25390625 112.3203125 15.25390625 111.3203125 C15.01737102 108.79434991 14.83216933 106.28924043 14.69140625 103.7578125 C14.64822266 103.04689453 14.60503906 102.33597656 14.56054688 101.60351562 C14.45418848 99.84269338 14.35351779 98.0815293 14.25390625 96.3203125 C10.73995496 97.79491706 8.78335049 99.75343141 6.25390625 102.5703125 C-3.02822958 112.00436545 -14.29460941 115.15026436 -27.24609375 115.5703125 C-42.96682504 115.06045094 -54.84079708 109.6861369 -65.74609375 98.3203125 C-78.3741603 84.58729013 -83.52766116 68.83404788 -83.09765625 50.2265625 C-82.1479203 39.67394086 -79.90955538 29.10460092 -73.74609375 20.3203125 C-73.31683594 19.67320312 -72.88757812 19.02609375 -72.4453125 18.359375 C-66.23549533 9.50819898 -58.68824487 1.75215275 -48.74609375 -2.6796875 C-47.98554687 -3.07027344 -47.225 -3.46085938 -46.44140625 -3.86328125 C-32.13221527 -10.30464604 -13.19330204 -8.0698718 0 0 Z M-47.7578125 29.546875 C-54.95682726 39.05500771 -57.02434656 49.54315177 -55.74609375 61.3203125 C-53.55364542 70.68466809 -49.24758089 79.43143278 -40.99609375 84.6953125 C-30.97951494 90.10156193 -21.80403512 92.01572105 -10.80859375 88.7578125 C0.04031375 84.75503492 5.74310108 79.77466062 10.9765625 69.40625 C14.73070136 60.33661788 14.59753633 48.92721842 11.359375 39.69921875 C6.83640002 29.96603231 0.85671848 24.06721026 -8.93359375 20.0078125 C-22.65490894 15.38391725 -37.94758147 18.68894939 -47.7578125 29.546875 Z " fill="#F1006C" transform="translate(1358.74609375,167.6796875)"/>
<path d="M0 0 C1.07507812 -0.00128906 2.15015625 -0.00257813 3.2578125 -0.00390625 C4.38960937 -0.00003906 5.52140625 0.00382813 6.6875 0.0078125 C7.81929687 0.00394531 8.95109375 0.00007812 10.1171875 -0.00390625 C11.19226562 -0.00261719 12.26734375 -0.00132812 13.375 0 C14.36886719 0.00112793 15.36273437 0.00225586 16.38671875 0.00341797 C18.6875 0.1328125 18.6875 0.1328125 19.6875 1.1328125 C19.84730437 3.57890248 19.94679447 6.00012308 20.00390625 8.44921875 C20.02468735 9.18027328 20.04546844 9.91132782 20.06687927 10.66453552 C20.13245024 13.00802906 20.19129432 15.35163789 20.25 17.6953125 C20.29317808 19.28061105 20.33679213 20.86589779 20.38085938 22.45117188 C20.4881392 26.34493287 20.5893849 30.23881022 20.6875 34.1328125 C21.71222412 34.15786865 22.73694824 34.1829248 23.79272461 34.20874023 C27.58159676 34.30265734 31.37027881 34.40291567 35.15893555 34.50512695 C36.80114303 34.54853547 38.44339739 34.59020608 40.08569336 34.63012695 C42.44138745 34.6876869 44.79684428 34.75142142 47.15234375 34.81640625 C47.89089096 34.83311874 48.62943817 34.84983124 49.3903656 34.86705017 C54.57362829 35.01894079 54.57362829 35.01894079 55.6875 36.1328125 C55.78649523 37.68236809 55.81829524 39.23634923 55.8203125 40.7890625 C55.82160156 41.72878906 55.82289062 42.66851562 55.82421875 43.63671875 C55.82035156 44.62542969 55.81648438 45.61414063 55.8125 46.6328125 C55.81636719 47.62152344 55.82023437 48.61023438 55.82421875 49.62890625 C55.82292969 50.56863281 55.82164063 51.50835937 55.8203125 52.4765625 C55.81918457 53.34474609 55.81805664 54.21292969 55.81689453 55.10742188 C55.6875 57.1328125 55.6875 57.1328125 54.6875 58.1328125 C52.16869483 58.29269741 49.67407734 58.39215475 47.15234375 58.44921875 C46.39909317 58.46999985 45.64584259 58.49078094 44.86976624 58.51219177 C42.4549401 58.57776675 40.04000202 58.63660871 37.625 58.6953125 C35.99152471 58.7384902 34.3580609 58.78210423 32.72460938 58.82617188 C28.71235536 58.93345612 24.69998836 59.03470071 20.6875 59.1328125 C20.63656604 66.23116981 20.60166847 73.32947954 20.57763672 80.42797852 C20.56761246 82.84010581 20.55398955 85.25222105 20.53662109 87.66430664 C20.51221538 91.1421202 20.50098082 94.61977233 20.4921875 98.09765625 C20.48186493 99.16676743 20.47154236 100.2358786 20.46090698 101.33738708 C20.45965623 109.78583196 20.66056226 118.64226416 26.6875 125.1328125 C32.95015554 128.16417769 39.39930166 128.64439581 46.25 128.8203125 C47.16330078 128.85447266 48.07660156 128.88863281 49.01757812 128.92382812 C51.24076229 129.00530608 53.46360197 129.07476988 55.6875 129.1328125 C55.71637814 132.61196191 55.73425687 136.09108081 55.75 139.5703125 C55.75837891 140.56353516 55.76675781 141.55675781 55.77539062 142.58007812 C55.77861328 143.52431641 55.78183594 144.46855469 55.78515625 145.44140625 C55.79039307 146.31595459 55.79562988 147.19050293 55.80102539 148.09155273 C55.6875 150.1328125 55.6875 150.1328125 54.6875 151.1328125 C50.45310369 151.3778328 46.21239251 151.3614655 41.97167969 151.37304688 C39.85569864 151.38261712 37.74074701 151.41355645 35.625 151.4453125 C25.24141361 151.52652046 15.04734008 150.97268166 6.6875 144.1328125 C6.11386719 143.67390625 5.54023437 143.215 4.94921875 142.7421875 C-1.35971194 137.17627862 -3.71010263 129.94000462 -6.3125 122.1328125 C-6.42457212 120.12957983 -6.47893105 118.12293232 -6.50195312 116.11669922 C-6.51867065 114.87886688 -6.53538818 113.64103455 -6.5526123 112.36569214 C-6.55929428 111.70514706 -6.56597626 111.04460197 -6.57286072 110.36404037 C-6.59391048 108.29673947 -6.62092852 106.22959327 -6.64953613 104.16238403 C-6.7193212 99.03081972 -6.77886519 93.89914591 -6.83856201 88.76745605 C-6.88941892 84.42695551 -6.94420458 80.08654028 -7.00437927 75.7461586 C-7.03102405 73.70481114 -7.05179159 71.66345597 -7.0723877 69.62203979 C-7.08910522 68.39051178 -7.10582275 67.15898376 -7.12304688 65.89013672 C-7.13557495 64.7999826 -7.14810303 63.70982849 -7.16101074 62.5866394 C-7.0372868 60.18729497 -7.0372868 60.18729497 -8.3125 59.1328125 C-9.93372423 58.98773985 -11.56069889 58.9057124 -13.1875 58.8515625 C-14.17234375 58.81417969 -15.1571875 58.77679688 -16.171875 58.73828125 C-17.20828125 58.70347656 -18.2446875 58.66867188 -19.3125 58.6328125 C-21.35431732 58.56424401 -23.39600185 58.49155392 -25.4375 58.4140625 C-26.34757812 58.38376953 -27.25765625 58.35347656 -28.1953125 58.32226562 C-30.3125 58.1328125 -30.3125 58.1328125 -31.3125 57.1328125 C-31.41149523 55.58325691 -31.44329524 54.02927577 -31.4453125 52.4765625 C-31.44660156 51.53683594 -31.44789062 50.59710938 -31.44921875 49.62890625 C-31.44535156 48.64019531 -31.44148438 47.65148437 -31.4375 46.6328125 C-31.44136719 45.64410156 -31.44523437 44.65539062 -31.44921875 43.63671875 C-31.44792969 42.69699219 -31.44664063 41.75726563 -31.4453125 40.7890625 C-31.44418457 39.92087891 -31.44305664 39.05269531 -31.44189453 38.15820312 C-31.3125 36.1328125 -31.3125 36.1328125 -30.3125 35.1328125 C-28.69127577 34.98773985 -27.06430111 34.9057124 -25.4375 34.8515625 C-23.96023438 34.79548828 -23.96023438 34.79548828 -22.453125 34.73828125 C-19.3125 34.6328125 -19.3125 34.6328125 -16.171875 34.52734375 C-14.69460938 34.47126953 -14.69460938 34.47126953 -13.1875 34.4140625 C-12.27742188 34.38376953 -11.36734375 34.35347656 -10.4296875 34.32226562 C-8.32824568 34.36231491 -8.32824568 34.36231491 -7.3125 33.1328125 C-7.16507984 30.7710504 -7.07765541 28.43464729 -7.03125 26.0703125 C-7.01284058 25.36382568 -6.99443115 24.65733887 -6.97546387 23.92944336 C-6.91654448 21.66398666 -6.86379573 19.39845391 -6.8125 17.1328125 C-6.74504576 14.15347843 -6.6713781 11.17439687 -6.59375 8.1953125 C-6.58017456 7.5036499 -6.56659912 6.8119873 -6.5526123 6.09936523 C-6.39519671 0.09784809 -5.88290405 0.00667645 0 0 Z " fill="#F1006C" transform="translate(1555.3125,128.8671875)"/>
<path d="M0 0 C1.46852234 -0.00464361 2.93704351 -0.00967026 4.40556335 -0.01504517 C8.34722699 -0.02800579 12.28887375 -0.0345793 16.2305553 -0.03905582 C18.69877577 -0.04200772 21.16699183 -0.04611582 23.63521004 -0.05056 C31.37564615 -0.06417949 39.11607192 -0.07387828 46.85651916 -0.07776189 C55.76216497 -0.08225686 64.66765839 -0.09989435 73.57325786 -0.12876248 C80.48484814 -0.15038441 87.39639548 -0.16046611 94.30801922 -0.16180301 C98.42561026 -0.16284883 102.54305694 -0.16871159 106.66061211 -0.18662262 C110.52592958 -0.20311669 114.39099415 -0.20525249 118.2563343 -0.19648361 C119.67085066 -0.19571449 121.08538076 -0.20003953 122.49986267 -0.20994186 C137.82615264 -0.31092294 137.82615264 -0.31092294 144.15063477 5.28222656 C144.80290039 6.04664063 145.45516602 6.81105469 146.12719727 7.59863281 C146.79493164 8.36046875 147.46266602 9.12230469 148.15063477 9.90722656 C150.51005099 13.2276733 150.90829704 16.15472334 151.00219727 20.16113281 C151.04086914 21.15113281 151.04086914 21.15113281 151.08032227 22.16113281 C150.61586807 24.99209173 149.80927754 26.14150822 147.75219727 28.16113281 C145.14674511 28.56274186 142.95798272 28.70170402 140.3503418 28.66906738 C139.21036082 28.67842733 139.21036082 28.67842733 138.04734993 28.68797636 C135.49292381 28.70397048 132.93944348 28.69127763 130.38500977 28.67871094 C128.55694012 28.68412923 126.72887484 28.69125023 124.90081787 28.69995117 C119.92976982 28.71822239 114.95905297 28.71110135 109.98799896 28.69843483 C104.79236439 28.6883268 99.5967587 28.69769438 94.40112305 28.70397949 C85.67499689 28.71126231 76.94900602 28.70165154 68.22290039 28.68261719 C58.1259254 28.66084726 48.02927345 28.66789818 37.93230629 28.68992281 C29.27236981 28.70805873 20.61253073 28.71064399 11.95258141 28.70016813 C6.77637815 28.69392325 1.60032687 28.69312486 -3.5758667 28.70631409 C-8.44162919 28.71784568 -13.3069741 28.70989625 -18.17269135 28.68673706 C-19.96136531 28.68143554 -21.75007426 28.6829883 -23.53873444 28.69178772 C-25.97495089 28.70267032 -28.40981754 28.6890695 -30.84594727 28.66906738 C-31.55887877 28.67799027 -32.27181026 28.68691316 -33.00634575 28.69610643 C-36.2343212 28.64446657 -37.8301527 28.57010853 -40.18551636 26.26366425 C-42.48508862 21.71223341 -41.7615682 16.83943333 -40.31030273 12.09863281 C-36.62494079 6.84978399 -32.81163521 1.83463693 -26.2147665 0.58794022 C-25.1131622 0.53936245 -24.0115579 0.49078468 -22.87657166 0.44073486 C-21.63762083 0.38263893 -20.39867001 0.324543 -19.12217522 0.26468658 C-12.74701581 0.09429207 -6.37729562 0.00479058 0 0 Z " fill="#D4E5E0" transform="translate(174.247802734375,371.8388671875)"/>
<path d="M0 0 C1.1653125 -0.00128906 2.330625 -0.00257812 3.53125 -0.00390625 C4.7584375 -0.00003906 5.985625 0.00382812 7.25 0.0078125 C9.09078125 0.00201172 9.09078125 0.00201172 10.96875 -0.00390625 C12.71671875 -0.00197266 12.71671875 -0.00197266 14.5 0 C15.57765625 0.00112793 16.6553125 0.00225586 17.765625 0.00341797 C20.25 0.1328125 20.25 0.1328125 21.25 1.1328125 C21.34887812 3.10478788 21.37632256 5.0803569 21.37698364 7.05480957 C21.37980347 8.34210464 21.38262329 9.62939972 21.38552856 10.95570374 C21.38358396 12.3955995 21.38153578 13.83549514 21.37939453 15.27539062 C21.38074851 16.78128604 21.38252843 18.28718111 21.38470459 19.79307556 C21.38927928 23.89420057 21.38748922 27.99530054 21.3843255 32.09642601 C21.38180209 36.37877853 21.38413939 40.66112884 21.38571167 44.94348145 C21.38753342 52.13631578 21.38512692 59.32913987 21.38037109 66.52197266 C21.37492846 74.84997584 21.37669112 83.17795454 21.3821975 91.50595713 C21.38672848 98.64309096 21.38737925 105.7802174 21.38475883 112.9173522 C21.38319597 117.18579605 21.38300253 121.45422838 21.38629532 125.72267151 C21.38917381 129.73465184 21.38719875 133.74660046 21.38140106 137.75857735 C21.38007334 139.23526011 21.38046778 140.71194552 21.38266373 142.18862724 C21.38537474 144.19602237 21.38138084 146.20342329 21.37698364 148.21081543 C21.37660662 149.33686943 21.37622959 150.46292343 21.37584114 151.62310028 C21.25 154.1328125 21.25 154.1328125 20.25 155.1328125 C18.33541718 155.23253036 16.41717683 155.26361839 14.5 155.265625 C13.3346875 155.26691406 12.169375 155.26820313 10.96875 155.26953125 C9.7415625 155.26566406 8.514375 155.26179687 7.25 155.2578125 C6.0228125 155.26167969 4.795625 155.26554688 3.53125 155.26953125 C2.3659375 155.26824219 1.200625 155.26695312 0 155.265625 C-1.07765625 155.26449707 -2.1553125 155.26336914 -3.265625 155.26220703 C-5.75 155.1328125 -5.75 155.1328125 -6.75 154.1328125 C-6.84887812 152.16083712 -6.87632256 150.1852681 -6.87698364 148.21081543 C-6.87980347 146.92352036 -6.88262329 145.63622528 -6.88552856 144.30992126 C-6.88358396 142.8700255 -6.88153578 141.43012986 -6.87939453 139.99023438 C-6.88074851 138.48433896 -6.88252843 136.97844389 -6.88470459 135.47254944 C-6.88927928 131.37142443 -6.88748922 127.27032446 -6.8843255 123.16919899 C-6.88180209 118.88684647 -6.88413939 114.60449616 -6.88571167 110.32214355 C-6.88753342 103.12930922 -6.88512692 95.93648513 -6.88037109 88.74365234 C-6.87492846 80.41564916 -6.87669112 72.08767046 -6.8821975 63.75966787 C-6.88672848 56.62253404 -6.88737925 49.4854076 -6.88475883 42.3482728 C-6.88319597 38.07982895 -6.88300253 33.81139662 -6.88629532 29.54295349 C-6.88917381 25.53097316 -6.88719875 21.51902454 -6.88140106 17.50704765 C-6.88007334 16.03036489 -6.88046778 14.55367948 -6.88266373 13.07699776 C-6.88537474 11.06960263 -6.88138084 9.06220171 -6.87698364 7.05480957 C-6.87660662 5.92875557 -6.87622959 4.80270157 -6.87584114 3.64252472 C-6.64056812 -1.0496418 -4.11965517 0.00431184 0 0 Z " fill="#FDFDFE" transform="translate(1017.75,124.8671875)"/>
<path d="M0 0 C1.07507812 -0.00128906 2.15015625 -0.00257813 3.2578125 -0.00390625 C4.38960937 -0.00003906 5.52140625 0.00382813 6.6875 0.0078125 C7.81929687 0.00394531 8.95109375 0.00007812 10.1171875 -0.00390625 C11.19226562 -0.00261719 12.26734375 -0.00132812 13.375 0 C14.86580078 0.00169189 14.86580078 0.00169189 16.38671875 0.00341797 C18.6875 0.1328125 18.6875 0.1328125 19.6875 1.1328125 C19.92231693 3.31574024 20.10113323 5.50484424 20.25 7.6953125 C20.37568359 9.49162109 20.37568359 9.49162109 20.50390625 11.32421875 C20.56449219 12.25105469 20.62507813 13.17789063 20.6875 14.1328125 C24.62997796 13.43708109 25.76426347 11.88919027 28.203125 8.7578125 C32.33861652 4.23053758 39.06215239 0.46267976 45.18286133 -0.09423828 C46.0364624 -0.08376465 46.89006348 -0.07329102 47.76953125 -0.0625 C49.02987183 -0.05500732 49.02987183 -0.05500732 50.31567383 -0.04736328 C51.89191528 -0.02005127 51.89191528 -0.02005127 53.5 0.0078125 C56.861875 0.0490625 60.22375 0.0903125 63.6875 0.1328125 C63.6875 7.7228125 63.6875 15.3128125 63.6875 23.1328125 C59.85125 23.225625 59.85125 23.225625 55.9375 23.3203125 C48.04586645 23.66306434 41.7423118 25.47433982 34.6875 29.1328125 C33.94113281 29.47183594 33.19476562 29.81085938 32.42578125 30.16015625 C29.8469851 31.60312308 29.64974768 33.36635042 28.6875 36.1328125 C27.71468083 38.0622372 26.70763586 39.97021508 25.6875 41.875 C23.36816621 47.11162083 22.43705837 52.08620272 22.38452148 57.78662109 C22.36787949 59.06419281 22.35123749 60.34176453 22.33409119 61.65805054 C22.3255338 63.03245 22.31703604 64.40684983 22.30859375 65.78125 C22.29240096 67.20375694 22.27521911 68.62625293 22.25709534 70.04873657 C22.21162992 73.77348792 22.17669823 77.49825415 22.14489746 81.22314453 C22.09279345 87.20583537 22.0280091 93.18836691 21.95668221 99.17085648 C21.93381558 101.26097404 21.91757504 103.35107092 21.90196228 105.44125366 C21.88847244 106.69991241 21.8749826 107.95857117 21.86108398 109.25537109 C21.85157211 110.36899017 21.84206024 111.48260925 21.83226013 112.62997437 C21.6875 115.1328125 21.6875 115.1328125 20.6875 116.1328125 C16.54787717 116.38582489 12.39644004 116.31803799 8.25 116.3203125 C7.07888672 116.33255859 5.90777344 116.34480469 4.70117188 116.35742188 C3.58419922 116.35935547 2.46722656 116.36128906 1.31640625 116.36328125 C0.28588135 116.36739014 -0.74464355 116.37149902 -1.80639648 116.37573242 C-4.3125 116.1328125 -4.3125 116.1328125 -6.3125 114.1328125 C-6.56138897 112.12474728 -6.56138897 112.12474728 -6.55973816 109.6091156 C-6.56393265 108.65701202 -6.56812714 107.70490845 -6.57244873 106.72395325 C-6.56682922 105.67608139 -6.56120972 104.62820953 -6.55541992 103.54858398 C-6.55731827 102.44774475 -6.55921661 101.34690552 -6.56117249 100.21270752 C-6.56488907 96.55970222 -6.55416409 92.906894 -6.54296875 89.25390625 C-6.54177742 86.72567264 -6.54132369 84.19743859 -6.5415802 81.66920471 C-6.54001385 76.36545845 -6.53195369 71.06178111 -6.51831055 65.75805664 C-6.50257654 59.61867378 -6.4973127 53.4793535 -6.4980461 47.33995193 C-6.49865559 41.44208675 -6.49345016 35.54423967 -6.48525429 29.64637947 C-6.48206102 27.13243801 -6.48009869 24.61849469 -6.47936058 22.10455132 C-6.47720446 18.59888391 -6.46847631 15.09329679 -6.45776367 11.58764648 C-6.45821686 10.5377504 -6.45867004 9.48785431 -6.45913696 8.40614319 C-6.45487198 7.45685944 -6.45060699 6.50757568 -6.44621277 5.52952576 C-6.44453692 4.69974433 -6.44286108 3.8699629 -6.44113445 3.01503658 C-6.16967249 -0.9570893 -3.34524645 0.00379649 0 0 Z " fill="#F0006C" transform="translate(1446.3125,163.8671875)"/>
<path d="M0 0 C13.86 0 27.72 0 42 0 C40.25437067 3.49125866 38.41039822 6.43293465 36.1875 9.625 C35.60742188 10.45837891 35.60742188 10.45837891 35.015625 11.30859375 C31.06384387 16.95927143 27.019444 22.54369136 22.95776367 28.11572266 C21.89685103 29.57512443 20.84888573 31.04400293 19.81225586 32.52075195 C18.48502643 34.33646189 17.07725291 36.09402354 15.62719727 37.81323242 C8.26658206 47.07646286 7.72461615 54.72757492 7.9375 66.3125 C7.93441709 67.93946597 7.92728087 69.56642949 7.91601562 71.19335938 C7.89740476 75.1304404 7.93319264 79.06348014 8 83 C0.97098062 83.12683815 -6.0577434 83.21436744 -13.08764648 83.2746582 C-15.47870919 83.29979315 -17.86969514 83.33390633 -20.26049805 83.37719727 C-23.69859764 83.43789061 -27.13568096 83.46622072 -30.57421875 83.48828125 C-31.64210129 83.51408768 -32.70998383 83.5398941 -33.81022644 83.56648254 C-38.54150505 83.56826816 -41.17645414 83.5516675 -45.17700195 80.87182617 C-47.33611285 77.47051085 -47.61923643 75.57082072 -47.59375 71.5625 C-47.59117188 70.33789062 -47.58859375 69.11328125 -47.5859375 67.8515625 C-47.55757813 66.58054687 -47.52921875 65.30953125 -47.5 64 C-47.50257812 62.72898438 -47.50515625 61.45796875 -47.5078125 60.1484375 C-47.3965127 49.57495643 -44.66539007 45.34877403 -37.3203125 38.125 C-36.34564529 37.15457764 -36.34564529 37.15457764 -35.35128784 36.16455078 C-33.28052573 34.10493766 -31.20292163 32.05238723 -29.125 30 C-27.73521578 28.62025617 -26.34588802 27.2400524 -24.95703125 25.859375 C-22.39881483 23.31744807 -19.83798554 20.77821973 -17.27392578 18.2421875 C-14.50636859 15.50431195 -11.75138847 12.75413194 -9 10 C-8.27296875 9.28457031 -7.5459375 8.56914062 -6.796875 7.83203125 C-6.12140625 7.16558594 -5.4459375 6.49914062 -4.75 5.8125 C-4.06421875 5.13832031 -3.3784375 4.46414062 -2.671875 3.76953125 C-0.92550889 2.09201005 -0.92550889 2.09201005 0 0 Z " fill="#C0015C" transform="translate(131,0)"/>
<path d="M0 0 C13.86 0 27.72 0 42 0 C42 0.99 42 1.98 42 3 C42.57234375 3.2475 43.1446875 3.495 43.734375 3.75 C46.35010611 5.19316199 48.14773456 6.88216222 50.25 9 C50.95640625 9.70125 51.6628125 10.4025 52.390625 11.125 C54 13 54 13 54 15 C54.59638275 15.27172028 55.1927655 15.54344055 55.80722046 15.82339478 C57.95935624 16.9781913 59.36421546 18.11089797 61.08447266 19.82568359 C61.94523911 20.67699356 61.94523911 20.67699356 62.82339478 21.54550171 C63.7345253 22.46270493 63.7345253 22.46270493 64.6640625 23.3984375 C65.29734467 24.02980621 65.93062683 24.66117493 66.58309937 25.31167603 C67.91853731 26.64575508 69.25146129 27.98235478 70.58203125 29.32128906 C72.61760808 31.36756922 74.66362105 33.40297313 76.7109375 35.4375 C78.00845424 36.73633839 79.30535043 38.03579707 80.6015625 39.3359375 C81.21303131 39.94335785 81.82450012 40.5507782 82.45449829 41.17660522 C83.30580826 42.03737167 83.30580826 42.03737167 84.17431641 42.91552734 C84.67299225 43.41579437 85.17166809 43.9160614 85.68545532 44.43148804 C90.45772845 50.12575436 89.33016765 56.96120899 89.3125 64 C89.32861328 65.28390625 89.34472656 66.5678125 89.36132812 67.890625 C89.36197266 69.12296875 89.36261719 70.3553125 89.36328125 71.625 C89.36626221 72.75164062 89.36924316 73.87828125 89.37231445 75.0390625 C88.94852519 78.40936819 88.34826848 79.59033497 86 82 C83.66511536 82.48101807 83.66511536 82.48101807 80.88598633 82.45410156 C79.84513382 82.45379944 78.80428131 82.45349731 77.73188782 82.45318604 C76.60993515 82.43254089 75.48798248 82.41189575 74.33203125 82.390625 C73.18208176 82.38496521 72.03213226 82.37930542 70.84733582 82.37347412 C67.1686366 82.35105474 63.49090563 82.3008458 59.8125 82.25 C57.32097759 82.2299423 54.82943994 82.21169026 52.33789062 82.1953125 C46.22492916 82.15117166 40.11253374 82.08420349 34 82 C34.03778564 81.06430176 34.07557129 80.12860352 34.11450195 79.16455078 C35.20981309 54.65065677 35.20981309 54.65065677 23.625 33.8984375 C23.02042969 33.26389648 22.41585938 32.62935547 21.79296875 31.97558594 C18.72839677 28.59888163 16.24906087 24.8256327 13.6875 21.0625 C12.70994694 19.66462315 11.72957134 18.268715 10.74609375 16.875 C10.05362549 15.89273437 10.05362549 15.89273437 9.34716797 14.890625 C6.73144169 11.21969635 4.03520993 7.60785062 1.328125 4.00390625 C0 2 0 2 0 0 Z " fill="#C0015C" transform="translate(285,0)"/>
<path d="M0 0 C9.24 0 18.48 0 28 0 C29.40244139 4.34756831 30.79635124 8.68481178 32.1328125 13.05078125 C33.39538898 17.14490139 34.76049563 21.1882059 36.1796875 25.23046875 C42.87709829 45.21620518 42.64921961 61.90036254 42 83 C23.52 83 5.04 83 -14 83 C-15.50612569 54.84703511 -12.88496388 25.76992777 0 0 Z " fill="#C1025C" transform="translate(215,0)"/>
<path d="M0 0 C27.06 0 54.12 0 82 0 C82.99 4.455 82.99 4.455 84 9 C88.20744512 20.05875779 95.44309229 25.00741567 105.875 29.8125 C107.58315786 30.54207763 109.29147445 31.27128383 111 32 C112.32 32.66 113.64 33.32 115 34 C64.18 34.33 13.36 34.66 -39 35 C-39 34.67 -39 34.34 -39 34 C-37.94425781 33.79697266 -37.94425781 33.79697266 -36.8671875 33.58984375 C-26.21453302 31.26739819 -12.76243891 26.82652079 -6.26953125 17.51953125 C-5.78871094 16.62621094 -5.30789062 15.73289062 -4.8125 14.8125 C-4.07966797 13.49185547 -4.07966797 13.49185547 -3.33203125 12.14453125 C-1.52412257 8.14073415 -1.52412257 8.14073415 0 0 Z " fill="#B7CDC7" transform="translate(188,338)"/>
<path d="M0 0 C1.98223229 0.06528067 3.964671 0.1245839 5.94726562 0.17773438 C10.78247566 0.32031912 15.60770527 0.54412514 20.4375 0.8125 C17.96429979 10.99606555 15.29250124 21.09753041 12.34545898 31.15429688 C11.73621395 33.23457265 11.13248841 35.31639924 10.52929688 37.3984375 C7.57814748 47.53120504 7.57814748 47.53120504 6.4375 49.8125 C-13.6925 49.8125 -33.8225 49.8125 -54.5625 49.8125 C-54.5625 61.0325 -54.5625 72.2525 -54.5625 83.8125 C-54.8925 83.8125 -55.2225 83.8125 -55.5625 83.8125 C-57.87950983 48.00281602 -57.87950983 48.00281602 -48.75170898 37.35668945 C-47.62438343 36.12541337 -46.47900038 34.91043348 -45.31640625 33.71240234 C-42.13992733 30.27151162 -39.56017912 26.38981329 -36.875 22.5625 C-35.34893368 20.45924379 -33.81936517 18.36412699 -32.24633789 16.2956543 C-30.4250909 13.74120569 -30.4250909 13.74120569 -28.92358398 10.40161133 C-22.51126764 -2.23204955 -12.88379048 -0.73734792 0 0 Z " fill="#B9CCC6" transform="translate(194.5625,-0.8125)"/>
<path d="M0 0 C36.27116595 -2.9969151 36.27116595 -2.9969151 45.07177734 1.60693359 C49.47415954 5.75017891 51.68524941 10.87426358 53.86767578 16.43017578 C55.7027546 20.59491051 58.47077445 23.91717281 61.3125 27.4375 C62.29850106 28.72494851 63.27915167 30.01651572 64.25390625 31.3125 C64.71555176 31.92609375 65.17719727 32.5396875 65.65283203 33.171875 C75 45.85610729 75 45.85610729 75 48 C54.87 48 34.74 48 14 48 C10.62427667 38.99807112 10.62427667 38.99807112 9.6496582 35.63525391 C9.42965652 34.88152496 9.20965485 34.12779602 8.98298645 33.35122681 C8.75785873 32.56758759 8.53273102 31.78394836 8.30078125 30.9765625 C8.0608696 30.14917572 7.82095795 29.32178894 7.57377625 28.46932983 C7.07230679 26.7369957 6.57239119 25.00421105 6.07397461 23.27099609 C5.30828592 20.61035678 4.53631264 17.95159651 3.76367188 15.29296875 C3.27566882 13.60427437 2.78802555 11.91547596 2.30078125 10.2265625 C2.06958084 9.43077789 1.83838043 8.63499329 1.60017395 7.81509399 C0 2.23038626 0 2.23038626 0 0 Z " fill="#B8CDC6" transform="translate(243,0)"/>
<path d="M0 0 C20.46 0 40.92 0 62 0 C62 11.22 62 22.44 62 34 C78.5 34 95 34 112 34 C112 34.33 112 34.66 112 35 C75.04 35 38.08 35 0 35 C0 23.45 0 11.9 0 0 Z " fill="#D7E2DE" transform="translate(257,48)"/>
<path d="M0 0 C20.13 0 40.26 0 61 0 C61 11.22 61 22.44 61 34 C40.87 34 20.74 34 0 34 C0 22.78 0 11.56 0 0 Z " fill="#D7E6E0" transform="translate(140,49)"/>
<path d="M0 0 C18.48 0 36.96 0 56 0 C56 11.88 56 23.76 56 36 C37.52 36 19.04 36 0 36 C0 24.12 0 12.24 0 0 Z " fill="#F1066F" transform="translate(201,47)"/>
<path d="M0 0 C1.40564713 0.00666183 1.40564713 0.00666183 2.83969116 0.01345825 C3.90063995 0.01360931 4.96158875 0.01376038 6.0546875 0.01391602 C7.20367523 0.02423859 8.35266296 0.03456116 9.53646851 0.04519653 C10.71002899 0.04802643 11.88358948 0.05085632 13.0927124 0.05377197 C16.85271262 0.06499548 20.61247739 0.09010411 24.37240601 0.11550903 C26.91667341 0.12553602 29.46094453 0.13466236 32.00521851 0.14285278 C38.25277873 0.16324299 44.49982783 0.20238822 50.74740601 0.24050903 C50.74740601 11.79050903 50.74740601 23.34050903 50.74740601 35.24050903 C43.71716868 35.3553405 36.69018775 35.45487197 29.65975952 35.51516724 C27.26869681 35.54030218 24.87771087 35.57441537 22.48690796 35.6177063 C19.04880836 35.67839965 15.61172504 35.70672975 12.17318726 35.72879028 C11.10530472 35.75459671 10.03742218 35.78040314 8.93717957 35.80699158 C4.20961668 35.80877579 1.56975684 35.78929023 -2.43179321 33.118927 C-4.60754361 29.67938595 -4.85923235 27.74738434 -4.81118774 23.69754028 C-4.8040979 22.45939575 -4.79700806 21.22125122 -4.78970337 19.94558716 C-4.75683228 18.66103638 -4.72396118 17.3764856 -4.69009399 16.05300903 C-4.68429321 14.75685669 -4.67849243 13.46070435 -4.67251587 12.12527466 C-4.52052345 0.48265543 -4.52052345 0.48265543 0 0 Z " fill="#F0036D" transform="translate(88.25259399414063,47.759490966796875)"/>
<path d="M0 0 C17.82 0 35.64 0 54 0 C56.27901824 4.55803648 55.2301617 10.87078906 55.25 15.875 C55.270625 17.16792969 55.29125 18.46085937 55.3125 19.79296875 C55.32023437 21.65501953 55.32023437 21.65501953 55.328125 23.5546875 C55.34214355 25.26374268 55.34214355 25.26374268 55.35644531 27.00732422 C54.9514722 30.40743405 54.36744825 31.57460714 52 34 C49.66511536 34.48101807 49.66511536 34.48101807 46.88598633 34.45410156 C45.84513382 34.45379944 44.80428131 34.45349731 43.73188782 34.45318604 C42.60993515 34.43254089 41.48798248 34.41189575 40.33203125 34.390625 C39.18208176 34.38496521 38.03213226 34.37930542 36.84733582 34.37347412 C33.1686366 34.35105474 29.49090563 34.3008458 25.8125 34.25 C23.32097759 34.2299423 20.82943994 34.21169026 18.33789062 34.1953125 C12.22458584 34.15457072 6.11337869 34.07628479 0 34 C0 22.78 0 11.56 0 0 Z " fill="#F0006C" transform="translate(319,48)"/>
<path d="M0 0 C0.99 0 1.98 0 3 0 C2.67 0.99 2.34 1.98 2 3 C1.90025663 4.43383808 1.85391764 5.87175381 1.84178162 7.30900574 C1.8319928 8.18820175 1.82220398 9.06739777 1.81211853 9.97323608 C1.80636307 10.93492706 1.8006076 11.89661804 1.79467773 12.88745117 C1.78477814 13.90226059 1.77487854 14.91707001 1.76467896 15.96263123 C1.73304791 19.32271986 1.70830009 22.68282264 1.68359375 26.04296875 C1.66302562 28.37039053 1.64202918 30.69780857 1.62062073 33.02522278 C1.56538558 39.15559863 1.51598262 45.28600828 1.46777344 51.41644287 C1.41756899 57.67023735 1.3618774 63.92398267 1.30664062 70.17773438 C1.19904138 82.45178093 1.09760029 94.72587015 1 107 C0.67 107 0.34 107 0 107 C0 71.69 0 36.38 0 0 Z " fill="#E30773" transform="translate(1112,172)"/>
</svg>
