<?xml version="1.0" encoding="UTF-8"?>
<svg version="1.1" xmlns="http://www.w3.org/2000/svg" width="1640" height="400">
<path d="M0 0 C7.23631351 4.11476651 11.62174388 12.48762886 16.1953125 19.2421875 C17.30519531 20.82386719 17.30519531 20.82386719 18.4375 22.4375 C19.09621094 23.40558594 19.75492188 24.37367187 20.43359375 25.37109375 C26.92550215 32.02110038 37.29410335 33.73412296 46.00390625 36.09179688 C52.56322055 38.0341181 56.7608289 40.56944416 61 46 C62.90580955 49.8116191 62.67579591 53.86322112 62 58 C60.210087 61.57699721 57.84278928 64.54113095 55.3125 67.625 C52.85908709 70.73787817 50.42548531 73.86533656 48 77 C47.48099121 77.6300293 46.96198242 78.26005859 46.42724609 78.90917969 C43.23073053 83.21404615 42.76236678 86.39459341 42.87231445 91.76416016 C42.89074905 92.93258453 42.90918365 94.10100891 42.92817688 95.30484009 C42.95187851 96.19424286 42.97558014 97.08364563 43 98 C43.54315322 98.00238835 44.08630644 98.00477671 44.64591885 98.00723743 C57.89303617 98.06650427 71.13997115 98.14231486 84.38689327 98.23571491 C90.79315361 98.28038811 97.1993508 98.31965122 103.60571289 98.34643555 C109.79148341 98.37249857 115.97701053 98.41292285 122.16263008 98.46318626 C124.5192111 98.47983458 126.87583421 98.49136149 129.23246574 98.49761391 C132.54057029 98.50727685 135.84805493 98.53536359 139.15600586 98.56762695 C140.1241774 98.56619186 141.09234894 98.56475677 142.08985901 98.5632782 C148.97673302 98.65788751 155.50084038 99.56684942 161.26953125 103.578125 C167.51489218 110.34525026 171.11448735 116.29198735 171.14717102 125.7228241 C171.15084771 126.40986319 171.1545244 127.09690229 171.1583125 127.80476075 C171.1693459 130.11227968 171.1731926 132.41975357 171.17700195 134.72729492 C171.18326692 136.3797622 171.18991375 138.03222806 171.19691467 139.68469238 C171.21795534 145.11660786 171.22831775 150.54852362 171.23828125 155.98046875 C171.24232894 157.85094022 171.24644587 159.72141154 171.25063133 161.59188271 C171.26968381 170.38047234 171.28391415 179.16905358 171.2922433 187.9576599 C171.30201331 198.09898925 171.32832641 208.2401002 171.36874419 218.3813526 C171.39891858 226.22181482 171.41371348 234.06221448 171.41702431 241.90273362 C171.4193735 246.58450242 171.42831663 251.26603791 171.45348549 255.94774437 C171.47679406 260.35466808 171.4809883 264.76120533 171.47072411 269.16817474 C171.47022929 270.78222503 171.47653365 272.39629451 171.49028015 274.01028633 C171.56675853 283.52505934 171.3045693 290.44730216 165.2890625 298.20703125 C164.73992187 298.73683594 164.19078125 299.26664062 163.625 299.8125 C162.80902344 300.62654297 162.80902344 300.62654297 161.9765625 301.45703125 C155.34214105 306.63607567 149.32312999 306.42765641 141.21510315 306.38768005 C139.91226236 306.39306559 138.60942157 306.39845113 137.26710075 306.40399987 C133.65699719 306.41845441 130.04712193 306.41420981 126.43700588 306.40683305 C122.54121372 306.40210369 118.64547111 306.41460915 114.74969482 306.42485046 C107.12002625 306.44204825 99.49043999 306.44287647 91.86075706 306.43763756 C85.65957821 306.43359653 79.4584237 306.43503862 73.25724602 306.44038582 C72.37473978 306.44113424 71.49223355 306.44188266 70.5829847 306.44265376 C68.79019101 306.44418524 66.99739734 306.44572358 65.20460366 306.44726873 C48.39148633 306.46099726 31.57841553 306.45555356 14.76529925 306.44408352 C-0.61673632 306.43415026 -15.99865161 306.44709277 -31.38066863 306.47101771 C-47.17508824 306.49539902 -62.9694518 306.505019 -78.76388985 306.49836498 C-87.63122274 306.49487067 -96.49846311 306.49711883 -105.36578178 306.51461601 C-112.91415244 306.52932587 -120.46236542 306.52998939 -128.01073294 306.5125451 C-131.86177234 306.50402272 -135.71252994 306.5019155 -139.56355476 306.51719666 C-143.73863895 306.53355859 -147.91304102 306.51891974 -152.08811951 306.50120544 C-153.3048494 306.51081045 -154.5215793 306.52041546 -155.7751798 306.53031152 C-164.35823413 306.45519688 -169.54784317 304.87488979 -175.75 298.6875 C-176.30171875 298.15511719 -176.8534375 297.62273437 -177.421875 297.07421875 C-181.33494372 291.9310517 -182.37517214 287.12461062 -182.38768005 280.75819397 C-182.39306559 280.06365362 -182.39845113 279.36911327 -182.40399987 278.65352625 C-182.4182179 276.34443532 -182.41119134 274.03592268 -182.40405273 271.72680664 C-182.40975954 270.06389406 -182.416725 268.4009854 -182.42485046 266.73808289 C-182.44276257 262.23391496 -182.44161718 257.72994207 -182.43590808 253.22574925 C-182.43281346 249.46086557 -182.43891171 245.6960192 -182.44494683 241.93114084 C-182.458984 233.04724254 -182.45743744 224.16344042 -182.44604492 215.27954102 C-182.43456376 206.12438756 -182.44864116 196.96952704 -182.4754414 187.81441218 C-182.49761511 179.9441265 -182.50423203 172.07393267 -182.49836498 164.20361799 C-182.49499829 159.50740412 -182.49739137 154.81137802 -182.51461601 150.11519051 C-182.5301098 145.698328 -182.52610275 141.28189872 -182.50731087 136.86505318 C-182.50363174 135.2477883 -182.50671372 133.63049116 -182.51719666 132.01325607 C-182.58021573 121.48407467 -182.07852225 113.6040984 -174.375 105.6875 C-173.78460938 105.05199219 -173.19421875 104.41648437 -172.5859375 103.76171875 C-165.5920348 98.99699048 -157.35273662 98.5552799 -149.13427734 98.56762695 C-148.0989386 98.5574353 -147.06359985 98.54724365 -145.99688721 98.53674316 C-142.6098476 98.50679757 -139.22309167 98.49737538 -135.8359375 98.48828125 C-133.47367425 98.47142092 -131.1114199 98.45326887 -128.74917603 98.43388367 C-122.55807272 98.38652486 -116.36700551 98.35662414 -110.17578125 98.33044434 C-103.84758378 98.3005675 -97.51951047 98.25406168 -91.19140625 98.20898438 C-78.79433597 98.12311188 -66.39724003 98.05569526 -54 98 C-53.95617426 95.90179722 -53.92476216 93.80333236 -53.89868164 91.70483398 C-53.87987442 90.53629379 -53.8610672 89.3677536 -53.84169006 88.1638031 C-54.0508981 83.98280829 -55.26359572 82.13181245 -58 79 C-58.98262547 77.63264648 -59.95165134 76.25546249 -60.91015625 74.87109375 C-62.49314397 72.6422312 -64.07848858 70.41508482 -65.66601562 68.18945312 C-74.10497782 56.2986695 -74.10497782 56.2986695 -74 50 C-71.32405674 43.59723697 -67.91435937 40.56313367 -61.62207031 37.94946289 C-57.86188636 36.58788418 -54.03113611 35.54260666 -50.18164062 34.46557617 C-37.59092434 30.82022085 -31.49673224 27.42297343 -25 16 C-12.44106657 -2.21962057 -12.44106657 -2.21962057 0 0 Z " fill="#57B3FD" transform="translate(245,47)"/>
<path d="M0 0 C7.23631351 4.11476651 11.62174388 12.48762886 16.1953125 19.2421875 C17.30519531 20.82386719 17.30519531 20.82386719 18.4375 22.4375 C19.09621094 23.40558594 19.75492188 24.37367187 20.43359375 25.37109375 C26.92550215 32.02110038 37.29410335 33.73412296 46.00390625 36.09179688 C52.56322055 38.0341181 56.7608289 40.56944416 61 46 C62.90580955 49.8116191 62.67579591 53.86322112 62 58 C60.210087 61.57699721 57.84278928 64.54113095 55.3125 67.625 C52.85908709 70.73787817 50.42548531 73.86533656 48 77 C47.48099121 77.6300293 46.96198242 78.26005859 46.42724609 78.90917969 C43.23073053 83.21404615 42.76236678 86.39459341 42.87231445 91.76416016 C42.89074905 92.93258453 42.90918365 94.10100891 42.92817688 95.30484009 C42.95187851 96.19424286 42.97558014 97.08364563 43 98 C43.54315322 98.00238835 44.08630644 98.00477671 44.64591885 98.00723743 C57.89303617 98.06650427 71.13997115 98.14231486 84.38689327 98.23571491 C90.79315361 98.28038811 97.1993508 98.31965122 103.60571289 98.34643555 C109.79148341 98.37249857 115.97701053 98.41292285 122.16263008 98.46318626 C124.5192111 98.47983458 126.87583421 98.49136149 129.23246574 98.49761391 C132.54057029 98.50727685 135.84805493 98.53536359 139.15600586 98.56762695 C140.1241774 98.56619186 141.09234894 98.56475677 142.08985901 98.5632782 C148.97673302 98.65788751 155.50084038 99.56684942 161.26953125 103.578125 C182.85837108 126.97058942 171 151.79382227 171 188 C54.51 188 -61.98 188 -182 188 C-182 113.52340426 -182 113.52340426 -174.375 105.6875 C-173.78460938 105.05199219 -173.19421875 104.41648437 -172.5859375 103.76171875 C-165.5920348 98.99699048 -157.35273662 98.5552799 -149.13427734 98.56762695 C-148.0989386 98.5574353 -147.06359985 98.54724365 -145.99688721 98.53674316 C-142.6098476 98.50679757 -139.22309167 98.49737538 -135.8359375 98.48828125 C-133.47367425 98.47142092 -131.1114199 98.45326887 -128.74917603 98.43388367 C-122.55807272 98.38652486 -116.36700551 98.35662414 -110.17578125 98.33044434 C-103.84758378 98.3005675 -97.51951047 98.25406168 -91.19140625 98.20898438 C-78.79433597 98.12311188 -66.39724003 98.05569526 -54 98 C-53.95617426 95.90179722 -53.92476216 93.80333236 -53.89868164 91.70483398 C-53.87987442 90.53629379 -53.8610672 89.3677536 -53.84169006 88.1638031 C-54.0508981 83.98280829 -55.26359572 82.13181245 -58 79 C-58.98262547 77.63264648 -59.95165134 76.25546249 -60.91015625 74.87109375 C-62.49314397 72.6422312 -64.07848858 70.41508482 -65.66601562 68.18945312 C-74.10497782 56.2986695 -74.10497782 56.2986695 -74 50 C-71.32405674 43.59723697 -67.91435937 40.56313367 -61.62207031 37.94946289 C-57.86188636 36.58788418 -54.03113611 35.54260666 -50.18164062 34.46557617 C-37.59092434 30.82022085 -31.49673224 27.42297343 -25 16 C-12.44106657 -2.21962057 -12.44106657 -2.21962057 0 0 Z " fill="#57B2FC" transform="translate(245,47)"/>
<path d="M0 0 C116.49 0 232.98 0 353 0 C353 15.84 353 31.68 353 48 C236.51 48 120.02 48 0 48 C0 32.16 0 16.32 0 0 Z " fill="#485B77" transform="translate(63,187)"/>
<path d="M0 0 C0.73683014 -0.00817749 1.47366028 -0.01635498 2.2328186 -0.02478027 C4.68759347 -0.04971526 7.14230947 -0.06618567 9.59716797 -0.08056641 C10.4380685 -0.08589008 11.27896904 -0.09121376 12.14535141 -0.09669876 C16.61056355 -0.12348657 21.07574741 -0.14282885 25.54101562 -0.15722656 C29.21510208 -0.170477 32.88862135 -0.19815378 36.5625 -0.23925781 C41.01172681 -0.28903514 45.46044552 -0.31340466 49.90993881 -0.32045364 C51.59457817 -0.32710268 53.27920908 -0.34215546 54.9636879 -0.36634445 C69.41487839 -0.56173699 82.60279576 1.07287357 93.88232422 11.09912109 C101.79064462 19.05195361 106.9161989 29.3037164 107.27685547 40.69287109 C107.0982968 51.73104314 102.55914853 60.37557433 94.96435547 68.19287109 C94.22185547 68.71751953 93.47935547 69.24216797 92.71435547 69.78271484 C92.13685547 70.24806641 91.55935547 70.71341797 90.96435547 71.19287109 C90.96435547 72.18287109 90.96435547 73.17287109 90.96435547 74.19287109 C92.46575165 75.42153254 92.46575165 75.42153254 94.46435547 76.44287109 C104.18601368 82.21403215 111.50393803 89.63125033 114.83935547 100.63037109 C117.21634459 110.81746732 116.46473518 121.16967335 111.74560547 130.63818359 C103.83621071 143.24927412 93.27308016 150.68675975 78.96435547 154.19287109 C78.25543152 154.36712616 77.54650757 154.54138123 76.81610107 154.72091675 C73.19441737 155.32029327 69.63613385 155.33230385 65.97705078 155.32226562 C64.7933062 155.3248941 64.7933062 155.3248941 63.58564758 155.32757568 C60.98790259 155.33196267 58.39022611 155.32906846 55.79248047 155.32568359 C53.98598213 155.32635727 52.17948387 155.32732783 50.37298584 155.32858276 C46.5937005 155.33005523 42.81443884 155.32791865 39.03515625 155.32324219 C34.1803157 155.31752881 29.32553024 155.32083689 24.47069168 155.32681465 C20.74421774 155.33041851 17.01775698 155.32928278 13.29128265 155.32668686 C11.50023136 155.32601795 9.70917888 155.32684477 7.91812897 155.32916641 C5.42341406 155.33169182 2.92879012 155.32785471 0.43408203 155.32226562 C-0.31187729 155.32428986 -1.05783661 155.32631409 -1.82640076 155.32839966 C-6.92137842 155.3071372 -6.92137842 155.3071372 -8.03564453 154.19287109 C-8.13452265 152.22089571 -8.16196709 150.2453267 -8.16262817 148.27087402 C-8.165448 146.98357895 -8.16826782 145.69628387 -8.1711731 144.36997986 C-8.1692285 142.93008409 -8.16718031 141.49018846 -8.16503906 140.05029297 C-8.16639305 138.54439756 -8.16817296 137.03850248 -8.17034912 135.53260803 C-8.17492382 131.43148302 -8.17313375 127.33038305 -8.16997004 123.22925758 C-8.16744662 118.94690506 -8.16978392 114.66455475 -8.1713562 110.38220215 C-8.17317795 103.18936781 -8.17077145 95.99654372 -8.16601562 88.80371094 C-8.16057299 80.47570776 -8.16233565 72.14772905 -8.16784203 63.81972647 C-8.17237301 56.68259264 -8.17302379 49.5454662 -8.17040336 42.40833139 C-8.1688405 38.13988754 -8.16864706 33.87145521 -8.17193985 29.60301208 C-8.17481834 25.59103176 -8.17284328 21.57908313 -8.16704559 17.56710625 C-8.16571788 16.09042349 -8.16611231 14.61373808 -8.16830826 13.13705635 C-8.17101927 11.12966123 -8.16702537 9.1222603 -8.16262817 7.11486816 C-8.16225115 5.98881416 -8.16187412 4.86276016 -8.16148567 3.70258331 C-7.90890961 -1.33466625 -4.07811655 0.02474032 0 0 Z M19.96435547 25.19287109 C19.86328673 28.06551166 19.82465875 30.91360738 19.83154297 33.78662109 C19.83058624 34.64848022 19.82962952 35.51033936 19.8286438 36.39831543 C19.82796197 38.22420321 19.82981642 40.05009341 19.83398438 41.87597656 C19.83933261 44.68088188 19.83403948 47.48562705 19.82763672 50.29052734 C19.8282975 52.06005895 19.82957866 53.82959045 19.83154297 55.59912109 C19.82951874 56.44390015 19.82749451 57.2886792 19.82540894 58.15905762 C19.46511036 61.9847397 19.46511036 61.9847397 20.96435547 65.19287109 C26.78468431 65.48748632 32.60774376 65.50717534 38.43481445 65.54296875 C40.39684995 65.55943609 42.35882779 65.5866023 44.32055664 65.625 C59.53579601 66.38721283 59.53579601 66.38721283 72.96435547 60.19287109 C78.20792172 54.50875932 78.43935245 48.19757889 78.36279297 40.78662109 C77.77542855 35.48882442 76.0415578 31.66685097 71.96435547 28.19287109 C65.61529018 24.57660841 60.15922234 23.62152085 52.93310547 23.76708984 C51.55741394 23.77202202 51.55741394 23.77202202 50.15393066 23.77705383 C48.23454584 23.78740161 46.31519038 23.80722549 44.39599609 23.83618164 C41.44465111 23.8806681 38.49412091 23.89768732 35.54248047 23.90966797 C33.67267692 23.92307656 31.80288345 23.93799522 29.93310547 23.95458984 C29.04780151 23.96197678 28.16249756 23.96936371 27.25036621 23.97697449 C23.28933817 23.64944041 23.28933817 23.64944041 19.96435547 25.19287109 Z M52.44482422 85.27880859 C51.54564774 85.30004791 50.64647125 85.32128723 49.720047 85.34317017 C47.82981486 85.38924158 45.93965003 85.43815276 44.04956055 85.48974609 C41.14434581 85.56807356 38.23902103 85.63498878 35.33349609 85.70068359 C33.4955883 85.74688063 31.65769683 85.79373236 29.81982422 85.84130859 C28.51056221 85.87108292 28.51056221 85.87108292 27.17485046 85.90145874 C23.2519739 85.63590951 23.2519739 85.63590951 19.96435547 87.19287109 C19.86650206 88.53831436 19.83637562 89.88879672 19.83496094 91.23779297 C19.83180878 92.09538208 19.82865662 92.95297119 19.82540894 93.83654785 C19.82743317 94.76882202 19.8294574 95.70109619 19.83154297 96.66162109 C19.83058624 97.6122644 19.82962952 98.56290771 19.8286438 99.5423584 C19.8279619 101.55655992 19.82981685 103.57076362 19.83398438 105.58496094 C19.83933249 108.67957464 19.8340397 111.77404319 19.82763672 114.86865234 C19.8282975 116.82047558 19.82957866 118.77229873 19.83154297 120.72412109 C19.82951874 121.65639526 19.82749451 122.58866943 19.82540894 123.54919434 C19.8285611 124.40678345 19.83171326 125.26437256 19.83496094 126.14794922 C19.83575653 126.90660278 19.83655212 127.66525635 19.83737183 128.44689941 C19.77514459 130.22164421 19.77514459 130.22164421 20.96435547 131.19287109 C22.38412599 131.30659942 23.80943147 131.35240382 25.23364258 131.36987305 C26.14226547 131.38270828 27.05088837 131.39554352 27.98704529 131.4087677 C28.97858109 131.41615463 29.97011688 131.42354156 30.99169922 131.43115234 C32.00978165 131.43922409 33.02786407 131.44729584 34.07679749 131.45561218 C36.2415292 131.46947945 38.40628302 131.48018971 40.57104492 131.48803711 C43.85688069 131.50513704 47.14168068 131.54898586 50.42724609 131.59326172 C52.53205641 131.6033983 54.63687529 131.61191137 56.74169922 131.61865234 C57.71501694 131.63616043 58.68833466 131.65366852 59.69114685 131.67170715 C67.66468279 131.64681141 74.42885061 129.88292914 80.83935547 125.00537109 C85.08117174 119.3912025 87.72229663 113.66485119 87.34716797 106.52490234 C86.36648025 100.55071289 84.36913143 95.72832389 80.27685547 91.25537109 C71.5987136 85.85199974 62.45427603 85.00153911 52.44482422 85.27880859 Z " fill="#155BCC" transform="translate(862.03564453125,124.80712890625)"/>
<path d="M0 0 C7.23631351 4.11476651 11.62174388 12.48762886 16.1953125 19.2421875 C16.93523437 20.29664062 17.67515625 21.35109375 18.4375 22.4375 C19.09621094 23.40558594 19.75492187 24.37367187 20.43359375 25.37109375 C26.92550215 32.02110038 37.29410335 33.73412296 46.00390625 36.09179688 C52.56322055 38.0341181 56.7608289 40.56944416 61 46 C62.90580955 49.8116191 62.67579591 53.86322112 62 58 C60.210087 61.57699721 57.84278928 64.54113095 55.3125 67.625 C53.43756539 70.00390776 51.57095728 72.38785118 49.72338867 74.78808594 C48.66939565 76.14085216 47.58233175 77.46959032 46.44262695 78.75097656 C40.780517 85.93513742 42.44974356 96.21270086 42.60522461 104.88232422 C42.832926 120.97433071 42.832926 120.97433071 37.53076172 126.71875 C33.94232818 129.72227459 30.77810687 130.26369493 26.16040039 130.22753906 C21.58739099 129.74589766 17.27476359 128.08719455 12.9375 126.625 C11.97005859 126.30789062 11.00261719 125.99078125 10.00585938 125.6640625 C6.1840836 124.40844828 2.3869445 123.14796256 -1.37109375 121.7109375 C-4.4716682 120.87244634 -5.92959411 121.10200832 -9 122 C-9.61182129 122.16854492 -10.22364258 122.33708984 -10.85400391 122.51074219 C-13.01369485 123.11034528 -15.16302586 123.7397992 -17.3125 124.375 C-18.3943457 124.68824219 -18.3943457 124.68824219 -19.49804688 125.0078125 C-23.14016921 126.0792171 -26.69164178 127.24192209 -30.2265625 128.62890625 C-34.88676384 130.40728458 -39.0616771 131.00372417 -44 130 C-48.21833182 127.59951283 -51.22851155 124.5341558 -53 120 C-53.18908177 117.35538601 -53.27706773 114.80793436 -53.2734375 112.1640625 C-53.29372827 110.60936782 -53.31457909 109.05468038 -53.3359375 107.5 C-53.35851053 105.06211227 -53.37500118 102.62451081 -53.38085938 100.18652344 C-53.39041896 97.82435032 -53.42423431 95.46344858 -53.4609375 93.1015625 C-53.45589203 92.37949615 -53.45084656 91.65742981 -53.44564819 90.91348267 C-53.5446994 85.78019331 -54.87255268 83.00607554 -58 79 C-58.49765869 78.28642334 -58.99531738 77.57284668 -59.50805664 76.83764648 C-59.97074951 76.18868408 -60.43344238 75.53972168 -60.91015625 74.87109375 C-61.42513672 74.14599609 -61.94011719 73.42089844 -62.47070312 72.67382812 C-63.53506019 71.1785044 -64.60016904 69.68371551 -65.66601562 68.18945312 C-74.10497782 56.2986695 -74.10497782 56.2986695 -74 50 C-71.32405674 43.59723697 -67.91435937 40.56313367 -61.62207031 37.94946289 C-57.86188636 36.58788418 -54.03113611 35.54260666 -50.18164062 34.46557617 C-37.59092434 30.82022085 -31.49673224 27.42297343 -25 16 C-12.44106657 -2.21962057 -12.44106657 -2.21962057 0 0 Z " fill="#FEB235" transform="translate(245,47)"/>
<path d="M0 0 C1.00571045 0.00161133 2.0114209 0.00322266 3.04760742 0.00488281 C11.87228438 0.1484307 19.56761798 1.57858855 27.9375 4.375 C28.87722656 4.67535156 29.81695313 4.97570312 30.78515625 5.28515625 C46.81307007 11.00764171 61.97832647 25.51749191 69.8125 40.4375 C72.92484269 47.22413614 75.42657236 52.92963822 73.9375 60.375 C65.0275 60.375 56.1175 60.375 46.9375 60.375 C45.1740625 56.6625 45.1740625 56.6625 43.375 52.875 C37.50370899 41.04331501 31.37523693 34.66348657 18.9375 29.375 C3.64061366 24.38803821 -10.44713067 26.00812504 -25.0625 32.375 C-27.86352914 33.87555133 -30.46801386 35.54394886 -33.0625 37.375 C-33.908125 37.931875 -34.75375 38.48875 -35.625 39.0625 C-42.21210615 45.31180584 -46.13834504 52.88313585 -49.0625 61.375 C-49.454375 62.426875 -49.84625 63.47875 -50.25 64.5625 C-54.95370286 80.84454835 -51.7315201 97.67020892 -43.87109375 112.3125 C-37.25990585 123.50725445 -26.60025952 130.14048222 -14.0625 133.375 C1.12221555 136.65554817 15.58509492 135.50153705 29.13671875 127.3671875 C38.66274271 120.59135455 42.41895099 111.82414458 46.9375 101.375 C56.1775 101.375 65.4175 101.375 74.9375 101.375 C72.55118131 120.46554954 62.70598432 134.16811072 48.3125 146.5625 C30.91425581 159.84010741 8.95918446 162.95557696 -12.25 160.75 C-30.09077907 158.1546476 -44.14187457 149.75726604 -57.0625 137.375 C-57.7740625 136.72660156 -58.485625 136.07820312 -59.21875 135.41015625 C-73.37255503 122.10013575 -80.76808948 102.68017799 -81.46533203 83.48828125 C-81.74315069 64.04880081 -75.90845746 45.24754616 -63.0625 30.375 C-62.50433594 29.67503906 -61.94617188 28.97507813 -61.37109375 28.25390625 C-46.26252239 10.05422843 -23.51228771 -0.03951977 0 0 Z " fill="#155BCC" transform="translate(572.0625,121.625)"/>
<path d="M0 0 C0.70102844 -0.0065712 1.40205688 -0.0131424 2.12432861 -0.01991272 C4.45886335 -0.03971526 6.79333309 -0.05133275 9.12792969 -0.0612793 C9.92719627 -0.06535482 10.72646286 -0.06943035 11.54994965 -0.07362938 C15.79241174 -0.09453435 20.03484121 -0.10880845 24.27734375 -0.11816406 C28.63136533 -0.12914889 32.98486449 -0.16344228 37.33870316 -0.20333576 C40.70710088 -0.22969356 44.07537881 -0.23787344 47.44387054 -0.24144554 C49.04640929 -0.24627395 50.64894406 -0.257779 52.25138092 -0.27648354 C68.48116855 -0.45392166 82.50032739 2.61830813 94.65673828 14.11865234 C104.81878105 24.12558846 110.29334763 35.00646018 110.54125977 49.4074707 C110.60070926 65.63208767 107.16532907 78.83263991 95.74902344 90.8527832 C84.11017597 101.89762251 71.53166804 105.21885749 55.87011719 105.4934082 C54.87978485 105.5141893 53.88945251 105.5349704 52.86911011 105.55638123 C49.72107551 105.62150516 46.57296102 105.68058824 43.42480469 105.73950195 C41.28417159 105.78272254 39.14354643 105.82633794 37.00292969 105.87036133 C31.76863793 105.97714823 26.53426757 106.07898207 21.29980469 106.17700195 C21.29171783 106.76138031 21.28363098 107.34575867 21.27529907 107.94784546 C21.18942905 114.0146917 21.08993394 120.08120455 20.98242188 126.14770508 C20.94407198 128.41359877 20.90922986 130.6795546 20.87792969 132.94555664 C20.83240942 136.19741062 20.77439393 139.44883455 20.71386719 142.70043945 C20.69654037 144.22705704 20.69654037 144.22705704 20.67886353 145.78451538 C20.65899384 146.72533966 20.63912415 147.66616394 20.61865234 148.63549805 C20.60532867 149.46600677 20.592005 150.2965155 20.57827759 151.15219116 C20.29980469 153.17700195 20.29980469 153.17700195 18.29980469 155.17700195 C15.79370117 155.41992188 15.79370117 155.41992188 12.67089844 155.4074707 C11.55392578 155.40553711 10.43695312 155.40360352 9.28613281 155.40161133 C8.11501953 155.38936523 6.94390625 155.37711914 5.73730469 155.36450195 C4.56232422 155.36385742 3.38734375 155.36321289 2.17675781 155.36254883 C-6.56007391 155.31712336 -6.56007391 155.31712336 -7.70019531 154.17700195 C-7.79907343 152.20502657 -7.82651787 150.22945756 -7.82717896 148.25500488 C-7.82999878 146.96770981 -7.8328186 145.68041473 -7.83572388 144.35411072 C-7.83377928 142.91421495 -7.83173109 141.47431932 -7.82958984 140.03442383 C-7.83094383 138.52852842 -7.83272374 137.02263334 -7.8348999 135.51673889 C-7.8394746 131.41561388 -7.83768453 127.31451391 -7.83452082 123.21338844 C-7.8319974 118.93103592 -7.8343347 114.64868561 -7.83590698 110.36633301 C-7.83772873 103.17349867 -7.83532223 95.98067458 -7.83056641 88.7878418 C-7.82512378 80.45983862 -7.82688643 72.13185991 -7.83239281 63.80385733 C-7.83692379 56.6667235 -7.83757457 49.52959706 -7.83495414 42.39246225 C-7.83339128 38.1240184 -7.83319784 33.85558607 -7.83649063 29.58714294 C-7.83936912 25.57516262 -7.83739406 21.56321399 -7.83159637 17.55123711 C-7.83026866 16.07455434 -7.83066309 14.59786894 -7.83285904 13.12118721 C-7.83557005 11.11379209 -7.83157615 9.10639116 -7.82717896 7.09899902 C-7.82680193 5.97294502 -7.8264249 4.84689102 -7.82603645 3.68671417 C-7.57632014 -1.29350192 -4.30024686 0.03324968 0 0 Z M20.29980469 26.17700195 C20.20105299 27.8595543 20.17181564 29.54624224 20.17041016 31.23168945 C20.167258 32.30950684 20.16410583 33.38732422 20.16085815 34.49780273 C20.16288239 35.67068848 20.16490662 36.84357422 20.16699219 38.05200195 C20.16603546 39.24680176 20.16507874 40.44160156 20.16409302 41.67260742 C20.16341098 44.20467176 20.16526691 46.73673783 20.16943359 49.26879883 C20.17478148 53.16011455 20.16948936 57.05131485 20.16308594 60.94262695 C20.16374671 63.39575221 20.16502787 65.84887739 20.16699219 68.30200195 C20.16496796 69.4748877 20.16294373 70.64777344 20.16085815 71.85620117 C20.16401031 72.93401855 20.16716248 74.01183594 20.17041016 75.12231445 C20.17120575 76.07638184 20.17200134 77.03044922 20.17282104 78.01342773 C20.05819621 80.15688084 20.05819621 80.15688084 21.29980469 81.17700195 C23.87261062 81.29055581 26.41749755 81.34118822 28.99121094 81.3449707 C30.15921486 81.3499633 30.15921486 81.3499633 31.35081482 81.35505676 C33.00608732 81.3601328 34.66137011 81.36246488 36.31665039 81.36230469 C38.82748859 81.3644719 41.33787359 81.38256607 43.84863281 81.40161133 C45.45865736 81.40454913 47.06868399 81.40653133 48.67871094 81.4074707 C49.42173965 81.41465622 50.16476837 81.42184174 50.93031311 81.429245 C58.81799803 81.39539512 66.74709361 79.77610973 73.29980469 75.17700195 C79.66041901 68.5866589 82.44672573 62.05835821 82.86230469 52.98950195 C82.67913066 45.28092833 80.97086588 39.36377484 76.29980469 33.17700195 C73.50739161 30.66383018 70.67641914 28.80952163 67.29980469 27.17700195 C66.62280518 26.82935791 65.94580566 26.48171387 65.24829102 26.12353516 C61.09912445 24.79155546 57.2088456 24.91067593 52.87792969 24.9465332 C51.97733826 24.94699142 51.07674683 24.94744965 50.14886475 24.94792175 C48.25271277 24.95093442 46.35656305 24.95879114 44.46044922 24.97119141 C41.54613573 24.98952503 38.63213876 24.99170044 35.71777344 24.99145508 C33.87532275 24.99636767 32.03287423 25.00219485 30.19042969 25.0090332 C29.31445129 25.01014603 28.4384729 25.01125885 27.53594971 25.0124054 C23.60258325 24.65274029 23.60258325 24.65274029 20.29980469 26.17700195 Z " fill="#FEB437" transform="translate(1093.7001953125,124.822998046875)"/>
<path d="M0 0 C4.31248609 -0.02886537 8.62494762 -0.04675255 12.9375 -0.0625 C14.16919922 -0.07087891 15.40089844 -0.07925781 16.66992188 -0.08789062 C17.83974609 -0.09111328 19.00957031 -0.09433594 20.21484375 -0.09765625 C21.84087524 -0.10551147 21.84087524 -0.10551147 23.49975586 -0.11352539 C26 0 26 0 27 1 C27.11465349 3.81698066 27.16485848 6.61043172 27.17358398 9.4284668 C27.1836145 10.75557678 27.1836145 10.75557678 27.19384766 12.10949707 C27.2079398 14.03999621 27.21982043 15.97051242 27.22979546 17.90103722 C27.24619029 20.96727413 27.26943529 24.03338767 27.29469299 27.0995636 C27.36545578 35.82127716 27.42518271 44.54304537 27.47680664 53.26489258 C27.50884407 58.59592016 27.55019739 63.92681313 27.59700203 69.25773048 C27.61289647 71.2808365 27.62527504 73.30397361 27.63390923 75.32712364 C27.33719866 100.2762237 27.33719866 100.2762237 38.5 121.9375 C44.72775914 127.07540129 50.19188293 129.25611218 58 131 C59.85625 131.433125 59.85625 131.433125 61.75 131.875 C70.98121492 132.76773066 81.30658268 129.86002629 88.91796875 124.72265625 C98.54622627 116.75631185 101.71084446 104.98368321 103 93 C103.39701708 85.83672871 103.37277437 78.6564574 103.4140625 71.484375 C103.43280273 69.41643526 103.4523782 67.34850294 103.4727478 65.28057861 C103.52377359 59.87534994 103.56355631 54.47009656 103.60089111 49.0647583 C103.64111742 43.53399695 103.69212419 38.00333576 103.7421875 32.47265625 C103.83859625 21.64850817 103.92311169 10.82430313 104 0 C108.31248609 -0.02886537 112.62494762 -0.04675255 116.9375 -0.0625 C118.16919922 -0.07087891 119.40089844 -0.07925781 120.66992188 -0.08789062 C121.83974609 -0.09111328 123.00957031 -0.09433594 124.21484375 -0.09765625 C125.84087524 -0.10551147 125.84087524 -0.10551147 127.49975586 -0.11352539 C130 0 130 0 131 1 C131.09956988 2.33300793 131.13074303 3.6712164 131.13371277 5.00793457 C131.14011024 6.30309494 131.14011024 6.30309494 131.14663696 7.62442017 C131.14618378 8.57916229 131.14573059 9.53390442 131.14526367 10.51757812 C131.14862228 11.51763885 131.1519809 12.51769958 131.15544128 13.54806519 C131.1649894 16.87580589 131.16689681 20.20349642 131.16796875 23.53125 C131.17118041 25.83996603 131.17454441 28.14868186 131.17805481 30.45739746 C131.18405695 35.30981925 131.18589377 40.1622232 131.18530273 45.01464844 C131.18520145 51.22077352 131.1988139 57.42678333 131.21607494 63.63288116 C131.22722117 68.40796427 131.22922108 73.18301984 131.22869301 77.95811462 C131.2298707 80.24495336 131.23428061 82.53179285 131.24202538 84.81861877 C131.25187099 88.02824823 131.24892832 91.23763183 131.24291992 94.44726562 C131.24853943 95.3858139 131.25415894 96.32436218 131.25994873 97.29135132 C131.18221953 113.71003581 124.61064632 128.11537295 113.5 140.0625 C107.67980959 145.70685384 101.19450353 149.39840897 94 153 C93.29230469 153.35964844 92.58460938 153.71929687 91.85546875 154.08984375 C82.3167375 158.26693521 70.27284859 158.6323915 60 158 C58.86175781 157.93167969 57.72351563 157.86335937 56.55078125 157.79296875 C42.82021713 156.48734562 30.19025927 151.44322898 20 142 C19.16984375 141.27167969 18.3396875 140.54335938 17.484375 139.79296875 C7.36950469 130.42005749 0.76211228 118.41007316 -0.16607094 104.51364517 C-0.42627553 97.15184435 -0.34403271 89.78671434 -0.29296875 82.421875 C-0.2873655 80.04006214 -0.28309885 77.65824579 -0.28010559 75.27642822 C-0.26871427 69.04248312 -0.23929665 62.80875155 -0.20599365 56.57489014 C-0.17516907 50.19969571 -0.16157388 43.8244664 -0.14648438 37.44921875 C-0.11442115 24.96605262 -0.06329455 12.48304414 0 0 Z " fill="#155BCC" transform="translate(680,125)"/>
<path d="M0 0 C12.96578265 9.95097465 20.93462715 23.2309839 23.72265625 39.375 C24.27001249 44.55561114 24.51289067 49.81075325 24 55 C20.99674513 58.00325487 17.63247386 57.30829724 13.60302734 57.31884766 C12.73466751 57.32889328 11.86630768 57.3389389 10.97163391 57.34928894 C8.09307536 57.38025142 5.21461035 57.39719222 2.3359375 57.4140625 C0.3433857 57.43276365 -1.6491581 57.45233626 -3.64169312 57.4727478 C-8.89253022 57.52418628 -14.14339304 57.56374917 -19.39434814 57.60089111 C-24.74994324 57.64085749 -30.10543032 57.69198334 -35.4609375 57.7421875 C-45.97388258 57.83908543 -56.48688849 57.92344567 -67 58 C-66.69482966 59.44122277 -66.38551725 60.8815689 -66.07446289 62.3215332 C-65.90266006 63.1237178 -65.73085724 63.9259024 -65.55384827 64.75239563 C-63.64376177 72.50383048 -58.90466974 77.76077292 -52.24609375 81.84375 C-43.32052999 86.438475 -33.92274161 87.16499145 -24.23046875 84.74609375 C-18.43370136 82.80706998 -14.58002477 80.21868301 -11.62890625 74.8515625 C-9.52347561 71.96266206 -8.52895913 71.11398244 -4.98852539 70.35107422 C-1.33790588 70.21229076 2.22727835 70.30241508 5.875 70.5 C7.13570312 70.53609375 8.39640625 70.5721875 9.6953125 70.609375 C12.79999216 70.7034562 15.89842636 70.83478608 19 71 C20 74 20 74 19.03125 76.63671875 C10.98091772 92.67577361 -1.04766129 103.1399323 -18 109 C-33.67624406 112.66447157 -51.12568193 111.06702026 -65.1875 103.3125 C-70.6514691 99.79423697 -75.37046264 95.5409723 -80 91 C-80.56589844 90.45859375 -81.13179687 89.9171875 -81.71484375 89.359375 C-91.81406637 78.75117299 -95.75475621 63.81477665 -96.4375 49.5625 C-95.86044525 32.70246567 -88.9140831 17.74085733 -77 6 C-76.19175781 5.19304687 -75.38351562 4.38609375 -74.55078125 3.5546875 C-69.16592314 -1.56811315 -63.91787605 -5.26502575 -57 -8 C-56.24074219 -8.31839844 -55.48148438 -8.63679687 -54.69921875 -8.96484375 C-36.31147381 -15.32870444 -15.29592932 -11.39605116 0 0 Z M-61.3125 23.375 C-64.59104539 28.46826141 -64.59104539 28.46826141 -67 34 C-66.67 34.99 -66.34 35.98 -66 37 C-58.19424805 37.02312792 -50.38850405 37.04091738 -42.58272648 37.05181217 C-38.9585404 37.05704002 -35.3343777 37.06413587 -31.71020508 37.07543945 C-28.21540025 37.08627184 -24.72061796 37.09227758 -21.22579765 37.09487724 C-19.23760611 37.09763551 -17.24942369 37.10544688 -15.26124573 37.11329651 C-13.45949135 37.11340981 -13.45949135 37.11340981 -11.62133789 37.11352539 C-10.55766495 37.115746 -9.493992 37.11796661 -8.39808655 37.12025452 C-6.04756586 37.27116763 -6.04756586 37.27116763 -5 36 C-4.24172691 31.66701089 -5.26646683 29.06320832 -7.5 25.4375 C-10.69999272 20.9680266 -14.08078494 18.37093098 -19 16 C-19.62777344 15.69320312 -20.25554687 15.38640625 -20.90234375 15.0703125 C-35.12060926 8.96430891 -50.61194601 12.38524185 -61.3125 23.375 Z " fill="#FEB437" transform="translate(1320,172)"/>
<path d="M0 0 C4.31248609 -0.02886537 8.62494762 -0.04675255 12.9375 -0.0625 C14.16919922 -0.07087891 15.40089844 -0.07925781 16.66992188 -0.08789062 C17.83974609 -0.09111328 19.00957031 -0.09433594 20.21484375 -0.09765625 C21.84087524 -0.10551147 21.84087524 -0.10551147 23.49975586 -0.11352539 C26 0 26 0 27 1 C27.12525151 3.86012897 27.18609721 6.69728154 27.20532227 9.55883789 C27.21522186 10.45631241 27.22512146 11.35378693 27.23532104 12.27845764 C27.2670354 15.25982988 27.29173256 18.24121809 27.31640625 21.22265625 C27.33696721 23.28389411 27.35796344 25.34512766 27.37937927 27.40635681 C27.4346886 32.84299244 27.48405866 38.27966667 27.53222656 43.71636963 C27.58237706 49.25951592 27.63809672 54.80260586 27.69335938 60.34570312 C27.80104926 71.23042066 27.90247002 82.11518703 28 93 C32.38798837 91.06299667 34.51605059 88.00023858 37.25 84.1875 C38.3101333 82.74140642 39.37139223 81.29613759 40.43359375 79.8515625 C41.28800049 78.68415527 41.28800049 78.68415527 42.15966797 77.49316406 C45.49285441 72.97757638 48.90602002 68.52289443 52.3125 64.0625 C52.96959961 63.19971436 53.62669922 62.33692871 54.30371094 61.44799805 C57.47507021 57.28769017 60.6568719 53.135503 63.85546875 48.99609375 C64.41258545 48.27478271 64.96970215 47.55347168 65.54370117 46.81030273 C67 45 67 45 69 43 C72.07275391 42.77294922 72.07275391 42.77294922 75.9765625 42.8046875 C76.66181 42.8075174 77.3470575 42.81034729 78.05307007 42.81326294 C80.24389027 42.82446719 82.43430316 42.84957141 84.625 42.875 C86.1093691 42.88502952 87.5937446 42.89415542 89.078125 42.90234375 C92.71888261 42.92440706 96.35940156 42.95893824 100 43 C98.45488058 46.20867419 96.70912756 48.74651204 94.4375 51.5 C91.47041998 55.14770053 88.60558367 58.84248448 85.8125 62.625 C83.15331354 66.21560028 80.43432749 69.71161394 77.57421875 73.14453125 C76.98342529 73.85593262 76.39263184 74.56733398 75.78393555 75.30029297 C74.61507852 76.70061792 73.43840327 78.09446221 72.25317383 79.48095703 C71.44722778 80.44751221 71.44722778 80.44751221 70.625 81.43359375 C70.14289063 82.00134521 69.66078125 82.56909668 69.1640625 83.15405273 C67.6817722 85.50463935 67.21028724 87.22583614 67 90 C67.81442178 92.45592274 67.81442178 92.45592274 69.24609375 94.84375 C70.00092041 96.20765869 70.00092041 96.20765869 70.77099609 97.59912109 C71.32094238 98.55641113 71.87088867 99.51370117 72.4375 100.5 C72.99518066 101.49467285 73.55286133 102.4893457 74.12744141 103.51416016 C77.5261909 109.53836748 81.04380634 115.46822101 84.73046875 121.3203125 C88.00004808 126.55964783 91.07804309 131.91479271 94.1875 137.25 C94.78224121 138.26884277 95.37698242 139.28768555 95.98974609 140.33740234 C99.39505725 146.18804212 102.74163271 152.06621425 106 158 C103.19641458 160.80358542 95.07471217 159.48229419 91.3125 159.5625 C90.03181641 159.62501953 88.75113281 159.68753906 87.43164062 159.75195312 C78.30235243 159.90861798 78.30235243 159.90861798 75.02636719 157.62304688 C73.37734796 155.51186105 72.21248757 153.38948211 71 151 C69.80743242 149.00616812 68.61190464 147.01410503 67.4140625 145.0234375 C66.14550509 142.81045623 64.88265984 140.59419258 63.625 138.375 C62.96194141 137.2126428 62.29844599 136.05053469 61.63452148 134.88867188 C60.3391729 132.61928906 59.04573153 130.34881634 57.75439453 128.07714844 C56.26405876 125.4631501 54.76129528 122.85743991 53.24609375 120.2578125 C52.86694824 119.60506348 52.48780273 118.95231445 52.09716797 118.27978516 C51.14023677 116.63371898 50.18152498 114.98868828 49.22265625 113.34375 C48 111 48 111 48 109 C43.90260882 109.1594793 41.67795188 109.96240724 38.859375 112.8359375 C37.80859384 114.00288542 36.77237448 115.18308604 35.75 116.375 C35.22148438 116.96539062 34.69296875 117.55578125 34.1484375 118.1640625 C29.64347847 123.24071683 27.75471487 126.22616194 27.62109375 133.2578125 C27.60409927 133.96146942 27.5871048 134.66512634 27.56959534 135.3901062 C27.51651079 137.63497998 27.4761766 139.87983535 27.4375 142.125 C27.39360702 144.37721348 27.34696372 146.62928214 27.29469299 148.88131714 C27.24810963 150.91960624 27.21064053 152.95809748 27.17358398 154.99658203 C27 158 27 158 26 159 C24.15840977 159.09959621 22.31303033 159.13080411 20.46875 159.1328125 C19.34855469 159.13410156 18.22835938 159.13539063 17.07421875 159.13671875 C15.89472656 159.13285156 14.71523437 159.12898437 13.5 159.125 C11.73076172 159.13080078 11.73076172 159.13080078 9.92578125 159.13671875 C8.24548828 159.13478516 8.24548828 159.13478516 6.53125 159.1328125 C5.49548828 159.13168457 4.45972656 159.13055664 3.39257812 159.12939453 C1 159 1 159 0 158 C-0.09678239 155.96238813 -0.12186965 153.92136288 -0.12025452 151.88145447 C-0.12110894 151.23539877 -0.12196337 150.58934307 -0.12284368 149.92370993 C-0.12450024 147.74330183 -0.11897429 145.56296945 -0.11352539 143.38256836 C-0.11324353 141.82579042 -0.11340123 140.26901236 -0.1139679 138.7122345 C-0.11425592 134.47274796 -0.10835846 130.23328946 -0.10139394 125.99380946 C-0.09516115 121.5681858 -0.09455666 117.14256157 -0.09336853 112.7169342 C-0.09025499 104.33046022 -0.0820413 95.9439992 -0.07201904 87.55753094 C-0.0608586 78.01234651 -0.05534763 68.46716148 -0.05032361 58.92197216 C-0.03985871 39.28130752 -0.02225883 19.64065458 0 0 Z " fill="#FEB437" transform="translate(1474,121)"/>
<path d="M0 0 C13.92614501 0.06066047 27.85210534 0.13844284 41.7780447 0.23571491 C48.24483932 0.28038966 54.71157136 0.31965243 61.1784668 0.34643555 C67.42259082 0.37249701 73.66647364 0.41292021 79.91044807 0.46318626 C82.28935807 0.47983563 84.66830977 0.49136189 87.04726982 0.49761391 C90.38650509 0.50727569 93.72512594 0.53536112 97.06420898 0.56762695 C98.04173126 0.56619186 99.01925354 0.56475677 100.02639771 0.5632782 C106.93815467 0.65736197 113.47869405 1.55144991 119.26953125 5.578125 C124.78916786 11.55889581 129.14883024 17.44301104 129.09765625 25.88671875 C129.09443359 26.82451172 129.09121094 27.76230469 129.08789062 28.72851562 C129.07951172 29.70498047 129.07113281 30.68144531 129.0625 31.6875 C129.05798828 32.67556641 129.05347656 33.66363281 129.04882812 34.68164062 C129.03704303 37.12115474 129.02059011 39.56054689 129 42 C109.45034523 42.1636465 89.90082979 42.28702202 70.35063171 42.3626852 C61.27274658 42.39875355 52.19528745 42.44791227 43.11767578 42.52807617 C35.20400897 42.59792792 27.29065072 42.64302673 19.37668419 42.65861946 C15.1875424 42.66773198 10.99928321 42.68909005 6.8104248 42.7401104 C2.86378253 42.78778899 -1.08161765 42.80224851 -5.02852058 42.79175377 C-6.47330551 42.7936723 -7.91813393 42.8075011 -9.36266899 42.83443832 C-21.61586451 43.05163525 -21.61586451 43.05163525 -26.6730957 38.65345764 C-27.79515324 37.44768786 -28.90460802 36.23004484 -30 35 C-31.31432754 33.8936854 -32.64553849 32.80679842 -34 31.75 C-35.75 30.359375 -35.75 30.359375 -37 29 C-37 28.01 -37 27.02 -37 26 C-32.1956215 27.00736969 -27.54598149 28.11337869 -22.875 29.625 C-17.47258896 31.26412161 -13.24222028 31.79137187 -7.8125 29.875 C-4.53112384 27.68741589 -2.52837418 25.60719391 -1 22 C-0.38665244 18.21110074 -0.30440426 14.45802719 -0.25 10.625 C-0.20552734 9.09166016 -0.20552734 9.09166016 -0.16015625 7.52734375 C-0.08980506 5.01815147 -0.03693794 2.50986946 0 0 Z " fill="#44A8F9" transform="translate(287,145)"/>
<path d="M0 0 C33.33 0 66.66 0 101 0 C101.061875 16.438125 101.12375 32.87625 101.1875 49.8125 C101.22846802 57.60258667 101.22846802 57.60258667 101.27026367 65.55004883 C101.28381348 71.88415527 101.28381348 71.88415527 101.28633118 74.84794617 C101.29094269 76.92116729 101.3015037 78.99438029 101.31672668 81.06755066 C101.33861659 84.20508844 101.34172038 87.34213388 101.34057617 90.47973633 C101.3513705 91.40577825 101.36216482 92.33182016 101.37328625 93.28592396 C101.36915376 94.12970946 101.36502127 94.97349497 101.36076355 95.84284973 C101.36352893 96.57751874 101.36629431 97.31218775 101.36914349 98.06911945 C100.90024712 100.52177783 99.88039179 101.4215932 98 103 C97.62230469 102.56171875 97.24460937 102.1234375 96.85546875 101.671875 C91.35763813 95.33713808 85.68445088 89.16663094 80 83 C79.03903439 81.95575504 78.07809685 80.91148424 77.1171875 79.8671875 C74.63967819 77.17657093 72.15622073 74.49151775 69.67153931 71.80752563 C68.59224938 70.64043121 67.51402601 69.47234914 66.43710327 68.30307007 C57.3833165 58.47478675 48.06052823 48.96056151 38.5625 39.5625 C23.87216261 25.02385141 23.87216261 25.02385141 18.53735352 18.72875977 C15.64859365 15.48033851 12.40508672 12.60413831 9.1875 9.6875 C7.86589285 8.48592287 6.5467715 7.28160442 5.23046875 6.07421875 C4.37038208 5.29437622 4.37038208 5.29437622 3.49291992 4.4987793 C2 3 2 3 0 0 Z " fill="#44A8FA" transform="translate(315,235)"/>
<path d="M0 0 C1.22161835 -0.00953201 2.44323669 -0.01906403 3.70187378 -0.02888489 C5.67693405 -0.02751778 5.67693405 -0.02751778 7.69189453 -0.02612305 C9.06186045 -0.03001248 10.43182516 -0.03434767 11.80178833 -0.03910828 C14.6716096 -0.0465632 17.54130784 -0.04628494 20.41113281 -0.04101562 C24.07854474 -0.03522754 27.74545055 -0.05213891 31.41277885 -0.0753603 C34.24218666 -0.09013499 37.07147369 -0.0909642 39.90091324 -0.08785057 C41.90718053 -0.08860991 43.91342916 -0.10245554 45.91964722 -0.11653137 C47.14756989 -0.11030258 48.37549255 -0.10407379 49.640625 -0.09765625 C50.71665985 -0.09828568 51.7926947 -0.0989151 52.90133667 -0.0995636 C57.75175692 0.49588013 60.98455795 2.23545265 64.29150391 5.79614258 C66.57459832 10.58553146 66.5243516 14.68793776 66.48095703 19.9309082 C66.48669739 21.46164978 66.48669739 21.46164978 66.49255371 23.02331543 C66.49526848 25.17497752 66.48793787 27.32667285 66.47119141 29.47827148 C66.44977639 32.76401638 66.47100873 36.04757474 66.49658203 39.33325195 C66.49393868 41.42830884 66.48881355 43.52336438 66.48095703 45.6184082 C66.48905396 46.59668579 66.49715088 47.57496338 66.50549316 48.58288574 C66.42720145 54.30268347 65.8734672 57.79595099 61.94970703 62.2746582 C58.3905672 64.64741809 56.79684121 64.54726746 52.56982422 64.59692383 C51.25125427 64.61613892 49.93268433 64.635354 48.57415771 64.65515137 C47.13163953 64.66484906 45.6891133 64.67340629 44.24658203 64.6809082 C42.76548254 64.69241752 41.28438309 64.70393291 39.80328369 64.7154541 C36.69631567 64.73646263 33.58945092 64.74815447 30.48242188 64.75512695 C26.51312309 64.76607758 22.54520318 64.81409083 18.57633591 64.87107086 C15.51525987 64.90844393 12.45451148 64.91874111 9.39322662 64.92179871 C7.93082412 64.92782898 6.46842583 64.94380969 5.00624847 64.97016907 C-7.81342018 65.18472381 -7.81342018 65.18472381 -12.44873047 61.95654297 C-16.44758175 57.60395518 -16.01689861 52.31485628 -15.90966797 46.70825195 C-15.9116217 45.59660172 -15.91357544 44.48495148 -15.91558838 43.33961487 C-15.91159682 40.99536352 -15.89036842 38.65108623 -15.85302734 36.30712891 C-15.80040922 32.72008342 -15.81187171 29.13734876 -15.83154297 25.55004883 C-15.81972975 23.26942694 -15.80422955 20.98882054 -15.78466797 18.70825195 C-15.78851501 17.63731796 -15.79236206 16.56638397 -15.79632568 15.46299744 C-15.63201954 8.05748995 -15.63201954 8.05748995 -12.75439453 4.18505859 C-8.28158416 1.02509641 -5.5367486 0.02374249 0 0 Z " fill="#FDC63C" transform="translate(113.05029296875,257.725341796875)"/>
<path d="M0 0 C1.1653125 -0.00128906 2.330625 -0.00257812 3.53125 -0.00390625 C4.7584375 -0.00003906 5.985625 0.00382812 7.25 0.0078125 C9.09078125 0.00201172 9.09078125 0.00201172 10.96875 -0.00390625 C12.71671875 -0.00197266 12.71671875 -0.00197266 14.5 0 C15.57765625 0.00112793 16.6553125 0.00225586 17.765625 0.00341797 C20.25 0.1328125 20.25 0.1328125 21.25 1.1328125 C21.34887812 3.10478788 21.37632256 5.0803569 21.37698364 7.05480957 C21.37980347 8.34210464 21.38262329 9.62939972 21.38552856 10.95570374 C21.38358396 12.3955995 21.38153578 13.83549514 21.37939453 15.27539062 C21.38074851 16.78128604 21.38252843 18.28718111 21.38470459 19.79307556 C21.38927928 23.89420057 21.38748922 27.99530054 21.3843255 32.09642601 C21.38180209 36.37877853 21.38413939 40.66112884 21.38571167 44.94348145 C21.38753342 52.13631578 21.38512692 59.32913987 21.38037109 66.52197266 C21.37492846 74.84997584 21.37669112 83.17795454 21.3821975 91.50595713 C21.38672848 98.64309096 21.38737925 105.7802174 21.38475883 112.9173522 C21.38319597 117.18579605 21.38300253 121.45422838 21.38629532 125.72267151 C21.38917381 129.73465184 21.38719875 133.74660046 21.38140106 137.75857735 C21.38007334 139.23526011 21.38046778 140.71194552 21.38266373 142.18862724 C21.38537474 144.19602237 21.38138084 146.20342329 21.37698364 148.21081543 C21.37660662 149.33686943 21.37622959 150.46292343 21.37584114 151.62310028 C21.25 154.1328125 21.25 154.1328125 20.25 155.1328125 C18.33541718 155.23253036 16.41717683 155.26361839 14.5 155.265625 C13.3346875 155.26691406 12.169375 155.26820313 10.96875 155.26953125 C9.7415625 155.26566406 8.514375 155.26179687 7.25 155.2578125 C6.0228125 155.26167969 4.795625 155.26554688 3.53125 155.26953125 C2.3659375 155.26824219 1.200625 155.26695312 0 155.265625 C-1.07765625 155.26449707 -2.1553125 155.26336914 -3.265625 155.26220703 C-5.75 155.1328125 -5.75 155.1328125 -6.75 154.1328125 C-6.84887812 152.16083712 -6.87632256 150.1852681 -6.87698364 148.21081543 C-6.87980347 146.92352036 -6.88262329 145.63622528 -6.88552856 144.30992126 C-6.88358396 142.8700255 -6.88153578 141.43012986 -6.87939453 139.99023438 C-6.88074851 138.48433896 -6.88252843 136.97844389 -6.88470459 135.47254944 C-6.88927928 131.37142443 -6.88748922 127.27032446 -6.8843255 123.16919899 C-6.88180209 118.88684647 -6.88413939 114.60449616 -6.88571167 110.32214355 C-6.88753342 103.12930922 -6.88512692 95.93648513 -6.88037109 88.74365234 C-6.87492846 80.41564916 -6.87669112 72.08767046 -6.8821975 63.75966787 C-6.88672848 56.62253404 -6.88737925 49.4854076 -6.88475883 42.3482728 C-6.88319597 38.07982895 -6.88300253 33.81139662 -6.88629532 29.54295349 C-6.88917381 25.53097316 -6.88719875 21.51902454 -6.88140106 17.50704765 C-6.88007334 16.03036489 -6.88046778 14.55367948 -6.88266373 13.07699776 C-6.88537474 11.06960263 -6.88138084 9.06220171 -6.87698364 7.05480957 C-6.87660662 5.92875557 -6.87622959 4.80270157 -6.87584114 3.64252472 C-6.64056812 -1.0496418 -4.11965517 0.00431184 0 0 Z " fill="#155BCC" transform="translate(1018.75,124.8671875)"/>
<path d="M0 0 C1.07507812 -0.00128906 2.15015625 -0.00257813 3.2578125 -0.00390625 C4.38960937 -0.00003906 5.52140625 0.00382813 6.6875 0.0078125 C7.81929687 0.00394531 8.95109375 0.00007812 10.1171875 -0.00390625 C11.19226562 -0.00261719 12.26734375 -0.00132812 13.375 0 C14.86580078 0.00169189 14.86580078 0.00169189 16.38671875 0.00341797 C18.6875 0.1328125 18.6875 0.1328125 19.6875 1.1328125 C19.92277773 3.48268512 20.10136417 5.83837289 20.25 8.1953125 C20.37568359 10.13083984 20.37568359 10.13083984 20.50390625 12.10546875 C20.56449219 13.10449219 20.62507813 14.10351562 20.6875 15.1328125 C24.09026432 13.99855773 24.7980078 13.04875801 27 10.3203125 C31.47888992 5.06043967 35.96608528 1.90040802 42.6875 0.1328125 C46.12955545 -0.12404125 49.55025191 -0.10167332 53 -0.0546875 C53.91845703 -0.05404297 54.83691406 -0.05339844 55.78320312 -0.05273438 C62.54694475 -0.00774275 62.54694475 -0.00774275 63.6875 1.1328125 C63.78649523 2.68236809 63.81829524 4.23634923 63.8203125 5.7890625 C63.82160156 6.72878906 63.82289062 7.66851562 63.82421875 8.63671875 C63.82035156 9.62542969 63.81648438 10.61414063 63.8125 11.6328125 C63.81636719 12.62152344 63.82023437 13.61023438 63.82421875 14.62890625 C63.82292969 15.56863281 63.82164063 16.50835937 63.8203125 17.4765625 C63.81918457 18.34474609 63.81805664 19.21292969 63.81689453 20.10742188 C63.6875 22.1328125 63.6875 22.1328125 62.6875 23.1328125 C60.96514226 23.20907926 59.24234755 23.27990531 57.51879883 23.32128906 C47.84843703 23.59881226 39.83088299 25.44299427 31.8125 31.1953125 C19.42378332 48.32089144 21.46545284 67.67652131 21.6875 87.8828125 C21.74055577 92.79426099 21.7805041 97.70556211 21.8125 102.6171875 C21.82909668 103.74413025 21.84569336 104.871073 21.86279297 106.03216553 C21.87270264 107.58583832 21.87270264 107.58583832 21.8828125 109.17089844 C21.89328613 110.08353455 21.90375977 110.99617065 21.91455078 111.9364624 C21.6875 114.1328125 21.6875 114.1328125 19.6875 116.1328125 C17.18139648 116.37573242 17.18139648 116.37573242 14.05859375 116.36328125 C12.94162109 116.36134766 11.82464844 116.35941406 10.67382812 116.35742188 C9.50271484 116.34517578 8.33160156 116.33292969 7.125 116.3203125 C5.95001953 116.31966797 4.77503906 116.31902344 3.56445312 116.31835938 C-5.17237859 116.27293391 -5.17237859 116.27293391 -6.3125 115.1328125 C-6.41034774 113.65497449 -6.43881765 112.17247982 -6.43948364 110.69140625 C-6.44230347 109.73226318 -6.44512329 108.77312012 -6.44802856 107.78491211 C-6.44600433 106.72409424 -6.4439801 105.66327637 -6.44189453 104.5703125 C-6.44364685 103.45986572 -6.44539917 102.34941895 -6.44720459 101.20532227 C-6.45162572 97.51447004 -6.44868419 93.82366526 -6.4453125 90.1328125 C-6.44598546 87.58072907 -6.44695542 85.02864571 -6.44821167 82.4765625 C-6.449689 77.11978488 -6.44762756 71.76302445 -6.44287109 66.40625 C-6.43742851 60.20497535 -6.43919118 54.00373357 -6.4446975 47.80245972 C-6.44977437 41.84747035 -6.44924707 35.89249123 -6.44631577 29.9375 C-6.44564624 27.39843745 -6.44647582 24.85937408 -6.44879532 22.3203125 C-6.4513203 18.77862286 -6.44748342 15.23699733 -6.44189453 11.6953125 C-6.44391876 10.63449463 -6.44594299 9.57367676 -6.44802856 8.48071289 C-6.44520874 7.52156982 -6.44238892 6.56242676 -6.43948364 5.57421875 C-6.43910662 4.73576416 -6.43872959 3.89730957 -6.43834114 3.03344727 C-6.17415779 -0.95663146 -3.36435133 0.00381817 0 0 Z " fill="#FDB437" transform="translate(1381.3125,163.8671875)"/>
<path d="M0 0 C0.42845215 0.36786621 0.8569043 0.73573242 1.29833984 1.11474609 C4.28884461 3.68048645 7.28231647 6.24236504 10.2890625 8.7890625 C16.83035174 14.34245581 23.24415436 19.9998407 29.52368164 25.84790039 C32.93083712 29.02062097 36.38898502 32.11542256 39.91015625 35.16015625 C42.64370718 37.56670295 45.32107396 40.03310211 48 42.5 C53.3330391 47.40832048 58.7239386 52.23794134 64.265625 56.91015625 C65.00296875 57.53792969 65.7403125 58.16570312 66.5 58.8125 C67.1703125 59.37582031 67.840625 59.93914062 68.53125 60.51953125 C70 62 70 62 70 64 C68.7934375 63.9071875 68.7934375 63.9071875 67.5625 63.8125 C62.38754944 64.08486582 57.89007192 65.89236107 53.09277344 67.73095703 C34.49838741 74.84972825 34.49838741 74.84972825 28 73 C23.79218993 70.54150423 20.78225969 67.56172498 19 63 C18.81091823 60.35538601 18.72293227 57.80793436 18.7265625 55.1640625 C18.70627173 53.60936782 18.68542091 52.05468038 18.6640625 50.5 C18.64148947 48.06211227 18.62499882 45.62451081 18.61914062 43.18652344 C18.60958104 40.82435032 18.57576569 38.46344858 18.5390625 36.1015625 C18.54410797 35.37949615 18.54915344 34.65742981 18.55435181 33.91348267 C18.45526945 28.77857904 17.12530976 26.00882717 14 22 C13.24565674 20.90606934 13.24565674 20.90606934 12.47607422 19.79003906 C10.94442295 17.6085804 9.41080987 15.42853322 7.875 13.25 C7.33746094 12.48300781 6.79992187 11.71601562 6.24609375 10.92578125 C5.47072266 9.82556641 5.47072266 9.82556641 4.6796875 8.703125 C4.21288574 8.03958008 3.74608398 7.37603516 3.26513672 6.69238281 C1.96676861 4.87145076 1.96676861 4.87145076 0 3 C0 2.01 0 1.02 0 0 Z " fill="#FDC63B" transform="translate(173,104)"/>
<path d="M0 0 C2.64 0 5.28 0 8 0 C8 11.55 8 23.1 8 35 C19.88 35 31.76 35 44 35 C44 37.64 44 40.28 44 43 C32.12 43 20.24 43 8 43 C8 49.6 8 56.2 8 63 C5.36 63 2.72 63 0 63 C0 51.45 0 39.9 0 28 C-11.88 28 -23.76 28 -36 28 C-36 25.36 -36 22.72 -36 20 C-24.12 20 -12.24 20 0 20 C0 13.4 0 6.8 0 0 Z " fill="#FEB334" transform="translate(134,259)"/>
</svg>
