<?xml version="1.0" encoding="UTF-8"?>
<svg version="1.1" xmlns="http://www.w3.org/2000/svg" width="1640" height="400">
<path d="M0 0 C3.52351708 1.64000309 6.76986166 3.6923177 10.0625 5.75 C12.0499311 6.95843056 14.03823268 8.16543049 16.02734375 9.37109375 C17.03007324 9.9832373 18.03280273 10.59538086 19.06591797 11.22607422 C23.37579028 13.83179332 27.7443437 16.32821689 32.125 18.8125 C33.84245483 19.79035244 35.55990251 20.76821745 37.27734375 21.74609375 C38.17952637 22.25897949 39.08170898 22.77186523 40.01123047 23.30029297 C45.28842259 26.30142118 50.56217062 29.30857403 55.83465576 32.31796265 C57.63352516 33.34420765 59.43318653 34.36905286 61.23291016 35.39379883 C67.10837673 38.74621144 72.94162982 42.15282706 78.73168945 45.65039062 C82.19060967 47.70839418 85.71761383 49.63435424 89.25 51.5625 C96.44689186 55.526129 103.55310173 59.63013702 110.625 63.8125 C111.53668945 64.35140869 112.44837891 64.89031738 113.38769531 65.44555664 C115.93066561 66.95518183 118.47134201 68.4664958 121 70 C121.67477386 70.22861725 122.34954773 70.4572345 123.04476929 70.69277954 C125.73493074 71.82062582 127.14120471 72.72579276 129 75 C130.32937716 80.71029664 130.27416685 86.39368878 130.2734375 92.234375 C130.29408035 93.9544656 130.31620818 95.67453895 130.3397522 97.39459229 C130.37859983 100.99952467 130.38547025 104.60290614 130.37255859 108.20800781 C130.36058186 112.81194579 130.44887283 117.4077928 130.56433678 122.01006699 C130.63859059 125.5639941 130.64812391 129.11599537 130.63978958 132.67060089 C130.6455082 134.36595207 130.67346353 136.06138869 130.72474289 137.75597382 C131.07257705 150.60370576 131.07257705 150.60370576 127.63570023 154.57739067 C123.80381479 157.80693203 119.51193093 159.88023402 115 162 C113.14790128 163.07642342 111.30402292 164.16741503 109.4765625 165.28515625 C107.86142149 166.21450326 106.24429134 167.14040354 104.625 168.0625 C103.78195312 168.54654297 102.93890625 169.03058594 102.0703125 169.52929688 C100.04869468 170.68942983 98.02531742 171.84634229 96 173 C97.28970703 173.72703125 97.28970703 173.72703125 98.60546875 174.46875 C105.66792843 178.46728178 112.62978315 182.5856225 119.5234375 186.87109375 C123.4536832 189.29698829 127.44694541 191.61268848 131.4375 193.9375 C137.43632372 197.43541512 143.30177564 201.08658387 149.11303711 204.88647461 C153.34642397 207.63399095 157.69176257 210.04254095 162.1484375 212.40234375 C166.20031636 214.67250602 170.05915015 217.21414751 173.94702148 219.75170898 C177.09913484 221.80125443 180.25846866 223.76801692 183.5625 225.5625 C184.19986084 225.93125244 184.83722168 226.30000488 185.49389648 226.67993164 C188.06923019 228.10405486 188.06923019 228.10405486 191.24853516 229.21459961 C195.1682948 230.97582251 198.41676051 232.48587593 201 236 C203.20470732 243.00391743 202.21399755 250.78003679 201.8125 258 C201.74723709 260.03497215 201.68793074 262.0701446 201.63476562 264.10546875 C201.49200397 269.07527967 201.26808897 274.03543638 201 279 C199.91750977 279.60545654 198.83501953 280.21091309 197.71972656 280.8347168 C196.27665839 281.64365623 194.83362646 282.45266032 193.390625 283.26171875 C192.67986816 283.65903198 191.96911133 284.05634521 191.23681641 284.46569824 C185.93530247 287.44057188 180.75476643 290.56448327 175.59375 293.77734375 C171.17399348 296.52321886 166.71206093 299.19860813 162.25 301.875 C161.39559326 302.38748291 160.54118652 302.89996582 159.66088867 303.42797852 C154.14459902 306.7304632 148.60991976 310.00013712 143.0625 313.25 C137.18266177 316.69514916 131.35984272 320.21941846 125.56640625 323.80859375 C118.5455517 328.1408704 111.44607465 332.34558955 104.3671875 336.58203125 C102.29538143 337.8230636 100.22520599 339.06672437 98.15625 340.3125 C92.61883875 343.64525737 87.07298711 346.96129048 81.5 350.234375 C80.52981934 350.80486572 79.55963867 351.37535645 78.56005859 351.96313477 C76.65810867 353.08054221 74.75486647 354.19575414 72.85009766 355.30834961 C67.76795734 358.2947191 62.82634879 361.4148657 57.94335938 364.71606445 C55.67717693 366.21328223 53.35238034 367.50829191 50.9375 368.75 C46.39469942 371.17826495 42.03576092 373.80818434 37.6875 376.5625 C30.12314749 381.35174267 22.43746087 385.9187231 14.71362305 390.44555664 C13.82843994 390.96496826 12.94325684 391.48437988 12.03125 392.01953125 C11.17789063 392.51791504 10.32453125 393.01629883 9.4453125 393.52978516 C7.13415195 394.91934275 4.90030083 396.39226074 2.65625 397.88671875 C-0.4233301 399.79146595 -2.32371894 400.85954123 -6 400 C-8.63751364 398.67095188 -11.06514283 397.30477715 -13.5625 395.75 C-14.30137451 395.30253418 -15.04024902 394.85506836 -15.80151367 394.39404297 C-17.38788603 393.43271556 -18.97154949 392.46690638 -20.55273438 391.49707031 C-23.79602064 389.51304883 -27.05963012 387.56386669 -30.32324219 385.61352539 C-32.84282129 384.10686849 -35.35935016 382.5952386 -37.875 381.08203125 C-43.01848689 377.98827107 -48.16528001 374.90004398 -53.3125 371.8125 C-54.98307419 370.80989795 -56.65364714 369.80729384 -58.32421875 368.8046875 C-61.20062865 367.0787247 -64.07804761 365.35447847 -66.95703125 363.6328125 C-72.76597844 360.15707988 -78.56108464 356.66146291 -84.33032227 353.12011719 C-92.65711203 348.00910941 -101.04247042 343.00790124 -109.46386719 338.05444336 C-117.26396404 333.45694102 -124.99780993 328.75559593 -132.72290039 324.03344727 C-139.18158758 320.09098807 -145.67886682 316.22278164 -152.2121582 312.40551758 C-157.39948822 309.3695684 -162.51663692 306.22968511 -167.625 303.0625 C-171.5559529 300.66025101 -175.52397139 298.32659213 -179.5 296 C-186.72939348 291.76685599 -193.9167719 287.47464616 -201 283 C-202.02399902 282.50242187 -203.04799805 282.00484375 -204.10302734 281.4921875 C-207.20543034 278.82327382 -207.45075028 278.46136212 -207.95092773 274.66552734 C-208.06476031 272.89095257 -208.13992981 271.11362334 -208.18359375 269.3359375 C-208.21542252 268.38868805 -208.24725128 267.4414386 -208.28004456 266.46548462 C-208.33229715 264.46026685 -208.36735179 262.45453778 -208.38647461 260.44873047 C-208.43711745 257.39804446 -208.60994784 254.36981583 -208.78710938 251.32421875 C-209.20248466 237.56925539 -209.20248466 237.56925539 -205.41021729 233.14547729 C-201.35949741 229.89770779 -196.83087023 227.81786644 -192.04910278 225.86254883 C-189.48551594 224.7834332 -187.18869583 223.41581195 -184.84375 221.92578125 C-184.12509766 221.49394531 -183.40644531 221.06210938 -182.66601562 220.6171875 C-181.95123047 220.18664062 -181.23644531 219.75609375 -180.5 219.3125 C-178.81252234 218.29813992 -177.12502117 217.28381895 -175.4375 216.26953125 C-174.12458984 215.4798999 -174.12458984 215.4798999 -172.78515625 214.67431641 C-168.75885485 212.2538768 -164.73026421 209.83725884 -160.70166016 207.4206543 C-158.57095415 206.14245816 -156.44041965 204.86397607 -154.31005859 203.58520508 C-149.32657451 200.59396015 -144.34160792 197.60528833 -139.3515625 194.625 C-131.61645933 190.00180961 -123.91555107 185.35687474 -116.34375 180.46875 C-112.64994372 178.15396473 -108.84138953 176.05822599 -105 174 C-105 173.34 -105 172.68 -105 172 C-105.65484375 171.63237549 -106.3096875 171.26475098 -106.984375 170.88598633 C-109.99069284 169.19679026 -112.9953536 167.5046672 -116 165.8125 C-117.02996094 165.23435547 -118.05992188 164.65621094 -119.12109375 164.06054688 C-120.63896484 163.20493164 -120.63896484 163.20493164 -122.1875 162.33203125 C-123.10917969 161.81358643 -124.03085938 161.2951416 -124.98046875 160.76098633 C-125.97691406 160.17986084 -126.97335938 159.59873535 -128 159 C-129.03070366 158.64557076 -129.03070366 158.64557076 -130.08222961 158.28398132 C-132.74959278 157.15856135 -134.14827137 156.25095422 -136 154 C-137.47072421 148.31884645 -137.59367742 142.63858844 -137.73046875 136.79296875 C-137.75683222 135.94595209 -137.78319569 135.09893543 -137.81035805 134.2262516 C-137.94778267 129.73385131 -138.0368425 125.24346094 -138.08666992 120.74926758 C-138.13509188 117.05313894 -138.2664052 113.37524697 -138.47631836 109.68481445 C-140.08548163 80.83437533 -140.08548163 80.83437533 -134.82034302 73.31536102 C-128.83505896 66.82430557 -120.54791071 63.48634113 -112.45388794 60.39707947 C-107.03853359 58.20659717 -102.13422901 55.23022055 -97.125 52.25 C-95.24761179 51.18900477 -93.36774925 50.13236396 -91.484375 49.08203125 C-86.09912679 46.06068977 -80.73417561 43.0048047 -75.375 39.9375 C-74.08867676 39.20140503 -74.08867676 39.20140503 -72.77636719 38.45043945 C-71.05136675 37.46316789 -69.32643178 36.47578194 -67.6015625 35.48828125 C-64.96466877 33.97978799 -62.32631458 32.47388031 -59.6875 30.96875 C-44.15140386 22.10584766 -28.65003666 13.18616662 -13.25292969 4.08349609 C-5.26436814 -0.63383697 -5.26436814 -0.63383697 0 0 Z " fill="#4791DA" transform="translate(208,0)"/>
<path d="M0 0 C3.52351708 1.64000309 6.76986166 3.6923177 10.0625 5.75 C12.0499311 6.95843056 14.03823268 8.16543049 16.02734375 9.37109375 C17.03007324 9.9832373 18.03280273 10.59538086 19.06591797 11.22607422 C23.37579028 13.83179332 27.7443437 16.32821689 32.125 18.8125 C33.84245483 19.79035244 35.55990251 20.76821745 37.27734375 21.74609375 C38.17952637 22.25897949 39.08170898 22.77186523 40.01123047 23.30029297 C45.28842259 26.30142118 50.56217062 29.30857403 55.83465576 32.31796265 C57.63352516 33.34420765 59.43318653 34.36905286 61.23291016 35.39379883 C67.10837673 38.74621144 72.94162982 42.15282706 78.73168945 45.65039062 C82.19060967 47.70839418 85.71761383 49.63435424 89.25 51.5625 C96.44689186 55.526129 103.55310173 59.63013702 110.625 63.8125 C111.53668945 64.35140869 112.44837891 64.89031738 113.38769531 65.44555664 C118.63678762 68.56166144 123.83641057 71.7441703 129 75 C126.99716447 77.14260367 125.12480584 78.64057121 122.54296875 80.0234375 C121.85436768 80.39766846 121.1657666 80.77189941 120.45629883 81.1574707 C119.70759521 81.55925537 118.9588916 81.96104004 118.1875 82.375 C111.14401191 86.21814036 104.20383654 90.20301571 97.3125 94.3125 C88.57038365 99.52229949 79.75027492 104.5745097 70.85083008 109.51098633 C65.78799821 112.33955957 60.93418919 115.33262454 56.13793945 118.59106445 C52.78265381 120.80225018 49.28087736 122.71159689 45.75 124.625 C44.17391588 125.49116333 42.59841962 126.35839697 41.0234375 127.2265625 C39.79705566 127.90187012 39.79705566 127.90187012 38.54589844 128.59082031 C26.77678366 135.10514046 15.09260995 141.74456193 3.79638672 149.0546875 C-0.79591137 152 -0.79591137 152 -3 152 C-3 177.41 -3 202.82 -3 229 C-6.48263242 227.60694703 -9.38091423 226.31466148 -12.57421875 224.46875 C-13.40630859 223.98792969 -14.23839844 223.50710937 -15.09570312 223.01171875 C-15.95099609 222.51285156 -16.80628906 222.01398438 -17.6875 221.5 C-18.55439453 221.00113281 -19.42128906 220.50226563 -20.31445312 219.98828125 C-26.74485448 216.25514552 -26.74485448 216.25514552 -29 214 C-30.60830745 213.32969343 -32.21702691 212.6603609 -33.82763672 211.99560547 C-38.43121681 209.8857606 -42.71669855 207.15115303 -47.0625 204.5625 C-55.97530699 199.30068126 -64.96630212 194.24145284 -74.09179688 189.35888672 C-81.02230298 185.61939592 -87.72275105 181.57381993 -94.28076172 177.2121582 C-98.29920846 174.5463602 -98.29920846 174.5463602 -102.99609375 174.20703125 C-103.65738281 174.46871094 -104.31867188 174.73039063 -105 175 C-105 174.01 -105 173.02 -105 172 C-105.65484375 171.63237549 -106.3096875 171.26475098 -106.984375 170.88598633 C-109.99069284 169.19679026 -112.9953536 167.5046672 -116 165.8125 C-117.02996094 165.23435547 -118.05992188 164.65621094 -119.12109375 164.06054688 C-120.63896484 163.20493164 -120.63896484 163.20493164 -122.1875 162.33203125 C-123.10917969 161.81358643 -124.03085938 161.2951416 -124.98046875 160.76098633 C-125.97691406 160.17986084 -126.97335938 159.59873535 -128 159 C-128.68713577 158.76371384 -129.37427155 158.52742767 -130.08222961 158.28398132 C-132.74959278 157.15856135 -134.14827137 156.25095422 -136 154 C-137.47072421 148.31884645 -137.59367742 142.63858844 -137.73046875 136.79296875 C-137.75683222 135.94595209 -137.78319569 135.09893543 -137.81035805 134.2262516 C-137.94778267 129.73385131 -138.0368425 125.24346094 -138.08666992 120.74926758 C-138.13509188 117.05313894 -138.2664052 113.37524697 -138.47631836 109.68481445 C-140.08548163 80.83437533 -140.08548163 80.83437533 -134.82034302 73.31536102 C-128.83505896 66.82430557 -120.54791071 63.48634113 -112.45388794 60.39707947 C-107.03853359 58.20659717 -102.13422901 55.23022055 -97.125 52.25 C-95.24761179 51.18900477 -93.36774925 50.13236396 -91.484375 49.08203125 C-86.09912679 46.06068977 -80.73417561 43.0048047 -75.375 39.9375 C-74.51745117 39.44677002 -73.65990234 38.95604004 -72.77636719 38.45043945 C-71.05136675 37.46316789 -69.32643178 36.47578194 -67.6015625 35.48828125 C-64.96466877 33.97978799 -62.32631458 32.47388031 -59.6875 30.96875 C-44.15140386 22.10584766 -28.65003666 13.18616662 -13.25292969 4.08349609 C-5.26436814 -0.63383697 -5.26436814 -0.63383697 0 0 Z " fill="#5ED1E5" transform="translate(208,0)"/>
<path d="M0 0 C1.03932175 -0.00744736 1.03932175 -0.00744736 2.09963989 -0.01504517 C4.40652446 -0.02971994 6.71333996 -0.03648256 9.02026367 -0.04199219 C10.62676495 -0.04774556 12.23326621 -0.05350327 13.83976746 -0.05926514 C17.22016724 -0.06979445 20.60054314 -0.07562239 23.98095703 -0.07910156 C28.28341697 -0.0845472 32.58555413 -0.10848148 36.8879137 -0.13707352 C40.21423711 -0.15584582 43.54048566 -0.1609135 46.86685753 -0.16243744 C48.45066757 -0.16543895 50.0344771 -0.17338147 51.61823463 -0.18662262 C66.80655769 -0.30439064 80.24314199 1.56954051 92.25073242 11.75097656 C100.4746489 20.51030427 103.75762747 31.55018337 103.58276367 43.29785156 C102.88209135 52.98828192 98.54035056 61.14310864 91.58666992 67.89941406 C90.22800495 69.04236683 88.8085946 70.11269707 87.37573242 71.16113281 C88.01639648 71.51304687 88.65706055 71.86496094 89.31713867 72.22753906 C98.94202154 77.72132466 106.77853554 84.39974212 110.38354492 95.17285156 C113.38582575 106.60045201 112.65455649 117.90616676 107.16088867 128.50488281 C99.73676626 140.51509746 88.86773887 146.82990646 75.37573242 150.16113281 C72.56665133 150.41977851 69.78123789 150.41517959 66.96191406 150.38818359 C66.15134552 150.38847565 65.34077698 150.3887677 64.50564575 150.3890686 C61.84894794 150.38768465 59.19253698 150.37216786 56.53588867 150.35644531 C54.68501438 150.35271185 52.83413809 150.34986645 50.98326111 150.34786987 C46.12859574 150.34025963 41.27405139 150.32063368 36.41943359 150.29846191 C31.45891964 150.27794714 26.49838601 150.26885614 21.5378418 150.25878906 C11.81708571 150.23738522 2.09641916 150.20328094 -7.62426758 150.16113281 C-7.6475952 130.75121869 -7.66524608 111.3413074 -7.67607975 91.93138218 C-7.681243 82.91966344 -7.68828624 73.90795339 -7.69970703 64.89624023 C-7.70965299 57.04453731 -7.71612079 49.19284068 -7.71835607 41.34113163 C-7.71966333 37.18109829 -7.72275012 33.02108296 -7.72999763 28.86105537 C-7.73675647 24.95004869 -7.73888482 21.03906754 -7.73737526 17.12805557 C-7.73765165 15.68846053 -7.73965759 14.24886469 -7.74347305 12.80927467 C-7.74840809 10.85219049 -7.74666565 8.89509278 -7.74452209 6.93800354 C-7.74544389 5.8401481 -7.74636568 4.74229265 -7.74731541 3.61116886 C-7.50103474 -1.29258702 -4.21590671 0.02287486 0 0 Z M20.37573242 25.16113281 C20.37573242 37.37113281 20.37573242 49.58113281 20.37573242 62.16113281 C23.66097583 63.80375452 27.28751063 63.22259403 30.89135742 63.14550781 C32.16423615 63.12076385 32.16423615 63.12076385 33.46282959 63.09552002 C35.26182295 63.05798335 37.06075554 63.01743242 38.85961914 62.97412109 C41.60059631 62.9117052 44.3413934 62.87006173 47.08276367 62.82910156 C48.83149081 62.79002364 50.58019063 62.74969881 52.32885742 62.70800781 C53.14469299 62.69848083 53.96052856 62.68895386 54.80108643 62.67913818 C61.10089802 62.4917326 65.21831261 60.97532675 70.12573242 56.84863281 C74.05610863 52.15401678 74.84337065 47.4484308 74.69213867 41.46972656 C73.98206989 36.28885435 71.65450481 32.4399052 68.00073242 28.78613281 C62.18017366 25.18292977 56.89920408 24.88243889 50.25854492 24.96582031 C48.97281082 24.97006516 48.97281082 24.97006516 47.66110229 24.97439575 C44.9408331 24.98553283 42.22090102 25.01062522 39.50073242 25.03613281 C37.6491747 25.04617099 35.79761178 25.05529537 33.94604492 25.06347656 C29.4223751 25.0837439 24.89942823 25.1229044 20.37573242 25.16113281 Z M20.37573242 84.16113281 C20.37573242 98.02113281 20.37573242 111.88113281 20.37573242 126.16113281 C26.95510742 126.20238281 33.53448242 126.24363281 40.31323242 126.28613281 C42.37178467 126.30434082 44.43033691 126.32254883 46.55126953 126.34130859 C48.21020244 126.34715798 49.86913825 126.35225248 51.52807617 126.35644531 C52.36729614 126.36667725 53.20651611 126.37690918 54.07116699 126.38745117 C62.36533488 126.38986262 69.76431367 125.54252017 76.37573242 120.16113281 C81.40270362 114.71524734 82.86226536 110.03301637 82.68823242 102.72363281 C81.99907835 97.07256942 79.54913782 93.36120652 75.62573242 89.34863281 C68.47137175 84.53319775 62.37242718 83.72691764 53.96948242 83.86816406 C52.52152283 83.87453133 52.52152283 83.87453133 51.04431152 83.88102722 C47.98782412 83.89770184 44.93201757 83.9353329 41.87573242 83.97363281 C39.79240867 83.98869415 37.70907449 84.00238001 35.62573242 84.01464844 C30.54193137 84.04500553 25.45958606 84.10374818 20.37573242 84.16113281 Z " fill="#1C60CF" transform="translate(855.624267578125,123.8388671875)"/>
<path d="M0 0 C4.06038201 1.49339794 7.64898543 3.4403048 11.375 5.6328125 C12.28366821 6.16610672 12.28366821 6.16610672 13.21069336 6.71017456 C14.49249627 7.46335508 15.77332151 8.21820165 17.05322266 8.97460938 C18.96433966 10.10392757 20.87833538 11.22821855 22.79296875 12.3515625 C29.92599321 16.54510404 37.00091685 20.82140121 44.03857422 25.17333984 C48.19173449 27.73508306 52.37424822 30.24618725 56.5625 32.75 C58.29949101 33.79034481 60.03646984 34.83070996 61.7734375 35.87109375 C62.64323242 36.39171387 63.51302734 36.91233398 64.40917969 37.44873047 C68.50372651 39.90036546 72.5955257 42.35657457 76.6875 44.8125 C78.35415213 45.81252422 80.02081914 46.81252365 81.6875 47.8125 C116.48567708 68.69140625 151.28385417 89.5703125 186.08203125 110.44921875 C187.07412598 111.04009277 188.0662207 111.6309668 189.08837891 112.23974609 C191.0232242 113.409479 192.9426195 114.6051724 194.84521484 115.82666016 C195.72516113 116.38530762 196.60510742 116.94395508 197.51171875 117.51953125 C198.28346436 118.02202393 199.05520996 118.5245166 199.8503418 119.04223633 C201.91065659 120.1687148 201.91065659 120.1687148 203.97192383 119.82617188 C206.43387787 118.82325235 208.64564689 117.61162885 210.9375 116.26171875 C211.90397461 115.69541748 212.87044922 115.12911621 213.86621094 114.5456543 C214.90036133 113.93246338 215.93451172 113.31927246 217 112.6875 C218.61696777 111.73580933 218.61696777 111.73580933 220.26660156 110.76489258 C223.51495692 108.84974234 226.75844842 106.92664006 230 105 C230.86818359 104.484375 231.73636719 103.96875 232.63085938 103.4375 C240.68051897 98.64805015 248.6929606 93.79767792 256.6953125 88.9296875 C257.27861328 88.57487808 257.86191406 88.22006866 258.46289062 87.85450745 C259.05295898 87.49557907 259.64302734 87.1366507 260.25097656 86.7668457 C261.1453241 86.22285629 261.1453241 86.22285629 262.05773926 85.6678772 C263.27059431 84.93013919 264.48340346 84.19232571 265.69616699 83.45443726 C274.30238169 78.21990951 282.94731937 73.05627266 291.63232422 67.95336914 C299.13038363 63.53772384 306.56882054 59.02681013 314 54.5 C322.30062762 49.44355299 330.61980143 44.42399799 339 39.5 C347.35418635 34.58873229 355.65597619 29.59491299 363.9375 24.5625 C364.52505066 24.20593323 365.11260132 23.84936646 365.71795654 23.48199463 C372.10453564 19.6061338 378.47749321 15.71036866 384.82421875 11.76953125 C386.42052124 10.78327759 386.42052124 10.78327759 388.04907227 9.77709961 C390.06028534 8.53340082 392.06747674 7.28316867 394.07006836 6.02563477 C395.40050171 5.20470337 395.40050171 5.20470337 396.7578125 4.3671875 C397.5327002 3.88362793 398.30758789 3.40006836 399.10595703 2.90185547 C399.73099121 2.60424316 400.35602539 2.30663086 401 2 C401.66 2.33 402.32 2.66 403 3 C385.25413572 17.44538487 385.25413572 17.44538487 379.53515625 21.98046875 C377.6137054 23.51111604 375.70846778 25.05629218 373.80859375 26.61328125 C367.69534783 31.57672476 361.50779279 36.13119102 354.75 40.1875 C354.10587158 40.57413818 353.46174316 40.96077637 352.7980957 41.35913086 C348.27445797 44 348.27445797 44 346 44 C346.12246094 44.72574219 346.24492187 45.45148438 346.37109375 46.19921875 C346 49 346 49 343.41015625 51.45703125 C342.3061765 52.25884127 341.18964028 53.04358818 340.0625 53.8125 C339.21655273 54.42254883 339.21655273 54.42254883 338.35351562 55.04492188 C334.20647321 58 334.20647321 58 333 58 C333 56.35 333 54.7 333 53 C332.47043701 53.29769287 331.94087402 53.59538574 331.39526367 53.90209961 C328.99416434 55.24990512 326.59086631 56.59374141 324.1875 57.9375 C322.93743164 58.64036133 322.93743164 58.64036133 321.66210938 59.35742188 C320.85966797 59.80537109 320.05722656 60.25332031 319.23046875 60.71484375 C318.12288208 61.33540649 318.12288208 61.33540649 316.99291992 61.96850586 C315 63 315 63 312 64 C312.19142578 65.14275391 312.19142578 65.14275391 312.38671875 66.30859375 C312.72400118 69.81720705 312.76347016 72.54581336 312 76 C308.81742745 79.74696965 305.21854749 82.49167446 301 85 C300.34 85 299.68 85 299 85 C298.67 81.04 298.34 77.08 298 73 C296.08574219 74.19109375 296.08574219 74.19109375 294.1328125 75.40625 C292.46368559 76.43773292 290.79440688 77.46897026 289.125 78.5 C288.28324219 79.02464844 287.44148438 79.54929687 286.57421875 80.08984375 C285.36572266 80.83427734 285.36572266 80.83427734 284.1328125 81.59375 C283.38918457 82.05458984 282.64555664 82.51542969 281.87939453 82.99023438 C280 84 280 84 278 84 C278.19142578 85.90072266 278.19142578 85.90072266 278.38671875 87.83984375 C279.29396032 100.79694961 279.29396032 100.79694961 276.95263672 104.78320312 C274.13543675 107.91962378 270.74588771 110.12705614 267 112 C266.34 112 265.68 112 265 112 C265 105.73 265 99.46 265 93 C259.05081262 96.19768822 253.19380764 99.3916199 247.55859375 103.1171875 C246 104 246 104 244 104 C244.10211792 105.09501831 244.10211792 105.09501831 244.20629883 106.2121582 C246.00677256 128.39111945 246.00677256 128.39111945 241.59765625 133.7890625 C238.96495485 136.21323723 236.00700134 138.05986961 232.91259766 139.84033203 C229.55943963 141.87345695 226.60178041 144.40789182 223.5625 146.875 C222.44068285 147.749813 221.31705373 148.62230863 220.19140625 149.4921875 C217.97634312 151.20938496 215.83795605 152.99095203 213.71484375 154.8203125 C211 157 211 157 209 157 C209 157.99 209 158.98 209 160 C205.65184777 162.23210149 204.88428173 162.54478005 201 162 C198.36248636 160.67095188 195.93485717 159.30477715 193.4375 157.75 C192.69862549 157.30253418 191.95975098 156.85506836 191.19848633 156.39404297 C189.61211397 155.43271556 188.02845051 154.46690638 186.44726562 153.49707031 C183.20397936 151.51304883 179.94036988 149.56386669 176.67675781 147.61352539 C174.15717871 146.10686849 171.64064984 144.5952386 169.125 143.08203125 C163.98151311 139.98827107 158.83471999 136.90004398 153.6875 133.8125 C152.01692581 132.80989795 150.34635286 131.80729384 148.67578125 130.8046875 C145.79937135 129.0787247 142.92195239 127.35447847 140.04296875 125.6328125 C134.23402156 122.15707988 128.43891536 118.66146291 122.66967773 115.12011719 C114.34288797 110.00910941 105.95752958 105.00790124 97.53613281 100.05444336 C89.73603596 95.45694102 82.00219007 90.75559593 74.27709961 86.03344727 C67.81841242 82.09098807 61.32113318 78.22278164 54.7878418 74.40551758 C49.60051178 71.3695684 44.48336308 68.22968511 39.375 65.0625 C35.4440471 62.66025101 31.47602861 60.32659213 27.5 58 C20.27060652 53.76685599 13.0832281 49.47464616 6 45 C4.44551147 44.24420654 4.44551147 44.24420654 2.85961914 43.47314453 C-0 41 -0 41 -0.5252533 39.05789185 C-0.69604349 36.56485984 -0.67420556 34.13802257 -0.5859375 31.640625 C-0.57744781 30.73624695 -0.56895813 29.8318689 -0.56021118 28.90008545 C-0.52666085 26.01550443 -0.45138076 23.13373379 -0.375 20.25 C-0.34490241 18.29300916 -0.31752624 16.33597445 -0.29296875 14.37890625 C-0.22686431 9.58485698 -0.12333286 4.79290469 0 0 Z " fill="#175797" transform="translate(1,238)"/>
<path d="M0 0 C6.3656591 5.9804759 11.72669439 12.48815272 12.08178711 21.40087891 C12.24532423 30.05448699 11.47745873 35.84835411 5.6875 42.6875 C4.96240234 43.615625 4.96240234 43.615625 4.22265625 44.5625 C-7.61911424 58.06151572 -31.9311109 66.43904379 -49.3125 67.6875 C-80.56530697 69.1078847 -112.99472857 67.43761319 -137.375 45.25 C-143.46661677 38.66488516 -146.70593144 30.24925911 -146.58984375 21.375 C-145.71469603 12.89469534 -140.27723258 5.12933797 -133.97265625 -0.34375 C-99.21774292 -26.88200981 -34.22446068 -29.29166323 0 0 Z " fill="#3296D3" transform="translate(271.3125,52.3125)"/>
<path d="M0 0 C1.66869141 -0.00193359 1.66869141 -0.00193359 3.37109375 -0.00390625 C4.53769531 -0.00003906 5.70429687 0.00382812 6.90625 0.0078125 C8.07285156 0.00394531 9.23945312 0.00007813 10.44140625 -0.00390625 C11.55386719 -0.00261719 12.66632813 -0.00132813 13.8125 0 C14.83666016 0.00112793 15.86082031 0.00225586 16.91601562 0.00341797 C19.40625 0.1328125 19.40625 0.1328125 21.40625 1.1328125 C21.73625 21.2628125 22.06625 41.3928125 22.40625 62.1328125 C46.16625 62.1328125 69.92625 62.1328125 94.40625 62.1328125 C94.40625 42.0028125 94.40625 21.8728125 94.40625 1.1328125 C97.05453179 -0.1913284 99.07305112 0.00324208 102.03515625 0 C103.15212891 -0.00128906 104.26910156 -0.00257812 105.41992188 -0.00390625 C106.59103516 -0.00003906 107.76214844 0.00382812 108.96875 0.0078125 C110.14373047 0.00394531 111.31871094 0.00007813 112.52929688 -0.00390625 C113.64498047 -0.00261719 114.76066406 -0.00132813 115.91015625 0 C116.93955322 0.00112793 117.9689502 0.00225586 119.02954102 0.00341797 C121.40625 0.1328125 121.40625 0.1328125 122.40625 1.1328125 C122.50285952 3.05642877 122.52812168 4.98364316 122.52650452 6.90968323 C122.52856651 8.79230865 122.52856651 8.79230865 122.53067017 10.71296692 C122.52713055 12.11666894 122.52349574 13.52037072 122.51977539 14.92407227 C122.51949353 16.39218138 122.51965124 17.86029063 122.5202179 19.32839966 C122.5205059 23.32615907 122.51460874 27.32388874 122.50764394 31.32164121 C122.50141085 35.49501983 122.50080664 39.66839906 122.49961853 43.84178162 C122.49650508 51.75014042 122.48829151 59.65848547 122.47826904 67.5668382 C122.46710832 76.56789744 122.46159756 85.56895732 122.45657361 94.57002175 C122.44610891 113.09095981 122.4285092 131.61188505 122.40625 150.1328125 C117.92709672 150.16167588 113.44796709 150.17956437 108.96875 150.1953125 C107.68935547 150.20369141 106.40996094 150.21207031 105.09179688 150.22070312 C103.87685547 150.22392578 102.66191406 150.22714844 101.41015625 150.23046875 C99.72128296 150.23832397 99.72128296 150.23832397 97.99829102 150.24633789 C95.40625 150.1328125 95.40625 150.1328125 94.40625 149.1328125 C94.31233704 147.23037488 94.28881342 145.32442791 94.29272461 143.41967773 C94.29284546 142.18133179 94.29296631 140.94298584 94.29309082 139.66711426 C94.29820679 138.35513062 94.30332275 137.04314697 94.30859375 135.69140625 C94.30960083 134.49326294 94.31060791 133.29511963 94.31164551 132.06066895 C94.31689695 127.5638738 94.33085805 123.06709224 94.34375 118.5703125 C94.364375 108.5259375 94.385 98.4815625 94.40625 88.1328125 C70.31625 88.1328125 46.22625 88.1328125 21.40625 88.1328125 C21.4458622 108.16297723 21.4458622 108.16297723 21.49633789 128.19311523 C21.49925677 130.69254514 21.50180539 133.19197552 21.50390625 135.69140625 C21.50902222 137.00338989 21.51413818 138.31537354 21.51940918 139.66711426 C21.51953003 140.90546021 21.51965088 142.14380615 21.51977539 143.41967773 C21.521996 144.50111557 21.52421661 145.58255341 21.52650452 146.69676208 C21.40625 149.1328125 21.40625 149.1328125 20.40625 150.1328125 C18.41867972 150.23264308 16.4275748 150.26362003 14.4375 150.265625 C13.22707031 150.26691406 12.01664063 150.26820313 10.76953125 150.26953125 C9.49464844 150.26566406 8.21976563 150.26179687 6.90625 150.2578125 C4.99392578 150.26361328 4.99392578 150.26361328 3.04296875 150.26953125 C1.22732422 150.26759766 1.22732422 150.26759766 -0.625 150.265625 C-1.74455078 150.26449707 -2.86410156 150.26336914 -4.01757812 150.26220703 C-6.59375 150.1328125 -6.59375 150.1328125 -7.59375 149.1328125 C-7.69033904 147.22186311 -7.71562192 145.30729384 -7.71400452 143.39390564 C-7.71537918 142.14723618 -7.71675385 140.90056671 -7.71817017 139.61611938 C-7.71463056 138.22186256 -7.71099574 136.82760597 -7.70727539 135.43334961 C-7.70699353 133.97509259 -7.70715124 132.51683543 -7.7077179 131.05857849 C-7.7080059 127.08767765 -7.70210877 123.11680675 -7.69514394 119.14591289 C-7.68891081 115.00056149 -7.68830663 110.85520948 -7.68711853 106.70985413 C-7.68400509 98.85461923 -7.67579154 90.99939818 -7.66576904 83.14416939 C-7.65460829 74.20356851 -7.64909755 65.26296698 -7.64407361 56.32236087 C-7.63360893 37.92583689 -7.61600925 19.5293258 -7.59375 1.1328125 C-4.95377351 -0.18717575 -2.95297683 0.00325218 0 0 Z " fill="#1D61CF" transform="translate(1516.59375,123.8671875)"/>
<path d="M0 0 C2.20729099 1.24296708 4.37220133 2.5628824 6.5 3.9375 C10.29085957 6.37764442 13.82149723 8.34833985 18 10 C20.08448211 11.21298828 22.14558341 12.46665169 24.1875 13.75 C25.33590616 14.46229012 26.48434402 15.17452912 27.6328125 15.88671875 C29.74019232 17.20933184 31.84042772 18.5434766 33.9296875 19.89453125 C34.79851562 20.44496094 35.66734375 20.99539062 36.5625 21.5625 C37.32691406 22.05878906 38.09132813 22.55507812 38.87890625 23.06640625 C40.89365073 24.14435807 40.89365073 24.14435807 42.828125 23.8984375 C46.09544296 22.54684913 49.12906368 20.82333908 52.1875 19.0625 C52.88367432 18.66643555 53.57984863 18.27037109 54.29711914 17.86230469 C59.53708631 14.87004305 64.73937309 11.81418336 69.9375 8.75 C70.65349365 8.32944336 71.3694873 7.90888672 72.10717773 7.47558594 C75.05050682 5.74579188 77.98508745 4.00915683 80.89453125 2.22265625 C81.67183594 1.75730469 82.44914063 1.29195312 83.25 0.8125 C84.18585938 0.23435547 84.18585938 0.23435547 85.140625 -0.35546875 C87.77573905 -1.26890114 89.31250764 -0.73195348 92 0 C93.97532911 1.03427384 95.90758263 2.15262129 97.8046875 3.32421875 C98.35748383 3.66249191 98.91028015 4.00076508 99.47982788 4.34928894 C101.28277235 5.45481238 103.07898929 6.57075357 104.875 7.6875 C106.12038748 8.45585836 107.36615979 9.2235933 108.61230469 9.99072266 C110.51952164 11.16490492 112.42637012 12.33963977 114.3314209 13.51733398 C118.51620209 16.10125801 122.72749665 18.63326055 126.9609375 21.13671875 C128.0245752 21.76940674 129.08821289 22.40209473 130.18408203 23.05395508 C132.19860695 24.25051037 134.21770651 25.43940333 136.24169922 26.61987305 C137.13646973 27.15523682 138.03124023 27.69060059 138.953125 28.2421875 C139.73848633 28.7047998 140.52384766 29.16741211 141.33300781 29.64404297 C141.88311523 30.09150879 142.43322266 30.53897461 143 31 C143 31.99 143 32.98 143 34 C140.82641602 35.66308594 140.82641602 35.66308594 137.75390625 37.484375 C137.20077255 37.81644958 136.64763885 38.14852417 136.07774353 38.49066162 C134.2452999 39.58748306 132.40405268 40.66855445 130.5625 41.75 C129.27801654 42.51522071 127.99416911 43.28150998 126.7109375 44.04882812 C124.08034601 45.6196688 121.44633162 47.18450441 118.80908203 48.74414062 C113.35683419 51.96960196 107.92990601 55.23712332 102.5 58.5 C101.49517578 59.10199219 100.49035156 59.70398438 99.45507812 60.32421875 C92.08036814 64.74250605 84.72273939 69.18826863 77.37454224 73.65045166 C75.58384604 74.73704721 73.79191915 75.82158801 71.99975586 76.90576172 C66.77007604 80.07330212 61.55866298 83.26245265 56.40625 86.5546875 C55.57665771 87.0796582 54.74706543 87.60462891 53.89233398 88.14550781 C52.39163422 89.09848283 50.898261 90.0631456 49.41430664 91.04199219 C44.63283501 94.06436035 44.63283501 94.06436035 41.53222656 93.74902344 C39.02420922 93.007161 37.23392331 92.13722545 35.04296875 90.7265625 C34.27702393 90.24147217 33.5110791 89.75638184 32.72192383 89.2565918 C31.88556396 88.7181665 31.0492041 88.17974121 30.1875 87.625 C20.98915823 81.81357115 11.68217752 76.21575443 2.3125 70.6875 C-8.86368118 64.08636182 -19.95485102 57.36897597 -30.98852539 50.53198242 C-40.21689819 44.82877648 -49.57027194 39.36244777 -59 34 C-57.59507703 30.55551012 -56.19247759 29.18615156 -52.9765625 27.36328125 C-52.13319336 26.87633789 -51.28982422 26.38939453 -50.42089844 25.88769531 C-49.49825195 25.36788086 -48.57560547 24.84806641 -47.625 24.3125 C-45.64209539 23.16993415 -43.66038556 22.02529301 -41.6796875 20.87890625 C-40.61202148 20.26289551 -39.54435547 19.64688477 -38.44433594 19.01220703 C-32.1622471 15.34216336 -25.95984936 11.54055917 -19.75 7.75 C-17.91461099 6.63034677 -16.07903133 5.51101149 -14.2428894 4.39259338 C-12.64409538 3.41860202 -11.04614134 2.4432322 -9.44824219 1.46777344 C-5.61028908 -0.83316135 -4.35900774 -1.26729579 0 0 Z " fill="#3C6AB2" transform="translate(162,204)"/>
<path d="M0 0 C0.32524578 9.88312032 0.57354891 19.76495719 0.72537041 29.65235043 C0.7982663 34.24452905 0.89699138 38.83303288 1.05615234 43.4230957 C1.2089756 47.85845619 1.29210755 52.29029948 1.3282814 56.72809029 C1.3540328 58.41540502 1.40433389 60.10253937 1.48022079 61.78834343 C2.03509845 74.63288492 2.03509845 74.63288492 -1.35943031 78.5812149 C-5.19015249 81.81533814 -9.47965518 83.89363558 -14 86 C-15.69569147 86.97057804 -17.38463874 87.95333345 -19.05859375 88.9609375 C-20.51553567 89.77049155 -21.97507998 90.57538433 -23.4375 91.375 C-24.17419922 91.78621094 -24.91089844 92.19742188 -25.66992188 92.62109375 C-28.91336217 94.41117349 -32.09951554 96.04212825 -35.515625 97.48828125 C-39.66394971 99.2880589 -43.44176684 101.48717476 -47.3125 103.8125 C-48.06450684 104.25972412 -48.81651367 104.70694824 -49.59130859 105.16772461 C-51.73007012 106.44097266 -53.86550275 107.71962015 -56 109 C-56.92425781 109.55171875 -57.84851563 110.1034375 -58.80078125 110.671875 C-61.78045966 112.45467418 -64.75418226 114.247223 -67.72607422 116.04296875 C-69.6707435 117.21748686 -71.61661195 118.39000243 -73.5625 119.5625 C-74.46476318 120.10886108 -74.46476318 120.10886108 -75.38525391 120.66625977 C-79.39887784 123.08322309 -83.46365244 125.38976917 -87.56518555 127.65405273 C-99.64814207 134.33342096 -111.69966065 141.08668761 -123.48291016 148.28417969 C-126.27237284 149.98569427 -129.06745531 151.5614451 -132 153 C-132.74776445 143.292786 -133.31270986 133.59566176 -133.6579895 123.86577129 C-133.82394179 119.34383317 -134.04749566 114.84176348 -134.4140625 110.33129883 C-136.65486458 82.02521462 -136.65486458 82.02521462 -130.60015488 74.18805313 C-123.24150563 66.80804733 -113.37732991 62.55481041 -103.87271118 58.64245605 C-98.61067066 56.46780461 -93.73583257 53.65585347 -88.8125 50.8125 C-87.25771592 49.96413813 -85.70081004 49.11963777 -84.140625 48.28125 C-78.28164391 45.08641676 -72.6392809 41.56710419 -67 38 C-58.82104729 32.82643674 -50.51814101 28.04856588 -42.01757812 23.4296875 C-34.49831842 19.32314506 -27.12211004 14.99500298 -19.77368164 10.59106445 C-2.05398399 0 -2.05398399 0 0 0 Z " fill="#3095D3" transform="translate(337,76)"/>
<path d="M0 0 C1.19431641 -0.01611328 2.38863281 -0.03222656 3.61914062 -0.04882812 C23.73132753 -0.05977651 40.39928034 7.70542592 55.08984375 21.15234375 C63.59444865 29.9103447 71.92859136 43.56935898 72.26171875 56.10546875 C72.23722656 56.83378906 72.21273437 57.56210938 72.1875 58.3125 C69.60855432 59.60197284 67.7322811 59.4419785 64.84765625 59.4453125 C63.78482422 59.44660156 62.72199219 59.44789063 61.62695312 59.44921875 C60.51255859 59.44535156 59.39816406 59.44148438 58.25 59.4375 C57.13947266 59.44136719 56.02894531 59.44523437 54.88476562 59.44921875 C53.28858398 59.44728516 53.28858398 59.44728516 51.66015625 59.4453125 C50.68312744 59.44418457 49.70609863 59.44305664 48.69946289 59.44189453 C46.1875 59.3125 46.1875 59.3125 43.1875 58.3125 C42.08203125 55.94140625 42.08203125 55.94140625 41 52.875 C36.83662228 42.4541647 30.58391532 34.85623 20.1875 30.3125 C16.22838901 28.96629626 12.30130477 28.04825882 8.1875 27.3125 C7.30320312 27.14621094 6.41890625 26.97992188 5.5078125 26.80859375 C-7.56450058 24.96605704 -20.03937458 29.00373106 -30.8125 36.3125 C-40.65396451 44.28775487 -46.17039984 54.82831585 -48.5625 67.1875 C-48.67736074 68.56022592 -48.75656908 69.936113 -48.8125 71.3125 C-48.85246094 72.28960937 -48.89242187 73.26671875 -48.93359375 74.2734375 C-49.26601823 90.73822623 -45.86393021 103.96469627 -34.234375 116.12109375 C-23.72499873 125.63038422 -11.12641741 128.66938311 2.74609375 128.52734375 C14.47289349 127.79525069 26.04261414 123.61536936 34.2265625 114.98046875 C38.43940636 109.24865131 41.18821416 102.73954109 44.1875 96.3125 C53.4275 96.3125 62.6675 96.3125 72.1875 96.3125 C71.47364123 103.45108772 70.98167068 108.08280968 68.125 114.25 C67.66081665 115.27468384 67.66081665 115.27468384 67.18725586 116.32006836 C59.15588144 133.41711522 45.80395441 143.97513173 28.59765625 151.171875 C19.18853831 154.31902556 10.42984307 155.8714109 0.5 155.8125 C-0.6334082 155.80677979 -1.76681641 155.80105957 -2.93457031 155.79516602 C-12.57952104 155.59166002 -20.93437648 154.04000969 -29.8125 150.3125 C-30.43543945 150.05549316 -31.05837891 149.79848633 -31.70019531 149.53369141 C-50.22416208 141.65495985 -64.91175263 126.96161419 -73.0234375 108.56640625 C-74.07607748 105.83983126 -74.97274385 103.11168718 -75.8125 100.3125 C-76.1115625 99.36375 -76.410625 98.415 -76.71875 97.4375 C-82.52174665 76.37477144 -78.41239789 55.66321386 -67.81640625 37.00292969 C-65.49275652 33.09024712 -62.8829176 29.66371126 -59.8125 26.3125 C-58.98878906 25.40886719 -58.16507813 24.50523437 -57.31640625 23.57421875 C-41.61531682 7.11591366 -22.51074296 -0.06015698 0 0 Z " fill="#1F62CF" transform="translate(578.8125,121.6875)"/>
<path d="M0 0 C1.16015625 -0.020625 2.3203125 -0.04125 3.515625 -0.0625 C23.24982668 -0.1507962 40.13645014 7.4597792 54.45703125 20.78125 C64.31725596 30.84855536 71.80874751 43.87320931 71.875 58.25 C69.35708905 59.50895547 67.60430725 59.37938941 64.7890625 59.3828125 C63.77585937 59.38410156 62.76265625 59.38539063 61.71875 59.38671875 C60.6565625 59.38285156 59.594375 59.37898438 58.5 59.375 C56.91832031 59.38080078 56.91832031 59.38080078 55.3046875 59.38671875 C54.28890625 59.38542969 53.273125 59.38414062 52.2265625 59.3828125 C51.29666504 59.38168457 50.36676758 59.38055664 49.40869141 59.37939453 C47.05418331 59.25915081 45.09497131 59.03819624 42.875 58.25 C41.8203125 56.28125 41.8203125 56.28125 41 53.75 C37.88625229 45.26897511 33.31232439 38.47536153 25.875 33.25 C25.33875 32.87101562 24.8025 32.49203125 24.25 32.1015625 C13.03531403 25.44284271 -1.84352366 25.26187294 -14.125 28.25 C-26.83578037 32.06934506 -36.68101242 39.59179346 -43.125 51.25 C-49.93506694 65.94913151 -51.31891406 81.40845783 -46.2421875 96.953125 C-44.39297189 101.81641646 -42.26262523 106.06649969 -39.125 110.25 C-38.42375 111.219375 -37.7225 112.18875 -37 113.1875 C-29.40432243 122.01052791 -18.47864112 126.72942306 -7.125 128.25 C6.45658064 128.99112686 19.2080056 127.15597267 30.2578125 118.703125 C37.06097886 112.59013494 40.27042192 104.48903562 43.875 96.25 C53.115 96.25 62.355 96.25 71.875 96.25 C74.0881396 102.88941881 69.17422422 112.47467698 66.296875 118.62109375 C57.39051531 134.62340824 43.31548025 146.52035952 25.75 151.9375 C24.13030932 152.39426398 22.50442209 152.82926862 20.875 153.25 C19.70324219 153.59933594 18.53148437 153.94867188 17.32421875 154.30859375 C-3.53581212 159.46021194 -25.11438012 153.96659937 -43.125 143.25 C-46.31398192 141.09845209 -49.22677216 138.77387341 -52.125 136.25 C-52.723125 135.79367187 -53.32125 135.33734375 -53.9375 134.8671875 C-68.29308714 123.65188505 -76.37728348 104.07752128 -78.7734375 86.4921875 C-81.18072101 64.29168406 -74.16504982 44.0337123 -60.39355469 26.77490234 C-53.5092381 18.49941324 -45.89246269 12.93873298 -36.3125 8.1875 C-35.60689941 7.83679443 -34.90129883 7.48608887 -34.17431641 7.12475586 C-22.73157671 1.52704864 -12.71356191 0.05539678 0 0 Z " fill="#1E62CF" transform="translate(1405.125,121.75)"/>
<path d="M0 0 C13.28187409 -0.02312079 26.56374343 -0.04091374 39.84563351 -0.05181217 C46.0122492 -0.05704158 52.17885118 -0.06414027 58.34545898 -0.07543945 C64.29116006 -0.08626629 70.23684789 -0.0922764 76.18255806 -0.09487724 C78.45646943 -0.09673186 80.73038004 -0.10035317 83.00428581 -0.10573006 C86.1772712 -0.11293778 89.35020117 -0.11399106 92.52319336 -0.11352539 C93.47337341 -0.11712067 94.42355347 -0.12071594 95.40252686 -0.12442017 C101.88594784 -0.11405216 101.88594784 -0.11405216 103 1 C103.09946453 2.76859193 103.13080217 4.54111451 103.1328125 6.3125 C103.13410156 7.38757813 103.13539062 8.46265625 103.13671875 9.5703125 C103.13285156 10.70210937 103.12898438 11.83390625 103.125 13 C103.12886719 14.13179687 103.13273437 15.26359375 103.13671875 16.4296875 C103.13542969 17.50476563 103.13414063 18.57984375 103.1328125 19.6875 C103.13168457 20.68136719 103.13055664 21.67523438 103.12939453 22.69921875 C103 25 103 25 102 26 C99.69946165 26.09443335 97.39597827 26.11742128 95.09350586 26.11352539 C94.37159561 26.11367142 93.64968536 26.11381744 92.90589905 26.1139679 C90.50885053 26.11326869 88.11187877 26.10547595 85.71484375 26.09765625 C84.05717511 26.0957921 82.39950593 26.09436818 80.74183655 26.09336853 C76.37045786 26.08954312 71.99911219 26.07971265 67.62774658 26.06866455 C62.38732333 26.05665641 57.14688906 26.0520483 51.90645599 26.04621124 C43.93761434 26.0365009 35.96884518 26.01734452 28 26 C28 37.88 28 49.76 28 62 C32.53621094 61.98839844 37.07242187 61.97679687 41.74609375 61.96484375 C44.61263163 61.95973677 47.47916394 61.95492299 50.34570312 61.95117188 C54.89983275 61.94518427 59.45394235 61.93808617 64.00805664 61.92456055 C67.67792544 61.9137288 71.34777278 61.90772256 75.01765633 61.90512276 C76.42074992 61.90326903 77.82384229 61.8996494 79.2269268 61.89426994 C81.1856968 61.88705581 83.1444882 61.88659191 85.10327148 61.88647461 C86.22023911 61.884254 87.33720673 61.88203339 88.48802185 61.87974548 C91 62 91 62 92 63 C92.08713831 64.70772358 92.10700007 66.41898649 92.09765625 68.12890625 C92.09282227 69.68061523 92.09282227 69.68061523 92.08789062 71.26367188 C92.07532227 72.8965918 92.07532227 72.8965918 92.0625 74.5625 C92.05798828 75.65498047 92.05347656 76.74746094 92.04882812 77.87304688 C92.03699826 80.58208495 92.02051543 83.29101599 92 86 C89.29710692 87.35144654 87.19930194 87.11975165 84.17333984 87.11352539 C82.95222504 87.11344986 81.73111023 87.11337433 80.47299194 87.11329651 C79.13564005 87.10818952 77.79828857 87.10297352 76.4609375 87.09765625 C75.09616141 87.0957914 73.73138466 87.09436781 72.36660767 87.09336853 C68.77284907 87.08954863 65.17913083 87.07972283 61.58538818 87.06866455 C57.91891028 87.05843911 54.25242566 87.05381373 50.5859375 87.04882812 C43.39058935 87.03863064 36.19535204 87.01905773 29 87 C29 99.21 29 111.42 29 124 C36.76144531 123.98259766 36.76144531 123.98259766 44.6796875 123.96484375 C47.95182417 123.95973604 51.22395594 123.9549222 54.49609375 123.95117188 C59.69320696 123.94518712 64.8903026 123.93809657 70.08740234 123.92456055 C74.27598387 123.91371915 78.46454656 123.90772049 82.65314102 123.90512276 C84.25357485 123.90327078 85.8540076 123.89965448 87.45443344 123.89426994 C89.69083661 123.8870429 91.92716131 123.88600977 94.16357422 123.88647461 C95.43820526 123.884254 96.7128363 123.88203339 98.02609253 123.87974548 C101 124 101 124 103 125 C103.02886751 129.14581887 103.04675327 133.29161216 103.0625 137.4375 C103.07087891 138.62150391 103.07925781 139.80550781 103.08789062 141.02539062 C103.09111328 142.15009766 103.09433594 143.27480469 103.09765625 144.43359375 C103.10289307 145.47572021 103.10812988 146.51784668 103.11352539 147.59155273 C103 150 103 150 102 151 C98.86976516 151.10068417 95.7615508 151.1361416 92.63085938 151.12939453 C91.64720901 151.13114685 90.66355865 151.13289917 89.65010071 151.13470459 C86.38129947 151.13912505 83.11255184 151.13618443 79.84375 151.1328125 C77.58312978 151.13348548 75.32250962 151.13445546 73.06188965 151.13571167 C68.31713168 151.13718891 63.57239251 151.13503326 58.82763672 151.13037109 C52.73061376 151.1246738 46.63363481 151.12795266 40.53661346 151.13394356 C35.86651271 151.13754848 31.19642247 151.1364109 26.52632141 151.13381577 C24.27753189 151.1331463 22.02874143 151.13397558 19.779953 151.13629532 C16.64298962 151.13882071 13.50609859 151.13498285 10.36914062 151.12939453 C9.42988235 151.13141876 8.49062408 151.13344299 7.52290344 151.13552856 C1.11426225 151.11426225 1.11426225 151.11426225 0 150 C-0.09662973 148.063717 -0.12187144 146.12385738 -0.12025452 144.18516541 C-0.12162918 142.92166763 -0.12300385 141.65816986 -0.12442017 140.35638428 C-0.12088055 138.94323707 -0.11724574 137.5300901 -0.11352539 136.11694336 C-0.11324353 134.63898216 -0.11340124 133.16102081 -0.1139679 131.68305969 C-0.1142559 127.65844172 -0.1083587 123.63385328 -0.10139394 119.6092422 C-0.09516088 115.40783635 -0.09455664 111.2064299 -0.09336853 107.00502014 C-0.09025507 99.04353743 -0.08204149 91.08206838 -0.07201904 83.1205917 C-0.06085836 74.05907411 -0.05534757 64.99755588 -0.05032361 55.93603313 C-0.03985888 37.290681 -0.02225916 18.64534159 0 0 Z " fill="#1E62CF" transform="translate(1202,124)"/>
<path d="M0 0 C3.52351708 1.64000309 6.76986166 3.6923177 10.0625 5.75 C12.0499311 6.95843056 14.03823268 8.16543049 16.02734375 9.37109375 C17.03007324 9.9832373 18.03280273 10.59538086 19.06591797 11.22607422 C23.37579028 13.83179332 27.7443437 16.32821689 32.125 18.8125 C33.84245483 19.79035244 35.55990251 20.76821745 37.27734375 21.74609375 C38.17952637 22.25897949 39.08170898 22.77186523 40.01123047 23.30029297 C45.28842259 26.30142118 50.56217062 29.30857403 55.83465576 32.31796265 C57.63352516 33.34420765 59.43318653 34.36905286 61.23291016 35.39379883 C67.10837673 38.74621144 72.94162982 42.15282706 78.73168945 45.65039062 C82.19060967 47.70839418 85.71761383 49.63435424 89.25 51.5625 C96.44689186 55.526129 103.55310173 59.63013702 110.625 63.8125 C111.53668945 64.35140869 112.44837891 64.89031738 113.38769531 65.44555664 C118.63678762 68.56166144 123.83641057 71.7441703 129 75 C126.99716447 77.14260367 125.12480584 78.64057121 122.54296875 80.0234375 C121.85436768 80.39766846 121.1657666 80.77189941 120.45629883 81.1574707 C119.70759521 81.55925537 118.9588916 81.96104004 118.1875 82.375 C111.14401191 86.21814036 104.20383654 90.20301571 97.3125 94.3125 C88.57038365 99.52229949 79.75027492 104.5745097 70.85083008 109.51098633 C65.78799821 112.33955957 60.93418919 115.33262454 56.13793945 118.59106445 C52.78265381 120.80225018 49.28087736 122.71159689 45.75 124.625 C44.17391588 125.49116333 42.59841962 126.35839697 41.0234375 127.2265625 C39.79705566 127.90187012 39.79705566 127.90187012 38.54589844 128.59082031 C34.1384303 131.03039704 29.75375315 133.50932208 25.375 136 C24.05665161 136.74697144 24.05665161 136.74697144 22.71166992 137.5090332 C18.50937243 139.91040179 14.37368976 142.36744336 10.32421875 145.01953125 C9.60121582 145.49068359 8.87821289 145.96183594 8.13330078 146.44726562 C6.79436325 147.32999832 5.46503969 148.22756806 4.14794922 149.14257812 C1.29820723 151.02540196 -0.42471302 152.04392693 -3.8840332 151.77978516 C-7.0996268 150.97506793 -9.37149303 149.8968089 -12.203125 148.19140625 C-13.17435303 147.61422852 -14.14558105 147.03705078 -15.14624023 146.44238281 C-16.17048096 145.82202148 -17.19472168 145.20166016 -18.25 144.5625 C-20.41185001 143.27581288 -22.57461825 141.99066734 -24.73828125 140.70703125 C-25.80256348 140.07361816 -26.8668457 139.44020508 -27.96337891 138.78759766 C-32.07990544 136.36428143 -36.24851132 134.04506088 -40.4375 131.75 C-46.98470731 128.14947677 -53.44526178 124.42273249 -59.87524414 120.6171875 C-68.29109989 115.63643523 -76.74294707 110.72362344 -85.375 106.125 C-90.03144662 103.61504497 -94.47671281 100.83644753 -98.9375 98 C-104.41120451 94.52550425 -109.90760583 91.44999085 -115.76171875 88.6484375 C-122.69846089 85.11730941 -129.32663439 81.00085664 -136 77 C-134.73708043 73.2112413 -133.73055843 73.06020469 -130.24609375 71.29296875 C-123.70233719 67.86860332 -117.39579901 64.10882646 -111.0625 60.3125 C-102.11343367 54.96893257 -93.10307434 49.77474252 -83.94018555 44.80419922 C-77.97740734 41.5629067 -72.12316571 38.16673231 -66.29052734 34.69775391 C-61.24314617 31.70535253 -56.13966704 28.83059725 -51 26 C-42.97072388 21.57348229 -35.05882064 16.96896555 -27.17480469 12.28955078 C-23.30890812 9.9972668 -19.43555744 7.71765615 -15.5625 5.4375 C-14.83409912 5.00759766 -14.10569824 4.57769531 -13.35522461 4.13476562 C-5.26173773 -0.63352026 -5.26173773 -0.63352026 0 0 Z M-33 35 C-33.71212646 35.135271 -34.42425293 35.27054199 -35.15795898 35.40991211 C-51.54474141 38.80442633 -69.10567746 46.86811108 -78.81640625 61.0078125 C-83.10084664 68.21924682 -84.3405743 75.26234198 -82.4140625 83.5078125 C-78.133845 96.03432058 -67.41976167 104.19061539 -56 110 C-29.44702888 122.42386722 6.76624594 125.07688173 34.55859375 115.453125 C49.73739084 109.94617387 65.86138261 102.86775752 73.9921875 88 C76.45242174 80.67651202 76.51160781 72.25550459 73.921875 64.96484375 C72.47534241 62.39367182 70.91101139 60.24461467 69 58 C68.443125 57.30777344 67.88625 56.61554687 67.3125 55.90234375 C54.43151384 41.49451656 31.73672774 34.28371167 13 33 C7.39505998 32.78243699 1.79630124 32.70416898 -3.8125 32.6875 C-4.51583466 32.68373352 -5.21916931 32.67996704 -5.94381714 32.67608643 C-15.11582052 32.65121229 -23.96730728 33.26895196 -33 35 Z " fill="#B7F2EF" transform="translate(208,0)"/>
<path d="M0 0 C1.11568359 -0.00128906 2.23136719 -0.00257812 3.38085938 -0.00390625 C5.14333008 0.00189453 5.14333008 0.00189453 6.94140625 0.0078125 C8.11251953 0.00394531 9.28363281 0.00007813 10.49023438 -0.00390625 C12.16569336 -0.00197266 12.16569336 -0.00197266 13.875 0 C14.9055249 0.00112793 15.9360498 0.00225586 16.99780273 0.00341797 C19.50390625 0.1328125 19.50390625 0.1328125 21.50390625 1.1328125 C21.50533127 2.33169601 21.50675629 3.53057953 21.50822449 4.76579285 C21.52495153 16.10807496 21.56789905 27.45000093 21.63599682 38.79209423 C21.67017157 44.62210848 21.69536201 50.4518633 21.69946289 56.28198242 C21.70376621 61.91676786 21.73239739 67.55096903 21.77733803 73.18557167 C21.79024817 75.32672017 21.79464393 77.46793881 21.79006004 79.60912132 C21.76874722 92.59687133 21.80207224 104.54354945 29.69140625 115.5703125 C38.35086036 123.46003735 47.43371958 126.63476213 59.03515625 126.3125 C68.20874343 125.6448022 75.97274196 122.65547554 82.5859375 116.0546875 C90.73604273 106.24024499 91.6305605 95.20211621 91.69335938 82.88696289 C91.70165268 81.99982605 91.70994598 81.11268921 91.7184906 80.19866943 C91.73578667 78.28736642 91.75098114 76.37604343 91.76426697 74.46470833 C91.78541506 71.44349455 91.81242147 68.42238248 91.84094238 65.40122986 C91.91052061 57.90730916 91.97035019 50.41331703 92.02996826 42.91931152 C92.08081021 36.56774232 92.13556396 30.21623162 92.19578552 23.86474419 C92.2224228 20.88161304 92.24318894 17.8984765 92.26379395 14.91529846 C92.28038535 13.10116305 92.29725615 11.28703016 92.31445312 9.47290039 C92.31863754 8.63814682 92.32282196 7.80339325 92.32713318 6.94334412 C92.39004648 1.24667227 92.39004648 1.24667227 93.50390625 0.1328125 C95.41848907 0.03309464 97.33672942 0.00200661 99.25390625 0 C100.41921875 -0.00128906 101.58453125 -0.00257812 102.78515625 -0.00390625 C104.01234375 -0.00003906 105.23953125 0.00382812 106.50390625 0.0078125 C108.3446875 0.00201172 108.3446875 0.00201172 110.22265625 -0.00390625 C111.970625 -0.00197266 111.970625 -0.00197266 113.75390625 0 C114.8315625 0.00112793 115.90921875 0.00225586 117.01953125 0.00341797 C119.50390625 0.1328125 119.50390625 0.1328125 120.50390625 1.1328125 C120.60993883 4.2207407 120.65068035 7.28642399 120.64916992 10.375 C120.65252853 11.34580002 120.65588715 12.31660004 120.65934753 13.31681824 C120.66889549 16.54716247 120.67080307 19.77745501 120.671875 23.0078125 C120.67508673 25.2492678 120.67845073 27.49072288 120.68196106 29.73217773 C120.6879632 34.44336431 120.68980003 39.15453252 120.68920898 43.86572266 C120.68910771 49.89024671 120.70271874 55.91465197 120.71998119 61.93914795 C120.73112944 66.57526179 120.73312726 71.21134727 120.73259926 75.84747314 C120.7337767 78.06732591 120.73818521 80.28717948 120.74593163 82.50701904 C120.75578109 85.6232518 120.75283306 88.7392315 120.74682617 91.85546875 C120.75244568 92.76596481 120.75806519 93.67646088 120.76385498 94.61454773 C120.68734786 110.31467254 114.55055337 124.82265985 103.81640625 136.2578125 C96.23151653 143.4966236 87.5201935 148.18520217 77.50390625 151.1328125 C76.32441406 151.48988281 75.14492188 151.84695313 73.9296875 152.21484375 C60.30721371 155.53196817 43.40829105 154.5334742 30.50390625 149.1328125 C28.94349609 148.49666016 28.94349609 148.49666016 27.3515625 147.84765625 C19.87939968 144.46492428 14.25096237 139.92993008 8.50390625 134.1328125 C7.54871094 133.24529297 7.54871094 133.24529297 6.57421875 132.33984375 C-3.59309618 122.10474672 -6.65538239 107.89425012 -6.62548828 94.01245117 C-6.6272406 93.00856354 -6.62899292 92.0046759 -6.63079834 90.97036743 C-6.63518747 87.66382095 -6.63229032 84.35732824 -6.62890625 81.05078125 C-6.62957987 78.75246673 -6.63055038 76.45415229 -6.63180542 74.15583801 C-6.63327818 69.34680501 -6.63114036 64.53779061 -6.62646484 59.72875977 C-6.62075175 53.55004755 -6.6240592 47.37137861 -6.63003731 41.19266796 C-6.63364061 36.45137706 -6.63250568 31.71009652 -6.62990952 26.96880531 C-6.62924043 24.68931384 -6.63006801 22.40982143 -6.63238907 20.13033104 C-6.63491353 16.95559545 -6.63107867 13.7809314 -6.62548828 10.60620117 C-6.62751251 9.65609665 -6.62953674 8.70599213 -6.63162231 7.72709656 C-6.60629113 0.00723864 -6.60629113 0.00723864 0 0 Z " fill="#1C60CF" transform="translate(687.49609375,123.8671875)"/>
<path d="M0 0 C0.95769791 -0.00281982 1.91539581 -0.00563965 2.90211487 -0.00854492 C3.96136169 -0.00652069 5.02060852 -0.00449646 6.11195374 -0.00241089 C7.22079422 -0.00416321 8.3296347 -0.00591553 9.47207642 -0.00772095 C13.15812215 -0.01214246 16.84412036 -0.00920022 20.53016663 -0.00582886 C23.07985442 -0.00650186 25.62954216 -0.00747185 28.17922974 -0.00872803 C33.5318112 -0.01020545 38.88437545 -0.00814385 44.23695374 -0.00338745 C50.43025599 0.00205239 56.62352531 0.00029452 62.81682676 -0.00521386 C68.76647335 -0.01029431 74.71610968 -0.00976194 80.66575813 -0.00683212 C83.20120307 -0.00616306 85.73664885 -0.00699057 88.27209282 -0.00931168 C91.81118396 -0.01183995 95.35021113 -0.00799494 98.88929749 -0.00241089 C99.94652008 -0.00443512 101.00374268 -0.00645935 102.09300232 -0.00854492 C103.05352005 -0.0057251 104.01403778 -0.00290527 105.00366211 0 C105.84119491 0.00037703 106.6787277 0.00075405 107.54164028 0.0011425 C109.56532288 0.12698364 109.56532288 0.12698364 111.56532288 1.12698364 C111.59419271 5.10613523 111.61207694 9.08526018 111.62782288 13.06448364 C111.63620178 14.20079224 111.64458069 15.33710083 111.6532135 16.50784302 C111.65643616 17.58743286 111.65965881 18.66702271 111.66297913 19.77932739 C111.66821594 20.77955933 111.67345276 21.77979126 111.67884827 22.81033325 C111.56532288 25.12698364 111.56532288 25.12698364 110.56532288 26.12698364 C96.04532288 26.12698364 81.52532288 26.12698364 66.56532288 26.12698364 C66.56532288 67.04698364 66.56532288 107.96698364 66.56532288 150.12698364 C57.32532288 150.12698364 48.08532288 150.12698364 38.56532288 150.12698364 C38.56532288 109.20698364 38.56532288 68.28698364 38.56532288 26.12698364 C24.04532288 26.12698364 9.52532288 26.12698364 -5.43467712 26.12698364 C-5.45530212 22.02260864 -5.47592712 17.91823364 -5.49717712 13.68948364 C-5.50628113 12.39341187 -5.51538513 11.09734009 -5.52476501 9.76199341 C-5.52726257 8.74935425 -5.52976013 7.73671509 -5.53233337 6.69338989 C-5.53757019 5.65126343 -5.54280701 4.60913696 -5.54820251 3.53543091 C-5.3531276 -0.60309383 -3.68992224 0.00166181 0 0 Z " fill="#1C60CF" transform="translate(1061.4346771240234,123.87301635742188)"/>
<path d="M0 0 C0.33 0 0.66 0 1 0 C1 14.19 1 28.38 1 43 C-6.92 47.455 -6.92 47.455 -15 52 C-18.14128954 53.91618662 -21.28248357 55.83272183 -24.40625 57.77734375 C-28.82600652 60.52321886 -33.28793907 63.19860813 -37.75 65.875 C-39.03161011 66.64372437 -39.03161011 66.64372437 -40.33911133 67.42797852 C-45.85540098 70.7304632 -51.39008024 74.00013712 -56.9375 77.25 C-62.81733823 80.69514916 -68.64015728 84.21941846 -74.43359375 87.80859375 C-81.4544483 92.1408704 -88.55392535 96.34558955 -95.6328125 100.58203125 C-97.70461857 101.8230636 -99.77479401 103.06672437 -101.84375 104.3125 C-107.38116125 107.64525737 -112.92701289 110.96129048 -118.5 114.234375 C-119.47018066 114.80486572 -120.44036133 115.37535645 -121.43994141 115.96313477 C-123.34189133 117.08054221 -125.24513353 118.19575414 -127.14990234 119.30834961 C-132.23204266 122.2947191 -137.17365121 125.4148657 -142.05664062 128.71606445 C-144.32282307 130.21328223 -146.64761966 131.50829191 -149.0625 132.75 C-153.60534817 135.17829039 -157.96394486 137.8085965 -162.3125 140.5625 C-169.04180708 144.81485289 -175.84207282 148.93720258 -182.6875 153 C-183.63214111 153.56404541 -184.57678223 154.12809082 -185.55004883 154.70922852 C-186.89232544 155.5028479 -186.89232544 155.5028479 -188.26171875 156.3125 C-189.05537842 156.78300781 -189.84903809 157.25351562 -190.66674805 157.73828125 C-193.05544838 159.02998402 -195.46132959 160.04156544 -198 161 C-198 160.34 -198 159.68 -198 159 C-196.03612453 157.31536307 -194.06193284 155.74479468 -192 154.1875 C-190.72031223 153.20317602 -189.44171079 152.21743852 -188.1640625 151.23046875 C-187.48762695 150.70888184 -186.81119141 150.18729492 -186.11425781 149.64990234 C-181.79652333 146.28047398 -177.57104552 142.79635894 -173.33203125 139.32885742 C-172.69394531 138.80783447 -172.05585938 138.28681152 -171.3984375 137.75 C-170.83817871 137.29109375 -170.27791992 136.8321875 -169.70068359 136.359375 C-168 135 -168 135 -165.78613281 133.67773438 C-163.72971131 132.11351899 -163.72971131 132.11351899 -163.73974609 129.44726562 C-163.83336426 128.44373047 -163.92698242 127.44019531 -164.0234375 126.40625 C-164.99759749 108.62589212 -164.99759749 108.62589212 -161.25195312 103.70214844 C-156.04310402 99.29377349 -148.9745814 95 -142 95 C-142 101.27 -142 107.54 -142 114 C-135.16186996 110.44905441 -135.16186996 110.44905441 -130 105 C-129.48586157 101.86703732 -129.7644757 98.8424734 -130 95.6875 C-130.21194746 92.21427465 -130.21801547 89.28779982 -129 86 C-123.66778118 80.40224312 -116.07214469 76.92618916 -109 74 C-108.67 74 -108.34 74 -108 74 C-108 78.29 -108 82.58 -108 87 C-106.411875 85.700625 -104.82375 84.40125 -103.1875 83.0625 C-98.375 79.125 -98.375 79.125 -95 78 C-95.22042969 77.26136719 -95.44085938 76.52273438 -95.66796875 75.76171875 C-96.32874454 71.85171466 -96.38613547 69.76113393 -95 66 C-90.13750005 61.62724825 -80.7351224 55 -74 55 C-73.505 56.98 -73.505 56.98 -73 59 C-71.95199219 58.13375 -71.95199219 58.13375 -70.8828125 57.25 C-69.97273437 56.5075 -69.06265625 55.765 -68.125 55 C-67.22007812 54.2575 -66.31515625 53.515 -65.3828125 52.75 C-63 51 -63 51 -61 51 C-61.1546875 50.2678125 -61.309375 49.535625 -61.46875 48.78125 C-61.23671875 47.40453125 -61.23671875 47.40453125 -61 46 C-58.50303875 44.24471041 -56.19372592 42.88483134 -53.5 41.5 C-44.82610197 36.73090272 -37.48487325 31.02613697 -29.95410156 24.64355469 C-26.76222608 21.95893378 -23.50845691 19.35308743 -20.25 16.75 C-19.63737305 16.25854492 -19.02474609 15.76708984 -18.39355469 15.26074219 C-13.42167862 11.29016521 -8.33898615 7.48678192 -3.1953125 3.7421875 C-0.91697153 2.18612012 -0.91697153 2.18612012 0 0 Z " fill="#5197DD" transform="translate(408,236)"/>
<path d="M0 0 C0.81146484 -0.01998047 1.62292969 -0.03996094 2.45898438 -0.06054688 C8.41925121 -0.0556574 8.41925121 -0.0556574 11.5234375 2.32421875 C12.03132813 3.02160156 12.53921875 3.71898437 13.0625 4.4375 C14.8585527 6.83223693 16.01511249 8.26742916 19.03515625 8.7578125 C22.98026716 8.8525493 26.51081279 8.41902395 30.3125 7.375 C36.04665898 5.94146026 39.63234611 7.53658432 44.875 10 C45.85082031 10.45503906 46.82664062 10.91007812 47.83203125 11.37890625 C48.56808594 11.72824219 49.30414063 12.07757813 50.0625 12.4375 C48.81273244 16.09066671 48.39151247 17.21815836 45.0625 19.4375 C45.76123461 21.45155992 45.76123461 21.45155992 47.0625 23.4375 C49.03225997 24.28042516 49.03225997 24.28042516 51.3125 24.5625 C55.03637893 25.23628746 58.4906907 26.15531204 62.0625 27.4375 C62.0625 30.4075 62.0625 33.3775 62.0625 36.4375 C60.33568563 36.94556447 58.60592021 37.44360467 56.875 37.9375 C55.91207031 38.2159375 54.94914062 38.494375 53.95703125 38.78125 C51.20904124 39.40427608 48.86651584 39.56052812 46.0625 39.4375 C45.10747842 41.16226911 45.10747842 41.16226911 45.0625 43.4375 C47.41676499 46.20872275 47.41676499 46.20872275 50.0625 48.4375 C48.82550821 52.14847537 47.90163266 52.39562034 44.5 54.125 C43.67371094 54.56199219 42.84742188 54.99898437 41.99609375 55.44921875 C35.71440173 57.56542126 29.00537335 56.32041227 22.5625 55.4375 C21.83546875 55.34210938 21.1084375 55.24671875 20.359375 55.1484375 C18.59314133 54.91603833 16.82772594 54.67743362 15.0625 54.4375 C14.77375 55.200625 14.485 55.96375 14.1875 56.75 C13.0625 59.4375 13.0625 59.4375 11.0625 62.4375 C7.64951902 63.14870372 4.16589248 62.99304322 0.6875 63 C-0.2715625 63.03673828 -1.230625 63.07347656 -2.21875 63.11132812 C-4.92779326 63.12830681 -7.30127198 63.06829947 -9.9375 62.4375 C-12.4140625 59.46484375 -12.4140625 59.46484375 -13.9375 56.4375 C-19.76063512 54.49645496 -26.01055926 55.1559993 -31.9375 56.4375 C-38.71494607 57.2348466 -43.19749669 54.67130468 -48.9375 51.4375 C-48.9375 50.4475 -48.9375 49.4575 -48.9375 48.4375 C-48.256875 47.798125 -47.57625 47.15875 -46.875 46.5 C-46.235625 45.819375 -45.59625 45.13875 -44.9375 44.4375 C-45.26044477 42.327139 -45.26044477 42.327139 -45.9375 40.4375 C-46.92492187 40.25574219 -47.91234375 40.07398438 -48.9296875 39.88671875 C-50.85167969 39.50966797 -50.85167969 39.50966797 -52.8125 39.125 C-54.08867187 38.88136719 -55.36484375 38.63773438 -56.6796875 38.38671875 C-59.9375 37.4375 -59.9375 37.4375 -61.9375 34.4375 C-62.01655064 32.10550612 -62.02548769 29.76917378 -61.9375 27.4375 C-56.64737333 25.86171759 -51.33545989 24.58808556 -45.9375 23.4375 C-45.2560177 21.54570797 -45.2560177 21.54570797 -44.9375 19.4375 C-45.5975 18.7775 -46.2575 18.1175 -46.9375 17.4375 C-47.5975 16.7775 -48.2575 16.1175 -48.9375 15.4375 C-48.87109375 13.4921875 -48.87109375 13.4921875 -47.9375 11.4375 C-44.00099459 8.59407141 -39.36842968 6.31195903 -34.44140625 6.56640625 C-32.83157528 6.94441254 -31.23071273 7.36246185 -29.640625 7.81640625 C-24.49585282 8.99851431 -19.18715728 8.58560945 -13.9375 8.4375 C-13.669375 7.674375 -13.40125 6.91125 -13.125 6.125 C-10.23534652 -0.41474209 -6.50316848 -0.05654929 0 0 Z " fill="#F6FAFC" transform="translate(203.9375,44.5625)"/>
<path d="M0 0 C1.11568359 -0.00128906 2.23136719 -0.00257812 3.38085938 -0.00390625 C5.14333008 0.00189453 5.14333008 0.00189453 6.94140625 0.0078125 C8.11251953 0.00394531 9.28363281 0.00007813 10.49023438 -0.00390625 C12.16569336 -0.00197266 12.16569336 -0.00197266 13.875 0 C14.9055249 0.00112793 15.9360498 0.00225586 16.99780273 0.00341797 C19.50390625 0.1328125 19.50390625 0.1328125 21.50390625 1.1328125 C21.50390625 50.3028125 21.50390625 99.4728125 21.50390625 150.1328125 C12.26390625 150.1328125 3.02390625 150.1328125 -6.49609375 150.1328125 C-6.51863962 130.72289536 -6.53707225 111.31298876 -6.54790592 91.90306187 C-6.55306917 82.89134313 -6.56011241 73.87963308 -6.5715332 64.86791992 C-6.58147916 57.016217 -6.58794697 49.16452036 -6.59018224 41.31281132 C-6.5914895 37.15277798 -6.5945763 32.99276265 -6.60182381 28.83273506 C-6.60858264 24.92172838 -6.61071099 21.01074723 -6.60920143 17.09973526 C-6.60947782 15.66014022 -6.61148376 14.22054437 -6.61529922 12.78095436 C-6.62023426 10.82387017 -6.61849182 8.86677246 -6.61634827 6.90968323 C-6.61727006 5.81182778 -6.61819185 4.71397234 -6.61914158 3.58284855 C-6.39043169 -0.9710511 -4.00037382 0.00438329 0 0 Z " fill="#1B5FCE" transform="translate(1005.49609375,123.8671875)"/>
<path d="M0 0 C13.449232 -1.10597745 21.8291398 -0.31897463 32.81884766 7.51513672 C37.19882998 10.49689769 41.84529492 13.0500874 46.4375 15.6875 C48.51110547 16.89334755 50.58401343 18.10039528 52.65625 19.30859375 C53.70167969 19.91687012 54.74710938 20.52514648 55.82421875 21.15185547 C60.01083029 23.58825225 64.19599879 26.02711442 68.38012695 28.46777344 C70.40112962 29.6458713 72.42308699 30.82233308 74.44604492 31.99707031 C79.03931436 34.66799262 83.6139674 37.36054721 88.14453125 40.13671875 C88.92836182 40.61270508 89.71219238 41.08869141 90.51977539 41.57910156 C91.96159505 42.45729364 93.39747708 43.34534279 94.82592773 44.24511719 C98.16616224 46.4335792 98.16616224 46.4335792 101.99291992 46.70751953 C105.3815112 45.51300092 108.44353287 43.69801619 111.5625 41.9375 C112.33916016 41.50268311 113.11582031 41.06786621 113.91601562 40.61987305 C122.16782843 35.96506565 130.30278963 31.11203989 138.44091797 26.26220703 C147.71721276 20.73745322 157.05320183 15.32343243 166.42382812 9.96020508 C167.43251953 9.38165771 168.44121094 8.80311035 169.48046875 8.20703125 C170.43679199 7.66344971 171.39311523 7.11986816 172.37841797 6.55981445 C174.7113325 5.17175421 176.87403705 3.66767493 179.08203125 2.09375 C183.69949452 -0.83022629 188.18499509 -0.56357218 193.5 -0.3125 C194.4178125 -0.28994141 195.335625 -0.26738281 196.28125 -0.24414062 C198.52259364 -0.1857723 200.76038827 -0.10398197 203 0 C199.89618418 3.40688202 196.48185857 5.70155702 192.5234375 7.984375 C191.88991364 8.3566925 191.25638977 8.72901001 190.60366821 9.11260986 C189.24118279 9.91275276 187.87714632 10.71025931 186.51171875 11.50537109 C182.86215793 13.63122359 179.22450099 15.77727196 175.5859375 17.921875 C174.85155457 18.35415405 174.11717163 18.78643311 173.36053467 19.23181152 C166.85320153 23.0693256 160.41818122 27.01496787 154 31 C142.61818568 38.05798652 131.11947309 44.90725245 119.58203125 51.70703125 C118.92237366 52.09654968 118.26271606 52.48606812 117.58306885 52.88739014 C116.35459978 53.61259215 115.1252971 54.33638492 113.8949585 55.05841064 C111.11145696 56.70199532 108.49199069 58.3782504 105.89550781 60.31152344 C103 62 103 62 100.37231445 61.89208984 C98.04819479 61.01812326 96.1287176 60.06948794 94.04296875 58.7265625 C93.27702393 58.24147217 92.5110791 57.75638184 91.72192383 57.2565918 C90.88556396 56.7181665 90.0492041 56.17974121 89.1875 55.625 C79.98915823 49.81357115 70.68217752 44.21575443 61.3125 38.6875 C50.13576297 32.08603351 39.03896449 25.37600751 28.01147461 18.52758789 C20.58404407 13.92915099 13.07328098 9.50318534 5.43041992 5.27148438 C3.58912554 4.23445949 1.78886918 3.12504785 0 2 C0 1.34 0 0.68 0 0 Z " fill="#0A3372" transform="translate(103,236)"/>
<path d="M0 0 C3.40618577 3.08178712 3.91722323 4.34813291 4.5 8.9375 C4.24059696 13.2500755 2.90243307 15.7347628 0 19 C-13.32697375 29.58937869 -30.87582433 28.97827285 -47 28 C-56.72341185 26.73548355 -64.12397568 22.34871021 -70.5625 15.125 C-72.0418299 11.90906543 -72.59891862 9.60530216 -71.91796875 6.0859375 C-69.53360642 0.6678546 -64.48331329 -2.78177084 -59.30859375 -5.3203125 C-56.56323512 -6.37471766 -53.83751501 -7.22981735 -51 -8 C-50.22140625 -8.22429688 -49.4428125 -8.44859375 -48.640625 -8.6796875 C-32.27942034 -12.68763361 -13.56472739 -10.32860952 0 0 Z " fill="#3598D4" transform="translate(238,67)"/>
<path d="M0 0 C1.32 0 2.64 0 4 0 C4 0.99 4 1.98 4 3 C5.65 3 7.3 3 9 3 C9 2.01 9 1.02 9 0 C10.32 0 11.64 0 13 0 C13 1.32 13 2.64 13 4 C13.7425 4.103125 14.485 4.20625 15.25 4.3125 C18.1973519 5.04933797 19.78383074 5.94799142 22 8 C22 8.66 22 9.32 22 10 C18.85375007 10.26218749 17.38162983 10.24754367 14.6875 8.5 C14.130625 8.005 13.57375 7.51 13 7 C13 9.31 13 11.62 13 14 C14.98567708 14.1953125 16.97135417 14.390625 18.95703125 14.5859375 C21 15 21 15 24 17 C23.9375 19.3125 23.9375 19.3125 23 22 C19.49851158 23.88042897 16.9919694 25 13 25 C13 26.32 13 27.64 13 29 C11.68 29 10.36 29 9 29 C9 28.01 9 27.02 9 26 C7.35 26 5.7 26 4 26 C4 26.99 4 27.98 4 29 C2.68 29 1.36 29 0 29 C0 27.68 0 26.36 0 25 C-0.886875 24.938125 -1.77375 24.87625 -2.6875 24.8125 C-6.74081992 23.81828945 -8.29831749 22.09898876 -11 19 C-9.35 18.67 -7.7 18.34 -6 18 C-5.34 18.99 -4.68 19.98 -4 21 C-1.94074861 21.72382467 -1.94074861 21.72382467 0 22 C0 19.69 0 17.38 0 15 C-0.928125 14.87625 -1.85625 14.7525 -2.8125 14.625 C-6 14 -6 14 -9 12 C-9.5 9.5625 -9.5 9.5625 -9 7 C-5.72821183 4.36439287 -4.27931853 4 0 4 C0 2.68 0 1.36 0 0 Z " fill="#D4E9F5" transform="translate(198,62)"/>
<path d="M0 0 C2.00737751 0.64411179 4.00541909 1.3172911 6 2 C6.62745117 2.2052832 7.25490234 2.41056641 7.90136719 2.62207031 C12.94088356 4.41206247 17.87921465 6.48998326 21 11 C22.92095319 18.7866475 21.91112273 27.11388232 21 35 C18.99262249 34.35588821 16.99458091 33.6827089 15 33 C14.37254883 32.7947168 13.74509766 32.58943359 13.09863281 32.37792969 C8.05911644 30.58793753 3.12078535 28.51001674 0 24 C-1.92095319 16.2133525 -0.91112273 7.88611768 0 0 Z " fill="#B0D6F6" transform="translate(177,351)"/>
<path d="M0 0 C2.00737751 0.64411179 4.00541909 1.3172911 6 2 C6.62745117 2.2052832 7.25490234 2.41056641 7.90136719 2.62207031 C12.94088356 4.41206247 17.87921465 6.48998326 21 11 C22.92095319 18.7866475 21.91112273 27.11388232 21 35 C18.99262249 34.35588821 16.99458091 33.6827089 15 33 C14.37254883 32.7947168 13.74509766 32.58943359 13.09863281 32.37792969 C8.05911644 30.58793753 3.12078535 28.51001674 0 24 C-1.92095319 16.2133525 -0.91112273 7.88611768 0 0 Z " fill="#B0D6F6" transform="translate(143,331)"/>
<path d="M0 0 C0.99 0 1.98 0 3 0 C4.10849599 7.87221641 5.25784575 16.2623797 3 24 C-1.30952422 29.55866168 -8.38124927 32.91131914 -15 35 C-15.99 35 -16.98 35 -18 35 C-20.16104862 18.62296725 -20.16104862 18.62296725 -18 11 C-14.15829749 6.11272775 -8.38488842 3.758593 -2.67407227 1.65063477 C-0.99197506 1.12628353 -0.99197506 1.12628353 0 0 Z " fill="#B1D8F8" transform="translate(365,271)"/>
<path d="M0 0 C1.1681429 7.85918975 2.3878337 16.29220364 0 24 C-4.68386041 29.6648128 -12.10739021 32.80092113 -19 35 C-19.66 35 -20.32 35 -21 35 C-22.10849599 27.12778359 -23.25784575 18.7376203 -21 11 C-16.46750362 5.15373656 -7.49563828 0 0 0 Z " fill="#B1D6F6" transform="translate(232,351)"/>
<path d="M0 0 C3.13236146 1.20347373 6.07245926 2.50465161 8.98828125 4.1640625 C9.62548096 4.5245166 10.26268066 4.8849707 10.91918945 5.25634766 C11.70898193 5.70800293 12.49877441 6.1596582 13.3125 6.625 C15.849375 8.06875 18.38625 9.5125 21 11 C21 18.92 21 26.84 21 35 C13.4389206 33.10973015 4.89890508 30.4200263 0 24 C-2.1594221 16.25526543 -1.0384726 7.86983669 0 0 Z " fill="#B0D6F6" transform="translate(109,311)"/>
<path d="M0 0 C2.70003222 20.46160162 2.70003222 20.46160162 -1.60400391 26.10205078 C-7.19653581 30.71498629 -13.9997267 33.3538573 -21 35 C-22.1681429 27.14081025 -23.3878337 18.70779636 -21 11 C-16.56304266 5.63379979 -7.17285783 0 0 0 Z " fill="#B2D8F9" transform="translate(402,251)"/>
<path d="M0 0 C1.1681429 7.85918975 2.3878337 16.29220364 0 24 C-4.68386041 29.6648128 -12.10739021 32.80092113 -19 35 C-19.66 35 -20.32 35 -21 35 C-22.1681429 27.14081025 -23.3878337 18.70779636 -21 11 C-16.56304266 5.63379979 -7.17285783 0 0 0 Z " fill="#B1D7F7" transform="translate(334,291)"/>
<path d="M0 0 C0.27950426 3.13943173 0.52581482 6.27071301 0.703125 9.41796875 C0.89568656 12.92000977 0.89568656 12.92000977 1.734375 15.92578125 C2.34668231 19.13111724 2.04267913 20.91524572 1 24 C-0.83447266 25.70922852 -0.83447266 25.70922852 -3.1640625 27.12890625 C-4.41944824 27.89630127 -4.41944824 27.89630127 -5.70019531 28.67919922 C-16.90943671 35 -16.90943671 35 -20 35 C-21.16760746 27.14441264 -22.3977539 18.70183655 -20 11 C-15.97793821 6.17798773 -6.58609925 0 0 0 Z " fill="#B2D8F8" transform="translate(299,311)"/>
<path d="M0 0 C2.95700688 1.14196186 5.76693259 2.33073744 8.515625 3.91015625 C9.43214844 4.43512695 9.43214844 4.43512695 10.3671875 4.97070312 C10.98851562 5.33099609 11.60984375 5.69128906 12.25 6.0625 C12.88679688 6.42666016 13.52359375 6.79082031 14.1796875 7.16601562 C18.85925752 9.85925752 18.85925752 9.85925752 20 11 C20.08726223 12.78071246 20.10699041 14.5648314 20.09765625 16.34765625 C20.09443359 17.42724609 20.09121094 18.50683594 20.08789062 19.61914062 C20.07951172 20.75544922 20.07113281 21.89175781 20.0625 23.0625 C20.05798828 24.20267578 20.05347656 25.34285156 20.04882812 26.51757812 C20.03699747 29.34510351 20.0205141 32.1725264 20 35 C17.04299312 33.85803814 14.23306741 32.66926256 11.484375 31.08984375 C10.87335937 30.73986328 10.26234375 30.38988281 9.6328125 30.02929688 C9.01148438 29.66900391 8.39015625 29.30871094 7.75 28.9375 C7.11320313 28.57333984 6.47640625 28.20917969 5.8203125 27.83398438 C1.14074248 25.14074248 1.14074248 25.14074248 0 24 C-0.08726223 22.21928754 -0.10699041 20.4351686 -0.09765625 18.65234375 C-0.09443359 17.57275391 -0.09121094 16.49316406 -0.08789062 15.38085938 C-0.07951172 14.24455078 -0.07113281 13.10824219 -0.0625 11.9375 C-0.05798828 10.79732422 -0.05347656 9.65714844 -0.04882812 8.48242188 C-0.03699747 5.65489649 -0.0205141 2.8274736 0 0 Z " fill="#B3D8F8" transform="translate(7,251)"/>
<path d="M0 0 C2.95700688 1.14196186 5.76693259 2.33073744 8.515625 3.91015625 C9.43214844 4.43512695 9.43214844 4.43512695 10.3671875 4.97070312 C10.98851562 5.33099609 11.60984375 5.69128906 12.25 6.0625 C12.88679688 6.42666016 13.52359375 6.79082031 14.1796875 7.16601562 C18.85925752 9.85925752 18.85925752 9.85925752 20 11 C20.08726223 12.78071246 20.10699041 14.5648314 20.09765625 16.34765625 C20.09443359 17.42724609 20.09121094 18.50683594 20.08789062 19.61914062 C20.07951172 20.75544922 20.07113281 21.89175781 20.0625 23.0625 C20.05798828 24.20267578 20.05347656 25.34285156 20.04882812 26.51757812 C20.03699747 29.34510351 20.0205141 32.1725264 20 35 C19.25274658 34.69723145 18.50549316 34.39446289 17.7355957 34.08251953 C15.58619479 33.23196677 13.41208884 32.44381972 11.23046875 31.6796875 C6.81414874 29.83413344 2.80719515 28.00985665 0 24 C-1.93187053 16.21908316 -0.91069837 7.88244463 0 0 Z " fill="#B3D9F8" transform="translate(41,271)"/>
<path d="M0 0 C0.26260373 3.70697705 0.42156838 7.41156358 0.5625 11.125 C0.63791016 12.17171875 0.71332031 13.2184375 0.79101562 14.296875 C1.00847571 21.93214023 1.00847571 21.93214023 -1.86987305 24.97998047 C-4.18286806 26.53315913 -6.48977867 27.79626814 -9 29 C-9.91652344 29.55429687 -10.83304688 30.10859375 -11.77734375 30.6796875 C-12.49019531 31.07414062 -13.20304688 31.46859375 -13.9375 31.875 C-14.66839844 32.28492188 -15.39929688 32.69484375 -16.15234375 33.1171875 C-18 34 -18 34 -20 34 C-22.7009706 13.53128706 -22.7009706 13.53128706 -18.37988281 7.88183594 C-13.3388039 3.71559576 -6.64699818 0 0 0 Z " fill="#B3D9F8" transform="translate(265,332)"/>
<path d="M0 0 C2.95700688 1.14196186 5.76693259 2.33073744 8.515625 3.91015625 C9.43214844 4.43512695 9.43214844 4.43512695 10.3671875 4.97070312 C10.98851563 5.33099609 11.60984375 5.69128906 12.25 6.0625 C12.88679688 6.42666016 13.52359375 6.79082031 14.1796875 7.16601562 C18.85925752 9.85925752 18.85925752 9.85925752 20 11 C20.08726223 12.78071246 20.10699041 14.5648314 20.09765625 16.34765625 C20.09443359 17.42724609 20.09121094 18.50683594 20.08789062 19.61914062 C20.07951172 20.75544922 20.07113281 21.89175781 20.0625 23.0625 C20.05798828 24.20267578 20.05347656 25.34285156 20.04882812 26.51757812 C20.03699747 29.34510351 20.0205141 32.1725264 20 35 C17.78904188 33.92177933 15.58132694 32.83762596 13.375 31.75 C12.75753906 31.44964844 12.14007813 31.14929688 11.50390625 30.83984375 C10.26163963 30.22524868 9.02884666 29.59114191 7.80615234 28.93847656 C6.09951747 28.05170926 4.33109256 27.28692137 2.5625 26.53125 C-0.51669333 23.48960781 -0.42241761 22.56283738 -0.5859375 18.359375 C-0.54610822 16.15548815 -0.47462619 13.95199415 -0.375 11.75 C-0.34792969 10.62335938 -0.32085937 9.49671875 -0.29296875 8.3359375 C-0.22227604 5.55535763 -0.1236504 2.77864641 0 0 Z " fill="#B3D9F8" transform="translate(75,291)"/>
<path d="M0 0 C0.99 0 1.98 0 3 0 C3 1.32 3 2.64 3 4 C4.32 4.33 5.64 4.66 7 5 C6.01 5 5.02 5 4 5 C4 7.64 4 10.28 4 13 C6.475 13.495 6.475 13.495 9 14 C9 14.33 9 14.66 9 15 C7.02 15 5.04 15 3 15 C3.144375 16.27875 3.28875 17.5575 3.4375 18.875 C3.51871094 19.59429687 3.59992188 20.31359375 3.68359375 21.0546875 C3.91292961 23.07404316 3.91292961 23.07404316 5 25 C4.34 25 3.68 25 3 25 C3 26.32 3 27.64 3 29 C2.01 29 1.02 29 0 29 C0 27.68 0 26.36 0 25 C-0.886875 24.938125 -1.77375 24.87625 -2.6875 24.8125 C-6.74081992 23.81828945 -8.29831749 22.09898876 -11 19 C-9.35 18.67 -7.7 18.34 -6 18 C-5.34 18.99 -4.68 19.98 -4 21 C-1.94074861 21.72382467 -1.94074861 21.72382467 0 22 C0 19.69 0 17.38 0 15 C-0.928125 14.87625 -1.85625 14.7525 -2.8125 14.625 C-6 14 -6 14 -9 12 C-9.5 9.5625 -9.5 9.5625 -9 7 C-5.72821183 4.36439287 -4.27931853 4 0 4 C0 2.68 0 1.36 0 0 Z " fill="#F0F7FB" transform="translate(198,62)"/>
<path d="M0 0 C1.75 0.75 1.75 0.75 2.75 1.75 C2.82319621 4.44654854 2.84242537 7.11691458 2.8125 9.8125 C2.80798828 10.57111328 2.80347656 11.32972656 2.79882812 12.11132812 C2.7870068 13.99091871 2.76907078 15.87046899 2.75 17.75 C2.42 17.75 2.09 17.75 1.75 17.75 C1.75 15.44 1.75 13.13 1.75 10.75 C0.821875 10.62625 -0.10625 10.5025 -1.0625 10.375 C-4.25 9.75 -4.25 9.75 -7.25 7.75 C-7.75 5.3125 -7.75 5.3125 -7.25 2.75 C-4.74017696 0.6584808 -3.30372325 -0.36708036 0 0 Z " fill="#E2F0F8" transform="translate(196.25,66.25)"/>
<path d="M0 0 C1.258125 0.12375 2.51625 0.2475 3.8125 0.375 C4.87404297 0.47941406 4.87404297 0.47941406 5.95703125 0.5859375 C8 1 8 1 11 3 C10.6875 5.375 10.6875 5.375 10 8 C7 10 7 10 4.3125 9.625 C3.549375 9.41875 2.78625 9.2125 2 9 C2.66 8.34 3.32 7.68 4 7 C4 6.01 4 5.02 4 4 C2.68 3.34 1.36 2.68 0 2 C0 1.34 0 0.68 0 0 Z " fill="#E9F3FA" transform="translate(211,76)"/>
<path d="M0 0 C-1.61010527 4.07376031 -4.53822271 6.76507069 -7.625 9.75 C-8.140625 10.25660156 -8.65625 10.76320312 -9.1875 11.28515625 C-10.45383339 12.52803902 -11.7263144 13.76465276 -13 15 C-13.66 14.67 -14.32 14.34 -15 14 C-13.58474822 12.41540185 -12.1677358 10.83237609 -10.75 9.25 C-9.96109375 8.36828125 -9.1721875 7.4865625 -8.359375 6.578125 C-2.33939394 0 -2.33939394 0 0 0 Z " fill="#699AE1" transform="translate(1357,138)"/>
<path d="M0 0 C2.5 0.3125 2.5 0.3125 5 1 C5.33 1.66 5.66 2.32 6 3 C8.01669827 4.13350534 8.01669827 4.13350534 10 5 C10 5.66 10 6.32 10 7 C4.64951939 6.62671065 2.49087093 5.0042343 -1 1 C-0.67 0.67 -0.34 0.34 0 0 Z " fill="#DFEEF7" transform="translate(188,80)"/>
<path d="M0 0 C1.65 0 3.3 0 5 0 C5 2.31 5 4.62 5 7 C3.35 7 1.7 7 0 7 C0 4.69 0 2.38 0 0 Z " fill="#3397D3" transform="translate(202,78)"/>
<path d="M0 0 C1.65 0 3.3 0 5 0 C5 2.31 5 4.62 5 7 C3.35 7 1.7 7 0 7 C0 4.69 0 2.38 0 0 Z " fill="#3C9BD5" transform="translate(202,68)"/>
<path d="M0 0 C5.66153846 1.47692308 5.66153846 1.47692308 7.375 4.125 C7.58125 4.74375 7.7875 5.3625 8 6 C5.75 6.25 5.75 6.25 3 6 C0.6875 4 0.6875 4 -1 2 C-0.67 1.34 -0.34 0.68 0 0 Z " fill="#E1EFF8" transform="translate(212,66)"/>
<path d="M0 0 C-3.81234923 3.3502463 -7.33285711 5.16974789 -12 7 C-12 6.34 -12 5.68 -12 5 C-8.43798891 1.61249666 -5.06970846 -0.76813765 0 0 Z " fill="#77B2E5" transform="translate(222,390)"/>
<path d="M0 0 C2.475 0.495 2.475 0.495 5 1 C4.67 2.32 4.34 3.64 4 5 C2.68 5 1.36 5 0 5 C0 3.35 0 1.7 0 0 Z " fill="#399AD5" transform="translate(211,79)"/>
<path d="M0 0 C0.99 0 1.98 0 3 0 C3 1.65 3 3.3 3 5 C1.68 4.67 0.36 4.34 -1 4 C-0.67 2.68 -0.34 1.36 0 0 Z " fill="#49A2D8" transform="translate(195,69)"/>
</svg>
