<svg xmlns="http://www.w3.org/2000/svg" xmlns:xlink="http://www.w3.org/1999/xlink" width="1080" zoomAndPan="magnify" viewBox="0 0 810 809.999993" height="1080" preserveAspectRatio="xMidYMid meet" version="1.0"><defs><clipPath id="9ed1a32eab"><path d="M 197 102.058594 L 729 102.058594 L 729 526 L 197 526 Z M 197 102.058594 " clip-rule="nonzero"/></clipPath><clipPath id="19854e2fb4"><path d="M 683 102.058594 L 729 102.058594 L 729 526 L 683 526 Z M 683 102.058594 " clip-rule="nonzero"/></clipPath><clipPath id="bd2c153c47"><path d="M 197 102.058594 L 729 102.058594 L 729 185 L 197 185 Z M 197 102.058594 " clip-rule="nonzero"/></clipPath><clipPath id="0108f6eca0"><path d="M 683 102.058594 L 729 102.058594 L 729 185 L 683 185 Z M 683 102.058594 " clip-rule="nonzero"/></clipPath></defs><g clip-path="url(#9ed1a32eab)"><path fill="#eceff1" d="M 220.363281 102.078125 L 705.851562 102.078125 C 718.546875 102.078125 729.015625 112.417969 729.015625 125.117188 L 729.015625 502.464844 C 729.015625 515.160156 718.546875 525.632812 705.851562 525.632812 L 220.363281 525.632812 C 207.539062 525.632812 197.203125 515.160156 197.203125 502.464844 L 197.203125 125.117188 C 197.203125 112.417969 207.539062 102.078125 220.363281 102.078125 Z M 220.363281 102.078125 " fill-opacity="1" fill-rule="evenodd"/></g><g clip-path="url(#19854e2fb4)"><path fill="#d1d1d6" d="M 683.738281 102.078125 L 705.851562 102.078125 C 718.546875 102.078125 729.015625 112.417969 729.015625 125.117188 L 729.015625 502.464844 C 729.015625 515.160156 718.546875 525.632812 705.851562 525.632812 L 683.738281 525.632812 C 696.5625 525.632812 706.898438 515.160156 706.898438 502.464844 L 706.898438 125.117188 C 706.898438 112.417969 696.5625 102.078125 683.738281 102.078125 Z M 683.738281 102.078125 " fill-opacity="1" fill-rule="evenodd"/></g><g clip-path="url(#bd2c153c47)"><path fill="#a79ba7" d="M 220.363281 102.078125 L 705.851562 102.078125 C 718.546875 102.078125 729.015625 112.417969 729.015625 125.117188 L 729.015625 184.671875 L 197.203125 184.671875 L 197.203125 125.117188 C 197.203125 112.417969 207.539062 102.078125 220.363281 102.078125 Z M 220.363281 102.078125 " fill-opacity="1" fill-rule="evenodd"/></g><g clip-path="url(#0108f6eca0)"><path fill="#837683" d="M 683.738281 102.078125 L 705.851562 102.078125 C 718.546875 102.078125 729.015625 112.417969 729.015625 125.117188 L 729.015625 184.671875 L 706.898438 184.671875 L 706.898438 125.117188 C 706.898438 112.417969 696.5625 102.078125 683.738281 102.078125 Z M 683.738281 102.078125 " fill-opacity="1" fill-rule="evenodd"/></g><path fill="#fe646f" d="M 260.144531 156.921875 C 267.601562 156.921875 273.621094 150.769531 273.621094 143.308594 C 273.621094 135.847656 267.601562 129.828125 260.144531 129.828125 C 252.683594 129.828125 246.535156 135.847656 246.535156 143.308594 C 246.535156 150.769531 252.683594 156.921875 260.144531 156.921875 Z M 260.144531 156.921875 " fill-opacity="1" fill-rule="evenodd"/><path fill="#ffe177" d="M 311.964844 156.921875 C 319.425781 156.921875 325.574219 150.769531 325.574219 143.308594 C 325.574219 135.847656 319.425781 129.828125 311.964844 129.828125 C 304.636719 129.828125 298.484375 135.847656 298.484375 143.308594 C 298.484375 150.769531 304.636719 156.921875 311.964844 156.921875 Z M 311.964844 156.921875 " fill-opacity="1" fill-rule="evenodd"/><path fill="#6cf5c2" d="M 363.917969 156.921875 C 371.375 156.921875 377.394531 150.769531 377.394531 143.308594 C 377.394531 135.847656 371.375 129.828125 363.917969 129.828125 C 356.457031 129.828125 350.4375 135.847656 350.4375 143.308594 C 350.4375 150.769531 356.457031 156.921875 363.917969 156.921875 Z M 363.917969 156.921875 " fill-opacity="1" fill-rule="evenodd"/><path fill="#837683" d="M 713.457031 567.050781 C 717.578125 567.050781 721.53125 568.691406 724.445312 571.605469 C 727.359375 574.519531 728.996094 578.472656 728.996094 582.597656 L 728.996094 663.039062 C 728.996094 667.164062 727.359375 671.117188 724.445312 674.03125 C 721.53125 676.945312 717.578125 678.585938 713.457031 678.585938 L 315.203125 678.585938 C 311.082031 678.585938 307.128906 676.945312 304.214844 674.03125 C 301.300781 671.117188 299.664062 667.164062 299.664062 663.039062 L 299.664062 582.597656 C 299.664062 578.472656 301.300781 574.519531 304.214844 571.605469 C 307.128906 568.691406 311.082031 567.050781 315.203125 567.050781 Z M 713.457031 567.050781 " fill-opacity="1" fill-rule="evenodd"/><path fill="#685e68" d="M 719.566406 568.304688 C 721.371094 569.074219 723.03125 570.191406 724.445312 571.605469 C 727.359375 574.519531 728.996094 578.472656 728.996094 582.597656 L 728.996094 663.039062 C 728.996094 667.164062 727.359375 671.117188 724.445312 674.03125 C 721.53125 676.945312 717.578125 678.585938 713.457031 678.585938 L 315.203125 678.585938 C 311.082031 678.585938 307.128906 676.945312 304.214844 674.03125 C 302.800781 672.617188 301.6875 670.957031 300.914062 669.152344 C 302.828125 669.96875 304.902344 670.40625 307.027344 670.40625 L 705.277344 670.40625 C 709.398438 670.40625 713.351562 668.765625 716.269531 665.851562 C 719.179688 662.9375 720.820312 658.980469 720.820312 654.859375 L 720.820312 574.417969 C 720.820312 572.296875 720.386719 570.21875 719.566406 568.304688 Z M 719.566406 568.304688 " fill-opacity="1" fill-rule="evenodd"/><path fill="#ffe177" d="M 471.21875 604.117188 L 471.21875 599.636719 C 471.21875 593.675781 476.054688 588.835938 482.011719 588.835938 C 487.972656 588.835938 492.808594 593.675781 492.808594 599.636719 L 492.808594 604.117188 L 496.6875 601.875 C 501.847656 598.898438 508.457031 600.667969 511.433594 605.828125 C 514.414062 610.988281 512.644531 617.597656 507.484375 620.578125 L 503.601562 622.820312 L 507.484375 625.058594 C 512.644531 628.039062 514.414062 634.648438 511.433594 639.808594 C 508.457031 644.96875 501.847656 646.742188 496.6875 643.761719 L 492.808594 641.519531 L 492.808594 646.003906 C 492.808594 651.960938 487.972656 656.800781 482.011719 656.800781 C 476.054688 656.800781 471.21875 651.960938 471.21875 646.003906 L 471.21875 641.519531 L 467.335938 643.761719 C 462.175781 646.742188 455.570312 644.96875 452.589844 639.808594 C 449.609375 634.648438 451.382812 628.039062 456.542969 625.058594 L 460.421875 622.820312 L 456.542969 620.578125 C 451.382812 617.597656 449.609375 610.988281 452.589844 605.828125 C 455.570312 600.667969 462.175781 598.898438 467.335938 601.875 Z M 557.152344 604.117188 L 557.152344 599.636719 C 557.152344 593.675781 561.992188 588.835938 567.949219 588.835938 C 573.90625 588.835938 578.742188 593.675781 578.742188 599.636719 L 578.742188 604.117188 L 582.625 601.875 C 587.785156 598.898438 594.390625 600.667969 597.371094 605.828125 C 600.351562 610.988281 598.578125 617.597656 593.421875 620.578125 L 589.539062 622.820312 L 593.421875 625.058594 C 598.578125 628.039062 600.351562 634.648438 597.371094 639.808594 C 594.390625 644.96875 587.785156 646.742188 582.625 643.761719 L 578.742188 641.519531 L 578.742188 646.003906 C 578.742188 651.960938 573.90625 656.800781 567.949219 656.800781 C 561.992188 656.800781 557.152344 651.960938 557.152344 646.003906 L 557.152344 641.519531 L 553.273438 643.761719 C 548.113281 646.742188 541.507812 644.96875 538.527344 639.808594 C 535.546875 634.648438 537.320312 628.039062 542.476562 625.058594 L 546.359375 622.820312 L 542.476562 620.578125 C 537.320312 617.597656 535.546875 610.988281 538.527344 605.828125 C 541.507812 600.667969 548.113281 598.898438 553.273438 601.875 Z M 643.089844 604.117188 L 643.089844 599.636719 C 643.089844 593.675781 647.925781 588.835938 653.886719 588.835938 C 659.84375 588.835938 664.683594 593.675781 664.683594 599.636719 L 664.683594 604.117188 L 668.5625 601.875 C 673.722656 598.898438 680.328125 600.667969 683.308594 605.828125 C 686.289062 610.988281 684.515625 617.597656 679.355469 620.578125 L 675.476562 622.820312 L 679.355469 625.058594 C 684.515625 628.039062 686.289062 634.648438 683.308594 639.808594 C 680.328125 644.96875 673.722656 646.742188 668.5625 643.761719 L 664.683594 641.519531 L 664.683594 646.003906 C 664.683594 651.960938 659.84375 656.800781 653.886719 656.800781 C 647.925781 656.800781 643.089844 651.960938 643.089844 646.003906 L 643.089844 641.519531 L 639.210938 643.761719 C 634.050781 646.742188 627.441406 644.96875 624.464844 639.808594 C 621.484375 634.648438 623.253906 628.039062 628.414062 625.058594 L 632.296875 622.820312 L 628.414062 620.578125 C 623.253906 617.597656 621.484375 610.988281 624.464844 605.828125 C 627.441406 600.667969 634.050781 598.898438 639.210938 601.875 Z M 643.089844 604.117188 " fill-opacity="1" fill-rule="evenodd"/><path fill="#837683" d="M 553.902344 322.410156 L 587.308594 322.410156 L 587.308594 291.746094 C 587.308594 251.597656 554.488281 218.738281 514.34375 218.738281 C 474.203125 218.738281 441.351562 251.597656 441.351562 291.746094 L 441.351562 322.410156 L 474.789062 322.410156 L 474.789062 291.746094 C 474.789062 270.019531 492.652344 252.152344 514.34375 252.152344 C 536.039062 252.152344 553.902344 270.019531 553.902344 291.746094 Z M 553.902344 322.410156 " fill-opacity="1" fill-rule="evenodd"/><path fill="#685e68" d="M 462.597656 322.410156 L 462.597656 291.746094 C 462.597656 270.019531 480.460938 252.152344 502.152344 252.152344 C 504.226562 252.152344 506.261719 252.316406 508.25 252.628906 C 489.40625 255.597656 474.789062 272.09375 474.789062 291.746094 L 474.789062 322.410156 Z M 575.117188 322.410156 L 575.117188 291.746094 C 575.117188 253.648438 545.566406 222.117188 508.25 218.992188 C 510.261719 218.824219 512.292969 218.738281 514.34375 218.738281 C 554.488281 218.738281 587.308594 251.597656 587.308594 291.746094 L 587.308594 322.410156 Z M 575.117188 322.410156 " fill-opacity="1" fill-rule="evenodd"/><path fill="#ffe177" d="M 425.003906 322.410156 L 603.6875 322.410156 C 611.039062 322.410156 617.003906 328.40625 617.003906 335.730469 L 617.003906 477.792969 C 617.003906 485.148438 611.039062 491.113281 603.6875 491.113281 L 425.003906 491.113281 C 417.652344 491.113281 411.65625 485.148438 411.65625 477.792969 L 411.65625 335.730469 C 411.65625 328.40625 417.652344 322.410156 425.003906 322.410156 Z M 425.003906 322.410156 " fill-opacity="1" fill-rule="evenodd"/><path fill="#ffd064" d="M 604.769531 322.453125 C 611.617188 323.007812 617.003906 328.769531 617.003906 335.730469 L 617.003906 477.792969 C 617.003906 485.148438 611.039062 491.113281 603.6875 491.113281 L 425.003906 491.113281 C 418.015625 491.113281 412.25 485.726562 411.699219 478.875 C 412.066406 478.90625 412.4375 478.917969 412.816406 478.917969 L 591.496094 478.917969 C 598.847656 478.917969 604.8125 472.953125 604.8125 465.597656 L 604.8125 323.539062 C 604.8125 323.171875 604.800781 322.8125 604.769531 322.453125 Z M 604.769531 322.453125 " fill-opacity="1" fill-rule="evenodd"/><path fill="#eceff1" d="M 514.34375 356.070312 C 528.683594 356.070312 540.304688 367.722656 540.304688 382.066406 C 540.304688 391.429688 535.390625 399.621094 527.972656 404.195312 L 527.972656 443.824219 C 527.972656 451.332031 521.824219 457.453125 514.34375 457.453125 C 506.835938 457.453125 500.71875 451.332031 500.71875 443.824219 L 500.71875 404.195312 C 493.300781 399.621094 488.355469 391.429688 488.355469 382.066406 C 488.355469 367.722656 500.007812 356.070312 514.34375 356.070312 Z M 514.34375 356.070312 " fill-opacity="1" fill-rule="evenodd"/><path fill="#d1d1d6" d="M 517.222656 457.144531 C 516.292969 457.347656 515.332031 457.453125 514.34375 457.453125 C 506.835938 457.453125 500.71875 451.332031 500.71875 443.824219 L 500.71875 404.195312 C 493.300781 399.621094 488.355469 391.429688 488.355469 382.066406 C 488.355469 367.722656 500.007812 356.070312 514.34375 356.070312 C 515.320312 356.070312 516.28125 356.125 517.226562 356.226562 C 504.242188 357.664062 494.121094 368.695312 494.121094 382.066406 C 494.121094 391.429688 499.066406 399.621094 506.480469 404.195312 L 506.480469 443.824219 C 506.480469 450.34375 511.09375 455.816406 517.222656 457.144531 Z M 517.222656 457.144531 " fill-opacity="1" fill-rule="evenodd"/><path fill="#8ac9fe" d="M 81.335938 699.386719 C 81.019531 701.519531 81.652344 703.683594 83.058594 705.3125 C 84.464844 706.945312 86.515625 707.882812 88.671875 707.882812 C 137.46875 707.90625 382.632812 707.90625 431.421875 707.90625 C 433.582031 707.90625 435.636719 706.964844 437.046875 705.332031 C 438.460938 703.695312 439.089844 701.527344 438.777344 699.386719 C 425.320312 612.769531 350.441406 546.472656 260.042969 546.472656 C 169.691406 546.472656 94.816406 612.769531 81.335938 699.386719 Z M 81.335938 699.386719 " fill-opacity="1" fill-rule="evenodd"/><path fill="#60b7ff" d="M 407.089844 707.90625 C 409.253906 707.90625 411.308594 706.964844 412.71875 705.332031 C 414.132812 703.695312 414.761719 701.527344 414.449219 699.386719 C 401.601562 616.6875 332.761719 552.507812 247.882812 546.871094 C 251.902344 546.605469 255.957031 546.472656 260.042969 546.472656 C 350.441406 546.472656 425.320312 612.769531 438.777344 699.386719 C 439.089844 701.527344 438.460938 703.695312 437.046875 705.332031 C 435.636719 706.964844 433.582031 707.90625 431.421875 707.90625 C 425.753906 707.90625 417.441406 707.90625 407.089844 707.90625 Z M 407.089844 707.90625 " fill-opacity="1" fill-rule="evenodd"/><path fill="#f6dccd" d="M 260.042969 546.472656 C 310.449219 546.472656 351.5 505.363281 351.5 454.992188 C 351.5 404.621094 310.449219 363.515625 260.042969 363.515625 C 209.683594 363.515625 168.632812 404.621094 168.632812 454.992188 C 168.632812 505.363281 209.683594 546.472656 260.042969 546.472656 Z M 260.042969 546.472656 " fill-opacity="1" fill-rule="evenodd"/><path fill="#f1cbbc" d="M 253.964844 546.269531 C 301.546875 543.121094 339.335938 503.320312 339.335938 454.992188 C 339.335938 406.667969 301.546875 366.867188 253.964844 363.71875 C 255.972656 363.585938 258 363.515625 260.042969 363.515625 C 310.449219 363.515625 351.5 404.621094 351.5 454.992188 C 351.5 505.363281 310.449219 546.472656 260.042969 546.472656 C 258 546.472656 255.972656 546.402344 253.964844 546.269531 Z M 253.964844 546.269531 " fill-opacity="1" fill-rule="evenodd"/></svg>