<svg xmlns="http://www.w3.org/2000/svg" xmlns:xlink="http://www.w3.org/1999/xlink" width="1080" zoomAndPan="magnify" viewBox="0 0 810 809.999993" height="1080" preserveAspectRatio="xMidYMid meet" version="1.0"><defs><clipPath id="ac8866329e"><path d="M 81 325 L 729 325 L 729 485 L 81 485 Z M 81 325 " clip-rule="nonzero"/></clipPath><clipPath id="09fe0cbb36"><path d="M 188.707031 188.707031 L 621.292969 188.707031 L 621.292969 621.292969 L 188.707031 621.292969 Z M 188.707031 188.707031 " clip-rule="nonzero"/></clipPath><clipPath id="ab1f8bc558"><path d="M 405 188.707031 C 285.546875 188.707031 188.707031 285.546875 188.707031 405 C 188.707031 524.453125 285.546875 621.292969 405 621.292969 C 524.453125 621.292969 621.292969 524.453125 621.292969 405 C 621.292969 285.546875 524.453125 188.707031 405 188.707031 Z M 405 188.707031 " clip-rule="nonzero"/></clipPath><clipPath id="ee3739682f"><path d="M 266.246094 323 L 543.746094 323 L 543.746094 390 L 266.246094 390 Z M 266.246094 323 " clip-rule="nonzero"/></clipPath><clipPath id="9e0ad019ab"><path d="M 280 389 L 530 389 L 530 541.953125 L 280 541.953125 Z M 280 389 " clip-rule="nonzero"/></clipPath><clipPath id="1fa85fd68e"><path d="M 378 389 L 432 389 L 432 541.953125 L 378 541.953125 Z M 378 389 " clip-rule="nonzero"/></clipPath></defs><path fill="#0058cc" d="M 663.65625 405.070312 C 663.65625 409.300781 663.554688 413.53125 663.347656 417.757812 C 663.140625 421.984375 662.828125 426.203125 662.414062 430.414062 C 661.996094 434.628906 661.480469 438.824219 660.859375 443.011719 C 660.238281 447.199219 659.515625 451.367188 658.6875 455.515625 C 657.863281 459.667969 656.9375 463.796875 655.910156 467.902344 C 654.878906 472.003906 653.75 476.082031 652.523438 480.132812 C 651.292969 484.183594 649.96875 488.199219 648.542969 492.183594 C 647.117188 496.167969 645.59375 500.117188 643.972656 504.027344 C 642.355469 507.9375 640.640625 511.804688 638.832031 515.628906 C 637.023438 519.453125 635.121094 523.234375 633.125 526.964844 C 631.128906 530.699219 629.042969 534.378906 626.867188 538.007812 C 624.691406 541.636719 622.429688 545.214844 620.078125 548.730469 C 617.726562 552.25 615.292969 555.710938 612.769531 559.109375 C 610.25 562.507812 607.648438 565.84375 604.960938 569.113281 C 602.277344 572.386719 599.515625 575.589844 596.671875 578.722656 C 593.828125 581.859375 590.914062 584.925781 587.921875 587.917969 C 584.929688 590.910156 581.863281 593.828125 578.726562 596.667969 C 575.59375 599.511719 572.390625 602.273438 569.117188 604.957031 C 565.847656 607.644531 562.511719 610.246094 559.113281 612.765625 C 555.710938 615.289062 552.253906 617.722656 548.734375 620.074219 C 545.214844 622.425781 541.640625 624.691406 538.011719 626.863281 C 534.382812 629.039062 530.703125 631.125 526.96875 633.121094 C 523.238281 635.117188 519.457031 637.019531 515.632812 638.828125 C 511.808594 640.636719 507.9375 642.351562 504.03125 643.972656 C 500.121094 645.589844 496.171875 647.113281 492.1875 648.539062 C 488.203125 649.964844 484.1875 651.292969 480.136719 652.519531 C 476.085938 653.75 472.007812 654.875 467.902344 655.90625 C 463.800781 656.933594 459.671875 657.859375 455.519531 658.6875 C 451.371094 659.511719 447.203125 660.234375 443.015625 660.855469 C 438.828125 661.476562 434.628906 661.996094 430.417969 662.410156 C 426.207031 662.824219 421.988281 663.136719 417.761719 663.34375 C 413.535156 663.550781 409.304688 663.65625 405.074219 663.65625 C 400.839844 663.65625 396.613281 663.550781 392.386719 663.34375 C 388.160156 663.136719 383.9375 662.824219 379.726562 662.410156 C 375.515625 661.996094 371.316406 661.476562 367.132812 660.855469 C 362.945312 660.234375 358.777344 659.511719 354.625 658.6875 C 350.476562 657.859375 346.347656 656.933594 342.242188 655.90625 C 338.136719 654.875 334.058594 653.75 330.011719 652.519531 C 325.960938 651.292969 321.945312 649.964844 317.957031 648.539062 C 313.972656 647.113281 310.027344 645.589844 306.117188 643.972656 C 302.207031 642.351562 298.339844 640.636719 294.515625 638.828125 C 290.6875 637.019531 286.910156 635.117188 283.175781 633.121094 C 279.445312 631.125 275.765625 629.039062 272.132812 626.863281 C 268.503906 624.691406 264.929688 622.425781 261.410156 620.074219 C 257.894531 617.722656 254.433594 615.289062 251.035156 612.765625 C 247.636719 610.246094 244.300781 607.644531 241.027344 604.957031 C 237.757812 602.273438 234.554688 599.511719 231.417969 596.667969 C 228.28125 593.828125 225.21875 590.910156 222.226562 587.917969 C 219.234375 584.925781 216.316406 581.859375 213.476562 578.722656 C 210.632812 575.589844 207.871094 572.386719 205.183594 569.113281 C 202.5 565.84375 199.898438 562.507812 197.375 559.109375 C 194.855469 555.710938 192.417969 552.25 190.066406 548.730469 C 187.71875 545.214844 185.453125 541.636719 183.277344 538.007812 C 181.101562 534.378906 179.015625 530.699219 177.023438 526.964844 C 175.027344 523.234375 173.125 519.453125 171.316406 515.628906 C 169.507812 511.804688 167.792969 507.9375 166.171875 504.027344 C 164.554688 500.117188 163.03125 496.167969 161.605469 492.183594 C 160.179688 488.199219 158.851562 484.183594 157.625 480.132812 C 156.394531 476.082031 155.265625 472.003906 154.238281 467.902344 C 153.210938 463.796875 152.285156 459.667969 151.457031 455.515625 C 150.632812 451.367188 149.910156 447.199219 149.289062 443.011719 C 148.667969 438.824219 148.148438 434.628906 147.734375 430.414062 C 147.320312 426.203125 147.007812 421.984375 146.800781 417.757812 C 146.59375 413.53125 146.488281 409.300781 146.488281 405.070312 C 146.488281 400.839844 146.59375 396.609375 146.800781 392.382812 C 147.007812 388.15625 147.320312 383.9375 147.734375 379.722656 C 148.148438 375.511719 148.667969 371.3125 149.289062 367.128906 C 149.910156 362.941406 150.632812 358.773438 151.457031 354.621094 C 152.285156 350.472656 153.210938 346.34375 154.238281 342.238281 C 155.265625 338.132812 156.394531 334.054688 157.625 330.007812 C 158.851562 325.957031 160.179688 321.941406 161.605469 317.957031 C 163.03125 313.972656 164.554688 310.023438 166.171875 306.113281 C 167.792969 302.203125 169.507812 298.335938 171.316406 294.511719 C 173.125 290.683594 175.027344 286.90625 177.023438 283.175781 C 179.015625 279.441406 181.101562 275.761719 183.277344 272.132812 C 185.453125 268.5 187.71875 264.925781 190.066406 261.40625 C 192.417969 257.890625 194.855469 254.429688 197.375 251.03125 C 199.898438 247.632812 202.5 244.296875 205.183594 241.027344 C 207.871094 237.753906 210.632812 234.550781 213.476562 231.414062 C 216.316406 228.28125 219.234375 225.214844 222.226562 222.222656 C 225.21875 219.230469 228.28125 216.3125 231.417969 213.472656 C 234.554688 210.628906 237.757812 207.867188 241.027344 205.179688 C 244.300781 202.496094 247.636719 199.894531 251.035156 197.371094 C 254.433594 194.851562 257.894531 192.414062 261.410156 190.066406 C 264.929688 187.714844 268.503906 185.449219 272.132812 183.273438 C 275.765625 181.097656 279.445312 179.015625 283.175781 177.019531 C 286.910156 175.023438 290.6875 173.121094 294.515625 171.3125 C 298.339844 169.503906 302.207031 167.789062 306.117188 166.167969 C 310.027344 164.550781 313.972656 163.027344 317.957031 161.601562 C 321.945312 160.175781 325.960938 158.847656 330.011719 157.621094 C 334.058594 156.390625 338.136719 155.261719 342.242188 154.234375 C 346.347656 153.207031 350.476562 152.28125 354.625 151.453125 C 358.777344 150.628906 362.945312 149.90625 367.132812 149.285156 C 371.316406 148.664062 375.515625 148.144531 379.726562 147.730469 C 383.9375 147.316406 388.160156 147.003906 392.386719 146.796875 C 396.613281 146.589844 400.839844 146.484375 405.074219 146.484375 C 409.304688 146.484375 413.535156 146.589844 417.761719 146.796875 C 421.988281 147.003906 426.207031 147.316406 430.417969 147.730469 C 434.628906 148.144531 438.828125 148.664062 443.015625 149.285156 C 447.203125 149.90625 451.371094 150.628906 455.519531 151.453125 C 459.671875 152.28125 463.800781 153.207031 467.902344 154.234375 C 472.007812 155.261719 476.085938 156.390625 480.136719 157.621094 C 484.1875 158.847656 488.203125 160.175781 492.1875 161.601562 C 496.171875 163.027344 500.121094 164.550781 504.03125 166.167969 C 507.9375 167.789062 511.808594 169.503906 515.632812 171.3125 C 519.457031 173.121094 523.238281 175.023438 526.96875 177.019531 C 530.703125 179.015625 534.382812 181.097656 538.011719 183.273438 C 541.640625 185.449219 545.214844 187.714844 548.734375 190.066406 C 552.253906 192.414062 555.710938 194.851562 559.113281 197.371094 C 562.511719 199.894531 565.847656 202.496094 569.117188 205.179688 C 572.390625 207.867188 575.59375 210.628906 578.726562 213.472656 C 581.863281 216.3125 584.929688 219.230469 587.921875 222.222656 C 590.914062 225.214844 593.828125 228.28125 596.671875 231.414062 C 599.515625 234.550781 602.277344 237.753906 604.960938 241.027344 C 607.648438 244.296875 610.25 247.632812 612.769531 251.03125 C 615.292969 254.429688 617.726562 257.890625 620.078125 261.40625 C 622.429688 264.925781 624.691406 268.5 626.867188 272.132812 C 629.042969 275.761719 631.128906 279.441406 633.125 283.175781 C 635.121094 286.90625 637.023438 290.683594 638.832031 294.511719 C 640.640625 298.335938 642.355469 302.203125 643.972656 306.113281 C 645.59375 310.023438 647.117188 313.972656 648.542969 317.957031 C 649.96875 321.941406 651.292969 325.957031 652.523438 330.007812 C 653.75 334.054688 654.878906 338.132812 655.910156 342.238281 C 656.9375 346.34375 657.863281 350.472656 658.6875 354.621094 C 659.515625 358.773438 660.238281 362.941406 660.859375 367.128906 C 661.480469 371.3125 661.996094 375.511719 662.414062 379.722656 C 662.828125 383.9375 663.140625 388.15625 663.347656 392.382812 C 663.554688 396.609375 663.65625 400.839844 663.65625 405.070312 Z M 663.65625 405.070312 " fill-opacity="1" fill-rule="nonzero"/><g clip-path="url(#ac8866329e)"><path fill="#d1e6fa" d="M 81.058594 325.210938 L 263.183594 325.210938 L 263.183594 484.929688 L 81.058594 484.929688 L 135.457031 405.097656 Z M 729.089844 325.210938 L 546.964844 325.210938 L 546.964844 484.929688 L 729.089844 484.929688 L 674.6875 405.097656 Z M 729.089844 325.210938 " fill-opacity="1" fill-rule="evenodd"/></g><path fill="#ffffff" d="M 557.828125 252.304688 C 560.328125 254.804688 562.765625 257.367188 565.136719 259.984375 C 567.511719 262.605469 569.820312 265.28125 572.0625 268.015625 C 574.308594 270.746094 576.480469 273.535156 578.589844 276.375 C 580.695312 279.214844 582.730469 282.105469 584.695312 285.042969 C 586.65625 287.984375 588.550781 290.96875 590.367188 294 C 592.183594 297.035156 593.925781 300.109375 595.59375 303.226562 C 597.261719 306.34375 598.847656 309.503906 600.359375 312.699219 C 601.871094 315.894531 603.304688 319.125 604.660156 322.394531 C 606.011719 325.660156 607.285156 328.957031 608.476562 332.285156 C 609.664062 335.613281 610.773438 338.96875 611.800781 342.355469 C 612.828125 345.738281 613.769531 349.144531 614.628906 352.574219 C 615.488281 356.003906 616.261719 359.453125 616.953125 362.917969 C 617.644531 366.386719 618.246094 369.871094 618.765625 373.367188 C 619.285156 376.863281 619.71875 380.371094 620.0625 383.890625 C 620.410156 387.410156 620.671875 390.933594 620.84375 394.464844 C 621.019531 397.996094 621.105469 401.53125 621.105469 405.066406 C 621.105469 408.601562 621.019531 412.136719 620.84375 415.667969 C 620.671875 419.199219 620.410156 422.722656 620.066406 426.242188 C 619.71875 429.757812 619.285156 433.269531 618.765625 436.765625 C 618.25 440.261719 617.644531 443.746094 616.953125 447.210938 C 616.265625 450.679688 615.488281 454.128906 614.632812 457.558594 C 613.773438 460.988281 612.828125 464.394531 611.804688 467.777344 C 610.777344 471.160156 609.667969 474.519531 608.476562 477.847656 C 607.285156 481.175781 606.015625 484.472656 604.660156 487.738281 C 603.308594 491.007812 601.875 494.238281 600.363281 497.433594 C 598.851562 500.628906 597.265625 503.785156 595.597656 506.90625 C 593.929688 510.023438 592.1875 513.097656 590.371094 516.132812 C 588.554688 519.164062 586.664062 522.148438 584.699219 525.089844 C 582.734375 528.03125 580.699219 530.917969 578.59375 533.757812 C 576.488281 536.597656 574.3125 539.386719 572.070312 542.117188 C 569.824219 544.851562 567.515625 547.527344 565.144531 550.148438 C 562.769531 552.769531 560.332031 555.328125 557.832031 557.828125 C 555.332031 560.328125 552.773438 562.765625 550.152344 565.140625 C 547.53125 567.515625 544.855469 569.824219 542.125 572.066406 C 539.390625 574.308594 536.605469 576.484375 533.765625 578.589844 C 530.925781 580.695312 528.035156 582.730469 525.09375 584.695312 C 522.15625 586.660156 519.167969 588.550781 516.136719 590.367188 C 513.105469 592.1875 510.027344 593.929688 506.910156 595.59375 C 503.792969 597.261719 500.636719 598.851562 497.4375 600.363281 C 494.242188 601.875 491.011719 603.304688 487.746094 604.660156 C 484.480469 606.011719 481.179688 607.285156 477.851562 608.476562 C 474.523438 609.667969 471.167969 610.777344 467.785156 611.800781 C 464.402344 612.828125 460.996094 613.769531 457.566406 614.628906 C 454.136719 615.488281 450.6875 616.265625 447.21875 616.953125 C 443.75 617.644531 440.269531 618.25 436.769531 618.765625 C 433.273438 619.285156 429.765625 619.71875 426.246094 620.066406 C 422.730469 620.410156 419.203125 620.671875 415.671875 620.84375 C 412.140625 621.019531 408.609375 621.105469 405.070312 621.105469 C 401.535156 621.105469 398.003906 621.019531 394.472656 620.847656 C 390.941406 620.671875 387.414062 620.414062 383.898438 620.066406 C 380.378906 619.71875 376.871094 619.285156 373.371094 618.769531 C 369.875 618.25 366.394531 617.644531 362.925781 616.957031 C 359.457031 616.265625 356.007812 615.492188 352.578125 614.632812 C 349.148438 613.773438 345.742188 612.832031 342.359375 611.804688 C 338.976562 610.777344 335.621094 609.667969 332.292969 608.476562 C 328.960938 607.289062 325.664062 606.015625 322.398438 604.664062 C 319.132812 603.308594 315.902344 601.878906 312.703125 600.367188 C 309.507812 598.855469 306.351562 597.265625 303.234375 595.597656 C 300.113281 593.933594 297.039062 592.191406 294.007812 590.371094 C 290.972656 588.554688 287.988281 586.664062 285.046875 584.699219 C 282.109375 582.734375 279.21875 580.699219 276.378906 578.59375 C 273.539062 576.488281 270.753906 574.3125 268.019531 572.070312 C 265.285156 569.828125 262.609375 567.519531 259.988281 565.144531 C 257.371094 562.769531 254.808594 560.332031 252.308594 557.832031 C 249.808594 555.332031 247.375 552.773438 245 550.152344 C 242.625 547.535156 240.316406 544.859375 238.074219 542.125 C 235.828125 539.390625 233.65625 536.605469 231.546875 533.765625 C 229.441406 530.925781 227.40625 528.035156 225.441406 525.097656 C 223.480469 522.15625 221.585938 519.171875 219.769531 516.136719 C 217.953125 513.105469 216.210938 510.03125 214.542969 506.910156 C 212.875 503.792969 211.289062 500.636719 209.777344 497.441406 C 208.265625 494.246094 206.832031 491.011719 205.476562 487.746094 C 204.125 484.480469 202.851562 481.183594 201.660156 477.855469 C 200.472656 474.523438 199.363281 471.167969 198.335938 467.785156 C 197.308594 464.402344 196.367188 460.996094 195.507812 457.566406 C 194.648438 454.136719 193.875 450.6875 193.183594 447.21875 C 192.492188 443.753906 191.890625 440.269531 191.371094 436.773438 C 190.851562 433.273438 190.417969 429.765625 190.074219 426.25 C 189.726562 422.730469 189.464844 419.207031 189.292969 415.671875 C 189.117188 412.140625 189.03125 408.609375 189.03125 405.074219 C 189.03125 401.539062 189.117188 398.003906 189.292969 394.472656 C 189.464844 390.941406 189.726562 387.417969 190.070312 383.898438 C 190.417969 380.378906 190.851562 376.871094 191.371094 373.375 C 191.886719 369.875 192.492188 366.394531 193.183594 362.925781 C 193.871094 359.460938 194.648438 356.011719 195.503906 352.582031 C 196.363281 349.152344 197.308594 345.746094 198.332031 342.359375 C 199.359375 338.976562 200.46875 335.621094 201.660156 332.292969 C 202.851562 328.964844 204.121094 325.667969 205.476562 322.398438 C 206.828125 319.132812 208.261719 315.902344 209.773438 312.707031 C 211.285156 309.507812 212.875 306.351562 214.539062 303.234375 C 216.207031 300.117188 217.949219 297.039062 219.765625 294.007812 C 221.582031 290.976562 223.472656 287.988281 225.4375 285.050781 C 227.402344 282.109375 229.4375 279.21875 231.542969 276.378906 C 233.648438 273.539062 235.824219 270.753906 238.066406 268.019531 C 240.3125 265.289062 242.621094 262.609375 244.992188 259.992188 C 247.367188 257.371094 249.804688 254.8125 252.304688 252.3125 C 254.804688 249.8125 257.363281 247.375 259.984375 245 C 262.605469 242.625 265.28125 240.316406 268.011719 238.074219 C 270.746094 235.832031 273.53125 233.65625 276.371094 231.550781 C 279.210938 229.445312 282.101562 227.410156 285.042969 225.445312 C 287.980469 223.480469 290.96875 221.589844 294 219.769531 C 297.03125 217.953125 300.109375 216.210938 303.226562 214.542969 C 306.34375 212.878906 309.5 211.289062 312.699219 209.777344 C 315.894531 208.265625 319.125 206.832031 322.390625 205.480469 C 325.65625 204.125 328.957031 202.855469 332.285156 201.664062 C 335.613281 200.472656 338.96875 199.363281 342.351562 198.335938 C 345.734375 197.3125 349.144531 196.367188 352.570312 195.507812 C 356 194.648438 359.449219 193.875 362.917969 193.183594 C 366.386719 192.496094 369.867188 191.890625 373.367188 191.371094 C 376.863281 190.851562 380.371094 190.421875 383.890625 190.074219 C 387.40625 189.726562 390.933594 189.46875 394.464844 189.292969 C 397.996094 189.121094 401.527344 189.035156 405.066406 189.035156 C 408.601562 189.035156 412.132812 189.121094 415.664062 189.292969 C 419.195312 189.46875 422.722656 189.726562 426.238281 190.074219 C 429.757812 190.417969 433.265625 190.851562 436.765625 191.371094 C 440.261719 191.890625 443.742188 192.492188 447.210938 193.183594 C 450.679688 193.875 454.128906 194.648438 457.558594 195.507812 C 460.988281 196.367188 464.394531 197.308594 467.777344 198.335938 C 471.160156 199.359375 474.515625 200.46875 477.84375 201.660156 C 481.175781 202.851562 484.472656 204.125 487.738281 205.476562 C 491.003906 206.828125 494.234375 208.261719 497.433594 209.773438 C 500.628906 211.285156 503.785156 212.875 506.902344 214.539062 C 510.023438 216.207031 513.097656 217.949219 516.128906 219.765625 C 519.164062 221.585938 522.148438 223.476562 525.089844 225.441406 C 528.027344 227.402344 530.917969 229.4375 533.757812 231.546875 C 536.597656 233.652344 539.382812 235.824219 542.117188 238.070312 C 544.851562 240.3125 547.527344 242.621094 550.148438 244.996094 C 552.765625 247.371094 555.328125 249.804688 557.828125 252.304688 Z M 557.828125 252.304688 " fill-opacity="1" fill-rule="nonzero"/><path fill="#d1e6fa" d="M 322.90625 371.597656 L 487.242188 371.597656 C 498.414062 371.597656 507.554688 380.738281 507.554688 391.910156 L 507.554688 533.164062 C 507.554688 544.335938 498.414062 553.476562 487.242188 553.476562 L 322.90625 553.476562 C 311.734375 553.476562 302.59375 544.335938 302.59375 533.164062 L 302.59375 391.910156 C 302.59375 380.738281 311.734375 371.597656 322.90625 371.597656 Z M 322.90625 371.597656 " fill-opacity="1" fill-rule="evenodd"/><path fill="#ffffff" d="M 322.90625 371.597656 L 487.242188 371.597656 C 498.414062 371.597656 507.554688 380.738281 507.554688 391.910156 L 507.554688 416.648438 L 302.59375 416.648438 L 302.59375 391.910156 C 302.59375 380.738281 311.734375 371.597656 322.90625 371.597656 Z M 322.90625 371.597656 " fill-opacity="1" fill-rule="evenodd"/><path fill="#ffffff" d="M 382.914062 371.597656 L 427.230469 371.597656 L 427.230469 553.476562 L 382.914062 553.476562 Z M 382.914062 371.597656 " fill-opacity="1" fill-rule="evenodd"/><path fill="#d1e6fa" d="M 286.4375 326.132812 L 523.710938 326.132812 C 532.851562 326.132812 540.328125 333.609375 540.328125 342.75 L 540.328125 379.21875 C 540.328125 388.359375 532.851562 395.835938 523.710938 395.835938 L 286.4375 395.835938 C 277.296875 395.835938 269.820312 388.359375 269.820312 379.21875 L 269.820312 342.75 C 269.820312 333.609375 277.296875 326.132812 286.4375 326.132812 Z M 286.4375 326.132812 " fill-opacity="1" fill-rule="evenodd"/><path fill="#ffffff" d="M 470.382812 255.558594 C 456.300781 255.84375 440.820312 274.699219 433.203125 286.304688 C 427.96875 294.277344 423.558594 302.835938 420.332031 310.871094 C 433.925781 305.414062 449.4375 296.359375 460.417969 285.839844 C 467.789062 278.777344 475.734375 269.828125 475.648438 260.617188 C 475.625 258.492188 472.941406 255.554688 470.382812 255.558594 Z M 426.535156 330.140625 L 458.367188 355.109375 C 462.757812 358.539062 463.539062 364.878906 460.105469 369.269531 C 456.679688 373.660156 450.339844 374.441406 445.945312 371.011719 L 405.074219 338.953125 L 364.199219 371.011719 C 359.808594 374.4375 353.46875 373.660156 350.039062 369.269531 C 346.609375 364.878906 347.390625 358.539062 351.78125 355.109375 L 383.613281 330.140625 C 367.109375 323.769531 348.988281 313.097656 335.726562 300.394531 C 323.863281 289.03125 314.035156 276.238281 314.328125 260.300781 C 314.578125 246.632812 326.679688 235.011719 340.203125 235.390625 C 356.140625 235.832031 367.816406 244.761719 379.335938 256.785156 C 390.023438 267.941406 398.753906 281.851562 405.070312 295.304688 C 411.390625 281.851562 420.121094 267.941406 430.808594 256.785156 C 442.171875 244.921875 454.964844 235.09375 470.902344 235.386719 C 484.503906 235.636719 496.089844 247.597656 495.816406 261.160156 C 495.492188 277.007812 486.375 288.941406 474.417969 300.390625 C 461.15625 313.101562 443.042969 323.769531 426.535156 330.140625 Z M 350.683594 258.921875 C 347.011719 256.78125 343.160156 255.527344 339.558594 255.558594 C 337.414062 255.578125 334.476562 258.316406 334.5 260.804688 C 334.636719 274.75 353.785156 290.484375 365.242188 298.003906 C 373.214844 303.234375 381.78125 307.648438 389.8125 310.871094 C 384.351562 297.269531 375.308594 281.777344 364.78125 270.789062 C 359.660156 265.441406 355.078125 261.484375 350.683594 258.921875 Z M 350.683594 258.921875 " fill-opacity="1" fill-rule="evenodd"/><g clip-path="url(#09fe0cbb36)"><g clip-path="url(#ab1f8bc558)"><path fill="#ffffff" d="M 188.707031 188.707031 L 621.292969 188.707031 L 621.292969 621.292969 L 188.707031 621.292969 Z M 188.707031 188.707031 " fill-opacity="1" fill-rule="nonzero"/></g></g><path fill="#f8a716" d="M 391.164062 324.886719 C 391.164062 324.886719 313.21875 336.011719 307.503906 311.792969 C 310.351562 299.394531 309.09375 291.691406 316.308594 275.222656 C 362.917969 256.964844 395.664062 309.40625 395.664062 309.40625 L 391.164062 324.886719 " fill-opacity="1" fill-rule="nonzero"/><path fill="#fbc512" d="M 391.164062 324.886719 C 391.164062 324.886719 351.019531 256.152344 307.503906 311.792969 C 304.847656 295.878906 306.78125 270.402344 311.386719 254.5625 C 359.183594 213.429688 400.78125 306.464844 400.78125 306.464844 L 391.164062 324.886719 " fill-opacity="1" fill-rule="nonzero"/><path fill="#f8a716" d="M 418.976562 324.886719 C 418.976562 324.886719 496.925781 336.011719 502.640625 311.792969 C 499.789062 299.394531 501.050781 291.691406 493.835938 275.222656 C 447.226562 256.964844 414.476562 309.40625 414.476562 309.40625 L 418.976562 324.886719 " fill-opacity="1" fill-rule="nonzero"/><path fill="#fbc512" d="M 418.976562 324.886719 C 418.976562 324.886719 459.136719 256.152344 502.640625 311.792969 C 505.296875 295.878906 503.359375 270.402344 498.753906 254.5625 C 450.960938 213.429688 409.363281 306.464844 409.363281 306.464844 L 418.976562 324.886719 " fill-opacity="1" fill-rule="nonzero"/><path fill="#fddd0f" d="M 423.972656 320.878906 C 420.148438 326.613281 387.699219 328.160156 386.425781 320.878906 C 385.148438 313.582031 380.695312 293.539062 386.425781 288.101562 C 392.15625 282.667969 418.871094 283.34375 423.972656 288.101562 C 429.058594 292.847656 427.785156 315.144531 423.972656 320.878906 " fill-opacity="1" fill-rule="nonzero"/><g clip-path="url(#ee3739682f)"><path fill="#00acef" d="M 543.757812 389.144531 L 266.382812 389.144531 L 266.382812 323.640625 L 543.757812 323.640625 L 543.757812 389.144531 " fill-opacity="1" fill-rule="nonzero"/></g><g clip-path="url(#9e0ad019ab)"><path fill="#069be1" d="M 529.734375 541.96875 L 280.410156 541.96875 L 280.410156 389.144531 L 529.734375 389.144531 L 529.734375 541.96875 " fill-opacity="1" fill-rule="nonzero"/></g><path fill="#fddd0f" d="M 434.683594 389.144531 L 375.457031 389.144531 L 375.457031 323.640625 L 434.683594 323.640625 L 434.683594 389.144531 " fill-opacity="1" fill-rule="nonzero"/><g clip-path="url(#1fa85fd68e)"><path fill="#fbc512" d="M 431.683594 541.96875 L 378.457031 541.96875 L 378.457031 389.144531 L 431.683594 389.144531 L 431.683594 541.96875 " fill-opacity="1" fill-rule="nonzero"/></g></svg>