<svg xmlns="http://www.w3.org/2000/svg" xmlns:xlink="http://www.w3.org/1999/xlink" width="1080" zoomAndPan="magnify" viewBox="0 0 810 809.999993" height="1080" preserveAspectRatio="xMidYMid meet" version="1.0"><defs><clipPath id="158248d1db"><path d="M 112 84.644531 L 269 84.644531 L 269 227 L 112 227 Z M 112 84.644531 " clip-rule="nonzero"/></clipPath><clipPath id="916029092c"><path d="M 112 84.644531 L 243 84.644531 L 243 227 L 112 227 Z M 112 84.644531 " clip-rule="nonzero"/></clipPath><clipPath id="32254f3c0e"><path d="M 81 207 L 301 207 L 301 388 L 81 388 Z M 81 207 " clip-rule="nonzero"/></clipPath></defs><path fill="#685e68" d="M 722.152344 585.449219 L 722.152344 288.25 C 722.152344 262.882812 701.390625 242.128906 676.019531 242.128906 L 190.386719 242.128906 C 165.011719 242.128906 144.253906 262.882812 144.253906 288.25 L 144.253906 585.449219 C 144.253906 610.8125 165.011719 631.566406 190.386719 631.566406 L 676.019531 631.566406 C 701.394531 631.566406 722.152344 610.8125 722.152344 585.449219 Z M 722.152344 585.449219 " fill-opacity="1" fill-rule="evenodd"/><path fill="#544854" d="M 722.152344 585.449219 L 722.152344 288.25 C 722.152344 269.902344 711.289062 253.972656 695.679688 246.558594 C 698.519531 252.53125 700.109375 259.195312 700.109375 266.214844 L 700.109375 563.414062 C 700.109375 588.78125 679.351562 609.535156 653.976562 609.535156 L 168.347656 609.535156 C 161.324219 609.535156 154.660156 607.941406 148.6875 605.105469 C 156.101562 620.710938 172.035156 631.566406 190.390625 631.566406 L 676.019531 631.566406 C 701.394531 631.566406 722.152344 610.8125 722.152344 585.449219 Z M 722.152344 585.449219 " fill-opacity="1" fill-rule="evenodd"/><path fill="#ffd064" d="M 144.230469 331.160156 L 722.175781 331.160156 L 722.175781 351.5 L 144.230469 351.5 Z M 144.230469 331.160156 " fill-opacity="1" fill-rule="evenodd"/><path fill="#ffc338" d="M 699.910156 331.160156 L 722.175781 331.160156 L 722.175781 351.5 L 699.910156 351.5 Z M 699.910156 331.160156 " fill-opacity="1" fill-rule="evenodd"/><path fill="#eceff1" d="M 663.964844 443.78125 C 669.582031 443.78125 674.140625 448.335938 674.140625 453.953125 C 674.140625 459.570312 669.582031 464.125 663.964844 464.125 L 491.414062 464.125 C 485.796875 464.125 481.242188 459.570312 481.242188 453.953125 C 481.242188 448.335938 485.796875 443.78125 491.414062 443.78125 Z M 663.964844 443.78125 " fill-opacity="1" fill-rule="evenodd"/><path fill="#eceff1" d="M 611.476562 511.253906 C 617.09375 511.253906 621.652344 515.808594 621.652344 521.425781 C 621.652344 527.042969 617.09375 531.597656 611.476562 531.597656 L 491.414062 531.597656 C 485.796875 531.597656 481.238281 527.042969 481.238281 521.425781 C 481.238281 515.808594 485.796875 511.253906 491.414062 511.253906 Z M 611.476562 511.253906 " fill-opacity="1" fill-rule="evenodd"/><path fill="#ffd064" d="M 377.09375 436.285156 L 225.484375 436.285156 C 214.476562 436.285156 205.46875 445.285156 205.46875 456.292969 L 205.46875 554.140625 C 205.46875 565.148438 214.476562 574.152344 225.484375 574.152344 L 377.09375 574.152344 C 388.101562 574.152344 397.109375 565.148438 397.109375 554.140625 L 397.109375 456.292969 C 397.109375 445.285156 388.101562 436.285156 377.09375 436.285156 Z M 377.09375 436.285156 " fill-opacity="1" fill-rule="evenodd"/><path fill="#f5b829" d="M 397.109375 491.832031 L 337.222656 491.832031 L 337.222656 518.605469 L 397.109375 518.605469 L 397.109375 541.144531 L 205.46875 541.144531 L 205.46875 518.605469 L 265.398438 518.605469 L 265.398438 491.832031 L 205.46875 491.832031 L 205.46875 469.292969 L 265.398438 469.292969 L 265.398438 436.285156 L 287.855469 436.285156 L 287.851562 518.605469 L 314.679688 518.605469 L 314.679688 436.285156 L 337.222656 436.285156 L 337.222656 469.292969 L 397.109375 469.292969 Z M 397.109375 491.832031 " fill-opacity="1" fill-rule="evenodd"/><g clip-path="url(#158248d1db)"><path fill="#a79ba7" d="M 233.101562 226.378906 L 268.835938 226.378906 L 268.835938 162.742188 C 268.835938 119.820312 233.71875 84.714844 190.78125 84.714844 C 147.839844 84.714844 112.726562 119.816406 112.726562 162.742188 L 112.726562 223.21875 L 148.460938 223.21875 L 148.460938 162.742188 C 148.460938 139.535156 167.566406 120.433594 190.78125 120.433594 C 213.996094 120.433594 233.101562 139.539062 233.101562 162.742188 Z M 233.101562 226.378906 " fill-opacity="1" fill-rule="evenodd"/></g><g clip-path="url(#916029092c)"><path fill="#837683" d="M 233.101562 226.378906 L 242.035156 226.378906 L 242.035156 162.742188 C 242.035156 139.539062 222.929688 120.4375 199.714844 120.4375 C 198.207031 120.4375 196.714844 120.515625 195.246094 120.675781 C 216.398438 122.9375 233.101562 141.046875 233.101562 162.746094 Z M 195.246094 84.84375 C 154.367188 87.175781 121.65625 121.316406 121.65625 162.742188 L 121.65625 223.21875 L 112.726562 223.21875 L 112.726562 162.742188 C 112.726562 119.820312 147.84375 84.714844 190.78125 84.714844 C 192.28125 84.710938 193.769531 84.757812 195.246094 84.84375 Z M 195.246094 84.84375 " fill-opacity="1" fill-rule="evenodd"/></g><g clip-path="url(#32254f3c0e)"><path fill="#ffe177" d="M 95.21875 207.160156 L 286.34375 207.160156 C 294.199219 207.160156 300.605469 213.5625 300.605469 221.417969 L 300.605469 373.269531 C 300.605469 381.125 294.199219 387.527344 286.34375 387.527344 L 95.21875 387.527344 C 87.363281 387.527344 80.957031 381.125 80.957031 373.269531 L 80.957031 221.417969 C 80.957031 213.5625 87.363281 207.160156 95.21875 207.160156 Z M 95.21875 207.160156 " fill-opacity="1" fill-rule="evenodd"/></g><path fill="#ffd064" d="M 290.917969 207.914062 C 296.542969 209.828125 300.605469 215.164062 300.605469 221.417969 L 300.605469 373.269531 C 300.605469 381.125 294.199219 387.53125 286.34375 387.53125 L 95.21875 387.53125 C 88.964844 387.53125 83.625 383.46875 81.710938 377.847656 C 83.148438 378.335938 84.6875 378.601562 86.289062 378.601562 L 277.410156 378.601562 C 285.265625 378.601562 291.675781 372.195312 291.675781 364.34375 L 291.675781 212.488281 C 291.675781 210.890625 291.40625 209.351562 290.917969 207.914062 Z M 290.917969 207.914062 " fill-opacity="1" fill-rule="evenodd"/><path fill="#ffc338" d="M 254.085938 297.34375 C 254.085938 299.417969 253.984375 301.484375 253.78125 303.546875 C 253.578125 305.613281 253.277344 307.660156 252.871094 309.691406 C 252.464844 311.726562 251.964844 313.734375 251.363281 315.714844 C 250.757812 317.699219 250.0625 319.648438 249.269531 321.5625 C 248.476562 323.480469 247.589844 325.351562 246.613281 327.179688 C 245.636719 329.007812 244.570312 330.78125 243.417969 332.503906 C 242.265625 334.230469 241.03125 335.890625 239.71875 337.496094 C 238.402344 339.097656 237.011719 340.628906 235.546875 342.097656 C 234.078125 343.5625 232.542969 344.953125 230.941406 346.265625 C 229.339844 347.582031 227.675781 348.816406 225.953125 349.964844 C 224.226562 351.117188 222.453125 352.183594 220.625 353.160156 C 218.792969 354.136719 216.921875 355.023438 215.007812 355.816406 C 213.089844 356.609375 211.140625 357.304688 209.15625 357.90625 C 207.171875 358.507812 205.164062 359.011719 203.132812 359.417969 C 201.097656 359.820312 199.050781 360.125 196.984375 360.328125 C 194.921875 360.53125 192.855469 360.632812 190.78125 360.632812 C 188.707031 360.632812 186.640625 360.53125 184.574219 360.328125 C 182.511719 360.125 180.464844 359.820312 178.429688 359.417969 C 176.398438 359.011719 174.386719 358.507812 172.402344 357.90625 C 170.421875 357.304688 168.46875 356.609375 166.554688 355.816406 C 164.640625 355.023438 162.765625 354.136719 160.9375 353.160156 C 159.109375 352.183594 157.332031 351.117188 155.609375 349.964844 C 153.886719 348.816406 152.222656 347.582031 150.621094 346.265625 C 149.015625 344.953125 147.484375 343.5625 146.015625 342.097656 C 144.550781 340.628906 143.160156 339.097656 141.84375 337.496094 C 140.527344 335.890625 139.296875 334.230469 138.144531 332.503906 C 136.992188 330.78125 135.925781 329.007812 134.949219 327.179688 C 133.972656 325.351562 133.085938 323.480469 132.292969 321.5625 C 131.5 319.648438 130.800781 317.699219 130.199219 315.714844 C 129.597656 313.734375 129.09375 311.726562 128.691406 309.691406 C 128.285156 307.660156 127.984375 305.613281 127.78125 303.546875 C 127.574219 301.484375 127.472656 299.417969 127.472656 297.34375 C 127.472656 295.273438 127.574219 293.207031 127.78125 291.140625 C 127.984375 289.078125 128.285156 287.03125 128.691406 285 C 129.09375 282.964844 129.597656 280.957031 130.199219 278.972656 C 130.800781 276.992188 131.5 275.042969 132.292969 273.125 C 133.085938 271.210938 133.972656 269.339844 134.949219 267.511719 C 135.925781 265.683594 136.992188 263.910156 138.144531 262.183594 C 139.296875 260.460938 140.527344 258.800781 141.84375 257.195312 C 143.160156 255.59375 144.550781 254.0625 146.015625 252.59375 C 147.484375 251.128906 149.015625 249.738281 150.621094 248.425781 C 152.222656 247.109375 153.886719 245.875 155.609375 244.722656 C 157.332031 243.574219 159.109375 242.507812 160.9375 241.53125 C 162.765625 240.554688 164.640625 239.667969 166.554688 238.875 C 168.46875 238.082031 170.421875 237.386719 172.402344 236.785156 C 174.386719 236.183594 176.398438 235.679688 178.429688 235.273438 C 180.464844 234.871094 182.511719 234.566406 184.574219 234.363281 C 186.640625 234.160156 188.707031 234.058594 190.78125 234.058594 C 192.855469 234.058594 194.921875 234.160156 196.984375 234.363281 C 199.050781 234.566406 201.097656 234.871094 203.132812 235.273438 C 205.164062 235.679688 207.171875 236.183594 209.15625 236.785156 C 211.140625 237.386719 213.089844 238.082031 215.007812 238.875 C 216.921875 239.667969 218.792969 240.554688 220.625 241.53125 C 222.453125 242.507812 224.226562 243.574219 225.953125 244.722656 C 227.675781 245.875 229.339844 247.109375 230.941406 248.425781 C 232.542969 249.738281 234.078125 251.128906 235.546875 252.59375 C 237.011719 254.0625 238.402344 255.59375 239.71875 257.195312 C 241.03125 258.800781 242.265625 260.460938 243.417969 262.183594 C 244.570312 263.910156 245.636719 265.683594 246.613281 267.511719 C 247.589844 269.339844 248.476562 271.210938 249.269531 273.125 C 250.0625 275.042969 250.757812 276.992188 251.363281 278.972656 C 251.964844 280.957031 252.464844 282.964844 252.871094 285 C 253.277344 287.03125 253.578125 289.078125 253.78125 291.140625 C 253.984375 293.207031 254.085938 295.273438 254.085938 297.34375 Z M 254.085938 297.34375 " fill-opacity="1" fill-rule="nonzero"/><path fill="#f5b829" d="M 190.78125 234.058594 C 225.742188 234.058594 254.085938 262.394531 254.085938 297.347656 C 254.085938 332.300781 225.742188 360.632812 190.78125 360.632812 C 188.953125 360.632812 187.148438 360.550781 185.363281 360.398438 C 217.789062 357.652344 243.246094 330.472656 243.246094 297.347656 C 243.246094 264.21875 217.789062 237.042969 185.363281 234.292969 C 187.148438 234.140625 188.953125 234.058594 190.78125 234.058594 Z M 190.78125 234.058594 " fill-opacity="1" fill-rule="evenodd"/><path fill="#ffe177" d="M 216.160156 275.292969 C 217.722656 279.015625 215.972656 283.300781 212.246094 284.863281 C 208.523438 286.425781 204.238281 284.671875 202.675781 280.949219 C 201.050781 277.082031 197.96875 274.851562 194.585938 273.996094 C 192.375 273.433594 190.070312 273.398438 187.9375 273.828125 C 185.886719 274.242188 184.007812 275.070312 182.546875 276.253906 C 180.835938 277.644531 179.75 279.648438 179.871094 282.117188 C 179.976562 284.296875 181.132812 285.808594 182.75 286.863281 C 185.210938 288.46875 188.6875 289.375 192.007812 289.917969 C 197.136719 290.761719 202.746094 292.171875 207.480469 295.03125 C 213.070312 298.402344 217.285156 303.484375 218.234375 311.304688 C 218.304688 311.882812 218.347656 312.601562 218.371094 313.441406 C 218.542969 320.652344 215.261719 326.015625 210.332031 329.753906 C 206.804688 332.429688 202.457031 334.15625 198.09375 335.039062 L 198.09375 337.390625 C 198.09375 341.429688 194.816406 344.707031 190.777344 344.707031 C 186.738281 344.707031 183.460938 341.433594 183.460938 337.390625 L 183.460938 334.890625 C 179.992188 334.09375 176.695312 332.730469 173.792969 330.796875 C 168.8125 327.484375 165 322.589844 163.382812 316.113281 C 162.421875 312.199219 164.8125 308.246094 168.726562 307.285156 C 172.640625 306.324219 176.59375 308.714844 177.554688 312.625 C 178.210938 315.25 179.785156 317.253906 181.851562 318.628906 C 184.507812 320.398438 187.9375 321.238281 191.433594 321.15625 C 191.996094 321.144531 192.714844 321.085938 193.585938 320.976562 C 196.5625 320.617188 199.5 319.699219 201.53125 318.15625 C 202.917969 317.105469 203.84375 315.65625 203.796875 313.785156 C 203.792969 313.683594 203.769531 313.429688 203.71875 313.015625 C 203.410156 310.464844 201.921875 308.738281 199.941406 307.542969 C 197.105469 305.832031 193.273438 304.910156 189.667969 304.316406 C 184.691406 303.5 179.273438 302.003906 174.804688 299.085938 C 169.488281 295.617188 165.667969 290.476562 165.296875 282.800781 C 164.925781 275.210938 168.195312 269.128906 173.347656 264.9375 C 176.234375 262.589844 179.726562 260.890625 183.464844 259.914062 L 183.464844 257.296875 C 183.464844 253.257812 186.738281 249.984375 190.78125 249.984375 C 194.820312 249.984375 198.09375 253.257812 198.09375 257.296875 L 198.09375 259.816406 L 198.128906 259.824219 C 205.683594 261.738281 212.554688 266.703125 216.160156 275.292969 Z M 216.160156 275.292969 " fill-opacity="1" fill-rule="evenodd"/><path fill="#a79ba7" d="M 639.363281 631.035156 L 663.390625 615.632812 L 632.011719 564.351562 C 624.917969 570.777344 617.042969 576.273438 608.59375 580.714844 Z M 639.363281 631.035156 " fill-opacity="1" fill-rule="evenodd"/><path fill="#837683" d="M 639.363281 631.035156 L 663.390625 615.632812 L 632.011719 564.351562 C 630.515625 565.707031 628.984375 567.023438 627.417969 568.292969 L 658.355469 618.851562 L 639.359375 631.027344 Z M 614.375 577.457031 C 612.480469 578.597656 610.550781 579.683594 608.59375 580.714844 L 608.773438 581.011719 C 610.675781 579.882812 612.542969 578.695312 614.375 577.457031 Z M 614.375 577.457031 " fill-opacity="1" fill-rule="evenodd"/><path fill="#8ac9fe" d="M 564.746094 376.714844 C 566.597656 376.769531 568.445312 376.875 570.289062 377.019531 C 572.136719 377.167969 573.976562 377.363281 575.8125 377.597656 C 577.648438 377.835938 579.480469 378.121094 581.300781 378.449219 C 583.125 378.777344 584.9375 379.148438 586.742188 379.566406 C 588.542969 379.984375 590.335938 380.445312 592.117188 380.949219 C 593.898438 381.453125 595.667969 382 597.421875 382.59375 C 599.175781 383.183594 600.914062 383.820312 602.640625 384.496094 C 604.363281 385.171875 606.066406 385.890625 607.757812 386.652344 C 609.445312 387.414062 611.113281 388.214844 612.761719 389.058594 C 614.410156 389.898438 616.035156 390.78125 617.640625 391.703125 C 619.246094 392.628906 620.828125 393.589844 622.386719 394.589844 C 623.945312 395.589844 625.476562 396.625 626.984375 397.703125 C 628.492188 398.777344 629.972656 399.886719 631.425781 401.035156 C 632.878906 402.183594 634.300781 403.367188 635.695312 404.585938 C 637.089844 405.800781 638.453125 407.054688 639.785156 408.339844 C 641.121094 409.625 642.417969 410.941406 643.6875 412.289062 C 644.957031 413.636719 646.191406 415.015625 647.390625 416.425781 C 648.59375 417.835938 649.757812 419.273438 650.886719 420.738281 C 652.015625 422.203125 653.109375 423.699219 654.167969 425.21875 C 655.222656 426.738281 656.242188 428.28125 657.222656 429.851562 C 658.203125 431.421875 659.144531 433.015625 660.046875 434.632812 C 660.953125 436.25 661.8125 437.886719 662.636719 439.542969 C 663.457031 441.203125 664.238281 442.882812 664.976562 444.578125 C 665.71875 446.273438 666.414062 447.988281 667.070312 449.71875 C 667.726562 451.449219 668.339844 453.195312 668.910156 454.957031 C 669.480469 456.71875 670.003906 458.492188 670.488281 460.28125 C 670.972656 462.066406 671.410156 463.867188 671.804688 465.675781 C 672.199219 467.484375 672.546875 469.300781 672.851562 471.125 C 673.15625 472.949219 673.417969 474.78125 673.632812 476.621094 C 673.847656 478.460938 674.019531 480.300781 674.144531 482.148438 C 674.269531 483.996094 674.347656 485.84375 674.378906 487.695312 C 674.414062 489.546875 674.402344 491.398438 674.347656 493.246094 C 674.289062 495.097656 674.1875 496.945312 674.039062 498.789062 C 673.890625 500.636719 673.699219 502.476562 673.460938 504.3125 C 673.222656 506.148438 672.9375 507.976562 672.609375 509.796875 C 672.28125 511.617188 671.910156 513.433594 671.492188 515.234375 C 671.078125 517.039062 670.617188 518.832031 670.109375 520.613281 C 669.605469 522.390625 669.058594 524.160156 668.464844 525.914062 C 667.875 527.667969 667.238281 529.40625 666.5625 531.128906 C 665.882812 532.851562 665.164062 534.558594 664.40625 536.246094 C 663.644531 537.933594 662.839844 539.597656 662 541.246094 C 661.15625 542.894531 660.273438 544.523438 659.351562 546.128906 C 658.425781 547.730469 657.464844 549.3125 656.464844 550.871094 C 655.464844 552.429688 654.425781 553.960938 653.351562 555.46875 C 652.277344 556.972656 651.164062 558.453125 650.015625 559.90625 C 648.867188 561.359375 647.683594 562.78125 646.464844 564.175781 C 645.25 565.570312 643.996094 566.933594 642.710938 568.265625 C 641.425781 569.597656 640.109375 570.898438 638.761719 572.164062 C 637.410156 573.433594 636.03125 574.667969 634.621094 575.867188 C 633.210938 577.066406 631.773438 578.234375 630.308594 579.363281 C 628.839844 580.492188 627.347656 581.585938 625.828125 582.640625 C 624.304688 583.699219 622.761719 584.714844 621.191406 585.695312 C 619.621094 586.675781 618.027344 587.617188 616.410156 588.519531 C 614.792969 589.421875 613.15625 590.285156 611.496094 591.105469 C 609.835938 591.929688 608.160156 592.710938 606.460938 593.449219 C 604.761719 594.1875 603.050781 594.886719 601.316406 595.542969 C 599.585938 596.195312 597.839844 596.808594 596.078125 597.378906 C 594.316406 597.949219 592.539062 598.472656 590.753906 598.957031 C 588.964844 599.4375 587.167969 599.878906 585.359375 600.273438 C 583.550781 600.667969 581.730469 601.015625 579.90625 601.320312 C 578.078125 601.625 576.246094 601.886719 574.40625 602.101562 C 572.566406 602.316406 570.726562 602.484375 568.878906 602.609375 C 567.03125 602.734375 565.179688 602.8125 563.328125 602.847656 C 561.476562 602.882812 559.628906 602.871094 557.777344 602.8125 C 555.925781 602.757812 554.078125 602.652344 552.230469 602.507812 C 550.386719 602.359375 548.546875 602.164062 546.707031 601.925781 C 544.871094 601.691406 543.042969 601.40625 541.222656 601.078125 C 539.398438 600.75 537.585938 600.378906 535.78125 599.960938 C 533.976562 599.542969 532.183594 599.082031 530.402344 598.578125 C 528.621094 598.074219 526.855469 597.527344 525.097656 596.933594 C 523.34375 596.34375 521.605469 595.707031 519.882812 595.03125 C 518.160156 594.355469 516.453125 593.636719 514.765625 592.875 C 513.078125 592.113281 511.410156 591.3125 509.761719 590.46875 C 508.113281 589.628906 506.484375 588.746094 504.878906 587.824219 C 503.273438 586.898438 501.691406 585.9375 500.132812 584.9375 C 498.578125 583.9375 497.042969 582.902344 495.535156 581.824219 C 494.03125 580.75 492.550781 579.640625 491.097656 578.492188 C 489.644531 577.34375 488.222656 576.160156 486.828125 574.941406 C 485.433594 573.722656 484.070312 572.472656 482.734375 571.1875 C 481.402344 569.902344 480.101562 568.585938 478.832031 567.238281 C 477.566406 565.890625 476.332031 564.511719 475.128906 563.101562 C 473.929688 561.691406 472.765625 560.253906 471.632812 558.789062 C 470.503906 557.324219 469.410156 555.828125 468.355469 554.308594 C 467.296875 552.789062 466.277344 551.246094 465.296875 549.675781 C 464.316406 548.105469 463.375 546.511719 462.472656 544.894531 C 461.570312 543.277344 460.707031 541.640625 459.886719 539.984375 C 459.0625 538.324219 458.285156 536.644531 457.542969 534.949219 C 456.804688 533.253906 456.105469 531.539062 455.449219 529.808594 C 454.796875 528.078125 454.183594 526.332031 453.613281 524.570312 C 453.042969 522.808594 452.515625 521.035156 452.035156 519.246094 C 451.550781 517.460938 451.113281 515.660156 450.71875 513.851562 C 450.324219 512.042969 449.972656 510.226562 449.667969 508.402344 C 449.363281 506.574219 449.105469 504.742188 448.890625 502.90625 C 448.671875 501.066406 448.503906 499.222656 448.378906 497.378906 C 448.253906 495.53125 448.175781 493.683594 448.140625 491.832031 C 448.109375 489.980469 448.117188 488.128906 448.175781 486.28125 C 448.234375 484.429688 448.335938 482.582031 448.484375 480.738281 C 448.632812 478.890625 448.824219 477.050781 449.0625 475.214844 C 449.300781 473.378906 449.582031 471.550781 449.910156 469.730469 C 450.238281 467.90625 450.613281 466.09375 451.027344 464.292969 C 451.445312 462.488281 451.90625 460.695312 452.410156 458.914062 C 452.917969 457.132812 453.464844 455.367188 454.058594 453.613281 C 454.648438 451.859375 455.285156 450.121094 455.960938 448.398438 C 456.636719 446.675781 457.355469 444.96875 458.117188 443.28125 C 458.878906 441.59375 459.679688 439.925781 460.523438 438.28125 C 461.367188 436.632812 462.25 435.003906 463.171875 433.398438 C 464.09375 431.796875 465.054688 430.214844 466.054688 428.65625 C 467.058594 427.097656 468.09375 425.566406 469.171875 424.058594 C 470.246094 422.554688 471.359375 421.074219 472.507812 419.621094 C 473.65625 418.167969 474.835938 416.746094 476.054688 415.351562 C 477.273438 413.957031 478.527344 412.59375 479.8125 411.261719 C 481.097656 409.929688 482.414062 408.628906 483.761719 407.363281 C 485.109375 406.09375 486.492188 404.859375 487.898438 403.660156 C 489.308594 402.460938 490.746094 401.292969 492.214844 400.164062 C 493.679688 399.035156 495.175781 397.941406 496.695312 396.886719 C 498.214844 395.828125 499.761719 394.8125 501.332031 393.832031 C 502.902344 392.851562 504.496094 391.910156 506.113281 391.007812 C 507.730469 390.105469 509.367188 389.242188 511.027344 388.421875 C 512.683594 387.597656 514.363281 386.816406 516.0625 386.078125 C 517.757812 385.339844 519.472656 384.640625 521.203125 383.984375 C 522.9375 383.332031 524.683594 382.71875 526.445312 382.148438 C 528.207031 381.578125 529.980469 381.054688 531.769531 380.570312 C 533.554688 380.089844 535.355469 379.648438 537.164062 379.253906 C 538.972656 378.859375 540.789062 378.511719 542.617188 378.207031 C 544.441406 377.902344 546.277344 377.640625 548.113281 377.425781 C 549.953125 377.210938 551.796875 377.042969 553.644531 376.917969 C 555.492188 376.792969 557.339844 376.714844 559.191406 376.679688 C 561.042969 376.644531 562.894531 376.65625 564.746094 376.714844 Z M 564.746094 376.714844 " fill-opacity="1" fill-rule="nonzero"/><path fill="#eceff1" d="M 600.238281 419.917969 C 601.382812 420.554688 602.511719 421.222656 603.621094 421.914062 C 604.730469 422.605469 605.824219 423.328125 606.902344 424.074219 C 607.976562 424.820312 609.03125 425.59375 610.070312 426.390625 C 611.109375 427.1875 612.125 428.011719 613.121094 428.859375 C 614.121094 429.707031 615.09375 430.582031 616.050781 431.476562 C 617.003906 432.371094 617.9375 433.292969 618.84375 434.234375 C 619.753906 435.175781 620.640625 436.140625 621.5 437.125 C 622.363281 438.109375 623.199219 439.113281 624.011719 440.140625 C 624.824219 441.167969 625.613281 442.214844 626.375 443.277344 C 627.132812 444.34375 627.867188 445.425781 628.578125 446.527344 C 629.285156 447.628906 629.964844 448.746094 630.617188 449.878906 C 631.269531 451.015625 631.894531 452.164062 632.492188 453.332031 C 633.089844 454.496094 633.65625 455.675781 634.195312 456.867188 C 634.734375 458.058594 635.242188 459.265625 635.722656 460.484375 C 636.203125 461.703125 636.652344 462.929688 637.070312 464.171875 C 637.488281 465.410156 637.878906 466.660156 638.234375 467.917969 C 638.59375 469.179688 638.921875 470.445312 639.214844 471.722656 C 639.511719 472.996094 639.773438 474.277344 640.007812 475.566406 C 640.242188 476.855469 640.441406 478.148438 640.609375 479.445312 C 640.777344 480.742188 640.917969 482.042969 641.019531 483.347656 C 641.125 484.652344 641.199219 485.960938 641.242188 487.269531 C 641.28125 488.574219 641.289062 489.882812 641.265625 491.191406 C 641.242188 492.5 641.1875 493.808594 641.101562 495.113281 C 641.011719 496.421875 640.894531 497.722656 640.742188 499.023438 C 640.589844 500.324219 640.40625 501.621094 640.191406 502.910156 C 639.976562 504.203125 639.730469 505.488281 639.453125 506.765625 C 639.175781 508.046875 638.863281 509.316406 638.523438 510.582031 C 638.183594 511.84375 637.8125 513.097656 637.410156 514.34375 C 637.007812 515.589844 636.574219 516.824219 636.113281 518.050781 C 635.648438 519.273438 635.15625 520.484375 634.632812 521.6875 C 634.113281 522.886719 633.558594 524.074219 632.980469 525.246094 C 632.398438 526.417969 631.789062 527.578125 631.152344 528.71875 C 630.515625 529.863281 629.847656 530.988281 629.15625 532.101562 C 628.460938 533.210938 627.742188 534.304688 626.996094 535.378906 C 626.25 536.453125 625.476562 537.511719 624.679688 538.546875 C 623.878906 539.585938 623.054688 540.601562 622.207031 541.597656 C 621.359375 542.597656 620.488281 543.570312 619.589844 544.523438 C 618.695312 545.480469 617.773438 546.410156 616.832031 547.320312 C 615.890625 548.230469 614.925781 549.113281 613.941406 549.976562 C 612.957031 550.835938 611.949219 551.675781 610.921875 552.484375 C 609.894531 553.296875 608.851562 554.085938 607.785156 554.847656 C 606.71875 555.605469 605.636719 556.339844 604.535156 557.046875 C 603.433594 557.757812 602.316406 558.4375 601.179688 559.089844 C 600.046875 559.742188 598.894531 560.367188 597.730469 560.964844 C 596.5625 561.558594 595.386719 562.128906 594.191406 562.664062 C 593 563.203125 591.792969 563.714844 590.574219 564.191406 C 589.355469 564.671875 588.125 565.121094 586.886719 565.539062 C 585.644531 565.957031 584.394531 566.347656 583.136719 566.703125 C 581.875 567.0625 580.609375 567.390625 579.332031 567.683594 C 578.058594 567.980469 576.777344 568.242188 575.488281 568.476562 C 574.199219 568.707031 572.90625 568.910156 571.609375 569.078125 C 570.308594 569.246094 569.007812 569.382812 567.703125 569.488281 C 566.398438 569.59375 565.089844 569.667969 563.78125 569.707031 C 562.472656 569.75 561.164062 569.757812 559.855469 569.734375 C 558.546875 569.710938 557.238281 569.65625 555.933594 569.570312 C 554.625 569.480469 553.324219 569.363281 552.023438 569.210938 C 550.722656 569.058594 549.425781 568.875 548.132812 568.660156 C 546.84375 568.445312 545.558594 568.199219 544.277344 567.921875 C 543 567.644531 541.726562 567.332031 540.460938 566.992188 C 539.199219 566.652344 537.941406 566.28125 536.695312 565.878906 C 535.449219 565.476562 534.214844 565.042969 532.992188 564.582031 C 531.765625 564.117188 530.554688 563.625 529.351562 563.105469 C 528.152344 562.582031 526.964844 562.03125 525.792969 561.449219 C 524.617188 560.867188 523.460938 560.261719 522.316406 559.621094 C 521.171875 558.984375 520.046875 558.320312 518.933594 557.628906 C 517.824219 556.933594 516.730469 556.214844 515.65625 555.46875 C 514.582031 554.722656 513.523438 553.949219 512.484375 553.152344 C 511.449219 552.351562 510.429688 551.53125 509.433594 550.679688 C 508.4375 549.832031 507.460938 548.960938 506.507812 548.066406 C 505.550781 547.167969 504.621094 546.25 503.710938 545.308594 C 502.800781 544.367188 501.917969 543.402344 501.054688 542.417969 C 500.191406 541.433594 499.355469 540.425781 498.542969 539.398438 C 497.730469 538.375 496.945312 537.328125 496.183594 536.261719 C 495.421875 535.199219 494.6875 534.113281 493.980469 533.015625 C 493.269531 531.914062 492.589844 530.796875 491.9375 529.660156 C 491.285156 528.527344 490.660156 527.375 490.0625 526.210938 C 489.464844 525.046875 488.898438 523.867188 488.359375 522.675781 C 487.820312 521.480469 487.3125 520.277344 486.832031 519.058594 C 486.355469 517.839844 485.90625 516.609375 485.484375 515.371094 C 485.066406 514.128906 484.679688 512.882812 484.320312 511.621094 C 483.960938 510.363281 483.636719 509.097656 483.339844 507.820312 C 483.046875 506.546875 482.78125 505.265625 482.546875 503.976562 C 482.316406 502.6875 482.113281 501.394531 481.945312 500.097656 C 481.777344 498.800781 481.640625 497.496094 481.535156 496.191406 C 481.429688 494.886719 481.355469 493.582031 481.316406 492.273438 C 481.273438 490.964844 481.265625 489.65625 481.289062 488.347656 C 481.3125 487.039062 481.367188 485.734375 481.457031 484.425781 C 481.542969 483.121094 481.660156 481.816406 481.8125 480.515625 C 481.964844 479.21875 482.148438 477.921875 482.363281 476.628906 C 482.578125 475.339844 482.824219 474.054688 483.105469 472.777344 C 483.382812 471.496094 483.691406 470.226562 484.03125 468.960938 C 484.371094 467.699219 484.742188 466.441406 485.144531 465.199219 C 485.546875 463.953125 485.980469 462.71875 486.445312 461.492188 C 486.90625 460.269531 487.398438 459.054688 487.921875 457.855469 C 488.445312 456.65625 488.996094 455.46875 489.578125 454.296875 C 490.15625 453.121094 490.765625 451.964844 491.40625 450.820312 C 492.042969 449.679688 492.707031 448.550781 493.402344 447.441406 C 494.09375 446.332031 494.8125 445.238281 495.558594 444.164062 C 496.308594 443.085938 497.078125 442.03125 497.878906 440.992188 C 498.675781 439.957031 499.5 438.9375 500.347656 437.941406 C 501.195312 436.945312 502.070312 435.96875 502.964844 435.015625 C 503.863281 434.0625 504.78125 433.128906 505.722656 432.222656 C 506.664062 431.3125 507.628906 430.425781 508.613281 429.566406 C 509.601562 428.703125 510.605469 427.867188 511.632812 427.054688 C 512.660156 426.242188 513.707031 425.457031 514.769531 424.695312 C 515.835938 423.933594 516.921875 423.199219 518.023438 422.492188 C 519.121094 421.785156 520.242188 421.105469 521.375 420.453125 C 522.511719 419.800781 523.660156 419.175781 524.828125 418.578125 C 525.992188 417.980469 527.171875 417.414062 528.363281 416.875 C 529.558594 416.335938 530.765625 415.828125 531.980469 415.347656 C 533.199219 414.871094 534.429688 414.421875 535.671875 414 C 536.910156 413.582031 538.160156 413.195312 539.421875 412.835938 C 540.679688 412.480469 541.945312 412.152344 543.222656 411.855469 C 544.496094 411.5625 545.78125 411.296875 547.070312 411.066406 C 548.355469 410.832031 549.648438 410.632812 550.949219 410.464844 C 552.246094 410.292969 553.546875 410.15625 554.855469 410.050781 C 556.160156 409.945312 557.464844 409.875 558.773438 409.832031 C 560.082031 409.792969 561.390625 409.785156 562.699219 409.804688 C 564.011719 409.828125 565.316406 409.886719 566.625 409.972656 C 567.929688 410.058594 569.234375 410.179688 570.535156 410.332031 C 571.835938 410.484375 573.128906 410.664062 574.421875 410.878906 C 575.714844 411.097656 577 411.34375 578.277344 411.621094 C 579.558594 411.898438 580.828125 412.207031 582.09375 412.546875 C 583.359375 412.890625 584.613281 413.261719 585.859375 413.664062 C 587.105469 414.066406 588.339844 414.496094 589.566406 414.960938 C 590.789062 415.421875 592.003906 415.914062 593.203125 416.4375 C 594.402344 416.960938 595.589844 417.511719 596.765625 418.09375 C 597.9375 418.671875 599.097656 419.28125 600.238281 419.917969 Z M 600.238281 419.917969 " fill-opacity="1" fill-rule="nonzero"/><path fill="#60b7ff" d="M 587.097656 379.632812 C 647.933594 393.894531 685.6875 454.753906 671.425781 515.570312 C 658.640625 570.078125 608.410156 606.042969 554.324219 602.652344 C 602.824219 599.601562 645.671875 565.304688 657.335938 515.570312 C 671.597656 454.753906 633.84375 393.890625 573.007812 379.632812 C 566.699219 378.15625 560.390625 377.246094 554.128906 376.851562 C 564.933594 376.171875 576.015625 377.035156 587.097656 379.632812 Z M 587.097656 379.632812 " fill-opacity="1" fill-rule="evenodd"/><path fill="#d1d1d6" d="M 568.386719 569.429688 C 560.101562 570.167969 551.554688 569.621094 543.011719 567.617188 C 499.996094 557.535156 473.296875 514.5 483.382812 471.496094 C 492.582031 432.261719 529.226562 406.613281 568.25 410.074219 C 534.808594 413.054688 505.554688 437.03125 497.472656 471.496094 C 487.386719 514.5 514.085938 557.535156 557.101562 567.617188 C 560.871094 568.5 564.640625 569.09375 568.386719 569.429688 Z M 568.386719 569.429688 " fill-opacity="1" fill-rule="evenodd"/><path fill="#ecba78" d="M 695.652344 722.195312 L 722.769531 704.8125 C 727.53125 701.761719 728.929688 695.367188 725.875 690.605469 L 679.148438 617.75 C 676.09375 612.988281 669.699219 611.589844 664.9375 614.640625 L 637.820312 632.023438 C 633.058594 635.074219 631.660156 641.46875 634.714844 646.230469 L 681.445312 719.085938 C 684.496094 723.847656 690.890625 725.246094 695.652344 722.195312 Z M 695.652344 722.195312 " fill-opacity="1" fill-rule="evenodd"/><path fill="#e3a76f" d="M 695.652344 722.195312 L 722.769531 704.8125 C 727.53125 701.761719 728.929688 695.367188 725.875 690.605469 L 679.148438 617.75 C 676.246094 613.226562 670.332031 611.738281 665.667969 614.214844 C 667.191406 615.015625 668.53125 616.203125 669.523438 617.75 L 716.25 690.605469 C 719.304688 695.367188 717.910156 701.761719 713.144531 704.8125 L 686.027344 722.195312 C 685.789062 722.347656 685.546875 722.488281 685.296875 722.621094 C 688.472656 724.285156 692.433594 724.257812 695.652344 722.195312 Z M 695.652344 722.195312 " fill-opacity="1" fill-rule="evenodd"/></svg>