<svg xmlns="http://www.w3.org/2000/svg" xmlns:xlink="http://www.w3.org/1999/xlink" width="1080" zoomAndPan="magnify" viewBox="0 0 810 809.999993" height="1080" preserveAspectRatio="xMidYMid meet" version="1.0"><defs><clipPath id="aa3c246366"><path d="M 175 666 L 577 666 L 577 728.25 L 175 728.25 Z M 175 666 " clip-rule="nonzero"/></clipPath><clipPath id="f2e2dfd7ff"><path d="M 175 672 L 577 672 L 577 728.25 L 175 728.25 Z M 175 672 " clip-rule="nonzero"/></clipPath></defs><path fill="#a79ba7" d="M 283.40625 577.5625 L 468.949219 577.5625 L 468.949219 683.203125 L 283.40625 683.203125 Z M 283.40625 577.5625 " fill-opacity="1" fill-rule="evenodd"/><path fill="#837683" d="M 454.550781 577.5625 L 468.949219 577.5625 L 468.949219 683.203125 L 454.550781 683.203125 Z M 454.550781 577.5625 " fill-opacity="1" fill-rule="evenodd"/><g clip-path="url(#aa3c246366)"><path fill="#eceff1" d="M 175.644531 728.234375 L 576.75 728.234375 L 576.75 697.316406 C 576.75 680.34375 559.316406 666.402344 538.050781 666.402344 L 214.34375 666.402344 C 193.042969 666.402344 175.644531 680.34375 175.644531 697.316406 Z M 175.644531 728.234375 " fill-opacity="1" fill-rule="evenodd"/></g><g clip-path="url(#f2e2dfd7ff)"><path fill="#d1d1d6" d="M 175.644531 728.234375 L 576.75 728.234375 L 576.75 697.316406 C 576.75 687.246094 570.578125 678.21875 561.128906 672.574219 C 563.257812 676.371094 564.441406 680.621094 564.441406 685.050781 L 564.441406 715.964844 L 175.644531 715.964844 Z M 175.644531 728.234375 " fill-opacity="1" fill-rule="evenodd"/></g><path fill="#eceff1" d="M 126.382812 191.464844 L 625.976562 191.464844 C 650.9375 191.464844 671.371094 211.886719 671.371094 236.84375 L 671.371094 548.949219 C 671.371094 573.902344 650.9375 594.328125 625.976562 594.328125 L 126.382812 594.328125 C 101.417969 594.328125 81.023438 573.902344 81.023438 548.949219 L 81.023438 236.84375 C 81.023438 211.886719 101.417969 191.464844 126.382812 191.464844 Z M 126.382812 191.464844 " fill-opacity="1" fill-rule="evenodd"/><path fill="#d1d1d6" d="M 651.289062 199.234375 C 663.386719 207.425781 671.371094 221.226562 671.371094 236.84375 L 671.371094 548.949219 C 671.371094 573.902344 650.9375 594.328125 625.976562 594.328125 L 126.382812 594.328125 C 110.796875 594.328125 96.957031 586.347656 88.765625 574.285156 C 96.015625 579.167969 104.730469 582.023438 114.074219 582.023438 L 613.671875 582.023438 C 638.632812 582.023438 659.0625 561.636719 659.0625 536.679688 L 659.0625 224.539062 C 659.0625 215.199219 656.203125 206.484375 651.289062 199.234375 Z M 651.289062 199.234375 " fill-opacity="1" fill-rule="evenodd"/><path fill="#d8ecfe" d="M 125.265625 229.417969 L 627.125 229.417969 C 630.578125 229.417969 633.402344 232.242188 633.402344 235.691406 L 633.402344 518.242188 L 118.957031 518.242188 L 118.957031 235.691406 C 118.957031 232.242188 121.78125 229.417969 125.265625 229.417969 Z M 125.265625 229.417969 " fill-opacity="1" fill-rule="evenodd"/><path fill="#c4e2ff" d="M 602.515625 229.417969 L 627.125 229.417969 C 630.578125 229.417969 633.402344 232.242188 633.402344 235.691406 L 633.402344 518.242188 L 608.824219 518.242188 L 608.824219 235.691406 C 608.824219 232.242188 605.964844 229.417969 602.515625 229.417969 Z M 602.515625 229.417969 " fill-opacity="1" fill-rule="evenodd"/><path fill="#8ac9fe" d="M 379.273438 81.789062 C 377.292969 80.941406 375.050781 80.941406 373.070312 81.789062 C 354.363281 89.804688 256.632812 131.679688 233.800781 141.464844 C 230.90625 142.703125 229.027344 145.550781 229.027344 148.699219 C 229.027344 172.652344 229.027344 271.335938 229.027344 271.335938 C 229.027344 357.804688 291.503906 432.8125 376.171875 448.921875 C 460.890625 432.8125 523.363281 357.804688 523.363281 271.335938 L 523.363281 148.699219 C 523.363281 145.550781 521.488281 142.703125 518.589844 141.464844 C 495.753906 131.683594 397.984375 89.804688 379.273438 81.789062 Z M 379.273438 81.789062 " fill-opacity="1" fill-rule="evenodd"/><path fill="#60b7ff" d="M 369.425781 447.503906 C 450.6875 428.789062 509.863281 355.492188 509.863281 271.335938 L 509.863281 148.699219 C 509.863281 145.550781 507.988281 142.703125 505.089844 141.464844 L 369.421875 83.351562 L 373.070312 81.789062 C 375.050781 80.941406 377.292969 80.941406 379.273438 81.789062 L 518.589844 141.464844 C 521.488281 142.703125 523.363281 145.550781 523.363281 148.699219 L 523.363281 271.335938 C 523.363281 357.804688 460.890625 432.8125 376.171875 448.921875 C 373.90625 448.488281 371.65625 448.015625 369.425781 447.503906 Z M 369.425781 447.503906 " fill-opacity="1" fill-rule="evenodd"/><path fill="#ffe177" d="M 377.546875 391.535156 C 377.199219 391.90625 376.714844 392.117188 376.207031 392.117188 C 375.699219 392.117188 375.210938 391.90625 374.867188 391.535156 C 369.4375 385.703125 349.351562 364.136719 349.351562 364.136719 L 349.351562 354.164062 L 365.554688 339.488281 L 349.351562 324.816406 L 365.554688 310.160156 L 349.351562 295.488281 L 349.351562 243 C 331.585938 233.421875 319.507812 214.667969 319.507812 193.070312 C 319.507812 161.785156 344.890625 136.40625 376.207031 136.40625 C 407.5 136.40625 432.886719 161.785156 432.886719 193.070312 C 432.886719 214.667969 420.804688 233.421875 403.042969 243 L 403.042969 364.136719 C 403.042969 364.136719 382.972656 385.703125 377.546875 391.535156 Z M 377.546875 391.535156 " fill-opacity="1" fill-rule="evenodd"/><path fill="#ffd064" d="M 382.953125 385.722656 C 382.953125 385.722656 379.511719 389.421875 377.546875 391.535156 C 377.199219 391.90625 376.714844 392.117188 376.207031 392.117188 C 375.699219 392.117188 375.210938 391.90625 374.867188 391.535156 C 369.4375 385.703125 349.351562 364.136719 349.351562 364.136719 L 349.351562 354.164062 L 365.554688 339.488281 L 349.351562 324.816406 L 365.554688 310.160156 L 349.351562 295.488281 L 349.351562 243 C 331.585938 233.421875 319.507812 214.667969 319.507812 193.070312 C 319.507812 161.785156 344.890625 136.40625 376.207031 136.40625 C 378.488281 136.40625 380.742188 136.542969 382.953125 136.804688 C 354.824219 140.140625 333.003906 164.066406 333.003906 193.070312 C 333.003906 214.667969 345.085938 233.421875 362.851562 243 L 362.851562 295.488281 L 379.054688 310.160156 L 362.851562 324.816406 L 379.054688 339.488281 L 362.851562 354.164062 L 362.851562 364.136719 Z M 382.953125 385.722656 " fill-opacity="1" fill-rule="evenodd"/><path fill="#eceff1" d="M 393.046875 179.375 C 393.046875 188.667969 385.503906 196.210938 376.207031 196.210938 C 366.890625 196.210938 359.34375 188.667969 359.34375 179.375 C 359.34375 170.0625 366.890625 162.519531 376.207031 162.519531 C 385.503906 162.519531 393.046875 170.0625 393.046875 179.375 Z M 393.046875 179.375 " fill-opacity="1" fill-rule="evenodd"/><path fill="#837683" d="M 626.023438 640.851562 C 682.714844 640.851562 728.960938 594.632812 728.960938 537.960938 C 728.960938 481.289062 682.714844 435.054688 626.023438 435.054688 C 569.335938 435.054688 523.089844 481.289062 523.089844 537.960938 C 523.089844 594.632812 569.335938 640.851562 626.023438 640.851562 Z M 626.023438 640.851562 " fill-opacity="1" fill-rule="evenodd"/><path fill="#685e68" d="M 710.652344 537.960938 C 710.652344 559.007812 704.332031 578.578125 693.484375 594.886719 C 689.304688 601.171875 684.441406 606.980469 679.007812 612.195312 C 662.570312 627.96875 640.90625 638.335938 616.871094 640.449219 C 619.886719 640.71875 622.9375 640.851562 626.023438 640.851562 C 631.023438 640.851562 635.945312 640.5 640.761719 639.804688 C 641.378906 639.722656 642 639.625 642.609375 639.527344 C 691.578125 631.601562 728.960938 589.136719 728.960938 537.960938 C 728.960938 481.128906 682.871094 435.054688 626.023438 435.054688 C 622.9375 435.054688 619.886719 435.191406 616.871094 435.457031 C 669.4375 440.085938 710.652344 484.203125 710.652344 537.960938 Z M 710.652344 537.960938 " fill-opacity="1" fill-rule="evenodd"/><path fill="#8ac9fe" d="M 626.023438 547.875 C 588.945312 547.875 558.417969 575.964844 554.554688 612.011719 C 573.066406 629.867188 598.257812 640.851562 626.023438 640.851562 C 631.023438 640.851562 635.945312 640.5 640.761719 639.804688 C 662.644531 636.671875 682.3125 626.644531 697.484375 612.011719 C 693.632812 575.953125 663.105469 547.875 626.023438 547.875 Z M 626.023438 547.875 " fill-opacity="1" fill-rule="evenodd"/><path fill="#60b7ff" d="M 616.882812 548.460938 C 659.664062 553.894531 676.90625 586.257812 680.867188 625.039062 C 686.859375 621.273438 692.429688 616.898438 697.484375 612.011719 C 693.632812 575.953125 663.105469 547.875 626.023438 547.875 C 622.925781 547.875 619.875 548.070312 616.882812 548.460938 Z M 616.882812 548.460938 " fill-opacity="1" fill-rule="evenodd"/><path fill="#f6dccd" d="M 626.023438 542.445312 C 646.050781 542.445312 662.375 526.121094 662.375 506.117188 C 662.375 486.101562 646.050781 469.792969 626.023438 469.792969 C 606.015625 469.792969 589.6875 486.101562 589.6875 506.117188 C 589.6875 526.121094 606.015625 542.445312 626.023438 542.445312 Z M 626.023438 542.445312 " fill-opacity="1" fill-rule="evenodd"/><path fill="#f1cbbc" d="M 653.222656 506.117188 C 653.222656 524.640625 639.363281 539.917969 621.453125 542.164062 C 622.949219 542.347656 624.480469 542.445312 626.023438 542.445312 C 646.097656 542.445312 662.363281 526.183594 662.363281 506.117188 C 662.363281 486.050781 646.097656 469.792969 626.023438 469.792969 C 624.480469 469.792969 622.949219 469.886719 621.453125 470.070312 C 639.363281 472.320312 653.222656 487.597656 653.222656 506.117188 Z M 653.222656 506.117188 " fill-opacity="1" fill-rule="evenodd"/></svg>