<svg xmlns="http://www.w3.org/2000/svg" xmlns:xlink="http://www.w3.org/1999/xlink" width="1080" zoomAndPan="magnify" viewBox="0 0 810 809.999993" height="1080" preserveAspectRatio="xMidYMid meet" version="1.0"><defs><clipPath id="57ae701d59"><path d="M 81 314 L 458 314 L 458 551.871094 L 81 551.871094 Z M 81 314 " clip-rule="nonzero"/></clipPath><clipPath id="b9cf7f5fb5"><path d="M 160 314 L 458 314 L 458 551.871094 L 160 551.871094 Z M 160 314 " clip-rule="nonzero"/></clipPath><clipPath id="3b2a6087a6"><path d="M 386.925781 81 L 531.683594 81 L 531.683594 139 L 386.925781 139 Z M 386.925781 81 " clip-rule="nonzero"/></clipPath><clipPath id="6925f4188a"><path d="M 386.925781 167 L 531.683594 167 L 531.683594 225.757812 L 386.925781 225.757812 Z M 386.925781 167 " clip-rule="nonzero"/></clipPath><clipPath id="b6077454c8"><path d="M 564 423.300781 L 672 423.300781 L 672 515 L 564 515 Z M 564 423.300781 " clip-rule="nonzero"/></clipPath><clipPath id="52127cc509"><path d="M 542 454 L 728.335938 454 L 728.335938 728.902344 L 542 728.902344 Z M 542 454 " clip-rule="nonzero"/></clipPath></defs><path fill="#3066af" d="M 457.320312 460.925781 L 480.789062 310.773438 C 483.210938 295.546875 472.867188 281.191406 457.675781 278.734375 L 141.160156 227.8125 C 125.945312 225.382812 111.652344 235.753906 109.203125 250.980469 L 97.960938 321.199219 L 97.960938 460.050781 L 457.320312 460.925781 " fill-opacity="1" fill-rule="nonzero"/><path fill="#2c5ca0" d="M 457.675781 278.734375 L 367.816406 264.300781 C 307.410156 356.894531 209.789062 421.054688 134.925781 460.132812 L 457.320312 460.925781 L 480.789062 310.773438 C 483.210938 295.546875 472.867188 281.191406 457.675781 278.734375 " fill-opacity="1" fill-rule="nonzero"/><g clip-path="url(#57ae701d59)"><path fill="#5498d7" d="M 429.445312 551.746094 L 108.875 551.746094 C 93.496094 551.746094 81 539.246094 81 523.800781 L 81 342.15625 C 81 326.710938 93.496094 314.214844 108.875 314.214844 L 429.445312 314.214844 C 444.855469 314.214844 457.320312 326.710938 457.320312 342.15625 L 457.320312 523.800781 C 457.320312 539.246094 444.855469 551.746094 429.445312 551.746094 " fill-opacity="1" fill-rule="nonzero"/></g><g clip-path="url(#b9cf7f5fb5)"><path fill="#4d8bce" d="M 429.445312 314.214844 L 423.894531 314.214844 C 358.097656 431.289062 235.160156 511.601562 160.109375 551.746094 L 429.445312 551.746094 C 444.855469 551.746094 457.320312 539.246094 457.320312 523.800781 L 457.320312 342.15625 C 457.320312 326.710938 444.855469 314.214844 429.445312 314.214844 " fill-opacity="1" fill-rule="nonzero"/></g><path fill="#f9ae1c" d="M 185.535156 405.035156 L 115.84375 405.035156 L 115.84375 349.144531 L 185.535156 349.144531 L 185.535156 405.035156 " fill-opacity="1" fill-rule="nonzero"/><path fill="#f36728" d="M 136.75 384.074219 L 115.84375 384.074219 L 115.84375 370.101562 L 136.75 370.101562 L 136.75 384.074219 " fill-opacity="1" fill-rule="nonzero"/><path fill="#f36728" d="M 185.535156 384.074219 L 164.628906 384.074219 L 164.628906 370.101562 L 185.535156 370.101562 L 185.535156 384.074219 " fill-opacity="1" fill-rule="nonzero"/><path fill="#f9ae1c" d="M 422.476562 481.882812 C 422.476562 501.175781 406.878906 516.8125 387.632812 516.8125 C 368.386719 516.8125 352.789062 501.175781 352.789062 481.882812 C 352.789062 462.589844 368.386719 446.953125 387.632812 446.953125 C 406.878906 446.953125 422.476562 462.589844 422.476562 481.882812 " fill-opacity="1" fill-rule="nonzero"/><path fill="#e03835" d="M 380.664062 481.882812 C 380.664062 501.175781 365.066406 516.8125 345.820312 516.8125 C 326.574219 516.8125 310.972656 501.175781 310.972656 481.882812 C 310.972656 462.589844 326.574219 446.953125 345.820312 446.953125 C 365.066406 446.953125 380.664062 462.589844 380.664062 481.882812 " fill-opacity="1" fill-rule="nonzero"/><path fill="#8dd5d8" d="M 150.6875 453.9375 L 108.875 453.9375 L 108.875 467.910156 L 150.6875 467.910156 L 150.6875 453.9375 " fill-opacity="1" fill-rule="nonzero"/><path fill="#8dd5d8" d="M 220.378906 453.9375 L 178.566406 453.9375 L 178.566406 467.910156 L 220.378906 467.910156 L 220.378906 453.9375 " fill-opacity="1" fill-rule="nonzero"/><path fill="#8dd5d8" d="M 248.253906 453.9375 L 248.253906 467.910156 L 290.066406 467.910156 L 290.066406 453.9375 L 248.253906 453.9375 " fill-opacity="1" fill-rule="nonzero"/><path fill="#8dd5d8" d="M 108.875 509.828125 L 290.066406 509.828125 L 290.066406 495.855469 L 108.875 495.855469 L 108.875 509.828125 " fill-opacity="1" fill-rule="nonzero"/><path fill="#8dd5d8" d="M 338.851562 377.089844 L 324.914062 377.089844 L 324.914062 349.144531 L 338.851562 349.144531 L 338.851562 377.089844 " fill-opacity="1" fill-rule="nonzero"/><path fill="#8dd5d8" d="M 366.726562 377.089844 L 352.789062 377.089844 L 352.789062 349.144531 L 366.726562 349.144531 L 366.726562 377.089844 " fill-opacity="1" fill-rule="nonzero"/><path fill="#8dd5d8" d="M 394.601562 377.089844 L 380.664062 377.089844 L 380.664062 349.144531 L 394.601562 349.144531 L 394.601562 377.089844 " fill-opacity="1" fill-rule="nonzero"/><path fill="#8dd5d8" d="M 422.476562 377.089844 L 408.539062 377.089844 L 408.539062 349.144531 L 422.476562 349.144531 L 422.476562 377.089844 " fill-opacity="1" fill-rule="nonzero"/><g clip-path="url(#3b2a6087a6)"><path fill="#00bf63" d="M 531.28125 105.058594 L 531.28125 138.742188 L 386.925781 138.742188 L 439.855469 81 L 439.855469 105.058594 Z M 531.28125 105.058594 " fill-opacity="1" fill-rule="nonzero"/></g><g clip-path="url(#6925f4188a)"><path fill="#ff3131" d="M 531.28125 167.613281 L 478.351562 225.355469 L 478.351562 201.296875 L 386.925781 201.296875 L 386.925781 167.613281 Z M 531.28125 167.613281 " fill-opacity="1" fill-rule="nonzero"/></g><g clip-path="url(#b6077454c8)"><path fill="#d1e6fa" d="M 581.6875 514.296875 C 583.074219 514.296875 584.46875 513.824219 585.605469 512.851562 C 588.144531 510.683594 588.445312 506.871094 586.277344 504.332031 C 579.824219 496.78125 576.273438 487.144531 576.273438 477.199219 C 576.273438 454.140625 595.03125 435.382812 618.089844 435.382812 C 641.148438 435.382812 659.910156 454.140625 659.910156 477.199219 C 659.910156 487.144531 656.355469 496.777344 649.902344 504.332031 C 647.734375 506.871094 648.035156 510.683594 650.574219 512.851562 C 653.109375 515.015625 656.925781 514.714844 659.089844 512.179688 C 667.410156 502.4375 671.992188 490.015625 671.992188 477.199219 C 671.992188 447.480469 647.8125 423.300781 618.089844 423.300781 C 588.371094 423.300781 564.191406 447.480469 564.191406 477.199219 C 564.191406 490.015625 568.769531 502.4375 577.089844 512.179688 C 578.285156 513.578125 579.980469 514.296875 581.6875 514.296875 " fill-opacity="1" fill-rule="nonzero"/></g><g clip-path="url(#52127cc509)"><path fill="#fabf92" d="M 597.675781 473.203125 L 597.675781 612.398438 C 592.558594 603.667969 585.144531 592 577.421875 583.148438 C 570.390625 575.089844 560.714844 572.894531 550.167969 576.960938 C 546.039062 578.554688 543.03125 582.234375 542.324219 586.761719 C 541.855469 589.765625 542.570312 592.828125 544.128906 595.4375 C 547.972656 601.875 552.597656 612.058594 557.9375 623.832031 C 570.320312 651.113281 584.351562 682.039062 599.503906 691.574219 C 611.476562 699.109375 637.351562 727.503906 637.609375 727.789062 C 638.296875 728.546875 639.269531 728.976562 640.292969 728.976562 L 725.183594 728.976562 C 726.867188 728.976562 728.382812 727.804688 728.746094 726.046875 C 728.929688 725.152344 728.722656 724.222656 728.261719 723.433594 C 720.890625 710.894531 714.070312 694.867188 715.644531 690.933594 C 715.773438 690.609375 728.714844 657.007812 728.796875 644.269531 L 728.796875 592.152344 C 728.796875 583.761719 721.972656 576.941406 713.585938 576.941406 L 713.539062 576.941406 C 711.21875 576.941406 709.316406 578.847656 709.316406 581.167969 L 709.316406 590.292969 C 709.316406 592.277344 707.789062 594.007812 705.804688 594.066406 C 703.753906 594.128906 702.070312 592.484375 702.070312 590.445312 L 702.070312 572.441406 C 702.070312 563.480469 695.152344 555.847656 686.199219 555.417969 C 685.875 555.402344 685.542969 555.394531 685.210938 555.394531 C 685.179688 555.394531 685.144531 555.394531 685.109375 555.394531 C 679.835938 555.421875 675.625 559.808594 675.625 565.082031 L 675.625 573.9375 C 675.625 575.921875 674.09375 577.652344 672.109375 577.710938 C 670.058594 577.773438 668.375 576.128906 668.375 574.089844 L 668.375 551.992188 C 668.375 543.070312 661.460938 535.488281 652.550781 535.09375 C 652.246094 535.082031 651.945312 535.074219 651.640625 535.074219 C 651.605469 535.074219 651.570312 535.074219 651.539062 535.074219 C 646.308594 535.101562 642.128906 539.449219 642.128906 544.675781 L 642.128906 567.71875 C 642.128906 569.703125 640.601562 571.433594 638.617188 571.492188 C 636.566406 571.554688 634.882812 569.910156 634.882812 567.871094 L 634.882812 473.203125 C 634.882812 462.929688 626.554688 454.601562 616.28125 454.601562 C 606.003906 454.601562 597.675781 462.929688 597.675781 473.203125 " fill-opacity="1" fill-rule="nonzero"/></g></svg>