<svg xmlns="http://www.w3.org/2000/svg" xmlns:xlink="http://www.w3.org/1999/xlink" width="1080" zoomAndPan="magnify" viewBox="0 0 810 809.999993" height="1080" preserveAspectRatio="xMidYMid meet" version="1.0"><defs><clipPath id="2f3f379cac"><path d="M 235 610 L 575 610 L 575 719.332031 L 235 719.332031 Z M 235 610 " clip-rule="nonzero"/></clipPath><clipPath id="dfbe667735"><path d="M 282 611 L 575 611 L 575 719.332031 L 282 719.332031 Z M 282 611 " clip-rule="nonzero"/></clipPath></defs><g clip-path="url(#2f3f379cac)"><path fill="#6fd7a3" d="M 353.621094 610.003906 C 285.011719 617.167969 235.289062 638.304688 235.289062 663.238281 C 235.289062 694.117188 311.328125 719.121094 405.105469 719.121094 C 498.917969 719.121094 574.921875 694.117188 574.921875 663.238281 C 574.921875 638.304688 525.160156 617.132812 456.445312 610.003906 Z M 353.621094 610.003906 " fill-opacity="1" fill-rule="evenodd"/></g><g clip-path="url(#dfbe667735)"><path fill="#3ec3a4" d="M 574.917969 663.238281 C 574.917969 640.023438 531.910156 620.144531 470.625 611.6875 C 500.066406 621.753906 518.160156 635.402344 518.160156 650.449219 C 518.160156 681.292969 442.121094 706.332031 348.34375 706.332031 C 325.117188 706.332031 302.964844 704.789062 282.824219 701.996094 C 313.699219 712.5625 357.066406 719.121094 405.105469 719.121094 C 498.914062 719.121094 574.917969 694.117188 574.917969 663.238281 Z M 574.917969 663.238281 " fill-opacity="1" fill-rule="evenodd"/></g><path fill="#eb5569" d="M 525.015625 125.222656 C 489.4375 103.90625 447.792969 91.90625 404.925781 91.046875 C 362.023438 91.90625 320.414062 103.90625 284.800781 125.222656 C 154.261719 203.421875 104.929688 407.105469 373.1875 647.941406 C 397.671875 668.609375 413.003906 670.972656 436.664062 647.941406 C 704.882812 407.105469 655.554688 203.421875 525.015625 125.222656 Z M 525.015625 125.222656 " fill-opacity="1" fill-rule="evenodd"/><path fill="#e53950" d="M 436.664062 647.941406 C 704.882812 407.105469 655.554688 203.421875 525.015625 125.222656 C 499.992188 110.25 471.988281 99.859375 442.65625 94.703125 C 596.101562 156.816406 676.878906 373.648438 387.15625 633.792969 C 381.410156 639.378906 376.167969 643.464844 371.179688 646.148438 C 371.859375 646.757812 372.507812 647.367188 373.1875 647.941406 C 397.671875 668.609375 413.003906 670.972656 436.664062 647.941406 Z M 436.664062 647.941406 " fill-opacity="1" fill-rule="evenodd"/><path fill="#fec165" d="M 404.925781 460.804688 C 488.253906 460.804688 556.214844 392.992188 556.214844 309.851562 C 556.214844 226.707031 488.253906 158.894531 404.925781 158.894531 C 321.597656 158.894531 253.601562 226.707031 253.601562 309.851562 C 253.601562 392.992188 321.597656 460.804688 404.925781 460.804688 Z M 404.925781 460.804688 " fill-opacity="1" fill-rule="evenodd"/><path fill="#fdb441" d="M 556.214844 309.847656 C 556.214844 226.492188 488.46875 158.894531 404.925781 158.894531 C 397.816406 158.894531 390.78125 159.359375 383.960938 160.328125 C 454.863281 172.828125 508.71875 234.621094 508.71875 308.988281 C 508.71875 385.253906 452.027344 448.300781 378.394531 458.511719 C 387.011719 460.015625 395.878906 460.804688 404.925781 460.804688 C 488.46875 460.804688 556.214844 393.246094 556.214844 309.847656 Z M 556.214844 309.847656 " fill-opacity="1" fill-rule="evenodd"/><path fill="#024c67" d="M 425.242188 299.980469 C 421.160156 298.539062 417.417969 297.167969 413.96875 295.851562 L 413.96875 238.847656 C 424.371094 240.707031 430.636719 246.0625 431.03125 246.410156 C 434.964844 249.855469 440.949219 249.460938 444.398438 245.523438 C 447.847656 241.585938 447.449219 235.597656 443.515625 232.148438 C 441.894531 230.730469 431.046875 221.761719 413.96875 219.679688 L 413.96875 207.113281 C 413.96875 201.878906 409.726562 197.632812 404.492188 197.632812 C 399.261719 197.632812 395.019531 201.878906 395.019531 207.113281 L 395.019531 220.417969 C 392.929688 220.828125 390.789062 221.339844 388.597656 222 C 373.023438 226.671875 361.382812 240 358.226562 256.777344 C 355.363281 271.988281 360.207031 286.621094 370.867188 294.960938 C 377.460938 300.125 385.863281 304.589844 395.019531 308.605469 L 395.019531 379.621094 C 384.941406 379.152344 378.660156 377.222656 367.902344 370.300781 C 363.503906 367.46875 357.640625 368.742188 354.808594 373.140625 C 351.976562 377.542969 353.25 383.410156 357.652344 386.242188 C 372.082031 395.527344 381.851562 398.027344 395.019531 398.574219 L 395.019531 412.589844 C 395.019531 417.824219 399.261719 422.066406 404.492188 422.066406 C 409.726562 422.066406 413.96875 417.824219 413.96875 412.589844 L 413.96875 397.894531 C 439.492188 393.605469 454.375 372.914062 457.613281 353.609375 C 461.671875 329.40625 448.964844 308.359375 425.242188 299.980469 Z M 382.542969 280.03125 C 377.480469 276.070312 375.300781 268.503906 376.847656 260.28125 C 378.289062 252.613281 383.566406 243.296875 394.039062 240.15625 C 394.371094 240.054688 394.691406 239.976562 395.019531 239.882812 L 395.019531 287.699219 C 389.882812 285.109375 385.839844 282.613281 382.542969 280.03125 Z M 438.925781 350.472656 C 436.972656 362.121094 428.476562 374.542969 413.96875 378.476562 L 413.96875 316.078125 C 415.621094 316.675781 417.28125 317.269531 418.933594 317.855469 C 441.238281 325.730469 439.875 344.8125 438.925781 350.472656 Z M 438.925781 350.472656 " fill-opacity="1" fill-rule="nonzero"/></svg>