<svg xmlns="http://www.w3.org/2000/svg" xmlns:xlink="http://www.w3.org/1999/xlink" width="1080" zoomAndPan="magnify" viewBox="0 0 810 809.999993" height="1080" preserveAspectRatio="xMidYMid meet" version="1.0"><defs><clipPath id="107c61ae31"><path d="M 370.113281 173 L 630 173 L 630 471.125 L 370.113281 471.125 Z M 370.113281 173 " clip-rule="nonzero"/></clipPath><clipPath id="86e927f31c"><path d="M 370.113281 173 L 501 173 L 501 471.125 L 370.113281 471.125 Z M 370.113281 173 " clip-rule="nonzero"/></clipPath></defs><path fill="#0ca0f2" d="M 457.328125 636.664062 C 409.929688 636.664062 343.792969 611.257812 280.171875 547.664062 C 198.675781 466.207031 179.863281 380.605469 196.871094 335.550781 C 209.035156 303.335938 242.960938 292.804688 262.09375 289.398438 C 274.222656 287.261719 286.460938 293.449219 291.828125 304.511719 L 321.546875 365.554688 C 326.878906 376.507812 324.308594 389.882812 315.285156 398.074219 L 290.015625 421.023438 C 291.019531 429.175781 297.289062 454.371094 335.40625 492.457031 C 373.371094 530.417969 398.53125 536.769531 406.902344 537.808594 L 429.832031 512.578125 C 438.027344 503.566406 451.425781 500.988281 462.363281 506.308594 L 523.4375 536.011719 C 534.503906 541.386719 540.722656 553.621094 538.558594 565.734375 C 535.148438 584.859375 524.613281 618.769531 492.394531 630.929688 C 482.503906 634.65625 470.660156 636.671875 457.328125 636.671875 Z M 457.328125 636.664062 " fill-opacity="1" fill-rule="nonzero"/><path fill="#0075d3" d="M 302.289062 409.875 L 315.292969 398.074219 C 324.308594 389.882812 326.886719 376.507812 321.554688 365.554688 L 291.839844 304.511719 C 286.460938 293.457031 274.230469 287.261719 262.105469 289.398438 C 257.601562 290.199219 252.242188 291.441406 246.578125 293.226562 C 259.324219 335.164062 278.226562 374.402344 302.300781 409.875 Z M 302.289062 409.875 " fill-opacity="1" fill-rule="nonzero"/><path fill="#0075d3" d="M 523.4375 536.011719 L 462.363281 506.308594 C 451.425781 500.980469 438.015625 503.566406 429.832031 512.578125 L 418.023438 525.566406 C 453.515625 549.625 492.773438 568.523438 534.71875 581.261719 C 536.496094 575.601562 537.746094 570.246094 538.546875 565.742188 C 540.710938 553.621094 534.503906 541.398438 523.425781 536.023438 Z M 523.4375 536.011719 " fill-opacity="1" fill-rule="nonzero"/><path fill="#47caf0" d="M 550.179688 428.816406 C 545.777344 428.816406 541.898438 425.671875 541.117188 421.195312 C 529.171875 352.769531 475.15625 298.777344 406.699219 286.839844 C 401.6875 285.964844 398.335938 281.199219 399.210938 276.191406 C 400.085938 271.183594 404.78125 267.832031 409.867188 268.707031 C 485.949219 281.980469 545.980469 341.992188 559.265625 418.039062 C 560.140625 423.046875 556.78125 427.816406 551.78125 428.6875 C 551.246094 428.78125 550.710938 428.828125 550.1875 428.828125 Z M 550.179688 428.816406 " fill-opacity="1" fill-rule="nonzero"/><path fill="#47caf0" d="M 493.085938 441.058594 C 488.691406 441.058594 484.804688 437.914062 484.023438 433.4375 C 476.046875 387.859375 440.050781 351.878906 394.441406 343.898438 C 389.433594 343.023438 386.089844 338.257812 386.964844 333.25 C 387.839844 328.25 392.554688 324.855469 397.628906 325.773438 C 450.84375 335.082031 492.855469 377.082031 502.171875 430.273438 C 503.046875 435.28125 499.695312 440.046875 494.6875 440.921875 C 494.152344 441.015625 493.617188 441.058594 493.09375 441.058594 Z M 493.085938 441.058594 " fill-opacity="1" fill-rule="nonzero"/><g clip-path="url(#107c61ae31)"><path fill="#14c962" d="M 500.050781 471.125 C 499.398438 471.125 498.75 471.027344 498.121094 470.832031 C 413.402344 444.355469 370.453125 363.792969 370.453125 231.367188 C 370.453125 228.238281 372.695312 225.554688 375.773438 224.992188 C 376.472656 224.863281 446.203125 211.8125 496.164062 174.34375 C 498.464844 172.617188 501.640625 172.617188 503.941406 174.34375 C 553.898438 211.8125 623.628906 224.863281 624.328125 224.992188 C 627.40625 225.554688 629.648438 228.238281 629.648438 231.367188 C 629.648438 363.792969 586.699219 444.355469 501.984375 470.832031 C 501.355469 471.027344 500.699219 471.125 500.050781 471.125 Z M 500.050781 471.125 " fill-opacity="1" fill-rule="nonzero"/></g><g clip-path="url(#86e927f31c)"><path fill="#00a152" d="M 496.164062 174.34375 C 446.203125 211.8125 376.472656 224.871094 375.773438 224.992188 C 372.695312 225.554688 370.453125 228.238281 370.453125 231.367188 C 370.453125 363.792969 413.402344 444.355469 498.121094 470.832031 C 498.75 471.027344 499.402344 471.125 500.050781 471.125 L 500.050781 173.050781 C 498.683594 173.050781 497.316406 173.484375 496.164062 174.34375 Z M 496.164062 174.34375 " fill-opacity="1" fill-rule="nonzero"/></g><path fill="#00ec6a" d="M 500.050781 436.78125 C 499.242188 436.78125 498.425781 436.632812 497.65625 436.320312 C 438.757812 412.890625 407.933594 354.238281 403.425781 257.015625 C 403.289062 254.003906 405.246094 251.292969 408.148438 250.476562 C 431.152344 244.015625 465.183594 232.28125 496.675781 213.054688 C 498.742188 211.792969 501.359375 211.792969 503.429688 213.054688 C 534.921875 232.28125 568.953125 244.015625 591.957031 250.476562 C 594.859375 251.292969 596.816406 254.003906 596.679688 257.015625 C 592.167969 354.234375 561.351562 412.890625 502.449219 436.320312 C 501.679688 436.625 500.867188 436.78125 500.050781 436.78125 Z M 500.050781 436.78125 " fill-opacity="1" fill-rule="nonzero"/><path fill="#14c962" d="M 496.675781 213.054688 C 465.183594 232.28125 431.152344 244.015625 408.148438 250.476562 C 405.246094 251.292969 403.289062 254.003906 403.425781 257.015625 C 407.933594 354.234375 438.753906 412.890625 497.65625 436.320312 C 498.425781 436.625 499.234375 436.78125 500.050781 436.78125 L 500.050781 212.105469 C 498.878906 212.105469 497.710938 212.421875 496.675781 213.050781 Z M 496.675781 213.054688 " fill-opacity="1" fill-rule="nonzero"/></svg>