<svg xmlns="http://www.w3.org/2000/svg" xmlns:xlink="http://www.w3.org/1999/xlink" width="1080" zoomAndPan="magnify" viewBox="0 0 810 809.999993" height="1080" preserveAspectRatio="xMidYMid meet" version="1.0"><defs><clipPath id="ac37b9e834"><path d="M 356.402344 81 L 718 81 L 718 497.109375 L 356.402344 497.109375 Z M 356.402344 81 " clip-rule="nonzero"/></clipPath><clipPath id="5cbe074366"><path d="M 356.402344 81 L 538 81 L 538 497.109375 L 356.402344 497.109375 Z M 356.402344 81 " clip-rule="nonzero"/></clipPath></defs><path fill="#0ca0f2" d="M 477.890625 727.699219 C 411.867188 727.699219 319.742188 692.308594 231.117188 603.726562 C 117.597656 490.257812 91.390625 371.019531 115.082031 308.257812 C 132.027344 263.382812 179.285156 248.714844 205.9375 243.972656 C 222.832031 240.996094 239.878906 249.613281 247.359375 265.023438 L 288.75 350.054688 C 296.179688 365.3125 292.601562 383.945312 280.03125 395.355469 L 244.832031 427.316406 C 246.230469 438.679688 254.964844 473.769531 308.058594 526.824219 C 360.945312 579.699219 395.988281 588.546875 407.648438 589.996094 L 439.585938 554.851562 C 451.003906 542.300781 469.667969 538.710938 484.90625 546.121094 L 569.976562 587.496094 C 585.394531 594.984375 594.054688 612.023438 591.039062 628.894531 C 586.292969 655.539062 571.617188 702.773438 526.734375 719.710938 C 512.960938 724.902344 496.464844 727.710938 477.890625 727.710938 Z M 477.890625 727.699219 " fill-opacity="1" fill-rule="nonzero"/><path fill="#0075d3" d="M 261.929688 411.792969 L 280.042969 395.355469 C 292.601562 383.945312 296.191406 365.3125 288.765625 350.054688 L 247.371094 265.023438 C 239.878906 249.625 222.84375 240.996094 205.953125 243.972656 C 199.679688 245.085938 192.214844 246.820312 184.324219 249.304688 C 202.078125 307.71875 228.414062 362.378906 261.941406 411.792969 Z M 261.929688 411.792969 " fill-opacity="1" fill-rule="nonzero"/><path fill="#0075d3" d="M 569.976562 587.496094 L 484.90625 546.121094 C 469.667969 538.699219 450.992188 542.300781 439.585938 554.851562 L 423.144531 572.945312 C 472.578125 606.457031 527.261719 632.78125 585.691406 650.527344 C 588.167969 642.640625 589.910156 635.179688 591.027344 628.910156 C 594.042969 612.023438 585.394531 594.996094 569.964844 587.507812 Z M 569.976562 587.496094 " fill-opacity="1" fill-rule="nonzero"/><path fill="#47caf0" d="M 607.226562 438.179688 C 601.097656 438.179688 595.695312 433.792969 594.605469 427.5625 C 577.96875 332.246094 502.722656 257.039062 407.367188 240.40625 C 400.386719 239.191406 395.71875 232.546875 396.9375 225.574219 C 398.15625 218.597656 404.699219 213.933594 411.777344 215.148438 C 517.757812 233.636719 601.378906 317.234375 619.886719 423.164062 C 621.105469 430.140625 616.425781 436.78125 609.460938 438 C 608.714844 438.125 607.972656 438.191406 607.242188 438.191406 Z M 607.226562 438.179688 " fill-opacity="1" fill-rule="nonzero"/><path fill="#47caf0" d="M 527.699219 455.230469 C 521.578125 455.230469 516.167969 450.84375 515.078125 444.613281 C 503.96875 381.121094 453.824219 331.003906 390.292969 319.886719 C 383.316406 318.667969 378.660156 312.027344 379.875 305.054688 C 381.09375 298.089844 387.664062 293.359375 394.730469 294.640625 C 468.859375 307.605469 527.378906 366.109375 540.359375 440.203125 C 541.578125 447.179688 536.910156 453.820312 529.929688 455.039062 C 529.1875 455.167969 528.441406 455.230469 527.710938 455.230469 Z M 527.699219 455.230469 " fill-opacity="1" fill-rule="nonzero"/><g clip-path="url(#ac37b9e834)"><path fill="#14c962" d="M 537.402344 497.109375 C 536.492188 497.109375 535.589844 496.972656 534.714844 496.703125 C 416.707031 459.820312 356.878906 347.597656 356.878906 163.136719 C 356.878906 158.777344 360.003906 155.042969 364.289062 154.257812 C 365.265625 154.074219 462.394531 135.898438 531.988281 83.707031 C 535.191406 81.296875 539.613281 81.296875 542.820312 83.707031 C 612.410156 135.898438 709.542969 154.074219 710.515625 154.257812 C 714.804688 155.042969 717.925781 158.777344 717.925781 163.136719 C 717.925781 347.597656 658.101562 459.820312 540.09375 496.703125 C 539.21875 496.972656 538.304688 497.109375 537.402344 497.109375 Z M 537.402344 497.109375 " fill-opacity="1" fill-rule="nonzero"/></g><g clip-path="url(#5cbe074366)"><path fill="#00a152" d="M 531.988281 83.707031 C 462.394531 135.898438 365.265625 154.085938 364.289062 154.257812 C 360.003906 155.042969 356.878906 158.777344 356.878906 163.136719 C 356.878906 347.597656 416.707031 459.820312 534.714844 496.703125 C 535.589844 496.972656 536.5 497.109375 537.402344 497.109375 L 537.402344 81.902344 C 535.5 81.902344 533.59375 82.507812 531.988281 83.707031 Z M 531.988281 83.707031 " fill-opacity="1" fill-rule="nonzero"/></g><path fill="#00ec6a" d="M 537.402344 449.269531 C 536.277344 449.269531 535.136719 449.0625 534.0625 448.628906 C 452.023438 415.988281 409.085938 334.292969 402.804688 198.863281 C 402.617188 194.667969 405.339844 190.894531 409.386719 189.757812 C 441.429688 180.757812 488.832031 164.410156 532.699219 137.628906 C 535.582031 135.871094 539.226562 135.871094 542.105469 137.628906 C 585.972656 164.410156 633.378906 180.757812 665.421875 189.757812 C 669.464844 190.894531 672.191406 194.667969 672.003906 198.863281 C 665.71875 334.285156 622.792969 415.988281 540.742188 448.628906 C 539.667969 449.050781 538.542969 449.269531 537.402344 449.269531 Z M 537.402344 449.269531 " fill-opacity="1" fill-rule="nonzero"/><path fill="#14c962" d="M 532.699219 137.628906 C 488.832031 164.410156 441.429688 180.757812 409.386719 189.757812 C 405.339844 190.894531 402.617188 194.667969 402.804688 198.863281 C 409.085938 334.285156 452.015625 415.988281 534.0625 448.628906 C 535.136719 449.050781 536.265625 449.269531 537.402344 449.269531 L 537.402344 136.304688 C 535.769531 136.304688 534.144531 136.746094 532.699219 137.621094 Z M 532.699219 137.628906 " fill-opacity="1" fill-rule="nonzero"/></svg>