<svg xmlns="http://www.w3.org/2000/svg" xmlns:xlink="http://www.w3.org/1999/xlink" width="1080" zoomAndPan="magnify" viewBox="0 0 810 809.999993" height="1080" preserveAspectRatio="xMidYMid meet" version="1.0"><path fill="#a8aaac" d="M 710.160156 699.246094 C 711.632812 706.046875 709.941406 713.144531 705.570312 718.550781 C 701.210938 723.96875 694.628906 727.109375 687.667969 727.109375 L 122.722656 727.109375 C 115.761719 727.109375 109.183594 723.96875 104.824219 718.550781 C 100.453125 713.144531 98.761719 706.046875 100.234375 699.246094 C 113.300781 638.714844 143.992188 496.59375 154.886719 446.160156 C 157.164062 435.566406 166.542969 428.007812 177.367188 428.007812 L 633.027344 428.007812 C 643.851562 428.007812 653.226562 435.566406 655.515625 446.160156 C 666.398438 496.59375 697.089844 638.714844 710.160156 699.246094 Z M 710.160156 699.246094 " fill-opacity="1" fill-rule="evenodd"/><path fill="#f2006c" d="M 424.941406 405.160156 C 420.777344 411.855469 413.449219 415.929688 405.570312 415.929688 C 397.679688 415.929688 390.363281 411.855469 386.199219 405.160156 C 353.410156 354.933594 290.53125 251.835938 290.53125 199.917969 C 290.53125 135.335938 342.078125 82.890625 405.570312 82.890625 C 469.058594 82.890625 520.609375 135.335938 520.609375 199.917969 C 520.609375 251.835938 457.730469 354.933594 424.941406 405.160156 Z M 424.941406 405.160156 " fill-opacity="1" fill-rule="evenodd"/><path fill="#ffffff" d="M 405.570312 128.90625 C 443.660156 128.90625 474.59375 159.839844 474.59375 197.929688 C 474.59375 236.03125 443.660156 266.953125 405.570312 266.953125 C 367.480469 266.953125 336.546875 236.03125 336.546875 197.929688 C 336.546875 159.839844 367.480469 128.90625 405.570312 128.90625 Z M 405.570312 128.90625 " fill-opacity="1" fill-rule="evenodd"/><path fill="#ffffff" d="M 290.898438 428.007812 L 359.554688 428.007812 C 359.554688 428.007812 351.535156 462.75 346.878906 482.9375 C 346.09375 486.355469 346.898438 489.945312 349.085938 492.695312 C 351.273438 495.433594 354.585938 497.03125 358.082031 497.03125 L 478.976562 497.03125 C 487.203125 497.03125 494.792969 501.414062 498.902344 508.535156 C 525.785156 555.101562 625.101562 727.109375 625.101562 727.109375 L 545.402344 727.109375 C 545.402344 727.109375 480.324219 614.40625 459.050781 577.558594 C 454.945312 570.4375 447.351562 566.054688 439.128906 566.054688 L 336.84375 566.054688 C 331.496094 566.054688 326.847656 569.746094 325.640625 574.972656 C 317.839844 608.769531 290.53125 727.109375 290.53125 727.109375 L 221.875 727.109375 Z M 290.898438 428.007812 " fill-opacity="1" fill-rule="evenodd"/></svg>