<svg xmlns="http://www.w3.org/2000/svg" xmlns:xlink="http://www.w3.org/1999/xlink" width="1080" zoomAndPan="magnify" viewBox="0 0 810 809.999993" height="1080" preserveAspectRatio="xMidYMid meet" version="1.0"><defs><clipPath id="7d161aab86"><path d="M 284 180.15625 L 526 180.15625 L 526 510 L 284 510 Z M 284 180.15625 " clip-rule="nonzero"/></clipPath></defs><path fill="#37474f" d="M 501.757812 300.605469 L 309.035156 300.605469 L 223.417969 619.726562 C 222.050781 624.828125 225.894531 629.839844 231.175781 629.839844 L 579.621094 629.839844 C 584.902344 629.839844 588.746094 624.828125 587.375 619.726562 Z M 501.757812 300.605469 " fill-opacity="1" fill-rule="nonzero"/><path fill="#455a64" d="M 453.578125 300.605469 L 357.21875 300.605469 L 268.886719 629.839844 L 541.910156 629.839844 Z M 453.578125 300.605469 " fill-opacity="1" fill-rule="nonzero"/><g clip-path="url(#7d161aab86)"><path fill="#0ca0f2" d="M 525.847656 300.605469 C 525.847656 371.59375 448.054688 468.511719 417.507812 503.832031 C 411.117188 511.21875 399.675781 511.21875 393.289062 503.832031 C 362.742188 468.507812 284.949219 371.59375 284.949219 300.605469 C 284.949219 234.117188 338.910156 180.15625 405.398438 180.15625 C 471.886719 180.15625 525.847656 234.117188 525.847656 300.605469 Z M 525.847656 300.605469 " fill-opacity="1" fill-rule="nonzero"/></g><path fill="#eceff1" d="M 453.578125 300.605469 C 453.578125 302.183594 453.5 303.757812 453.347656 305.328125 C 453.191406 306.898438 452.960938 308.457031 452.652344 310.003906 C 452.34375 311.550781 451.960938 313.082031 451.503906 314.589844 C 451.046875 316.101562 450.515625 317.585938 449.910156 319.042969 C 449.308594 320.5 448.632812 321.925781 447.890625 323.316406 C 447.144531 324.710938 446.335938 326.0625 445.457031 327.375 C 444.582031 328.683594 443.644531 329.949219 442.640625 331.171875 C 441.640625 332.390625 440.582031 333.558594 439.464844 334.675781 C 438.351562 335.789062 437.183594 336.847656 435.964844 337.847656 C 434.742188 338.851562 433.476562 339.789062 432.164062 340.667969 C 430.851562 341.542969 429.5 342.351562 428.109375 343.097656 C 426.71875 343.839844 425.292969 344.515625 423.835938 345.117188 C 422.378906 345.722656 420.894531 346.253906 419.382812 346.710938 C 417.875 347.167969 416.34375 347.550781 414.796875 347.859375 C 413.25 348.167969 411.691406 348.398438 410.121094 348.554688 C 408.550781 348.707031 406.976562 348.785156 405.398438 348.785156 C 403.820312 348.785156 402.246094 348.707031 400.675781 348.554688 C 399.105469 348.398438 397.546875 348.167969 396 347.859375 C 394.449219 347.550781 392.921875 347.167969 391.410156 346.710938 C 389.902344 346.253906 388.417969 345.722656 386.960938 345.117188 C 385.503906 344.515625 384.078125 343.839844 382.6875 343.097656 C 381.292969 342.351562 379.941406 341.542969 378.628906 340.664062 C 377.316406 339.789062 376.050781 338.851562 374.832031 337.847656 C 373.613281 336.847656 372.445312 335.789062 371.328125 334.675781 C 370.214844 333.558594 369.15625 332.390625 368.152344 331.171875 C 367.152344 329.949219 366.214844 328.683594 365.335938 327.375 C 364.460938 326.0625 363.648438 324.710938 362.90625 323.316406 C 362.164062 321.925781 361.488281 320.5 360.886719 319.042969 C 360.28125 317.585938 359.75 316.101562 359.292969 314.589844 C 358.832031 313.082031 358.449219 311.550781 358.144531 310.003906 C 357.835938 308.457031 357.605469 306.898438 357.449219 305.328125 C 357.292969 303.757812 357.21875 302.183594 357.21875 300.605469 C 357.21875 299.027344 357.292969 297.453125 357.449219 295.882812 C 357.605469 294.3125 357.835938 292.753906 358.144531 291.207031 C 358.449219 289.660156 358.832031 288.128906 359.292969 286.621094 C 359.75 285.109375 360.28125 283.625 360.886719 282.167969 C 361.488281 280.710938 362.164062 279.285156 362.90625 277.894531 C 363.648438 276.5 364.460938 275.148438 365.335938 273.839844 C 366.214844 272.527344 367.152344 271.261719 368.152344 270.039062 C 369.15625 268.820312 370.214844 267.652344 371.328125 266.535156 C 372.445312 265.421875 373.613281 264.363281 374.832031 263.363281 C 376.050781 262.359375 377.316406 261.421875 378.628906 260.546875 C 379.941406 259.667969 381.292969 258.859375 382.6875 258.113281 C 384.078125 257.371094 385.503906 256.695312 386.960938 256.09375 C 388.417969 255.488281 389.902344 254.957031 391.410156 254.5 C 392.921875 254.042969 394.449219 253.660156 396 253.351562 C 397.546875 253.042969 399.105469 252.8125 400.675781 252.65625 C 402.246094 252.503906 403.820312 252.425781 405.398438 252.425781 C 406.976562 252.425781 408.550781 252.503906 410.121094 252.65625 C 411.691406 252.8125 413.25 253.042969 414.796875 253.351562 C 416.34375 253.660156 417.875 254.042969 419.382812 254.5 C 420.894531 254.957031 422.378906 255.488281 423.835938 256.09375 C 425.292969 256.695312 426.71875 257.371094 428.109375 258.113281 C 429.5 258.859375 430.851562 259.667969 432.164062 260.546875 C 433.476562 261.421875 434.742188 262.359375 435.964844 263.363281 C 437.183594 264.363281 438.351562 265.421875 439.464844 266.535156 C 440.582031 267.652344 441.640625 268.820312 442.640625 270.039062 C 443.644531 271.261719 444.582031 272.527344 445.457031 273.839844 C 446.335938 275.148438 447.144531 276.5 447.890625 277.894531 C 448.632812 279.285156 449.308594 280.710938 449.910156 282.167969 C 450.515625 283.625 451.046875 285.109375 451.503906 286.621094 C 451.960938 288.128906 452.34375 289.660156 452.652344 291.207031 C 452.960938 292.753906 453.191406 294.3125 453.347656 295.882812 C 453.5 297.453125 453.578125 299.027344 453.578125 300.605469 Z M 453.578125 300.605469 " fill-opacity="1" fill-rule="nonzero"/><path fill="#0ca0f2" d="M 601.914062 398.046875 C 601.0625 398.046875 600.199219 397.867188 599.367188 397.480469 C 596.355469 396.070312 595.0625 392.484375 596.472656 389.46875 C 609.550781 361.539062 616.1875 331.640625 616.1875 300.605469 C 616.1875 269.570312 609.550781 239.671875 596.472656 211.742188 C 595.0625 208.726562 596.355469 205.140625 599.367188 203.730469 C 602.402344 202.3125 605.96875 203.621094 607.375 206.628906 C 621.214844 236.171875 628.234375 267.789062 628.234375 300.605469 C 628.234375 333.417969 621.214844 365.039062 607.375 394.582031 C 606.351562 396.765625 604.179688 398.046875 601.914062 398.046875 Z M 601.914062 398.046875 " fill-opacity="1" fill-rule="nonzero"/><path fill="#0ca0f2" d="M 558.28125 377.613281 C 557.429688 377.613281 556.566406 377.429688 555.734375 377.042969 C 552.722656 375.632812 551.429688 372.046875 552.832031 369.035156 C 562.902344 347.542969 568.007812 324.519531 568.007812 300.605469 C 568.007812 276.691406 562.902344 253.667969 552.832031 232.171875 C 551.429688 229.160156 552.722656 225.578125 555.734375 224.164062 C 558.761719 222.738281 562.328125 224.050781 563.75 227.066406 C 574.5625 250.167969 580.050781 274.914062 580.050781 300.605469 C 580.050781 326.292969 574.5625 351.039062 563.75 374.140625 C 562.722656 376.328125 560.550781 377.609375 558.28125 377.609375 Z M 558.28125 377.613281 " fill-opacity="1" fill-rule="nonzero"/><path fill="#0ca0f2" d="M 208.878906 398.046875 C 206.613281 398.046875 204.441406 396.765625 203.421875 394.582031 C 189.582031 365.039062 182.5625 333.421875 182.5625 300.605469 C 182.5625 267.792969 189.582031 236.175781 203.421875 206.628906 C 204.824219 203.621094 208.394531 202.320312 211.429688 203.734375 C 214.441406 205.144531 215.734375 208.726562 214.324219 211.742188 C 201.242188 239.671875 194.609375 269.574219 194.609375 300.605469 C 194.609375 331.640625 201.242188 361.542969 214.324219 389.472656 C 215.734375 392.484375 214.441406 396.070312 211.429688 397.480469 C 210.597656 397.871094 209.734375 398.050781 208.878906 398.050781 Z M 208.878906 398.046875 " fill-opacity="1" fill-rule="nonzero"/><path fill="#0ca0f2" d="M 252.511719 377.613281 C 250.246094 377.613281 248.074219 376.328125 247.046875 374.140625 C 236.234375 351.039062 230.742188 326.296875 230.742188 300.605469 C 230.742188 274.914062 236.234375 250.171875 247.046875 227.070312 C 248.457031 224.054688 252.027344 222.746094 255.058594 224.167969 C 258.070312 225.578125 259.367188 229.164062 257.960938 232.175781 C 247.894531 253.667969 242.789062 276.691406 242.789062 300.605469 C 242.789062 324.519531 247.894531 347.542969 257.960938 369.039062 C 259.367188 372.050781 258.070312 375.632812 255.058594 377.046875 C 254.230469 377.433594 253.367188 377.613281 252.511719 377.613281 Z M 252.511719 377.613281 " fill-opacity="1" fill-rule="nonzero"/><path fill="#eceff1" d="M 411.421875 565.597656 L 411.421875 629.839844 L 399.375 629.839844 L 399.375 565.597656 C 399.375 562.304688 402.105469 559.574219 405.398438 559.574219 C 408.691406 559.574219 411.421875 562.304688 411.421875 565.597656 Z M 411.421875 565.597656 " fill-opacity="1" fill-rule="nonzero"/></svg>