<svg xmlns="http://www.w3.org/2000/svg" xmlns:xlink="http://www.w3.org/1999/xlink" width="1080" zoomAndPan="magnify" viewBox="0 0 810 809.999993" height="1080" preserveAspectRatio="xMidYMid meet" version="1.0"><path fill="#37474f" d="M 544.4375 254.570312 L 266.722656 254.570312 L 143.34375 714.429688 C 141.371094 721.78125 146.910156 729 154.519531 729 L 656.636719 729 C 664.246094 729 669.785156 721.78125 667.8125 714.429688 L 544.433594 254.570312 Z M 544.4375 254.570312 " fill-opacity="1" fill-rule="nonzero"/><path fill="#455a64" d="M 475.007812 254.570312 L 336.148438 254.570312 L 208.863281 729 L 602.292969 729 Z M 475.007812 254.570312 " fill-opacity="1" fill-rule="nonzero"/><path fill="#0ca0f2" d="M 579.148438 254.570312 C 579.148438 356.863281 467.050781 496.523438 423.027344 547.425781 C 413.820312 558.066406 397.335938 558.066406 388.132812 547.425781 C 344.109375 496.523438 232.007812 356.863281 232.007812 254.570312 C 232.007812 158.761719 309.769531 81 405.578125 81 C 501.390625 81 579.152344 158.761719 579.152344 254.570312 Z M 579.148438 254.570312 " fill-opacity="1" fill-rule="nonzero"/><path fill="#eceff1" d="M 475.007812 254.570312 C 475.007812 255.707031 474.980469 256.84375 474.921875 257.976562 C 474.867188 259.113281 474.785156 260.246094 474.671875 261.375 C 474.5625 262.507812 474.421875 263.632812 474.253906 264.757812 C 474.089844 265.882812 473.894531 267 473.671875 268.117188 C 473.453125 269.230469 473.203125 270.339844 472.925781 271.441406 C 472.648438 272.542969 472.347656 273.636719 472.015625 274.726562 C 471.6875 275.8125 471.332031 276.890625 470.949219 277.960938 C 470.566406 279.03125 470.15625 280.089844 469.722656 281.140625 C 469.289062 282.191406 468.828125 283.230469 468.339844 284.257812 C 467.855469 285.28125 467.34375 286.296875 466.808594 287.300781 C 466.273438 288.300781 465.714844 289.289062 465.128906 290.265625 C 464.546875 291.238281 463.9375 292.199219 463.304688 293.144531 C 462.675781 294.089844 462.019531 295.015625 461.34375 295.929688 C 460.667969 296.84375 459.96875 297.738281 459.246094 298.617188 C 458.527344 299.496094 457.785156 300.355469 457.023438 301.195312 C 456.257812 302.039062 455.476562 302.863281 454.671875 303.664062 C 453.867188 304.46875 453.046875 305.25 452.203125 306.015625 C 451.363281 306.777344 450.5 307.519531 449.625 308.242188 C 448.746094 308.960938 447.851562 309.660156 446.9375 310.335938 C 446.023438 311.015625 445.097656 311.667969 444.152344 312.300781 C 443.207031 312.929688 442.246094 313.539062 441.273438 314.121094 C 440.296875 314.707031 439.308594 315.265625 438.308594 315.800781 C 437.304688 316.335938 436.289062 316.847656 435.261719 317.335938 C 434.234375 317.820312 433.199219 318.28125 432.148438 318.714844 C 431.097656 319.148438 430.039062 319.558594 428.96875 319.941406 C 427.898438 320.324219 426.820312 320.679688 425.734375 321.011719 C 424.644531 321.339844 423.550781 321.644531 422.449219 321.917969 C 421.347656 322.195312 420.238281 322.445312 419.125 322.664062 C 418.007812 322.886719 416.890625 323.082031 415.765625 323.25 C 414.640625 323.414062 413.515625 323.554688 412.382812 323.664062 C 411.253906 323.777344 410.121094 323.859375 408.984375 323.917969 C 407.851562 323.972656 406.714844 324 405.578125 324 C 404.441406 324 403.308594 323.972656 402.171875 323.917969 C 401.035156 323.859375 399.902344 323.777344 398.773438 323.664062 C 397.640625 323.554688 396.515625 323.414062 395.390625 323.25 C 394.265625 323.082031 393.148438 322.886719 392.035156 322.664062 C 390.917969 322.445312 389.8125 322.195312 388.707031 321.917969 C 387.605469 321.644531 386.511719 321.339844 385.425781 321.011719 C 384.335938 320.679688 383.257812 320.324219 382.1875 319.941406 C 381.117188 319.558594 380.058594 319.148438 379.007812 318.714844 C 377.960938 318.28125 376.921875 317.820312 375.894531 317.335938 C 374.867188 316.847656 373.851562 316.335938 372.851562 315.800781 C 371.847656 315.265625 370.859375 314.707031 369.886719 314.121094 C 368.910156 313.539062 367.949219 312.929688 367.007812 312.300781 C 366.0625 311.667969 365.132812 311.015625 364.21875 310.335938 C 363.308594 309.660156 362.410156 308.960938 361.535156 308.242188 C 360.65625 307.519531 359.796875 306.777344 358.953125 306.015625 C 358.109375 305.25 357.289062 304.46875 356.484375 303.664062 C 355.683594 302.863281 354.898438 302.039062 354.136719 301.195312 C 353.371094 300.355469 352.628906 299.496094 351.910156 298.617188 C 351.1875 297.738281 350.488281 296.84375 349.8125 295.929688 C 349.136719 295.015625 348.480469 294.089844 347.851562 293.144531 C 347.21875 292.199219 346.613281 291.238281 346.027344 290.265625 C 345.445312 289.289062 344.882812 288.300781 344.347656 287.300781 C 343.8125 286.296875 343.300781 285.28125 342.816406 284.257812 C 342.328125 283.230469 341.871094 282.191406 341.433594 281.140625 C 341 280.089844 340.589844 279.03125 340.207031 277.960938 C 339.824219 276.890625 339.46875 275.8125 339.140625 274.726562 C 338.808594 273.636719 338.507812 272.542969 338.230469 271.441406 C 337.953125 270.339844 337.707031 269.230469 337.484375 268.117188 C 337.261719 267 337.066406 265.882812 336.902344 264.757812 C 336.734375 263.632812 336.59375 262.507812 336.484375 261.375 C 336.371094 260.246094 336.289062 259.113281 336.234375 257.976562 C 336.179688 256.84375 336.148438 255.707031 336.148438 254.570312 C 336.148438 253.433594 336.179688 252.300781 336.234375 251.164062 C 336.289062 250.03125 336.371094 248.898438 336.484375 247.765625 C 336.59375 246.636719 336.734375 245.507812 336.902344 244.382812 C 337.066406 243.261719 337.261719 242.140625 337.484375 241.027344 C 337.707031 239.914062 337.953125 238.804688 338.230469 237.703125 C 338.507812 236.597656 338.808594 235.503906 339.140625 234.417969 C 339.46875 233.328125 339.824219 232.25 340.207031 231.179688 C 340.589844 230.113281 341 229.050781 341.433594 228.003906 C 341.871094 226.953125 342.328125 225.914062 342.816406 224.886719 C 343.300781 223.859375 343.8125 222.84375 344.347656 221.84375 C 344.882812 220.839844 345.445312 219.851562 346.027344 218.878906 C 346.613281 217.902344 347.21875 216.945312 347.851562 216 C 348.480469 215.054688 349.136719 214.125 349.8125 213.210938 C 350.488281 212.300781 351.1875 211.40625 351.910156 210.527344 C 352.628906 209.648438 353.371094 208.789062 354.136719 207.945312 C 354.898438 207.105469 355.683594 206.28125 356.484375 205.476562 C 357.289062 204.675781 358.109375 203.890625 358.953125 203.128906 C 359.796875 202.363281 360.65625 201.625 361.535156 200.902344 C 362.410156 200.179688 363.308594 199.484375 364.21875 198.804688 C 365.132812 198.128906 366.0625 197.476562 367.007812 196.84375 C 367.949219 196.210938 368.910156 195.605469 369.886719 195.019531 C 370.859375 194.4375 371.847656 193.875 372.851562 193.339844 C 373.851562 192.804688 374.867188 192.292969 375.894531 191.808594 C 376.921875 191.324219 377.960938 190.863281 379.007812 190.429688 C 380.058594 189.992188 381.117188 189.585938 382.1875 189.203125 C 383.257812 188.820312 384.335938 188.460938 385.425781 188.132812 C 386.511719 187.800781 387.605469 187.5 388.707031 187.222656 C 389.8125 186.949219 390.917969 186.699219 392.035156 186.476562 C 393.148438 186.253906 394.265625 186.0625 395.390625 185.894531 C 396.515625 185.726562 397.644531 185.589844 398.773438 185.476562 C 399.902344 185.367188 401.035156 185.28125 402.171875 185.226562 C 403.308594 185.171875 404.441406 185.144531 405.578125 185.144531 C 406.714844 185.144531 407.851562 185.171875 408.984375 185.226562 C 410.121094 185.28125 411.253906 185.367188 412.382812 185.476562 C 413.515625 185.589844 414.640625 185.726562 415.765625 185.894531 C 416.890625 186.0625 418.007812 186.253906 419.125 186.476562 C 420.238281 186.699219 421.347656 186.949219 422.449219 187.222656 C 423.550781 187.5 424.644531 187.800781 425.734375 188.132812 C 426.820312 188.460938 427.898438 188.820312 428.96875 189.203125 C 430.039062 189.585938 431.097656 189.992188 432.148438 190.429688 C 433.199219 190.863281 434.234375 191.324219 435.261719 191.808594 C 436.289062 192.292969 437.304688 192.804688 438.308594 193.339844 C 439.308594 193.875 440.296875 194.4375 441.273438 195.019531 C 442.246094 195.605469 443.207031 196.210938 444.152344 196.84375 C 445.097656 197.476562 446.023438 198.128906 446.9375 198.804688 C 447.851562 199.484375 448.746094 200.179688 449.625 200.902344 C 450.5 201.625 451.363281 202.363281 452.203125 203.128906 C 453.046875 203.890625 453.867188 204.675781 454.671875 205.476562 C 455.476562 206.28125 456.257812 207.105469 457.023438 207.945312 C 457.785156 208.789062 458.527344 209.648438 459.246094 210.527344 C 459.96875 211.40625 460.667969 212.300781 461.34375 213.210938 C 462.019531 214.125 462.675781 215.054688 463.304688 216 C 463.9375 216.945312 464.546875 217.902344 465.128906 218.878906 C 465.714844 219.851562 466.273438 220.839844 466.808594 221.84375 C 467.34375 222.84375 467.855469 223.859375 468.339844 224.886719 C 468.828125 225.914062 469.289062 226.953125 469.722656 228.003906 C 470.15625 229.050781 470.566406 230.113281 470.949219 231.183594 C 471.332031 232.25 471.6875 233.328125 472.015625 234.417969 C 472.347656 235.503906 472.648438 236.597656 472.925781 237.703125 C 473.203125 238.804688 473.453125 239.914062 473.671875 241.027344 C 473.894531 242.140625 474.089844 243.261719 474.253906 244.382812 C 474.421875 245.507812 474.5625 246.636719 474.671875 247.765625 C 474.785156 248.898438 474.867188 250.03125 474.921875 251.164062 C 474.980469 252.300781 475.007812 253.433594 475.007812 254.570312 Z M 475.007812 254.570312 " fill-opacity="1" fill-rule="nonzero"/><path fill="#0ca0f2" d="M 688.761719 394.988281 C 687.53125 394.988281 686.289062 394.726562 685.089844 394.167969 C 680.75 392.136719 678.886719 386.96875 680.917969 382.625 C 699.769531 342.378906 709.328125 299.292969 709.328125 254.570312 C 709.328125 209.851562 699.769531 166.761719 680.917969 126.515625 C 678.886719 122.171875 680.75 117.007812 685.089844 114.972656 C 689.460938 112.929688 694.605469 114.816406 696.628906 119.148438 C 716.570312 161.722656 726.6875 207.285156 726.6875 254.570312 C 726.6875 301.855469 716.574219 347.417969 696.628906 389.992188 C 695.15625 393.140625 692.027344 394.984375 688.761719 394.984375 Z M 688.761719 394.988281 " fill-opacity="1" fill-rule="nonzero"/><path fill="#0ca0f2" d="M 625.886719 365.539062 C 624.65625 365.539062 623.414062 365.277344 622.214844 364.71875 C 617.875 362.6875 616.011719 357.519531 618.035156 353.183594 C 632.542969 322.207031 639.898438 289.03125 639.898438 254.570312 C 639.898438 220.109375 632.542969 186.933594 618.035156 155.957031 C 616.011719 151.621094 617.875 146.453125 622.214844 144.421875 C 626.578125 142.363281 631.71875 144.257812 633.761719 148.601562 C 649.347656 181.890625 657.257812 217.550781 657.257812 254.570312 C 657.257812 291.589844 649.347656 327.246094 633.761719 360.535156 C 632.285156 363.691406 629.152344 365.535156 625.886719 365.535156 Z M 625.886719 365.539062 " fill-opacity="1" fill-rule="nonzero"/><path fill="#0ca0f2" d="M 122.394531 394.988281 C 119.128906 394.988281 116 393.140625 114.53125 389.996094 C 94.585938 347.421875 84.46875 301.859375 84.46875 254.574219 C 84.46875 207.289062 94.582031 161.722656 114.53125 119.152344 C 116.550781 114.816406 121.691406 112.941406 126.066406 114.976562 C 130.40625 117.011719 132.269531 122.175781 130.238281 126.519531 C 111.390625 166.765625 101.828125 209.855469 101.828125 254.574219 C 101.828125 299.292969 111.390625 342.382812 130.238281 382.628906 C 132.273438 386.972656 130.40625 392.136719 126.066406 394.171875 C 124.871094 394.730469 123.625 394.992188 122.394531 394.992188 Z M 122.394531 394.988281 " fill-opacity="1" fill-rule="nonzero"/><path fill="#0ca0f2" d="M 185.269531 365.539062 C 182.003906 365.539062 178.875 363.691406 177.390625 360.539062 C 161.808594 327.25 153.898438 291.589844 153.898438 254.570312 C 153.898438 217.550781 161.808594 181.894531 177.390625 148.605469 C 179.425781 144.257812 184.566406 142.378906 188.941406 144.421875 C 193.28125 146.457031 195.144531 151.621094 193.121094 155.960938 C 178.613281 186.933594 171.257812 220.113281 171.257812 254.574219 C 171.257812 289.035156 178.613281 322.210938 193.121094 353.183594 C 195.144531 357.523438 193.28125 362.6875 188.941406 364.722656 C 187.742188 365.28125 186.5 365.542969 185.269531 365.542969 Z M 185.269531 365.539062 " fill-opacity="1" fill-rule="nonzero"/><path fill="#eceff1" d="M 414.257812 636.429688 L 414.257812 729 L 396.898438 729 L 396.898438 636.429688 C 396.898438 631.683594 400.835938 627.75 405.578125 627.75 C 410.324219 627.75 414.257812 631.683594 414.257812 636.429688 Z M 414.257812 636.429688 " fill-opacity="1" fill-rule="nonzero"/></svg>