<svg xmlns="http://www.w3.org/2000/svg" xmlns:xlink="http://www.w3.org/1999/xlink" width="1080" zoomAndPan="magnify" viewBox="0 0 810 809.999993" height="1080" preserveAspectRatio="xMidYMid meet" version="1.0"><defs><g/><clipPath id="7121903432"><path d="M 181.976562 81 L 564.296875 81 L 564.296875 729 L 181.976562 729 Z M 181.976562 81 " clip-rule="nonzero"/></clipPath><clipPath id="4402ad582c"><path d="M 256.976562 81 L 489.296875 81 C 530.71875 81 564.296875 114.578125 564.296875 156 L 564.296875 654 C 564.296875 695.421875 530.71875 729 489.296875 729 L 256.976562 729 C 215.558594 729 181.976562 695.421875 181.976562 654 L 181.976562 156 C 181.976562 114.578125 215.558594 81 256.976562 81 Z M 256.976562 81 " clip-rule="nonzero"/></clipPath><clipPath id="e1c61f3c09"><path d="M 182 81 L 564.476562 81 L 564.476562 729 L 182 729 Z M 182 81 " clip-rule="nonzero"/></clipPath><clipPath id="eb054b6dd3"><path d="M 301.574219 287.480469 L 610.984375 287.480469 L 610.984375 522.519531 L 301.574219 522.519531 Z M 301.574219 287.480469 " clip-rule="nonzero"/></clipPath><clipPath id="2ad6c3e48b"><path d="M 319.574219 287.480469 L 592.261719 287.480469 C 597.035156 287.480469 601.613281 289.375 604.988281 292.75 C 608.367188 296.128906 610.261719 300.707031 610.261719 305.480469 L 610.261719 504.519531 C 610.261719 509.292969 608.367188 513.871094 604.988281 517.25 C 601.613281 520.625 597.035156 522.519531 592.261719 522.519531 L 319.574219 522.519531 C 314.800781 522.519531 310.222656 520.625 306.84375 517.25 C 303.46875 513.871094 301.574219 509.292969 301.574219 504.519531 L 301.574219 305.480469 C 301.574219 300.707031 303.46875 296.128906 306.84375 292.75 C 310.222656 289.375 314.800781 287.480469 319.574219 287.480469 Z M 319.574219 287.480469 " clip-rule="nonzero"/></clipPath><clipPath id="39a88c7c13"><path d="M 327 305.132812 L 584 305.132812 L 584 504.632812 L 327 504.632812 Z M 327 305.132812 " clip-rule="nonzero"/></clipPath><clipPath id="93d584d9c5"><path d="M 345.671875 305.90625 L 566.164062 305.90625 C 570.9375 305.90625 575.515625 307.804688 578.890625 311.179688 C 582.265625 314.554688 584.164062 319.132812 584.164062 323.90625 L 584.164062 486.632812 C 584.164062 491.40625 582.265625 495.984375 578.890625 499.359375 C 575.515625 502.734375 570.9375 504.632812 566.164062 504.632812 L 345.671875 504.632812 C 340.898438 504.632812 336.320312 502.734375 332.945312 499.359375 C 329.570312 495.984375 327.671875 491.40625 327.671875 486.632812 L 327.671875 323.90625 C 327.671875 319.132812 329.570312 314.554688 332.945312 311.179688 C 336.320312 307.804688 340.898438 305.90625 345.671875 305.90625 Z M 345.671875 305.90625 " clip-rule="nonzero"/></clipPath><clipPath id="c2279b3781"><path d="M 519.035156 368.886719 L 628 368.886719 L 628 441.652344 L 519.035156 441.652344 Z M 519.035156 368.886719 " clip-rule="nonzero"/></clipPath><clipPath id="f652c48ecf"><path d="M 537.035156 368.886719 L 610.023438 368.886719 C 614.796875 368.886719 619.375 370.78125 622.75 374.15625 C 626.125 377.535156 628.023438 382.113281 628.023438 386.886719 L 628.023438 423.652344 C 628.023438 428.425781 626.125 433.003906 622.75 436.382812 C 619.375 439.757812 614.796875 441.652344 610.023438 441.652344 L 537.035156 441.652344 C 532.261719 441.652344 527.683594 439.757812 524.308594 436.382812 C 520.933594 433.003906 519.035156 428.425781 519.035156 423.652344 L 519.035156 386.886719 C 519.035156 382.113281 520.933594 377.535156 524.308594 374.15625 C 527.683594 370.78125 532.261719 368.886719 537.035156 368.886719 Z M 537.035156 368.886719 " clip-rule="nonzero"/></clipPath><clipPath id="1a0c70618b"><path d="M 536.761719 386.617188 L 573.527344 386.617188 L 573.527344 423.382812 L 536.761719 423.382812 Z M 536.761719 386.617188 " clip-rule="nonzero"/></clipPath><clipPath id="d8d492fad7"><path d="M 555.144531 386.617188 C 544.992188 386.617188 536.761719 394.847656 536.761719 405 C 536.761719 415.152344 544.992188 423.382812 555.144531 423.382812 C 565.296875 423.382812 573.527344 415.152344 573.527344 405 C 573.527344 394.847656 565.296875 386.617188 555.144531 386.617188 Z M 555.144531 386.617188 " clip-rule="nonzero"/></clipPath></defs><g clip-path="url(#7121903432)"><g clip-path="url(#4402ad582c)"><path fill="#ffffff" d="M 181.976562 81 L 564.296875 81 L 564.296875 729.152344 L 181.976562 729.152344 Z M 181.976562 81 " fill-opacity="1" fill-rule="nonzero"/></g></g><g clip-path="url(#e1c61f3c09)"><path fill="#155bcd" d="M 495.070312 81.277344 L 251.328125 81.277344 C 213.113281 81.277344 182.019531 112.367188 182.019531 150.585938 L 182.019531 659.28125 C 182.019531 697.5 213.113281 728.589844 251.328125 728.589844 L 495.070312 728.589844 C 533.289062 728.589844 564.382812 697.5 564.382812 659.28125 L 564.382812 150.585938 C 564.382812 112.367188 533.289062 81.277344 495.070312 81.277344 Z M 544.464844 659.28125 C 544.464844 686.515625 522.304688 708.671875 495.070312 708.671875 L 251.328125 708.671875 C 224.09375 708.671875 201.9375 686.515625 201.9375 659.28125 L 201.9375 150.585938 C 201.9375 123.351562 224.09375 101.195312 251.328125 101.195312 L 254.402344 101.195312 L 266.269531 131.980469 C 272.808594 148.941406 289.113281 160.128906 307.289062 160.128906 L 439.109375 160.128906 C 457.289062 160.128906 473.59375 148.941406 480.132812 131.980469 L 492 101.195312 L 495.070312 101.195312 C 522.304688 101.195312 544.464844 123.351562 544.464844 150.585938 Z M 544.464844 659.28125 " fill-opacity="1" fill-rule="nonzero"/></g><path fill="#155bcd" d="M 464.03125 663.367188 L 282.371094 663.367188 C 276.871094 663.367188 272.410156 667.824219 272.410156 673.328125 C 272.410156 678.828125 276.871094 683.285156 282.371094 683.285156 L 464.03125 683.285156 C 469.53125 683.285156 473.992188 678.828125 473.992188 673.328125 C 473.992188 667.824219 469.53125 663.367188 464.03125 663.367188 Z M 464.03125 663.367188 " fill-opacity="1" fill-rule="nonzero"/><g clip-path="url(#eb054b6dd3)"><g clip-path="url(#2ad6c3e48b)"><path fill="#1acc75" d="M 301.574219 287.480469 L 610.066406 287.480469 L 610.066406 522.519531 L 301.574219 522.519531 Z M 301.574219 287.480469 " fill-opacity="1" fill-rule="nonzero"/></g></g><g clip-path="url(#39a88c7c13)"><g clip-path="url(#93d584d9c5)"><path fill="#c7f7d4" d="M 327.671875 305.90625 L 583.839844 305.90625 L 583.839844 504.632812 L 327.671875 504.632812 Z M 327.671875 305.90625 " fill-opacity="1" fill-rule="nonzero"/></g></g><g clip-path="url(#c2279b3781)"><g clip-path="url(#f652c48ecf)"><path fill="#00a152" d="M 519.035156 368.886719 L 627.902344 368.886719 L 627.902344 441.652344 L 519.035156 441.652344 Z M 519.035156 368.886719 " fill-opacity="1" fill-rule="nonzero"/></g></g><g clip-path="url(#1a0c70618b)"><g clip-path="url(#d8d492fad7)"><path fill="#ffffff" d="M 536.761719 386.617188 L 573.527344 386.617188 L 573.527344 423.382812 L 536.761719 423.382812 Z M 536.761719 386.617188 " fill-opacity="1" fill-rule="nonzero"/></g></g><g fill="#155bcd" fill-opacity="1"><g transform="translate(261.767774, 237.132028)"><g><path d="M 19.65625 0.734375 C 17.644531 0.734375 15.738281 0.4375 13.9375 -0.15625 C 12.132812 -0.75 10.484375 -1.585938 8.984375 -2.671875 C 7.484375 -3.765625 6.1875 -5.050781 5.09375 -6.53125 C 4 -8.019531 3.148438 -9.660156 2.546875 -11.453125 C 1.953125 -13.242188 1.65625 -15.125 1.65625 -17.09375 C 1.65625 -19.082031 1.953125 -20.960938 2.546875 -22.734375 C 3.148438 -24.515625 4 -26.144531 5.09375 -27.625 C 6.1875 -29.101562 7.484375 -30.382812 8.984375 -31.46875 C 10.484375 -32.5625 12.132812 -33.40625 13.9375 -34 C 15.738281 -34.59375 17.644531 -34.890625 19.65625 -34.890625 C 21.457031 -34.890625 23.242188 -34.617188 25.015625 -34.078125 C 26.785156 -33.546875 28.4375 -32.734375 29.96875 -31.640625 C 31.507812 -30.546875 32.8125 -29.160156 33.875 -27.484375 C 34.945312 -25.816406 35.6875 -23.847656 36.09375 -21.578125 L 29.71875 -21.578125 C 29.269531 -23.328125 28.546875 -24.757812 27.546875 -25.875 C 26.554688 -27 25.367188 -27.828125 23.984375 -28.359375 C 22.597656 -28.898438 21.09375 -29.171875 19.46875 -29.171875 C 17.863281 -29.171875 16.359375 -28.878906 14.953125 -28.296875 C 13.554688 -27.722656 12.328125 -26.898438 11.265625 -25.828125 C 10.203125 -24.765625 9.375 -23.492188 8.78125 -22.015625 C 8.1875 -20.535156 7.890625 -18.882812 7.890625 -17.0625 C 7.890625 -15.207031 8.1875 -13.539062 8.78125 -12.0625 C 9.375 -10.582031 10.203125 -9.316406 11.265625 -8.265625 C 12.328125 -7.210938 13.554688 -6.40625 14.953125 -5.84375 C 16.359375 -5.289062 17.863281 -5.015625 19.46875 -5.015625 C 21.09375 -5.015625 22.59375 -5.28125 23.96875 -5.8125 C 25.351562 -6.34375 26.546875 -7.164062 27.546875 -8.28125 C 28.546875 -9.40625 29.265625 -10.835938 29.703125 -12.578125 L 36.09375 -12.578125 C 35.6875 -10.304688 34.945312 -8.332031 33.875 -6.65625 C 32.8125 -4.976562 31.519531 -3.59375 30 -2.5 C 28.476562 -1.414062 26.828125 -0.601562 25.046875 -0.0625 C 23.265625 0.46875 21.46875 0.734375 19.65625 0.734375 Z M 19.65625 0.734375 "/></g></g></g><g fill="#155bcd" fill-opacity="1"><g transform="translate(301.384466, 237.132028)"><g><path d="M 18.015625 0.75 C 15.960938 0.75 14.054688 0.425781 12.296875 -0.21875 C 10.535156 -0.875 8.988281 -1.804688 7.65625 -3.015625 C 6.332031 -4.234375 5.300781 -5.703125 4.5625 -7.421875 C 3.820312 -9.140625 3.453125 -11.0625 3.453125 -13.1875 L 3.453125 -34.078125 L 9.671875 -34.078125 L 9.671875 -13.640625 C 9.671875 -12.035156 9.992188 -10.578125 10.640625 -9.265625 C 11.285156 -7.953125 12.226562 -6.90625 13.46875 -6.125 C 14.71875 -5.351562 16.234375 -4.96875 18.015625 -4.96875 C 19.773438 -4.96875 21.269531 -5.347656 22.5 -6.109375 C 23.738281 -6.878906 24.6875 -7.921875 25.34375 -9.234375 C 26.007812 -10.546875 26.34375 -12.003906 26.34375 -13.609375 L 26.34375 -34.078125 L 32.578125 -34.078125 L 32.578125 -13.1875 C 32.578125 -11.144531 32.222656 -9.273438 31.515625 -7.578125 C 30.816406 -5.878906 29.820312 -4.40625 28.53125 -3.15625 C 27.25 -1.914062 25.710938 -0.953125 23.921875 -0.265625 C 22.140625 0.410156 20.171875 0.75 18.015625 0.75 Z M 18.015625 0.75 "/></g></g></g><g fill="#155bcd" fill-opacity="1"><g transform="translate(339.246794, 237.132028)"><g><path d="M 20.34375 0 L 4.0625 0 L 4.0625 -34.078125 L 18.921875 -34.078125 C 20.992188 -34.078125 22.804688 -33.707031 24.359375 -32.96875 C 25.910156 -32.226562 27.117188 -31.164062 27.984375 -29.78125 C 28.859375 -28.40625 29.296875 -26.765625 29.296875 -24.859375 C 29.296875 -23.859375 29.097656 -22.898438 28.703125 -21.984375 C 28.316406 -21.078125 27.796875 -20.273438 27.140625 -19.578125 C 26.492188 -18.890625 25.773438 -18.378906 24.984375 -18.046875 C 26.140625 -17.679688 27.1875 -17.097656 28.125 -16.296875 C 29.070312 -15.503906 29.828125 -14.5625 30.390625 -13.46875 C 30.960938 -12.375 31.25 -11.1875 31.25 -9.90625 C 31.25 -8.21875 30.941406 -6.75 30.328125 -5.5 C 29.722656 -4.257812 28.898438 -3.234375 27.859375 -2.421875 C 26.816406 -1.609375 25.644531 -1 24.34375 -0.59375 C 23.050781 -0.195312 21.71875 0 20.34375 0 Z M 10.34375 -28.71875 L 10.34375 -19.84375 L 18.625 -19.84375 C 19.457031 -19.84375 20.203125 -20.039062 20.859375 -20.4375 C 21.523438 -20.832031 22.046875 -21.367188 22.421875 -22.046875 C 22.804688 -22.722656 23 -23.476562 23 -24.3125 C 23 -25.144531 22.804688 -25.894531 22.421875 -26.5625 C 22.046875 -27.226562 21.53125 -27.753906 20.875 -28.140625 C 20.226562 -28.523438 19.484375 -28.71875 18.640625 -28.71875 Z M 10.34375 -15.15625 L 10.34375 -5.390625 L 19.796875 -5.390625 C 20.765625 -5.390625 21.628906 -5.601562 22.390625 -6.03125 C 23.148438 -6.457031 23.75 -7.046875 24.1875 -7.796875 C 24.632812 -8.546875 24.859375 -9.40625 24.859375 -10.375 C 24.859375 -11.257812 24.640625 -12.0625 24.203125 -12.78125 C 23.773438 -13.5 23.179688 -14.070312 22.421875 -14.5 C 21.660156 -14.9375 20.800781 -15.15625 19.84375 -15.15625 Z M 10.34375 -15.15625 "/></g></g></g><g fill="#155bcd" fill-opacity="1"><g transform="translate(373.95128, 237.132028)"><g><path d="M 10.296875 0 L 4.0625 0 L 4.0625 -34.078125 L 10.296875 -34.078125 Z M 10.296875 0 "/></g></g></g><g fill="#90c2cd" fill-opacity="1"><g transform="translate(390.136498, 237.132028)"><g><path d="M 10.296875 0 L 4.0625 0 L 4.0625 -34.078125 L 18.421875 -34.078125 C 20.140625 -34.078125 21.722656 -33.789062 23.171875 -33.21875 C 24.617188 -32.65625 25.867188 -31.859375 26.921875 -30.828125 C 27.972656 -29.804688 28.789062 -28.59375 29.375 -27.1875 C 29.957031 -25.789062 30.25 -24.265625 30.25 -22.609375 C 30.25 -20.847656 29.957031 -19.25 29.375 -17.8125 C 28.800781 -16.382812 27.992188 -15.148438 26.953125 -14.109375 C 25.910156 -13.078125 24.671875 -12.28125 23.234375 -11.71875 C 21.796875 -11.15625 20.222656 -10.875 18.515625 -10.875 L 10.296875 -10.875 Z M 10.296875 -28.515625 L 10.296875 -16.4375 L 18.21875 -16.4375 C 19.300781 -16.4375 20.28125 -16.707031 21.15625 -17.25 C 22.039062 -17.789062 22.738281 -18.523438 23.25 -19.453125 C 23.757812 -20.390625 24.015625 -21.441406 24.015625 -22.609375 C 24.015625 -23.640625 23.753906 -24.601562 23.234375 -25.5 C 22.710938 -26.40625 22.015625 -27.132812 21.140625 -27.6875 C 20.265625 -28.238281 19.273438 -28.515625 18.171875 -28.515625 Z M 10.296875 -28.515625 "/></g></g></g><g fill="#90c2cd" fill-opacity="1"><g transform="translate(423.011435, 237.132028)"><g><path d="M 13.859375 0.78125 C 12.117188 0.78125 10.507812 0.429688 9.03125 -0.265625 C 7.550781 -0.972656 6.265625 -1.953125 5.171875 -3.203125 C 4.078125 -4.460938 3.226562 -5.914062 2.625 -7.5625 C 2.03125 -9.21875 1.734375 -10.988281 1.734375 -12.875 C 1.734375 -14.769531 2.035156 -16.539062 2.640625 -18.1875 C 3.253906 -19.832031 4.109375 -21.28125 5.203125 -22.53125 C 6.296875 -23.78125 7.578125 -24.757812 9.046875 -25.46875 C 10.515625 -26.1875 12.109375 -26.546875 13.828125 -26.546875 C 15.941406 -26.546875 17.816406 -26.085938 19.453125 -25.171875 C 21.085938 -24.265625 22.3125 -23.007812 23.125 -21.40625 L 23.125 -25.765625 L 28.890625 -25.765625 L 28.890625 0 L 23.125 0 L 23.125 -4.328125 C 22.289062 -2.734375 21.0625 -1.484375 19.4375 -0.578125 C 17.8125 0.328125 15.953125 0.78125 13.859375 0.78125 Z M 15.3125 -4.84375 C 16.363281 -4.84375 17.347656 -5.046875 18.265625 -5.453125 C 19.191406 -5.859375 20 -6.425781 20.6875 -7.15625 C 21.382812 -7.882812 21.921875 -8.734375 22.296875 -9.703125 C 22.679688 -10.679688 22.875 -11.738281 22.875 -12.875 C 22.875 -14 22.675781 -15.050781 22.28125 -16.03125 C 21.894531 -17.007812 21.359375 -17.863281 20.671875 -18.59375 C 19.992188 -19.332031 19.191406 -19.90625 18.265625 -20.3125 C 17.347656 -20.71875 16.363281 -20.921875 15.3125 -20.921875 C 13.925781 -20.921875 12.660156 -20.585938 11.515625 -19.921875 C 10.367188 -19.253906 9.453125 -18.316406 8.765625 -17.109375 C 8.085938 -15.910156 7.75 -14.5 7.75 -12.875 C 7.75 -11.207031 8.09375 -9.769531 8.78125 -8.5625 C 9.476562 -7.363281 10.398438 -6.441406 11.546875 -5.796875 C 12.703125 -5.160156 13.957031 -4.84375 15.3125 -4.84375 Z M 15.3125 -4.84375 "/></g></g></g><g fill="#90c2cd" fill-opacity="1"><g transform="translate(457.314921, 237.132028)"><g><path d="M 5.5625 8.796875 L 1.234375 8.796875 L 1.234375 3.78125 L 5.515625 3.78125 C 6.410156 3.78125 7.144531 3.632812 7.71875 3.34375 C 8.300781 3.050781 8.789062 2.601562 9.1875 2 C 9.59375 1.40625 9.972656 0.628906 10.328125 -0.328125 L 10.625 -1.203125 L 0.75 -25.765625 L 7.140625 -25.765625 L 13.203125 -10.171875 L 13.859375 -7.515625 L 14.53125 -10.15625 L 20.5 -25.734375 L 26.96875 -25.765625 L 16.921875 -0.578125 C 16.171875 1.347656 15.414062 2.921875 14.65625 4.140625 C 13.90625 5.367188 13.097656 6.320312 12.234375 7 C 11.378906 7.675781 10.410156 8.144531 9.328125 8.40625 C 8.253906 8.664062 7 8.796875 5.5625 8.796875 Z M 5.5625 8.796875 "/></g></g></g></svg>