<?xml version="1.0" encoding="UTF-8"?>
<svg version="1.1" xmlns="http://www.w3.org/2000/svg" width="1080" height="1080">
<path d="M0 0 C1.38367321 -0.01361795 2.76733131 -0.02885317 4.15097046 -0.045578 C7.89915368 -0.08509229 11.64699092 -0.09866809 15.3953619 -0.10503602 C17.74098204 -0.11011115 20.08651387 -0.12062992 22.43210602 -0.13303185 C30.62633602 -0.1759987 38.8203093 -0.19724601 47.01464844 -0.19921875 C54.63480876 -0.20165097 62.25360537 -0.25261295 69.87338138 -0.32611066 C76.4299229 -0.38710379 82.98601695 -0.41313343 89.54284024 -0.41255397 C93.45264368 -0.41283632 97.36113996 -0.42706427 101.27065277 -0.47690773 C104.95189403 -0.5226944 108.63068633 -0.52467578 112.31206131 -0.49421883 C114.29262453 -0.48849667 116.27316415 -0.52703211 118.25332642 -0.56729126 C125.08072296 -0.46400214 128.90300835 0.32562492 134.06378174 4.96064758 C135.5328884 6.49697565 136.99319327 8.04179426 138.44238281 9.59692383 C139.79641754 10.71464748 141.17013447 11.80968595 142.57519531 12.86254883 C143.2280249 13.35343994 143.88085449 13.84433105 144.5534668 14.35009766 C145.21805908 14.84405029 145.88265137 15.33800293 146.56738281 15.84692383 C154.44285418 21.78373621 162.10621566 27.94969258 169.73388672 34.19995117 C174.6883201 38.25100402 179.69570411 42.23567108 184.73925781 46.17504883 C190.39526839 50.59480706 196.01215371 55.03740476 201.50488281 59.65942383 C205.51667997 63.02912118 209.58929087 66.29528082 213.75488281 69.47192383 C218.71343661 73.25357697 223.62706771 77.0865389 228.50488281 80.97192383 C229.4519812 81.7219165 229.4519812 81.7219165 230.41821289 82.48706055 C233.61195083 85.03912047 236.61969388 87.62641328 239.44238281 90.59692383 C238.76755859 91.50958008 238.76755859 91.50958008 238.07910156 92.44067383 C232.47539194 100.07699155 227.10504804 107.85910793 221.7578125 115.67602539 C215.34612102 125.03890375 208.83662066 134.33347717 202.31420898 143.61938477 C199.30337138 147.91174534 196.32605206 152.21801867 193.44238281 156.59692383 C189.97111498 155.16366269 188.33435669 153.49367096 186.16503906 150.45629883 C185.56884766 149.63258789 184.97265625 148.80887695 184.35839844 147.96020508 C183.74673828 147.09782227 183.13507813 146.23543945 182.50488281 145.34692383 C176.77895723 137.22980495 176.77895723 137.22980495 170.44238281 129.59692383 C169.78238281 129.59692383 169.12238281 129.59692383 168.44238281 129.59692383 C163.59588005 138.66167899 158.81928678 147.74852482 154.27050781 156.96679688 C151.82986625 161.89069241 149.21645043 166.69674789 146.47363281 171.46020508 C145.22505432 173.65179511 145.22505432 173.65179511 145.44238281 176.59692383 C146.43238281 176.92692383 147.42238281 177.25692383 148.44238281 177.59692383 C148.44125488 178.37817627 148.44012695 179.15942871 148.43896484 179.96435547 C148.45112698 183.53023963 148.50884347 187.09401172 148.56738281 190.65942383 C148.56351562 192.50310547 148.56351562 192.50310547 148.55957031 194.3840332 C148.61650368 202.15885509 148.61650368 202.15885509 152.31738281 208.71801758 C153.34260752 209.69519918 154.38228149 210.65769289 155.44238281 211.59692383 C165.25509199 224.4909185 171.35962049 239.35205729 176.44238281 254.59692383 C176.82136719 255.73258789 177.20035156 256.86825195 177.59082031 258.03833008 C180.86741468 268.72002772 182.78582565 279.75454585 184.88110352 290.71533203 C185.22682386 292.49025037 185.58471719 294.26290978 185.96264648 296.03125 C187.60965795 303.76052579 188.62125325 311.56205103 189.50488281 319.40942383 C189.63703186 320.57408173 189.63703186 320.57408173 189.77185059 321.76226807 C192.70151792 348.54215773 192.28986321 375.68773178 192.44238281 402.59692383 C196.40238281 402.92692383 200.36238281 403.25692383 204.44238281 403.59692383 C204.44238281 412.50692383 204.44238281 421.41692383 204.44238281 430.59692383 C159.23238281 430.59692383 114.02238281 430.59692383 67.44238281 430.59692383 C67.44238281 421.68692383 67.44238281 412.77692383 67.44238281 403.59692383 C70.08238281 403.26692383 72.72238281 402.93692383 75.44238281 402.59692383 C76.01959738 389.49735989 75.94678183 375.24758391 67.89550781 364.11645508 C63.259895 359.26899975 58.38741117 358.33637816 51.81738281 358.09692383 C46.5348366 358.30432172 43.22440973 358.62579557 39.44238281 362.59692383 C31.16709118 374.28926004 32.01633705 389.01094732 33.44238281 402.59692383 C36.41238281 402.92692383 39.38238281 403.25692383 42.44238281 403.59692383 C42.44238281 412.50692383 42.44238281 421.41692383 42.44238281 430.59692383 C-3.09761719 430.59692383 -48.63761719 430.59692383 -95.55761719 430.59692383 C-95.55761719 421.68692383 -95.55761719 412.77692383 -95.55761719 403.59692383 C-91.59761719 403.26692383 -87.63761719 402.93692383 -83.55761719 402.59692383 C-82.7027093 398.32238441 -82.293426 394.29832041 -82.09277344 389.97192383 C-82.01541967 388.45629269 -81.93794091 386.94066793 -81.86035156 385.42504883 C-81.82127686 384.63678711 -81.78220215 383.84852539 -81.74194336 383.03637695 C-81.16064436 371.39641779 -80.52083878 359.78672983 -79.30566406 348.19311523 C-78.57387282 341.12906065 -78.0924619 334.05757742 -77.62011719 326.97192383 C-76.2198418 306.68734053 -74.67893803 286.33294001 -69.55761719 266.59692383 C-69.33122559 265.71649414 -69.10483398 264.83606445 -68.87158203 263.92895508 C-64.4328102 247.12314966 -58.41510128 230.01710663 -48.21777344 215.77270508 C-39.21320374 203.18429283 -37.75778383 193.0174733 -38.55761719 177.59692383 C-36.57761719 177.26692383 -34.59761719 176.93692383 -32.55761719 176.59692383 C-33.17377352 172.0955595 -34.97985158 168.44914858 -37.05761719 164.47192383 C-40.67679234 157.40008722 -44.12103928 150.25899665 -47.49902344 143.0690918 C-49.46711503 138.88422312 -51.46812122 134.72318401 -53.55761719 130.59692383 C-58.26969739 131.91630628 -61.51741638 133.78787876 -65.37011719 136.78442383 C-66.4078125 137.57977539 -67.44550781 138.37512695 -68.51464844 139.19458008 C-70.42452397 140.70237655 -72.32023289 142.22848261 -74.19433594 143.78051758 C-74.97421875 144.42118164 -75.75410156 145.0618457 -76.55761719 145.72192383 C-77.23824219 146.30200195 -77.91886719 146.88208008 -78.62011719 147.47973633 C-80.55761719 148.59692383 -80.55761719 148.59692383 -82.44165039 148.58886719 C-85.7776368 147.02499125 -86.81166836 144.01867109 -88.35058594 140.84301758 C-88.70091385 140.14990982 -89.05124176 139.45680206 -89.41218567 138.74269104 C-90.53633372 136.51292733 -91.64142622 134.2743737 -92.74511719 132.03442383 C-94.19110704 129.13434788 -95.64483002 126.23820162 -97.10058594 123.34301758 C-97.46197662 122.62133896 -97.82336731 121.89966034 -98.19570923 121.15611267 C-101.12042959 115.35664955 -104.24188636 109.68485397 -107.47612 104.05271912 C-110.53546284 98.71653474 -113.28249349 93.26488865 -115.97558594 87.73364258 C-117.76517218 84.18540121 -119.76360615 80.81005962 -121.90527344 77.46411133 C-122.55761719 75.59692383 -122.55761719 75.59692383 -121.83618164 73.64916992 C-120.36910257 71.29433572 -119.09973488 70.35366975 -116.75292969 68.89379883 C-115.94629883 68.38010742 -115.13966797 67.86641602 -114.30859375 67.3371582 C-113.40077148 66.76288086 -112.49294922 66.18860352 -111.55761719 65.59692383 C-109.4683645 64.21128449 -107.38264008 62.82031579 -105.29980469 61.42504883 C-104.17565971 60.67514985 -103.05130684 59.92556245 -101.92675781 59.17626953 C-101.35546143 58.79540192 -100.78416504 58.4145343 -100.19555664 58.02212524 C-98.39900945 56.82452042 -96.60234892 55.62708578 -94.80566406 54.4296875 C-87.32261209 49.4424658 -87.32261209 49.4424658 -79.84667969 44.44458008 C-73.68327121 40.31938618 -67.48815924 36.25784436 -61.21777344 32.29614258 C-56.27914078 29.14150938 -51.4252112 25.85962271 -46.55761719 22.59692383 C-44.05855599 20.92884797 -41.55805748 19.26293147 -39.05761719 17.59692383 C-37.78806101 16.75060705 -36.51852953 15.90425322 -35.24902344 15.05786133 C-30.01855469 11.57088216 -24.78808594 8.08390299 -19.55761719 4.59692383 C-18.79189392 3.91233597 -18.02617065 3.22774811 -17.23724365 2.52241516 C-12.16647178 -0.81773779 -5.8373409 -0.00109326 0 0 Z " fill="#D0D1D2" transform="translate(290.5576171875,324.403076171875)"/>
<path d="M0 0 C2.375 0.875 2.375 0.875 4.375 2.875 C4.421875 4.765625 4.421875 4.765625 4.125 7.125 C4.01639648 7.99020264 3.90779297 8.85540527 3.79589844 9.74682617 C3.51647104 11.82356819 3.20902843 13.8967423 2.87304688 15.96508789 C1.47829085 24.7138366 1.0708421 33.21219703 1.125 42.0625 C1.11726563 43.33802734 1.10953125 44.61355469 1.1015625 45.92773438 C1.13996594 64.62060656 6.34222334 84.97309111 19.37329102 99.06835938 C21.29194179 100.96376773 21.29194179 100.96376773 23.68896484 102.02246094 C26.7702106 103.66068694 28.37088597 104.98583483 30.375 107.875 C31.61207881 113.6827698 30.9858982 119.83363814 30.73660278 125.72451782 C29.99948295 145.2945757 31.94632903 158.79278036 42.78027344 175.4140625 C44.92996589 178.73140786 46.74813405 182.17982191 48.5625 185.6875 C49.17480469 186.81929687 49.78710938 187.95109375 50.41796875 189.1171875 C53.36112358 194.67427838 55.99534828 200.38540108 58.67578125 206.07226562 C61.06998625 211.14900214 63.51706172 216.18496836 66.0625 221.1875 C75.82125833 240.50928225 84.7477281 260.26895537 93.5 280.0625 C93.81156036 280.76493835 94.12312073 281.46737671 94.44412231 282.19110107 C97.87019742 289.92709156 101.14358085 297.68407601 104.12695312 305.60424805 C105.23767098 308.51510234 106.39484551 311.40285563 107.57196045 314.28736877 C111.05094362 322.83341853 114.10132054 331.49174842 117 340.25 C117.23901031 340.97012268 117.47802063 341.69024536 117.72427368 342.43218994 C129.06787064 376.72399908 129.06787064 376.72399908 126.375 384.875 C121.80347712 388.7538679 116.56787661 390.44214251 110.9375 392.3125 C110.04643555 392.61542969 109.15537109 392.91835938 108.23730469 393.23046875 C106.44155675 393.83959058 104.64453399 394.4449684 102.84619141 395.04638672 C100.75088023 395.74896389 98.66135546 396.46502588 96.57421875 397.19140625 C64.24739192 408.28430379 30.9789157 415.88668959 -2.625 421.875 C-3.80932617 422.08785645 -4.99365234 422.30071289 -6.21386719 422.52001953 C-22.14593564 425.30072726 -38.12922496 426.55809663 -54.25 427.625 C-55.22700867 427.69029907 -56.20401733 427.75559814 -57.21063232 427.82287598 C-77.90467799 429.17730664 -98.17937048 428.88668353 -118.875 427.625 C-120.52325272 427.52563141 -120.52325272 427.52563141 -122.20480347 427.42425537 C-236.05266665 420.44733335 -236.05266665 420.44733335 -261.625 394.875 C-262.24025796 388.17241702 -260.31538826 382.21867151 -258.5 375.8125 C-258.18450195 374.67159912 -257.86900391 373.53069824 -257.54394531 372.35522461 C-256.89375825 370.0050625 -256.24009933 367.6558582 -255.58300781 365.30761719 C-254.15504035 360.1910977 -252.76673181 355.06396606 -251.375 349.9375 C-250.68662638 347.4156012 -249.99706413 344.89403057 -249.30712891 342.37255859 C-248.84431263 340.67799507 -248.38310244 338.98299224 -247.92333984 337.28759766 C-238.9779586 304.3318772 -238.9779586 304.3318772 -233.84765625 289.54663086 C-232.57472336 285.72401948 -231.44195145 281.87187059 -230.33203125 278 C-227.79273168 269.26967519 -224.96183711 260.65754992 -222 252.0625 C-221.74277161 251.3137561 -221.48554321 250.56501221 -221.22052002 249.7935791 C-196.73746281 178.69605719 -196.73746281 178.69605719 -179.68359375 156.859375 C-176.86549631 151.57674217 -177.50662474 144.79250187 -177.4765625 138.93359375 C-177.42386103 136.29759322 -177.36179499 133.66190844 -177.29931641 131.02612305 C-177.26667082 129.22980779 -177.25144416 127.43308407 -177.25439453 125.63647461 C-177.25197531 112.48682203 -175.16681523 104.92677582 -165.98362732 95.38708496 C-151.056962 78.77444525 -148.36741224 56.89969879 -148.3125 35.625 C-148.30882416 34.93804047 -148.30514832 34.25108093 -148.30136108 33.54330444 C-148.27925042 25.6143263 -148.66820035 18.08895306 -150.49145508 10.33691406 C-150.625 7.875 -150.625 7.875 -149.36206055 5.57324219 C-147.625 3.875 -147.625 3.875 -144.625 3.4375 C-141.625 3.875 -141.625 3.875 -140.02905273 4.88696289 C-137.84049892 7.98579678 -137.64568676 11.44565838 -137.16015625 15.12109375 C-136.91487931 16.7793214 -136.66943131 18.43752376 -136.42382812 20.09570312 C-136.05255253 22.70642665 -135.68676512 25.31781263 -135.32543945 27.92993164 C-134.97176743 30.45422108 -134.59811121 32.97496655 -134.22265625 35.49609375 C-134.12146988 36.27536728 -134.02028351 37.05464081 -133.91603088 37.85752869 C-133.22372664 42.45101942 -132.40338083 45.06993077 -128.625 47.875 C-126.00037087 49.04020716 -123.53077044 50.00084517 -120.8125 50.875 C-120.03132812 51.12846191 -119.25015625 51.38192383 -118.4453125 51.64306641 C-112.08516366 53.60759595 -105.66954056 55.04934911 -99.125 56.25 C-98.24996826 56.41757812 -97.37493652 56.58515625 -96.47338867 56.7578125 C-82.10704663 59.17587098 -67.66622724 58.01182467 -53.33789062 55.95849609 C-50.99538303 55.6243414 -48.65063371 55.31289167 -46.3046875 55.00390625 C-36.20936783 53.63025358 -26.45227323 51.55501258 -16.625 48.875 C-14.45599122 41.41164444 -12.60388815 33.98139478 -11.1640625 26.33984375 C-10.97389053 25.34117279 -10.97389053 25.34117279 -10.77987671 24.32232666 C-10.13564206 20.93022159 -9.50952916 17.53611469 -8.90771484 14.13623047 C-8.67004395 12.87053223 -8.43237305 11.60483398 -8.1875 10.30078125 C-7.88005859 8.59015503 -7.88005859 8.59015503 -7.56640625 6.8449707 C-6.26482179 2.73870127 -4.58270903 -0.21822424 0 0 Z " fill="#FEAAC6" transform="translate(812.625,325.125)"/>
<path d="M0 0 C1.38367321 -0.01361795 2.76733131 -0.02885317 4.15097046 -0.045578 C7.89915368 -0.08509229 11.64699092 -0.09866809 15.3953619 -0.10503602 C17.74098204 -0.11011115 20.08651387 -0.12062992 22.43210602 -0.13303185 C30.62633602 -0.1759987 38.8203093 -0.19724601 47.01464844 -0.19921875 C54.63480876 -0.20165097 62.25360537 -0.25261295 69.87338138 -0.32611066 C76.4299229 -0.38710379 82.98601695 -0.41313343 89.54284024 -0.41255397 C93.45264368 -0.41283632 97.36113996 -0.42706427 101.27065277 -0.47690773 C104.95189403 -0.5226944 108.63068633 -0.52467578 112.31206131 -0.49421883 C114.29262453 -0.48849667 116.27316415 -0.52703211 118.25332642 -0.56729126 C125.08072296 -0.46400214 128.90300835 0.32562492 134.06378174 4.96064758 C135.5328884 6.49697565 136.99319327 8.04179426 138.44238281 9.59692383 C139.79641754 10.71464748 141.17013447 11.80968595 142.57519531 12.86254883 C143.2280249 13.35343994 143.88085449 13.84433105 144.5534668 14.35009766 C145.21805908 14.84405029 145.88265137 15.33800293 146.56738281 15.84692383 C154.44285418 21.78373621 162.10621566 27.94969258 169.73388672 34.19995117 C174.6883201 38.25100402 179.69570411 42.23567108 184.73925781 46.17504883 C190.39526839 50.59480706 196.01215371 55.03740476 201.50488281 59.65942383 C205.51667997 63.02912118 209.58929087 66.29528082 213.75488281 69.47192383 C218.71343661 73.25357697 223.62706771 77.0865389 228.50488281 80.97192383 C229.4519812 81.7219165 229.4519812 81.7219165 230.41821289 82.48706055 C233.61195083 85.03912047 236.61969388 87.62641328 239.44238281 90.59692383 C238.76755859 91.50958008 238.76755859 91.50958008 238.07910156 92.44067383 C232.47539194 100.07699155 227.10504804 107.85910793 221.7578125 115.67602539 C215.34612102 125.03890375 208.83662066 134.33347717 202.31420898 143.61938477 C199.30337138 147.91174534 196.32605206 152.21801867 193.44238281 156.59692383 C189.97111498 155.16366269 188.33435669 153.49367096 186.16503906 150.45629883 C185.56884766 149.63258789 184.97265625 148.80887695 184.35839844 147.96020508 C183.74673828 147.09782227 183.13507813 146.23543945 182.50488281 145.34692383 C176.77895723 137.22980495 176.77895723 137.22980495 170.44238281 129.59692383 C169.78238281 129.59692383 169.12238281 129.59692383 168.44238281 129.59692383 C163.59588005 138.66167899 158.81928678 147.74852482 154.27050781 156.96679688 C151.82986625 161.89069241 149.21645043 166.69674789 146.47363281 171.46020508 C145.22505432 173.65179511 145.22505432 173.65179511 145.44238281 176.59692383 C146.43238281 176.92692383 147.42238281 177.25692383 148.44238281 177.59692383 C148.44238281 185.84692383 148.44238281 194.09692383 148.44238281 202.59692383 C86.73238281 202.26692383 25.02238281 201.93692383 -38.55761719 201.59692383 C-38.55761719 193.67692383 -38.55761719 185.75692383 -38.55761719 177.59692383 C-36.57761719 177.26692383 -34.59761719 176.93692383 -32.55761719 176.59692383 C-33.17377352 172.0955595 -34.97985158 168.44914858 -37.05761719 164.47192383 C-40.67679234 157.40008722 -44.12103928 150.25899665 -47.49902344 143.0690918 C-49.46711503 138.88422312 -51.46812122 134.72318401 -53.55761719 130.59692383 C-58.26969739 131.91630628 -61.51741638 133.78787876 -65.37011719 136.78442383 C-66.4078125 137.57977539 -67.44550781 138.37512695 -68.51464844 139.19458008 C-70.42452397 140.70237655 -72.32023289 142.22848261 -74.19433594 143.78051758 C-74.97421875 144.42118164 -75.75410156 145.0618457 -76.55761719 145.72192383 C-77.23824219 146.30200195 -77.91886719 146.88208008 -78.62011719 147.47973633 C-80.55761719 148.59692383 -80.55761719 148.59692383 -82.44165039 148.58886719 C-85.7776368 147.02499125 -86.81166836 144.01867109 -88.35058594 140.84301758 C-88.70091385 140.14990982 -89.05124176 139.45680206 -89.41218567 138.74269104 C-90.53633372 136.51292733 -91.64142622 134.2743737 -92.74511719 132.03442383 C-94.19110704 129.13434788 -95.64483002 126.23820162 -97.10058594 123.34301758 C-97.46197662 122.62133896 -97.82336731 121.89966034 -98.19570923 121.15611267 C-101.12042959 115.35664955 -104.24188636 109.68485397 -107.47612 104.05271912 C-110.53546284 98.71653474 -113.28249349 93.26488865 -115.97558594 87.73364258 C-117.76517218 84.18540121 -119.76360615 80.81005962 -121.90527344 77.46411133 C-122.55761719 75.59692383 -122.55761719 75.59692383 -121.83618164 73.64916992 C-120.36910257 71.29433572 -119.09973488 70.35366975 -116.75292969 68.89379883 C-115.94629883 68.38010742 -115.13966797 67.86641602 -114.30859375 67.3371582 C-113.40077148 66.76288086 -112.49294922 66.18860352 -111.55761719 65.59692383 C-109.4683645 64.21128449 -107.38264008 62.82031579 -105.29980469 61.42504883 C-104.17565971 60.67514985 -103.05130684 59.92556245 -101.92675781 59.17626953 C-101.35546143 58.79540192 -100.78416504 58.4145343 -100.19555664 58.02212524 C-98.39900945 56.82452042 -96.60234892 55.62708578 -94.80566406 54.4296875 C-87.32261209 49.4424658 -87.32261209 49.4424658 -79.84667969 44.44458008 C-73.68327121 40.31938618 -67.48815924 36.25784436 -61.21777344 32.29614258 C-56.27914078 29.14150938 -51.4252112 25.85962271 -46.55761719 22.59692383 C-44.05855599 20.92884797 -41.55805748 19.26293147 -39.05761719 17.59692383 C-37.78806101 16.75060705 -36.51852953 15.90425322 -35.24902344 15.05786133 C-30.01855469 11.57088216 -24.78808594 8.08390299 -19.55761719 4.59692383 C-18.79189392 3.91233597 -18.02617065 3.22774811 -17.23724365 2.52241516 C-12.16647178 -0.81773779 -5.8373409 -0.00109326 0 0 Z " fill="#79584D" transform="translate(290.5576171875,324.403076171875)"/>
<path d="M0 0 C1.38367321 -0.01361795 2.76733131 -0.02885317 4.15097046 -0.045578 C7.89915368 -0.08509229 11.64699092 -0.09866809 15.3953619 -0.10503602 C17.74098204 -0.11011115 20.08651387 -0.12062992 22.43210602 -0.13303185 C30.62633602 -0.1759987 38.8203093 -0.19724601 47.01464844 -0.19921875 C54.63480876 -0.20165097 62.25360537 -0.25261295 69.87338138 -0.32611066 C76.4299229 -0.38710379 82.98601695 -0.41313343 89.54284024 -0.41255397 C93.45264368 -0.41283632 97.36113996 -0.42706427 101.27065277 -0.47690773 C104.95189403 -0.5226944 108.63068633 -0.52467578 112.31206131 -0.49421883 C114.29262453 -0.48849667 116.27316415 -0.52703211 118.25332642 -0.56729126 C125.12442452 -0.46334099 128.91129911 0.33964756 134.08770752 5.02412415 C134.84532001 5.82354085 135.60293251 6.62295755 136.38350296 7.44659901 C138.26410954 9.41073256 139.87281541 10.50174836 142.19238281 11.84692383 C144.44238281 14.59692383 144.44238281 14.59692383 144.42675781 17.57739258 C143.79528128 22.08430171 142.87595354 26.32084636 141.41113281 30.63208008 C140.43022333 33.63413773 139.89762117 36.47528934 139.44238281 39.59692383 C139.00487062 42.59700744 138.53440521 45.33275609 137.53613281 48.19848633 C135.87526177 53.35904994 134.96518868 58.65333329 133.94238281 63.97192383 C131.54442809 76.35409002 131.54442809 76.35409002 130.34863281 81.01879883 C129.55007112 84.17174067 128.94052737 87.26067051 128.44238281 90.47192383 C127.2859719 97.60760669 126.10722483 104.62651085 123.94238281 111.53442383 C122.64318406 115.72934914 121.77848254 119.86941115 121.04003906 124.19458008 C120.23482467 128.77851301 119.34343457 133.34348953 118.44238281 137.90942383 C118.27617432 138.76971191 118.10996582 139.63 117.9387207 140.51635742 C117.04753564 145.01655708 115.92103749 149.24757554 114.44238281 153.59692383 C113.91350794 156.39408428 113.50894144 159.19378926 113.10253906 162.01098633 C112.13632123 167.25943583 110.73670978 172.41961596 109.44238281 177.59692383 C75.12238281 177.59692383 40.80238281 177.59692383 5.44238281 177.59692383 C0.44238281 158.59692383 0.44238281 158.59692383 -1.55761719 149.59692383 C-2.21325615 146.86424111 -2.87671921 144.13567552 -3.55761719 141.40942383 C-3.80511719 140.40105469 -3.80511719 140.40105469 -4.05761719 139.37231445 C-5.05366978 135.37643158 -6.2544925 131.50082259 -7.55761719 127.59692383 C-7.88078232 126.14524554 -8.17355802 124.68640118 -8.43261719 123.22192383 C-9.36590871 118.37023279 -10.52934301 113.59910565 -11.74682617 108.81152344 C-13.56066597 101.65120197 -15.27431592 94.46758084 -16.99511719 87.28442383 C-19.14882162 78.30732204 -21.37402128 69.36047509 -23.77954102 60.44775391 C-25.65238842 53.42631816 -27.24020925 46.34493129 -28.77099609 39.24169922 C-29.69235494 35.04635151 -30.71290327 31.00113161 -32.14355469 26.94848633 C-33.58685223 22.82359183 -34.16243126 18.94396904 -34.55761719 14.59692383 C-29.55761719 11.26359049 -24.55761719 7.93025716 -19.55761719 4.59692383 C-18.80479462 3.92093643 -18.05197205 3.24494904 -17.27633667 2.54847717 C-12.18020617 -0.80880685 -5.86929531 -0.00109925 0 0 Z " fill="#F5F6F6" transform="translate(290.5576171875,324.403076171875)"/>
<path d="M0 0 C45.21 0 90.42 0 137 0 C135.44333603 4.6699919 133.71732365 8.83992469 131.5 13.1875 C131.15251709 13.87674561 130.80503418 14.56599121 130.44702148 15.27612305 C127.31134897 21.46380404 124.04610339 27.5815905 120.78979492 33.70629883 C117.43162993 40.07066172 114.3066317 46.52702798 111.30688477 53.06762695 C108.14238275 59.90728224 104.60110664 66.31223052 101 73 C76.58 73 52.16 73 27 73 C20.29787234 58.4787234 20.29787234 58.4787234 18.25 52.375 C15.59681908 44.62223442 12.78795895 36.93233449 9.9375 29.25 C9.5259668 28.13802246 9.11443359 27.02604492 8.69042969 25.88037109 C6.17823805 19.1114659 3.5941655 12.37772257 0.92016602 5.67089844 C0 3 0 3 0 0 Z " fill="#F6F7F8" transform="translate(280,325)"/>
<path d="M0 0 C4.04752367 2.29785203 7.68036638 4.98153508 11.3125 7.875 C12.22056396 8.59357178 12.22056396 8.59357178 13.14697266 9.32666016 C21.17922079 15.70116717 29.11901901 22.19108011 37.05712891 28.68212891 C44.86816477 35.06859209 52.71621726 41.38028242 60.73828125 47.5 C66.54369004 51.93341691 72.26442218 56.47689065 78 61 C73.88940618 67.66950653 69.54751292 74.11688871 64.96630859 80.46679688 C61.83471978 84.81343748 58.77404827 89.20294366 55.75 93.625 C50.81039947 100.84593135 45.80166821 108.01690811 40.77050781 115.17431641 C37.79273111 119.41572844 34.85040965 123.67185954 32 128 C28.52873217 126.56673886 26.89197388 124.89674713 24.72265625 121.859375 C24.12646484 121.03566406 23.53027344 120.21195312 22.91601562 119.36328125 C22.30435547 118.50089844 21.69269531 117.63851562 21.0625 116.75 C15.33657441 108.63288112 15.33657441 108.63288112 9 101 C8.34 101 7.68 101 7 101 C2.20379997 109.97067043 -2.51835927 118.96526409 -7.03125 128.08203125 C-10.53672218 135.13521022 -14.2566736 142.0708639 -18 149 C-21.63 149 -25.26 149 -29 149 C-28.48486748 143.23051572 -27.6192653 137.56902261 -26.5625 131.875 C-26.44028076 131.20662109 -26.31806152 130.53824219 -26.19213867 129.84960938 C-25.36414788 125.48100297 -24.22243672 121.27133773 -23 117 C-22.46788361 114.48575004 -21.96914568 111.96425741 -21.5 109.4375 C-21.30664062 108.39867676 -21.30664062 108.39867676 -21.109375 107.33886719 C-20.28483317 102.82243931 -19.60622304 98.30172463 -19 93.75 C-18.43510956 89.6105569 -17.71789207 85.65577396 -16.625 81.625 C-14.71565148 74.47940782 -13.65158904 67.19432097 -12.53369141 59.89111328 C-11.7725795 55.0633765 -10.89033348 50.39257962 -9.53125 45.6953125 C-7.2252236 37.6148048 -6.17144492 29.29756007 -4.89453125 21.00585938 C-3.74792028 13.80119872 -2.36247299 6.90982758 0 0 Z " fill="#F6F7F8" transform="translate(452,353)"/>
<path d="M0 0 C1.88506322 2.82759483 2.51634242 4.47626445 3.296875 7.69921875 C3.53011475 8.64821045 3.76335449 9.59720215 4.00366211 10.57495117 C4.37309937 12.11566284 4.37309937 12.11566284 4.75 13.6875 C5.28756622 15.88546417 5.82533195 18.08337956 6.36328125 20.28125 C6.6360791 21.40402344 6.90887695 22.52679688 7.18994141 23.68359375 C8.1767489 27.72361574 9.19059098 31.75647616 10.20727539 35.7890625 C13.24693576 47.85420722 16.17184692 59.94605748 19.08203125 72.04296875 C21.01525278 80.07459787 22.96769223 88.10149712 24.92248535 96.12789917 C25.49665778 98.48627206 26.07022068 100.84479229 26.64355469 103.20336914 C28.29510062 109.99707333 29.94752681 116.79053028 31.61135864 123.58123779 C32.11579609 125.6417602 32.618753 127.7026374 33.12109375 129.76367188 C33.73425726 132.27865996 34.35001215 134.79301813 34.96875 137.30664062 C35.23816406 138.41458984 35.50757813 139.52253906 35.78515625 140.6640625 C36.02113525 141.62779785 36.25711426 142.5915332 36.50024414 143.58447266 C37 146 37 146 37 149 C33.04 149 29.08 149 25 149 C24.45472656 147.82566406 23.90945313 146.65132812 23.34765625 145.44140625 C19.15290099 136.46605704 14.81214998 127.61673576 10.11572266 118.89306641 C7.15635558 113.37111154 4.47456361 107.75740177 2 102 C-2.7120802 103.31938246 -5.95979919 105.19095493 -9.8125 108.1875 C-10.85019531 108.98285156 -11.88789063 109.77820313 -12.95703125 110.59765625 C-14.86690678 112.10545272 -16.7626157 113.63155878 -18.63671875 115.18359375 C-19.41660156 115.82425781 -20.19648438 116.46492188 -21 117.125 C-21.680625 117.70507812 -22.36125 118.28515625 -23.0625 118.8828125 C-25 120 -25 120 -26.8840332 119.99194336 C-30.22001961 118.42806742 -31.25405117 115.42174726 -32.79296875 112.24609375 C-33.14329666 111.55298599 -33.49362457 110.85987823 -33.85456848 110.14576721 C-34.97871653 107.9160035 -36.08380903 105.67744987 -37.1875 103.4375 C-38.63348985 100.53742405 -40.08721283 97.6412778 -41.54296875 94.74609375 C-41.90435944 94.02441513 -42.26575012 93.30273651 -42.63809204 92.55918884 C-45.56281241 86.75972572 -48.68426917 81.08793014 -51.91850281 75.45579529 C-54.97784566 70.11961091 -57.7248763 64.66796483 -60.41796875 59.13671875 C-62.20755499 55.58847738 -64.20598896 52.21313579 -66.34765625 48.8671875 C-67 47 -67 47 -66.27856445 45.05224609 C-64.81148538 42.6974119 -63.5421177 41.75674592 -61.1953125 40.296875 C-60.38868164 39.78318359 -59.58205078 39.26949219 -58.75097656 38.74023438 C-57.8431543 38.16595703 -56.93533203 37.59167969 -56 37 C-53.91074731 35.61436067 -51.82502289 34.22339196 -49.7421875 32.828125 C-48.61804253 32.07822602 -47.49368965 31.32863862 -46.36914062 30.5793457 C-45.79784424 30.19847809 -45.22654785 29.81761047 -44.63793945 29.42520142 C-42.84139226 28.22759659 -41.04473174 27.03016195 -39.24804688 25.83276367 C-31.7649949 20.84554197 -31.7649949 20.84554197 -24.2890625 15.84765625 C-17.96373474 11.61410766 -11.61150581 7.43391882 -5.171875 3.375 C-3.43257818 2.27386245 -1.71282304 1.14188203 0 0 Z " fill="#F5F6F7" transform="translate(235,353)"/>
<path d="M0 0 C4.57970771 2.78469515 5.99516304 6.340053 7.37109375 11.390625 C7.57412109 12.27814453 7.57412109 12.27814453 7.78125 13.18359375 C8.39871094 12.82265625 9.01617188 12.46171875 9.65234375 12.08984375 C15.48212152 8.89544497 20.11214761 7.02932603 26.78125 8.18359375 C32.05447153 10.00893966 34.57816086 12.79078578 37.78125 17.18359375 C39.60088391 22.64249547 39.86971995 28.53092398 37.6640625 33.90625 C36.45071432 36.069026 35.19111319 38.14432735 33.78125 40.18359375 C34.52503906 40.31636719 35.26882813 40.44914063 36.03515625 40.5859375 C42.81173177 42.06078253 47.78450444 45.1284592 51.70703125 50.91015625 C53.65975674 55.04283347 53.71671281 58.75245412 52.78125 63.18359375 C50.45982813 68.88430062 47.22463193 72.24365398 41.78125 75.18359375 C38.99542426 75.46499029 36.65768745 75.57223207 33.90625 75.43359375 C33.21789062 75.41554688 32.52953125 75.3975 31.8203125 75.37890625 C30.1400119 75.33223123 28.46043837 75.26050314 26.78125 75.18359375 C27.10351562 75.90675781 27.42578125 76.62992188 27.7578125 77.375 C29.77235495 82.9034581 29.68708195 88.22699674 27.21875 93.55859375 C22.5106337 98.62887284 18.72916782 100.43012144 11.90625 100.93359375 C5.83064885 100.74277713 2.79405561 98.57516844 -1.4765625 94.421875 C-3.292524 92.08881235 -4.27157573 89.97141081 -5.21875 87.18359375 C-6.270625 87.65796875 -7.3225 88.13234375 -8.40625 88.62109375 C-15.08900213 91.11820753 -23.19862247 92.17153334 -30.21875 90.55859375 C-35.09406548 88.32407415 -38.15706077 85.10063133 -40.21875 80.18359375 C-41.27808642 72.74072361 -39.33918744 67.36424991 -35.21875 61.18359375 C-35.775625 60.95671875 -36.3325 60.72984375 -36.90625 60.49609375 C-42.45242231 57.34826622 -46.68664848 51.99804909 -49.21875 46.18359375 C-50.23718707 40.56791271 -49.48752576 35.92859082 -46.21875 31.18359375 C-43.3226898 27.50000841 -40.90648858 25.41020826 -36.1640625 24.7734375 C-28.17320165 24.70636792 -28.17320165 24.70636792 -25.21875 26.18359375 C-25.54875 25.19359375 -25.87875 24.20359375 -26.21875 23.18359375 C-26.68864282 17.4139262 -27.02281216 12.05973879 -24.71875 6.68359375 C-17.71438312 -0.32077313 -9.89117911 -3.63953597 0 0 Z " fill="#FFEAF4" transform="translate(624.21875,608.81640625)"/>
<path d="M0 0 C2.84079085 3.16545266 4.50198945 6.55800085 6.1875 10.4375 C6.93 9.7775 7.6725 9.1175 8.4375 8.4375 C13.24436546 5.28228262 18.68886177 5.35072726 24.1875 6.4375 C28.80029188 9.09928399 32.12873677 12.50237856 34.1875 17.4375 C35.16858339 24.3050837 32.20777862 29.47244973 29.1875 35.4375 C29.92871094 35.55738281 30.66992188 35.67726563 31.43359375 35.80078125 C36.90031297 37.06471775 40.99792995 40.09923369 44.6875 44.25 C46.8977929 48.94687242 47.06115076 52.7380173 45.4921875 57.5859375 C43.37152341 62.37970758 41.14368288 65.35068615 36.1875 67.4375 C31.83202275 67.74897632 27.54530415 67.67026105 23.1875 67.4375 C23.5175 68.4275 23.8475 69.4175 24.1875 70.4375 C24.76142153 74.9998129 25.21915036 79.48151862 23.0234375 83.64453125 C19.51198643 87.92129858 16.42220189 89.93295378 10.93359375 90.7890625 C5.77859739 91.21405457 2.72615469 90.64494185 -1.3125 87.3125 C-4.5118116 84.36231512 -5.63249057 81.6029333 -6.8125 77.4375 C-7.57433594 77.7984375 -8.33617187 78.159375 -9.12109375 78.53125 C-21.23829581 83.97718351 -21.23829581 83.97718351 -27.8125 82.4375 C-32.12751908 80.51466693 -36.79655268 77.84738476 -38.8125 73.4375 C-39.26556448 67.9101133 -38.54740465 63.74426716 -36.8125 58.4375 C-36.47028908 57.10641752 -36.13488793 55.77352205 -35.8125 54.4375 C-36.27140625 54.0971875 -36.7303125 53.756875 -37.203125 53.40625 C-42.53113917 49.19756654 -46.06443981 44.97984486 -47.19140625 38.13671875 C-47.54075358 31.43150378 -45.07888559 28.04727734 -40.75 23.0625 C-36.25614909 20.57653992 -31.83871894 21.12061054 -26.8125 21.4375 C-26.86470703 20.49390625 -26.86470703 20.49390625 -26.91796875 19.53125 C-27.1018863 13.71595235 -27.00155506 8.47285009 -23.8125 3.4375 C-17.26647684 -3.0600341 -8.1627524 -4.53486244 0 0 Z " fill="#FFEAF4" transform="translate(814.8125,506.5625)"/>
<path d="M0 0 C1.69269516 -0.00262848 1.69269516 -0.00262848 3.41958618 -0.00531006 C7.10957425 -0.00967269 10.79951349 -0.00681101 14.48950195 -0.00341797 C17.07395944 -0.00409247 19.65841687 -0.00506372 22.24287415 -0.00631714 C27.64157784 -0.00778642 33.0402635 -0.00576074 38.43896484 -0.00097656 C44.65905503 0.00447223 50.87911246 0.00269448 57.09920186 -0.00280297 C63.11559096 -0.00790512 69.13196417 -0.00734334 75.14835548 -0.00442123 C77.69476132 -0.00375614 80.241168 -0.00456574 82.78757286 -0.00690079 C86.34798755 -0.00945037 89.90833993 -0.00555461 93.46875 0 C95.03298958 -0.00303635 95.03298958 -0.00303635 96.62882996 -0.00613403 C97.60831604 -0.00331421 98.58780212 -0.00049438 99.5969696 0.00241089 C100.43588588 0.00278791 101.27480215 0.00316494 102.13914013 0.00355339 C106.12015553 0.1762355 110.07989624 0.68935154 114.0402832 1.12939453 C114.0402832 10.03939453 114.0402832 18.94939453 114.0402832 28.12939453 C68.5002832 28.12939453 22.9602832 28.12939453 -23.9597168 28.12939453 C-23.9597168 19.21939453 -23.9597168 10.30939453 -23.9597168 1.12939453 C-15.88117451 0.45618267 -8.0692936 -0.01575506 0 0 Z " fill="#77574B" transform="translate(218.959716796875,726.87060546875)"/>
<path d="M0 0 C0 8.91 0 17.82 0 27 C-45.21 27 -90.42 27 -137 27 C-137 18.09 -137 9.18 -137 0 C-121.05697426 -0.15358296 -105.11392645 -0.30247886 -89.17078114 -0.4429636 C-81.76689871 -0.50835159 -74.36304597 -0.57579314 -66.95922852 -0.64819336 C-60.50059839 -0.71134547 -54.04194569 -0.77051793 -47.58323687 -0.82505554 C-44.16838462 -0.85402587 -40.75357484 -0.88489101 -37.33878517 -0.92053413 C-33.5120969 -0.95947246 -29.68540732 -0.99137719 -25.85864258 -1.02172852 C-24.18951309 -1.04114754 -24.18951309 -1.04114754 -22.48666382 -1.06095886 C-14.87902549 -1.11142305 -7.64729845 -0.58825373 0 0 Z " fill="#76564A" transform="translate(495,728)"/>
<path d="M0 0 C3.32937897 15.78071497 2.66820629 33.95315731 -5.75 47.9375 C-10.63896532 54.63218869 -16.9617924 58.88088305 -25 61 C-28.47020772 61.40431618 -31.88467713 61.42052595 -35.375 61.375 C-36.25671875 61.38660156 -37.1384375 61.39820313 -38.046875 61.41015625 C-47.80361473 61.36723804 -56.55782204 59.15511803 -63.77734375 52.31640625 C-72.88264644 42.74910088 -74.18226927 31.7858227 -74.125 19.0625 C-74.12886719 18.20720703 -74.13273438 17.35191406 -74.13671875 16.47070312 C-74.12871508 11.22429681 -73.75800859 6.19175723 -73 1 C-67.38842772 1.4941007 -63.49252095 3.69444273 -58.75 6.5 C-57.3281857 7.32302154 -55.90631343 8.14594293 -54.484375 8.96875 C-53.86272461 9.33419922 -53.24107422 9.69964844 -52.60058594 10.07617188 C-47.23451547 13.17336691 -41.00518653 13.01780977 -35.04589844 11.50341797 C-30.7168822 10.14994718 -26.49251622 8.51735575 -22.26708984 6.87304688 C-18.41103642 5.38809673 -14.5184991 4.00803514 -10.625 2.625 C-9.90546143 2.36251465 -9.18592285 2.1000293 -8.44458008 1.82958984 C-5.4930415 0.7713371 -3.16133234 0 0 0 Z " fill="#F6F7F8" transform="translate(312,607)"/>
<path d="M0 0 C3.58552881 1.63687185 4.79315055 2.68972583 7 6 C7.1953125 8.48046875 7.1953125 8.48046875 7.125 11.1875 C7.10695313 12.08855469 7.08890625 12.98960937 7.0703125 13.91796875 C7.04710937 14.60503906 7.02390625 15.29210937 7 16 C7.80824219 15.95359375 8.61648438 15.9071875 9.44921875 15.859375 C18.25530459 15.56194387 18.25530459 15.56194387 22.1875 17.875 C25.23227201 21.44473271 25.40271512 24.09861358 25.34375 28.67578125 C24.743215 32.73621676 23.05190124 34.27982716 20 37 C16.6875 38.375 16.6875 38.375 14 39 C14.825 39.825 15.65 40.65 16.5 41.5 C18.59351251 44.02295097 19.41902208 45.77498409 19.5625 49.0625 C18.94840565 53.36116046 18.0775461 55.01296996 15 58 C12.53630468 59.23184766 10.8105499 59.16732342 8.0625 59.1875 C6.74958984 59.20876953 6.74958984 59.20876953 5.41015625 59.23046875 C3 59 3 59 0 57 C-0.99 57 -1.98 57 -3 57 C-3.5775 57.763125 -4.155 58.52625 -4.75 59.3125 C-8.1653676 63.39196686 -11.92524733 64.70953463 -17.125 65.4375 C-20.81124884 64.87654909 -22.38294098 63.61705902 -25 61 C-27.51667585 57.52459049 -27.16078393 54.18038223 -27 50 C-28.01320313 49.76216797 -28.01320313 49.76216797 -29.046875 49.51953125 C-34.53115393 48.08505945 -37.97441738 47.13033575 -41 42 C-42.57455739 38.85088521 -42.34799118 36.47991184 -42 33 C-40.60853984 30.34987463 -39.28731582 29.08399886 -37 27 C-34.1875 26.625 -34.1875 26.625 -32 27 C-32.28875 26.5153125 -32.5775 26.030625 -32.875 25.53125 C-35.7223624 20.390179 -36.85301727 16.8763412 -36 11 C-34.22919168 7.98766555 -32.17524611 5.58762305 -29 4 C-22.73592579 3.47799382 -19.90177547 4.07857962 -15 8 C-14.5875 7.236875 -14.175 6.47375 -13.75 5.6875 C-10.15148474 0.16120871 -6.52622876 -0.97309574 0 0 Z " fill="#FFD1E5" transform="translate(878,636)"/>
<path d="M0 0 C3.97248797 2.38349278 5.65216226 4.58889469 7 9 C8.0209375 8.2575 8.0209375 8.2575 9.0625 7.5 C12.74140375 5.62141085 14.9091225 5.49761154 19 6 C22.70390021 8.02666238 24.65363011 9.48044516 27 13 C27.69788995 19.04837959 26.20695267 22.08935373 23 27 C23.70125 27.0825 24.4025 27.165 25.125 27.25 C28.70840529 28.18480138 31.08050443 29.74402615 34 32 C35.23829052 35.71487155 35.5503822 39.13978512 35 43 C32.90419111 46.4431146 30.8734599 48.7468218 27 50 C21.64285714 50.32142857 21.64285714 50.32142857 19 49 C19.33 49.66 19.66 50.32 20 51 C20.5811138 58.08958838 20.5811138 58.08958838 18.125 61.9375 C14.50615885 65.44990464 11.45298778 65.5 6.5546875 65.5 C2.68496893 64.74262389 1.18986574 62.63450921 -1.0390625 59.53125 C-1.51472656 58.77328125 -1.51472656 58.77328125 -2 58 C-3.051875 58.23589844 -3.051875 58.23589844 -4.125 58.4765625 C-16.14490771 60.66496961 -16.14490771 60.66496961 -20.85546875 57.91796875 C-22.1875 56.5625 -22.1875 56.5625 -24 54 C-24.33 53.67 -24.66 53.34 -25 53 C-25.55913813 47.29679106 -24.5058565 44.49187864 -21 40 C-21.5775 39.773125 -22.155 39.54625 -22.75 39.3125 C-26.14222063 37.33370463 -28.25493471 34.49013058 -30 31 C-30.38529365 26.99294605 -30.175535 24.42287978 -28.625 20.6875 C-24.90918371 16.88321189 -21.15107239 16.57015687 -16 16 C-16.061875 14.948125 -16.12375 13.89625 -16.1875 12.8125 C-15.98516419 8.69833858 -15.56128645 7.15891995 -13 4 C-8.6646712 0.3543826 -5.65225105 -0.82214561 0 0 Z " fill="#FFE9F3" transform="translate(742,685)"/>
<path d="M0 0 C0.51046875 1.36705078 0.51046875 1.36705078 1.03125 2.76171875 C1.52068333 4.07036861 2.01028174 5.37895674 2.5 6.6875 C2.76554687 7.39720947 3.03109375 8.10691895 3.3046875 8.83813477 C4.84440958 12.94479603 6.39742768 17.04594389 7.96875 21.140625 C13.86657809 36.51461052 13.86657809 36.51461052 16.24633789 43.34667969 C19.62132141 53.02641107 23.26949036 62.40726093 27 72 C51.42 72 75.84 72 101 72 C103.97 65.73 106.94 59.46 110 53 C114.5625 44.375 114.5625 44.375 116.8203125 40.171875 C119.35904619 35.38121955 121.623836 30.47490895 123.89282227 25.55249023 C127.93263371 16.86694603 132.47252879 8.43870328 137 0 C139.93446886 1.41791563 142.43332409 2.98332607 145 5 C144.31938572 8.19736848 143.19344042 10.91723189 141.77734375 13.859375 C141.32584961 14.80111572 140.87435547 15.74285645 140.40917969 16.71313477 C139.68069824 18.21638306 139.68069824 18.21638306 138.9375 19.75 C138.18388184 21.31415649 138.18388184 21.31415649 137.41503906 22.90991211 C133.77715122 30.44196712 130.07258692 37.93775574 126.30517578 45.40576172 C123.59670409 50.78926718 120.90687109 56.18213839 118.2130127 61.57296753 C116.57350778 64.8535874 114.93321455 68.13381302 113.29296875 71.4140625 C112.7311792 72.5376416 112.16938965 73.6612207 111.59057617 74.81884766 C110.06038411 77.87923177 108.53019206 80.93961589 107 84 C77.96 84 48.92 84 19 84 C16.69 77.73 14.38 71.46 12 65 C10.45028604 61.10008588 10.45028604 61.10008588 8.87988281 57.20849609 C7.95042189 54.87555949 7.08604083 52.52649753 6.234375 50.1640625 C4.60571937 45.6643336 2.96245697 41.17020208 1.30859375 36.6796875 C0.83394413 35.38933772 0.35933519 34.09897297 -0.11523438 32.80859375 C-0.84071324 30.83617506 -1.56659035 28.86390757 -2.29370117 26.89208984 C-4.97134067 19.62895902 -7.60742766 12.36300039 -10 5 C-3.375 0 -3.375 0 0 0 Z " fill="#7A5A4F" transform="translate(280,325)"/>
<path d="M0 0 C3.6578218 2.03993908 5.66946174 3.50419262 8 7 C8.25760279 9.69452521 8.08900053 12.28548375 8 15 C8.99580078 14.93039062 8.99580078 14.93039062 10.01171875 14.859375 C17.28473679 14.56208375 17.28473679 14.56208375 21.0625 16.875 C24.03834892 20.1388343 24.40406044 22.52502836 24.34765625 26.96484375 C23.74956627 30.46602216 21.73943275 31.93020637 19 34 C16.1875 35.3125 16.1875 35.3125 14 36 C14.66 36.66 15.32 37.32 16 38 C18.22415101 41.33622651 18.72343763 43.1402319 18.515625 47.06640625 C17.53765279 50.73380205 15.10447842 52.10281874 12 54 C8.81197479 55.17818323 7.02444597 55.40087016 3.84375 54.15625 C1.8471707 53.17202077 -0.08442799 52.13281289 -2 51 C-2.43119141 51.92039062 -2.43119141 51.92039062 -2.87109375 52.859375 C-4.48630632 55.92213101 -6.01378512 57.22097837 -9 59 C-13.74554033 59.93877295 -16.95016771 59.66417961 -21.0625 57.0625 C-23.66529126 52.94841058 -23.46444522 49.7373412 -23 45 C-23.86625 45.0825 -24.7325 45.165 -25.625 45.25 C-29.82098405 44.93918637 -31.73928451 43.59375096 -35 41 C-37.37955059 37.43067411 -37.52911482 35.41265019 -37.4609375 31.2265625 C-36.9123355 28.57653589 -36.18156354 27.71547495 -34.125 26 C-31 24 -31 24 -29 23 C-29.495 22.34 -29.99 21.68 -30.5 21 C-32.37386 17.25228 -33.098149 14.05288083 -32 10 C-30.06096911 7.29450852 -27.93235185 5.56049133 -25 4 C-19.95785725 3.21759854 -17.10206613 4.01667918 -13 7 C-12.21625 6.030625 -11.4325 5.06125 -10.625 4.0625 C-7.4103295 0.08646017 -5.17242259 -0.49734833 0 0 Z " fill="#FFD1E4" transform="translate(680,529)"/>
<path d="M0 0 C2.2969506 2.23805444 3.57977336 4.15954672 5 7 C5.99 6.34 6.98 5.68 8 5 C12.94413333 4.4417914 14.90234175 4.22249207 19 7.125 C21.38048785 10.54695128 21.66654852 11.91739029 21 16 C19.5 19.375 19.5 19.375 18 22 C18.721875 22.061875 19.44375 22.12375 20.1875 22.1875 C23.98995534 23.2859871 25.58447681 24.89432732 28 28 C28.7446324 31.97137281 28.37266878 33.44099683 26.125 36.8125 C23.2342226 39.78830026 22.61077792 39.98946935 18.375 40.0625 C16.704375 40.0315625 16.704375 40.0315625 15 40 C15.061875 41.2375 15.12375 42.475 15.1875 43.75 C15.15978659 46.35967988 15.00955396 47.97515971 14.0625 50.4375 C10.70995059 52.97731016 7.14681115 53.45026671 3 53 C-0.0625 50.6875 -0.0625 50.6875 -2 48 C-2 47.34 -2 46.68 -2 46 C-3.2375 46.495 -3.2375 46.495 -4.5 47 C-8.8017677 48.22907649 -11.53200949 48.49644339 -16 48 C-19 45.9375 -19 45.9375 -21 43 C-21.35830946 39.59606015 -21.36202148 37.05589597 -20.25 33.8125 C-20.1675 33.214375 -20.085 32.61625 -20 32 C-21.85410577 29.89586384 -21.85410577 29.89586384 -24 28 C-25.43632413 23.69102762 -25.71262495 19.85282487 -24.0625 15.5625 C-20.71893043 13.02949275 -17.04720363 13.69455067 -13 14 C-13.05800781 13.32453125 -13.11601563 12.6490625 -13.17578125 11.953125 C-13.54205133 4.71144236 -13.54205133 4.71144236 -11 1.375 C-6.82393679 -0.53902897 -4.582819 -0.65468843 0 0 Z " fill="#FFE9F3" transform="translate(686,418)"/>
<path d="M0 0 C1.36328125 2.06640625 1.36328125 2.06640625 2.3125 4.5625 C2.63863281 5.38878906 2.96476563 6.21507812 3.30078125 7.06640625 C3.64689453 8.02353516 3.64689453 8.02353516 4 9 C-0.25655694 10.38585575 -4.37829924 11.24635382 -8.8125 11.875 C-14.10997833 12.64817814 -19.2865546 13.67993107 -24.5 14.875 C-31.97009567 16.58322514 -39.46329622 18.07999957 -46.99487305 19.49072266 C-56.34683637 21.24340315 -65.673598 23.11668789 -75 25 C-75.433125 26.670625 -75.433125 26.670625 -75.875 28.375 C-77 32 -77 32 -79 34 C-83.51155336 35.50385112 -87.42205867 35.19584044 -92 34 C-96.62185692 31.58315398 -99.26317552 27.84482618 -101 23 C-102.13602169 18.66709676 -102.88536533 14.88705602 -100.9296875 10.71875 C-97.59146668 6.0347543 -93.66772288 1.68282075 -87.796875 0.58984375 C-83.47761486 0.31095112 -81.53566492 0.6173822 -77.9375 3.1875 C-75.80089928 6.28901718 -75.81123561 7.37694153 -76 11 C-72.18681172 10.37915385 -68.37458873 9.75255927 -64.5625 9.125 C-63.49322266 8.95097656 -62.42394531 8.77695312 -61.32226562 8.59765625 C-55.88645478 7.69999941 -50.51565316 6.69698893 -45.14770508 5.45996094 C-41.31542003 4.63922375 -37.44134064 4.11192182 -33.5625 3.5625 C-28.32095942 2.80673151 -23.08914704 2.03383637 -17.875 1.10546875 C-17.06474365 0.96230225 -16.2544873 0.81913574 -15.41967773 0.67163086 C-13.88657696 0.39740351 -12.35472912 0.11604315 -10.82446289 -0.17358398 C-3.60836422 -1.45519798 -3.60836422 -1.45519798 0 0 Z " fill="#AE5A82" transform="translate(845,479)"/>
<path d="M0 0 C8.61885162 0.54154971 16.95789974 1.76895672 25.4375 3.375 C34.98226559 5.13532848 44.51967329 6.72310458 54.13525391 8.03979492 C60.12364191 8.86150757 66.07035003 9.81962471 72 11 C72.0825 10.113125 72.165 9.22625 72.25 8.3125 C73.15303435 4.32409829 73.83412985 2.62535574 77 0 C81.72311361 -1.22610993 85.50852735 -0.80182234 89.8046875 1.5078125 C93.11164205 3.79871725 96.15451527 6.15451527 99 9 C99.81187057 14.8770808 100.40886435 21.3328075 97.57421875 26.69921875 C94.26799968 30.52933549 90.92469968 33.50295801 85.81640625 34.37109375 C81.55520749 34.49664033 79.57822359 34.40957504 76 31.875 C73.8266451 28.75080233 73.49345599 26.71120027 73 23 C71.19015625 22.81824219 71.19015625 22.81824219 69.34375 22.6328125 C67.72913529 22.46384119 66.11455368 22.29455344 64.5 22.125 C63.31277344 22.00705078 63.31277344 22.00705078 62.1015625 21.88671875 C57.70640861 21.41838268 53.60060827 20.6773631 49.3215332 19.52856445 C45.16909398 18.58314107 40.94092986 18.11074057 36.72412109 17.53564453 C29.52426986 16.50008182 22.38482114 15.10670052 15.23632812 13.76757812 C8.16548433 12.47236545 1.17279796 11.49690796 -6 11 C-4.15396556 7.22002472 -2.1852183 3.59306203 0 0 Z " fill="#AE5A82" transform="translate(632,483)"/>
<path d="M0 0 C3.26914978 0.22545861 4.97919567 0.41828931 7.625 2.25 C9.1033226 5.20664519 8.68532783 7.99229737 8.625 11.25 C9.22828125 11.19199219 9.8315625 11.13398438 10.453125 11.07421875 C16.96943704 10.70636243 16.96943704 10.70636243 20.1875 13.375 C21.89023868 16.78047736 22.32838515 18.49861252 21.625 22.25 C19.452365 24.82285724 17.64506162 26.73996919 14.625 28.25 C15.285 28.91 15.945 29.57 16.625 30.25 C17.08876812 37.55434783 17.08876812 37.55434783 14.625 41.25 C12.6015625 41.796875 12.6015625 41.796875 10.25 42 C9.47914063 42.07734375 8.70828125 42.1546875 7.9140625 42.234375 C5.625 42.25 5.625 42.25 3.5 41.6484375 C2.571875 41.45121094 2.571875 41.45121094 1.625 41.25 C-1.03153729 43.07522428 -1.03153729 43.07522428 -3.375 45.25 C-6.24970493 46.68735246 -8.19394588 46.63172649 -11.375 46.25 C-14.43161905 43.51513033 -15.31474578 42.04836847 -15.625 37.9375 C-15.5425 37.050625 -15.46 36.16375 -15.375 35.25 C-16.2825 35.1675 -17.19 35.085 -18.125 35 C-21.91188242 34.12610406 -23.1364704 33.40052314 -25.375 30.25 C-26.37754682 26.50715855 -26.90774585 24.34353095 -25.1875 20.8125 C-23.375 19.25 -23.375 19.25 -19.375 19.25 C-19.890625 18.404375 -20.40625 17.55875 -20.9375 16.6875 C-22.66923511 12.5463943 -22.6439654 10.53275821 -21.375 6.25 C-18.95103898 3.62404223 -17.38201471 2.45140294 -13.875 1.75 C-10.5725242 2.41049516 -8.82908516 4.006265 -6.375 6.25 C-6.25125 5.63125 -6.1275 5.0125 -6 4.375 C-4.91000303 0.6690103 -3.81194778 0.2823665 0 0 Z " fill="#FFD0E4" transform="translate(782.375,401.75)"/>
<path d="M0 0 C0.9765625 9.1796875 0.9765625 9.1796875 1 12 C-1.74207003 14.74207003 -4.96463434 15.53544657 -8.5625 16.75 C-10.10966871 17.27778563 -11.65653547 17.80645708 -13.203125 18.3359375 C-13.99783203 18.60760742 -14.79253906 18.87927734 -15.61132812 19.15917969 C-17.92121494 19.9722674 -20.20279537 20.83749153 -22.484375 21.7265625 C-40.47333923 28.67083919 -40.47333923 28.67083919 -49.06542969 25.15478516 C-56.42179809 21.73325576 -63.30946154 17.57221751 -70 13 C-69.34 9.04 -68.68 5.08 -68 1 C-61.85179738 0.85429698 -55.70352622 0.71207987 -49.55517578 0.57275391 C-47.47442582 0.52515192 -45.39369543 0.47668404 -43.31298828 0.42724609 C-28.87237323 0.08491898 -14.44462911 -0.06419043 0 0 Z " fill="#79594D" transform="translate(310,594)"/>
<path d="M0 0 C3.5 0.5625 3.5 0.5625 5.9375 2.1875 C7.89644605 5.165098 7.81785906 7.06605037 7.5 10.5625 C8.7375 10.48 9.975 10.3975 11.25 10.3125 C14.3510592 10.32349666 15.31412391 10.44168054 18 12.1875 C19.99744129 15.35011537 20.25002573 16.88737393 19.5 20.5625 C17.65609276 22.60358807 15.76967552 23.95481317 13.5 25.5625 C13.83 26.119375 14.16 26.67625 14.5 27.25 C15.68664572 29.99411823 15.94406789 31.60204738 15.5 34.5625 C13.9375 36.875 13.9375 36.875 11.5 38.5625 C7.23910491 39.01902447 4.14957865 38.89823034 0.5 36.5625 C0.17 37.5525 -0.16 38.5425 -0.5 39.5625 C-3.38023198 41.86668559 -4.90678273 42.57436435 -8.625 42.5 C-11.5 41.5625 -11.5 41.5625 -13.375 39.8125 C-14.68152386 37.19945229 -14.74038873 35.44716476 -14.5 32.5625 C-15.221875 32.500625 -15.94375 32.43875 -16.6875 32.375 C-20.53229755 31.26428071 -22.12982531 29.76920693 -24.5 26.5625 C-24.43185849 22.54215076 -24.3823175 20.4448175 -21.5 17.5625 C-20.51 17.5625 -19.52 17.5625 -18.5 17.5625 C-18.83 17.02625 -19.16 16.49 -19.5 15.9375 C-20.80335189 12.84203927 -20.97632194 10.89675359 -20.5 7.5625 C-18.375 4.625 -18.375 4.625 -15.5 2.5625 C-11.74529849 2.6361216 -10.17158839 2.89091161 -7.5 5.5625 C-6.984375 4.7375 -6.46875 3.9125 -5.9375 3.0625 C-3.5 0.5625 -3.5 0.5625 0 0 Z " fill="#FFD0E4" transform="translate(756.5,611.4375)"/>
<path d="M0 0 C3.0625 2 3.0625 2 5 5 C5.83878424 9.03919402 5.38711831 12.10962788 3.75 15.875 C1.09333411 19.10095144 -0.77775154 19.81400567 -4.875 20.4375 C-9.2682371 19.82244681 -10.84565969 18.08098355 -14 15 C-15.55024464 11.89951072 -15.28992015 9.42105782 -15 6 C-11.00386384 -0.12740877 -7.03333849 -1.04287433 0 0 Z " fill="#FFE7EC" transform="translate(629,649)"/>
<path d="M0 0 C3.51004708 1.95002616 6.37654992 4.08485097 7.65234375 8.00390625 C7.974645 12.14665641 7.23228392 13.7141121 4.5625 17 C1.21106564 19.34043159 -1.91168745 19.73767992 -5.94140625 19.47265625 C-8 19 -8 19 -10.5625 17.0625 C-12.50332653 12.92769565 -13.06937676 9.4800405 -12 5 C-9.08383593 0.67568822 -5.08749187 -1.14209001 0 0 Z " fill="#EBE9E9" transform="translate(288,505)"/>
<path d="M0 0 C2.92937654 1.81310142 5.43647949 3.87295899 7 7 C7.43023798 10.87214182 7.31669086 12.52496371 5.125 15.8125 C2.27406401 18.74728705 0.61137472 19.20283099 -3.375 19.375 C-6.85342253 19.31898675 -7.72211316 19.21688729 -10.5625 17 C-12.39671884 13.17206504 -12.85928323 10.17005097 -12 6 C-8.68259295 0.80272896 -6.16380285 -0.71120802 0 0 Z " fill="#EDECEC" transform="translate(411,505)"/>
<path d="M0 0 C3.68386204 0.8062545 5.1556308 2.38804811 7.1953125 5.48046875 C7.88682575 9.78321784 7.71088655 11.68992187 5.3203125 15.35546875 C2.62124281 18.05453844 1.70430245 18.41324366 -2.1171875 18.91796875 C-5.8046875 18.48046875 -5.8046875 18.48046875 -8.7421875 15.91796875 C-11.21737415 12.44287227 -11.49907722 9.72396146 -10.8046875 5.48046875 C-8.28581643 0.33321047 -5.38423675 -0.32874053 0 0 Z " fill="#FFE6EC" transform="translate(814.8046875,541.51953125)"/>
<path d="M0 0 C2.5 0.9375 2.5 0.9375 4 3 C4.62146539 6.12508309 4.64812539 8.8777264 4 12 C1.4323911 15.09623426 -0.11369394 15.85529697 -4.0625 16.5 C-7.64818067 15.88967138 -8.76863693 14.80986461 -11 12 C-12.42041821 9.15916359 -12.31452272 7.14522722 -12 4 C-8.99263374 -0.76166325 -5.15908978 -0.82460861 0 0 Z " fill="#FFA662" transform="translate(872,659)"/>
<path d="M0 0 C1.91015625 0.1328125 1.91015625 0.1328125 3.91015625 1.1328125 C5.21691335 5.44511093 5.26937878 9.67845318 4.91015625 14.1328125 C3.28515625 16.1328125 3.28515625 16.1328125 0.91015625 17.1328125 C-2.20173841 17.38176407 -4.28068901 17.53738987 -7.08984375 16.1328125 C-7.1166947 13.65357449 -7.13660922 11.1746241 -7.15234375 8.6953125 C-7.16491211 7.63473633 -7.16491211 7.63473633 -7.17773438 6.55273438 C-7.18637963 4.74587691 -7.14204386 2.93893647 -7.08984375 1.1328125 C-5.19099279 -0.76603846 -2.51736472 0.00913744 0 0 Z " fill="#FEE7F2" transform="translate(739.08984375,490.8671875)"/>
<path d="M0 0 C2.9375 2.125 2.9375 2.125 5 5 C5 8.21533738 4.56577071 10.08848052 2.875 12.8125 C-0.12153486 14.71030541 -2.47962948 15 -6 15 C-9.00143342 12.46032557 -9.86787179 10.80928528 -10.5 6.9375 C-10 4 -10 4 -8.375 1.625 C-5.24988831 -0.51323431 -3.71837535 -0.6829669 0 0 Z " fill="#FFCEDC" transform="translate(675,550)"/>
<path d="M0 0 C1.9375 1.0625 1.9375 1.0625 3 3 C3.50030235 6.93094707 3.5996142 9.1005787 1.375 12.4375 C-1.71685231 14.47161336 -3.36367425 14.60605429 -7 14 C-9.375 12.375 -9.375 12.375 -11 10 C-11.60605429 6.36367425 -11.47161336 4.71685231 -9.4375 1.625 C-6.1005787 -0.5996142 -3.93094707 -0.50030235 0 0 Z " fill="#D4D5D6" transform="translate(349,421)"/>
<path d="M0 0 C3.0625 2 3.0625 2 5 5 C5.83878424 9.03919402 5.38711831 12.10962788 3.75 15.875 C1.09333411 19.10095144 -0.77775154 19.81400567 -4.875 20.4375 C-9.2682371 19.82244681 -10.84565969 18.08098355 -14 15 C-15.55024464 11.89951072 -15.28992015 9.42105782 -15 6 C-11.00386384 -0.12740877 -7.03333849 -1.04287433 0 0 Z M-11 4.125 C-12.51152489 6.95910917 -12.4433302 8.8333557 -12 12 C-10.52383326 14.9703869 -10.52383326 14.9703869 -8 17 C-4.34394496 17.68551032 -2.7370662 17.48491197 0.375 15.4375 C2.5996142 12.1005787 2.50030235 9.93094707 2 6 C1.14780077 3.89757556 1.14780077 3.89757556 -1 3 C-4.60137103 2.4672972 -7.77825164 2.31276654 -11 4.125 Z " fill="#FFA354" transform="translate(629,649)"/>
<path d="M0 0 C1.9375 1.0625 1.9375 1.0625 3 3 C3.50030235 6.93094707 3.5996142 9.1005787 1.375 12.4375 C-1.7370662 14.48491197 -3.34394496 14.68551032 -7 14 C-9.4375 11.9375 -9.4375 11.9375 -11 9 C-10.9375 5.3125 -10.9375 5.3125 -10 2 C-6.30513897 -0.46324069 -4.36706908 -0.38991688 0 0 Z " fill="#D4D5D6" transform="translate(349,448)"/>
<path d="M0 0 C2.3125 1.5625 2.3125 1.5625 4 4 C4.42519574 7.46230815 4.63902633 9.8347167 2.9375 12.9375 C-0.1652833 14.63902633 -2.53769185 14.42519574 -6 14 C-8.4375 12.375 -8.4375 12.375 -10 10 C-10.5625 7 -10.5625 7 -10 4 C-6.94670598 0.68499507 -4.5294194 -0.92911167 0 0 Z " fill="#D5D6D7" transform="translate(348,473)"/>
<path d="M0 0 C4.35653019 1.39038198 4.35653019 1.39038198 5.9375 3.9375 C6.32726435 7.05561483 6.44172245 9.04769567 4.875 11.8125 C1.79678089 13.59985303 -0.59156068 13.37136742 -4.0625 12.9375 C-6.44710953 10.86058202 -6.9584746 9.53193084 -7.5 6.4375 C-7.0625 3.9375 -7.0625 3.9375 -5.4375 1.5625 C-3.0625 -0.0625 -3.0625 -0.0625 0 0 Z " fill="#FFA962" transform="translate(744.0625,711.0625)"/>
<path d="M0 0 C3.68386204 0.8062545 5.1556308 2.38804811 7.1953125 5.48046875 C7.88682575 9.78321784 7.71088655 11.68992187 5.3203125 15.35546875 C2.62124281 18.05453844 1.70430245 18.41324366 -2.1171875 18.91796875 C-5.8046875 18.48046875 -5.8046875 18.48046875 -8.7421875 15.91796875 C-11.21737415 12.44287227 -11.49907722 9.72396146 -10.8046875 5.48046875 C-8.28581643 0.33321047 -5.38423675 -0.32874053 0 0 Z M-7.1796875 4.04296875 C-9.15684432 6.49550287 -9.15684432 6.49550287 -8.6796875 10.10546875 C-8.09728036 13.5258893 -8.09728036 13.5258893 -5.8046875 15.48046875 C-1.1624441 15.92916048 -1.1624441 15.92916048 3.1328125 14.41796875 C4.82866537 11.32553117 4.62591907 8.92532134 4.1953125 5.48046875 C2.11839452 3.09585922 0.78974334 2.58449415 -2.3046875 2.04296875 C-4.91802954 2.32965808 -4.91802954 2.32965808 -7.1796875 4.04296875 Z " fill="#FFA251" transform="translate(814.8046875,541.51953125)"/>
<path d="M0 0 C2 2 2 2 2.3125 4.9375 C2 8 2 8 0.875 9.875 C-1.88090884 11.52854531 -3.85075452 11.39365568 -7 11 C-8.875 9.875 -8.875 9.875 -10 8 C-10.39310741 4.85514075 -10.47555213 2.86718329 -8.9375 0.0625 C-5.81651045 -1.6490104 -3.35466116 -0.79291991 0 0 Z " fill="#CAC9CA" transform="translate(274,602)"/>
<path d="M0 0 C1.875 1.1875 1.875 1.1875 3 3 C3.42822025 5.85480169 3.40659584 7.34492892 1.875 9.8125 C-0.87155972 11.55198782 -2.81846974 11.39769128 -6 11 C-7.875 9.8125 -7.875 9.8125 -9 8 C-9.42822025 5.14519831 -9.40659584 3.65507108 -7.875 1.1875 C-5.12844028 -0.55198782 -3.18153026 -0.39769128 0 0 Z " fill="#FFCEDA" transform="translate(782,418)"/>
<path d="M0 0 C2.9375 0.8125 2.9375 0.8125 4.9375 2.8125 C5.3125 5.75 5.3125 5.75 4.9375 8.8125 C3.25 10.75 3.25 10.75 0.9375 11.8125 C-2.43286311 11.57175978 -3.65048021 11.22451979 -6.0625 8.8125 C-6.39552312 5.6820827 -6.53921956 3.63351702 -4.9375 0.875 C-3.0625 -0.1875 -3.0625 -0.1875 0 0 Z " fill="#FFCFDF" transform="translate(869.0625,661.1875)"/>
<path d="M0 0 C1.8125 1.1875 1.8125 1.1875 3 3 C3.4375 5.5 3.4375 5.5 3 8 C1.3125 9.875 1.3125 9.875 -1 11 C-4.37036311 10.75925978 -5.58798021 10.41201979 -8 8 C-8.36487512 5.15397406 -8.40199375 3.6135694 -6.8125 1.1875 C-4.35092224 -0.42525784 -2.88934264 -0.4334014 0 0 Z " fill="#FFAF70" transform="translate(689,439)"/>
<path d="M0 0 C2.4375 0.8125 2.4375 0.8125 4.4375 2.8125 C4.6875 5.8125 4.6875 5.8125 4.4375 8.8125 C2.4375 10.8125 2.4375 10.8125 -0.5625 11.125 C-1.5525 11.021875 -2.5425 10.91875 -3.5625 10.8125 C-5.71752531 7.57996204 -6.03106135 6.56099077 -5.5625 2.8125 C-3.86282344 0.12880016 -3.19877434 -0.23405666 0 0 Z " fill="#FFA561" transform="translate(753.5625,626.1875)"/>
<path d="M0 0 C2.9375 2.125 2.9375 2.125 5 5 C5 8.21533738 4.56577071 10.08848052 2.875 12.8125 C-0.12153486 14.71030541 -2.47962948 15 -6 15 C-9.00143342 12.46032557 -9.86787179 10.80928528 -10.5 6.9375 C-10 4 -10 4 -8.375 1.625 C-5.24988831 -0.51323431 -3.71837535 -0.6829669 0 0 Z M-6 2 C-8.15502531 5.23253796 -8.46856135 6.25150923 -8 10 C-6.93654948 11.98029682 -6.93654948 11.98029682 -5 13 C-1.65807308 12.75546876 -0.39456443 12.39456443 2 10 C2.41666667 7 2.41666667 7 2 4 C-1.20808915 1.8612739 -2.27698497 1.52269038 -6 2 Z " fill="#FFA358" transform="translate(675,550)"/>
<path d="M0 0 C0.33 0.66 0.66 1.32 1 2 C1.99 2.33 2.98 2.66 4 3 C4.6875 5.0625 4.6875 5.0625 5 7 C5.5775 6.79375 6.155 6.5875 6.75 6.375 C9.51967567 5.91338739 10.64561267 6.57055055 13 8 C13 8.66 13 9.32 13 10 C9.5301182 11.7349409 5.78547281 11.59735298 2 11 C-0.625 8.8125 -0.625 8.8125 -2 6 C-1.70731707 1.70731707 -1.70731707 1.70731707 0 0 Z " fill="#ECEBEB" transform="translate(278,513)"/>
<path d="M0 0 C2.01748201 3.12709712 1.76385088 6.38220744 1.25 9.9375 C-0.01484931 12.8466534 -1.00450067 14.39765566 -3.5625 16.25 C-6.35686797 17.12822993 -8.83979796 17.06978191 -11.75 16.9375 C-11.75 16.6075 -11.75 16.2775 -11.75 15.9375 C-10.945625 15.81375 -10.14125 15.69 -9.3125 15.5625 C-8.466875 15.35625 -7.62125 15.15 -6.75 14.9375 C-6.42 14.2775 -6.09 13.6175 -5.75 12.9375 C-5.09 12.9375 -4.43 12.9375 -3.75 12.9375 C-2.57646811 9.41690432 -2.54853598 6.631007 -2.75 2.9375 C-5.51223278 0.17526722 -7.95706617 0.35893709 -11.75 -0.0625 C-11.75 -0.3925 -11.75 -0.7225 -11.75 -1.0625 C-7.12264076 -2.0090053 -4.0961666 -2.48695829 0 0 Z " fill="#FFA962" transform="translate(632.75,652.0625)"/>
<path d="M0 0 C3.465 1.485 3.465 1.485 7 3 C6.67 5.64 6.34 8.28 6 11 C3.36 11.33 0.72 11.66 -2 12 C-2.12375 11.195625 -2.2475 10.39125 -2.375 9.5625 C-2.684375 8.2940625 -2.684375 8.2940625 -3 7 C-3.66 6.67 -4.32 6.34 -5 6 C-5 5.34 -5 4.68 -5 4 C-3.68 4 -2.36 4 -1 4 C-0.67 2.68 -0.34 1.36 0 0 Z " fill="#866A5F" transform="translate(284,509)"/>
<path d="M0 0 C0.66 0 1.32 0 2 0 C2.33 0.66 2.66 1.32 3 2 C5.02463255 2.65213292 5.02463255 2.65213292 7 3 C6.67 5.64 6.34 8.28 6 11 C3.36 11.33 0.72 11.66 -2 12 C-2.66 9.69 -3.32 7.38 -4 5 C-3.01 4.34 -2.02 3.68 -1 3 C-0.67 2.01 -0.34 1.02 0 0 Z " fill="#84675C" transform="translate(407,509)"/>
<path d="M0 0 C2.375 0.6875 2.375 0.6875 3.375 1.6875 C3.5625 4.125 3.5625 4.125 3.375 6.6875 C1.375 8.6875 1.375 8.6875 -1.125 8.9375 C-3.625 8.6875 -3.625 8.6875 -5.625 6.6875 C-5.9375 4.1875 -5.9375 4.1875 -5.625 1.6875 C-2.625 -0.3125 -2.625 -0.3125 0 0 Z " fill="#FFE5E8" transform="translate(744.625,713.3125)"/>
<path d="M0 0 C6.75 0.75 6.75 0.75 9 3 C9.125 6.125 9.125 6.125 9 9 C8.34 8.01 7.68 7.02 7 6 C6.34 7.32 5.68 8.64 5 10 C3.68 10 2.36 10 1 10 C0.67 8.35 0.34 6.7 0 5 C0.66 5 1.32 5 2 5 C2 4.01 2 3.02 2 2 C1.34 1.34 0.68 0.68 0 0 Z " fill="#BEB8B7" transform="translate(267,601)"/>
<path d="M0 0 C1.875 1.1875 1.875 1.1875 3 3 C3.42822025 5.85480169 3.40659584 7.34492892 1.875 9.8125 C-0.87155972 11.55198782 -2.81846974 11.39769128 -6 11 C-7.875 9.8125 -7.875 9.8125 -9 8 C-9.42822025 5.14519831 -9.40659584 3.65507108 -7.875 1.1875 C-5.12844028 -0.55198782 -3.18153026 -0.39769128 0 0 Z M-7 4 C-6.67958603 6.60280568 -6.67958603 6.60280568 -6 9 C-3.60280568 9.67958603 -3.60280568 9.67958603 -1 10 C1.26839983 8.16734675 1.26839983 8.16734675 1.1875 5.4375 C1.27003323 3.05310277 1.27003323 3.05310277 0 2 C-3.961168 1.60909667 -3.961168 1.60909667 -7 4 Z " fill="#FFA664" transform="translate(782,418)"/>
<path d="M0 0 C1.67542976 0.28604898 3.34385343 0.61781233 5 1 C6.125 4.75 6.125 4.75 5 7 C3.33388095 7.042721 1.66617115 7.04063832 0 7 C-1 6 -1 6 -1.125 3.5 C-1 1 -1 1 0 0 Z " fill="#FFCFDD" transform="translate(751,628)"/>
<path d="M0 0 C1.2065625 0.0309375 1.2065625 0.0309375 2.4375 0.0625 C3.0625 2.4375 3.0625 2.4375 3.4375 5.0625 C2.7775 5.7225 2.1175 6.3825 1.4375 7.0625 C-1.1875 6.6875 -1.1875 6.6875 -3.5625 6.0625 C-3.605221 4.39638095 -3.60313832 2.72867115 -3.5625 1.0625 C-2.5625 0.0625 -2.5625 0.0625 0 0 Z " fill="#FFE7ED" transform="translate(686.5625,440.9375)"/>
<path d="M0 0 C0.66 0.33 1.32 0.66 2 1 C2.3125 4.25 2.3125 4.25 2 8 C-0.71913126 11.1190035 -2.17373382 11.93764029 -6.3125 12.25 C-7.199375 12.1675 -8.08625 12.085 -9 12 C-9.33 11.01 -9.66 10.02 -10 9 C-8.6078125 9.061875 -8.6078125 9.061875 -7.1875 9.125 C-3.84190281 9.27136339 -3.84190281 9.27136339 -1 7 C-0.26393501 3.43230448 -0.26393501 3.43230448 0 0 Z " fill="#FFA154" transform="translate(874,663)"/>
<path d="M0 0 C0.12375 0.639375 0.2475 1.27875 0.375 1.9375 C0.58125 2.618125 0.7875 3.29875 1 4 C1.66 4.33 2.32 4.66 3 5 C-0.75 9.875 -0.75 9.875 -3 11 C-5.3329866 11.04022391 -7.66706666 11.04320247 -10 11 C-9.67 10.01 -9.34 9.02 -9 8 C-7.865625 7.731875 -6.73125 7.46375 -5.5625 7.1875 C-4.386875 6.795625 -3.21125 6.40375 -2 6 C-0.46853622 2.99405579 -0.46853622 2.99405579 0 0 Z " fill="#FFAC68" transform="translate(819,549)"/>
<path d="M0 0 C0 0.66 0 1.32 0 2 C1.32 2.33 2.64 2.66 4 3 C3.3125 4.9375 3.3125 4.9375 2 7 C-0.625 7.75 -0.625 7.75 -3 8 C-3.66 6.35 -4.32 4.7 -5 3 C-2.25 0 -2.25 0 0 0 Z " fill="#F3F4F5" transform="translate(346,424)"/>
<path d="M0 0 C1.98 0.66 3.96 1.32 6 2 C5.3125 4.4375 5.3125 4.4375 4 7 C1.375 7.8125 1.375 7.8125 -1 8 C-1.625 5.6875 -1.625 5.6875 -2 3 C-1.34 2.01 -0.68 1.02 0 0 Z " fill="#F2F3F4" transform="translate(344,451)"/>
<path d="M0 0 C2.475 0.99 2.475 0.99 5 2 C4.8125 3.875 4.8125 3.875 4 6 C1.4375 7.25 1.4375 7.25 -1 8 C-1 6.68 -1 5.36 -1 4 C-1.66 4 -2.32 4 -3 4 C-3 3.34 -3 2.68 -3 2 C-2.01 2 -1.02 2 0 2 C0 1.34 0 0.68 0 0 Z " fill="#F3F4F5" transform="translate(344,477)"/>
<path d="M0 0 C2.0625 1.625 2.0625 1.625 4 4 C3.85205998 7.6985004 3.64194427 9.35805573 1 12 C0.34 11.34 -0.32 10.68 -1 10 C-0.67 9.67 -0.34 9.34 0 9 C0.25005386 6.04182893 0.25005386 6.04182893 0 3 C-0.66 2.34 -1.32 1.68 -2 1 C-1.34 0.67 -0.68 0.34 0 0 Z " fill="#FFA766" transform="translate(676,551)"/>
<path d="M0 0 C0.66 0 1.32 0 2 0 C2 0.66 2 1.32 2 2 C2.66 2 3.32 2 4 2 C4 3.65 4 5.3 4 7 C2.35 7 0.7 7 -1 7 C-1.33 5.35 -1.66 3.7 -2 2 C-1.34 2 -0.68 2 0 2 C0 1.34 0 0.68 0 0 Z " fill="#84685E" transform="translate(269,604)"/>
<path d="M0 0 C1.98 0.66 3.96 1.32 6 2 C6 2.66 6 3.32 6 4 C3.29120665 5.35439668 0.99066732 5.06501451 -2 5 C-1.34 3.35 -0.68 1.7 0 0 Z " fill="#F2F2F2" transform="translate(285,519)"/>
<path d="M0 0 C0.78375 0.04125 1.5675 0.0825 2.375 0.125 C1.385 0.62 1.385 0.62 0.375 1.125 C0.375 2.115 0.375 3.105 0.375 4.125 C-0.285 4.125 -0.945 4.125 -1.625 4.125 C-2.285 5.445 -2.945 6.765 -3.625 8.125 C-3.955 8.125 -4.285 8.125 -4.625 8.125 C-4.75 5.25 -4.75 5.25 -4.625 2.125 C-2.625 0.125 -2.625 0.125 0 0 Z " fill="#C5C2C1" transform="translate(268.625,601.875)"/>
<path d="M0 0 C0.3403125 0.928125 0.3403125 0.928125 0.6875 1.875 C2.37929835 4.61410209 3.99244161 5.05024472 7 6 C7 6.33 7 6.66 7 7 C5.02 7 3.04 7 1 7 C-0.0625 5.1875 -0.0625 5.1875 -1 3 C-0.67 2.01 -0.34 1.02 0 0 Z " fill="#FFAD79" transform="translate(749,630)"/>
</svg>
