<svg xmlns="http://www.w3.org/2000/svg" xmlns:xlink="http://www.w3.org/1999/xlink" width="1080" zoomAndPan="magnify" viewBox="0 0 810 809.999993" height="1080" preserveAspectRatio="xMidYMid meet" version="1.0"><defs><clipPath id="82d6086caa"><path d="M 402.375 243 L 694.875 243 L 694.875 566 L 402.375 566 Z M 402.375 243 " clip-rule="nonzero"/></clipPath><clipPath id="ae96259a25"><path d="M 115.214844 243 L 387.464844 243 L 387.464844 380 L 115.214844 380 Z M 115.214844 243 " clip-rule="nonzero"/></clipPath></defs><g clip-path="url(#82d6086caa)"><path fill="#ffabc7" d="M 489.398438 246.570312 L 490.042969 246.382812 C 492.453125 245.671875 494.941406 247.238281 495.339844 249.71875 L 499.675781 276.582031 C 499.910156 278.035156 500.886719 279.253906 502.261719 279.796875 C 508.574219 282.28125 527.511719 288.84375 547.535156 287.0625 C 566.113281 285.414062 579.382812 282.824219 584.746094 281.660156 C 586.351562 281.3125 587.59375 280.054688 587.933594 278.449219 L 594.605469 246.890625 C 595.117188 244.453125 597.640625 243.007812 600.003906 243.796875 C 602.074219 244.484375 603.261719 246.644531 602.734375 248.761719 C 599.5625 261.429688 591.792969 303.269531 621.132812 323.570312 C 622.234375 324.332031 622.863281 325.613281 622.863281 326.953125 L 622.863281 357.503906 C 622.863281 358.1875 623.027344 358.851562 623.347656 359.457031 C 629.359375 370.761719 689.421875 484.601562 694.636719 530.03125 C 694.851562 531.894531 693.765625 533.652344 692.023438 534.34375 C 676.96875 540.328125 605.320312 567.003906 528.429688 565.359375 C 455.777344 563.804688 415.820312 547.089844 405.070312 541.882812 C 403.304688 541.027344 402.386719 539.0625 402.855469 537.160156 C 407.921875 516.59375 436.941406 402.070312 465.136719 360.722656 C 465.566406 360.097656 465.816406 359.375 465.859375 358.613281 L 467.746094 325.027344 C 467.804688 323.988281 468.242188 323 468.988281 322.273438 C 472.609375 318.734375 483.722656 306.769531 486.671875 290.609375 C 490.277344 270.863281 488.125 257.679688 486.539062 251.613281 C 485.96875 249.433594 487.238281 247.207031 489.398438 246.570312 Z M 489.398438 246.570312 " fill-opacity="1" fill-rule="nonzero"/></g><path fill="#ffebf5" d="M 439.09375 476.425781 C 439.09375 476.425781 433.371094 460.171875 448.277344 456.40625 C 463.183594 452.644531 463.632812 467.847656 463.632812 467.847656 C 463.632812 467.847656 474.789062 456.285156 484.5625 467.394531 C 492.238281 476.125 482.753906 486.507812 482.753906 486.507812 C 482.753906 486.507812 500.527344 489.21875 497.0625 503.667969 C 493.601562 518.117188 477.484375 512.246094 477.484375 512.246094 C 477.484375 512.246094 484.261719 525.339844 473.421875 530.609375 C 459.730469 537.261719 453.546875 521.277344 453.546875 521.277344 C 453.546875 521.277344 439.394531 530.007812 430.964844 521.425781 C 422.796875 513.117188 431.714844 503.214844 431.714844 503.214844 C 431.714844 503.214844 416.9375 494.390625 422.382812 482.597656 C 427.800781 470.855469 439.09375 476.425781 439.09375 476.425781 Z M 439.09375 476.425781 " fill-opacity="1" fill-rule="nonzero"/><path fill="#ff9c43" d="M 458.140625 486.398438 C 453.929688 486.398438 450.515625 489.8125 450.515625 494.019531 C 450.515625 498.226562 453.929688 501.636719 458.140625 501.636719 C 462.347656 501.636719 465.761719 498.226562 465.761719 494.019531 C 465.761719 489.8125 462.347656 486.398438 458.140625 486.398438 Z M 458.140625 499.492188 C 455.113281 499.492188 452.664062 497.042969 452.664062 494.019531 C 452.664062 490.996094 455.113281 488.542969 458.140625 488.542969 C 461.164062 488.542969 463.617188 490.996094 463.617188 494.019531 C 463.617188 497.042969 461.164062 499.492188 458.140625 499.492188 Z M 458.140625 499.492188 " fill-opacity="1" fill-rule="nonzero"/><path fill="#ffebf5" d="M 582.125 396.976562 C 582.125 396.976562 576.894531 382.117188 590.523438 378.675781 C 604.148438 375.234375 604.5625 389.132812 604.5625 389.132812 C 604.5625 389.132812 614.761719 378.5625 623.695312 388.71875 C 630.714844 396.699219 622.042969 406.195312 622.042969 406.195312 C 622.042969 406.195312 638.289062 408.671875 635.125 421.878906 C 631.957031 435.089844 617.222656 429.722656 617.222656 429.722656 C 617.222656 429.722656 623.417969 441.695312 613.507812 446.511719 C 600.992188 452.59375 595.339844 437.980469 595.339844 437.980469 C 595.339844 437.980469 582.402344 445.960938 574.695312 438.117188 C 567.226562 430.519531 575.382812 421.46875 575.382812 421.46875 C 575.382812 421.46875 561.871094 413.402344 566.847656 402.617188 C 571.804688 391.886719 582.125 396.976562 582.125 396.976562 Z M 582.125 396.976562 " fill-opacity="1" fill-rule="nonzero"/><path fill="#ff9c43" d="M 599.539062 406.09375 C 595.691406 406.09375 592.570312 409.214844 592.570312 413.058594 C 592.570312 416.90625 595.691406 420.027344 599.539062 420.027344 C 603.386719 420.027344 606.503906 416.90625 606.503906 413.058594 C 606.503906 409.214844 603.386719 406.09375 599.539062 406.09375 Z M 599.539062 418.066406 C 596.773438 418.066406 594.53125 415.824219 594.53125 413.058594 C 594.53125 410.296875 596.773438 408.054688 599.539062 408.054688 C 602.304688 408.054688 604.542969 410.296875 604.542969 413.058594 C 604.542969 415.824219 602.304688 418.066406 599.539062 418.066406 Z M 599.539062 418.066406 " fill-opacity="1" fill-rule="nonzero"/><path fill="#ffd2e6" d="M 544.273438 471.476562 C 544.273438 471.476562 538.96875 466.410156 543.898438 462.113281 C 548.828125 457.8125 551.929688 463.492188 551.929688 463.492188 C 551.929688 463.492188 553.933594 456.957031 559.785156 459.289062 C 564.378906 461.121094 562.785156 466.886719 562.785156 466.886719 C 562.785156 466.886719 570.050781 464.492188 571.519531 470.640625 C 572.992188 476.789062 565.746094 477.667969 565.746094 477.667969 C 565.746094 477.667969 570.84375 481.328125 567.746094 485.417969 C 563.835938 490.578125 558.40625 485.707031 558.40625 485.707031 C 558.40625 485.707031 554.722656 491.746094 549.867188 490.117188 C 545.167969 488.535156 546.640625 483.0625 546.640625 483.0625 C 546.640625 483.0625 539.332031 482.5625 539.125 477.039062 C 538.917969 471.539062 544.273438 471.476562 544.273438 471.476562 Z M 544.273438 471.476562 " fill-opacity="1" fill-rule="nonzero"/><path fill="#ff9c43" d="M 554.71875 469.839844 C 552.519531 469.839844 550.738281 471.621094 550.738281 473.820312 C 550.738281 476.019531 552.519531 477.800781 554.71875 477.800781 C 556.921875 477.800781 558.703125 476.019531 558.703125 473.820312 C 558.703125 471.621094 556.921875 469.839844 554.71875 469.839844 Z M 554.71875 476.683594 C 553.140625 476.683594 551.859375 475.402344 551.859375 473.820312 C 551.859375 472.242188 553.140625 470.960938 554.71875 470.960938 C 556.300781 470.960938 557.582031 472.242188 557.582031 473.820312 C 557.582031 475.402344 556.300781 476.683594 554.71875 476.683594 Z M 554.71875 476.683594 " fill-opacity="1" fill-rule="nonzero"/><path fill="#ffebf5" d="M 494.683594 324.105469 C 494.683594 324.105469 491.695312 315.609375 499.484375 313.640625 C 507.273438 311.675781 507.507812 319.621094 507.507812 319.621094 C 507.507812 319.621094 513.339844 313.578125 518.445312 319.382812 C 522.460938 323.945312 517.503906 329.375 517.503906 329.375 C 517.503906 329.375 526.789062 330.789062 524.980469 338.339844 C 523.171875 345.890625 514.75 342.824219 514.75 342.824219 C 514.75 342.824219 518.289062 349.667969 512.625 352.417969 C 505.46875 355.898438 502.238281 347.542969 502.238281 347.542969 C 502.238281 347.542969 494.84375 352.105469 490.4375 347.621094 C 486.167969 343.28125 490.828125 338.105469 490.828125 338.105469 C 490.828125 338.105469 483.105469 333.492188 485.953125 327.328125 C 488.785156 321.195312 494.683594 324.105469 494.683594 324.105469 Z M 494.683594 324.105469 " fill-opacity="1" fill-rule="nonzero"/><path fill="#ff9c43" d="M 504.636719 329.316406 C 502.4375 329.316406 500.65625 331.097656 500.65625 333.296875 C 500.65625 335.496094 502.4375 337.28125 504.636719 337.28125 C 506.835938 337.28125 508.621094 335.496094 508.621094 333.296875 C 508.621094 331.097656 506.835938 329.316406 504.636719 329.316406 Z M 504.636719 336.160156 C 503.058594 336.160156 501.777344 334.878906 501.777344 333.296875 C 501.777344 331.71875 503.058594 330.4375 504.636719 330.4375 C 506.21875 330.4375 507.5 331.71875 507.5 333.296875 C 507.5 334.878906 506.21875 336.160156 504.636719 336.160156 Z M 504.636719 336.160156 " fill-opacity="1" fill-rule="nonzero"/><path fill="#ffd2e6" d="M 479.238281 414.757812 C 479.238281 414.757812 471.757812 407.617188 478.710938 401.554688 C 485.660156 395.492188 490.035156 403.5 490.035156 403.5 C 490.035156 403.5 492.859375 394.285156 501.109375 397.574219 C 507.589844 400.15625 505.339844 408.289062 505.339844 408.289062 C 505.339844 408.289062 515.582031 404.910156 517.660156 413.578125 C 519.734375 422.25 509.519531 423.488281 509.519531 423.488281 C 509.519531 423.488281 516.703125 428.652344 512.335938 434.417969 C 506.820312 441.695312 499.167969 434.824219 499.167969 434.824219 C 499.167969 434.824219 493.96875 443.339844 487.125 441.042969 C 480.5 438.816406 482.578125 431.09375 482.578125 431.09375 C 482.578125 431.09375 472.269531 430.390625 471.976562 422.601562 C 471.683594 414.847656 479.238281 414.757812 479.238281 414.757812 Z M 479.238281 414.757812 " fill-opacity="1" fill-rule="nonzero"/><path fill="#ff9c43" d="M 493.96875 412.449219 C 490.867188 412.449219 488.351562 414.964844 488.351562 418.066406 C 488.351562 421.167969 490.867188 423.679688 493.96875 423.679688 C 497.070312 423.679688 499.585938 421.167969 499.585938 418.066406 C 499.585938 414.964844 497.070312 412.449219 493.96875 412.449219 Z M 493.96875 422.101562 C 491.738281 422.101562 489.933594 420.292969 489.933594 418.066406 C 489.933594 415.835938 491.738281 414.03125 493.96875 414.03125 C 496.199219 414.03125 498.003906 415.835938 498.003906 418.066406 C 498.003906 420.292969 496.195312 422.101562 493.96875 422.101562 Z M 493.96875 422.101562 " fill-opacity="1" fill-rule="nonzero"/><path fill="#ffd2e6" d="M 562.726562 315.128906 C 562.726562 315.128906 556.894531 309.558594 562.316406 304.832031 C 567.734375 300.101562 571.148438 306.347656 571.148438 306.347656 C 571.148438 306.347656 573.351562 299.160156 579.78125 301.726562 C 584.835938 303.742188 583.082031 310.082031 583.082031 310.082031 C 583.082031 310.082031 591.070312 307.449219 592.691406 314.210938 C 594.308594 320.972656 586.34375 321.9375 586.34375 321.9375 C 586.34375 321.9375 591.945312 325.964844 588.539062 330.460938 C 584.238281 336.136719 578.269531 330.777344 578.269531 330.777344 C 578.269531 330.777344 574.214844 337.421875 568.878906 335.628906 C 563.710938 333.890625 565.332031 327.871094 565.332031 327.871094 C 565.332031 327.871094 557.292969 327.320312 557.0625 321.246094 C 556.835938 315.199219 562.726562 315.128906 562.726562 315.128906 Z M 562.726562 315.128906 " fill-opacity="1" fill-rule="nonzero"/><path fill="#ff9c43" d="M 574.214844 313.328125 C 571.796875 313.328125 569.835938 315.289062 569.835938 317.707031 C 569.835938 320.125 571.796875 322.085938 574.214844 322.085938 C 576.632812 322.085938 578.59375 320.125 578.59375 317.707031 C 578.59375 315.289062 576.632812 313.328125 574.214844 313.328125 Z M 574.214844 320.855469 C 572.476562 320.855469 571.066406 319.445312 571.066406 317.707031 C 571.066406 315.96875 572.476562 314.5625 574.214844 314.5625 C 575.953125 314.5625 577.363281 315.96875 577.363281 317.707031 C 577.363281 319.445312 575.953125 320.855469 574.214844 320.855469 Z M 574.214844 320.855469 " fill-opacity="1" fill-rule="nonzero"/><path fill="#ffd2e6" d="M 624.972656 496.550781 C 624.972656 496.550781 616.761719 488.714844 624.390625 482.058594 C 632.019531 475.402344 636.824219 484.195312 636.824219 484.195312 C 636.824219 484.195312 639.921875 474.078125 648.976562 477.6875 C 656.089844 480.523438 653.621094 489.449219 653.621094 489.449219 C 653.621094 489.449219 664.863281 485.742188 667.144531 495.257812 C 669.421875 504.773438 658.207031 506.136719 658.207031 506.136719 C 658.207031 506.136719 666.09375 511.804688 661.300781 518.128906 C 655.246094 526.121094 646.847656 518.578125 646.847656 518.578125 C 646.847656 518.578125 641.140625 527.925781 633.628906 525.402344 C 626.355469 522.957031 628.636719 514.484375 628.636719 514.484375 C 628.636719 514.484375 617.324219 513.710938 617 505.160156 C 616.679688 496.648438 624.972656 496.550781 624.972656 496.550781 Z M 624.972656 496.550781 " fill-opacity="1" fill-rule="nonzero"/><path fill="#ff9c43" d="M 641.140625 494.019531 C 637.734375 494.019531 634.976562 496.777344 634.976562 500.183594 C 634.976562 503.585938 637.734375 506.34375 641.140625 506.34375 C 644.546875 506.34375 647.304688 503.585938 647.304688 500.183594 C 647.304688 496.777344 644.546875 494.019531 641.140625 494.019531 Z M 641.140625 504.609375 C 638.695312 504.609375 636.710938 502.628906 636.710938 500.179688 C 636.710938 497.734375 638.695312 495.753906 641.140625 495.753906 C 643.585938 495.753906 645.570312 497.734375 645.570312 500.179688 C 645.570312 502.628906 643.585938 504.609375 641.140625 504.609375 Z M 641.140625 504.609375 " fill-opacity="1" fill-rule="nonzero"/><path fill="#ad5981" d="M 464.011719 362.089844 L 517.753906 370.660156 C 517.753906 370.660156 518.921875 360.742188 525.675781 361.8125 C 532.429688 362.882812 538.207031 369.558594 538.207031 369.558594 L 547.035156 369.855469 C 547.035156 369.855469 551.523438 360.179688 559.003906 359.714844 C 566.480469 359.25 567.152344 367.855469 567.152344 367.855469 L 622.773438 358.101562 L 626.714844 365.867188 L 566.597656 377.839844 C 566.597656 377.839844 568.003906 385.097656 560.351562 385.382812 C 552.699219 385.671875 548.328125 377.933594 548.328125 377.933594 L 538.867188 378.003906 C 538.867188 378.003906 534.636719 388.226562 526.460938 387.890625 C 518.28125 387.558594 518.566406 379.6875 518.566406 379.6875 L 459.34375 369.691406 Z M 464.011719 362.089844 " fill-opacity="1" fill-rule="nonzero"/><path fill="#ffebf5" d="M 538.148438 369.53125 C 538.148438 369.53125 539.585938 367.976562 542.808594 368.125 C 546.027344 368.273438 547.105469 369.707031 547.105469 369.707031 L 548.328125 377.933594 C 548.328125 377.933594 547.261719 380.160156 543.78125 380.652344 C 541.617188 380.957031 538.703125 380.429688 538.511719 378.820312 C 538.375 377.699219 538.148438 369.53125 538.148438 369.53125 Z M 538.148438 369.53125 " fill-opacity="1" fill-rule="nonzero"/><path fill="#ffebf5" d="M 535.289062 527.203125 C 535.289062 527.203125 531.609375 516.738281 541.203125 514.316406 C 550.796875 511.894531 551.089844 521.679688 551.089844 521.679688 C 551.089844 521.679688 558.269531 514.238281 564.558594 521.390625 C 569.503906 527.007812 563.394531 533.695312 563.394531 533.695312 C 563.394531 533.695312 574.835938 535.4375 572.605469 544.738281 C 570.378906 554.039062 560.003906 550.261719 560.003906 550.261719 C 560.003906 550.261719 564.367188 558.691406 557.386719 562.082031 C 548.574219 566.363281 544.59375 556.074219 544.59375 556.074219 C 544.59375 556.074219 535.484375 561.695312 530.058594 556.171875 C 524.800781 550.824219 530.542969 544.449219 530.542969 544.449219 C 530.542969 544.449219 521.027344 538.769531 524.535156 531.175781 C 528.023438 523.617188 535.289062 527.203125 535.289062 527.203125 Z M 535.289062 527.203125 " fill-opacity="1" fill-rule="nonzero"/><path fill="#ff9c43" d="M 547.550781 533.625 C 544.839844 533.625 542.644531 535.820312 542.644531 538.527344 C 542.644531 541.238281 544.839844 543.433594 547.550781 543.433594 C 550.261719 543.433594 552.457031 541.238281 552.457031 538.527344 C 552.457031 535.820312 550.261719 533.625 547.550781 533.625 Z M 547.550781 542.050781 C 545.601562 542.050781 544.023438 540.476562 544.023438 538.527344 C 544.023438 536.582031 545.601562 535.003906 547.550781 535.003906 C 549.496094 535.003906 551.074219 536.582031 551.074219 538.527344 C 551.074219 540.476562 549.496094 542.050781 547.550781 542.050781 Z M 547.550781 542.050781 " fill-opacity="1" fill-rule="nonzero"/><g clip-path="url(#ae96259a25)"><path fill="#f7f8f9" d="M 115.214844 298.300781 L 145.679688 355.742188 L 167.082031 339.933594 L 186.558594 379.640625 L 313.820312 379.640625 L 334.644531 338.972656 L 352.015625 361.910156 L 387.476562 310.636719 L 305.929688 245.597656 L 303.296875 243.175781 L 199.121094 243.003906 L 195.074219 245.597656 Z M 115.214844 298.300781 " fill-opacity="1" fill-rule="nonzero"/></g><path fill="#d1d2d3" d="M 189.066406 383.113281 C 189.066406 383.113281 156.476562 409.328125 151.078125 471.777344 C 145.679688 534.230469 145.679688 545.601562 145.679688 545.601562 L 232.449219 545.601562 C 232.449219 545.601562 227.242188 509.75 248.066406 511.484375 C 268.890625 513.21875 264.265625 546.566406 264.265625 546.566406 L 351.609375 546.566406 C 351.609375 546.566406 359.132812 420.121094 309.382812 387.160156 Z M 189.066406 383.113281 " fill-opacity="1" fill-rule="nonzero"/><path fill="#77564a" d="M 328.847656 263.878906 L 316.183594 253.777344 L 289.714844 376.171875 L 211.902344 376.171875 L 181.875 254.308594 L 166.613281 264.378906 L 193.960938 376.171875 L 178.277344 376.171875 L 178.277344 394.097656 L 319.421875 394.210938 L 319.421875 376.171875 L 307.070312 376.171875 Z M 328.847656 263.878906 " fill-opacity="1" fill-rule="nonzero"/><path fill="#77564a" d="M 136.136719 545.601562 L 239.679688 545.601562 L 239.679688 566.996094 L 136.136719 566.996094 Z M 136.136719 545.601562 " fill-opacity="1" fill-rule="nonzero"/><path fill="#77564a" d="M 258.046875 545.601562 L 361.589844 545.601562 L 361.589844 566.996094 L 258.046875 566.996094 Z M 258.046875 545.601562 " fill-opacity="1" fill-rule="nonzero"/><path fill="#77564a" d="M 192.371094 247.394531 L 214.449219 306.808594 L 279.929688 306.808594 L 308.988281 248.035156 L 303.296875 243.175781 L 275.515625 298.472656 L 220.007812 298.714844 L 199.121094 243.003906 Z M 192.371094 247.394531 " fill-opacity="1" fill-rule="nonzero"/><path fill="#f7f8f9" d="M 203.773438 378.894531 C 199.757812 378.894531 196.496094 382.152344 196.496094 386.171875 C 196.496094 390.1875 199.757812 393.445312 203.773438 393.445312 C 207.792969 393.445312 211.050781 390.1875 211.050781 386.171875 C 211.054688 382.152344 207.792969 378.894531 203.773438 378.894531 Z M 207.445312 390.316406 L 204.242188 389.066406 L 201.394531 390.992188 L 201.59375 387.5625 L 198.878906 385.449219 L 202.207031 384.582031 L 203.375 381.347656 L 205.234375 384.242188 L 208.671875 384.355469 L 206.488281 387.011719 Z M 207.445312 390.316406 " fill-opacity="1" fill-rule="nonzero"/><path fill="#f7f8f9" d="M 296.035156 378.894531 C 292.015625 378.894531 288.757812 382.152344 288.757812 386.171875 C 288.757812 390.1875 292.015625 393.445312 296.035156 393.445312 C 300.054688 393.445312 303.3125 390.1875 303.3125 386.171875 C 303.3125 382.152344 300.054688 378.894531 296.035156 378.894531 Z M 299.707031 390.316406 L 296.503906 389.066406 L 293.65625 390.992188 L 293.855469 387.5625 L 291.140625 385.449219 L 294.46875 384.582031 L 295.636719 381.347656 L 297.492188 384.242188 L 300.929688 384.355469 L 298.75 387.011719 Z M 299.707031 390.316406 " fill-opacity="1" fill-rule="nonzero"/><path fill="#d1d2d3" d="M 248.847656 315.578125 C 245.890625 315.578125 243.492188 317.976562 243.492188 320.933594 C 243.492188 323.890625 245.890625 326.289062 248.847656 326.289062 C 251.808594 326.289062 254.203125 323.890625 254.203125 320.933594 C 254.203125 317.976562 251.808594 315.578125 248.847656 315.578125 Z M 251.550781 323.984375 L 249.191406 323.066406 L 247.097656 324.484375 L 247.242188 321.957031 L 245.246094 320.40625 L 247.695312 319.765625 L 248.554688 317.382812 L 249.921875 319.515625 L 252.453125 319.597656 L 250.847656 321.554688 Z M 251.550781 323.984375 " fill-opacity="1" fill-rule="nonzero"/><path fill="#d1d2d3" d="M 248.847656 335.640625 C 245.890625 335.640625 243.492188 338.039062 243.492188 340.996094 C 243.492188 343.953125 245.890625 346.351562 248.847656 346.351562 C 251.808594 346.351562 254.203125 343.953125 254.203125 340.996094 C 254.203125 338.039062 251.808594 335.640625 248.847656 335.640625 Z M 251.550781 344.046875 L 249.191406 343.125 L 247.097656 344.546875 L 247.242188 342.019531 L 245.246094 340.464844 L 247.695312 339.824219 L 248.554688 337.445312 L 249.921875 339.578125 L 252.453125 339.660156 L 250.847656 341.617188 Z M 251.550781 344.046875 " fill-opacity="1" fill-rule="nonzero"/><path fill="#d1d2d3" d="M 248.847656 354.820312 C 245.890625 354.820312 243.492188 357.21875 243.492188 360.175781 C 243.492188 363.132812 245.890625 365.53125 248.847656 365.53125 C 251.808594 365.53125 254.203125 363.132812 254.203125 360.175781 C 254.203125 357.21875 251.808594 354.820312 248.847656 354.820312 Z M 251.550781 363.226562 L 249.191406 362.304688 L 247.097656 363.726562 L 247.242188 361.199219 L 245.246094 359.644531 L 247.695312 359.003906 L 248.554688 356.625 L 249.921875 358.757812 L 252.453125 358.839844 L 250.847656 360.796875 Z M 251.550781 363.226562 " fill-opacity="1" fill-rule="nonzero"/><path fill="#f7f8f9" d="M 170.839844 451.683594 C 170.839844 451.683594 155.878906 500.960938 196.347656 501.453125 C 236.8125 501.941406 222.34375 449.722656 222.34375 449.722656 Z M 170.839844 451.683594 " fill-opacity="1" fill-rule="nonzero"/><path fill="#77564a" d="M 171.574219 446.625 L 169.949219 455.199219 L 185.09375 463.5625 C 188.863281 465.640625 193.351562 465.96875 197.382812 464.453125 L 223.433594 454.652344 L 222.097656 445.429688 Z M 171.574219 446.625 " fill-opacity="1" fill-rule="nonzero"/><path fill="#d1d2d3" d="M 192.371094 450.808594 C 189.828125 450.808594 187.765625 452.871094 187.765625 455.410156 C 187.765625 457.953125 189.828125 460.011719 192.371094 460.011719 C 194.914062 460.011719 196.972656 457.953125 196.972656 455.410156 C 196.972656 452.871094 194.914062 450.808594 192.371094 450.808594 Z M 194.691406 458.03125 L 192.664062 457.242188 L 190.863281 458.460938 L 190.992188 456.289062 L 189.273438 454.957031 L 191.378906 454.40625 L 192.117188 452.359375 L 193.292969 454.191406 L 195.46875 454.261719 L 194.089844 455.945312 Z M 194.691406 458.03125 " fill-opacity="1" fill-rule="nonzero"/></svg>