<svg xmlns="http://www.w3.org/2000/svg" xmlns:xlink="http://www.w3.org/1999/xlink" width="1080" zoomAndPan="magnify" viewBox="0 0 810 809.999993" height="1080" preserveAspectRatio="xMidYMid meet" version="1.0"><defs><clipPath id="165f83d739"><path d="M 627 196 L 704.976562 196 L 704.976562 605 L 627 605 Z M 627 196 " clip-rule="nonzero"/></clipPath><clipPath id="755da145d3"><path d="M 402 164.230469 L 663 164.230469 L 663 211 L 402 211 Z M 402 164.230469 " clip-rule="nonzero"/></clipPath><clipPath id="b8cab96530"><path d="M 646 196 L 704.976562 196 L 704.976562 562 L 646 562 Z M 646 196 " clip-rule="nonzero"/></clipPath><clipPath id="15b8d3d0e6"><path d="M 627 550 L 704.976562 550 L 704.976562 605 L 627 605 Z M 627 550 " clip-rule="nonzero"/></clipPath><clipPath id="75f4e94e9c"><path d="M 360 379 L 543 379 L 543 645.730469 L 360 645.730469 Z M 360 379 " clip-rule="nonzero"/></clipPath><clipPath id="3cdd1344ee"><path d="M 312 390 L 361 390 L 361 645.730469 L 312 645.730469 Z M 312 390 " clip-rule="nonzero"/></clipPath><clipPath id="71b5a5f676"><path d="M 312 611 L 361 611 L 361 645.730469 L 312 645.730469 Z M 312 611 " clip-rule="nonzero"/></clipPath></defs><path fill="#bd1c2e" d="M 627.398438 210.652344 L 402.6875 179.117188 L 335.667969 514.199219 L 627.398438 604.867188 L 627.398438 210.652344 " fill-opacity="1" fill-rule="nonzero"/><g clip-path="url(#165f83d739)"><path fill="#901824" d="M 704.265625 561.503906 L 662.871094 196.855469 L 627.398438 210.652344 L 627.398438 604.867188 L 704.265625 561.503906 " fill-opacity="1" fill-rule="nonzero"/></g><g clip-path="url(#755da145d3)"><path fill="#74141d" d="M 662.871094 196.855469 L 438.664062 164.242188 L 402.6875 179.117188 L 627.398438 210.652344 L 662.871094 196.855469 " fill-opacity="1" fill-rule="nonzero"/></g><g clip-path="url(#b8cab96530)"><path fill="#7c1520" d="M 704.265625 561.503906 L 654.332031 550.332031 L 646.609375 203.183594 L 662.871094 196.855469 L 704.265625 561.503906 " fill-opacity="1" fill-rule="nonzero"/></g><g clip-path="url(#15b8d3d0e6)"><path fill="#bd1c2e" d="M 654.332031 550.332031 L 627.398438 604.867188 L 704.265625 561.503906 Z M 654.332031 550.332031 " fill-opacity="1" fill-rule="nonzero"/></g><path fill="#74141d" d="M 562.488281 261.085938 C 562.488281 265.527344 566.085938 269.125 570.535156 269.125 C 574.984375 269.125 578.574219 265.527344 578.574219 261.085938 C 578.574219 256.636719 574.984375 253.039062 570.535156 253.039062 C 566.085938 253.039062 562.488281 256.636719 562.488281 261.085938 " fill-opacity="1" fill-rule="nonzero"/><path fill="#74141d" d="M 419.597656 237.761719 C 419.597656 242.203125 423.1875 245.804688 427.628906 245.804688 C 432.070312 245.804688 435.675781 242.203125 435.675781 237.761719 C 435.675781 233.3125 432.070312 229.710938 427.628906 229.710938 C 423.1875 229.710938 419.597656 233.3125 419.597656 237.761719 " fill-opacity="1" fill-rule="nonzero"/><path fill="#1b2a4a" d="M 422.007812 260.464844 C 421.691406 252.828125 422.074219 244.894531 423.140625 236.875 C 423.183594 236.636719 423.300781 236.425781 423.492188 236.285156 C 423.683594 236.148438 423.921875 236.089844 424.164062 236.128906 L 431.078125 237.261719 C 431.550781 237.335938 431.867188 237.796875 431.796875 238.269531 C 430.503906 246.414062 430.007812 254.546875 430.34375 262.46875 C 431.359375 287.019531 439.421875 309.808594 453.054688 326.613281 C 466.613281 343.359375 484.058594 352.15625 502.195312 351.40625 C 503.839844 351.339844 505.496094 351.1875 507.136719 350.957031 L 507.144531 350.957031 C 541.472656 346.179688 566.988281 307.335938 566.449219 260.589844 C 566.449219 260.335938 566.566406 260.082031 566.757812 259.914062 C 566.949219 259.746094 567.214844 259.65625 567.472656 259.707031 L 573.414062 260.683594 C 573.84375 260.757812 574.167969 261.136719 574.148438 261.566406 C 573.546875 311.785156 545.039062 353.554688 507.847656 358.734375 C 506.023438 358.992188 504.136719 359.15625 502.285156 359.226562 C 481.921875 360.078125 462.339844 350.230469 447.183594 331.515625 C 432.070312 312.878906 423.128906 287.652344 422.007812 260.464844 " fill-opacity="1" fill-rule="nonzero"/><path fill="#f68b41" d="M 170.621094 304.402344 L 360.402344 277.765625 L 417.007812 560.777344 L 170.621094 637.363281 L 170.621094 304.402344 " fill-opacity="1" fill-rule="nonzero"/><path fill="#c17236" d="M 105.691406 600.734375 L 140.648438 292.746094 L 170.621094 304.402344 L 170.621094 637.363281 L 105.691406 600.734375 " fill-opacity="1" fill-rule="nonzero"/><path fill="#704322" d="M 140.648438 292.746094 L 330.019531 265.199219 L 360.402344 277.765625 L 170.621094 304.402344 L 140.648438 292.746094 " fill-opacity="1" fill-rule="nonzero"/><path fill="#92592b" d="M 105.691406 600.734375 L 147.863281 591.296875 L 154.386719 298.089844 L 140.648438 292.746094 L 105.691406 600.734375 " fill-opacity="1" fill-rule="nonzero"/><path fill="#704322" d="M 147.863281 591.296875 L 170.621094 637.363281 L 105.691406 600.734375 Z M 147.863281 591.296875 " fill-opacity="1" fill-rule="nonzero"/><path fill="#704322" d="M 225.433594 346.996094 C 225.433594 350.746094 222.398438 353.789062 218.636719 353.789062 C 214.878906 353.789062 211.847656 350.746094 211.847656 346.996094 C 211.847656 343.238281 214.878906 340.195312 218.636719 340.195312 C 222.398438 340.195312 225.433594 343.238281 225.433594 346.996094 " fill-opacity="1" fill-rule="nonzero"/><path fill="#704322" d="M 346.128906 327.296875 C 346.128906 331.046875 343.082031 334.09375 339.332031 334.09375 C 335.589844 334.09375 332.539062 331.046875 332.539062 327.296875 C 332.539062 323.542969 335.589844 320.496094 339.332031 320.496094 C 343.082031 320.496094 346.128906 323.542969 346.128906 327.296875 " fill-opacity="1" fill-rule="nonzero"/><path fill="#1b2a4a" d="M 344.085938 346.476562 C 344.355469 340.023438 344.03125 333.320312 343.121094 326.546875 C 343.097656 326.347656 342.992188 326.171875 342.832031 326.050781 C 342.675781 325.933594 342.46875 325.882812 342.273438 325.914062 L 336.425781 326.875 C 336.023438 326.933594 335.753906 327.324219 335.8125 327.726562 C 336.914062 334.605469 337.328125 341.472656 337.050781 348.164062 C 336.183594 368.902344 329.382812 388.152344 317.867188 402.339844 C 306.421875 416.484375 291.679688 423.917969 276.363281 423.277344 C 274.964844 423.226562 273.574219 423.101562 272.191406 422.902344 L 272.183594 422.902344 C 243.1875 418.863281 221.636719 386.058594 222.089844 346.582031 C 222.089844 346.363281 221.992188 346.152344 221.820312 346.007812 C 221.660156 345.871094 221.445312 345.789062 221.226562 345.828125 L 216.207031 346.660156 C 215.835938 346.71875 215.578125 347.042969 215.585938 347.40625 C 216.09375 389.820312 240.175781 425.097656 271.585938 429.472656 C 273.125 429.683594 274.722656 429.828125 276.277344 429.886719 C 293.484375 430.605469 310.019531 422.289062 322.816406 406.480469 C 335.589844 390.742188 343.136719 369.429688 344.085938 346.476562 " fill-opacity="1" fill-rule="nonzero"/><g clip-path="url(#75f4e94e9c)"><path fill="#46babd" d="M 360.382812 399.074219 L 500.972656 379.339844 L 542.910156 588.992188 L 360.382812 645.71875 L 360.382812 399.074219 " fill-opacity="1" fill-rule="nonzero"/></g><g clip-path="url(#3cdd1344ee)"><path fill="#40a3a9" d="M 312.285156 618.59375 L 338.1875 390.4375 L 360.382812 399.074219 L 360.382812 645.71875 L 312.285156 618.59375 " fill-opacity="1" fill-rule="nonzero"/></g><path fill="#2b6a70" d="M 338.1875 390.4375 L 478.460938 370.035156 L 500.972656 379.339844 L 360.382812 399.074219 L 338.1875 390.4375 " fill-opacity="1" fill-rule="nonzero"/><path fill="#36868d" d="M 312.285156 618.59375 L 343.53125 611.601562 L 348.355469 394.398438 L 338.1875 390.4375 L 312.285156 618.59375 " fill-opacity="1" fill-rule="nonzero"/><g clip-path="url(#71b5a5f676)"><path fill="#2b6a70" d="M 343.53125 611.601562 L 360.382812 645.71875 L 312.285156 618.59375 Z M 343.53125 611.601562 " fill-opacity="1" fill-rule="nonzero"/></g><path fill="#2b6a70" d="M 400.984375 430.625 C 400.984375 433.40625 398.738281 435.660156 395.957031 435.660156 C 393.175781 435.660156 390.921875 433.40625 390.921875 430.625 C 390.921875 427.84375 393.175781 425.589844 395.957031 425.589844 C 398.738281 425.589844 400.984375 427.84375 400.984375 430.625 " fill-opacity="1" fill-rule="nonzero"/><path fill="#2b6a70" d="M 490.398438 416.035156 C 490.398438 418.816406 488.144531 421.070312 485.367188 421.070312 C 482.585938 421.070312 480.332031 418.816406 480.332031 416.035156 C 480.332031 413.253906 482.585938 410.996094 485.367188 410.996094 C 488.144531 410.996094 490.398438 413.253906 490.398438 416.035156 " fill-opacity="1" fill-rule="nonzero"/><path fill="#1b2a4a" d="M 488.886719 430.238281 C 489.078125 425.460938 488.847656 420.496094 488.175781 415.476562 L 487.953125 415.113281 L 487.535156 415.015625 L 483.214844 415.71875 C 482.917969 415.765625 482.71875 416.054688 482.757812 416.351562 C 483.570312 421.445312 483.878906 426.539062 483.667969 431.488281 C 483.027344 446.851562 477.992188 461.113281 469.460938 471.625 C 460.984375 482.101562 450.0625 487.605469 438.722656 487.136719 C 437.679688 487.09375 436.644531 487 435.625 486.859375 L 435.617188 486.859375 C 414.140625 483.871094 398.179688 459.566406 398.515625 430.316406 C 398.515625 430.160156 398.441406 430 398.316406 429.894531 C 398.199219 429.789062 398.03125 429.730469 397.875 429.761719 L 394.15625 430.375 C 393.882812 430.421875 393.683594 430.660156 393.695312 430.929688 C 394.074219 462.351562 411.914062 488.484375 435.183594 491.726562 C 436.324219 491.882812 437.503906 491.988281 438.65625 492.035156 C 451.394531 492.5625 463.652344 486.40625 473.128906 474.695312 C 482.585938 463.03125 488.183594 447.246094 488.886719 430.238281 " fill-opacity="1" fill-rule="nonzero"/></svg>