<?xml version="1.0" encoding="UTF-8"?>
<svg version="1.1" xmlns="http://www.w3.org/2000/svg" width="1080" height="1080">
<path d="M0 0 C0.85894729 0.12361802 1.71789459 0.24723603 2.60287058 0.37460005 C5.45442268 0.78674041 8.30438243 1.20897812 11.15444946 1.6312561 C13.21296458 1.93090852 15.27157116 2.22993321 17.33026123 2.52838135 C22.92178193 3.34081044 28.51197746 4.16204699 34.10197783 4.9848628 C40.02714036 5.85546757 45.95348568 6.71794718 51.87969971 7.58135986 C63.17481185 9.22824876 74.46883831 10.88246528 85.76249945 12.53927195 C98.3424889 14.38442044 110.92367617 16.22133156 123.50497389 18.05753469 C146.21664178 21.37247199 168.92695383 24.69659013 191.63628769 28.02747726 C203.70392499 29.79745422 215.77189187 31.5651372 227.84045219 33.32880974 C233.59126466 34.16926608 239.34187474 35.01110211 245.0923959 35.85354912 C248.74489237 36.38859177 252.397475 36.92302623 256.05030441 37.45579147 C259.91118704 38.01893117 263.77161253 38.58516097 267.63198853 39.15176392 C269.29031897 39.39285322 269.29031897 39.39285322 270.98215103 39.63881302 C271.98128399 39.78598141 272.98041695 39.9331498 274.00982666 40.08477783 C274.86624063 40.21006174 275.72265461 40.33534565 276.60502052 40.46442604 C278.74227155 40.82531039 280.80965199 41.293929 282.90298462 41.85244751 C288.86933564 90.36989321 294.31561799 138.94881261 299.83999595 187.51804236 C300.24401246 191.06988852 300.64811097 194.62172534 301.05223775 198.17355895 C303.57447216 220.34130995 306.09576111 242.50916824 308.61400509 264.67737293 C309.19119572 269.75827475 309.76839566 274.83917551 310.34561157 279.92007446 C310.489021 281.18243342 310.63243042 282.44479237 310.78018559 283.74540462 C313.11946834 304.33532043 315.4651812 324.92449861 317.81341546 345.51339523 C320.23420091 366.73937151 322.64919012 387.96600097 325.05848032 409.19328517 C326.40759179 421.07844504 327.75927211 432.96330051 329.11750603 444.84742165 C330.26940411 454.92628067 331.4161046 465.00571341 332.55588495 475.08595029 C333.1371797 480.22547626 333.72100936 485.36468159 334.31154442 490.50315475 C334.85142596 495.20137856 335.38422119 499.9003489 335.91128499 504.6000274 C336.10353247 506.3028217 336.29841838 508.00532053 336.49615406 509.70748625 C336.76374595 512.01430928 337.0218462 514.32200244 337.27754116 516.63016987 C337.42351881 517.9134811 337.56949647 519.19679232 337.71989769 520.51899177 C337.8884068 523.5870298 337.78271351 525.92074643 336.90298462 528.85244751 C335.25845337 530.29946899 335.25845337 530.29946899 333.09048462 531.47354126 C332.27539429 531.9264856 331.46030396 532.37942993 330.62051392 532.84609985 C329.72372925 533.32256958 328.82694458 533.79903931 327.90298462 534.28994751 C326.96817261 534.80508911 326.0333606 535.32023071 325.07022095 535.85098267 C323.05929291 536.9585272 321.04457203 538.05920731 319.02651978 539.15371704 C313.8556342 541.96589633 308.72523563 544.84999083 303.59048462 547.72744751 C302.54384644 548.31123169 301.49720825 548.89501587 300.41885376 549.49649048 C293.17217251 553.54690633 285.99493405 557.70417354 278.84048462 561.91494751 C267.02717792 568.85854993 255.05118168 575.51114078 242.90298462 581.85244751 C242.40041138 582.25470551 241.89783813 582.6569635 241.3800354 583.07141113 C237.89481244 585.50151289 235.68935579 585.96961482 231.43887329 585.33630371 C227.02123821 584.23695087 222.7186053 582.78492643 218.40298462 581.34463501 C216.76555048 580.8221773 215.12726463 580.30238236 213.4881897 579.78509521 C209.15830252 578.41088572 204.84061535 577.00166928 200.52462769 575.58450317 C196.25489927 574.18866292 191.9752117 572.8242003 187.69595337 571.45791626 C180.99780539 569.31532014 174.3041479 567.15929625 167.61392212 564.99209595 C159.02141711 562.21063095 150.42683419 559.4362467 141.81549072 556.71356583 C140.43132608 556.27471717 139.04798017 555.83327652 137.66552734 555.38906479 C135.77418658 554.78170263 133.87966959 554.18425798 131.98501587 553.58731079 C130.92516479 553.25031158 129.86531372 552.91331238 128.77334595 552.56610107 C125.58723029 551.65137858 125.58723029 551.65137858 120.90298462 551.85244751 C121.23298462 556.14244751 121.56298462 560.43244751 121.90298462 564.85244751 C103.64790104 571.02168781 85.32747049 576.89464401 66.90298462 582.53994751 C62.21513172 583.980207 57.5277902 585.42212668 52.84048462 586.86416626 C51.71210678 587.21098953 50.58372894 587.55781281 49.42115784 587.91514587 C42.25351658 590.1206018 35.09744329 592.35966694 27.94926453 594.62728882 C18.71006786 597.55460053 9.44640917 600.40264891 0.18490601 603.25842285 C-22.10857504 610.134433 -44.39493928 617.03362786 -66.67634678 623.94865513 C-70.86077296 625.24728825 -75.04540653 626.54524261 -79.23059082 627.84143066 C-83.19662928 629.06978997 -87.16205007 630.30012312 -91.12701225 631.5319519 C-92.59723735 631.98835952 -94.06767817 632.44407288 -95.53834724 632.89904785 C-97.56256845 633.52541153 -99.585984 634.15431424 -101.60922241 634.78384399 C-102.74683014 635.13671982 -103.88443787 635.48959564 -105.05651855 635.85316467 C-107.00679345 636.49413763 -108.93989701 637.19162343 -110.84439087 637.95799255 C-115.91853234 639.97279394 -121.61145477 639.74632015 -126.70932007 637.91299438 C-129.37552233 636.58451316 -131.91835625 635.13600594 -134.47201538 633.60244751 C-135.41391724 633.06249146 -136.35581909 632.5225354 -137.32626343 631.96621704 C-139.28825874 630.83886646 -141.24455975 629.70155014 -143.19515991 628.55459595 C-145.98001457 626.92107696 -148.78133665 625.32190667 -151.59310913 623.73526001 C-155.93985535 621.28065947 -160.26850074 618.79654578 -164.58969116 616.29727173 C-167.10550108 614.8475577 -169.62983637 613.41362474 -172.15560913 611.98135376 C-173.71970131 611.0847242 -175.28351749 610.18761296 -176.84701538 609.28994751 C-177.56864868 608.88437622 -178.29028198 608.47880493 -179.03378296 608.0609436 C-183.98318837 605.19392854 -183.98318837 605.19392854 -185.09701538 601.85244751 C-184.97841304 599.91223488 -184.78080963 597.97642266 -184.53842163 596.04776001 C-184.39984741 594.9069397 -184.26127319 593.76611938 -184.11849976 592.59072876 C-183.96703491 591.39834595 -183.81557007 590.20596313 -183.65951538 588.97744751 C-183.36656952 586.62620518 -183.0761107 584.27465133 -182.78842163 581.92276001 C-182.65637329 580.87878052 -182.52432495 579.83480103 -182.38827515 578.75918579 C-182.12133887 576.09519303 -182.0760197 573.52634358 -182.09701538 570.85244751 C-189.20292472 572.1174566 -195.98106592 573.92315906 -202.84701538 576.13369751 C-203.87268616 576.45893906 -204.89835693 576.7841806 -205.95510864 577.11927795 C-208.17349691 577.8232362 -210.39114635 578.52952616 -212.60812378 579.23791504 C-218.66859613 581.17394344 -224.73485076 583.09173219 -230.80014038 585.01260376 C-232.07466457 585.41675716 -233.34918032 585.82093718 -234.62368774 586.22514343 C-248.01397357 590.4697384 -261.42887457 594.63437874 -274.84701538 598.78994751 C-277.24025272 599.53153897 -279.63348187 600.27315688 -282.02670288 601.01480103 C-285.65191902 602.13810549 -289.2771799 603.26126478 -292.90255737 604.38404846 C-301.35747385 607.00266889 -309.81104976 609.62557607 -318.26380157 612.25117302 C-320.28588689 612.87927011 -322.30799422 613.5072963 -324.33010864 614.13529968 C-332.1025237 616.54917887 -332.1025237 616.54917887 -339.87472534 618.96374512 C-343.40701716 620.06120606 -346.93949602 621.158063 -350.47201538 622.25479126 C-351.50481628 622.57584839 -352.53761719 622.89690552 -353.60171509 623.22769165 C-355.52312725 623.82400976 -357.44566042 624.41673192 -359.36947632 625.00524902 C-361.20712583 625.57603971 -363.0385819 626.1671166 -364.86361694 626.77703857 C-365.73727905 627.06175018 -366.61094116 627.34646179 -367.51107788 627.63980103 C-368.27629761 627.89737686 -369.04151733 628.1549527 -369.82992554 628.42033386 C-374.30443058 629.273187 -377.79497251 627.68787243 -381.65951538 625.55166626 C-382.52745728 625.0755188 -383.39539917 624.59937134 -384.28964233 624.10879517 C-385.21607544 623.59107544 -386.14250854 623.07335571 -387.09701538 622.53994751 C-388.07178833 622.00160278 -389.04656128 621.46325806 -390.0508728 620.90859985 C-397.39576624 616.83830721 -404.69517328 612.68866538 -411.97445679 608.50234985 C-417.86224486 605.11766766 -423.77796748 601.78699994 -429.71102905 598.48233032 C-434.84757321 595.61967893 -439.97367561 592.73864878 -445.09701538 589.85244751 C-445.9378064 589.38081177 -446.77859741 588.90917603 -447.64486694 588.42324829 C-449.8041164 587.20545327 -451.95237751 585.97074277 -454.09701538 584.72744751 C-454.70786987 584.38560425 -455.31872437 584.04376099 -455.9480896 583.69155884 C-459.91408427 581.3538886 -459.91408427 581.3538886 -460.77802372 578.98570347 C-461.11002885 576.76542 -461.02924344 575.06927256 -460.70088196 572.85316467 C-460.52910226 571.63236883 -460.52910226 571.63236883 -460.35385227 570.38691044 C-460.22003116 569.47762507 -460.08621004 568.56833971 -459.94833374 567.63150024 C-458.4637431 556.90321473 -457.17873481 546.1607649 -455.9624939 535.39956665 C-455.86621378 534.5502339 -455.76993366 533.70090116 -455.67073596 532.82583106 C-455.04668291 527.32062353 -454.42559552 521.8150849 -453.80535197 516.30944705 C-453.23986366 511.29391559 -452.67203728 506.27864877 -452.10447693 501.26335144 C-451.12865775 492.63793056 -450.15416715 484.01236048 -449.18057251 475.38668823 C-447.64967683 461.82406712 -446.11556238 448.26181106 -444.5809021 434.69961548 C-444.05915948 430.08853309 -443.53743528 425.47744862 -443.01571655 420.86636353 C-442.88589032 419.7189433 -442.75606409 418.57152307 -442.62230372 417.38933253 C-441.42964643 406.84810725 -440.23763089 396.30680944 -439.04565811 385.76550674 C-434.60599703 346.50309144 -430.16252145 307.24110938 -425.70745182 267.98043919 C-424.49818236 257.32325028 -423.2902791 246.66590849 -422.08428091 236.00834888 C-421.26415581 228.76175231 -420.44249963 221.51533043 -419.61959273 214.26904923 C-419.14749798 210.1115146 -418.67609047 205.95390509 -418.20652962 201.79608345 C-417.77887364 198.00946933 -417.34926022 194.2230827 -416.91806114 190.43687046 C-416.68894552 188.42051915 -416.46194179 186.40392822 -416.23500919 184.38733006 C-416.09864268 183.19339602 -415.96227617 181.99946199 -415.82177734 180.76934814 C-415.70508509 179.73973276 -415.58839283 178.71011738 -415.46816444 177.64930153 C-415.11903503 175.01838013 -414.65087937 172.44719441 -414.09701538 169.85244751 C-374.48917328 163.27920192 -334.73795534 157.6003096 -295.01574993 151.76950836 C-280.75703557 149.67610666 -266.50060695 147.56826709 -252.24671811 145.44225168 C-242.15481363 143.93827985 -232.06053657 142.45097107 -221.96437007 140.97588491 C-215.95784444 140.09782034 -209.95262353 139.21239545 -203.94989586 138.30870056 C-198.32570164 137.4622949 -192.69885642 136.63655599 -187.06931496 135.82650375 C-185.00989821 135.5265115 -182.95154875 135.21908081 -180.89445496 134.90355301 C-178.07983561 134.47299177 -175.26254478 134.06976792 -172.44300842 133.67288208 C-171.63727392 133.54304381 -170.83153942 133.41320554 -170.00138873 133.27943277 C-163.77811794 132.44863546 -158.94564565 133.71187638 -153.09701538 135.85244751 C-152.09434609 136.20321468 -152.09434609 136.20321468 -151.07142085 136.56106806 C-147.09566841 137.98337964 -143.17763142 139.55777077 -139.26278687 141.13858032 C-137.85342429 141.70068941 -136.43852665 142.24910297 -135.01864624 142.78408813 C-132.93816724 143.56937283 -130.87924836 144.39691275 -128.81967163 145.23526001 C-127.60029907 145.71366333 -126.38092651 146.19206665 -125.12460327 146.68496704 C-120.8022719 149.77936733 -120.2202038 152.79664833 -119.09701538 157.85244751 C-118.75349281 159.38977539 -118.75349281 159.38977539 -118.4030304 160.9581604 C-117.64228657 164.56013684 -116.94036935 168.1700575 -116.24935913 171.78604126 C-115.99013355 173.11374607 -115.7301561 174.44130427 -115.46946716 175.76872253 C-114.51173241 180.65280747 -113.56547558 185.53909421 -112.6222229 190.42599487 C-111.8204537 194.5794514 -111.01273705 198.73165171 -110.19613838 202.88221931 C-109.81680607 204.82322824 -109.44646632 206.76598758 -109.07624817 208.70875549 C-108.84583328 209.88080032 -108.6154184 211.05284515 -108.37802124 212.26040649 C-108.17833237 213.29471298 -107.97864349 214.32901947 -107.77290344 215.39466858 C-107.27242448 218.00657348 -107.27242448 218.00657348 -105.09701538 219.85244751 C-102.05417457 204.80001507 -99.01290865 189.7472648 -95.97271347 174.69429779 C-95.47398904 172.22501745 -94.97523286 169.75574352 -94.47644424 167.28647614 C-88.84803096 139.42264564 -83.22809602 111.55721174 -77.66342163 83.68057251 C-77.4528437 82.62593182 -77.24226578 81.57129112 -77.0253067 80.48469162 C-75.02545026 70.46824094 -73.02747334 60.45142116 -71.03525257 50.43344879 C-70.31276679 46.80206499 -69.58883077 43.1709713 -68.86457634 39.53993988 C-68.53117875 37.8664639 -68.19848597 36.19284733 -67.86654854 34.51908112 C-67.41733999 32.25404293 -66.96582809 29.9894757 -66.51376343 27.7250061 C-66.13697701 25.82988785 -66.13697701 25.82988785 -65.75257874 23.89648438 C-65.09701538 20.85244751 -65.09701538 20.85244751 -64.09701538 17.85244751 C-62.22128296 16.73672485 -62.22128296 16.73672485 -59.74154663 15.68838501 C-58.81946411 15.29248169 -57.89738159 14.89657837 -56.94735718 14.48867798 C-55.94486938 14.07247192 -54.94238159 13.65626587 -53.90951538 13.22744751 C-52.88317993 12.79448364 -51.85684448 12.36151978 -50.79940796 11.91543579 C-48.64693046 11.0097009 -46.49250319 10.10858742 -44.33627319 9.21182251 C-41.21892891 7.90360929 -38.12180365 6.55605872 -35.02670288 5.19619751 C-33.11304545 4.37233931 -31.19899816 3.54938595 -29.28451538 2.72744751 C-28.40964478 2.33734497 -27.53477417 1.94724243 -26.63339233 1.5453186 C-25.36821777 1.01285522 -25.36821777 1.01285522 -24.07748413 0.46963501 C-23.35456177 0.15623169 -22.6316394 -0.15717163 -21.8868103 -0.48007202 C-14.75414176 -2.1866193 -7.16780018 -1.08081556 0 0 Z " fill="#F58A40" transform="translate(601.0970153808594,221.14755249023438)"/>
<path d="M0 0 C0.85894729 0.12361802 1.71789459 0.24723603 2.60287058 0.37460005 C5.45442268 0.78674041 8.30438243 1.20897812 11.15444946 1.6312561 C13.21296458 1.93090852 15.27157116 2.22993321 17.33026123 2.52838135 C22.92178193 3.34081044 28.51197746 4.16204699 34.10197783 4.9848628 C40.02714036 5.85546757 45.95348568 6.71794718 51.87969971 7.58135986 C63.17481185 9.22824876 74.46883831 10.88246528 85.76249945 12.53927195 C98.3424889 14.38442044 110.92367617 16.22133156 123.50497389 18.05753469 C146.21664178 21.37247199 168.92695383 24.69659013 191.63628769 28.02747726 C203.70392499 29.79745422 215.77189187 31.5651372 227.84045219 33.32880974 C233.59126466 34.16926608 239.34187474 35.01110211 245.0923959 35.85354912 C248.74489237 36.38859177 252.397475 36.92302623 256.05030441 37.45579147 C259.91118704 38.01893117 263.77161253 38.58516097 267.63198853 39.15176392 C269.29031897 39.39285322 269.29031897 39.39285322 270.98215103 39.63881302 C271.98128399 39.78598141 272.98041695 39.9331498 274.00982666 40.08477783 C274.86624063 40.21006174 275.72265461 40.33534565 276.60502052 40.46442604 C278.74227155 40.82531039 280.80965199 41.293929 282.90298462 41.85244751 C288.86933564 90.36989321 294.31561799 138.94881261 299.83999595 187.51804236 C300.24401246 191.06988852 300.64811097 194.62172534 301.05223775 198.17355895 C303.57447216 220.34130995 306.09576111 242.50916824 308.61400509 264.67737293 C309.19119572 269.75827475 309.76839566 274.83917551 310.34561157 279.92007446 C310.56072571 281.81361289 310.56072571 281.81361289 310.78018559 283.74540462 C313.11946834 304.33532043 315.4651812 324.92449861 317.81341546 345.51339523 C320.23420091 366.73937151 322.64919012 387.96600097 325.05848032 409.19328517 C326.40759179 421.07844504 327.75927211 432.96330051 329.11750603 444.84742165 C330.26940411 454.92628067 331.4161046 465.00571341 332.55588495 475.08595029 C333.1371797 480.22547626 333.72100936 485.36468159 334.31154442 490.50315475 C334.85142596 495.20137856 335.38422119 499.9003489 335.91128499 504.6000274 C336.10353247 506.3028217 336.29841838 508.00532053 336.49615406 509.70748625 C336.76374595 512.01430928 337.0218462 514.32200244 337.27754116 516.63016987 C337.42351881 517.9134811 337.56949647 519.19679232 337.71989769 520.51899177 C337.8884068 523.5870298 337.78271351 525.92074643 336.90298462 528.85244751 C335.25845337 530.29946899 335.25845337 530.29946899 333.09048462 531.47354126 C332.27539429 531.9264856 331.46030396 532.37942993 330.62051392 532.84609985 C329.72372925 533.32256958 328.82694458 533.79903931 327.90298462 534.28994751 C326.96817261 534.80508911 326.0333606 535.32023071 325.07022095 535.85098267 C323.05929291 536.9585272 321.04457203 538.05920731 319.02651978 539.15371704 C313.8556342 541.96589633 308.72523563 544.84999083 303.59048462 547.72744751 C302.54384644 548.31123169 301.49720825 548.89501587 300.41885376 549.49649048 C293.17217251 553.54690633 285.99493405 557.70417354 278.84048462 561.91494751 C267.02717792 568.85854993 255.05118168 575.51114078 242.90298462 581.85244751 C242.40041138 582.25470551 241.89783813 582.6569635 241.3800354 583.07141113 C237.89481244 585.50151289 235.68935579 585.96961482 231.43887329 585.33630371 C227.02123821 584.23695087 222.7186053 582.78492643 218.40298462 581.34463501 C216.76555048 580.8221773 215.12726463 580.30238236 213.4881897 579.78509521 C209.15830252 578.41088572 204.84061535 577.00166928 200.52462769 575.58450317 C196.25489941 574.18866297 191.97521668 572.82418436 187.69595337 571.45791626 C180.99616041 569.31504069 174.30141116 567.15713561 167.61001587 564.9881897 C159.04126267 562.21293556 150.46316486 559.46860869 141.87042236 556.76849747 C140.49346382 556.33533491 139.11696439 555.90070974 137.7409668 555.46450424 C135.85613094 554.8673261 133.96944083 554.27600998 132.08267212 553.68496704 C131.02805786 553.35320465 129.9734436 553.02144226 128.88687134 552.67962646 C125.9032197 551.85251268 122.96406558 551.30388261 119.90298462 550.85244751 C114.16294882 524.86535299 109.02095329 498.75466722 103.80395365 472.65887523 C102.63616621 466.81871985 101.46694163 460.97885222 100.29788218 455.13895137 C97.84805741 442.90061257 95.40069783 430.66178179 92.9541273 418.42279208 C90.71646619 407.22928522 88.47561552 396.03641958 86.23331739 384.84384077 C83.92119142 373.30256102 81.61119235 361.76085747 79.3035115 350.21868807 C78.01156665 343.7571499 76.71876369 337.29578641 75.42380142 330.83485222 C74.2113365 324.78504327 73.00163007 318.73468936 71.79409218 312.68389511 C71.35003101 310.461213 70.90497769 308.23872886 70.45887947 306.0164547 C69.85223226 302.99359486 69.24911102 299.97005286 68.64691162 296.94630432 C68.46812977 296.05976935 68.28934792 295.17323438 68.10514843 294.25983471 C67.86511934 293.0488794 67.86511934 293.0488794 67.62024117 291.81346035 C67.48071876 291.11590332 67.34119635 290.4183463 67.19744599 289.69965118 C66.90298462 287.85244751 66.90298462 287.85244751 66.90298462 284.85244751 C66.35916138 284.68519165 65.81533813 284.51793579 65.2550354 284.34561157 C61.17293951 283.04402311 57.26286551 281.6241627 53.39517212 279.77432251 C42.96823668 274.81204559 35.5400114 272.80228063 23.90298462 274.85244751 C22.40509002 275.06648023 20.9063304 275.27452061 19.40689087 275.47744751 C12.38619063 276.45097507 5.39503689 277.60340803 -1.59701538 278.76260376 C-15.24766759 281.01134053 -28.91837521 282.91483313 -42.63955688 284.6696167 C-53.68118426 286.08415524 -64.67144224 287.63144203 -75.61679077 289.68447876 C-79.92906511 290.46505449 -84.01307431 290.93701301 -88.40267944 290.89614868 C-89.28667419 290.88983932 -90.17066895 290.88352997 -91.08145142 290.87702942 C-91.74658752 290.86891739 -92.41172363 290.86080536 -93.09701538 290.85244751 C-93.25765976 290.03669754 -93.41830414 289.22094757 -93.58381653 288.38047791 C-95.09919498 280.68547554 -96.61464396 272.99048706 -98.13017178 265.29551411 C-98.90927891 261.33964604 -99.68835895 257.38377264 -100.46737671 253.42788696 C-101.21944429 249.60886072 -101.97158353 245.7898486 -102.72377205 241.97084618 C-103.01045333 240.51524544 -103.29710898 239.05963966 -103.58373833 237.6040287 C-103.98580082 235.56222842 -104.3879552 233.52044626 -104.79013062 231.47866821 C-105.01885361 230.31728836 -105.2475766 229.15590851 -105.48323059 227.95933533 C-106.01724395 225.25623869 -106.55522001 222.55399356 -107.09701538 219.85244751 C-106.43701538 219.85244751 -105.77701538 219.85244751 -105.09701538 219.85244751 C-102.05417457 204.80001507 -99.01290865 189.7472648 -95.97271347 174.69429779 C-95.47398904 172.22501745 -94.97523286 169.75574352 -94.47644424 167.28647614 C-88.84803096 139.42264564 -83.22809602 111.55721174 -77.66342163 83.68057251 C-77.4528437 82.62593182 -77.24226578 81.57129112 -77.0253067 80.48469162 C-75.02545026 70.46824094 -73.02747334 60.45142116 -71.03525257 50.43344879 C-70.31276679 46.80206499 -69.58883077 43.1709713 -68.86457634 39.53993988 C-68.53117875 37.8664639 -68.19848597 36.19284733 -67.86654854 34.51908112 C-67.41733999 32.25404293 -66.96582809 29.9894757 -66.51376343 27.7250061 C-66.26257248 26.46159393 -66.01138153 25.19818176 -65.75257874 23.89648438 C-65.09701538 20.85244751 -65.09701538 20.85244751 -64.09701538 17.85244751 C-62.22128296 16.73672485 -62.22128296 16.73672485 -59.74154663 15.68838501 C-58.81946411 15.29248169 -57.89738159 14.89657837 -56.94735718 14.48867798 C-55.44362549 13.8643689 -55.44362549 13.8643689 -53.90951538 13.22744751 C-52.88317993 12.79448364 -51.85684448 12.36151978 -50.79940796 11.91543579 C-48.64693046 11.0097009 -46.49250319 10.10858742 -44.33627319 9.21182251 C-41.21892891 7.90360929 -38.12180365 6.55605872 -35.02670288 5.19619751 C-33.11304545 4.37233931 -31.19899816 3.54938595 -29.28451538 2.72744751 C-28.40964478 2.33734497 -27.53477417 1.94724243 -26.63339233 1.5453186 C-25.78994263 1.19034302 -24.94649292 0.83536743 -24.07748413 0.46963501 C-23.35456177 0.15623169 -22.6316394 -0.15717163 -21.8868103 -0.48007202 C-14.75414176 -2.1866193 -7.16780018 -1.08081556 0 0 Z " fill="#BC1C2E" transform="translate(601.0970153808594,221.14755249023438)"/>
<path d="M0 0 C1.15822266 0.28552734 2.31644531 0.57105469 3.50976562 0.86523438 C7.47509478 2.28418904 10.32904627 3.89110653 12.9375 7.1875 C14.36142742 10.73821015 14.96794375 14.39296865 15.6394043 18.14916992 C16.00685376 20.01704993 16.37436839 21.88491739 16.74306476 23.75255167 C17.16713179 25.92093894 17.5798209 28.09129662 17.99130058 30.26210594 C19.03831534 35.75356185 20.1485503 41.23176567 21.26100159 46.71028137 C23.09720662 55.76485406 24.92110857 64.82177333 26.73187256 73.88146973 C26.97490012 75.09736906 27.21792768 76.31326839 27.46831971 77.56601316 C27.96916061 80.07222654 28.46994261 82.57845169 28.97066784 85.08468819 C30.13263471 90.89912655 31.29616851 96.71325122 32.45958117 102.52740043 C34.89985388 114.72310665 37.33779942 126.91927714 39.77490428 139.11561674 C41.85997578 149.54994028 43.94708206 159.98385515 46.03564453 170.41748047 C48.47486171 182.6028416 50.91282066 194.78845336 53.34879613 206.97446299 C54.63347749 213.40097619 55.91866785 219.82738642 57.20522308 226.25352478 C58.41194978 232.28136373 59.61678143 238.30957846 60.82017708 244.33808327 C61.26051447 246.54240363 61.70149857 248.74659493 62.1431942 250.95064354 C68.07405883 280.55097867 68.07405883 280.55097867 67.9375 287.1875 C49.68506735 293.36360556 31.36156549 299.22982531 12.9375 304.875 C8.2496471 306.31525949 3.56230558 307.75717917 -1.125 309.19921875 C-2.25337784 309.54604202 -3.38175568 309.8928653 -4.54432678 310.25019836 C-11.71196804 312.45565429 -18.86804133 314.69471943 -26.01622009 316.96234131 C-35.25541676 319.88965302 -44.51907545 322.7377014 -53.78057861 325.59347534 C-76.07405966 332.4694855 -98.3604239 339.36868035 -120.6418314 346.28370762 C-124.82625758 347.58234074 -129.01089115 348.8802951 -133.19607544 350.17648315 C-137.1621139 351.40484246 -141.12753469 352.63517561 -145.09249687 353.86700439 C-146.56272197 354.32341201 -148.03316279 354.77912537 -149.50383186 355.23410034 C-151.52805307 355.86046402 -153.55146861 356.48936673 -155.57470703 357.11889648 C-156.71231476 357.47177231 -157.84992249 357.82464813 -159.02200317 358.18821716 C-160.97227807 358.82919012 -162.90538163 359.52667592 -164.80987549 360.29304504 C-169.88401696 362.30784643 -175.57693939 362.08137264 -180.67480469 360.24804688 C-183.34100695 358.91956565 -185.88384087 357.47105843 -188.4375 355.9375 C-189.37940186 355.39754395 -190.32130371 354.85758789 -191.29174805 354.30126953 C-193.25374336 353.17391895 -195.21004436 352.03660263 -197.16064453 350.88964844 C-199.94549918 349.25612945 -202.74682127 347.65695916 -205.55859375 346.0703125 C-209.90533997 343.61571196 -214.23398536 341.13159827 -218.55517578 338.63232422 C-221.0709857 337.18261019 -223.59532099 335.74867723 -226.12109375 334.31640625 C-227.68518593 333.41977669 -229.24900211 332.52266545 -230.8125 331.625 C-231.5341333 331.21942871 -232.2557666 330.81385742 -232.99926758 330.39599609 C-237.94867299 327.52898103 -237.94867299 327.52898103 -239.0625 324.1875 C-238.95558058 322.35288433 -238.7697407 320.5224121 -238.5390625 318.69921875 C-238.405 317.59900391 -238.2709375 316.49878906 -238.1328125 315.36523438 C-237.98585938 314.21345703 -237.83890625 313.06167969 -237.6875 311.875 C-236.84854705 305.19056473 -236.05114259 298.53388877 -235.62890625 291.80859375 C-234.9313423 281.35454153 -233.60019401 270.96522413 -232.375 260.5625 C-232.10652034 258.26240851 -231.83837919 255.96227748 -231.57055664 253.66210938 C-231.01418814 248.88623676 -230.45637313 244.11053652 -229.89746094 239.33496094 C-228.71277764 229.20452767 -227.54342315 219.07232895 -226.37506104 208.94000244 C-225.99881903 205.67725868 -225.62222338 202.41455586 -225.24560547 199.15185547 C-223.03095702 179.95673085 -220.84693264 160.75818368 -218.67138672 141.55859375 C-217.74136146 133.35237851 -216.8082639 125.1465123 -215.87545776 116.94061279 C-215.35699852 112.37968817 -214.83863698 107.81875244 -214.3203125 103.2578125 C-214.21760544 102.35406891 -214.11489838 101.45032532 -214.00907898 100.51919556 C-213.36352653 94.83824585 -212.71847446 89.15723953 -212.07374573 83.47619629 C-209.75497885 63.04449757 -207.43407289 42.61315145 -205.0625 22.1875 C-199.40788827 21.00281902 -193.8092658 19.95248074 -188.0625 19.3125 C-181.11836657 18.49618601 -174.21909647 17.46146075 -167.3125 16.375 C-156.41206702 14.66386658 -145.49400768 13.12073817 -134.5625 11.625 C-124.94890242 10.30955753 -115.35292228 8.97295496 -105.79736328 7.27880859 C-97.8704374 5.91407178 -89.88113842 4.99342256 -81.90167236 3.99536133 C-73.10793788 2.8912911 -64.3588056 1.64119972 -55.625 0.125 C-47.43562586 -1.28746392 -39.2407333 -2.54831812 -31 -3.625 C-30.00621338 -3.76107666 -29.01242676 -3.89715332 -27.98852539 -4.03735352 C-17.90707975 -5.30697175 -9.56057069 -3.22956185 0 0 Z " fill="#45B9BC" transform="translate(655.0625,498.8125)"/>
<path d="M0 0 C0.85894729 0.12361802 1.71789459 0.24723603 2.60287058 0.37460005 C5.45442268 0.78674041 8.30438243 1.20897812 11.15444946 1.6312561 C13.21296458 1.93090852 15.27157116 2.22993321 17.33026123 2.52838135 C22.92178193 3.34081044 28.51197746 4.16204699 34.10197783 4.9848628 C40.02714036 5.85546757 45.95348568 6.71794718 51.87969971 7.58135986 C63.17481185 9.22824876 74.46883831 10.88246528 85.76249945 12.53927195 C98.3424889 14.38442044 110.92367617 16.22133156 123.50497389 18.05753469 C146.21664178 21.37247199 168.92695383 24.69659013 191.63628769 28.02747726 C203.70392499 29.79745422 215.77189187 31.5651372 227.84045219 33.32880974 C233.59126466 34.16926608 239.34187474 35.01110211 245.0923959 35.85354912 C248.74489237 36.38859177 252.397475 36.92302623 256.05030441 37.45579147 C259.91118704 38.01893117 263.77161253 38.58516097 267.63198853 39.15176392 C269.29031897 39.39285322 269.29031897 39.39285322 270.98215103 39.63881302 C271.98128399 39.78598141 272.98041695 39.9331498 274.00982666 40.08477783 C274.86624063 40.21006174 275.72265461 40.33534565 276.60502052 40.46442604 C278.74227155 40.82531039 280.80965199 41.293929 282.90298462 41.85244751 C288.86933564 90.36989321 294.31561799 138.94881261 299.83999595 187.51804236 C300.24401246 191.06988852 300.64811097 194.62172534 301.05223775 198.17355895 C303.57447216 220.34130995 306.09576111 242.50916824 308.61400509 264.67737293 C309.19119572 269.75827475 309.76839566 274.83917551 310.34561157 279.92007446 C310.56072571 281.81361289 310.56072571 281.81361289 310.78018559 283.74540462 C313.11946834 304.33532043 315.4651812 324.92449861 317.81341546 345.51339523 C320.23420091 366.73937151 322.64919012 387.96600097 325.05848032 409.19328517 C326.40759179 421.07844504 327.75927211 432.96330051 329.11750603 444.84742165 C330.26940411 454.92628067 331.4161046 465.00571341 332.55588495 475.08595029 C333.1371797 480.22547626 333.72100936 485.36468159 334.31154442 490.50315475 C334.85142596 495.20137856 335.38422119 499.9003489 335.91128499 504.6000274 C336.10353247 506.3028217 336.29841838 508.00532053 336.49615406 509.70748625 C336.76374595 512.01430928 337.0218462 514.32200244 337.27754116 516.63016987 C337.42351881 517.9134811 337.56949647 519.19679232 337.71989769 520.51899177 C337.8884068 523.5870298 337.78271351 525.92074643 336.90298462 528.85244751 C335.25845337 530.29946899 335.25845337 530.29946899 333.09048462 531.47354126 C332.27539429 531.9264856 331.46030396 532.37942993 330.62051392 532.84609985 C329.72372925 533.32256958 328.82694458 533.79903931 327.90298462 534.28994751 C326.96817261 534.80508911 326.0333606 535.32023071 325.07022095 535.85098267 C323.05929291 536.9585272 321.04457203 538.05920731 319.02651978 539.15371704 C313.8556342 541.96589633 308.72523563 544.84999083 303.59048462 547.72744751 C302.54384644 548.31123169 301.49720825 548.89501587 300.41885376 549.49649048 C293.17218103 553.54690157 285.99473386 557.70384274 278.84048462 561.91494751 C267.80751788 568.40616505 256.59261846 574.52788263 245.2928772 580.54067993 C243.57464699 581.48378453 241.88705227 582.48350794 240.22207642 583.51773071 C237.90298462 584.85244751 237.90298462 584.85244751 235.90298462 584.85244751 C235.90298462 411.93244751 235.90298462 239.01244751 235.90298462 60.85244751 C128.41610883 45.61531118 128.41610883 45.61531118 20.91348267 30.49099731 C12.38766694 29.29618633 3.86200889 28.10025086 -4.66366661 26.90443969 C-23.80795402 24.21928493 -42.95241333 21.53535798 -62.09701538 18.85244751 C-62.09701538 18.19244751 -62.09701538 17.53244751 -62.09701538 16.85244751 C-56.77702729 14.60984564 -51.45678951 12.36783755 -46.13632202 10.12637329 C-44.32733437 9.36416576 -42.51841441 8.60179757 -40.70956421 7.83926392 C-38.10582073 6.74167048 -35.50183237 5.64465984 -32.89779663 4.54776001 C-32.09239944 4.20810211 -31.28700226 3.86844421 -30.4571991 3.51849365 C-28.96704962 2.89104671 -27.47476588 2.26863432 -25.97998047 1.65231323 C-24.5187864 1.03161184 -23.08759651 0.34006556 -21.67196655 -0.37850952 C-14.79442978 -2.43257616 -6.98478795 -1.05321958 0 0 Z " fill="#79141F" transform="translate(601.0970153808594,221.14755249023438)"/>
<path d="M0 0 C1.01089188 0.42645561 1.01089188 0.42645561 2.04220581 0.86152649 C4.15261834 1.75311371 6.2599234 2.65178192 8.3671875 3.55078125 C9.81490272 4.16388735 11.26281803 4.77652119 12.7109375 5.38867188 C16.22368293 6.87477812 19.73366501 8.367234 23.2421875 9.86328125 C19.72682164 12.20685849 17.43137381 12.45231196 13.25732422 13.03320312 C12.54343788 13.13470169 11.82955154 13.23620026 11.09403229 13.34077454 C8.70428856 13.67859734 6.3131591 14.00530457 3.921875 14.33203125 C2.22196506 14.56994799 0.52214797 14.80852888 -1.17758179 15.04772949 C-5.78190356 15.69365297 -10.3875219 16.32985873 -14.99343872 16.96429443 C-19.84861 17.63473359 -24.70253403 18.31409113 -29.55664062 18.9921875 C-55.62999204 22.62954765 -81.71174808 26.20804978 -107.79792213 29.7522831 C-124.50817627 32.02326974 -141.21068443 34.34247912 -157.90513611 36.72708893 C-160.8667334 37.15004742 -163.82843298 37.57228264 -166.79016113 37.99432373 C-175.43387177 39.22649987 -184.07719417 40.46102534 -192.71846008 41.71024513 C-196.26100708 42.22113213 -199.80426729 42.72693594 -203.34771729 43.23151779 C-204.99408276 43.46712959 -206.64013211 43.70496294 -208.28582764 43.9452095 C-229.90363238 47.0990893 -229.90363238 47.0990893 -236.57421875 44.33203125 C-237.28263916 44.04779297 -237.99105957 43.76355469 -238.72094727 43.47070312 C-239.57873779 43.10525391 -240.43652832 42.73980469 -241.3203125 42.36328125 C-242.78022916 41.75570563 -244.240672 41.14939344 -245.70152283 40.54406738 C-246.46117309 40.22921638 -247.22082335 39.91436539 -248.00349331 39.58997345 C-248.58241864 39.35016502 -249.16134398 39.1103566 -249.7578125 38.86328125 C-250.49160403 53.00957102 -250.99966845 67.14546671 -251.31445312 81.30688477 C-251.36202324 83.36039217 -251.40981566 85.41389443 -251.45780945 87.46739197 C-251.58622693 92.99060931 -251.71143475 98.51389493 -251.83592033 104.03720212 C-251.96858304 109.90276412 -252.10394275 115.76826404 -252.2388916 121.6337738 C-252.46592151 131.51956179 -252.69087841 141.40539528 -252.91455078 151.29125977 C-253.14127528 161.31116586 -253.37005034 171.33102218 -253.60107422 181.35083008 C-255.24243894 251.07652323 -255.24243894 251.07652323 -256.48022461 320.81019592 C-256.6232933 330.68091861 -256.80027549 340.5419976 -257.19685364 350.40614319 C-257.32706186 353.9204457 -257.40001095 357.4330854 -257.4609375 360.94921875 C-257.55991771 366.08277093 -257.84354204 371.17898804 -258.25195312 376.29785156 C-258.85449516 383.98027901 -259.30054975 391.66245019 -259.5703125 399.36328125 C-259.60530224 400.35511288 -259.60530224 400.35511288 -259.64099884 401.36698151 C-260.65048269 433.9732229 -247.60697079 458.72945906 -230.70054626 485.91400146 C-230.38944412 486.55726379 -230.07834198 487.20052612 -229.7578125 487.86328125 C-230.0878125 488.52328125 -230.4178125 489.18328125 -230.7578125 489.86328125 C-231.36963379 489.50202148 -231.98145508 489.14076172 -232.61181641 488.76855469 C-243.57494066 482.30621036 -254.55362033 475.90026202 -265.7578125 469.86328125 C-275.72584321 464.48905507 -285.50677621 458.82475536 -295.26171875 453.07421875 C-298.59791573 451.1112094 -301.94737347 449.18958546 -305.34765625 447.33984375 C-306.01023437 446.97665039 -306.6728125 446.61345703 -307.35546875 446.23925781 C-309.04528561 445.31990416 -310.74299043 444.41508793 -312.44140625 443.51171875 C-314.7578125 441.86328125 -314.7578125 441.86328125 -315.42734623 440.01020908 C-315.77070315 437.77953504 -315.69170651 436.09134977 -315.36167908 433.86399841 C-315.24715928 433.05013452 -315.13263948 432.23627062 -315.01464939 431.39774418 C-314.88082828 430.48845881 -314.74700716 429.57917345 -314.60913086 428.64233398 C-313.12454022 417.91404847 -311.83953193 407.17159864 -310.62329102 396.41040039 C-310.5270109 395.56106764 -310.43073077 394.7117349 -310.33153307 393.8366648 C-309.70748003 388.33145727 -309.08639264 382.82591864 -308.46614909 377.32028079 C-307.90066078 372.30474933 -307.3328344 367.28948251 -306.76527405 362.27418518 C-305.78945487 353.6487643 -304.81496427 345.02319422 -303.84136963 336.39752197 C-302.31047395 322.83490086 -300.7763595 309.2726448 -299.24169922 295.71044922 C-298.7199566 291.09936683 -298.1982324 286.48828236 -297.67651367 281.87719727 C-297.54668744 280.72977704 -297.41686121 279.58235681 -297.28310084 278.40016627 C-296.09044355 267.858941 -294.89842801 257.31764318 -293.70645523 246.77634048 C-289.26679415 207.51392518 -284.82331857 168.25194312 -280.36824894 128.99127293 C-279.15897948 118.33408402 -277.95107622 107.67674223 -276.74507803 97.01918262 C-275.92495293 89.77258605 -275.10329675 82.52616417 -274.28038985 75.27988297 C-273.8082951 71.12234834 -273.33688759 66.96473883 -272.86732674 62.80691719 C-272.43967076 59.02030307 -272.01005734 55.23391644 -271.57885826 51.4477042 C-271.34974264 49.43135289 -271.1227389 47.41476196 -270.89580631 45.3981638 C-270.7594398 44.20422976 -270.62307329 43.01029573 -270.48257446 41.78018188 C-270.36588221 40.7505665 -270.24918995 39.72095112 -270.12896156 38.66013527 C-269.77983215 36.02921387 -269.31167649 33.45802815 -268.7578125 30.86328125 C-229.14997039 24.29003566 -189.39875246 18.61114334 -149.67654705 12.7803421 C-135.41783269 10.6869404 -121.16140407 8.57910083 -106.90751523 6.45308542 C-96.81561075 4.94911359 -86.72133369 3.46180481 -76.62516719 1.98671865 C-70.61864156 1.10865408 -64.61342065 0.22322919 -58.61069298 -0.6804657 C-52.98649876 -1.52687136 -47.35965354 -2.35261027 -41.73011208 -3.16266251 C-39.67069533 -3.46265476 -37.61234587 -3.77008545 -35.55525208 -4.08561325 C-32.74063273 -4.51617449 -29.9233419 -4.91939834 -27.10380554 -5.31628418 C-26.29807104 -5.44612245 -25.49233654 -5.57596072 -24.66218585 -5.70973349 C-15.77738517 -6.89584105 -8.03857629 -3.45006075 0 0 Z " fill="#92582A" transform="translate(455.7578125,360.13671875)"/>
<path d="M0 0 C0.84109805 37.54235776 1.6818142 75.08472406 2.5220799 112.62710046 C2.62336 117.15219789 2.72464297 121.67729525 2.82592773 126.20239258 C2.84607511 127.10251847 2.86622248 128.00264437 2.88698038 128.9300468 C3.20488932 143.13299171 3.52302335 157.33593157 3.84126331 171.53886907 C4.17061049 186.23773394 4.4996332 200.93660607 4.82846725 215.63548243 C5.02134623 224.25641825 5.21441764 232.87734969 5.40790176 241.49827194 C5.63905576 251.79815493 5.86984252 262.09804609 6.10009766 272.39794922 C6.12836403 273.66231145 6.12836403 273.66231145 6.15720144 274.95221636 C6.6866005 298.64159258 7.20318887 322.33121477 7.70646301 346.02116035 C7.82801594 351.74241357 7.9501264 357.46365464 8.07261562 363.18488789 C8.10673023 364.77889639 8.14084477 366.3729049 8.17495924 367.9669134 C8.22540633 370.32391561 8.27586276 372.68091761 8.32635223 375.0379189 C8.52014183 384.08706911 8.71159067 393.13626144 8.89892061 402.18554775 C9.02771361 408.39830604 9.16020962 414.61098028 9.29403901 420.823632 C9.34765401 423.34296688 9.39997716 425.86232964 9.45087981 428.38172078 C9.52037311 431.81487068 9.59445026 435.24789341 9.66960144 438.68092346 C9.69761108 440.14943289 9.69761108 440.14943289 9.72618657 441.64760917 C9.88201723 448.46029713 10.36897761 455.2153863 11 462 C12.57575806 462.36182373 12.57575806 462.36182373 14.18334961 462.73095703 C34.47858632 467.39317531 54.76654949 472.07500425 75 477 C72.53443868 479.76676969 69.84903314 481.34544895 66.609375 483.1171875 C65.51915039 483.71740723 64.42892578 484.31762695 63.30566406 484.93603516 C62.72659302 485.25179504 62.14752197 485.56755493 61.55090332 485.8928833 C59.1017229 487.22853578 56.65881353 488.57547099 54.21551514 489.92184448 C52.96325959 490.61179576 51.71069371 491.30118406 50.45782471 491.99002075 C44.6974874 495.15872386 38.96908632 498.38245559 33.25 501.625 C32.31833008 502.15270996 31.38666016 502.68041992 30.42675781 503.22412109 C28.55451094 504.28484467 26.68243944 505.34587785 24.81054688 506.40722656 C19.10051257 509.6431772 13.38606464 512.87134425 7.67016602 516.09692383 C2.60975038 518.95382773 -2.44355334 521.82250292 -7.48828125 524.70703125 C-9.07576172 525.61195313 -9.07576172 525.61195313 -10.6953125 526.53515625 C-12.73766065 527.699653 -14.77810218 528.86750151 -16.81640625 530.0390625 C-17.7290625 530.55855469 -18.64171875 531.07804688 -19.58203125 531.61328125 C-20.38874268 532.07516846 -21.1954541 532.53705566 -22.02661133 533.01293945 C-24 534 -24 534 -26 534 C-26.08555857 484.08581952 -26.16516594 434.17163395 -26.2117157 384.25740051 C-26.21240598 383.51911221 -26.21309627 382.78082391 -26.21380747 382.02016324 C-26.22877065 365.97667185 -26.24262176 349.93317969 -26.25532665 333.88968636 C-26.26156354 326.02240466 -26.26804628 318.15512318 -26.2746582 310.2878418 C-26.275312 309.5049365 -26.27596579 308.72203121 -26.2766394 307.91540151 C-26.29796095 282.521393 -26.33552849 257.12743997 -26.3814861 231.7334651 C-26.42861265 205.64632323 -26.45941874 179.55921209 -26.46957495 153.47202837 C-26.47101581 149.7906866 -26.47264399 146.10934494 -26.47438622 142.42800331 C-26.47472333 141.70343473 -26.47506045 140.97886615 -26.47540778 140.23234094 C-26.48132532 128.55046546 -26.50453964 116.86868477 -26.53416017 105.186848 C-26.56354389 93.45371664 -26.57444723 81.72070283 -26.56750689 69.98753353 C-26.56429075 63.62569039 -26.56936825 57.26412636 -26.59602737 50.90233231 C-26.62022341 45.08614686 -26.62167673 39.2704302 -26.60449447 33.45422391 C-26.60236853 31.34246584 -26.60882608 29.2306794 -26.62441591 27.11897781 C-26.64428645 24.26294871 -26.63379066 21.4086444 -26.61523914 18.55264568 C-26.62837421 17.71984971 -26.64150928 16.88705374 -26.65504238 16.02902153 C-26.62099248 13.73249882 -26.62099248 13.73249882 -26 10 C-23.59732026 8.02690679 -23.59732026 8.02690679 -21 7 C-19.92468018 6.51333862 -19.92468018 6.51333862 -18.82763672 6.0168457 C-16.51202352 5.11012969 -14.19620107 4.20483974 -11.875 3.3125 C-10.65876953 2.83200195 -10.65876953 2.83200195 -9.41796875 2.34179688 C-8.24814453 1.88836914 -8.24814453 1.88836914 -7.0546875 1.42578125 C-6.34812012 1.15161377 -5.64155273 0.87744629 -4.91357422 0.5949707 C-3 0 -3 0 0 0 Z " fill="#8F1723" transform="translate(863,272)"/>
<path d="M0 0 C1.15048828 0.49306641 2.30097656 0.98613281 3.48632812 1.49414062 C5.2584668 2.26854492 5.2584668 2.26854492 7.06640625 3.05859375 C8.27490234 3.57873047 9.48339844 4.09886719 10.72851562 4.63476562 C13.6986471 5.91438749 16.66519951 7.2016779 19.62890625 8.49609375 C19.62890625 8.82609375 19.62890625 9.15609375 19.62890625 9.49609375 C1.73621302 12.0178539 -16.15653953 14.53919269 -34.04935837 17.06006145 C-42.36170859 18.23117451 -50.67404104 19.40241347 -58.98632812 20.57397461 C-66.25125681 21.59791725 -73.51622242 22.62159746 -80.7812283 23.64499217 C-84.60984112 24.18432336 -88.43843819 24.72376565 -92.26699066 25.26352501 C-92.99190272 25.36571266 -93.71681477 25.46790031 -94.46369386 25.57318455 C-95.91342887 25.777551 -97.36315929 25.98195011 -98.81288505 26.18638223 C-102.36288881 26.68675835 -105.91307365 27.18578095 -109.46366501 27.68197155 C-110.87173862 27.87886642 -112.27980568 28.07580824 -113.68786621 28.27279663 C-114.38672825 28.3705665 -115.08559029 28.46833637 -115.80562997 28.56906897 C-120.41866822 29.21649861 -125.0291926 29.87993541 -129.63874221 30.55173582 C-132.89851303 31.02568894 -136.15921325 31.49304483 -139.42005396 31.95957339 C-140.96751186 32.18261865 -142.51455109 32.4085928 -144.06110525 32.6378206 C-167.74780989 36.1454073 -167.74780989 36.1454073 -178.12109375 31.99609375 C-179.3121875 31.53203125 -180.50328125 31.06796875 -181.73046875 30.58984375 C-182.601875 30.22890625 -183.47328125 29.86796875 -184.37109375 29.49609375 C-184.36585693 30.66366211 -184.36062012 31.83123047 -184.35522461 33.03417969 C-184.33678164 37.47004392 -184.32552211 41.90590497 -184.31616211 46.34179688 C-184.31120983 48.24219334 -184.30444622 50.14258617 -184.2956543 52.04296875 C-184.25252733 61.62222963 -184.28308734 71.16560795 -184.84375 80.73046875 C-185.36691087 89.76417018 -185.53570278 98.79374924 -185.65234375 107.83984375 C-185.66667293 108.93684475 -185.66667293 108.93684475 -185.68129158 110.05600739 C-185.74959383 115.36931289 -185.81106084 120.68268927 -185.87109375 125.99609375 C-185.93947323 132.0482383 -186.0105549 138.10033121 -186.08984375 144.15234375 C-186.0993959 144.88498003 -186.10894806 145.61761631 -186.11878967 146.37245369 C-186.23908286 155.24466948 -186.48361596 164.09154687 -187.00463867 172.95030212 C-187.42307963 180.46305432 -187.54487101 187.97726239 -187.65234375 195.5 C-187.66193619 196.16881069 -187.67152863 196.83762138 -187.68141174 197.52669907 C-187.74955848 202.37060316 -187.81083472 207.21458615 -187.87109375 212.05859375 C-188.14495925 233.92999282 -188.43152262 255.80304302 -189.72558594 277.64331055 C-191.39600307 306.22998239 -189.68123639 326.95579499 -174.21240234 351.43798828 C-172.03796544 355.04936414 -170.61142204 358.48148014 -169.37109375 362.49609375 C-173.40173168 361.25173326 -176.95055417 359.77543812 -180.6171875 357.6953125 C-181.60847656 357.13650391 -182.59976563 356.57769531 -183.62109375 356.00195312 C-184.67296875 355.40189453 -185.72484375 354.80183594 -186.80859375 354.18359375 C-188.45021484 353.25450195 -188.45021484 353.25450195 -190.125 352.30664062 C-192.40588497 351.01545 -194.68565712 349.72229177 -196.96435547 348.42724609 C-200.24067187 346.57002503 -203.52479232 344.72759054 -206.8125 342.890625 C-208.83206599 341.7591766 -210.85159867 340.62766872 -212.87109375 339.49609375 C-213.79462646 338.98135498 -214.71815918 338.46661621 -215.66967773 337.9362793 C-221.41722735 334.70173894 -226.93919947 331.2367389 -232.37109375 327.49609375 C-232.24263062 326.33376221 -232.24263062 326.33376221 -232.11157227 325.14794922 C-231.71617045 321.55596001 -231.32486773 317.96353485 -230.93359375 314.37109375 C-230.79888672 313.15292969 -230.66417969 311.93476562 -230.52539062 310.6796875 C-229.88802928 304.80352685 -229.31283978 298.94220719 -228.94140625 293.04296875 C-228.23400445 282.61480251 -226.90585213 272.24889244 -225.68359375 261.87109375 C-225.41511409 259.57100226 -225.14697294 257.27087123 -224.87915039 254.97070312 C-224.32278189 250.19483051 -223.76496688 245.41913027 -223.20605469 240.64355469 C-222.02137139 230.51312142 -220.8520169 220.3809227 -219.68365479 210.24859619 C-219.30741278 206.98585243 -218.93081713 203.72314961 -218.55419922 200.46044922 C-216.33955077 181.2653246 -214.15552639 162.06677743 -211.97998047 142.8671875 C-211.04995521 134.66097226 -210.11685765 126.45510605 -209.18405151 118.24920654 C-208.66559227 113.68828192 -208.14723073 109.12734619 -207.62890625 104.56640625 C-207.52619919 103.66266266 -207.42349213 102.75891907 -207.31767273 101.82778931 C-206.67212028 96.1468396 -206.02706821 90.46583328 -205.38233948 84.78479004 C-203.0635726 64.35309132 -200.74266664 43.9217452 -198.37109375 23.49609375 C-192.71648202 22.31141277 -187.11785955 21.26107449 -181.37109375 20.62109375 C-174.42696032 19.80477976 -167.52769022 18.7700545 -160.62109375 17.68359375 C-149.72066077 15.97246033 -138.80260143 14.42933192 -127.87109375 12.93359375 C-118.25749617 11.61815128 -108.66151603 10.28154871 -99.10595703 8.58740234 C-91.17903115 7.22266553 -83.18973217 6.30201631 -75.21026611 5.30395508 C-66.41653163 4.19988485 -57.66739935 2.94979347 -48.93359375 1.43359375 C-40.74421961 0.02112983 -32.54932705 -1.23972437 -24.30859375 -2.31640625 C-23.31480713 -2.45248291 -22.32102051 -2.58855957 -21.29711914 -2.72875977 C-20.3611792 -2.84662842 -19.42523926 -2.96449707 -18.4609375 -3.0859375 C-17.64488037 -3.19139893 -16.82882324 -3.29686035 -15.98803711 -3.40551758 C-10.16502312 -3.62444422 -5.3030669 -2.29535732 0 0 Z " fill="#36868C" transform="translate(648.37109375,497.50390625)"/>
<path d="M0 0 C0.56143361 0.19716677 1.12286722 0.39433353 1.70131397 0.59747505 C2.43819289 0.85624365 3.17507181 1.11501225 3.9342804 1.38162231 C4.66458119 1.63808596 5.39488199 1.8945496 6.14731312 2.15878487 C7.67770552 2.69603477 9.20830742 3.23268795 10.73901367 3.76904297 C11.41681885 4.00768066 12.09462402 4.24631836 12.79296875 4.4921875 C13.82200317 4.85352783 13.82200317 4.85352783 14.87182617 5.22216797 C17.2669647 6.09757365 19.63228911 7.05291564 22 8 C22 154.52 22 301.04 22 452 C-6.04987308 414.60016923 -11.69765611 380.43617423 -8.21820068 335.07983398 C-7.85397284 329.93887257 -7.73799051 324.80553169 -7.6456604 319.65386963 C-7.56736945 316.09627143 -7.4387004 312.5447763 -7.29589844 308.98925781 C-6.93018178 299.17661388 -6.81461463 289.3610959 -6.67355347 279.54317093 C-5.9899735 232.96643188 -4.83179652 186.39794539 -3.75760406 139.82900608 C-3.52641872 129.79621235 -3.29850012 119.76334629 -3.07129622 109.73046172 C-2.84886654 99.91323641 -2.62449316 90.09605682 -2.39858294 80.27891099 C-2.26502257 74.47425014 -2.13213886 68.66957609 -2.00114441 62.86485672 C-1.8786049 57.43861163 -1.75360514 52.01242835 -1.62682152 46.58628082 C-1.58123089 44.61849529 -1.5364522 42.65069072 -1.49262428 40.68286514 C-1.18964844 27.11104981 -0.67059002 13.55865806 0 0 Z " fill="#BF7136" transform="translate(205,398)"/>
<path d="M0 0 C0.94359375 0.29003906 0.94359375 0.29003906 1.90625 0.5859375 C2.7621875 0.84632813 3.618125 1.10671875 4.5 1.375 C5.3353125 1.63023437 6.170625 1.88546875 7.03125 2.1484375 C10.66259623 3.1900605 14.33501093 4.08375273 18 5 C17.67 113.24 17.34 221.48 17 333 C14 332 14 332 12.46948242 329.41479492 C11.93685791 328.28146729 11.4042334 327.14813965 10.85546875 325.98046875 C10.56319901 325.36665848 10.27092926 324.75284821 9.96980286 324.12043762 C9.03267218 322.14721005 8.10976732 320.1677118 7.1875 318.1875 C6.27677614 316.2563586 5.36319655 314.3266151 4.44740295 312.39787292 C3.84017691 311.11055125 3.2400276 309.81986962 2.64671326 308.52607727 C1.30350475 305.61765548 -0.05338158 302.91567108 -1.77124023 300.2019043 C-7.99937797 290.09557401 -6.68774653 278.88518874 -6.4375 267.4375 C-6.41591233 265.36005241 -6.39701714 263.28257504 -6.38085938 261.20507812 C-6.26113405 249.32039426 -5.84361155 237.45244432 -5.36985779 225.57748413 C-5.03147659 216.74183104 -4.84342454 207.90723348 -4.71875 199.06640625 C-4.70916323 198.39110304 -4.69957645 197.71579983 -4.68969917 197.02003288 C-4.61252073 191.50257777 -4.54257604 185.9850353 -4.47393799 180.46746826 C-4.41376882 175.64622091 -4.35039717 170.82503372 -4.28125 166.00390625 C-4.26692177 165.00097723 -4.26692177 165.00097723 -4.25230408 163.97778702 C-4.13930242 156.36860816 -3.94680491 148.78045142 -3.5 141.18359375 C-2.98366991 132.34468566 -2.83415343 123.50752453 -2.71875 114.65625 C-2.70915756 113.92407194 -2.69956512 113.19189388 -2.68968201 112.43752861 C-2.62141381 107.12507595 -2.56002327 101.8125513 -2.5 96.5 C-2.43162052 90.44785567 -2.36067721 84.3957606 -2.28125 78.34375 C-2.27167707 77.6142086 -2.26210415 76.88466721 -2.25224113 76.13301849 C-2.12816456 67.05064824 -1.89161569 57.98837945 -1.37098694 48.91888428 C-0.81548484 39.2034213 -0.64554401 29.47796812 -0.4375 19.75 C-0.39413052 17.8177027 -0.35051174 15.88541098 -0.30664062 13.953125 C-0.20157064 9.30214223 -0.09981311 4.65109844 0 0 Z " fill="#41A3A8" transform="translate(464,527)"/>
<path d="M0 0 C0.71275117 0.27104087 1.42550234 0.54208174 2.15985203 0.82133597 C4.04240787 1.5579813 5.9001732 2.33944219 7.7578125 3.13671875 C8.76870438 3.56317436 8.76870438 3.56317436 9.80001831 3.99824524 C11.91043084 4.88983246 14.0177359 5.78850067 16.125 6.6875 C17.57271522 7.3006061 19.02063053 7.91323994 20.46875 8.52539062 C23.98149543 10.01149687 27.49147751 11.50395275 31 13 C27.48463414 15.34357724 25.18918631 15.58903071 21.01513672 16.16992188 C20.30125038 16.27142044 19.58736404 16.37291901 18.85184479 16.47749329 C16.46210106 16.81531609 14.0709716 17.14202332 11.6796875 17.46875 C9.97977756 17.70666674 8.27996047 17.94524763 6.58023071 18.18444824 C1.97590894 18.83037172 -2.6297094 19.46657748 -7.23562622 20.10101318 C-12.0907975 20.77145234 -16.94472153 21.45080988 -21.79882812 22.12890625 C-47.87217954 25.7662664 -73.95393558 29.34476853 -100.04010963 32.88900185 C-116.75036377 35.15998849 -133.45287193 37.47919787 -150.14732361 39.86380768 C-153.1089209 40.28676617 -156.07062048 40.70900139 -159.03234863 41.13104248 C-167.67605927 42.36321862 -176.31938167 43.59774409 -184.96064758 44.84696388 C-188.50319458 45.35785088 -192.04645479 45.86365469 -195.58990479 46.36823654 C-197.23627026 46.60384834 -198.88231961 46.84168169 -200.52801514 47.08192825 C-222.36596256 50.26792526 -222.36596256 50.26792526 -232.53515625 45.9375 C-233.29928329 45.62675537 -234.06341034 45.31601074 -234.85069275 44.99584961 C-237.26092283 44.01180113 -239.66153496 43.00641275 -242.0625 42 C-243.70709192 41.3240826 -245.35227002 40.64958958 -246.99804688 39.9765625 C-251.00565778 38.33408507 -255.00479902 36.67242449 -259 35 C-256.72344926 32.72344926 -256.00860086 32.64015181 -252.92434692 32.18329906 C-252.06613311 32.05206463 -251.20791929 31.9208302 -250.323699 31.78561896 C-249.37528165 31.64932415 -248.4268643 31.51302933 -247.44970703 31.37260437 C-246.44641641 31.22177094 -245.44312578 31.07093751 -244.40943241 30.91553336 C-241.02670533 30.40918862 -237.6423207 29.91494302 -234.2578125 29.4206543 C-231.84017811 29.06147527 -229.42264388 28.70162152 -227.00520325 28.34114075 C-220.42137541 27.36195793 -213.83597217 26.39387686 -207.25004196 25.4289701 C-203.13662922 24.82624091 -199.02361288 24.220838 -194.91067505 23.6148777 C-183.52109174 21.93723961 -172.13111081 20.26237138 -160.73945618 18.5988493 C-160.01004206 18.49233085 -159.28062795 18.3858124 -158.52911037 18.27606611 C-157.05040222 18.06013681 -155.57169385 17.84420896 -154.09298527 17.62828257 C-153.35895541 17.52109336 -152.62492554 17.41390416 -151.86865234 17.3034668 C-151.1337246 17.19614874 -150.39879686 17.08883068 -149.64159858 16.97826055 C-137.74437366 15.24041916 -125.85023894 13.48232925 -113.95732117 11.71527591 C-101.7441672 9.90091976 -89.52868998 8.10297772 -77.3106842 6.32158023 C-70.45203109 5.32120724 -63.59455014 4.31395332 -56.73956299 3.28873253 C-50.28777661 2.32392029 -43.8329704 1.38170128 -37.37564659 0.45454216 C-35.00826432 0.11099856 -32.64194788 -0.23998604 -30.27686501 -0.5990181 C-27.04253088 -1.08882033 -23.80539202 -1.5513976 -20.56616211 -2.00752258 C-19.63559053 -2.15497101 -18.70501896 -2.30241943 -17.74624825 -2.45433599 C-11.16494095 -3.33922238 -6.17788673 -2.35632993 0 0 Z " fill="#704222" transform="translate(448,357)"/>
<path d="M0 0 C3.63 0.33 7.26 0.66 11 1 C12.01373181 5.05492723 11.81314662 6.11995149 11 10 C10.88355717 12.6467807 10.81303884 15.26693408 10.796875 17.9140625 C10.78967941 18.6767897 10.78248383 19.43951691 10.77507019 20.22535706 C10.47368619 61.62742624 19.24331269 99.32141876 49 130 C58.94007306 139.9768201 70.64401775 146.65930577 84 151 C85.09828125 151.36931641 85.09828125 151.36931641 86.21875 151.74609375 C103.25933862 156.49779634 122.79563542 152.04044557 138 144 C165.42699355 127.31319086 180.07360757 98.92458607 187.61767578 68.50976562 C190.27863446 56.50368275 190.64957243 44.25288114 191 32 C195.15771494 30.68461673 197.8879297 31.65566932 202 33 C203.0278953 68.24141514 190.85405358 105.07938884 168 132 C167.48179687 132.66773438 166.96359375 133.33546875 166.4296875 134.0234375 C154.90113478 148.58235265 135.14439739 160.28561481 116.83984375 163.56640625 C92.51970249 166.31262769 69.63194122 161.43002625 50.16796875 146.05078125 C27.66020212 127.51246272 13.79952929 103.05056411 5.1875 75.4375 C4.77032715 74.11069214 4.77032715 74.11069214 4.34472656 72.75708008 C-0.18981207 57.49512651 -1.45044354 42.93745925 -1.28125 27.08349609 C-1.24952763 24.08027966 -1.24020773 21.07758773 -1.234375 18.07421875 C-1.22522399 16.15624354 -1.21485438 14.23827367 -1.203125 12.3203125 C-1.19887512 11.42667999 -1.19462524 10.53304749 -1.19024658 9.61233521 C-1.18063904 8.78651947 -1.17103149 7.96070374 -1.16113281 7.10986328 C-1.15430481 6.38614532 -1.14747681 5.66242737 -1.14044189 4.91677856 C-1 3 -1 3 0 0 Z " fill="#1E2948" transform="translate(564,315)"/>
<path d="M0 0 C3.5442914 0.80009747 4.97740702 2.51479019 6.97265625 5.4453125 C7.50869179 9.88674984 7.47297279 11.69483768 4.97265625 15.4453125 C4.66777139 18.49689871 4.66777139 18.49689871 4.69921875 22 C4.68237802 23.34026226 4.66459932 24.68051299 4.64599609 26.02075195 C4.63896667 26.72253571 4.63193726 27.42431946 4.62469482 28.14736938 C4.16337025 65.22151573 -6.97597004 99.94440279 -34.02734375 126.4453125 C-49.42356894 139.83147496 -67.67533643 147.42761928 -88.078125 146.828125 C-103.32784764 145.34991252 -116.45466706 139.30271441 -128.02734375 129.4453125 C-128.70410156 128.90132812 -129.38085938 128.35734375 -130.078125 127.796875 C-152.51564467 109.23690727 -163.79410439 77.75712652 -166.91503906 49.57299805 C-167.52675223 44.65605628 -168.75872112 42.11350623 -172.02734375 38.4453125 C-172.73153917 34.06365214 -172.50726233 32.18841224 -170.08984375 28.4453125 C-166.35474612 26.00606507 -164.41891538 25.97183639 -160.12109375 26.73828125 C-156.81187751 27.85575912 -155.59590983 29.37637886 -154.02734375 32.4453125 C-153.58984375 35.5078125 -153.58984375 35.5078125 -154.02734375 38.4453125 C-154.52105469 39.06664062 -155.01476562 39.68796875 -155.5234375 40.328125 C-158.89932041 45.08066665 -157.46911868 51.47886288 -156.65234375 56.96337891 C-154.30921197 70.71707432 -150.41418608 83.058517 -144.02734375 95.4453125 C-143.48335938 96.54101562 -142.939375 97.63671875 -142.37890625 98.765625 C-133.51914774 115.318247 -118.63177752 128.02834863 -101.02734375 134.4453125 C-84.41924032 138.84033224 -68.19569115 136.24960733 -53.02734375 128.4453125 C-49.20306784 125.96496817 -45.59464863 123.27999553 -42.02734375 120.4453125 C-41.2075 119.83558594 -40.38765625 119.22585938 -39.54296875 118.59765625 C-19.37679489 101.34367831 -9.24029868 72.02124808 -6.02734375 46.4453125 C-5.67949092 41.36403208 -5.52514548 36.28646735 -5.40234375 31.1953125 C-5.36403386 29.8528429 -5.32497534 28.51039444 -5.28515625 27.16796875 C-5.19189708 23.92721274 -5.10609911 20.68644784 -5.02734375 17.4453125 C-5.97673828 17.00251953 -5.97673828 17.00251953 -6.9453125 16.55078125 C-9.02734375 15.4453125 -9.02734375 15.4453125 -10.33984375 13.7578125 C-11.3583064 10.33207451 -10.88780357 7.88715176 -10.02734375 4.4453125 C-7.44644613 0.41911222 -4.75696259 -0.26674557 0 0 Z " fill="#212C49" transform="translate(454.02734375,427.5546875)"/>
<path d="M0 0 C1.15048828 0.49306641 2.30097656 0.98613281 3.48632812 1.49414062 C5.2584668 2.26854492 5.2584668 2.26854492 7.06640625 3.05859375 C8.27490234 3.57873047 9.48339844 4.09886719 10.72851562 4.63476562 C13.6986471 5.91438749 16.66519951 7.2016779 19.62890625 8.49609375 C19.62890625 8.82609375 19.62890625 9.15609375 19.62890625 9.49609375 C1.73621302 12.0178539 -16.15653953 14.53919269 -34.04935837 17.06006145 C-42.36170859 18.23117451 -50.67404104 19.40241347 -58.98632812 20.57397461 C-66.25125681 21.59791725 -73.51622242 22.62159746 -80.7812283 23.64499217 C-84.60984112 24.18432336 -88.43843819 24.72376565 -92.26699066 25.26352501 C-92.99190272 25.36571266 -93.71681477 25.46790031 -94.46369386 25.57318455 C-95.91342887 25.777551 -97.36315929 25.98195011 -98.81288505 26.18638223 C-102.36288881 26.68675835 -105.91307365 27.18578095 -109.46366501 27.68197155 C-110.87173862 27.87886642 -112.27980568 28.07580824 -113.68786621 28.27279663 C-114.38672825 28.3705665 -115.08559029 28.46833637 -115.80562997 28.56906897 C-120.41866822 29.21649861 -125.0291926 29.87993541 -129.63874221 30.55173582 C-132.89851303 31.02568894 -136.15921325 31.49304483 -139.42005396 31.95957339 C-140.96751186 32.18261865 -142.51455109 32.4085928 -144.06110525 32.6378206 C-167.5549278 36.11684483 -167.5549278 36.11684483 -176.43359375 32.80859375 C-177.41328125 32.44636719 -178.39296875 32.08414063 -179.40234375 31.7109375 C-191.43412612 26.7874055 -191.43412612 26.7874055 -196.37109375 23.49609375 C-194.84303658 21.96803658 -193.28240098 22.1375358 -191.15625 21.8828125 C-189.80720581 21.71579834 -189.80720581 21.71579834 -188.4309082 21.54541016 C-187.44179443 21.42601074 -186.45268066 21.30661133 -185.43359375 21.18359375 C-176.99369734 20.12573208 -168.58539507 18.94738046 -160.18359375 17.62109375 C-148.6372276 15.80399556 -137.06803559 14.19206932 -125.48809814 12.60751343 C-116.66893229 11.39866042 -107.87191212 10.14155642 -99.10595703 8.58740234 C-91.17903115 7.22266553 -83.18973217 6.30201631 -75.21026611 5.30395508 C-66.41653163 4.19988485 -57.66739935 2.94979347 -48.93359375 1.43359375 C-40.74421961 0.02112983 -32.54932705 -1.23972437 -24.30859375 -2.31640625 C-23.31480713 -2.45248291 -22.32102051 -2.58855957 -21.29711914 -2.72875977 C-20.3611792 -2.84662842 -19.42523926 -2.96449707 -18.4609375 -3.0859375 C-17.64488037 -3.19139893 -16.82882324 -3.29686035 -15.98803711 -3.40551758 C-10.16502312 -3.62444422 -5.3030669 -2.29535732 0 0 Z " fill="#2D696F" transform="translate(648.37109375,497.50390625)"/>
<path d="M0 0 C7.66544248 0.54996262 14.98077294 1.94160978 22.46484375 3.65234375 C24.19753258 4.04263512 24.19753258 4.04263512 25.96522522 4.44081116 C28.38870241 4.98842098 30.8115014 5.53904008 33.23364258 6.0925293 C36.94866214 6.94004645 40.66649289 7.77430734 44.38476562 8.60742188 C46.74497085 9.14243934 49.10500331 9.67821961 51.46484375 10.21484375 C52.57729965 10.46386948 53.68975555 10.7128952 54.83592224 10.96946716 C56.37881676 11.32477257 56.37881676 11.32477257 57.95288086 11.68725586 C58.85759628 11.89297714 59.76231171 12.09869843 60.69444275 12.31065369 C63 13 63 13 66 15 C54.93198045 21.3573603 43.83715128 27.66180217 32.6875 33.875 C24.37814113 38.50687587 16.13591077 43.23718035 7.9375 48.0625 C-5.78616142 56.13076272 -19.69831677 63.99361983 -34 71 C-32.33862578 65.43165784 -29.89323006 60.34234574 -27.375 55.125 C-26.92479492 54.18664307 -26.47458984 53.24828613 -26.01074219 52.28149414 C-22.50847758 45.00331171 -18.92496686 37.76921369 -15.28710938 30.55810547 C-12.67242481 25.36146949 -10.07579438 20.15576459 -7.47546387 14.95193481 C-5.9112376 11.82186736 -4.34622041 8.69219545 -2.78125 5.5625 C-2.24564453 4.49128906 -1.71003906 3.42007813 -1.15820312 2.31640625 C-0.77599609 1.55199219 -0.39378906 0.78757812 0 0 Z " fill="#BC1B2D" transform="translate(872,735)"/>
<path d="M0 0 C3.8077743 7.52302021 7.6069782 15.0502785 11.39520359 22.58315849 C13.15434816 26.0805398 14.91644928 29.57636538 16.68530273 33.06884766 C18.39104152 36.43698258 20.0890184 39.80892379 21.78159904 43.18368912 C22.42993027 44.47293943 23.08108424 45.76077411 23.73504829 47.04717636 C24.64788133 48.84396557 25.54992761 50.6462227 26.45141602 52.44873047 C26.96881851 53.47465302 27.48622101 54.50057556 28.01930237 55.55758667 C28.34293259 56.36358307 28.66656281 57.16957947 29 58 C28.505 58.99 28.505 58.99 28 60 C27.38817871 59.63874023 26.77635742 59.27748047 26.14599609 58.90527344 C14.30343398 51.92453397 2.41668042 45.0734174 -9.68579102 38.55297852 C-17.76919009 34.17601443 -25.69585403 29.54918112 -33.61914062 24.89013672 C-40.6617993 20.75625009 -47.75304034 16.76502201 -55 13 C-55 12.34 -55 11.68 -55 11 C-54.43037033 10.87693985 -53.86074066 10.7538797 -53.27384949 10.62709045 C-47.35262302 9.34755419 -41.43190343 8.06569251 -35.51147461 6.7824707 C-33.30099227 6.30368169 -31.09038077 5.82548856 -28.87963867 5.34790039 C-25.70457474 4.66188142 -22.52997933 3.97373066 -19.35546875 3.28515625 C-18.36475876 3.07157974 -17.37404877 2.85800323 -16.35331726 2.63795471 C-15.43258926 2.43782272 -14.51186127 2.23769073 -13.56323242 2.03149414 C-12.7527092 1.85606583 -11.94218597 1.68063751 -11.10710144 1.49989319 C-7.16015441 0.56351115 -4.11106317 -0.09135696 0 0 Z " fill="#704222" transform="translate(197,790)"/>
<path d="M0 0 C2.4949035 2.17298047 2.94447077 3.4030608 3.25 6.6875 C3 9 3 9 2 10 C1.87879015 11.34925705 1.82036152 12.70426484 1.7890625 14.05859375 C1.76303955 14.91042236 1.7370166 15.76225098 1.71020508 16.63989258 C1.6820874 17.56310303 1.65396973 18.48631348 1.625 19.4375 C0.60373146 44.19010143 -5.19616192 67.90152017 -22 87 C-22.65484375 87.74894531 -23.3096875 88.49789062 -23.984375 89.26953125 C-33.81396177 99.7986689 -46.68414889 107.31220378 -61.23828125 108.125 C-75.32117474 108.4754297 -87.80947281 103.91257567 -98.4375 94.5625 C-99.9821605 93.06587313 -101.50488071 91.54611977 -103 90 C-103.64582031 89.34 -104.29164063 88.68 -104.95703125 88 C-117.43031772 74.52124164 -123.05239761 57.09728297 -125.67041016 39.26074219 C-125.872229 37.92897949 -125.872229 37.92897949 -126.078125 36.5703125 C-126.23909668 35.39106201 -126.23909668 35.39106201 -126.40332031 34.18798828 C-126.88466202 31.88498903 -126.88466202 31.88498903 -128.56542969 29.94091797 C-130 28 -130 28 -129.875 24.375 C-129 21 -129 21 -126 19 C-119.54716981 19.45283019 -119.54716981 19.45283019 -117 22 C-116.8125 25.5625 -116.8125 25.5625 -117 29 C-117.33 29.33 -117.66 29.66 -118 30 C-118.64741368 38.8396868 -117.92563304 46.65783351 -115 55 C-114.64808594 56.03898438 -114.29617188 57.07796875 -113.93359375 58.1484375 C-107.95497421 74.76229113 -99.29965795 87.96613835 -83.4296875 96.359375 C-71.93527766 101.59445275 -59.83708966 101.4203323 -47.9921875 97.25 C-30.94411048 90.12808793 -20.578376 76.25022987 -13.6875 59.5 C-9.17842173 48.23376432 -7.53099659 36.74374101 -6.8125 24.6875 C-6.73064453 23.45837891 -6.64878906 22.22925781 -6.56445312 20.96289062 C-6.36685929 17.97573669 -6.17884355 14.98832486 -6 12 C-7.32 11.34 -8.64 10.68 -10 10 C-10.29296875 3.9453125 -10.29296875 3.9453125 -10 2 C-6.29584707 -0.46943529 -4.37855495 -0.46913089 0 0 Z " fill="#1C2F4D" transform="translate(651,549)"/>
<path d="M0 0 C1.62955995 2.43401415 2.86330316 4.62960177 4.1015625 7.25390625 C4.64627701 8.35532204 4.64627701 8.35532204 5.20199585 9.47898865 C6.36006735 11.83223594 7.49218266 14.19700992 8.625 16.5625 C9.39426132 18.12902815 10.16507828 19.69479339 10.9375 21.25976562 C14.28183147 28.08850079 17.414299 34.84248709 20 42 C15.96936207 40.75563951 12.42053958 39.27934437 8.75390625 37.19921875 C7.76245605 36.64024902 6.77100586 36.0812793 5.74951172 35.50537109 C4.69779785 34.90547363 3.64608398 34.30557617 2.5625 33.6875 C0.9230542 32.7605835 0.9230542 32.7605835 -0.74951172 31.81494141 C-3.02908578 30.52548868 -5.30739047 29.23378952 -7.58447266 27.93994141 C-10.89034198 26.06228325 -14.2001729 24.19184396 -17.51171875 22.32421875 C-25.3518864 17.90157582 -33.18839905 13.47294411 -41 9 C-41 8.34 -41 7.68 -41 7 C-35.96749783 5.82939375 -30.93217437 4.67216306 -25.89379883 3.52709961 C-24.18104835 3.13588686 -22.46911846 2.74106295 -20.75805664 2.3425293 C-18.29521379 1.76955889 -15.82968991 1.20973708 -13.36328125 0.65234375 C-12.60163162 0.47219223 -11.83998199 0.29204071 -11.05525208 0.10643005 C-3.38279975 -1.60025766 -3.38279975 -1.60025766 0 0 Z " fill="#2A6A70" transform="translate(459,818)"/>
<path d="M0 0 C3.99348421 0.93574261 6.08720447 3.13838885 8.4921875 6.30859375 C9.44094431 9.62924259 8.89062044 12.16438261 8.1171875 15.49609375 C6.6796875 17.93359375 6.6796875 17.93359375 5.1171875 19.49609375 C4.4571875 19.49609375 3.7971875 19.49609375 3.1171875 19.49609375 C3.1171875 16.52609375 3.1171875 13.55609375 3.1171875 10.49609375 C-0.1828125 10.16609375 -3.4828125 9.83609375 -6.8828125 9.49609375 C-7.2128125 12.79609375 -7.5428125 16.09609375 -7.8828125 19.49609375 C-12.65841357 14.87454433 -12.65841357 14.87454433 -13.3203125 10.80859375 C-12.78459308 6.75243241 -11.56014034 4.81253298 -8.796875 1.859375 C-5.88162578 -0.21699638 -3.50123413 -0.28882234 0 0 Z " fill="#76141C" transform="translate(762.8828125,337.50390625)"/>
<path d="M0 0 C3.53684081 2.99862591 5.78275426 5.08823745 6.3125 9.75 C5.92238941 13.80715017 4.54030163 15.86198034 2 19 C1.34 19 0.68 19 0 19 C-0.33 19.99 -0.66 20.98 -1 22 C-0.67 18.04 -0.34 14.08 0 10 C-3.63 9.34 -7.26 8.68 -11 8 C-11.33 11.3 -11.66 14.6 -12 18 C-15.80555556 14.19444444 -15.80555556 14.19444444 -16.4375 10.3125 C-15.82720877 5.69172357 -13.44732017 3.04471344 -10 0 C-6.1544104 -1.2818632 -3.93271581 -0.94927623 0 0 Z " fill="#77141D" transform="translate(575,307)"/>
<path d="M0 0 C3.30921624 1.11747787 4.52518392 2.63809761 6.09375 5.70703125 C6.59375 8.76953125 6.59375 8.76953125 6.09375 11.70703125 C4.09375 14.08203125 4.09375 14.08203125 2.09375 15.70703125 C2.09375 13.06703125 2.09375 10.42703125 2.09375 7.70703125 C-0.87625 7.70703125 -3.84625 7.70703125 -6.90625 7.70703125 C-6.90625 10.67703125 -6.90625 13.64703125 -6.90625 16.70703125 C-10.22675912 13.96761123 -11.76223224 12.51353068 -12.53125 8.20703125 C-11.90625 4.70703125 -11.90625 4.70703125 -9.96875 1.70703125 C-6.23365237 -0.73221618 -4.29782163 -0.76644486 0 0 Z " fill="#734423" transform="translate(293.90625,454.29296875)"/>
<path d="M0 0 C3.48825925 0.92832706 4.94573896 2.59022598 6.9375 5.515625 C7.4375 9.140625 7.4375 9.140625 6.9375 12.515625 C5.4375 14.453125 5.4375 14.453125 3.9375 15.515625 C3.6075 13.205625 3.2775 10.895625 2.9375 8.515625 C-0.0325 8.515625 -3.0025 8.515625 -6.0625 8.515625 C-6.0625 11.485625 -6.0625 14.455625 -6.0625 17.515625 C-8 16.515625 -8 16.515625 -10.0625 14.515625 C-11.80232737 8.27271501 -11.80232737 8.27271501 -10.28125 4.66015625 C-7.45646743 0.64247563 -4.65618214 -0.38801518 0 0 Z " fill="#734424" transform="translate(454.0625,427.484375)"/>
<path d="M0 0 C2.4949035 2.17298047 2.94447077 3.4030608 3.25 6.6875 C3 9 3 9 2 10 C1.84313751 11.55948542 1.74923361 13.12542668 1.68359375 14.69140625 C1.64169922 15.63564453 1.59980469 16.57988281 1.55664062 17.55273438 C1.51732422 18.54595703 1.47800781 19.53917969 1.4375 20.5625 C1.39431641 21.55958984 1.35113281 22.55667969 1.30664062 23.58398438 C1.20019702 26.0558415 1.09818072 28.5278031 1 31 C0.67 31 0.34 31 0 31 C0 22.42 0 13.84 0 5 C-2.31 5.33 -4.62 5.66 -7 6 C-7 7.98 -7 9.96 -7 12 C-10 10 -10 10 -10.3984375 8.125 C-10.39070312 7.42375 -10.38296875 6.7225 -10.375 6 C-10.38273438 5.29875 -10.39046875 4.5975 -10.3984375 3.875 C-9.32921659 -1.15662783 -4.02178822 -0.43090588 0 0 Z " fill="#2A6570" transform="translate(651,549)"/>
<path d="M0 0 C3.4375 0.75 3.4375 0.75 5.4375 2.75 C5.625 6.3125 5.625 6.3125 5.4375 9.75 C5.1075 10.08 4.7775 10.41 4.4375 10.75 C4.06989269 13.07817964 3.73508419 15.4118385 3.4375 17.75 C3.1075 17.75 2.7775 17.75 2.4375 17.75 C2.4375 13.79 2.4375 9.83 2.4375 5.75 C0.4575 5.75 -1.5225 5.75 -3.5625 5.75 C-3.5625 8.06 -3.5625 10.37 -3.5625 12.75 C-5.625 11.1875 -5.625 11.1875 -7.5625 8.75 C-7.5 5.125 -7.5 5.125 -6.5625 1.75 C-3.5625 -0.25 -3.5625 -0.25 0 0 Z " fill="#2B6B73" transform="translate(528.5625,568.25)"/>
</svg>
