<?xml version="1.0" encoding="UTF-8"?>
<!DOCTYPE svg PUBLIC "-//W3C//DTD SVG 1.1//EN" "http://www.w3.org/Graphics/SVG/1.1/DTD/svg11.dtd">
<svg xmlns="http://www.w3.org/2000/svg" version="1.1" width="1080px" height="1080px" style="shape-rendering:geometricPrecision; text-rendering:geometricPrecision; image-rendering:optimizeQuality; fill-rule:evenodd; clip-rule:evenodd" xmlns:xlink="http://www.w3.org/1999/xlink">
<g><path style="opacity:1" fill="#fed44f" d="M 501.5,222.5 C 501.667,266.501 501.5,310.501 501,354.5C 495,371.913 482.833,381.246 464.5,382.5C 464.667,340.165 464.5,297.832 464,255.5C 461.656,247.99 456.822,242.99 449.5,240.5C 442.881,232.165 434.214,228.998 423.5,231C 384.746,238.585 346.079,246.585 307.5,255C 301.354,258.123 297.188,262.956 295,269.5C 294.5,302.165 294.333,334.832 294.5,367.5C 280.343,364.271 267.343,366.771 255.5,375C 252.838,377.985 249.838,380.485 246.5,382.5C 237.827,382.666 229.16,382.5 220.5,382C 203.477,377.478 193.143,366.645 189.5,349.5C 189.333,306.832 189.5,264.165 190,221.5C 193.833,204.333 204.333,193.833 221.5,190C 304.833,189.333 388.167,189.333 471.5,190C 484.684,193.848 494.184,202.015 500,214.5C 501.079,217.063 501.579,219.729 501.5,222.5 Z"/></g>
<g><path style="opacity:1" fill="#5ab674" d="M 865.5,192.5 C 865.667,267.167 865.5,341.834 865,416.5C 861.404,433.728 850.904,443.895 833.5,447C 747.5,447.667 661.5,447.667 575.5,447C 573.975,445.991 572.308,445.491 570.5,445.5C 569.748,442.253 569.248,438.919 569,435.5C 568.333,366.167 568.333,296.833 569,227.5C 570.115,215.029 575.615,204.863 585.5,197C 589.847,193.327 594.847,190.994 600.5,190C 685.833,189.333 771.167,189.333 856.5,190C 859.657,190.396 862.657,191.229 865.5,192.5 Z"/></g>
<g><path style="opacity:1" fill="#01956f" d="M 865.5,192.5 C 877.205,198.035 884.705,207.035 888,219.5C 888.667,294.5 888.667,369.5 888,444.5C 883.439,460.06 873.273,469.893 857.5,474C 771.833,474.667 686.167,474.667 600.5,474C 585.37,469.915 575.37,460.415 570.5,445.5C 572.308,445.491 573.975,445.991 575.5,447C 661.5,447.667 747.5,447.667 833.5,447C 850.904,443.895 861.404,433.728 865,416.5C 865.5,341.834 865.667,267.167 865.5,192.5 Z"/></g>
<g><path style="opacity:1" fill="#5cb773" d="M 449.5,240.5 C 451.465,242.768 452.632,245.435 453,248.5C 453.667,298.833 453.667,349.167 453,399.5C 446.365,426.447 429.032,440.78 401,442.5C 380.296,440.809 365.629,430.475 357,411.5C 353.625,402.031 352.791,392.365 354.5,382.5C 363.324,352.998 382.991,339.998 413.5,343.5C 414.495,332.679 414.828,321.679 414.5,310.5C 412.585,310.216 410.919,310.549 409.5,311.5C 384.564,315.754 359.897,320.754 335.5,326.5C 333.507,357.816 332.841,389.482 333.5,421.5C 328.883,447.452 313.549,462.119 287.5,465.5C 280.378,465.825 273.378,465.159 266.5,463.5C 240.788,452.08 230.288,432.414 235,404.5C 238.079,396.672 241.912,389.338 246.5,382.5C 249.838,380.485 252.838,377.985 255.5,375C 267.343,366.771 280.343,364.271 294.5,367.5C 294.333,334.832 294.5,302.165 295,269.5C 297.188,262.956 301.354,258.123 307.5,255C 346.079,246.585 384.746,238.585 423.5,231C 434.214,228.998 442.881,232.165 449.5,240.5 Z"/></g>
<g><path style="opacity:1" fill="#fcb94f" d="M 501.5,222.5 C 502.666,304.332 502.832,386.332 502,468.5C 498.259,486.574 487.426,497.741 469.5,502C 387.167,502.667 304.833,502.667 222.5,502C 209.314,499.486 199.48,492.32 193,480.5C 191.395,477.352 190.395,474.019 190,470.5C 189.5,430.168 189.333,389.835 189.5,349.5C 193.143,366.645 203.477,377.478 220.5,382C 229.16,382.5 237.827,382.666 246.5,382.5C 241.912,389.338 238.079,396.672 235,404.5C 230.288,432.414 240.788,452.08 266.5,463.5C 268.277,464.6 270.277,465.434 272.5,466C 277.684,466.816 282.684,466.65 287.5,465.5C 313.549,462.119 328.883,447.452 333.5,421.5C 334.174,389.931 334.84,358.264 335.5,326.5C 359.897,320.754 384.564,315.754 409.5,311.5C 410.833,311.5 412.167,311.5 413.5,311.5C 413.5,314.833 413.5,318.167 413.5,321.5C 390.544,325.958 367.544,330.291 344.5,334.5C 344.5,350.5 344.5,366.5 344.5,382.5C 347.833,382.5 351.167,382.5 354.5,382.5C 352.791,392.365 353.625,402.031 357,411.5C 365.629,430.475 380.296,440.809 401,442.5C 429.032,440.78 446.365,426.447 453,399.5C 453.667,349.167 453.667,298.833 453,248.5C 452.632,245.435 451.465,242.768 449.5,240.5C 456.822,242.99 461.656,247.99 464,255.5C 464.5,297.832 464.667,340.165 464.5,382.5C 482.833,381.246 495,371.913 501,354.5C 501.5,310.501 501.667,266.501 501.5,222.5 Z"/></g>
<g><path style="opacity:1" fill="#d8ddfa" d="M 795.5,329.5 C 795.945,332.365 795.278,334.865 793.5,337C 753.274,359.941 713.274,383.108 673.5,406.5C 669.723,409.35 666.223,409.017 663,405.5C 662.333,356.5 662.333,307.5 663,258.5C 664.864,255.793 667.364,254.959 670.5,256C 711.337,279.919 752.337,303.586 793.5,327C 794.381,327.708 795.047,328.542 795.5,329.5 Z"/></g>
<g><path style="opacity:1" fill="#c1c45b" d="M 409.5,311.5 C 410.919,310.549 412.585,310.216 414.5,310.5C 414.828,321.679 414.495,332.679 413.5,343.5C 413.5,336.167 413.5,328.833 413.5,321.5C 413.5,318.167 413.5,314.833 413.5,311.5C 412.167,311.5 410.833,311.5 409.5,311.5 Z"/></g>
<g><path style="opacity:1" fill="#fed44e" d="M 413.5,321.5 C 413.5,328.833 413.5,336.167 413.5,343.5C 382.991,339.998 363.324,352.998 354.5,382.5C 351.167,382.5 347.833,382.5 344.5,382.5C 344.5,366.5 344.5,350.5 344.5,334.5C 367.544,330.291 390.544,325.958 413.5,321.5 Z"/></g>
<g><path style="opacity:1" fill="#e6b951" d="M 335.5,326.5 C 334.84,358.264 334.174,389.931 333.5,421.5C 332.841,389.482 333.507,357.816 335.5,326.5 Z"/></g>
<g><path style="opacity:1" fill="#069671" d="M 795.5,329.5 C 796.364,330.688 797.364,331.855 798.5,333C 801.912,334.455 805.079,336.288 808,338.5C 809.538,343.12 808.038,346.287 803.5,348C 763.5,371 723.5,394 683.5,417C 680.044,418.123 677.21,417.29 675,414.5C 674.817,411.635 674.317,408.969 673.5,406.5C 713.274,383.108 753.274,359.941 793.5,337C 795.278,334.865 795.945,332.365 795.5,329.5 Z"/></g>
<g><path style="opacity:1" fill="#9db763" d="M 266.5,463.5 C 273.378,465.159 280.378,465.825 287.5,465.5C 282.684,466.65 277.684,466.816 272.5,466C 270.277,465.434 268.277,464.6 266.5,463.5 Z"/></g>
<g><path style="opacity:0.999" fill="#5ab673" d="M 559.5,542.5 C 635.5,542.5 711.5,542.5 787.5,542.5C 787.5,559.833 787.5,577.167 787.5,594.5C 718.998,594.167 650.665,594.501 582.5,595.5C 582.167,595.5 581.833,595.5 581.5,595.5C 574.254,594.536 566.92,594.203 559.5,594.5C 559.5,577.167 559.5,559.833 559.5,542.5 Z"/></g>
<g><path style="opacity:0.985" fill="#837a61" d="M 856.5,577.5 C 847.5,577.5 838.5,577.5 829.5,577.5C 824.5,577.5 819.5,577.5 814.5,577.5C 814.5,576.833 814.833,576.5 815.5,576.5C 828.162,575.768 840.829,575.602 853.5,576C 854.737,576.232 855.737,576.732 856.5,577.5 Z"/></g>
<g><path style="opacity:1" fill="#5ab674" d="M 502.5,790.5 C 482.221,764.543 461.888,738.543 441.5,712.5C 420.76,738.567 400.427,764.9 380.5,791.5C 378.692,792.317 377.192,791.65 376,789.5C 348.306,752.766 320.139,716.433 291.5,680.5C 257.476,724.185 223.476,767.852 189.5,811.5C 189.333,743.833 189.5,676.166 190,608.5C 192.574,598.204 198.074,589.704 206.5,583C 211.419,579.873 216.752,577.873 222.5,577C 304.833,576.333 387.167,576.333 469.5,577C 483.071,579.567 492.904,587.067 499,599.5C 500.202,602.774 501.202,606.107 502,609.5C 502.5,669.832 502.667,730.166 502.5,790.5 Z"/></g>
<g><path style="opacity:0.952" fill="#f9d050" d="M 829.5,577.5 C 838.5,577.5 847.5,577.5 856.5,577.5C 862.297,577.894 867.63,579.728 872.5,583C 874.871,585.706 877.537,588.039 880.5,590C 883.958,594.749 886.458,599.916 888,605.5C 888.667,690.5 888.667,775.5 888,860.5C 884.464,872.703 876.964,881.536 865.5,887C 821.378,888.156 777.211,888.656 733,888.5C 690.167,888.333 647.333,888.167 604.5,888C 588.777,881.936 579.111,870.603 575.5,854C 576.493,801.863 576.827,749.696 576.5,697.5C 578.46,701.971 580.126,706.637 581.5,711.5C 583.463,717.351 584.796,723.351 585.5,729.5C 584.078,729.291 582.745,728.791 581.5,728C 582.167,727.667 582.833,727.333 583.5,727C 581.699,725.613 581.032,724.113 581.5,722.5C 580.333,767.163 580.167,811.83 581,856.5C 581.534,860.768 582.867,864.768 585,868.5C 588.342,873.008 592.175,877.008 596.5,880.5C 601.536,883.184 606.869,885.017 612.5,886C 693.167,886.667 773.833,886.667 854.5,886C 871.667,882.167 882.167,871.667 886,854.5C 886.667,773.833 886.667,693.167 886,612.5C 884.169,600.349 878.002,591.183 867.5,585C 863.877,582.521 859.877,581.188 855.5,581C 847.841,580.5 840.174,580.334 832.5,580.5C 832.205,590.545 832.705,600.545 834,610.5C 849.309,666.108 864.309,721.774 879,777.5C 882.025,789.266 878.525,798.432 868.5,805C 800.017,822.942 731.684,841.275 663.5,860C 654.24,862.738 644.907,863.072 635.5,861C 632.041,858.918 629.374,856.085 627.5,852.5C 617.183,849.184 611.183,842.184 609.5,831.5C 609.327,828.907 609.327,826.24 609.5,823.5C 608.833,822.833 608.167,822.167 607.5,821.5C 608.853,820.476 609.52,819.143 609.5,817.5C 611.418,822.761 613.085,828.094 614.5,833.5C 615.264,838.787 617.93,842.953 622.5,846C 624.909,847.707 627.575,848.54 630.5,848.5C 634.765,857.933 642.099,861.433 652.5,859C 723.096,839.616 793.763,820.616 864.5,802C 874.576,797.249 878.41,789.415 876,778.5C 860.671,721.866 845.338,665.2 830,608.5C 829.5,598.172 829.334,587.839 829.5,577.5 Z"/></g>
<g><path style="opacity:1" fill="#fed44f" d="M 585.5,729.5 C 594.372,758.492 602.372,787.826 609.5,817.5C 609.52,819.143 608.853,820.476 607.5,821.5C 608.167,822.167 608.833,822.833 609.5,823.5C 609.327,826.24 609.327,828.907 609.5,831.5C 611.183,842.184 617.183,849.184 627.5,852.5C 629.374,856.085 632.041,858.918 635.5,861C 644.907,863.072 654.24,862.738 663.5,860C 731.684,841.275 800.017,822.942 868.5,805C 878.525,798.432 882.025,789.266 879,777.5C 864.309,721.774 849.309,666.108 834,610.5C 832.705,600.545 832.205,590.545 832.5,580.5C 840.174,580.334 847.841,580.5 855.5,581C 859.877,581.188 863.877,582.521 867.5,585C 878.002,591.183 884.169,600.349 886,612.5C 886.667,693.167 886.667,773.833 886,854.5C 882.167,871.667 871.667,882.167 854.5,886C 773.833,886.667 693.167,886.667 612.5,886C 606.869,885.017 601.536,883.184 596.5,880.5C 592.175,877.008 588.342,873.008 585,868.5C 582.867,864.768 581.534,860.768 581,856.5C 580.167,811.83 580.333,767.163 581.5,722.5C 581.032,724.113 581.699,725.613 583.5,727C 582.833,727.333 582.167,727.667 581.5,728C 582.745,728.791 584.078,729.291 585.5,729.5 Z"/></g>
<g><path style="opacity:1" fill="#c9b758" d="M 582.5,595.5 C 650.665,594.501 718.998,594.167 787.5,594.5C 795.84,594.334 804.173,594.5 812.5,595C 811.255,595.791 809.922,596.291 808.5,596.5C 733.335,595.501 658.002,595.167 582.5,595.5 Z"/></g>
<g><path style="opacity:1" fill="#feba4e" d="M 581.5,595.5 C 581.833,595.5 582.167,595.5 582.5,595.5C 658.002,595.167 733.335,595.501 808.5,596.5C 802.183,597.422 796.183,599.089 790.5,601.5C 783.892,603.152 777.225,604.486 770.5,605.5C 706.5,605.5 642.5,605.5 578.5,605.5C 578.737,606.791 578.404,607.791 577.5,608.5C 578.03,603.91 579.364,599.576 581.5,595.5 Z"/></g>
<g><path style="opacity:1" fill="#109470" d="M 559.5,542.5 C 643.999,541.334 728.666,541.168 813.5,542C 814.177,553.5 814.843,565 815.5,576.5C 814.833,576.5 814.5,576.833 814.5,577.5C 814.334,583.509 814.501,589.509 815,595.5C 819.942,612.377 824.442,629.377 828.5,646.5C 820.259,647.614 812.259,649.614 804.5,652.5C 804.167,652.5 803.833,652.5 803.5,652.5C 799.324,635.464 794.991,618.464 790.5,601.5C 796.183,599.089 802.183,597.422 808.5,596.5C 809.922,596.291 811.255,595.791 812.5,595C 804.173,594.5 795.84,594.334 787.5,594.5C 787.5,577.167 787.5,559.833 787.5,542.5C 711.5,542.5 635.5,542.5 559.5,542.5 Z"/></g>
<g><path style="opacity:1" fill="#5bb673" d="M 790.5,601.5 C 794.991,618.464 799.324,635.464 803.5,652.5C 729.61,672.473 655.61,692.14 581.5,711.5C 580.126,706.637 578.46,701.971 576.5,697.5C 576.219,693.812 575.719,690.145 575,686.5C 572.365,678.961 570.199,671.294 568.5,663.5C 568.833,662.5 569.167,661.5 569.5,660.5C 571.863,659.83 574.196,659.163 576.5,658.5C 577.791,658.737 578.791,658.404 579.5,657.5C 643.512,640.917 707.179,623.583 770.5,605.5C 777.225,604.486 783.892,603.152 790.5,601.5 Z"/></g>
<g><path style="opacity:1" fill="#fdbb50" d="M 814.5,577.5 C 819.5,577.5 824.5,577.5 829.5,577.5C 829.334,587.839 829.5,598.172 830,608.5C 845.338,665.2 860.671,721.866 876,778.5C 878.41,789.415 874.576,797.249 864.5,802C 793.763,820.616 723.096,839.616 652.5,859C 642.099,861.433 634.765,857.933 630.5,848.5C 705.1,829.879 779.433,810.046 853.5,789C 860.564,783.477 863.064,776.31 861,767.5C 850.222,727.022 839.388,686.688 828.5,646.5C 824.442,629.377 819.942,612.377 815,595.5C 814.501,589.509 814.334,583.509 814.5,577.5 Z"/></g>
<g><path style="opacity:1" fill="#fed44f" d="M 770.5,605.5 C 707.179,623.583 643.512,640.917 579.5,657.5C 577.515,641.868 576.849,625.868 577.5,609.5C 577.5,609.167 577.5,608.833 577.5,608.5C 578.404,607.791 578.737,606.791 578.5,605.5C 642.5,605.5 706.5,605.5 770.5,605.5 Z"/></g>
<g><path style="opacity:0.667" fill="#ada159" d="M 577.5,609.5 C 576.849,625.868 577.515,641.868 579.5,657.5C 578.791,658.404 577.791,658.737 576.5,658.5C 576.17,641.991 576.504,625.658 577.5,609.5 Z"/></g>
<g><path style="opacity:1" fill="#fde06a" d="M 405.5,632.5 C 413.786,645.623 414.619,659.29 408,673.5C 398.658,686.01 386.158,691.01 370.5,688.5C 351.636,681.466 343.469,667.799 346,647.5C 350.227,630.944 360.894,621.944 378,620.5C 388.837,620.838 398.003,624.838 405.5,632.5 Z"/></g>
<g><path style="opacity:1" fill="#0e976f" d="M 370.5,688.5 C 386.158,691.01 398.658,686.01 408,673.5C 414.619,659.29 413.786,645.623 405.5,632.5C 414.661,636.198 420.828,643.198 424,653.5C 425.537,684.965 410.703,698.798 379.5,695C 375.6,693.435 371.934,691.435 368.5,689C 369.094,688.536 369.761,688.369 370.5,688.5 Z"/></g>
<g><path style="opacity:1" fill="#bacbf9" d="M 828.5,646.5 C 839.388,686.688 850.222,727.022 861,767.5C 863.064,776.31 860.564,783.477 853.5,789C 779.433,810.046 705.1,829.879 630.5,848.5C 627.575,848.54 624.909,847.707 622.5,846C 617.93,842.953 615.264,838.787 614.5,833.5C 615.981,831.753 617.981,830.586 620.5,830C 686.071,812.479 751.738,795.146 817.5,778C 829.551,773.256 834.051,764.422 831,751.5C 821.386,718.71 812.552,685.71 804.5,652.5C 812.259,649.614 820.259,647.614 828.5,646.5 Z"/></g>
<g><path style="opacity:1" fill="#d8ddfa" d="M 803.5,652.5 C 803.833,652.5 804.167,652.5 804.5,652.5C 812.552,685.71 821.386,718.71 831,751.5C 834.051,764.422 829.551,773.256 817.5,778C 751.738,795.146 686.071,812.479 620.5,830C 617.981,830.586 615.981,831.753 614.5,833.5C 613.085,828.094 611.418,822.761 609.5,817.5C 602.372,787.826 594.372,758.492 585.5,729.5C 584.796,723.351 583.463,717.351 581.5,711.5C 655.61,692.14 729.61,672.473 803.5,652.5 Z"/></g>
<g><path style="opacity:1" fill="#d8ddfa" d="M 380.5,791.5 C 380.586,792.496 380.252,793.329 379.5,794C 404.205,825.259 428.538,856.759 452.5,888.5C 372.797,888.986 293.13,888.486 213.5,887C 202.516,882.017 195.016,873.85 191,862.5C 189.573,845.548 189.073,828.548 189.5,811.5C 223.476,767.852 257.476,724.185 291.5,680.5C 320.139,716.433 348.306,752.766 376,789.5C 377.192,791.65 378.692,792.317 380.5,791.5 Z"/></g>
<g><path style="opacity:1" fill="#b9cbfa" d="M 502.5,790.5 C 502.667,812.169 502.5,833.836 502,855.5C 498.871,871.96 489.371,882.793 473.5,888C 466.508,888.5 459.508,888.666 452.5,888.5C 428.538,856.759 404.205,825.259 379.5,794C 380.252,793.329 380.586,792.496 380.5,791.5C 400.427,764.9 420.76,738.567 441.5,712.5C 461.888,738.543 482.221,764.543 502.5,790.5 Z"/></g>
</svg>
