<svg xmlns="http://www.w3.org/2000/svg" xmlns:xlink="http://www.w3.org/1999/xlink" width="1080" zoomAndPan="magnify" viewBox="0 0 810 809.999993" height="1080" preserveAspectRatio="xMidYMid meet" version="1.0"><defs><clipPath id="5298333a5c"><path d="M 105.046875 214 L 409 214 L 409 517 L 105.046875 517 Z M 105.046875 214 " clip-rule="nonzero"/></clipPath><clipPath id="cba1b1f8f8"><path d="M 452 378 L 705 378 L 705 629.660156 L 452 629.660156 Z M 452 378 " clip-rule="nonzero"/></clipPath><clipPath id="52cb3537b2"><path d="M 577 499 L 705 499 L 705 629.660156 L 577 629.660156 Z M 577 499 " clip-rule="nonzero"/></clipPath><clipPath id="c417642e1a"><path d="M 484 385 L 705 385 L 705 629.660156 L 484 629.660156 Z M 484 385 " clip-rule="nonzero"/></clipPath></defs><path fill="#9e3731" d="M 657.363281 201.753906 C 636 180.386719 547.914062 184.5625 489.820312 240.960938 C 433.417969 299.050781 429.25 387.140625 450.613281 408.5 C 474.496094 432.382812 560.113281 425.75 618.160156 369.304688 C 674.609375 311.257812 681.242188 225.640625 657.363281 201.753906 " fill-opacity="1" fill-rule="nonzero"/><path fill="#d0d0d2" d="M 594.921875 190.800781 C 580.777344 192.546875 565.5 196.226562 550.183594 202.183594 L 656.933594 308.9375 C 663.082031 293.808594 666.953125 278.726562 668.808594 264.699219 L 594.921875 190.800781 " fill-opacity="1" fill-rule="nonzero"/><path fill="#d0d0d2" d="M 513.554688 419.953125 C 527.585938 418.09375 542.671875 414.222656 557.796875 408.074219 L 451.046875 301.320312 C 445.082031 316.640625 441.410156 331.921875 439.664062 346.054688 L 513.554688 419.953125 " fill-opacity="1" fill-rule="nonzero"/><path fill="#fcfcfe" d="M 560.613281 276.464844 C 557.367188 273.210938 557.367188 267.945312 560.613281 264.699219 C 563.863281 261.453125 569.132812 261.453125 572.378906 264.699219 L 594.417969 286.738281 C 597.667969 289.988281 597.667969 295.257812 594.417969 298.503906 C 591.171875 301.753906 585.902344 301.753906 582.65625 298.503906 L 560.613281 276.464844 " fill-opacity="1" fill-rule="nonzero"/><path fill="#fcfcfe" d="M 548.855469 288.230469 C 545.601562 284.980469 545.601562 279.710938 548.855469 276.464844 C 552.101562 273.214844 557.367188 273.210938 560.613281 276.464844 L 582.65625 298.503906 C 585.902344 301.753906 585.902344 307.023438 582.65625 310.265625 C 579.40625 313.519531 574.136719 313.519531 570.890625 310.265625 L 548.855469 288.230469 " fill-opacity="1" fill-rule="nonzero"/><path fill="#fcfcfe" d="M 537.089844 299.988281 C 533.84375 296.742188 533.84375 291.476562 537.089844 288.230469 C 540.332031 284.980469 545.601562 284.980469 548.855469 288.230469 L 570.890625 310.265625 C 574.136719 313.519531 574.136719 318.78125 570.890625 322.027344 C 567.640625 325.277344 562.378906 325.277344 559.128906 322.027344 L 537.089844 299.988281 " fill-opacity="1" fill-rule="nonzero"/><path fill="#fcfcfe" d="M 525.320312 311.753906 C 522.070312 308.511719 522.070312 303.242188 525.320312 299.988281 C 528.566406 296.742188 533.84375 296.742188 537.089844 299.988281 L 559.128906 322.027344 C 562.378906 325.277344 562.378906 330.550781 559.128906 333.800781 C 555.875 337.046875 550.609375 337.046875 547.359375 333.800781 L 525.320312 311.753906 " fill-opacity="1" fill-rule="nonzero"/><path fill="#fcfcfe" d="M 513.558594 323.523438 C 510.304688 320.277344 510.3125 315 513.558594 311.753906 C 516.808594 308.503906 522.070312 308.511719 525.320312 311.753906 L 547.359375 333.800781 C 550.609375 337.046875 550.609375 342.3125 547.359375 345.566406 C 544.117188 348.804688 538.847656 348.804688 535.601562 345.558594 L 513.558594 323.523438 " fill-opacity="1" fill-rule="nonzero"/><path fill="#d3d2d2" d="M 644.128906 214.988281 C 644.128906 214.988281 643.464844 215.730469 642.222656 217.128906 C 640.972656 218.519531 639.171875 220.585938 636.8125 223.164062 C 632.125 228.332031 625.394531 235.691406 617.195312 244.398438 C 613.105469 248.757812 608.679688 253.476562 603.921875 258.414062 C 599.191406 263.359375 594.214844 268.597656 588.988281 273.933594 C 583.761719 279.269531 578.433594 284.851562 572.894531 290.40625 C 567.371094 295.976562 561.761719 301.640625 556.152344 307.292969 C 550.492188 312.902344 544.835938 318.511719 539.265625 324.039062 C 533.722656 329.582031 528.136719 334.90625 522.800781 340.132812 C 517.464844 345.363281 512.230469 350.335938 507.28125 355.074219 C 502.34375 359.824219 497.625 364.257812 493.265625 368.347656 C 484.558594 376.542969 477.199219 383.269531 472.027344 387.960938 C 469.457031 390.308594 467.386719 392.117188 465.992188 393.367188 C 464.59375 394.605469 463.851562 395.269531 463.851562 395.269531 C 463.851562 395.269531 464.515625 394.527344 465.757812 393.132812 C 467.007812 391.738281 468.808594 389.671875 471.164062 387.09375 C 475.855469 381.917969 482.578125 374.566406 490.777344 365.859375 C 494.863281 361.492188 499.296875 356.773438 504.050781 351.84375 C 508.78125 346.894531 513.757812 341.652344 518.984375 336.324219 C 524.210938 330.988281 529.542969 325.394531 535.085938 319.851562 C 540.605469 314.28125 546.21875 308.625 551.828125 302.964844 C 557.484375 297.355469 563.144531 291.753906 568.710938 286.226562 C 574.269531 280.691406 579.847656 275.359375 585.183594 270.128906 C 590.519531 264.894531 595.757812 259.925781 600.707031 255.195312 C 605.640625 250.441406 610.359375 246.015625 614.71875 241.921875 C 623.429688 233.722656 630.785156 227 635.953125 222.304688 C 638.53125 219.949219 640.59375 218.148438 641.988281 216.898438 C 643.386719 215.652344 644.128906 214.988281 644.128906 214.988281 " fill-opacity="1" fill-rule="nonzero"/><path fill="#b2b1b1" d="M 450.585938 408.46875 C 450.574219 408.457031 450.5625 408.449219 450.554688 408.4375 C 450.5625 408.445312 450.574219 408.457031 450.585938 408.46875 M 450.546875 408.433594 C 450.316406 408.199219 450.089844 407.953125 449.859375 407.703125 C 450.089844 407.953125 450.316406 408.199219 450.546875 408.433594 M 449.84375 407.683594 C 449.84375 407.683594 449.84375 407.683594 449.835938 407.679688 C 449.835938 407.683594 449.84375 407.683594 449.84375 407.683594 M 604.921875 380.972656 C 609.460938 377.347656 613.882812 373.460938 618.160156 369.304688 C 618.1875 369.273438 618.21875 369.25 618.242188 369.21875 C 618.210938 369.25 618.1875 369.273438 618.160156 369.304688 C 613.882812 373.460938 609.460938 377.347656 604.921875 380.972656 M 618.25 369.214844 C 618.277344 369.183594 618.296875 369.160156 618.324219 369.136719 C 618.300781 369.160156 618.273438 369.191406 618.25 369.214844 M 618.332031 369.128906 C 618.355469 369.101562 618.386719 369.078125 618.410156 369.046875 C 618.378906 369.078125 618.355469 369.101562 618.332031 369.128906 M 618.410156 369.046875 C 618.441406 369.015625 618.464844 368.992188 618.488281 368.964844 C 618.464844 368.992188 618.441406 369.015625 618.410156 369.046875 M 618.492188 368.964844 C 631.515625 355.5 641.863281 340.578125 649.785156 325.289062 C 641.867188 340.570312 631.515625 355.5 618.492188 368.964844 M 649.800781 325.277344 C 649.8125 325.253906 649.824219 325.230469 649.835938 325.203125 C 649.824219 325.230469 649.8125 325.253906 649.800781 325.277344 " fill-opacity="1" fill-rule="nonzero"/><path fill="#6e2520" d="M 483.910156 421.03125 C 469.191406 419.617188 457.410156 415.292969 450.613281 408.5 C 450.601562 408.488281 450.589844 408.476562 450.585938 408.46875 C 450.574219 408.457031 450.5625 408.445312 450.554688 408.4375 C 450.554688 408.4375 450.554688 408.4375 450.546875 408.433594 C 450.316406 408.199219 450.089844 407.953125 449.859375 407.703125 C 449.855469 407.699219 449.847656 407.691406 449.84375 407.683594 C 449.84375 407.683594 449.835938 407.683594 449.835938 407.679688 C 449.832031 407.667969 449.820312 407.65625 449.808594 407.644531 C 448.789062 406.511719 447.839844 405.222656 446.953125 403.792969 C 460.273438 401.398438 472.621094 396.902344 483.917969 390.316406 L 499.59375 405.988281 C 496.324219 408.625 493.1875 411.421875 490.199219 414.367188 C 489.945312 414.617188 489.695312 414.867188 489.445312 415.121094 C 487.535156 417.027344 485.6875 419 483.910156 421.03125 M 441.683594 390.859375 C 440.972656 388.144531 440.378906 385.226562 439.914062 382.132812 C 442.910156 380.363281 445.769531 378.394531 448.484375 376.25 C 455.859375 377.59375 463.839844 378.417969 472.25 378.648438 L 473.898438 380.296875 C 464.019531 385.554688 453.269531 389.085938 441.683594 390.859375 M 535.457031 385.734375 L 522.8125 373.097656 C 542.878906 368.1875 563.367188 359.871094 582.511719 347.390625 C 605.949219 331.148438 624.167969 310.527344 637.238281 289.238281 L 656.933594 308.9375 C 663.082031 293.808594 666.953125 278.726562 668.808594 264.699219 L 655.199219 251.085938 C 660.453125 235.375 662.785156 220.550781 662.226562 208.238281 C 675.453125 230.816406 673.449219 279.597656 649.835938 325.203125 C 649.824219 325.230469 649.8125 325.253906 649.800781 325.277344 C 649.792969 325.277344 649.792969 325.28125 649.785156 325.289062 C 641.863281 340.578125 631.515625 355.5 618.492188 368.964844 L 618.488281 368.964844 C 618.464844 368.992188 618.441406 369.015625 618.410156 369.046875 C 618.386719 369.078125 618.355469 369.101562 618.332031 369.128906 C 618.324219 369.128906 618.324219 369.128906 618.324219 369.136719 C 618.296875 369.160156 618.277344 369.183594 618.25 369.214844 L 618.242188 369.21875 C 618.21875 369.25 618.1875 369.273438 618.160156 369.304688 C 613.882812 373.460938 609.460938 377.347656 604.921875 380.972656 C 596.386719 379.148438 587.542969 378.191406 578.460938 378.191406 C 563.359375 378.191406 548.871094 380.855469 535.457031 385.734375 " fill-opacity="1" fill-rule="nonzero"/><path fill="#949294" d="M 656.933594 308.9375 L 637.238281 289.238281 C 645.066406 276.492188 651.050781 263.515625 655.199219 251.085938 L 668.808594 264.699219 C 666.953125 278.726562 663.082031 293.808594 656.933594 308.9375 " fill-opacity="1" fill-rule="nonzero"/><path fill="#949294" d="M 499.59375 405.988281 L 483.917969 390.316406 C 490.371094 386.554688 496.484375 382.109375 502.25 376.988281 C 509.007812 376.074219 515.886719 374.789062 522.8125 373.097656 L 535.457031 385.734375 C 522.339844 390.507812 510.253906 397.398438 499.59375 405.988281 M 473.898438 380.296875 L 472.25 378.648438 C 473.738281 378.6875 475.238281 378.710938 476.753906 378.710938 C 475.808594 379.257812 474.855469 379.785156 473.898438 380.296875 " fill-opacity="1" fill-rule="nonzero"/><path fill="#c68878" d="M 498.558594 239.554688 C 514.75 225.945312 532.847656 216.191406 550.625 209.769531 C 550.492188 212.757812 550.289062 216.4375 549.960938 220.683594 C 532.765625 223.980469 515.167969 230.007812 498.558594 239.554688 M 651.449219 236.851562 C 647.363281 232.878906 641.390625 229.265625 633.984375 226.277344 C 634.996094 225.164062 635.941406 224.128906 636.8125 223.164062 C 639.171875 220.585938 640.972656 218.519531 642.222656 217.128906 C 643.082031 216.160156 643.664062 215.507812 643.945312 215.199219 C 647.476562 220.75 650.027344 228.160156 651.449219 236.851562 M 632.316406 225.617188 C 631.019531 225.121094 629.683594 224.644531 628.308594 224.1875 L 604.023438 199.90625 C 620.054688 200.019531 632.8125 203.46875 639.332031 209.5625 C 641.011719 211.125 642.542969 213.007812 643.925781 215.175781 C 643.613281 215.445312 642.960938 216.03125 641.988281 216.898438 C 640.59375 218.148438 638.53125 219.949219 635.953125 222.304688 C 634.839844 223.316406 633.625 224.421875 632.316406 225.617188 M 563.835938 218.597656 C 563.890625 217.699219 563.945312 216.832031 563.992188 215.996094 L 566.339844 218.339844 C 565.507812 218.417969 564.667969 218.507812 563.835938 218.597656 " fill-opacity="1" fill-rule="nonzero"/><path fill="#e7e6e8" d="M 628.308594 224.1875 C 615.851562 220.054688 600.25 217.523438 583.167969 217.523438 C 577.695312 217.523438 572.0625 217.789062 566.339844 218.339844 L 563.992188 215.996094 C 564.246094 211.578125 564.359375 207.984375 564.40625 205.414062 C 578.289062 201.652344 591.609375 199.90625 603.246094 199.90625 C 603.503906 199.90625 603.769531 199.90625 604.023438 199.90625 L 628.308594 224.1875 " fill-opacity="1" fill-rule="nonzero"/><path fill="#e8e8e9" d="M 633.984375 226.277344 C 633.433594 226.046875 632.878906 225.832031 632.316406 225.617188 C 633.625 224.421875 634.839844 223.316406 635.953125 222.304688 C 638.53125 219.949219 640.59375 218.148438 641.988281 216.898438 C 642.960938 216.03125 643.613281 215.445312 643.925781 215.175781 C 643.929688 215.179688 643.9375 215.191406 643.945312 215.199219 C 643.664062 215.507812 643.082031 216.160156 642.222656 217.128906 C 640.972656 218.519531 639.171875 220.585938 636.8125 223.164062 C 635.941406 224.128906 634.996094 225.164062 633.984375 226.277344 " fill-opacity="1" fill-rule="nonzero"/><g clip-path="url(#5298333a5c)"><path fill="#f25738" d="M 408.429688 365.6875 C 408.429688 449.238281 340.691406 516.96875 257.148438 516.96875 C 173.601562 516.96875 105.871094 449.238281 105.871094 365.6875 C 105.871094 282.132812 173.601562 214.402344 257.148438 214.402344 C 340.691406 214.402344 408.429688 282.132812 408.429688 365.6875 " fill-opacity="1" fill-rule="nonzero"/></g><path fill="#712616" d="M 291.492188 512.816406 C 291.492188 512.816406 289.835938 512.871094 286.742188 512.972656 C 283.652344 513.019531 279.039062 512.929688 273.242188 512.226562 C 267.464844 511.410156 260.433594 510.046875 252.699219 507.273438 C 244.964844 504.550781 236.5 500.53125 228.074219 494.847656 C 219.574219 489.257812 211.210938 481.925781 203.492188 473.160156 C 195.800781 464.386719 188.71875 454.171875 183 442.769531 C 177.277344 431.382812 172.550781 418.976562 169.601562 405.902344 L 169.023438 403.460938 L 168.539062 400.988281 C 168.214844 399.335938 167.898438 397.683594 167.582031 396.035156 C 167.109375 392.695312 166.472656 389.371094 166.167969 385.996094 C 165.308594 379.28125 165.066406 372.472656 164.929688 365.6875 L 165.050781 360.621094 L 165.117188 358.148438 L 165.277344 355.578125 L 165.617188 350.425781 L 166.164062 345.367188 C 166.46875 341.992188 167.101562 338.667969 167.574219 335.332031 C 167.890625 333.675781 168.207031 332.023438 168.53125 330.371094 L 169.015625 327.910156 L 169.597656 325.460938 C 172.519531 312.382812 177.269531 299.980469 182.988281 288.59375 C 188.710938 277.195312 195.777344 266.964844 203.480469 258.199219 C 211.207031 249.433594 219.5625 242.097656 228.0625 236.503906 C 236.5 230.828125 244.957031 226.800781 252.699219 224.082031 C 260.433594 221.3125 267.464844 219.941406 273.242188 219.132812 C 279.050781 218.429688 283.632812 218.339844 286.730469 218.394531 C 289.835938 218.496094 291.492188 218.554688 291.492188 218.554688 C 291.492188 218.554688 289.847656 218.710938 286.765625 219.003906 C 283.691406 219.296875 279.207031 220.007812 273.625 221.234375 C 268.0625 222.597656 261.429688 224.65625 254.222656 227.886719 C 247.027344 231.136719 239.324219 235.648438 231.652344 241.503906 C 229.707031 242.925781 227.882812 244.597656 225.9375 246.167969 C 224.109375 247.886719 222.171875 249.546875 220.359375 251.414062 C 218.546875 253.273438 216.65625 255.105469 214.898438 257.132812 C 213.0625 259.082031 211.363281 261.207031 209.609375 263.335938 C 206.207031 267.664062 202.886719 272.253906 199.910156 277.21875 C 198.359375 279.652344 196.964844 282.222656 195.5 284.785156 C 194.753906 286.050781 194.136719 287.402344 193.449219 288.71875 C 192.777344 290.054688 192.0625 291.363281 191.464844 292.738281 C 188.878906 298.15625 186.671875 303.863281 184.652344 309.695312 C 184.167969 311.160156 183.734375 312.648438 183.269531 314.132812 C 182.796875 315.609375 182.347656 317.101562 181.976562 318.621094 C 181.570312 320.125 181.15625 321.632812 180.738281 323.148438 C 180.390625 324.679688 180.039062 326.210938 179.6875 327.746094 L 179.160156 330.050781 L 178.730469 332.382812 C 178.441406 333.9375 178.15625 335.5 177.867188 337.058594 C 177.46875 340.207031 176.886719 343.339844 176.636719 346.523438 L 176.167969 351.289062 L 175.898438 356.007812 C 175.65625 359.039062 175.746094 362.652344 175.644531 365.6875 C 175.71875 372.085938 175.875 378.503906 176.628906 384.84375 C 176.882812 388.023438 177.460938 391.160156 177.867188 394.304688 C 178.15625 395.871094 178.4375 397.429688 178.722656 398.984375 L 179.152344 401.316406 L 179.679688 403.617188 C 180.03125 405.15625 180.386719 406.6875 180.734375 408.21875 C 181.144531 409.730469 181.558594 411.246094 181.964844 412.746094 C 182.335938 414.265625 182.785156 415.761719 183.257812 417.238281 C 183.71875 418.722656 184.152344 420.203125 184.644531 421.675781 C 186.660156 427.507812 188.867188 433.207031 191.449219 438.625 C 194.027344 444.046875 196.847656 449.253906 199.890625 454.164062 C 202.875 459.117188 206.195312 463.710938 209.605469 468.042969 C 211.351562 470.164062 213.050781 472.292969 214.886719 474.238281 C 216.644531 476.265625 218.535156 478.109375 220.347656 479.96875 C 222.160156 481.828125 224.097656 483.484375 225.925781 485.207031 C 227.871094 486.78125 229.699219 488.449219 231.644531 489.875 C 239.316406 495.722656 247.023438 500.246094 254.21875 503.492188 C 261.429688 506.714844 268.0625 508.78125 273.625 510.136719 C 279.21875 511.359375 283.664062 512.070312 286.761719 512.363281 C 289.847656 512.65625 291.492188 512.816406 291.492188 512.816406 " fill-opacity="1" fill-rule="nonzero"/><path fill="#712616" d="M 118.535156 426.300781 L 123.527344 427.609375 L 126.015625 428.277344 L 128.53125 428.824219 L 133.511719 429.949219 L 138.546875 430.851562 C 141.886719 431.503906 145.277344 431.886719 148.632812 432.386719 C 152 432.804688 155.382812 433.082031 158.753906 433.386719 C 162.144531 433.535156 165.503906 433.878906 168.890625 433.929688 C 172.28125 433.953125 175.648438 434.160156 179.035156 434.015625 L 184.101562 433.90625 L 185.367188 433.902344 L 185.683594 433.894531 L 185.929688 433.882812 L 186.578125 433.847656 L 189.140625 433.722656 L 194.285156 433.46875 C 195.996094 433.378906 197.636719 433.203125 199.308594 433.070312 L 204.316406 432.632812 L 209.347656 432.027344 C 211.019531 431.800781 212.703125 431.671875 214.371094 431.425781 L 219.382812 430.695312 C 226.058594 429.707031 232.710938 428.507812 239.3125 427.128906 C 242.625 426.492188 245.898438 425.640625 249.191406 424.921875 C 252.484375 424.183594 255.738281 423.265625 259.007812 422.441406 L 268.757812 419.714844 L 278.421875 416.691406 C 281.609375 415.59375 284.828125 414.570312 288.003906 413.433594 C 291.164062 412.242188 294.363281 411.15625 297.484375 409.886719 C 303.777344 407.453125 310.007812 404.867188 316.128906 402.039062 L 320.734375 399.945312 L 325.265625 397.714844 C 328.3125 396.261719 331.265625 394.652344 334.257812 393.097656 C 337.253906 391.554688 340.128906 389.8125 343.078125 388.179688 C 345.949219 386.433594 348.886719 384.773438 351.699219 382.929688 C 357.378906 379.328125 362.816406 375.382812 368.097656 371.242188 C 373.296875 367.023438 378.421875 362.640625 382.890625 357.671875 C 387.449219 352.789062 391.5625 347.46875 394.824219 341.609375 C 398.09375 335.78125 400.402344 329.308594 400.976562 322.449219 L 400.976562 322.441406 L 401.019531 322.375 L 401.941406 321.820312 L 401.121094 322.523438 L 401.164062 322.449219 L 401.226562 327.644531 L 400.617188 332.847656 L 399.375 337.957031 C 398.855469 339.632812 398.214844 341.269531 397.632812 342.9375 C 394.976562 349.46875 391.199219 355.488281 386.992188 361.128906 C 382.726562 366.746094 377.792969 371.761719 372.726562 376.621094 C 370.144531 378.980469 367.519531 381.320312 364.761719 383.480469 C 362.070312 385.722656 359.253906 387.792969 356.441406 389.875 C 353.636719 391.96875 350.707031 393.875 347.835938 395.867188 C 344.863281 397.691406 341.941406 399.628906 338.917969 401.363281 C 335.894531 403.109375 332.894531 404.898438 329.789062 406.488281 L 325.164062 408.941406 L 320.476562 411.257812 C 314.226562 414.34375 307.820312 417.101562 301.378906 419.742188 C 298.15625 421.070312 294.867188 422.21875 291.613281 423.464844 C 288.339844 424.652344 285.03125 425.75 281.738281 426.886719 L 271.75 429.9375 C 268.386719 430.839844 265.042969 431.824219 261.667969 432.664062 C 254.898438 434.3125 248.109375 435.863281 241.246094 437.070312 C 234.390625 438.285156 227.5 439.34375 220.566406 440.027344 C 217.097656 440.390625 213.640625 440.761719 210.160156 440.921875 L 204.9375 441.238281 L 199.675781 441.371094 C 197.929688 441.40625 196.152344 441.492188 194.429688 441.480469 L 189.292969 441.417969 L 186.714844 441.390625 L 186.074219 441.378906 L 185.679688 441.371094 L 185.351562 441.359375 L 184.050781 441.292969 L 178.832031 440.984375 C 171.878906 440.527344 164.960938 439.671875 158.105469 438.566406 C 154.691406 437.882812 151.277344 437.238281 147.894531 436.441406 C 144.535156 435.558594 141.144531 434.851562 137.859375 433.714844 C 131.203125 431.796875 124.765625 429.144531 118.535156 426.300781 " fill-opacity="1" fill-rule="nonzero"/><path fill="#712616" d="M 352.492188 248.238281 L 344.429688 247.609375 C 341.746094 247.449219 339.066406 247.402344 336.40625 247.257812 C 334.683594 247.203125 332.953125 247.214844 331.230469 247.226562 C 330.28125 247.234375 329.335938 247.238281 328.390625 247.234375 C 325.726562 247.316406 323.074219 247.507812 320.421875 247.609375 C 317.785156 247.890625 315.140625 248.09375 312.535156 248.472656 C 309.9375 248.945312 307.316406 249.230469 304.777344 249.902344 L 300.953125 250.761719 L 297.203125 251.863281 L 295.332031 252.414062 L 293.511719 253.09375 C 292.304688 253.550781 291.078125 253.976562 289.882812 254.460938 C 285.128906 256.480469 280.652344 259.003906 276.4375 261.847656 C 272.273438 264.789062 268.46875 268.179688 265.050781 271.925781 C 261.585938 275.644531 258.695312 279.878906 256.03125 284.226562 C 253.351562 288.574219 251.054688 293.1875 249.097656 297.976562 C 247.128906 302.757812 245.390625 307.65625 243.960938 312.691406 C 242.535156 317.722656 241.171875 322.78125 240.046875 327.9375 C 238.910156 333.09375 237.902344 338.292969 236.984375 343.539062 L 236.316406 347.472656 L 236.148438 348.460938 L 236.003906 349.183594 L 235.902344 349.679688 L 235.492188 351.652344 C 235.386719 352.257812 235.136719 353.070312 234.898438 353.855469 L 234.175781 356.199219 C 233.578125 357.660156 233.050781 359.113281 232.320312 360.5 C 231.597656 361.898438 230.847656 363.28125 229.914062 364.554688 C 229.074219 365.890625 228.027344 367.066406 227.027344 368.28125 C 224.890625 370.566406 222.582031 372.71875 220.011719 374.40625 C 217.46875 376.140625 214.789062 377.613281 212.03125 378.753906 C 209.28125 379.949219 206.46875 380.871094 203.648438 381.589844 C 197.988281 383.035156 192.277344 383.765625 186.605469 383.941406 C 183.769531 384.019531 180.941406 383.980469 178.125 383.828125 C 175.265625 383.660156 172.574219 383.4375 169.542969 382.972656 L 170.835938 382.996094 C 169.847656 383.078125 169.171875 383.097656 168.375 383.109375 C 167.617188 383.121094 166.855469 383.109375 166.109375 383.078125 C 164.609375 383.03125 163.125 382.898438 161.640625 382.730469 C 158.679688 382.375 155.75 381.75 152.878906 380.882812 C 149.988281 380.0625 147.207031 378.828125 144.539062 377.390625 C 143.226562 376.632812 141.910156 375.882812 140.6875 374.96875 C 139.410156 374.136719 138.261719 373.132812 137.105469 372.152344 C 135.941406 371.175781 134.941406 370.015625 133.863281 368.957031 C 132.917969 367.773438 131.914062 366.628906 131.054688 365.398438 C 129.335938 362.921875 127.867188 360.316406 126.6875 357.605469 C 126.160156 356.230469 125.503906 354.890625 125.101562 353.488281 C 124.695312 352.089844 124.253906 350.695312 123.90625 349.292969 L 123.0625 345.042969 C 122.816406 343.632812 122.714844 342.210938 122.535156 340.796875 C 122.332031 339.378906 122.273438 337.960938 122.230469 336.550781 C 122.195312 335.144531 122.082031 333.734375 122.117188 332.328125 C 122.238281 329.523438 122.1875 326.710938 122.542969 323.949219 L 122.980469 319.804688 C 123.164062 318.429688 123.414062 317.0625 123.628906 315.695312 C 123.859375 314.332031 124.054688 312.960938 124.320312 311.609375 L 125.191406 307.574219 C 125.492188 306.226562 125.761719 304.875 126.082031 303.539062 L 127.175781 299.570312 L 128.277344 295.609375 C 128.671875 294.300781 129.117188 293.003906 129.527344 291.699219 C 130.390625 289.097656 131.15625 286.476562 132.179688 283.941406 L 135.089844 276.296875 L 133.238281 284.25 C 132.574219 286.890625 132.128906 289.574219 131.550781 292.21875 C 131.285156 293.546875 130.992188 294.875 130.75 296.203125 L 130.101562 300.210938 L 129.449219 304.203125 C 129.253906 305.539062 129.117188 306.878906 128.941406 308.210938 L 128.453125 312.214844 C 128.320312 313.554688 128.253906 314.886719 128.152344 316.222656 C 128.0625 317.554688 127.941406 318.890625 127.882812 320.222656 L 127.835938 324.21875 C 127.703125 326.875 127.929688 329.511719 128.007812 332.144531 C 128.070312 333.457031 128.277344 334.757812 128.398438 336.054688 C 128.53125 337.359375 128.671875 338.652344 128.953125 339.925781 C 129.210938 341.191406 129.390625 342.480469 129.707031 343.722656 L 130.71875 347.417969 C 131.113281 348.628906 131.597656 349.800781 132.011719 350.984375 C 132.417969 352.179688 133.046875 353.261719 133.535156 354.410156 C 134.640625 356.636719 135.96875 358.707031 137.453125 360.625 C 138.195312 361.589844 139.054688 362.445312 139.839844 363.351562 C 140.753906 364.136719 141.574219 365.023438 142.539062 365.746094 C 143.496094 366.46875 144.425781 367.214844 145.472656 367.816406 C 146.460938 368.492188 147.550781 369.015625 148.621094 369.566406 C 150.804688 370.570312 153.050781 371.476562 155.414062 372.078125 C 157.769531 372.707031 160.195312 373.148438 162.640625 373.367188 C 163.867188 373.46875 165.09375 373.539062 166.304688 373.539062 C 166.917969 373.539062 167.519531 373.53125 168.117188 373.503906 C 168.679688 373.484375 169.363281 373.425781 169.734375 373.382812 C 170.097656 373.339844 170.457031 373.339844 170.804688 373.382812 L 171.027344 373.414062 C 173.320312 373.6875 176 373.851562 178.519531 373.910156 C 181.066406 373.96875 183.621094 373.921875 186.164062 373.765625 C 191.230469 373.46875 196.253906 372.828125 201.003906 371.527344 C 203.378906 370.902344 205.6875 370.117188 207.863281 369.144531 C 210.066406 368.203125 212.105469 367.039062 213.988281 365.722656 C 215.921875 364.449219 217.527344 362.855469 219.054688 361.222656 C 220.5 359.519531 221.757812 357.671875 222.769531 355.671875 C 223.308594 354.691406 223.691406 353.597656 224.144531 352.582031 L 224.628906 351.078125 C 224.796875 350.582031 224.976562 350.128906 225.105469 349.40625 L 225.542969 347.4375 L 225.652344 346.941406 L 225.707031 346.695312 C 225.730469 346.570312 225.710938 346.660156 225.699219 346.753906 C 225.679688 346.820312 225.667969 346.894531 225.675781 346.863281 L 225.6875 346.804688 L 225.707031 346.675781 L 225.890625 345.671875 L 226.613281 341.664062 C 227.605469 336.324219 228.695312 330.972656 229.933594 325.636719 C 231.179688 320.292969 232.589844 314.964844 234.304688 309.707031 C 235.988281 304.4375 238.007812 299.242188 240.292969 294.144531 C 242.566406 289.046875 245.234375 284.078125 248.335938 279.359375 C 251.460938 274.664062 254.964844 270.164062 259.03125 266.183594 C 263.074219 262.191406 267.53125 258.617188 272.335938 255.589844 C 277.179688 252.640625 282.347656 250.308594 287.640625 248.472656 C 288.96875 248.035156 290.320312 247.671875 291.652344 247.269531 L 293.664062 246.691406 L 295.703125 246.234375 L 299.777344 245.355469 L 303.878906 244.757812 C 306.613281 244.304688 309.371094 244.242188 312.101562 244.011719 C 314.847656 243.859375 317.585938 243.902344 320.320312 243.855469 C 323.046875 243.980469 325.769531 244.058594 328.480469 244.292969 C 331.183594 244.601562 333.886719 244.824219 336.578125 245.207031 C 339.257812 245.632812 341.941406 246.019531 344.585938 246.535156 L 352.492188 248.238281 " fill-opacity="1" fill-rule="nonzero"/><path fill="#a93b25" d="M 375.867188 392.1875 C 370.449219 392.097656 365.1875 391.667969 360.078125 390.894531 C 360.898438 389.070312 361.679688 387.222656 362.429688 385.363281 C 363.144531 384.800781 363.859375 384.226562 364.558594 383.648438 C 368.164062 385.585938 371.9375 387.246094 375.855469 388.597656 L 375.867188 392.1875 " fill-opacity="1" fill-rule="nonzero"/><path fill="#541b0f" d="M 362.429688 385.363281 C 362.746094 384.574219 363.054688 383.785156 363.363281 382.988281 C 363.757812 383.210938 364.15625 383.433594 364.558594 383.648438 C 363.859375 384.226562 363.144531 384.800781 362.429688 385.363281 " fill-opacity="1" fill-rule="nonzero"/><path fill="#a93b25" d="M 244.929688 513.476562 C 241.410156 508.117188 236.957031 503.246094 231.597656 499.109375 C 220.84375 490.8125 208.136719 486.796875 195.53125 486.796875 C 187.765625 486.796875 180.046875 488.316406 172.835938 491.300781 C 156.738281 480.476562 142.835938 466.636719 131.9375 450.59375 C 154.03125 466.984375 180.738281 477.503906 209.765625 479.832031 C 215.65625 485.691406 221.828125 490.742188 228.074219 494.847656 C 235.898438 500.117188 243.738281 503.964844 251.011719 506.664062 C 248.910156 508.683594 246.933594 510.878906 245.101562 513.257812 C 245.042969 513.332031 244.988281 513.402344 244.929688 513.476562 M 254.460938 503.601562 C 254.378906 503.5625 254.300781 503.527344 254.21875 503.492188 C 247.023438 500.246094 239.316406 495.722656 231.644531 489.875 C 229.699219 488.449219 227.871094 486.78125 225.925781 485.207031 C 224.210938 483.59375 222.398438 482.03125 220.6875 480.308594 C 221.117188 480.316406 221.546875 480.316406 221.980469 480.316406 C 278.410156 480.316406 327.628906 449.410156 353.636719 403.613281 C 360.777344 404.953125 368.207031 405.683594 375.910156 405.796875 L 376.046875 453.382812 L 365.570312 453.382812 L 365.570312 471.1875 C 361.949219 474.90625 358.140625 478.4375 354.15625 481.769531 L 343.511719 481.769531 L 343.511719 489.910156 C 337.773438 493.898438 331.757812 497.503906 325.484375 500.6875 C 315.289062 493.652344 303.585938 490.238281 291.957031 490.238281 C 278.523438 490.238281 265.199219 494.796875 254.460938 503.601562 " fill-opacity="1" fill-rule="nonzero"/><path fill="#541b0f" d="M 251.011719 506.664062 C 243.738281 503.964844 235.898438 500.117188 228.074219 494.847656 C 221.828125 490.742188 215.65625 485.691406 209.765625 479.832031 C 213.371094 480.117188 217.007812 480.277344 220.6875 480.308594 C 222.398438 482.03125 224.210938 483.59375 225.925781 485.207031 C 227.871094 486.78125 229.699219 488.449219 231.644531 489.875 C 239.316406 495.722656 247.023438 500.246094 254.21875 503.492188 C 254.300781 503.527344 254.378906 503.5625 254.460938 503.601562 C 253.277344 504.570312 252.128906 505.589844 251.011719 506.664062 " fill-opacity="1" fill-rule="nonzero"/><path fill="#f47552" d="M 136.191406 382.972656 C 133.859375 382.972656 131.328125 381.964844 128.5 379.765625 C 114.929688 369.238281 113.640625 346.320312 122.902344 320.546875 L 122.542969 323.949219 C 122.1875 326.710938 122.238281 329.523438 122.117188 332.328125 C 122.082031 333.734375 122.195312 335.144531 122.230469 336.550781 C 122.273438 337.960938 122.332031 339.378906 122.535156 340.796875 C 122.714844 342.210938 122.816406 343.632812 123.0625 345.042969 L 123.90625 349.292969 C 124.253906 350.695312 124.695312 352.089844 125.101562 353.488281 C 125.503906 354.890625 126.160156 356.230469 126.6875 357.605469 C 127.867188 360.316406 129.335938 362.921875 131.054688 365.398438 C 131.914062 366.628906 132.917969 367.773438 133.863281 368.957031 C 134.941406 370.015625 135.941406 371.175781 137.105469 372.152344 C 138.261719 373.132812 139.410156 374.136719 140.6875 374.96875 C 141.910156 375.882812 143.226562 376.632812 144.539062 377.390625 C 144.707031 377.480469 144.871094 377.570312 145.039062 377.652344 C 142.273438 381.039062 139.421875 382.972656 136.191406 382.972656 M 149.941406 370.160156 C 149.5 369.96875 149.058594 369.769531 148.621094 369.566406 C 147.550781 369.015625 146.460938 368.492188 145.472656 367.816406 C 144.425781 367.214844 143.496094 366.46875 142.539062 365.746094 C 141.574219 365.023438 140.753906 364.136719 139.839844 363.351562 C 139.054688 362.445312 138.195312 361.589844 137.453125 360.625 C 135.96875 358.707031 134.640625 356.636719 133.535156 354.410156 C 133.046875 353.261719 132.417969 352.179688 132.011719 350.984375 C 131.597656 349.800781 131.113281 348.628906 130.71875 347.417969 L 129.707031 343.722656 C 129.390625 342.480469 129.210938 341.191406 128.953125 339.925781 C 128.671875 338.652344 128.53125 337.359375 128.398438 336.054688 C 128.277344 334.757812 128.070312 333.457031 128.007812 332.144531 C 127.929688 329.511719 127.703125 326.875 127.835938 324.21875 L 127.882812 320.222656 C 127.941406 318.890625 128.0625 317.554688 128.152344 316.222656 C 128.253906 314.886719 128.320312 313.554688 128.453125 312.214844 L 128.941406 308.210938 C 129.050781 307.394531 129.140625 306.574219 129.242188 305.746094 C 133.925781 296.332031 139.886719 286.789062 147.066406 277.535156 C 170.785156 246.972656 200.902344 228.410156 223.179688 228.410156 C 228.128906 228.410156 232.691406 229.332031 236.710938 231.234375 C 233.84375 232.808594 230.949219 234.554688 228.0625 236.503906 C 219.5625 242.097656 211.207031 249.433594 203.480469 258.199219 C 195.777344 266.964844 188.710938 277.195312 182.988281 288.59375 C 177.269531 299.980469 172.519531 312.382812 169.597656 325.460938 L 169.015625 327.910156 L 168.53125 330.371094 C 168.296875 331.570312 168.070312 332.757812 167.835938 333.957031 C 160.402344 347.945312 155.039062 361.039062 149.941406 370.160156 M 186.164062 305.460938 C 187.773438 301.101562 189.511719 296.84375 191.464844 292.738281 C 192.0625 291.363281 192.777344 290.054688 193.449219 288.71875 C 194.136719 287.402344 194.753906 286.050781 195.5 284.785156 C 196.964844 282.222656 198.359375 279.652344 199.910156 277.21875 C 202.886719 272.253906 206.207031 267.664062 209.609375 263.335938 C 211.363281 261.207031 213.0625 259.082031 214.898438 257.132812 C 216.65625 255.105469 218.546875 253.273438 220.359375 251.414062 C 222.171875 249.546875 224.109375 247.886719 225.9375 246.167969 C 227.882812 244.597656 229.707031 242.925781 231.652344 241.503906 C 234.191406 239.566406 236.742188 237.773438 239.269531 236.121094 C 239.863281 241.394531 240.621094 247.101562 241.585938 253.109375 C 230.933594 265.238281 205.828125 280.777344 186.164062 305.460938 " fill-opacity="1" fill-rule="nonzero"/><path fill="#8b412c" d="M 167.835938 333.957031 C 168.070312 332.757812 168.296875 331.570312 168.53125 330.371094 L 169.015625 327.910156 L 169.597656 325.460938 C 172.519531 312.382812 177.269531 299.980469 182.988281 288.59375 C 188.710938 277.195312 195.777344 266.964844 203.480469 258.199219 C 211.207031 249.433594 219.5625 242.097656 228.0625 236.503906 C 230.949219 234.554688 233.84375 232.808594 236.710938 231.234375 C 237.453125 231.582031 238.164062 231.964844 238.863281 232.375 C 238.988281 233.601562 239.125 234.847656 239.269531 236.121094 C 236.742188 237.773438 234.191406 239.566406 231.652344 241.503906 C 229.707031 242.925781 227.882812 244.597656 225.9375 246.167969 C 224.109375 247.886719 222.171875 249.546875 220.359375 251.414062 C 218.546875 253.273438 216.65625 255.105469 214.898438 257.132812 C 213.0625 259.082031 211.363281 261.207031 209.609375 263.335938 C 206.207031 267.664062 202.886719 272.253906 199.910156 277.21875 C 198.359375 279.652344 196.964844 282.222656 195.5 284.785156 C 194.753906 286.050781 194.136719 287.402344 193.449219 288.71875 C 192.777344 290.054688 192.0625 291.363281 191.464844 292.738281 C 189.511719 296.84375 187.773438 301.101562 186.164062 305.460938 C 185.769531 305.957031 185.378906 306.453125 184.992188 306.957031 C 178.125 315.800781 172.5625 325.0625 167.835938 333.957031 " fill-opacity="1" fill-rule="nonzero"/><path fill="#8b412c" d="M 145.039062 377.652344 C 144.871094 377.570312 144.707031 377.480469 144.539062 377.390625 C 143.226562 376.632812 141.910156 375.882812 140.6875 374.96875 C 139.410156 374.136719 138.261719 373.132812 137.105469 372.152344 C 135.941406 371.175781 134.941406 370.015625 133.863281 368.957031 C 132.917969 367.773438 131.914062 366.628906 131.054688 365.398438 C 129.335938 362.921875 127.867188 360.316406 126.6875 357.605469 C 126.160156 356.230469 125.503906 354.890625 125.101562 353.488281 C 124.695312 352.089844 124.253906 350.695312 123.90625 349.292969 L 123.0625 345.042969 C 122.816406 343.632812 122.714844 342.210938 122.535156 340.796875 C 122.332031 339.378906 122.273438 337.960938 122.230469 336.550781 C 122.195312 335.144531 122.082031 333.734375 122.117188 332.328125 C 122.238281 329.523438 122.1875 326.710938 122.542969 323.949219 L 122.902344 320.546875 C 124.648438 315.695312 126.765625 310.742188 129.242188 305.746094 C 129.140625 306.574219 129.050781 307.394531 128.941406 308.210938 L 128.453125 312.214844 C 128.320312 313.554688 128.253906 314.886719 128.152344 316.222656 C 128.0625 317.554688 127.941406 318.890625 127.882812 320.222656 L 127.835938 324.21875 C 127.703125 326.875 127.929688 329.511719 128.007812 332.144531 C 128.070312 333.457031 128.277344 334.757812 128.398438 336.054688 C 128.53125 337.359375 128.671875 338.652344 128.953125 339.925781 C 129.210938 341.191406 129.390625 342.480469 129.707031 343.722656 L 130.71875 347.417969 C 131.113281 348.628906 131.597656 349.800781 132.011719 350.984375 C 132.417969 352.179688 133.046875 353.261719 133.535156 354.410156 C 134.640625 356.636719 135.96875 358.707031 137.453125 360.625 C 138.195312 361.589844 139.054688 362.445312 139.839844 363.351562 C 140.753906 364.136719 141.574219 365.023438 142.539062 365.746094 C 143.496094 366.46875 144.425781 367.214844 145.472656 367.816406 C 146.460938 368.492188 147.550781 369.015625 148.621094 369.566406 C 149.058594 369.769531 149.5 369.96875 149.941406 370.160156 C 148.296875 373.109375 146.683594 375.636719 145.039062 377.652344 " fill-opacity="1" fill-rule="nonzero"/><g clip-path="url(#cba1b1f8f8)"><path fill="#d0d0d2" d="M 704.226562 503.953125 C 704.226562 573.40625 647.921875 629.714844 578.460938 629.714844 C 509.007812 629.714844 452.703125 573.40625 452.703125 503.953125 C 452.703125 434.492188 509.007812 378.191406 578.460938 378.191406 C 647.921875 378.191406 704.226562 434.492188 704.226562 503.953125 " fill-opacity="1" fill-rule="nonzero"/></g><path fill="#131113" d="M 621.933594 579.363281 C 616.238281 568.972656 609.785156 557.222656 602.859375 544.636719 C 610.304688 531.832031 617.765625 518.4375 624.796875 505.25 C 638.789062 505.234375 652.046875 505.214844 663.882812 505.183594 C 669.800781 517.703125 674.960938 529.730469 679.328125 540.820312 C 673.417969 552.957031 666.671875 565.097656 659.378906 576.3125 C 647.808594 577.652344 635.152344 578.671875 621.933594 579.363281 M 597.378906 608.898438 C 584.863281 609.191406 572.195312 609.191406 559.675781 608.898438 C 552.699219 601.25 545.195312 591.535156 537.628906 580.546875 C 543.375 570.21875 549.890625 558.484375 556.847656 545.929688 C 571.195312 546.132812 585.871094 546.132812 600.222656 545.929688 C 607.175781 558.484375 613.683594 570.207031 619.425781 580.535156 C 611.871094 591.53125 604.359375 601.25 597.378906 608.898438 M 497.9375 576.367188 C 490.640625 565.140625 483.871094 553.003906 477.941406 540.855469 C 482.332031 529.753906 487.519531 517.714844 493.453125 505.183594 C 505.3125 505.214844 518.597656 505.234375 532.597656 505.25 C 539.644531 518.4375 547.101562 531.84375 554.550781 544.648438 C 547.621094 557.226562 541.144531 568.992188 535.445312 579.382812 C 522.207031 578.707031 509.535156 577.695312 497.9375 576.367188 M 497.9375 431.53125 C 509.535156 430.203125 522.207031 429.195312 535.445312 428.519531 C 541.144531 438.90625 547.621094 450.679688 554.550781 463.25 C 547.101562 476.0625 539.644531 489.460938 532.597656 502.648438 C 518.597656 502.667969 505.3125 502.683594 493.453125 502.714844 C 487.519531 490.183594 482.332031 478.136719 477.941406 467.042969 C 483.871094 454.894531 490.640625 442.753906 497.9375 431.53125 M 559.675781 399.007812 C 572.195312 398.703125 584.863281 398.703125 597.378906 399.007812 C 604.359375 406.652344 611.871094 416.363281 619.425781 427.359375 C 613.683594 437.6875 607.175781 449.417969 600.222656 461.976562 C 585.871094 461.765625 571.195312 461.765625 556.847656 461.972656 C 549.890625 449.410156 543.375 437.679688 537.628906 427.351562 C 545.195312 416.363281 552.699219 406.652344 559.675781 399.007812 M 659.378906 431.582031 C 666.671875 442.796875 673.417969 454.9375 679.328125 467.078125 C 674.960938 478.167969 669.792969 490.195312 663.882812 502.714844 C 652.046875 502.683594 638.789062 502.667969 624.796875 502.648438 C 617.765625 489.464844 610.304688 476.070312 602.859375 463.261719 C 609.785156 450.683594 616.238281 438.925781 621.933594 428.542969 C 635.152344 429.230469 647.808594 430.242188 659.378906 431.582031 M 667.570312 592.691406 C 665.605469 587.863281 663.476562 582.71875 661.0625 577.140625 C 668.316406 565.972656 675.027344 553.890625 680.859375 541.796875 C 687.867188 541.035156 694.023438 540.179688 699.171875 539.222656 C 702.4375 528.027344 704.226562 516.195312 704.226562 503.953125 C 704.226562 491.703125 702.4375 479.878906 699.171875 468.683594 C 694.023438 467.71875 687.867188 466.863281 680.859375 466.105469 C 675.027344 454.011719 668.316406 441.929688 661.0625 430.761719 C 663.476562 425.175781 665.605469 420.035156 667.570312 415.210938 C 652.199219 399.773438 632.824219 388.332031 611.160156 382.503906 C 607.601562 385.539062 603.054688 390.574219 597.65625 397.558594 C 585.09375 397.265625 572.378906 397.261719 559.820312 397.546875 C 554.332031 390.476562 549.722656 385.410156 546.128906 382.410156 C 524.355469 388.179688 504.894531 399.648438 489.445312 415.121094 C 491.410156 419.972656 493.554688 425.136719 495.980469 430.738281 C 488.71875 441.914062 482.007812 454.003906 476.167969 466.09375 C 469.121094 466.851562 462.929688 467.71875 457.75 468.683594 C 454.492188 479.878906 452.703125 491.703125 452.703125 503.953125 C 452.703125 516.195312 454.492188 528.027344 457.75 539.222656 C 462.929688 540.179688 469.121094 541.042969 476.167969 541.808594 C 482.007812 553.902344 488.71875 565.984375 495.980469 577.15625 C 493.554688 582.761719 491.410156 587.921875 489.445312 592.773438 C 504.886719 608.257812 524.351562 619.71875 546.128906 625.492188 C 549.722656 622.488281 554.332031 617.417969 559.820312 610.351562 C 572.378906 610.632812 585.09375 610.632812 597.65625 610.339844 C 603.054688 617.328125 607.609375 622.367188 611.160156 625.390625 C 632.832031 619.570312 652.199219 608.128906 667.570312 592.691406 " fill-opacity="1" fill-rule="nonzero"/><g clip-path="url(#52cb3537b2)"><path fill="#b2b1b1" d="M 578.359375 629.714844 C 578.347656 629.714844 578.34375 629.714844 578.335938 629.714844 C 578.34375 629.714844 578.347656 629.714844 578.359375 629.714844 M 578.253906 629.714844 C 578.242188 629.714844 578.226562 629.714844 578.214844 629.714844 C 578.226562 629.714844 578.246094 629.714844 578.253906 629.714844 M 578.144531 629.714844 C 578.132812 629.714844 578.121094 629.714844 578.113281 629.714844 C 578.125 629.714844 578.132812 629.714844 578.144531 629.714844 M 578.042969 629.714844 C 578.023438 629.714844 578.011719 629.714844 578 629.714844 C 578.011719 629.714844 578.03125 629.714844 578.042969 629.714844 M 577.933594 629.714844 C 577.921875 629.714844 577.910156 629.714844 577.894531 629.714844 C 577.90625 629.714844 577.921875 629.714844 577.933594 629.714844 M 577.828125 629.714844 C 577.816406 629.714844 577.804688 629.714844 577.792969 629.714844 C 577.804688 629.714844 577.816406 629.714844 577.828125 629.714844 M 577.71875 629.714844 C 577.707031 629.714844 577.703125 629.714844 577.683594 629.714844 C 577.695312 629.714844 577.707031 629.714844 577.71875 629.714844 M 577.617188 629.714844 C 577.605469 629.714844 577.589844 629.707031 577.578125 629.707031 C 577.589844 629.707031 577.601562 629.714844 577.617188 629.714844 M 577.503906 629.707031 C 577.492188 629.707031 577.488281 629.707031 577.476562 629.707031 C 577.488281 629.707031 577.492188 629.707031 577.503906 629.707031 M 577.398438 629.707031 C 577.386719 629.707031 577.378906 629.707031 577.375 629.707031 C 577.378906 629.707031 577.386719 629.707031 577.398438 629.707031 M 577.277344 629.707031 C 577.277344 629.707031 577.269531 629.707031 577.265625 629.707031 C 577.269531 629.707031 577.269531 629.707031 577.277344 629.707031 M 577.164062 629.707031 C 577.164062 629.707031 577.15625 629.707031 577.164062 629.707031 M 704.226562 503.875 C 704.226562 503.867188 704.226562 503.867188 704.226562 503.863281 L 704.226562 503.855469 C 704.226562 503.863281 704.226562 503.867188 704.226562 503.875 M 704.226562 503.804688 C 704.226562 503.792969 704.226562 503.785156 704.226562 503.773438 C 704.226562 503.773438 704.226562 503.765625 704.226562 503.761719 C 704.226562 503.78125 704.226562 503.792969 704.226562 503.804688 M 704.226562 503.730469 C 704.226562 503.707031 704.226562 503.691406 704.226562 503.664062 C 704.226562 503.691406 704.226562 503.707031 704.226562 503.730469 M 704.226562 503.636719 C 704.226562 503.613281 704.226562 503.574219 704.226562 503.550781 C 704.226562 503.574219 704.226562 503.613281 704.226562 503.636719 M 704.226562 503.523438 C 704.226562 503.5 704.226562 503.472656 704.226562 503.457031 C 704.226562 503.472656 704.226562 503.5 704.226562 503.523438 M 704.226562 503.421875 C 704.226562 503.402344 704.226562 503.378906 704.226562 503.359375 C 704.226562 503.378906 704.226562 503.402344 704.226562 503.421875 M 704.226562 503.332031 C 704.226562 503.300781 704.226562 503.28125 704.226562 503.253906 C 704.226562 503.28125 704.226562 503.300781 704.226562 503.332031 M 704.226562 503.234375 C 704.226562 503.207031 704.226562 503.175781 704.226562 503.144531 C 704.226562 503.175781 704.226562 503.207031 704.226562 503.234375 M 704.222656 503.109375 C 704.222656 503.089844 704.222656 503.074219 704.222656 503.054688 C 704.222656 503.074219 704.222656 503.089844 704.222656 503.109375 M 704.222656 503.015625 C 704.222656 502.996094 704.222656 502.976562 704.222656 502.960938 C 704.222656 502.976562 704.222656 502.996094 704.222656 503.015625 M 704.222656 502.925781 C 704.222656 502.894531 704.222656 502.863281 704.222656 502.835938 C 704.222656 502.863281 704.222656 502.894531 704.222656 502.925781 M 704.222656 502.816406 C 704.222656 502.785156 704.222656 502.769531 704.222656 502.746094 C 704.222656 502.769531 704.222656 502.792969 704.222656 502.816406 M 704.222656 502.707031 C 704.222656 502.691406 704.222656 502.667969 704.222656 502.648438 C 704.222656 502.667969 704.222656 502.683594 704.222656 502.707031 M 704.222656 502.613281 C 704.222656 502.59375 704.222656 502.570312 704.222656 502.554688 C 704.222656 502.570312 704.222656 502.589844 704.222656 502.613281 M 704.222656 502.523438 C 704.222656 502.492188 704.222656 502.464844 704.214844 502.433594 C 704.222656 502.464844 704.222656 502.492188 704.222656 502.523438 M 704.214844 502.398438 C 704.214844 502.375 704.214844 502.363281 704.214844 502.34375 C 704.214844 502.363281 704.214844 502.378906 704.214844 502.398438 M 704.214844 502.300781 C 704.214844 502.285156 704.214844 502.265625 704.214844 502.25 C 704.214844 502.265625 704.214844 502.285156 704.214844 502.300781 M 704.214844 502.210938 C 704.214844 502.1875 704.214844 502.171875 704.214844 502.148438 C 704.214844 502.164062 704.214844 502.1875 704.214844 502.210938 M 704.214844 502.097656 C 704.214844 502.082031 704.214844 502.050781 704.214844 502.03125 C 704.214844 502.058594 704.214844 502.074219 704.214844 502.097656 M 704.210938 501.992188 C 704.210938 501.972656 704.210938 501.960938 704.210938 501.941406 C 704.210938 501.960938 704.210938 501.972656 704.210938 501.992188 M 704.210938 501.902344 C 704.210938 501.882812 704.210938 501.867188 704.210938 501.847656 C 704.210938 501.867188 704.210938 501.882812 704.210938 501.902344 M 704.210938 501.804688 C 704.210938 501.78125 704.210938 501.746094 704.210938 501.722656 C 704.210938 501.75 704.210938 501.78125 704.210938 501.804688 M 704.210938 501.6875 C 704.210938 501.667969 704.210938 501.648438 704.210938 501.632812 C 704.210938 501.648438 704.210938 501.667969 704.210938 501.6875 M 704.203125 501.589844 C 704.203125 501.574219 704.203125 501.558594 704.203125 501.542969 C 704.203125 501.554688 704.203125 501.574219 704.203125 501.589844 M 704.203125 501.496094 C 704.203125 501.476562 704.203125 501.464844 704.203125 501.445312 C 704.203125 501.464844 704.203125 501.476562 704.203125 501.496094 M 704.203125 501.394531 C 704.203125 501.367188 704.203125 501.351562 704.203125 501.328125 C 704.203125 501.34375 704.203125 501.367188 704.203125 501.394531 M 704.199219 501.273438 C 704.199219 501.261719 704.199219 501.25 704.199219 501.230469 C 704.199219 501.25 704.199219 501.261719 704.199219 501.273438 M 704.199219 501.183594 C 704.199219 501.171875 704.199219 501.160156 704.199219 501.148438 C 704.199219 501.160156 704.199219 501.171875 704.199219 501.183594 M 704.199219 501.09375 C 704.199219 501.082031 704.199219 501.074219 704.199219 501.070312 C 704.199219 501.074219 704.199219 501.085938 704.199219 501.09375 M 704.191406 500.945312 C 704.191406 500.9375 704.191406 500.933594 704.191406 500.933594 C 704.191406 500.933594 704.191406 500.9375 704.191406 500.945312 M 704.191406 500.867188 C 704.191406 500.855469 704.191406 500.847656 704.191406 500.84375 C 704.191406 500.847656 704.191406 500.855469 704.191406 500.867188 M 704.191406 500.777344 C 704.1875 500.769531 704.1875 500.765625 704.1875 500.757812 C 704.1875 500.765625 704.1875 500.769531 704.191406 500.777344 M 704.1875 500.550781 C 704.1875 500.539062 704.1875 500.539062 704.179688 500.53125 C 704.1875 500.539062 704.1875 500.542969 704.1875 500.550781 M 704.179688 500.464844 C 704.179688 500.460938 704.179688 500.449219 704.179688 500.441406 C 704.179688 500.453125 704.179688 500.460938 704.179688 500.464844 M 704.179688 500.382812 C 704.179688 500.375 704.179688 500.371094 704.179688 500.371094 C 704.179688 500.371094 704.179688 500.375 704.179688 500.382812 M 704.171875 500.15625 C 704.167969 500.148438 704.167969 500.136719 704.167969 500.132812 C 704.167969 500.136719 704.167969 500.148438 704.171875 500.15625 M 704.167969 500.066406 C 704.167969 500.058594 704.167969 500.058594 704.167969 500.046875 C 704.167969 500.054688 704.167969 500.058594 704.167969 500.066406 M 704.160156 499.824219 C 704.160156 499.824219 704.160156 499.824219 704.160156 499.820312 L 704.160156 499.824219 M 704.15625 499.753906 C 704.15625 499.742188 704.15625 499.75 704.15625 499.734375 C 704.15625 499.742188 704.15625 499.75 704.15625 499.753906 M 704.144531 499.351562 L 704.144531 499.347656 L 704.144531 499.351562 " fill-opacity="1" fill-rule="nonzero"/></g><g clip-path="url(#c417642e1a)"><path fill="#949294" d="M 578.460938 629.714844 C 578.433594 629.714844 578.394531 629.714844 578.359375 629.714844 C 578.347656 629.714844 578.34375 629.714844 578.335938 629.714844 C 578.3125 629.714844 578.28125 629.714844 578.253906 629.714844 C 578.246094 629.714844 578.226562 629.714844 578.214844 629.714844 C 578.191406 629.714844 578.167969 629.714844 578.144531 629.714844 C 578.132812 629.714844 578.125 629.714844 578.113281 629.714844 C 578.089844 629.714844 578.066406 629.714844 578.042969 629.714844 C 578.03125 629.714844 578.011719 629.714844 578 629.714844 C 577.976562 629.714844 577.960938 629.714844 577.933594 629.714844 C 577.921875 629.714844 577.90625 629.714844 577.894531 629.714844 C 577.875 629.714844 577.851562 629.714844 577.828125 629.714844 C 577.816406 629.714844 577.804688 629.714844 577.792969 629.714844 C 577.769531 629.714844 577.742188 629.714844 577.71875 629.714844 C 577.707031 629.714844 577.695312 629.714844 577.683594 629.714844 C 577.667969 629.714844 577.636719 629.714844 577.617188 629.714844 C 577.601562 629.714844 577.589844 629.707031 577.578125 629.707031 C 577.550781 629.707031 577.527344 629.707031 577.503906 629.707031 C 577.492188 629.707031 577.488281 629.707031 577.476562 629.707031 C 577.449219 629.707031 577.421875 629.707031 577.398438 629.707031 C 577.386719 629.707031 577.378906 629.707031 577.375 629.707031 C 577.335938 629.707031 577.308594 629.707031 577.277344 629.707031 C 577.269531 629.707031 577.269531 629.707031 577.265625 629.707031 C 577.230469 629.707031 577.199219 629.707031 577.164062 629.707031 C 577.15625 629.707031 577.164062 629.707031 577.164062 629.707031 C 553.160156 629.460938 530.78125 622.488281 511.789062 610.589844 C 522.296875 617.164062 533.84375 622.230469 546.128906 625.492188 C 549.722656 622.488281 554.332031 617.417969 559.820312 610.351562 C 566.019531 610.488281 572.257812 610.5625 578.496094 610.5625 C 584.898438 610.5625 591.292969 610.488281 597.65625 610.339844 C 603.054688 617.328125 607.609375 622.367188 611.160156 625.390625 C 632.832031 619.570312 652.199219 608.128906 667.570312 592.691406 C 665.605469 587.863281 663.476562 582.71875 661.0625 577.140625 C 668.316406 565.972656 675.027344 553.890625 680.859375 541.796875 C 687.867188 541.035156 694.023438 540.179688 699.171875 539.222656 C 702.421875 528.082031 704.210938 516.308594 704.226562 504.125 C 704.132812 573.496094 647.859375 629.714844 578.460938 629.714844 M 578.480469 609.113281 C 572.199219 609.113281 565.917969 609.042969 559.675781 608.898438 C 555.726562 604.5625 551.601562 599.566406 547.394531 594.054688 C 571.363281 590.320312 593.085938 579.816406 610.554688 564.566406 C 613.671875 570.175781 616.640625 575.523438 619.425781 580.535156 C 611.871094 591.53125 604.359375 601.25 597.378906 608.898438 C 591.105469 609.042969 584.789062 609.113281 578.480469 609.113281 M 489.445312 592.769531 C 487.914062 591.230469 486.417969 589.652344 484.957031 588.035156 C 486.820312 588.710938 488.703125 589.347656 490.597656 589.933594 C 490.210938 590.890625 489.820312 591.835938 489.445312 592.769531 M 621.933594 579.363281 C 619.050781 574.105469 615.976562 568.5 612.746094 562.609375 C 629.464844 547.308594 642.042969 527.546875 648.585938 505.214844 C 653.894531 505.207031 659.011719 505.195312 663.882812 505.183594 C 669.800781 517.703125 674.960938 529.730469 679.328125 540.820312 C 673.417969 552.957031 666.671875 565.097656 659.378906 576.3125 C 647.808594 577.652344 635.152344 578.671875 621.933594 579.363281 M 704.226562 504.074219 C 704.226562 504.058594 704.226562 504.046875 704.226562 504.035156 C 704.226562 504.046875 704.226562 504.058594 704.226562 504.074219 M 704.226562 503.863281 C 704.226562 503.851562 704.226562 503.839844 704.226562 503.832031 C 704.226562 503.839844 704.226562 503.84375 704.226562 503.855469 L 704.226562 503.863281 M 704.226562 503.773438 C 704.226562 503.761719 704.226562 503.753906 704.226562 503.742188 C 704.226562 503.75 704.226562 503.753906 704.226562 503.761719 C 704.226562 503.765625 704.226562 503.773438 704.226562 503.773438 M 704.226562 503.730469 C 704.203125 491.566406 702.421875 479.8125 699.171875 468.683594 C 694.023438 467.71875 687.867188 466.863281 680.859375 466.105469 C 675.027344 454.011719 668.316406 441.929688 661.0625 430.761719 C 663.476562 425.175781 665.605469 420.035156 667.570312 415.210938 C 654.660156 402.25 638.9375 392.105469 621.40625 385.734375 C 621.402344 385.730469 621.386719 385.722656 621.382812 385.710938 C 668.335938 402.757812 702.257812 446.96875 704.144531 499.347656 L 704.144531 499.351562 C 704.148438 499.453125 704.148438 499.558594 704.15625 499.664062 C 704.15625 499.6875 704.15625 499.71875 704.15625 499.734375 C 704.15625 499.75 704.15625 499.742188 704.15625 499.753906 C 704.160156 499.773438 704.160156 499.800781 704.160156 499.820312 C 704.160156 499.824219 704.160156 499.824219 704.160156 499.824219 C 704.160156 499.902344 704.167969 499.976562 704.167969 500.046875 C 704.167969 500.058594 704.167969 500.058594 704.167969 500.066406 C 704.167969 500.082031 704.167969 500.113281 704.167969 500.132812 C 704.167969 500.136719 704.167969 500.148438 704.171875 500.15625 C 704.171875 500.226562 704.171875 500.296875 704.179688 500.371094 C 704.179688 500.371094 704.179688 500.375 704.179688 500.382812 C 704.179688 500.398438 704.179688 500.425781 704.179688 500.441406 C 704.179688 500.449219 704.179688 500.460938 704.179688 500.464844 C 704.179688 500.488281 704.179688 500.507812 704.179688 500.53125 C 704.1875 500.539062 704.1875 500.539062 704.1875 500.550781 C 704.1875 500.617188 704.1875 500.6875 704.1875 500.757812 C 704.1875 500.765625 704.1875 500.769531 704.191406 500.777344 C 704.191406 500.800781 704.191406 500.824219 704.191406 500.84375 C 704.191406 500.847656 704.191406 500.855469 704.191406 500.867188 C 704.191406 500.890625 704.191406 500.910156 704.191406 500.933594 C 704.191406 500.933594 704.191406 500.9375 704.191406 500.945312 C 704.191406 500.984375 704.191406 501.027344 704.199219 501.070312 C 704.199219 501.074219 704.199219 501.082031 704.199219 501.09375 C 704.199219 501.113281 704.199219 501.128906 704.199219 501.148438 C 704.199219 501.160156 704.199219 501.171875 704.199219 501.183594 C 704.199219 501.203125 704.199219 501.214844 704.199219 501.230469 C 704.199219 501.25 704.199219 501.261719 704.199219 501.273438 C 704.199219 501.292969 704.199219 501.308594 704.203125 501.328125 C 704.203125 501.351562 704.203125 501.367188 704.203125 501.394531 C 704.203125 501.410156 704.203125 501.429688 704.203125 501.445312 C 704.203125 501.464844 704.203125 501.476562 704.203125 501.496094 C 704.203125 501.511719 704.203125 501.523438 704.203125 501.542969 C 704.203125 501.558594 704.203125 501.574219 704.203125 501.589844 C 704.203125 501.601562 704.203125 501.613281 704.210938 501.632812 C 704.210938 501.648438 704.210938 501.667969 704.210938 501.6875 C 704.210938 501.699219 704.210938 501.710938 704.210938 501.722656 C 704.210938 501.746094 704.210938 501.78125 704.210938 501.804688 C 704.210938 501.824219 704.210938 501.828125 704.210938 501.847656 C 704.210938 501.867188 704.210938 501.882812 704.210938 501.902344 C 704.210938 501.914062 704.210938 501.929688 704.210938 501.941406 C 704.210938 501.960938 704.210938 501.972656 704.210938 501.992188 C 704.214844 502.003906 704.214844 502.019531 704.214844 502.03125 C 704.214844 502.050781 704.214844 502.082031 704.214844 502.097656 C 704.214844 502.117188 704.214844 502.128906 704.214844 502.148438 C 704.214844 502.171875 704.214844 502.1875 704.214844 502.210938 C 704.214844 502.222656 704.214844 502.234375 704.214844 502.25 C 704.214844 502.265625 704.214844 502.285156 704.214844 502.300781 C 704.214844 502.3125 704.214844 502.332031 704.214844 502.34375 C 704.214844 502.363281 704.214844 502.375 704.214844 502.398438 C 704.214844 502.410156 704.214844 502.421875 704.214844 502.433594 C 704.222656 502.464844 704.222656 502.492188 704.222656 502.523438 C 704.222656 502.53125 704.222656 502.542969 704.222656 502.554688 C 704.222656 502.570312 704.222656 502.59375 704.222656 502.613281 C 704.222656 502.625 704.222656 502.636719 704.222656 502.648438 C 704.222656 502.667969 704.222656 502.691406 704.222656 502.707031 C 704.222656 502.722656 704.222656 502.734375 704.222656 502.746094 C 704.222656 502.769531 704.222656 502.785156 704.222656 502.816406 C 704.222656 502.824219 704.222656 502.828125 704.222656 502.835938 C 704.222656 502.863281 704.222656 502.894531 704.222656 502.925781 C 704.222656 502.9375 704.222656 502.949219 704.222656 502.960938 C 704.222656 502.976562 704.222656 502.996094 704.222656 503.015625 C 704.222656 503.03125 704.222656 503.042969 704.222656 503.054688 C 704.222656 503.074219 704.222656 503.089844 704.222656 503.109375 C 704.222656 503.121094 704.226562 503.132812 704.226562 503.144531 C 704.226562 503.175781 704.226562 503.207031 704.226562 503.234375 C 704.226562 503.242188 704.226562 503.246094 704.226562 503.253906 C 704.226562 503.28125 704.226562 503.300781 704.226562 503.332031 C 704.226562 503.335938 704.226562 503.347656 704.226562 503.359375 C 704.226562 503.378906 704.226562 503.402344 704.226562 503.421875 C 704.226562 503.433594 704.226562 503.445312 704.226562 503.457031 C 704.226562 503.472656 704.226562 503.5 704.226562 503.523438 C 704.226562 503.527344 704.226562 503.539062 704.226562 503.550781 C 704.226562 503.574219 704.226562 503.613281 704.226562 503.636719 C 704.226562 503.640625 704.226562 503.660156 704.226562 503.664062 C 704.226562 503.691406 704.226562 503.707031 704.226562 503.730469 M 663.882812 502.714844 C 659.226562 502.703125 654.351562 502.691406 649.296875 502.683594 C 652.132812 492.199219 653.640625 481.175781 653.640625 469.800781 C 653.640625 456.011719 651.425781 442.746094 647.324219 430.335938 C 651.449219 430.714844 655.480469 431.125 659.378906 431.582031 C 666.671875 442.796875 673.417969 454.9375 679.328125 467.078125 C 674.960938 478.167969 669.792969 490.195312 663.882812 502.714844 " fill-opacity="1" fill-rule="nonzero"/></g><path fill="#0f0c0d" d="M 546.128906 625.492188 C 533.84375 622.230469 522.296875 617.164062 511.789062 610.589844 C 503.671875 605.5 496.179688 599.515625 489.445312 592.769531 C 489.820312 591.835938 490.210938 590.890625 490.597656 589.933594 C 502.382812 593.585938 514.898438 595.5625 527.886719 595.5625 C 534.519531 595.5625 541.039062 595.046875 547.394531 594.054688 C 551.601562 599.566406 555.726562 604.5625 559.675781 608.898438 C 565.917969 609.042969 572.199219 609.113281 578.480469 609.113281 C 584.789062 609.113281 591.105469 609.042969 597.378906 608.898438 C 604.359375 601.25 611.871094 591.53125 619.425781 580.535156 C 616.640625 575.523438 613.671875 570.175781 610.554688 564.566406 C 611.296875 563.921875 612.023438 563.273438 612.746094 562.609375 C 615.976562 568.5 619.050781 574.105469 621.933594 579.363281 C 635.152344 578.671875 647.808594 577.652344 659.378906 576.3125 C 666.671875 565.097656 673.417969 552.957031 679.328125 540.820312 C 674.960938 529.730469 669.800781 517.703125 663.882812 505.183594 C 659.011719 505.195312 653.894531 505.207031 648.585938 505.214844 C 648.828125 504.378906 649.070312 503.535156 649.296875 502.683594 C 654.351562 502.691406 659.226562 502.703125 663.882812 502.714844 C 669.792969 490.195312 674.960938 478.167969 679.328125 467.078125 C 673.417969 454.9375 666.671875 442.796875 659.378906 431.582031 C 655.480469 431.125 651.449219 430.714844 647.324219 430.335938 C 641.808594 413.648438 632.894531 398.511719 621.40625 385.734375 C 638.9375 392.105469 654.660156 402.25 667.570312 415.210938 C 665.605469 420.035156 663.476562 425.175781 661.0625 430.761719 C 668.316406 441.929688 675.027344 454.011719 680.859375 466.105469 C 687.867188 466.863281 694.023438 467.71875 699.171875 468.683594 C 702.421875 479.8125 704.203125 491.566406 704.226562 503.730469 C 704.226562 503.738281 704.226562 503.738281 704.226562 503.742188 C 704.226562 503.753906 704.226562 503.761719 704.226562 503.773438 C 704.226562 503.785156 704.226562 503.792969 704.226562 503.804688 C 704.226562 503.816406 704.226562 503.820312 704.226562 503.832031 C 704.226562 503.839844 704.226562 503.851562 704.226562 503.863281 C 704.226562 503.867188 704.226562 503.867188 704.226562 503.875 C 704.226562 503.898438 704.226562 503.929688 704.226562 503.953125 C 704.226562 503.976562 704.226562 504.007812 704.226562 504.035156 C 704.226562 504.046875 704.226562 504.058594 704.226562 504.074219 C 704.226562 504.089844 704.226562 504.109375 704.226562 504.125 C 704.210938 516.308594 702.421875 528.082031 699.171875 539.222656 C 694.023438 540.179688 687.867188 541.035156 680.859375 541.796875 C 675.027344 553.890625 668.316406 565.972656 661.0625 577.140625 C 663.476562 582.71875 665.605469 587.863281 667.570312 592.691406 C 652.199219 608.128906 632.832031 619.570312 611.160156 625.390625 C 607.609375 622.367188 603.054688 617.328125 597.65625 610.339844 C 591.292969 610.488281 584.898438 610.5625 578.496094 610.5625 C 572.257812 610.5625 566.019531 610.488281 559.820312 610.351562 C 554.332031 617.417969 549.722656 622.488281 546.128906 625.492188 " fill-opacity="1" fill-rule="nonzero"/><path fill="#bedf20" d="M 328.03125 502.554688 C 353.886719 522.496094 358.679688 559.625 338.730469 585.484375 C 318.789062 611.339844 281.664062 616.128906 255.808594 596.183594 C 229.945312 576.242188 225.15625 539.109375 245.101562 513.257812 C 265.042969 487.398438 302.167969 482.601562 328.03125 502.554688 " fill-opacity="1" fill-rule="nonzero"/><path fill="#d0d0d2" d="M 280.207031 491.429688 C 283.9375 492.808594 287.519531 494.773438 290.828125 497.320312 C 308.527344 510.976562 311.820312 536.484375 298.167969 554.1875 C 284.511719 571.894531 259.003906 575.183594 241.296875 561.527344 C 237.992188 558.980469 235.183594 556.011719 232.90625 552.757812 C 233.3125 559.90625 235.011719 566.957031 237.953125 573.542969 C 260.515625 587.945312 290.839844 582.976562 307.492188 561.378906 C 324.148438 539.785156 321.25 509.199219 301.59375 491.027344 C 294.484375 489.859375 287.222656 490.011719 280.207031 491.429688 " fill-opacity="1" fill-rule="nonzero"/><path fill="#b2b1b1" d="M 291.878906 608.5 C 291.875 608.5 291.875 608.5 291.875 608.5 C 291.875 608.5 291.875 608.5 291.878906 608.5 M 291.878906 608.5 C 309.421875 608.5 326.773438 600.722656 338.421875 585.882812 C 326.773438 600.722656 309.429688 608.5 291.878906 608.5 M 256.226562 596.507812 C 256.183594 596.46875 256.132812 596.433594 256.082031 596.398438 C 256.132812 596.433594 256.183594 596.46875 256.226562 596.507812 M 255.933594 596.277344 C 255.886719 596.25 255.851562 596.210938 255.808594 596.183594 C 255.582031 596.007812 255.359375 595.835938 255.136719 595.664062 C 255.359375 595.835938 255.582031 596.007812 255.808594 596.183594 C 255.851562 596.210938 255.886719 596.25 255.933594 596.277344 M 255.121094 595.644531 C 255.109375 595.636719 255.101562 595.632812 255.089844 595.625 C 255.101562 595.632812 255.109375 595.636719 255.121094 595.644531 M 338.433594 585.867188 C 338.496094 585.789062 338.558594 585.703125 338.625 585.625 C 338.558594 585.703125 338.496094 585.789062 338.433594 585.867188 M 338.6875 585.535156 C 338.699219 585.519531 338.71875 585.5 338.730469 585.484375 C 339.453125 584.542969 340.144531 583.597656 340.800781 582.636719 C 340.144531 583.597656 339.453125 584.542969 338.730469 585.484375 C 338.71875 585.5 338.699219 585.519531 338.6875 585.535156 M 340.804688 582.625 C 340.824219 582.597656 340.835938 582.582031 340.855469 582.558594 C 340.835938 582.574219 340.820312 582.597656 340.804688 582.625 M 340.882812 582.503906 C 340.890625 582.496094 340.894531 582.484375 340.90625 582.480469 C 340.894531 582.484375 340.890625 582.496094 340.882812 582.503906 M 340.949219 582.40625 C 340.957031 582.40625 340.957031 582.402344 340.957031 582.402344 C 340.957031 582.402344 340.957031 582.40625 340.949219 582.40625 " fill-opacity="1" fill-rule="nonzero"/><path fill="#839a15" d="M 291.878906 608.5 C 291.875 608.5 291.875 608.5 291.875 608.5 C 279.433594 608.5 266.890625 604.585938 256.226562 596.507812 C 256.183594 596.46875 256.132812 596.433594 256.082031 596.398438 C 256.035156 596.355469 255.980469 596.320312 255.933594 596.277344 C 255.886719 596.25 255.851562 596.210938 255.808594 596.183594 C 255.582031 596.007812 255.359375 595.835938 255.136719 595.664062 C 255.132812 595.65625 255.125 595.652344 255.121094 595.644531 C 255.109375 595.636719 255.101562 595.632812 255.089844 595.625 C 250.429688 591.914062 246.5 587.636719 243.285156 582.96875 C 254.03125 591.253906 266.730469 595.269531 279.332031 595.269531 C 297.035156 595.269531 314.550781 587.347656 326.195312 572.246094 C 342.289062 551.382812 342.265625 523.171875 328.0625 502.578125 C 334.5625 507.601562 339.734375 513.714844 343.511719 520.460938 L 343.511719 578.261719 C 342.71875 579.667969 341.871094 581.042969 340.957031 582.402344 C 340.957031 582.402344 340.957031 582.40625 340.949219 582.40625 C 340.9375 582.433594 340.921875 582.457031 340.90625 582.480469 C 340.894531 582.484375 340.890625 582.496094 340.882812 582.503906 C 340.871094 582.523438 340.859375 582.539062 340.855469 582.558594 C 340.835938 582.582031 340.824219 582.597656 340.804688 582.625 C 340.804688 582.628906 340.800781 582.628906 340.800781 582.636719 C 340.144531 583.597656 339.453125 584.542969 338.730469 585.484375 C 338.71875 585.5 338.699219 585.519531 338.6875 585.535156 C 338.664062 585.566406 338.640625 585.597656 338.625 585.625 C 338.558594 585.703125 338.496094 585.789062 338.433594 585.867188 C 338.433594 585.871094 338.425781 585.878906 338.421875 585.882812 C 326.773438 600.722656 309.421875 608.5 291.878906 608.5 " fill-opacity="1" fill-rule="nonzero"/><path fill="#d0d0d2" d="M 231.597656 499.109375 C 257.453125 519.054688 262.25 556.1875 242.304688 582.039062 C 222.355469 607.894531 185.230469 612.691406 159.375 592.742188 C 133.519531 572.800781 128.722656 535.671875 148.667969 509.820312 C 168.609375 483.957031 205.738281 479.160156 231.597656 499.109375 " fill-opacity="1" fill-rule="nonzero"/><path fill="#231f20" d="M 157.023438 590.136719 C 157.023438 590.136719 157.5625 588.773438 158.5625 586.425781 C 158.8125 585.839844 159.109375 585.203125 159.386719 584.484375 C 159.648438 583.773438 159.929688 583 160.234375 582.175781 C 160.535156 581.355469 160.859375 580.488281 161.199219 579.574219 C 161.507812 578.644531 161.800781 577.652344 162.125 576.628906 C 162.4375 575.601562 162.800781 574.550781 163.101562 573.4375 C 163.382812 572.316406 163.675781 571.164062 163.980469 569.980469 C 164.128906 569.386719 164.277344 568.78125 164.433594 568.179688 C 164.546875 567.5625 164.667969 566.933594 164.78125 566.308594 C 165.027344 565.050781 165.285156 563.765625 165.535156 562.460938 C 165.894531 559.828125 166.3125 557.121094 166.496094 554.339844 C 166.832031 551.570312 166.789062 548.738281 166.878906 545.917969 C 166.785156 543.09375 166.828125 540.257812 166.492188 537.496094 C 166.292969 534.714844 165.882812 532.011719 165.523438 529.371094 C 165.265625 528.070312 165.015625 526.78125 164.761719 525.527344 C 164.644531 524.898438 164.53125 524.269531 164.417969 523.660156 C 164.261719 523.050781 164.105469 522.453125 163.960938 521.859375 C 163.65625 520.671875 163.363281 519.523438 163.078125 518.398438 C 162.785156 517.285156 162.417969 516.230469 162.109375 515.203125 C 161.777344 514.179688 161.492188 513.1875 161.175781 512.261719 C 160.832031 511.339844 160.515625 510.464844 160.210938 509.640625 C 159.914062 508.816406 159.625 508.042969 159.367188 507.328125 C 159.09375 506.613281 158.800781 505.980469 158.546875 505.398438 C 157.5625 503.0625 157.019531 501.691406 157.019531 501.691406 C 157.019531 501.691406 157.886719 502.859375 159.355469 504.964844 C 159.714844 505.496094 160.140625 506.070312 160.550781 506.722656 C 160.933594 507.398438 161.359375 508.121094 161.800781 508.894531 C 162.246094 509.675781 162.71875 510.507812 163.214844 511.382812 C 163.691406 512.273438 164.09375 513.253906 164.566406 514.253906 C 165.019531 515.261719 165.535156 516.296875 165.984375 517.410156 C 166.394531 518.527344 166.816406 519.695312 167.246094 520.890625 C 167.460938 521.488281 167.675781 522.101562 167.898438 522.714844 C 168.078125 523.34375 168.257812 523.984375 168.441406 524.625 C 168.8125 525.910156 169.160156 527.230469 169.488281 528.582031 C 169.992188 531.324219 170.691406 534.132812 170.898438 537.058594 C 171.304688 539.960938 171.335938 542.9375 171.46875 545.917969 C 171.332031 548.890625 171.304688 551.867188 170.90625 554.773438 C 170.691406 557.699219 169.996094 560.511719 169.496094 563.246094 C 169.171875 564.601562 168.8125 565.917969 168.449219 567.203125 C 168.261719 567.851562 168.082031 568.484375 167.902344 569.113281 C 167.683594 569.734375 167.464844 570.34375 167.257812 570.941406 C 166.820312 572.136719 166.402344 573.300781 165.996094 574.421875 C 165.539062 575.53125 165.027344 576.566406 164.570312 577.582031 C 164.097656 578.582031 163.699219 579.554688 163.21875 580.445312 C 162.722656 581.332031 162.246094 582.164062 161.796875 582.945312 C 161.355469 583.722656 160.933594 584.449219 160.546875 585.125 C 160.132812 585.777344 159.714844 586.335938 159.355469 586.871094 C 157.898438 588.957031 157.023438 590.136719 157.023438 590.136719 " fill-opacity="1" fill-rule="nonzero"/><path fill="#231f20" d="M 233.613281 590.136719 C 233.613281 590.136719 232.734375 588.957031 231.273438 586.871094 C 230.921875 586.335938 230.496094 585.777344 230.082031 585.125 C 229.699219 584.449219 229.277344 583.722656 228.832031 582.945312 C 228.382812 582.164062 227.914062 581.332031 227.414062 580.445312 C 226.929688 579.554688 226.535156 578.582031 226.058594 577.582031 C 225.601562 576.566406 225.089844 575.53125 224.640625 574.421875 C 224.234375 573.300781 223.808594 572.136719 223.378906 570.941406 C 223.164062 570.34375 222.949219 569.734375 222.734375 569.113281 C 222.554688 568.484375 222.367188 567.851562 222.1875 567.203125 C 221.816406 565.917969 221.464844 564.601562 221.136719 563.246094 C 220.640625 560.511719 219.9375 557.699219 219.722656 554.773438 C 219.324219 551.867188 219.300781 548.890625 219.160156 545.917969 C 219.300781 542.9375 219.328125 539.960938 219.730469 537.058594 C 219.9375 534.132812 220.640625 531.324219 221.140625 528.582031 C 221.46875 527.238281 221.816406 525.910156 222.1875 524.625 C 222.375 523.984375 222.554688 523.34375 222.734375 522.714844 C 222.953125 522.101562 223.167969 521.488281 223.382812 520.890625 C 223.816406 519.695312 224.238281 518.527344 224.648438 517.410156 C 225.09375 516.296875 225.609375 515.261719 226.0625 514.253906 C 226.535156 513.253906 226.9375 512.273438 227.414062 511.382812 C 227.914062 510.507812 228.382812 509.675781 228.828125 508.894531 C 229.277344 508.121094 229.695312 507.398438 230.078125 506.722656 C 230.488281 506.070312 230.914062 505.496094 231.273438 504.964844 C 232.738281 502.859375 233.613281 501.691406 233.613281 501.691406 C 233.613281 501.691406 233.066406 503.0625 232.082031 505.398438 C 231.828125 505.980469 231.535156 506.613281 231.261719 507.328125 C 231.003906 508.042969 230.71875 508.816406 230.417969 509.640625 C 230.113281 510.464844 229.796875 511.339844 229.457031 512.261719 C 229.136719 513.1875 228.851562 514.179688 228.523438 515.203125 C 228.210938 516.230469 227.847656 517.285156 227.554688 518.398438 C 227.265625 519.523438 226.972656 520.671875 226.667969 521.859375 C 226.523438 522.453125 226.367188 523.050781 226.214844 523.660156 C 226.101562 524.269531 225.984375 524.898438 225.867188 525.527344 C 225.617188 526.789062 225.371094 528.070312 225.113281 529.371094 C 224.75 532.011719 224.335938 534.714844 224.144531 537.496094 C 223.804688 540.257812 223.84375 543.09375 223.753906 545.917969 C 223.839844 548.738281 223.796875 551.570312 224.132812 554.339844 C 224.316406 557.121094 224.734375 559.828125 225.09375 562.460938 C 225.351562 563.765625 225.601562 565.050781 225.847656 566.308594 C 225.96875 566.933594 226.082031 567.5625 226.195312 568.179688 C 226.351562 568.78125 226.5 569.386719 226.65625 569.980469 C 226.957031 571.164062 227.25 572.316406 227.535156 573.4375 C 227.828125 574.550781 228.199219 575.601562 228.503906 576.628906 C 228.832031 577.652344 229.125 578.644531 229.4375 579.574219 C 229.777344 580.488281 230.101562 581.355469 230.398438 582.175781 C 230.699219 583 230.980469 583.773438 231.242188 584.484375 C 231.519531 585.203125 231.824219 585.839844 232.070312 586.425781 C 233.074219 588.773438 233.613281 590.136719 233.613281 590.136719 " fill-opacity="1" fill-rule="nonzero"/><path fill="#b2b1b1" d="M 195.445312 605.058594 C 195.441406 605.058594 195.441406 605.058594 195.441406 605.058594 C 195.441406 605.058594 195.441406 605.058594 195.445312 605.058594 M 195.453125 605.058594 C 213.011719 605.054688 230.386719 597.257812 242.027344 582.382812 C 230.386719 597.257812 213.011719 605.058594 195.453125 605.058594 M 159.535156 592.871094 C 159.480469 592.828125 159.429688 592.785156 159.375 592.742188 C 159.355469 592.730469 159.332031 592.714844 159.3125 592.695312 C 159.332031 592.714844 159.355469 592.726562 159.375 592.742188 C 159.429688 592.785156 159.480469 592.828125 159.535156 592.871094 M 242.140625 582.242188 C 242.160156 582.222656 242.171875 582.203125 242.183594 582.1875 C 242.171875 582.203125 242.160156 582.222656 242.140625 582.242188 M 242.253906 582.097656 C 242.265625 582.074219 242.285156 582.054688 242.304688 582.039062 C 242.285156 582.054688 242.265625 582.074219 242.253906 582.097656 " fill-opacity="1" fill-rule="nonzero"/><path fill="#949294" d="M 195.445312 605.058594 C 195.441406 605.058594 195.441406 605.058594 195.441406 605.058594 C 182.898438 605.058594 170.261719 601.082031 159.535156 592.871094 C 159.480469 592.828125 159.429688 592.785156 159.375 592.742188 C 159.355469 592.726562 159.332031 592.714844 159.3125 592.695312 C 154.367188 588.875 150.21875 584.410156 146.851562 579.53125 C 150.535156 582.371094 154.453125 584.710938 158.507812 586.554688 C 157.542969 588.824219 157.023438 590.136719 157.023438 590.136719 C 157.023438 590.136719 157.886719 588.980469 159.328125 586.917969 C 166.875 590.214844 174.90625 591.828125 182.902344 591.828125 C 198.199219 591.828125 213.347656 585.917969 224.699219 574.574219 C 225.136719 575.621094 225.628906 576.613281 226.058594 577.582031 C 226.535156 578.582031 226.929688 579.554688 227.414062 580.445312 C 227.914062 581.332031 228.382812 582.164062 228.832031 582.945312 C 229.277344 583.722656 229.699219 584.449219 230.082031 585.125 C 230.496094 585.777344 230.921875 586.335938 231.273438 586.871094 C 232.734375 588.957031 233.613281 590.136719 233.613281 590.136719 C 233.613281 590.136719 233.074219 588.773438 232.070312 586.425781 C 231.824219 585.839844 231.519531 585.203125 231.242188 584.484375 C 230.980469 583.773438 230.699219 583 230.398438 582.175781 C 230.101562 581.355469 229.777344 580.488281 229.4375 579.574219 C 229.125 578.644531 228.832031 577.652344 228.503906 576.628906 C 228.199219 575.601562 227.828125 574.550781 227.535156 573.4375 C 227.410156 572.953125 227.285156 572.457031 227.160156 571.960938 C 228.054688 570.949219 228.921875 569.894531 229.761719 568.8125 C 245.125 548.894531 245.808594 522.292969 233.488281 502.003906 C 233.5625 501.800781 233.613281 501.691406 233.613281 501.691406 C 233.613281 501.691406 233.550781 501.769531 233.4375 501.925781 C 232.863281 500.980469 232.261719 500.054688 231.632812 499.136719 C 257.460938 519.085938 262.230469 556.199219 242.304688 582.039062 C 242.285156 582.054688 242.265625 582.074219 242.253906 582.097656 C 242.230469 582.128906 242.207031 582.15625 242.183594 582.1875 C 242.171875 582.203125 242.160156 582.222656 242.140625 582.242188 C 242.105469 582.289062 242.070312 582.335938 242.027344 582.382812 C 230.386719 597.257812 213.011719 605.054688 195.453125 605.058594 C 195.445312 605.058594 195.445312 605.058594 195.445312 605.058594 " fill-opacity="1" fill-rule="nonzero"/><path fill="#231f20" d="M 157.023438 590.136719 C 157.023438 590.136719 157.542969 588.824219 158.507812 586.554688 C 158.78125 586.679688 159.050781 586.796875 159.328125 586.917969 C 157.886719 588.980469 157.023438 590.136719 157.023438 590.136719 " fill-opacity="1" fill-rule="nonzero"/><path fill="#231f20" d="M 233.613281 590.136719 C 233.613281 590.136719 232.734375 588.957031 231.273438 586.871094 C 230.921875 586.335938 230.496094 585.777344 230.082031 585.125 C 229.699219 584.449219 229.277344 583.722656 228.832031 582.945312 C 228.382812 582.164062 227.914062 581.332031 227.414062 580.445312 C 226.929688 579.554688 226.535156 578.582031 226.058594 577.582031 C 225.628906 576.613281 225.136719 575.621094 224.699219 574.574219 C 225.542969 573.730469 226.363281 572.863281 227.160156 571.960938 C 227.285156 572.457031 227.410156 572.953125 227.535156 573.4375 C 227.828125 574.550781 228.199219 575.601562 228.503906 576.628906 C 228.832031 577.652344 229.125 578.644531 229.4375 579.574219 C 229.777344 580.488281 230.101562 581.355469 230.398438 582.175781 C 230.699219 583 230.980469 583.773438 231.242188 584.484375 C 231.519531 585.203125 231.824219 585.839844 232.070312 586.425781 C 233.074219 588.773438 233.613281 590.136719 233.613281 590.136719 M 233.488281 502.003906 C 233.46875 501.972656 233.457031 501.957031 233.4375 501.925781 C 233.550781 501.769531 233.613281 501.691406 233.613281 501.691406 C 233.613281 501.691406 233.5625 501.800781 233.488281 502.003906 " fill-opacity="1" fill-rule="nonzero"/><path fill="#e6a11e" d="M 423.496094 405.8125 C 419.738281 405.8125 416.695312 402.769531 416.695312 399.007812 C 416.695312 395.257812 419.738281 392.207031 423.496094 392.207031 C 453.257812 392.207031 478.410156 382.0625 498.25 362.050781 C 543.414062 316.496094 549.804688 232.222656 550.703125 207.871094 L 465.464844 207.871094 C 461.710938 207.871094 458.664062 204.828125 458.664062 201.078125 C 458.664062 197.320312 461.710938 194.277344 465.464844 194.277344 L 557.648438 194.277344 C 561.378906 194.277344 564.410156 197.277344 564.441406 201.015625 C 564.488281 205.605469 564.832031 314.164062 507.9375 371.601562 C 485.441406 394.292969 457.03125 405.8125 423.496094 405.8125 " fill-opacity="1" fill-rule="nonzero"/><path fill="#e6a11e" d="M 378.050781 405.8125 C 381.808594 405.8125 384.851562 402.769531 384.851562 399.007812 C 384.851562 395.257812 381.808594 392.207031 378.050781 392.207031 C 348.289062 392.207031 323.136719 382.0625 303.296875 362.050781 C 258.136719 316.496094 251.746094 232.222656 250.84375 207.871094 L 336.085938 207.871094 C 339.835938 207.871094 342.886719 204.828125 342.886719 201.078125 C 342.886719 197.320312 339.835938 194.277344 336.085938 194.277344 L 243.898438 194.277344 C 240.167969 194.277344 237.136719 197.277344 237.097656 201.015625 C 237.0625 205.605469 236.710938 314.164062 293.609375 371.601562 C 316.109375 394.292969 344.515625 405.8125 378.050781 405.8125 " fill-opacity="1" fill-rule="nonzero"/><path fill="#e6a11e" d="M 477.636719 315.832031 C 477.636719 314.695312 477.25 195.402344 477.199219 194.277344 L 323.886719 194.71875 C 323.839844 195.84375 324.15625 315.144531 324.15625 316.28125 C 324.25 349.816406 345.855469 378.253906 375.855469 388.597656 L 376.066406 458.070312 L 426.558594 457.921875 L 426.359375 388.457031 C 456.296875 377.929688 477.734375 349.367188 477.636719 315.832031 " fill-opacity="1" fill-rule="nonzero"/><path fill="#b2b1b1" d="M 477.433594 255.210938 C 477.375 237.417969 477.3125 219.605469 477.265625 207.871094 L 477.609375 207.871094 C 477.621094 219.546875 477.632812 237.238281 477.644531 254.949219 C 477.570312 255.035156 477.503906 255.128906 477.433594 255.210938 " fill-opacity="1" fill-rule="nonzero"/><path fill="#6e2520" d="M 476.992188 326.066406 C 477.421875 322.714844 477.644531 319.300781 477.636719 315.832031 C 477.636719 315.265625 477.535156 285.261719 477.433594 255.210938 C 477.503906 255.128906 477.570312 255.035156 477.644531 254.949219 C 477.65625 285.089844 477.660156 315.265625 477.660156 315.832031 C 477.660156 319.300781 477.433594 322.714844 476.992188 326.066406 " fill-opacity="1" fill-rule="nonzero"/><path fill="#9f6e14" d="M 477.609375 207.871094 L 477.265625 207.871094 C 477.230469 199.71875 477.207031 194.503906 477.199219 194.277344 L 477.582031 194.277344 C 477.589844 194.503906 477.601562 199.71875 477.609375 207.871094 " fill-opacity="1" fill-rule="nonzero"/><path fill="#b2b1b1" d="M 441.589844 194.378906 C 441.589844 194.324219 441.589844 194.289062 441.589844 194.277344 L 465.464844 194.277344 C 465.226562 194.277344 464.988281 194.28125 464.761719 194.3125 L 441.589844 194.378906 " fill-opacity="1" fill-rule="nonzero"/><path fill="#9f6e14" d="M 464.761719 194.3125 C 464.988281 194.28125 465.226562 194.277344 465.464844 194.277344 L 477.199219 194.277344 L 464.761719 194.3125 " fill-opacity="1" fill-rule="nonzero"/><path fill="#9f6e14" d="M 400.921875 392.570312 C 394.71875 392.570312 388.703125 391.824219 382.925781 390.4375 C 416.625 382.335938 441.671875 352.019531 441.671875 315.832031 C 441.671875 314.714844 441.636719 198.5 441.589844 194.378906 L 464.761719 194.3125 L 477.199219 194.277344 C 477.207031 194.503906 477.230469 199.71875 477.265625 207.871094 C 477.3125 219.605469 477.375 237.417969 477.433594 255.210938 C 477.535156 285.261719 477.636719 315.265625 477.636719 315.832031 C 477.644531 319.300781 477.421875 322.714844 476.992188 326.066406 C 471.984375 363.609375 439.835938 392.570312 400.921875 392.570312 " fill-opacity="1" fill-rule="nonzero"/><path fill="#f0cb81" d="M 385.507812 381.253906 C 358.628906 381.253906 336.847656 352.304688 336.847656 316.605469 C 336.847656 315.640625 336.863281 200.203125 336.90625 199.253906 L 359.785156 199.253906 C 359.753906 200.203125 359.738281 315.640625 359.738281 316.605469 C 359.738281 352.304688 371.234375 379.539062 385.507812 381.253906 " fill-opacity="1" fill-rule="nonzero"/><path fill="#606369" d="M 365.570312 481.769531 L 436.277344 481.769531 L 436.277344 453.382812 L 365.570312 453.382812 Z M 365.570312 481.769531 " fill-opacity="1" fill-rule="nonzero"/><path fill="#424346" d="M 416.457031 481.769531 L 436.285156 481.769531 L 436.285156 453.382812 L 416.457031 453.382812 Z M 416.457031 481.769531 " fill-opacity="1" fill-rule="nonzero"/><path fill="#424346" d="M 400.921875 481.769531 L 410.21875 481.769531 L 410.21875 453.382812 L 400.921875 453.382812 Z M 400.921875 481.769531 " fill-opacity="1" fill-rule="nonzero"/><path fill="#606369" d="M 343.511719 583.527344 L 458.335938 583.527344 L 458.335938 481.769531 L 343.511719 481.769531 Z M 343.511719 583.527344 " fill-opacity="1" fill-rule="nonzero"/><path fill="#e6a11e" d="M 362.671875 566.550781 L 439.183594 566.550781 L 439.183594 498.738281 L 362.671875 498.738281 Z M 362.671875 566.550781 " fill-opacity="1" fill-rule="nonzero"/><path fill="#424346" d="M 458.335938 583.527344 L 426.140625 583.527344 L 426.140625 566.550781 L 439.183594 566.550781 L 439.183594 498.738281 L 426.140625 498.738281 L 426.140625 481.769531 L 458.335938 481.769531 L 458.335938 583.527344 " fill-opacity="1" fill-rule="nonzero"/><path fill="#9f6e14" d="M 426.140625 566.550781 L 439.183594 566.550781 L 439.183594 498.738281 L 426.140625 498.738281 Z M 426.140625 566.550781 " fill-opacity="1" fill-rule="nonzero"/><path fill="#424346" d="M 416.019531 583.527344 L 400.921875 583.527344 L 400.921875 566.550781 L 416.019531 566.550781 L 416.019531 583.527344 M 416.019531 498.738281 L 400.921875 498.738281 L 400.921875 481.769531 L 416.019531 481.769531 L 416.019531 498.738281 " fill-opacity="1" fill-rule="nonzero"/><path fill="#9f6e14" d="M 400.921875 566.550781 L 416.019531 566.550781 L 416.019531 498.738281 L 400.921875 498.738281 Z M 400.921875 566.550781 " fill-opacity="1" fill-rule="nonzero"/><path fill="#606369" d="M 471.765625 583.527344 L 330.082031 583.527344 L 330.082031 603.292969 L 471.765625 603.292969 L 471.765625 583.527344 " fill-opacity="1" fill-rule="nonzero"/></svg>