<?xml version="1.0" encoding="UTF-8"?>
<svg version="1.1" xmlns="http://www.w3.org/2000/svg" width="1080" height="1080">
<path d="M0 0 C0.87930176 0.04850098 1.75860352 0.09700195 2.66455078 0.14697266 C31.25644128 1.8873486 60.87409369 12.66684429 87 24 C87.69416016 24.29583984 88.38832031 24.59167969 89.10351562 24.89648438 C131.0738299 42.81108605 131.0738299 42.81108605 139.01953125 57.94140625 C143.65999539 69.98832546 143.42628039 84.78569278 144.109375 97.59375 C144.15124687 98.35723251 144.19311874 99.12071503 144.23625946 99.90733337 C145.18852489 117.60508043 145.31469368 135.28808983 145.25714111 153.00744247 C145.24987115 155.5449748 145.24673528 158.08248408 145.24462891 160.62002563 C145.21966296 184.84678059 144.77597029 209.00267847 143.30706787 233.19076538 C142.97715768 238.8011753 142.91225736 244.3826719 143 250 C144.87196045 250.03758423 144.87196045 250.03758423 146.78173828 250.07592773 C151.52707793 250.17194703 156.27233502 250.27164644 161.01757812 250.37231445 C163.0497847 250.41494481 165.08201096 250.4566496 167.11425781 250.49731445 C178.06063627 250.71700143 188.99951555 250.99797305 199.9375 251.48828125 C200.82003448 251.52747177 201.70256897 251.56666229 202.61184692 251.60704041 C245.63973541 253.64576765 288.81680618 275.97653872 321 304 C322.66273488 305.29672406 324.32944733 306.58836316 326 307.875 C338.78777402 318.12973252 346.15216328 326.50264697 348 343 C350.93929081 370.65833615 351.18509956 398.46236656 351.125 426.25 C351.12301668 427.59607939 351.12111543 428.94215891 351.11929321 430.28823853 C350.91298989 564.99007749 350.91298989 564.99007749 334.9375 585.8125 C313.69766788 605.47064249 273.23897763 605.94664203 246 609 C245.02466309 609.11085938 244.04932617 609.22171875 243.04443359 609.3359375 C185.8306818 615.63274751 123.97287514 617.16199656 67 608 C66.25024902 607.88543457 65.50049805 607.77086914 64.72802734 607.65283203 C52.12634316 605.68444382 42.80159525 601.00495508 32.6875 593.3125 C31.86209717 592.69383057 31.03669434 592.07516113 30.1862793 591.43774414 C27.78448108 589.63341282 25.39133583 587.81816285 23 586 C21.81521375 585.10662548 20.63033053 584.21337955 19.4453125 583.3203125 C6.84027474 573.73293964 -5.39252999 563.77701687 -17 553 C-18.47177272 551.63780088 -19.9502815 550.28281875 -21.4375 548.9375 C-22.03433594 548.38964844 -22.63117188 547.84179688 -23.24609375 547.27734375 C-25.1615976 545.88231088 -26.68386412 545.41232309 -29 545 C-30.37617084 547.75234167 -30.47713449 550.3193578 -30.83203125 553.37890625 C-30.98873291 554.68545166 -31.14543457 555.99199707 -31.30688477 557.33813477 C-31.38915314 558.02884064 -31.47142151 558.71954651 -31.55618286 559.43118286 C-36.16935123 597.79040011 -36.16935123 597.79040011 -46.46484375 606.2734375 C-89.741968 635.74722628 -169.4642217 630.21118143 -218.74609375 630.13037109 C-222.63024781 630.12499273 -226.5142868 630.1303705 -230.3984375 630.13671875 C-251.45955747 630.1435351 -272.61860155 630.08133357 -293.5625 627.625 C-294.72305908 627.49343506 -295.88361816 627.36187012 -297.0793457 627.22631836 C-313.91998462 625.25768836 -327.89587984 623.2343597 -341.75 612.875 C-342.53294434 612.29878906 -343.31588867 611.72257813 -344.12255859 611.12890625 C-346.42309101 609.42976174 -348.71337673 607.71780125 -351 606 C-351.60424805 605.54786133 -352.20849609 605.09572266 -352.83105469 604.62988281 C-361.47012207 598.14423375 -369.83283648 591.31890341 -378.18847656 584.47509766 C-379.74881832 583.20453365 -381.32240868 581.95027128 -382.8984375 580.69921875 C-416.69243879 553.75535285 -427.28747384 530.27507595 -432.125 487.875 C-433.32963986 476.60578843 -434.19687922 465.30380935 -435 454 C-435.08781738 452.76813965 -435.17563477 451.5362793 -435.26611328 450.26708984 C-437.62375848 416.26308547 -438.4950599 382.08223038 -438 348 C-437.98211426 346.70143066 -437.96422852 345.40286133 -437.94580078 344.06494141 C-437.74032966 330.65082582 -437.48531326 317.2431234 -435.625 303.9375 C-435.4542395 302.70785522 -435.4542395 302.70785522 -435.2800293 301.45336914 C-434.4233068 296.06670504 -433.43257643 290.23622497 -429.2578125 286.3984375 C-376.31830331 260.99522979 -298.5693378 268.94071163 -241 267 C-242.40867485 263.30131964 -243.90624344 260.61633856 -246.4375 257.5625 C-261.82378382 238.98597158 -261.04880896 205.11242665 -263 182 C-263.07959961 181.10877441 -263.15919922 180.21754883 -263.24121094 179.29931641 C-275.51016339 40.35462333 -275.51016339 40.35462333 -259.890625 18.67578125 C-250.95082247 10.75186537 -234.39976278 9.82846897 -223 8 C-221.49977295 7.75902588 -221.49977295 7.75902588 -219.96923828 7.51318359 C-209.31359889 5.89649846 -198.6079421 4.93901377 -187.875 4 C-186.88890747 3.91317963 -185.90281494 3.82635925 -184.88684082 3.73690796 C-123.71900117 -1.61469357 -61.30925081 -3.61390744 0 0 Z " fill="#6FBA36" transform="translate(585,225)"/>
<path d="M0 0 C6.14799022 0.72485392 12.29835217 0.70304297 18.48217773 0.75585938 C20.43838468 0.78036524 22.39459156 0.80488236 24.35079002 0.83005619 C29.13441158 0.89040971 33.91811489 0.94160892 38.7019043 0.98657227 C41.40002191 1.01229893 44.09799302 1.04313484 46.79598999 1.07936096 C49.32570213 1.11299201 51.85553037 1.13899673 54.38540649 1.15635681 C65.68250733 1.31960686 65.68250733 1.31960686 70.94311523 3.50976562 C85.08605544 24.72417593 78.2673748 75.08771738 78.20385742 100.39257812 C78.1924811 104.96210022 78.19922483 109.53138851 78.21076202 114.10090256 C78.25193161 133.5042257 77.95658238 152.81668061 76.64190674 172.18002319 C76.05976368 180.7726816 75.7497295 189.29635952 76.01776123 197.90811157 C76.10629564 201.71321323 76.11962608 203.24499935 73.94311523 206.50976562 C73.5526214 208.65550589 73.25629981 210.81891033 73.01342773 212.98632812 C72.85994873 214.28965088 72.70646973 215.59297363 72.54833984 216.93579102 C72.47018036 217.622388 72.39202087 218.30898499 72.31149292 219.01638794 C67.92769012 257.17333732 67.92769012 257.17333732 57.47827148 265.78320312 C14.20114723 295.25699191 -65.52110646 289.72094705 -114.80297852 289.64013672 C-118.68713258 289.63475836 -122.57117157 289.64013613 -126.45532227 289.64648438 C-147.51644223 289.65330073 -168.67548631 289.59109919 -189.61938477 287.13476562 C-190.77994385 287.00320068 -191.94050293 286.87163574 -193.13623047 286.73608398 C-220.7738207 283.50531646 -220.7738207 283.50531646 -229.05688477 278.50976562 C-229.74008789 278.11273437 -230.42329102 277.71570313 -231.12719727 277.30664062 C-240.81918601 268.28171183 -241.21383834 245.03976312 -242.68188477 232.69726562 C-242.80515137 231.66690186 -242.92841797 230.63653809 -243.05541992 229.57495117 C-245.3794563 208.85631153 -245.29805232 188.07835001 -245.30688477 167.25976562 C-245.30762119 166.46605057 -245.30835762 165.67233551 -245.30911636 164.85456848 C-245.3246435 144.2914559 -245.14060991 123.78489821 -243.74438477 103.25976562 C-243.65610413 101.92649231 -243.65610413 101.92649231 -243.56604004 100.56628418 C-242.08007999 78.90222926 -239.52529682 56.24250601 -232.18188477 35.69726562 C-231.96169678 35.05756836 -231.74150879 34.41787109 -231.51464844 33.75878906 C-229.43664095 28.32277366 -226.34919591 24.18467683 -221.12817383 21.52856445 C-218.97978985 20.68499139 -216.83092672 19.98233533 -214.61938477 19.32226562 C-213.82008545 19.07234863 -213.02078613 18.82243164 -212.19726562 18.56494141 C-204.90540615 16.34552205 -197.58071032 14.72209767 -190.05688477 13.50976562 C-189.17613281 13.3632959 -188.29538086 13.21682617 -187.38793945 13.06591797 C-148.93168408 6.74618369 -109.91792304 3.94631308 -71.05688477 1.50976562 C-70.06822922 1.44600235 -70.06822922 1.44600235 -69.05960083 1.38095093 C-58.76379989 0.71882139 -48.47612223 0.27463495 -38.16259766 0.00708008 C-35.85967259 -0.0529877 -33.55692429 -0.11800919 -31.25415039 -0.18359375 C-6.79142879 -0.8605311 -6.79142879 -0.8605311 0 0 Z " fill="#0175DE" transform="translate(481.056884765625,565.490234375)"/>
<path d="M0 0 C2.4961317 -0.00782976 4.99217538 -0.02127382 7.48827362 -0.03624344 C37.85900412 -0.20415216 37.85900412 -0.20415216 49.11382294 1.51163864 C49.8114827 1.61135468 50.50914246 1.71107071 51.22794342 1.81380844 C54.55470778 2.44920049 55.88535141 3.0524852 57.97270966 5.77482224 C69.8585695 32.96274269 64.2661869 74.64776336 64.20366669 103.55460739 C64.20168337 104.90068678 64.19978211 106.2467663 64.1979599 107.59284592 C63.99165658 242.29468488 63.99165658 242.29468488 48.01616669 263.11710739 C26.77633457 282.77524988 -13.68235569 283.25124942 -40.92133331 286.30460739 C-41.89667023 286.41546677 -42.87200714 286.52632614 -43.87689972 286.64054489 C-101.09065151 292.9373549 -162.94845817 294.46660395 -219.92133331 285.30460739 C-221.04595978 285.13275925 -221.04595978 285.13275925 -222.19330597 284.95743942 C-238.696037 282.3797061 -238.696037 282.3797061 -244.92133331 277.30460739 C-248.53057092 272.04141488 -250.10136248 266.8492526 -251.54633331 260.67960739 C-251.75000519 259.86620895 -251.95367706 259.05281052 -252.16352081 258.21476364 C-263.60504084 211.05516507 -261.62299543 155.95347818 -257.23773956 107.81974411 C-256.95135879 104.63817744 -256.69801432 101.4554785 -256.45615387 98.27025986 C-251.74659118 36.77840722 -251.74659118 36.77840722 -238.28070831 24.85148239 C-224.55144628 15.27561055 -203.1592776 13.54800759 -186.92133331 11.30460739 C-185.40040947 11.07865327 -183.87958394 10.8520369 -182.35883331 10.62491989 C-159.74083014 7.31866247 -136.92920441 5.47743147 -114.12982941 3.95084763 C-112.53002228 3.84365402 -112.53002228 3.84365402 -110.89789581 3.73429489 C-109.98088898 3.67483688 -109.06388214 3.61537888 -108.11908722 3.55411911 C-105.47834518 3.34806946 -102.85467461 3.09007301 -100.221138 2.81119919 C-94.86794796 2.26881839 -89.52303447 1.98702053 -84.14789581 1.76945114 C-83.10290421 1.72624741 -82.0579126 1.68304367 -80.98125458 1.63853073 C-53.98835683 0.55926226 -27.01335998 0.06458515 0 0 Z " fill="#D3382E" transform="translate(871.9213333129883,547.6953926086426)"/>
<path d="M0 0 C0.87930176 0.04850098 1.75860352 0.09700195 2.66455078 0.14697266 C31.25644128 1.8873486 60.87409369 12.66684429 87 24 C87.69416016 24.29583984 88.38832031 24.59167969 89.10351562 24.89648438 C125.15435796 40.28441967 125.15435796 40.28441967 136 53 C136 53.66 136 54.32 136 55 C134.74429199 54.85852539 133.48858398 54.71705078 132.19482422 54.57128906 C114.96462048 52.77864945 97.81111669 52.68125995 80.51224136 52.74205017 C78.09030409 52.75011554 75.66837608 52.75507213 73.24642944 52.75939941 C2.76789144 52.90399198 -71.58914307 53.78663552 -140.4375 70.5625 C-141.58980103 70.84081665 -141.58980103 70.84081665 -142.76538086 71.12475586 C-150.05656965 73.03026753 -156.78764804 75.44745251 -161 82 C-181.04544104 119.61157754 -177.18007117 173.85302868 -177.1875 215.25 C-177.18849701 216.55111725 -177.18949402 217.8522345 -177.19052124 219.19277954 C-178.89392121 275.52872458 -178.89392121 275.52872458 -164 329 C-157.97444057 334.33692407 -147.99424734 335.55846769 -140.25 336.625 C-139.3847168 336.74979736 -138.51943359 336.87459473 -137.62792969 337.00317383 C-130.76696707 337.96373409 -123.92011999 338.63378927 -117 339 C-117 339.33 -117 339.66 -117 340 C-121.05624542 340.95489174 -124.90057636 341.1662016 -129.0625 341.24609375 C-130.49560956 341.27772871 -131.92871485 341.30955739 -133.36181641 341.34155273 C-134.11666321 341.35693085 -134.87151001 341.37230896 -135.64923096 341.38815308 C-149.65281841 341.68211388 -163.63817307 342.19586799 -177.625 342.9375 C-178.36975586 342.97511444 -179.11451172 343.01272888 -179.88183594 343.05148315 C-188.71089221 343.5014687 -197.46270567 344.21786353 -206.24351501 345.24525452 C-211.41043955 345.84374955 -216.57480874 346.32338937 -221.76171875 346.7109375 C-222.48495331 346.76497742 -223.20818787 346.81901733 -223.95333862 346.87469482 C-225.43515669 346.98472889 -226.91699907 347.09443598 -228.39886475 347.2038269 C-282.66016827 348.30417997 -282.66016827 348.30417997 -330.5625 367.3125 C-344.84256786 386.07797378 -345.19440472 421.14476769 -346.6875 443.75 C-346.75037201 444.68212311 -346.81324402 445.61424622 -346.87802124 446.57461548 C-348.13644583 465.97839303 -348.29807813 485.38344025 -348.31052017 504.82020569 C-348.31247017 507.15183461 -348.31757966 509.48344057 -348.3230896 511.81506348 C-348.68319576 559.88791157 -348.68319576 559.88791157 -339.0859375 606.63671875 C-338.18050227 609.44096239 -337.54473737 612.11350748 -337 615 C-343.35169012 611.70467138 -348.9753418 607.95910815 -354.5625 603.5 C-355.33408447 602.89196533 -356.10566895 602.28393066 -356.90063477 601.6574707 C-364.08197429 595.98096058 -371.19086371 590.21501073 -378.26904297 584.41064453 C-379.79575384 583.16645054 -381.33631267 581.93929049 -382.87890625 580.71484375 C-416.68106978 553.76378937 -427.28597677 530.28819744 -432.125 487.875 C-433.32963986 476.60578843 -434.19687922 465.30380935 -435 454 C-435.08781738 452.76813965 -435.17563477 451.5362793 -435.26611328 450.26708984 C-437.62375848 416.26308547 -438.4950599 382.08223038 -438 348 C-437.98211426 346.70143066 -437.96422852 345.40286133 -437.94580078 344.06494141 C-437.74032966 330.65082582 -437.48531326 317.2431234 -435.625 303.9375 C-435.4542395 302.70785522 -435.4542395 302.70785522 -435.2800293 301.45336914 C-434.4233068 296.06670504 -433.43257643 290.23622497 -429.2578125 286.3984375 C-376.31830331 260.99522979 -298.5693378 268.94071163 -241 267 C-242.40867485 263.30131964 -243.90624344 260.61633856 -246.4375 257.5625 C-261.82378382 238.98597158 -261.04880896 205.11242665 -263 182 C-263.07959961 181.10877441 -263.15919922 180.21754883 -263.24121094 179.29931641 C-275.51016339 40.35462333 -275.51016339 40.35462333 -259.890625 18.67578125 C-250.95082247 10.75186537 -234.39976278 9.82846897 -223 8 C-221.49977295 7.75902588 -221.49977295 7.75902588 -219.96923828 7.51318359 C-209.31359889 5.89649846 -198.6079421 4.93901377 -187.875 4 C-186.88890747 3.91317963 -185.90281494 3.82635925 -184.88684082 3.73690796 C-123.71900117 -1.61469357 -61.30925081 -3.61390744 0 0 Z " fill="#D0AA43" transform="translate(585,225)"/>
<path d="M0 0 C6.58947436 -0.06846599 13.17877413 -0.11540731 19.76855469 -0.14102173 C21.94032041 -0.14982438 24.11207698 -0.16133043 26.28381348 -0.17562866 C29.31976542 -0.19336237 32.35542111 -0.19739317 35.39141846 -0.19726562 C36.30318344 -0.20439575 37.21494843 -0.21152588 38.15434265 -0.21887207 C39.41843712 -0.21434021 39.41843712 -0.21434021 40.70806885 -0.2097168 C41.44030167 -0.21114182 42.17253448 -0.21256683 42.92695618 -0.21403503 C45.47583867 0.09272599 46.87199461 0.53966998 48.98126221 2.03320312 C52.08116251 6.70440661 52.4081736 10.94890232 52.35357666 16.40136719 C52.35722733 17.22235397 52.36087799 18.04334076 52.36463928 18.88920593 C52.37274754 21.60929036 52.35909032 24.3287774 52.34454346 27.04882812 C52.34402312 28.97987874 52.34454751 30.91092988 52.34605408 32.84197998 C52.34596423 36.91410127 52.3355411 40.98602524 52.31744385 45.05810547 C52.29529506 50.14030883 52.29429637 55.22221334 52.30070686 60.30445099 C52.3254684 86.48524697 51.6054476 112.55916657 50.11302567 138.69663429 C49.97550352 141.1353222 49.84380044 143.57427235 49.71340942 146.01335144 C49.66958035 146.82599834 49.62575129 147.63864525 49.58059406 148.47591782 C49.49777554 150.01202459 49.41571756 151.54817265 49.33458996 153.08436966 C49.0274639 158.70986232 48.5323834 164.27008376 47.73126221 169.84570312 C47.63458252 170.67650391 47.53790283 171.50730469 47.43829346 172.36328125 C46.89568209 176.17070595 46.22556071 178.65392456 44.12188721 181.91992188 C36.1530455 187.28204049 25.24498969 187.77437509 15.91876221 189.09570312 C14.73701416 189.26634277 13.55526611 189.43698242 12.33770752 189.61279297 C2.57057778 190.99918941 -7.19645557 192.13071152 -17.01873779 193.03320312 C-17.89916748 193.11812012 -18.77959717 193.20303711 -19.68670654 193.29052734 C-22.54674282 193.56625957 -25.40753548 193.83236348 -28.26873779 194.09570312 C-29.09986084 194.1751416 -29.93098389 194.25458008 -30.78729248 194.33642578 C-50.84124109 196.1102853 -70.9651949 196.20260682 -91.08123779 196.15820312 C-92.33099396 196.15665222 -93.58075012 196.15510132 -94.86837769 196.15350342 C-140.55007335 196.08702437 -140.55007335 196.08702437 -160.58123779 194.22070312 C-161.28498535 194.16285645 -161.98873291 194.10500977 -162.71380615 194.04541016 C-167.24373416 193.53185437 -169.96383516 192.44423284 -173.01873779 189.03320312 C-173.87671458 186.39885186 -174.39746187 184.23645712 -174.76873779 181.53320312 C-174.87300079 180.81374512 -174.97726379 180.09428711 -175.08468628 179.35302734 C-177.64935995 160.5635653 -177.1778538 141.49462034 -177.14910889 122.5703125 C-177.14341206 118.79209286 -177.14680538 115.01394361 -177.15253925 111.23572636 C-177.1797421 90.26076376 -176.75940176 69.47256703 -174.58123779 48.59570312 C-174.45942139 47.36400391 -174.33760498 46.13230469 -174.21209717 44.86328125 C-171.67535754 19.95591542 -171.67535754 19.95591542 -167.01873779 15.03320312 C-162.71290554 12.86428019 -158.18059227 12.29593996 -153.45623779 11.65820312 C-152.56855713 11.53517822 -151.68087646 11.41215332 -150.76629639 11.28540039 C-129.10753211 8.36945242 -107.31223701 5.97885691 -85.52264404 4.30273438 C-82.86861051 4.09857795 -80.2151033 3.88987213 -77.56170654 3.67773438 C-51.7039374 1.62086637 -25.93714633 0.28528291 0 0 Z " fill="#F8D27C" transform="translate(837.0187377929688,594.966796875)"/>
<path d="M0 0 C5.18615226 -0.08514865 10.37192651 -0.14986182 15.55865479 -0.18658447 C17.18496237 -0.19968978 18.81123941 -0.21754565 20.43743896 -0.24041748 C22.68659688 -0.27008481 24.93499551 -0.28003226 27.18432617 -0.2845459 C28.46001465 -0.2938916 29.73570312 -0.3032373 31.05004883 -0.31286621 C35.64378286 0.17661355 38.17650373 1.82481916 41.39526367 5.0435791 C43.42288357 14.63105472 42.54079277 25.22174983 42.52807617 34.9810791 C42.52875212 36.82881686 42.52972456 38.67655453 42.53097534 40.52429199 C42.53244451 44.39401091 42.53032689 48.26370665 42.52563477 52.13342285 C42.52000115 57.00891656 42.52328213 61.88435498 42.52906513 66.75984669 C42.55563168 92.96388412 42.53018941 119.14577941 40.14794922 145.26501465 C39.95321874 147.40605004 39.77032663 149.54788651 39.58862305 151.69006348 C39.00746928 158.39817594 38.32573903 165.09333029 37.48510742 171.77404785 C37.28002563 173.41023071 37.28002563 173.41023071 37.07080078 175.07946777 C36.32325491 178.35953803 35.48485719 180.40359389 33.39526367 183.0435791 C26.4746678 186.56335974 18.33541342 187.88665743 10.70776367 189.0435791 C9.15895508 189.28394897 9.15895508 189.28394897 7.57885742 189.5291748 C-2.94657601 191.07893649 -13.52038336 192.17395177 -24.10473633 193.2310791 C-24.93540619 193.31575439 -25.76607605 193.40042969 -26.62191772 193.4876709 C-50.91654349 195.9356854 -75.244076 196.232183 -99.64013672 196.22888184 C-102.64573215 196.22880086 -105.65117422 196.23572167 -108.65673828 196.24938965 C-124.93205279 196.32217034 -141.13554175 196.1350699 -157.38208008 195.09436035 C-158.05789186 195.0511434 -158.73370365 195.00792645 -159.42999458 194.96339989 C-177.51647071 193.77889371 -177.51647071 193.77889371 -180.91723633 191.4810791 C-192.72407533 174.4267561 -186.80698169 138.35843759 -186.79223633 118.7935791 C-186.79211674 118.0892852 -186.79199715 117.3849913 -186.79187393 116.65935516 C-186.78724128 95.06836156 -186.60525532 73.55967147 -184.60473633 52.0435791 C-184.49226563 50.81075195 -184.37979492 49.5779248 -184.26391602 48.30773926 C-183.92199642 44.69591914 -183.55418365 41.08833624 -183.16723633 37.4810791 C-183.00227661 35.92671143 -183.00227661 35.92671143 -182.83398438 34.34094238 C-181.04830688 19.42586889 -181.04830688 19.42586889 -176.89135742 15.37316895 C-174.03295463 13.71110813 -171.63679075 13.29185768 -168.36645508 12.79748535 C-167.0910083 12.60195068 -165.81556152 12.40641602 -164.50146484 12.20495605 C-163.09853133 12.0043303 -161.69545008 11.80473534 -160.29223633 11.6060791 C-159.57510468 11.50097015 -158.85797302 11.39586121 -158.11911011 11.28756714 C-131.10996794 7.33297372 -103.83790018 4.81804417 -76.60473633 3.0435791 C-75.32872559 2.95866211 -74.05271484 2.87374512 -72.73803711 2.78625488 C-48.50406335 1.19041568 -24.28061542 0.40623206 0 0 Z " fill="#F8D27C" transform="translate(640.604736328125,323.9564208984375)"/>
<path d="M0 0 C1.10374969 -0.01212524 2.20749939 -0.02425049 3.34469604 -0.03674316 C6.44246438 -0.06601112 9.53885219 -0.06727723 12.63671875 -0.05859375 C13.54854919 -0.06968674 14.46037964 -0.08077972 15.39984131 -0.09220886 C19.46621767 -0.04759474 21.74084432 0.09581805 25.29223633 2.21850586 C28.24446633 5.46114254 29.56162834 8.06672579 29.56646729 12.46401978 C29.57492676 13.65278717 29.57492676 13.65278717 29.58355713 14.86557007 C29.57748444 16.15728622 29.57748444 16.15728622 29.57128906 17.47509766 C29.57654602 18.84710327 29.57654602 18.84710327 29.58190918 20.24682617 C29.59073136 23.28181495 29.58486491 26.31657116 29.578125 29.3515625 C29.57947405 31.48074386 29.58141657 33.60992491 29.58392334 35.73910522 C29.58687734 40.21981719 29.58257743 44.70044962 29.57324219 49.18115234 C29.56199761 54.84721583 29.5684912 60.5130884 29.58013153 66.17914486 C29.65521432 109.27598721 29.65521432 109.27598721 27.54772949 129.99584961 C27.18745526 133.73544756 26.96309916 137.48005831 26.75 141.23046875 C26.67523438 142.47763672 26.60046875 143.72480469 26.5234375 145.00976562 C26.38031384 147.46274611 26.23977445 149.91587849 26.1015625 152.36914062 C25.71260789 158.78353866 25.20201715 165.1706406 24.4375 171.55078125 C24.29570312 172.75130127 24.15390625 173.95182129 24.0078125 175.1887207 C23.28349595 178.57301857 22.40034293 180.69009481 20.3125 183.4375 C14.57794694 186.15122839 8.72919535 187.33072178 2.5 188.375 C1.53151123 188.5397583 0.56302246 188.7045166 -0.43481445 188.87426758 C-20.69952014 192.1785504 -41.33256217 194.64428206 -61.859375 195.26171875 C-65.60011016 195.36430623 -65.60011016 195.36430623 -68.91442871 195.93940735 C-72.9251046 196.46886678 -76.84874621 196.58526823 -80.88476562 196.58276367 C-81.6747998 196.58612228 -82.46483398 196.5894809 -83.27880859 196.59294128 C-85.88380532 196.60241033 -88.48873713 196.60439432 -91.09375 196.60546875 C-92.93762232 196.60869098 -94.7814944 196.61205574 -96.62536621 196.61555481 C-100.50220325 196.62154095 -104.37901805 196.62339592 -108.25585938 196.62280273 C-112.1673657 196.6227224 -116.07875262 196.62951329 -119.99023438 196.64331055 C-138.89347662 196.70884276 -157.78003217 196.73679658 -176.65625 195.61328125 C-177.92166626 195.54392868 -179.18708252 195.47457611 -180.49084473 195.40312195 C-181.64306519 195.3233461 -182.79528564 195.24357025 -183.98242188 195.16137695 C-184.97173706 195.09449173 -185.96105225 195.02760651 -186.98034668 194.95869446 C-190.12699936 194.35288542 -192.09947176 193.31113259 -194.6875 191.4375 C-205.15601392 175.73472911 -199.89043587 142.09806325 -199.875 123.875 C-199.87473312 123.17069729 -199.87446625 122.46639458 -199.87419128 121.74074936 C-199.86004443 91.98510678 -199.57374749 62.25329292 -195.875 32.6875 C-195.73416992 31.50196533 -195.59333984 30.31643066 -195.44824219 29.0949707 C-194.19780724 20.36215756 -194.19780724 20.36215756 -191.11328125 17.234375 C-190.31277344 16.64140625 -189.51226562 16.0484375 -188.6875 15.4375 C-188.3575 15.1075 -188.0275 14.7775 -187.6875 14.4375 C-185.02155987 13.94392382 -182.36943992 13.51509556 -179.6875 13.125 C-178.80143066 12.99601318 -177.91536133 12.86702637 -177.00244141 12.73413086 C-173.89883916 12.29139346 -170.79357711 11.86252272 -167.6875 11.4375 C-166.57342773 11.2837793 -165.45935547 11.13005859 -164.31152344 10.97167969 C-110.0370965 3.61624396 -54.7436532 0.31661065 0 0 Z " fill="#F7D27D" transform="translate(482.6875,611.5625)"/>
<path d="M0 0 C6.14835194 0.12051793 12.29661259 0.24483882 18.44482422 0.37231445 C20.52553348 0.41496372 22.60626237 0.45666834 24.68701172 0.49731445 C35.78629986 0.71478962 46.87806849 0.99064138 57.96875 1.48828125 C58.84939117 1.52747177 59.73003235 1.56666229 60.63735962 1.60704041 C103.65432829 3.65161636 146.82516236 25.98381484 179 54 C180.66273488 55.29672406 182.32944733 56.58836316 184 57.875 C198.92793367 69.78380102 198.92793367 69.78380102 201 76 C199.49986903 75.85552017 197.99990298 75.70932785 196.5 75.5625 C195.24703125 75.44068359 195.24703125 75.44068359 193.96875 75.31640625 C191.89832185 75.0957422 189.83373506 74.81570876 187.77709961 74.49072266 C181.08654652 73.65782829 174.3287708 73.83633401 167.59765625 73.83203125 C166.06001231 73.82803599 164.52236887 73.82384531 162.98472595 73.81947327 C158.01064001 73.80807016 153.0365949 73.80981769 148.0625 73.8125 C146.3511556 73.81244396 144.6398112 73.81238291 142.9284668 73.81231689 C120.27224684 73.81880982 97.64290971 74.06844383 75 74.875 C73.2840715 74.93380844 73.2840715 74.93380844 71.53347778 74.99380493 C59.12120397 75.43228291 46.82064956 76.20809624 34.47265625 77.54052734 C28.16199903 78.21271892 21.83557873 78.53296077 15.5 78.875 C3.50179531 79.58815358 -8.42900646 80.67637217 -20.375 82 C-21.52923462 82.12565338 -21.52923462 82.12565338 -22.70678711 82.25384521 C-33.44004126 83.43022199 -33.44004126 83.43022199 -44.02197266 85.54003906 C-47.64172579 86.381759 -51.32477325 86.84089338 -55 87.375 C-76.90442866 90.14174714 -76.90442866 90.14174714 -95.66796875 100.6015625 C-108.11055247 117.98289483 -108.28502309 146.20461644 -110.1875 166.5625 C-110.27226593 167.46376617 -110.35703186 168.36503235 -110.44436646 169.29360962 C-112.63110574 192.86096668 -113.24087936 216.33770645 -113.25 240 C-113.25058914 240.70252647 -113.25117828 241.40505295 -113.25178528 242.1288681 C-113.39685035 294.33813103 -113.39685035 294.33813103 -102 345 C-101.505 346.485 -101.505 346.485 -101 348 C-106.33499813 346.39103231 -110.21980831 342.92010057 -114.5 339.5 C-116.1156111 338.22491277 -117.73149821 336.95017517 -119.34765625 335.67578125 C-120.13930176 335.04881348 -120.93094727 334.4218457 -121.74658203 333.77587891 C-124.78583228 331.38069946 -127.86000866 329.03315465 -130.9375 326.6875 C-139.75102198 319.90871835 -148.23243314 312.88586856 -156.421875 305.36328125 C-162.42722948 299.5589553 -162.42722948 299.5589553 -169.19921875 294.77734375 C-171 293 -171 293 -171.4609375 289.78125 C-171.45668139 288.35388554 -171.42554494 286.9264756 -171.375 285.5 C-171.35685242 284.71233246 -171.33870483 283.92466492 -171.32000732 283.11312866 C-171.16579992 277.63889143 -170.90038008 272.18355379 -170.53466797 266.71923828 C-169.08911533 245.08574845 -168.68456837 223.53508503 -168.73925781 201.85644531 C-168.75066829 197.28461262 -168.74385114 192.71301252 -168.73237705 188.14118767 C-167.12337088 140.4119878 -167.12337088 140.4119878 -175 94 C-177.31 93.67 -179.62 93.34 -182 93 C-182 92.67 -182 92.34 -182 92 C-181.14809082 91.98018066 -180.29618164 91.96036133 -179.41845703 91.93994141 C-93.1755465 93.54589979 -93.1755465 93.54589979 -15 66 C-9.84827205 60.53095547 -8.77409467 54.11855485 -7 47 C-6.731875 45.99582031 -6.46375 44.99164062 -6.1875 43.95703125 C-3.31514598 32.15345146 -2.49740975 19.98131369 -1.34130859 7.91577148 C-1.02730912 5.23329962 -0.57243622 2.6380124 0 0 Z " fill="#D0A943" transform="translate(727,475)"/>
<path d="M0 0 C4.59239285 2.52209869 8.69683099 5.17030894 12.8125 8.4375 C35.90744498 26.50561917 60.43952681 42.73203279 84.86816406 58.92285156 C89.4802634 61.98176497 94.08398855 65.05318449 98.6875 68.125 C100.12885889 69.08600853 101.57025937 70.04695471 103.01171875 71.0078125 C103.99785156 71.66523437 104.98398437 72.32265625 106 73 C105.59152832 73.45238037 105.18305664 73.90476074 104.76220703 74.37084961 C76.82153266 105.99145397 83.73402651 176.36630135 83.69037247 215.81529617 C83.68754593 218.14956641 83.68202241 220.48381988 83.67636108 222.81808472 C83.31664542 270.88947811 83.31664542 270.88947811 92.9140625 317.63671875 C93.81949773 320.44096239 94.45526263 323.11350748 95 326 C88.64830988 322.70467138 83.0246582 318.95910815 77.4375 314.5 C76.66591553 313.89196533 75.89433105 313.28393066 75.09936523 312.6574707 C67.91802571 306.98096058 60.80913629 301.21501073 53.73095703 295.41064453 C52.20424616 294.16645054 50.66368733 292.93929049 49.12109375 291.71484375 C15.31893022 264.76378937 4.71402323 241.28819744 -0.125 198.875 C-1.32963986 187.60578843 -2.19687922 176.30380935 -3 165 C-3.08781738 163.76813965 -3.17563477 162.5362793 -3.26611328 161.26708984 C-5.62375848 127.26308547 -6.4950599 93.08223038 -6 59 C-5.98211426 57.70143066 -5.96422852 56.40286133 -5.94580078 55.06494141 C-5.32362184 14.42678471 -5.32362184 14.42678471 0 0 Z " fill="#D0A943" transform="translate(153,514)"/>
<path d="M0 0 C0.87930176 0.04850098 1.75860352 0.09700195 2.66455078 0.14697266 C31.25644128 1.8873486 60.87409369 12.66684429 87 24 C87.69416016 24.29583984 88.38832031 24.59167969 89.10351562 24.89648438 C125.15435796 40.28441967 125.15435796 40.28441967 136 53 C136 53.66 136 54.32 136 55 C134.74429199 54.85852539 133.48858398 54.71705078 132.19482422 54.57128906 C114.96462048 52.77864945 97.81111669 52.68125995 80.51224136 52.74205017 C78.09030409 52.75011554 75.66837608 52.75507213 73.24642944 52.75939941 C2.76789144 52.90399198 -71.58914307 53.78663552 -140.4375 70.5625 C-141.58980103 70.84081665 -141.58980103 70.84081665 -142.76538086 71.12475586 C-148.53256287 72.63197683 -153.95159716 74.89698289 -158.87597656 78.29418945 C-161 79 -161 79 -163.6628418 78.00878906 C-164.66484619 77.43354492 -165.66685059 76.85830078 -166.69921875 76.265625 C-167.8176416 75.63358154 -168.93606445 75.00153809 -170.08837891 74.3503418 C-171.28833671 73.65065777 -172.48803856 72.9505346 -173.6875 72.25 C-174.91771458 71.54663278 -176.14867644 70.84457101 -177.38037109 70.14379883 C-180.93237909 68.11638053 -184.46714725 66.06061401 -188 64 C-188.87640137 63.49194824 -189.75280273 62.98389648 -190.65576172 62.46044922 C-194.79614852 60.05886728 -198.91751073 57.6272739 -203.02734375 55.17382812 C-205.8286057 53.50693859 -208.64118253 51.85955223 -211.45336914 50.21118164 C-214.30215865 48.54034017 -217.14736677 46.86347398 -219.99169922 45.18505859 C-221.27672148 44.42679236 -222.5621636 43.6692369 -223.84814453 42.91259766 C-228.2567262 40.31483456 -232.6363849 37.67257158 -237 35 C-237.92232422 34.43635742 -238.84464844 33.87271484 -239.79492188 33.29199219 C-242.85062755 31.41587154 -245.89511198 29.52262837 -248.9375 27.625 C-249.92838623 27.0175293 -250.91927246 26.41005859 -251.94018555 25.78417969 C-252.85582275 25.20829102 -253.77145996 24.63240234 -254.71484375 24.0390625 C-255.54105225 23.52553223 -256.36726074 23.01200195 -257.21850586 22.48291016 C-257.80639893 21.9935498 -258.39429199 21.50418945 -259 21 C-259 20.01 -259 19.02 -259 18 C-197.52841568 -17.85842419 -67.91786954 -4.0034561 0 0 Z " fill="#F8D27C" transform="translate(585,225)"/>
<path d="M0 0 C17.35725488 -1.13544916 17.35725488 -1.13544916 23.6484375 3.67578125 C27.0085933 6.75768976 29.80432769 10.16806759 32.55419922 13.79443359 C34.63586163 16.38812609 37.0462081 18.35759475 39.6640625 20.39453125 C42.97719238 23.00428802 46.22736106 25.65119922 49.41235352 28.41650391 C57.76411442 35.6407054 66.59311625 42.20666619 75.48144531 48.75146484 C77.98022523 50.60098179 80.45999664 52.47368097 82.9375 54.3515625 C100.66820354 67.6785019 118.1750835 70.48749587 140.0390625 71.64453125 C140.0390625 71.97453125 140.0390625 72.30453125 140.0390625 72.64453125 C135.98281708 73.59942299 132.13848614 73.81073285 127.9765625 73.890625 C126.54345294 73.92225996 125.11034765 73.95408864 123.67724609 73.98608398 C122.92239929 74.0014621 122.16755249 74.01684021 121.38983154 74.03268433 C107.38624409 74.32664513 93.40088943 74.84039924 79.4140625 75.58203125 C78.66930664 75.61964569 77.92455078 75.65726013 77.15722656 75.6960144 C68.32817029 76.14599995 59.57635683 76.86239478 50.79554749 77.88978577 C45.62862295 78.4882808 40.46425376 78.96792062 35.27734375 79.35546875 C34.55410919 79.40950867 33.83087463 79.46354858 33.08572388 79.51922607 C31.60390581 79.62926014 30.12206343 79.73896723 28.64019775 79.84835815 C-20.25609788 82.69909448 -20.25609788 82.69909448 -67.05859375 95.53515625 C-70.35075453 95.72443859 -72.6477773 93.54957647 -75.2109375 91.70703125 C-76.55008279 90.7789393 -77.88998119 89.85193345 -79.23046875 88.92578125 C-79.97506348 88.40628906 -80.7196582 87.88679687 -81.48681641 87.3515625 C-85.21873427 84.77670857 -89.00099088 82.2791446 -92.7800293 79.77416992 C-120.37687482 61.48070002 -147.29753691 42.26847947 -173.9609375 22.64453125 C-172.9609375 19.64453125 -172.9609375 19.64453125 -170.87109375 18.3984375 C-125.49351269 -0.58669587 -65.76981001 2.21060507 -17.47354126 0.92607117 C-11.63178493 0.7613046 -5.82591191 0.45047051 0 0 Z " fill="#F8D27C" transform="translate(327.9609375,492.35546875)"/>
<path d="M0 0 C6.14835194 0.12051793 12.29661259 0.24483882 18.44482422 0.37231445 C20.52553348 0.41496372 22.60626237 0.45666834 24.68701172 0.49731445 C35.78629986 0.71478962 46.87806849 0.99064138 57.96875 1.48828125 C58.84939117 1.52747177 59.73003235 1.56666229 60.63735962 1.60704041 C103.65432829 3.65161636 146.82516236 25.98381484 179 54 C180.66273488 55.29672406 182.32944733 56.58836316 184 57.875 C198.92793367 69.78380102 198.92793367 69.78380102 201 76 C199.49986903 75.85552017 197.99990298 75.70932785 196.5 75.5625 C195.24703125 75.44068359 195.24703125 75.44068359 193.96875 75.31640625 C191.89832185 75.0957422 189.83373506 74.81570876 187.77709961 74.49072266 C181.08654652 73.65782829 174.3287708 73.83633401 167.59765625 73.83203125 C166.06001231 73.82803599 164.52236887 73.82384531 162.98472595 73.81947327 C158.01064001 73.80807016 153.0365949 73.80981769 148.0625 73.8125 C146.3511556 73.81244396 144.6398112 73.81238291 142.9284668 73.81231689 C120.27224684 73.81880982 97.64290971 74.06844383 75 74.875 C73.2840715 74.93380844 73.2840715 74.93380844 71.53347778 74.99380493 C59.12120397 75.43228291 46.82064956 76.20809624 34.47265625 77.54052734 C28.16199903 78.21271892 21.83557873 78.53296077 15.5 78.875 C3.50179531 79.58815358 -8.42900646 80.67637217 -20.375 82 C-21.14448975 82.08376892 -21.91397949 82.16753784 -22.70678711 82.25384521 C-33.44004126 83.43022199 -33.44004126 83.43022199 -44.02197266 85.54003906 C-47.64160148 86.38173009 -51.32470409 86.84203946 -55 87.375 C-61.52146498 88.36351271 -67.95369266 89.55168714 -74.375 91.0625 C-75.41720703 91.30589111 -75.41720703 91.30589111 -76.48046875 91.55419922 C-79.34421452 92.24966016 -82.06402717 93.02571803 -84.80078125 94.125 C-87.98595799 95.39228169 -89.71795311 94.96530791 -93 94 C-95.79262602 92.51026279 -98.4678548 90.90232228 -101 89 C-101 88.67 -101 88.34 -101 88 C-100.06019287 87.87471924 -99.12038574 87.74943848 -98.15209961 87.62036133 C-52.14896952 83.973238 -52.14896952 83.973238 -12.87109375 63.71875 C-9.42642027 58.71354594 -8.45349449 52.83214666 -7 47 C-6.731875 45.99582031 -6.46375 44.99164062 -6.1875 43.95703125 C-3.31514598 32.15345146 -2.49740975 19.98131369 -1.34130859 7.91577148 C-1.02730912 5.23329962 -0.57243622 2.6380124 0 0 Z " fill="#F8D27C" transform="translate(727,475)"/>
<path d="M0 0 C9.03494505 6.89941258 11.59647064 16.56129439 13.625 27.3125 C15.93913585 50.06816921 8.69769862 72.12776146 -5.375 90.01953125 C-6.92974743 91.92060863 -8.49751076 93.81116592 -10.08203125 95.6875 C-12.10587156 98.04590723 -12.10587156 98.04590723 -14 101 C-9.91649187 100.85882937 -5.83324094 100.71118323 -1.75 100.5625 C-0.61046875 100.52318359 0.5290625 100.48386719 1.703125 100.44335938 C8.27229075 100.20074814 14.7995956 99.80106117 21.34765625 99.22485352 C37.14459343 97.88566177 37.14459343 97.88566177 41.75 100.75 C44.97109995 103.97109995 46.30570742 106.75471998 46.5 111.3125 C46.39326295 115.93268955 44.91126681 118.3796463 41.70703125 121.62890625 C34.99109153 127.02317363 24.70423827 126.15027197 16.52734375 126.1328125 C15.5272377 126.13376923 14.52713165 126.13472595 13.49671936 126.13571167 C11.3846124 126.13639007 9.27250331 126.13455954 7.16040039 126.13037109 C3.97211863 126.12505769 0.78398031 126.13030718 -2.40429688 126.13671875 C-52.15626181 126.15472913 -52.15626181 126.15472913 -61.0625 117.375 C-61.701875 116.59125 -62.34125 115.8075 -63 115 C-63.33 114.67 -63.66 114.34 -64 114 C-64.203125 112.14453125 -64.203125 112.14453125 -64.25 109.8125 C-64.27578125 109.05582031 -64.3015625 108.29914063 -64.328125 107.51953125 C-63.87529982 104.04248079 -62.94794236 101.9336012 -61 99 C-58.46768356 97.47247884 -56.18493251 96.28631268 -53.5 95.125 C-34.62257292 86.27607346 -21.67340792 72.50147869 -14 53 C-11.03432667 41.82075402 -8.36696155 29.68334879 -14 19 C-16.55832883 16.98434699 -18.13996383 16.92521425 -21.3359375 17.203125 C-26.61105487 18.05854944 -31.13451224 19.13451224 -35 23 C-35.6865633 25.52024168 -36.07144748 28.00069158 -36.4375 30.5859375 C-37.25948323 34.11361551 -39.22732707 35.7960805 -42 38 C-42.33 38.33 -42.66 38.66 -43 39 C-46.38168693 39.43836682 -49.62344355 39.48685233 -53 39 C-56.0625 36.5625 -56.0625 36.5625 -58 34 C-58.33 33.67 -58.66 33.34 -59 33 C-59.91345001 21.96372696 -58.67493188 15.36526456 -51.8125 6.875 C-38.49510372 -7.54745682 -16.43442034 -11.49900618 0 0 Z " fill="#0275DE" transform="translate(415,651)"/>
<path d="M0 0 C1.09803955 -0.0304541 2.1960791 -0.0609082 3.32739258 -0.09228516 C10.28636888 -0.0954864 14.96338187 0.91372718 20.3125 5.5 C23.45238495 8.87537632 24.58984454 11.54388266 24.875 16.0625 C24.29688798 27.79992578 17.87913496 37.19578308 11.32421875 46.48046875 C9.12768276 49.17268816 9.12768276 49.17268816 9.3125 51.5 C10.42044922 51.97566406 10.42044922 51.97566406 11.55078125 52.4609375 C26.06826455 59.13861088 35.73852427 69.25482124 41.55078125 84.04296875 C46.05086954 98.55863816 42.96267656 113.26733316 36.3125 126.5 C28.57702679 139.42116906 18.1271329 146.93708835 3.95703125 151.60546875 C-7.46881131 154.40988241 -18.34341146 152.9918212 -28.6875 147.5 C-35.45112977 143.39496567 -39.91779053 138.42068244 -43.6875 131.5 C-44.10128906 130.76265625 -44.51507812 130.0253125 -44.94140625 129.265625 C-48.56974012 121.73082714 -48.80651263 113.65404555 -47.6875 105.5 C-46.32185133 102.13998894 -44.85466626 100.27749127 -41.6875 98.5 C-37.391923 97.0907493 -34.05767667 96.92148096 -29.875 98.6875 C-29.153125 99.285625 -28.43125 99.88375 -27.6875 100.5 C-26.99527344 101.04398438 -26.30304687 101.58796875 -25.58984375 102.1484375 C-22.95446529 105.40613326 -23.15285424 107.79352594 -23.0625 111.9375 C-22.90300925 118.45840722 -22.90300925 118.45840722 -20.6875 124.5 C-18.75366713 125.80065921 -18.75366713 125.80065921 -16.6875 126.5 C-16.0275 126.83 -15.3675 127.16 -14.6875 127.5 C-6.91743293 128.1723173 0.66711958 128.66526353 7.3828125 124.1796875 C14.15599043 118.2840063 18.64863725 111.37033686 19.66015625 102.42578125 C20.06665363 93.45156989 18.33550068 87.9348039 12.328125 81.3125 C5.22454458 74.4608196 -1.61290983 71.50907228 -11.4375 71.0625 C-15.49752303 70.86620172 -18.2314179 70.72223478 -21.4375 68.125 C-24.40886923 64.65840256 -25.34816877 61.38526955 -25.28125 56.79296875 C-23.95922757 51.68752685 -19.27217608 48.15902491 -15.6875 44.5 C-13.97611527 42.58356456 -12.28881121 40.64538017 -10.625 38.6875 C-9.87089844 37.81480469 -9.11679687 36.94210937 -8.33984375 36.04296875 C-4.26129462 30.92195774 -1.05201108 25.10508684 2.3125 19.5 C-2.74148592 19.76153121 -7.79516591 20.02818494 -12.84863281 20.29956055 C-14.56730854 20.39113465 -16.28605907 20.48131586 -18.00488281 20.57006836 C-20.47742429 20.69798308 -22.94965222 20.83092724 -25.421875 20.96484375 C-26.18868591 21.00343002 -26.95549683 21.0420163 -27.74554443 21.08177185 C-31.79838996 21.28347881 -31.79838996 21.28347881 -35.75836182 22.09669495 C-37.6875 22.5 -37.6875 22.5 -40.3125 21.25 C-42.6875 19.5 -42.6875 19.5 -44.6875 16.5 C-45.125 13.0625 -45.125 13.0625 -44.6875 9.5 C-35.66340433 -0.61792545 -12.39830096 0.17680599 0 0 Z " fill="#D33A2E" transform="translate(785.6875,621.5)"/>
<path d="M0 0 C5.04959784 3.26738684 7.09359879 6.18045947 9 12 C10.13519426 18.22857145 10.2761962 24.44726984 10.46484375 30.765625 C10.54354482 33.12630458 10.62232359 35.48698158 10.70117188 37.84765625 C10.81914504 41.51475639 10.9353797 45.18190091 11.04956055 48.84912109 C11.59913552 66.27577397 12.56729623 83.62294357 14 101 C14.75318512 100.85993027 15.50637024 100.71986053 16.28237915 100.57554626 C17.76609512 100.30213158 17.76609512 100.30213158 19.27978516 100.02319336 C20.25984528 99.84187363 21.2399054 99.66055389 22.24966431 99.47373962 C34.29806628 97.39842735 34.29806628 97.39842735 38.83203125 100.0859375 C40.1875 101.4375 40.1875 101.4375 42 104 C42.33 104.33 42.66 104.66 43 105 C43.38301738 108.25564772 43.67642942 110.86168034 41.953125 113.76171875 C40.16243098 115.93688531 38.53951219 117.73024391 36 119 C34.55165815 119.12971042 33.09801601 119.20249361 31.64453125 119.24609375 C30.26744995 119.2939502 30.26744995 119.2939502 28.86254883 119.34277344 C27.35277466 119.38966309 27.35277466 119.38966309 25.8125 119.4375 C18.42334039 119.68660489 11.05809636 120.04057227 3.6875 120.61328125 C2.28279925 120.71887166 0.87809549 120.82442194 -0.52661133 120.92993164 C-2.59923347 121.08638394 -4.67059777 121.24852951 -6.74130249 121.42868042 C-8.68438939 121.59734328 -10.629316 121.74438143 -12.57421875 121.890625 C-13.69401123 121.98375977 -14.81380371 122.07689453 -15.9675293 122.17285156 C-20.3074527 121.92547488 -22.76080454 120.15658243 -25.875 117.25 C-27.57946691 113.84106618 -26.96849323 111.61570806 -26 108 C-24.10888889 105.6818638 -22.66171969 104.33085985 -20 103 C-17.62597499 102.92883618 -15.24999323 102.91590915 -12.875 102.9375 C-10.95300781 102.95103516 -10.95300781 102.95103516 -8.9921875 102.96484375 C-8.00476563 102.97644531 -7.01734375 102.98804688 -6 103 C-6.05534912 102.40840088 -6.11069824 101.81680176 -6.16772461 101.20727539 C-8.41737604 76.18487775 -8.63199774 51.10572854 -9 26 C-9.66 26.33 -10.32 26.66 -11 27 C-14.19200721 27.27756584 -16.4070908 27.24964598 -19.375 26 C-21.40696269 23.49912284 -21.68607481 21.50729428 -21.50390625 18.31640625 C-20.03939126 11.58417841 -16.02523677 6.33896005 -10.5 2.375 C-6.85230475 0.23037515 -4.26740987 -1.04314463 0 0 Z " fill="#71BB37" transform="translate(563,362)"/>
</svg>
