<svg xmlns="http://www.w3.org/2000/svg" xmlns:xlink="http://www.w3.org/1999/xlink" width="1080" zoomAndPan="magnify" viewBox="0 0 810 809.999993" height="1080" preserveAspectRatio="xMidYMid meet" version="1.0"><path fill="#d1aa43" d="M 614.699219 503.703125 C 556.792969 559.132812 471.609375 619.515625 471.609375 619.515625 C 471.609375 619.515625 415.578125 581.285156 404.902344 559.921875 C 394.261719 538.601562 388.019531 387.257812 397.796875 372.144531 C 407.570312 356.988281 490.273438 422.980469 496.507812 437.234375 C 499.21875 443.476562 659.878906 460.519531 614.699219 503.703125 Z M 614.699219 503.703125 " fill-opacity="1" fill-rule="nonzero"/><path fill="#f9d37d" d="M 614.699219 503.703125 C 601.078125 501.816406 592.855469 483.792969 580.09375 479.90625 C 510.726562 458.707031 397.796875 372.144531 397.796875 372.144531 C 407.570312 356.988281 580.976562 352.554688 610.339844 359.660156 C 639.667969 366.804688 690.351562 399.863281 696.589844 414.113281 C 699.300781 420.359375 659.878906 460.519531 614.699219 503.703125 Z M 614.699219 503.703125 " fill-opacity="1" fill-rule="nonzero"/><path fill="#d3382e" d="M 696.589844 414.113281 C 688.664062 405.617188 485.839844 413.214844 473.230469 430.992188 C 455.867188 455.472656 454.707031 606.179688 471.609375 619.515625 C 488.515625 632.851562 664.464844 632.539062 689.472656 607.953125 C 704.847656 592.835938 704.519531 422.605469 696.589844 414.113281 Z M 696.589844 414.113281 " fill-opacity="1" fill-rule="nonzero"/><path fill="#f9d37d" d="M 662.046875 578.410156 C 661.933594 579.113281 661.71875 579.78125 661.40625 580.417969 C 661.089844 581.054688 660.691406 581.632812 660.207031 582.152344 C 659.71875 582.667969 659.167969 583.101562 658.550781 583.457031 C 657.933594 583.808594 657.28125 584.0625 656.589844 584.222656 C 638.726562 588.539062 602.53125 592.976562 554.082031 592.976562 C 532.027344 592.976562 515.019531 591.996094 503.558594 590.816406 C 502.757812 590.746094 501.988281 590.542969 501.257812 590.210938 C 500.523438 589.875 499.867188 589.433594 499.285156 588.875 C 498.703125 588.320312 498.230469 587.683594 497.867188 586.964844 C 497.5 586.246094 497.265625 585.492188 497.15625 584.691406 C 493.117188 553.089844 494.332031 491.570312 499.75 462.207031 C 499.878906 461.503906 500.109375 460.835938 500.441406 460.203125 C 500.769531 459.570312 501.1875 459.003906 501.695312 458.496094 C 502.199219 457.992188 502.765625 457.574219 503.398438 457.242188 C 504.03125 456.910156 504.699219 456.679688 505.402344 456.550781 C 533.707031 451.253906 597.035156 445.953125 653.015625 445.953125 C 655.140625 445.953125 657.097656 445.992188 658.945312 445.992188 C 659.398438 445.992188 659.847656 446.039062 660.296875 446.125 C 660.742188 446.210938 661.175781 446.339844 661.597656 446.511719 C 662.019531 446.679688 662.421875 446.890625 662.804688 447.136719 C 663.183594 447.386719 663.539062 447.667969 663.867188 447.980469 C 664.195312 448.296875 664.492188 448.640625 664.753906 449.011719 C 665.015625 449.382812 665.238281 449.777344 665.425781 450.191406 C 665.613281 450.605469 665.757812 451.035156 665.863281 451.476562 C 665.96875 451.921875 666.03125 452.367188 666.050781 452.824219 C 667.464844 489.371094 666.363281 550.105469 662.046875 578.410156 Z M 662.046875 578.410156 " fill-opacity="1" fill-rule="nonzero"/><path fill="#d1aa43" d="M 331.863281 516.734375 C 273.953125 572.167969 188.773438 632.546875 188.773438 632.546875 C 188.773438 632.546875 132.742188 594.316406 122.0625 572.953125 C 111.425781 551.636719 105.179688 400.289062 114.957031 385.175781 C 124.734375 370.023438 207.433594 436.015625 213.671875 450.265625 C 216.382812 456.507812 377.058594 473.550781 331.863281 516.734375 Z M 331.863281 516.734375 " fill-opacity="1" fill-rule="nonzero"/><path fill="#f9d37d" d="M 331.863281 516.734375 C 318.238281 514.851562 310.019531 496.824219 297.257812 492.9375 C 227.882812 471.738281 114.957031 385.175781 114.957031 385.175781 C 124.734375 370.023438 298.140625 365.585938 327.503906 372.691406 C 356.828125 379.835938 407.515625 412.894531 413.753906 427.144531 C 416.464844 433.386719 377.058594 473.550781 331.863281 516.734375 Z M 331.863281 516.734375 " fill-opacity="1" fill-rule="nonzero"/><path fill="#0075df" d="M 413.753906 427.144531 C 405.828125 418.648438 203.003906 426.246094 190.394531 444.023438 C 173.027344 468.503906 171.867188 619.210938 188.773438 632.546875 C 205.679688 645.882812 381.632812 645.570312 406.628906 620.984375 C 422.007812 605.867188 421.679688 435.636719 413.753906 427.144531 Z M 413.753906 427.144531 " fill-opacity="1" fill-rule="nonzero"/><path fill="#f9d37d" d="M 379.207031 591.441406 C 379.09375 592.144531 378.878906 592.8125 378.566406 593.449219 C 378.253906 594.085938 377.855469 594.664062 377.367188 595.183594 C 376.882812 595.699219 376.332031 596.136719 375.714844 596.488281 C 375.097656 596.839844 374.445312 597.09375 373.75 597.253906 C 355.886719 601.570312 319.691406 606.007812 271.246094 606.007812 C 249.1875 606.007812 232.183594 605.027344 220.722656 603.847656 C 219.921875 603.777344 219.152344 603.574219 218.421875 603.242188 C 217.6875 602.910156 217.03125 602.464844 216.449219 601.90625 C 215.867188 601.351562 215.394531 600.714844 215.03125 599.996094 C 214.664062 599.28125 214.429688 598.523438 214.320312 597.726562 C 210.277344 566.121094 211.496094 504.601562 216.914062 475.238281 C 217.042969 474.535156 217.269531 473.867188 217.601562 473.234375 C 217.933594 472.601562 218.351562 472.03125 218.855469 471.527344 C 219.363281 471.023438 219.929688 470.605469 220.5625 470.273438 C 221.195312 469.941406 221.863281 469.710938 222.566406 469.582031 C 250.871094 464.285156 314.195312 458.984375 370.179688 458.984375 C 372.300781 458.984375 374.261719 459.023438 376.105469 459.023438 C 376.5625 459.023438 377.011719 459.070312 377.457031 459.15625 C 377.902344 459.242188 378.339844 459.371094 378.761719 459.542969 C 379.179688 459.714844 379.582031 459.921875 379.964844 460.167969 C 380.347656 460.417969 380.703125 460.699219 381.03125 461.011719 C 381.355469 461.328125 381.652344 461.671875 381.914062 462.042969 C 382.175781 462.414062 382.402344 462.808594 382.589844 463.222656 C 382.773438 463.636719 382.921875 464.066406 383.027344 464.507812 C 383.128906 464.949219 383.191406 465.398438 383.210938 465.851562 C 384.625 502.40625 383.527344 563.136719 379.207031 591.441406 Z M 379.207031 591.441406 " fill-opacity="1" fill-rule="nonzero"/><path fill="#d1aa43" d="M 460.179688 300.699219 C 402.273438 356.132812 317.09375 416.511719 317.09375 416.511719 C 317.09375 416.511719 261.058594 378.28125 250.382812 356.917969 C 239.742188 335.597656 233.5 198.664062 243.277344 183.550781 C 253.050781 168.398438 335.753906 219.988281 341.992188 234.230469 C 344.707031 240.46875 505.367188 257.515625 460.179688 300.699219 Z M 460.179688 300.699219 " fill-opacity="1" fill-rule="nonzero"/><path fill="#f9d37d" d="M 460.179688 300.699219 C 446.558594 298.816406 438.328125 280.789062 425.582031 276.90625 C 356.207031 255.703125 243.277344 183.550781 243.277344 183.550781 C 253.046875 168.398438 426.457031 163.960938 455.820312 171.066406 C 485.148438 178.21875 535.832031 196.859375 542.078125 211.113281 C 544.78125 217.351562 505.367188 257.515625 460.179688 300.699219 Z M 460.179688 300.699219 " fill-opacity="1" fill-rule="nonzero"/><path fill="#6fbb36" d="M 542.078125 211.113281 C 534.152344 202.617188 331.324219 210.210938 318.714844 227.988281 C 301.351562 252.472656 300.191406 403.175781 317.097656 416.511719 C 334.003906 429.847656 509.949219 429.539062 534.957031 404.949219 C 550.324219 389.832031 550 219.601562 542.078125 211.113281 Z M 542.078125 211.113281 " fill-opacity="1" fill-rule="nonzero"/><path fill="#f9d37d" d="M 507.523438 375.40625 C 507.410156 376.109375 507.199219 376.777344 506.882812 377.414062 C 506.570312 378.050781 506.171875 378.628906 505.683594 379.148438 C 505.199219 379.664062 504.648438 380.101562 504.03125 380.453125 C 503.414062 380.804688 502.761719 381.058594 502.066406 381.21875 C 484.207031 385.539062 448.007812 389.96875 399.5625 389.96875 C 377.507812 389.96875 360.5 388.988281 349.039062 387.808594 C 348.238281 387.738281 347.46875 387.535156 346.738281 387.203125 C 346.003906 386.871094 345.347656 386.425781 344.765625 385.867188 C 344.183594 385.3125 343.710938 384.675781 343.347656 383.957031 C 342.980469 383.242188 342.746094 382.484375 342.640625 381.6875 C 338.59375 350.082031 339.8125 288.566406 345.230469 259.199219 C 345.359375 258.496094 345.589844 257.828125 345.917969 257.195312 C 346.25 256.5625 346.667969 255.996094 347.175781 255.488281 C 347.679688 254.984375 348.25 254.566406 348.882812 254.234375 C 349.511719 253.902344 350.179688 253.671875 350.882812 253.542969 C 379.1875 248.246094 442.511719 242.945312 498.496094 242.945312 C 500.621094 242.945312 502.582031 242.984375 504.425781 242.984375 C 504.878906 242.984375 505.328125 243.03125 505.777344 243.117188 C 506.222656 243.203125 506.65625 243.332031 507.078125 243.503906 C 507.5 243.675781 507.902344 243.882812 508.28125 244.132812 C 508.664062 244.378906 509.019531 244.660156 509.347656 244.976562 C 509.675781 245.289062 509.96875 245.632812 510.234375 246.003906 C 510.496094 246.375 510.71875 246.769531 510.90625 247.183594 C 511.09375 247.597656 511.238281 248.027344 511.34375 248.472656 C 511.449219 248.914062 511.511719 249.363281 511.53125 249.816406 C 512.941406 286.371094 511.851562 347.101562 507.523438 375.40625 Z M 507.523438 375.40625 " fill-opacity="1" fill-rule="nonzero"/><path fill="#6fbb36" d="M 446.023438 345.445312 C 442.03125 345.660156 437.992188 346.609375 433.988281 346.90625 L 432.765625 346.996094 C 432.664062 346.453125 432.5625 345.953125 432.515625 345.59375 C 432.324219 344.082031 432.132812 342.570312 431.949219 341.054688 C 431.277344 335.457031 430.839844 329.816406 430.433594 324.191406 C 429.945312 317.421875 429.605469 310.628906 429.453125 303.84375 C 429.324219 297.902344 429.636719 291.863281 429.074219 285.949219 C 428.492188 279.824219 426.40625 269.863281 418 271.898438 C 412.371094 273.25 408.195312 279.402344 406.277344 284.464844 C 403.90625 290.734375 413.027344 294.234375 416.28125 289.164062 C 416.242188 290.308594 416.214844 291.449219 416.15625 292.59375 C 415.980469 295.878906 415.851562 299.164062 415.792969 302.453125 C 415.679688 309.175781 415.683594 315.878906 415.957031 322.597656 C 416.210938 328.707031 416.691406 334.785156 417.253906 340.871094 C 417.4375 342.871094 417.546875 345.519531 417.941406 348.105469 C 414.671875 348.34375 411.410156 348.585938 408.152344 348.828125 C 407.703125 348.886719 407.261719 348.992188 406.835938 349.136719 C 406.40625 349.28125 405.996094 349.464844 405.601562 349.691406 C 405.210938 349.914062 404.839844 350.175781 404.5 350.472656 C 404.15625 350.769531 403.847656 351.097656 403.570312 351.453125 C 403.292969 351.8125 403.050781 352.191406 402.847656 352.597656 C 402.640625 353 402.480469 353.421875 402.355469 353.855469 C 402.234375 354.292969 402.15625 354.734375 402.121094 355.1875 C 402.085938 355.640625 402.09375 356.089844 402.148438 356.539062 C 402.210938 356.984375 402.320312 357.421875 402.46875 357.847656 C 402.617188 358.273438 402.804688 358.679688 403.035156 359.070312 C 403.261719 359.457031 403.523438 359.824219 403.820312 360.164062 C 404.117188 360.5 404.441406 360.808594 404.796875 361.085938 C 405.152344 361.363281 405.53125 361.605469 405.933594 361.808594 C 406.335938 362.015625 406.753906 362.179688 407.1875 362.304688 C 407.621094 362.425781 408.0625 362.511719 408.511719 362.550781 C 408.960938 362.589844 409.410156 362.585938 409.855469 362.542969 C 415.476562 362.152344 421.097656 361.761719 426.71875 361.367188 C 429.527344 361.167969 432.339844 360.964844 435.152344 360.773438 C 439.152344 360.5 443.242188 360.878906 447.21875 360.503906 C 447.714844 360.46875 448.207031 360.386719 448.6875 360.257812 C 449.171875 360.128906 449.636719 359.953125 450.085938 359.730469 C 450.53125 359.503906 450.953125 359.242188 451.347656 358.933594 C 451.742188 358.628906 452.105469 358.285156 452.429688 357.90625 C 452.757812 357.53125 453.042969 357.121094 453.289062 356.6875 C 453.535156 356.253906 453.738281 355.796875 453.894531 355.324219 C 454.046875 354.847656 454.15625 354.363281 454.214844 353.867188 C 454.273438 353.371094 454.285156 352.871094 454.246094 352.375 C 454.203125 351.875 454.117188 351.386719 453.980469 350.90625 C 453.84375 350.425781 453.660156 349.960938 453.429688 349.515625 C 453.203125 349.074219 452.929688 348.65625 452.621094 348.265625 C 452.308594 347.875 451.960938 347.519531 451.578125 347.195312 C 451.195312 346.875 450.785156 346.59375 450.347656 346.351562 C 449.90625 346.113281 449.449219 345.917969 448.972656 345.769531 C 448.496094 345.621094 448.007812 345.519531 447.511719 345.46875 C 447.015625 345.414062 446.515625 345.410156 446.019531 345.457031 Z M 446.023438 345.445312 " fill-opacity="1" fill-rule="nonzero"/><path fill="#0075df" d="M 337.464844 562.015625 C 333.699219 561.589844 329.554688 562.652344 325.757812 562.976562 C 319.714844 563.46875 313.660156 563.652344 307.597656 563.53125 C 305.078125 563.488281 302.566406 563.367188 300.054688 563.226562 C 304.261719 559.113281 307.921875 554.558594 311.039062 549.566406 C 314.15625 544.574219 316.636719 539.28125 318.484375 533.695312 C 321.863281 523.511719 323.007812 510.433594 319.269531 500.183594 C 319.035156 499.472656 318.769531 498.769531 318.46875 498.082031 C 318.171875 497.390625 317.839844 496.71875 317.480469 496.058594 C 317.121094 495.398438 316.730469 494.757812 316.3125 494.136719 C 315.894531 493.511719 315.449219 492.90625 314.976562 492.324219 C 314.503906 491.742188 314.003906 491.179688 313.480469 490.644531 C 312.957031 490.105469 312.410156 489.589844 311.839844 489.101562 C 311.269531 488.613281 310.675781 488.152344 310.066406 487.71875 C 309.453125 487.285156 308.820312 486.878906 308.171875 486.5 C 307.523438 486.125 306.859375 485.777344 306.175781 485.460938 C 305.496094 485.144531 304.800781 484.859375 304.09375 484.605469 C 303.386719 484.351562 302.671875 484.128906 301.945312 483.941406 C 301.21875 483.75 300.484375 483.59375 299.742188 483.472656 C 299.003906 483.351562 298.257812 483.261719 297.507812 483.207031 C 296.757812 483.152344 296.007812 483.132812 295.257812 483.148438 C 294.507812 483.160156 293.757812 483.207031 293.011719 483.289062 C 292.265625 483.371094 291.523438 483.484375 290.789062 483.636719 C 277.925781 485.953125 265.558594 495.964844 266.558594 510.03125 C 266.621094 510.59375 266.738281 511.144531 266.910156 511.683594 C 267.082031 512.222656 267.308594 512.738281 267.582031 513.234375 C 267.855469 513.726562 268.175781 514.191406 268.542969 514.621094 C 268.910156 515.050781 269.316406 515.441406 269.757812 515.792969 C 270.203125 516.144531 270.675781 516.445312 271.179688 516.703125 C 271.683594 516.960938 272.207031 517.164062 272.753906 517.316406 C 273.296875 517.46875 273.851562 517.566406 274.414062 517.609375 C 274.980469 517.652344 275.542969 517.640625 276.105469 517.574219 C 276.664062 517.503906 277.214844 517.378906 277.75 517.203125 C 278.289062 517.027344 278.800781 516.796875 279.292969 516.519531 C 279.785156 516.238281 280.246094 515.914062 280.671875 515.542969 C 281.101562 515.171875 281.488281 514.761719 281.832031 514.316406 C 282.179688 513.867188 282.476562 513.390625 282.730469 512.886719 C 282.980469 512.378906 283.179688 511.851562 283.328125 511.304688 C 283.476562 510.761719 283.570312 510.207031 283.605469 509.640625 C 283.644531 509.078125 283.625 508.515625 283.550781 507.953125 C 283.636719 509.199219 283.851562 507.3125 283.816406 506.84375 C 284.015625 506.449219 284.082031 506.28125 283.980469 506.390625 C 284.257812 505.984375 284.542969 505.585938 284.859375 505.207031 C 285.382812 504.53125 286.003906 503.960938 286.722656 503.5 C 286.644531 503.558594 288.414062 502.421875 288.265625 502.460938 C 290.125 501.402344 292.117188 500.75 294.242188 500.507812 C 296.066406 500.117188 297.804688 500.359375 299.453125 501.238281 C 301.996094 502.605469 303.222656 507.230469 303.347656 509.503906 C 303.753906 514.269531 303.300781 518.949219 301.980469 523.546875 C 301.441406 525.808594 300.761719 528.027344 299.945312 530.203125 C 299.878906 530.300781 298.984375 532.382812 298.867188 532.632812 C 298.394531 533.652344 297.894531 534.660156 297.367188 535.65625 C 295.195312 539.714844 292.5625 543.453125 289.476562 546.871094 C 288.847656 547.578125 288.203125 548.269531 287.539062 548.949219 C 287.425781 549.019531 285.816406 550.53125 285.625 550.703125 C 283.871094 552.230469 282.035156 553.65625 280.117188 554.972656 C 279.367188 555.488281 278.601562 555.976562 277.832031 556.460938 C 277.894531 556.386719 275.816406 557.578125 275.554688 557.710938 C 273.332031 558.816406 271.046875 559.78125 268.703125 560.605469 C 268.226562 560.8125 267.765625 561.054688 267.328125 561.335938 C 266.890625 561.617188 266.480469 561.933594 266.089844 562.28125 C 265.703125 562.628906 265.347656 563.003906 265.019531 563.410156 C 264.695312 563.816406 264.402344 564.242188 264.144531 564.695312 C 263.886719 565.148438 263.667969 565.617188 263.484375 566.105469 C 263.304688 566.59375 263.164062 567.089844 263.0625 567.601562 C 262.960938 568.113281 262.898438 568.628906 262.882812 569.148438 C 262.863281 569.667969 262.886719 570.1875 262.953125 570.703125 C 263.117188 571.738281 263.441406 572.726562 263.921875 573.660156 C 264.398438 574.59375 265.011719 575.429688 265.757812 576.171875 C 266.503906 576.910156 267.34375 577.519531 268.28125 577.992188 C 269.21875 578.464844 270.207031 578.78125 271.246094 578.9375 C 282.722656 581.210938 294.3125 582.5 306.007812 582.804688 C 311.855469 582.949219 317.703125 582.839844 323.550781 582.476562 C 330.902344 582.023438 343.433594 582.851562 345.648438 573.839844 C 345.808594 573.179688 345.902344 572.507812 345.917969 571.832031 C 345.9375 571.152344 345.886719 570.476562 345.761719 569.808594 C 345.640625 569.140625 345.445312 568.492188 345.1875 567.867188 C 344.925781 567.238281 344.601562 566.644531 344.214844 566.085938 C 343.828125 565.527344 343.386719 565.015625 342.890625 564.550781 C 342.398438 564.085938 341.859375 563.679688 341.277344 563.328125 C 340.695312 562.976562 340.082031 562.691406 339.441406 562.46875 C 338.796875 562.25 338.140625 562.097656 337.464844 562.015625 Z M 337.464844 562.015625 " fill-opacity="1" fill-rule="nonzero"/><path fill="#d3382e" d="M 611.976562 515.808594 C 609.621094 513.214844 606.984375 510.945312 604.070312 509 C 601.152344 507.058594 598.042969 505.5 594.738281 504.328125 C 596.875 501.40625 598.921875 498.421875 600.824219 495.371094 C 605.621094 487.671875 611.691406 475.832031 602.253906 468.773438 C 598.523438 465.984375 593.941406 466.273438 589.554688 466.335938 C 584.585938 466.371094 579.640625 466.691406 574.714844 467.300781 C 571.820312 467.683594 568.933594 468.144531 566.066406 468.691406 C 563.320312 468.976562 560.695312 469.703125 558.195312 470.871094 C 557.621094 471.226562 557.117188 471.664062 556.683594 472.183594 C 556.25 472.699219 555.910156 473.269531 555.660156 473.898438 C 555.410156 474.523438 555.261719 475.175781 555.222656 475.847656 C 555.179688 476.523438 555.246094 477.183594 555.417969 477.835938 C 555.652344 478.636719 556.027344 479.363281 556.542969 480.015625 C 557.058594 480.667969 557.679688 481.199219 558.402344 481.609375 C 559.421875 482.164062 562.078125 483.015625 563.039062 482.144531 C 563.707031 481.542969 567.21875 481.683594 568.222656 481.554688 C 569.515625 481.390625 570.804688 481.25 572.105469 481.136719 C 575.011719 480.882812 577.921875 480.648438 580.839844 480.601562 C 583.441406 480.554688 586.050781 480.46875 588.652344 480.476562 C 589.546875 480.476562 590.429688 480.539062 591.3125 480.605469 C 590.761719 481.714844 589.894531 482.804688 589.242188 483.855469 C 587.445312 486.75 585.539062 489.539062 583.46875 492.25 C 581.414062 494.984375 579.207031 497.589844 576.84375 500.0625 C 573.527344 503.480469 569.636719 506.289062 570.515625 511.652344 C 570.589844 512.207031 570.714844 512.75 570.894531 513.28125 C 571.070312 513.8125 571.300781 514.320312 571.574219 514.808594 C 571.851562 515.292969 572.167969 515.75 572.53125 516.175781 C 572.894531 516.601562 573.296875 516.988281 573.734375 517.335938 C 574.171875 517.6875 574.636719 517.988281 575.132812 518.25 C 575.628906 518.507812 576.144531 518.71875 576.683594 518.878906 C 577.21875 519.039062 577.765625 519.144531 578.320312 519.199219 C 578.878906 519.253906 579.433594 519.257812 579.992188 519.207031 C 581.9375 519.007812 583.867188 519.085938 585.789062 519.445312 C 587.710938 519.800781 589.542969 520.421875 591.285156 521.308594 C 594.921875 523.023438 597.933594 525.503906 600.3125 528.746094 C 600.640625 529.1875 600.96875 529.644531 601.28125 530.101562 L 601.53125 530.546875 C 602.082031 531.621094 602.550781 532.710938 603.058594 533.800781 C 603.191406 534.089844 603.28125 534.265625 603.347656 534.386719 C 603.371094 534.523438 603.410156 534.722656 603.476562 535.019531 C 603.738281 536.175781 603.90625 537.332031 604.109375 538.5 C 604.117188 538.78125 604.144531 539.066406 604.195312 539.34375 C 604.195312 539.777344 604.195312 540.207031 604.195312 540.636719 C 604.152344 541.8125 604.011719 542.96875 603.867188 544.132812 C 603.816406 544.429688 603.78125 544.625 603.757812 544.777344 C 603.636719 545.269531 603.507812 545.757812 603.363281 546.246094 C 603.035156 547.382812 602.597656 548.46875 602.183594 549.574219 C 602.023438 549.953125 601.921875 550.164062 601.871094 550.285156 C 601.652344 550.703125 601.429688 551.117188 601.191406 551.527344 C 600.601562 552.546875 599.957031 553.535156 599.261719 554.488281 C 599 554.847656 598.722656 555.199219 598.445312 555.550781 C 598.589844 555.351562 598.402344 555.550781 597.886719 556.128906 C 597.023438 556.929688 596.21875 557.761719 595.3125 558.523438 C 595.003906 558.777344 594.683594 559.011719 594.363281 559.261719 C 594.113281 559.390625 593.875 559.539062 593.648438 559.710938 C 592.871094 560.117188 592.125 560.582031 591.332031 560.96875 C 590.9375 561.160156 590.535156 561.332031 590.128906 561.503906 C 590.019531 561.53125 589.757812 561.617188 589.285156 561.773438 C 588.058594 562.105469 586.824219 562.375 585.570312 562.578125 L 584.9375 562.617188 C 584.300781 562.640625 583.660156 562.640625 583.023438 562.617188 C 582.179688 562.660156 581.34375 562.578125 580.523438 562.371094 C 578.425781 562.074219 576.535156 561.277344 574.859375 559.980469 C 575.65625 560.558594 573.386719 558.550781 573.113281 558.238281 C 573.722656 558.953125 572.015625 556.460938 571.804688 556.058594 C 571.300781 555.265625 571.039062 554.394531 571.015625 553.453125 C 570.953125 551.796875 571.089844 550.15625 571.421875 548.527344 C 572.09375 543.597656 567.027344 539.214844 562.449219 539.101562 C 561.847656 539.097656 561.25 539.152344 560.660156 539.261719 C 560.066406 539.375 559.492188 539.539062 558.933594 539.761719 C 558.375 539.980469 557.84375 540.253906 557.335938 540.578125 C 556.828125 540.902344 556.359375 541.273438 555.921875 541.6875 C 555.488281 542.101562 555.09375 542.554688 554.746094 543.042969 C 554.398438 543.53125 554.101562 544.050781 553.851562 544.597656 C 553.605469 545.148438 553.410156 545.714844 553.269531 546.296875 C 553.132812 546.882812 553.046875 547.476562 553.023438 548.078125 C 552.890625 549.695312 552.894531 551.3125 553.027344 552.929688 C 553.160156 554.546875 553.425781 556.144531 553.824219 557.71875 C 554.222656 559.289062 554.742188 560.820312 555.390625 562.308594 C 556.039062 563.796875 556.808594 565.222656 557.691406 566.585938 C 558.574219 567.945312 559.5625 569.226562 560.65625 570.425781 C 561.75 571.625 562.933594 572.726562 564.207031 573.734375 C 565.484375 574.738281 566.832031 575.632812 568.253906 576.414062 C 569.675781 577.195312 571.152344 577.859375 572.683594 578.398438 C 583.617188 582.398438 595.980469 579.503906 605.164062 572.855469 C 623.085938 559.890625 627.160156 532.46875 611.976562 515.808594 Z M 611.976562 515.808594 " fill-opacity="1" fill-rule="nonzero"/></svg>