<svg xmlns="http://www.w3.org/2000/svg" xmlns:xlink="http://www.w3.org/1999/xlink" width="1080" zoomAndPan="magnify" viewBox="0 0 810 809.999993" height="1080" preserveAspectRatio="xMidYMid meet" version="1.0"><defs><clipPath id="bd7e071887"><path d="M 124 583 L 673 583 L 673 691.445312 L 124 691.445312 Z M 124 583 " clip-rule="nonzero"/></clipPath><clipPath id="e4ca84de38"><path d="M 568 540 L 666.746094 540 L 666.746094 613 L 568 613 Z M 568 540 " clip-rule="nonzero"/></clipPath><clipPath id="517440f89c"><path d="M 121.152344 650.667969 L 291.953125 580.304688 L 665.316406 524.285156 L 666.296875 607.980469 L 554.003906 688.019531 L 339.773438 656.222656 Z M 121.152344 650.667969 " clip-rule="evenodd"/></clipPath><clipPath id="31a409c95c"><path d="M 626 553 L 666.746094 553 L 666.746094 585 L 626 585 Z M 626 553 " clip-rule="nonzero"/></clipPath><clipPath id="7d8dbd4a4a"><path d="M 121.152344 650.667969 L 291.953125 580.304688 L 665.316406 524.285156 L 666.296875 607.980469 L 554.003906 688.019531 L 339.773438 656.222656 Z M 121.152344 650.667969 " clip-rule="evenodd"/></clipPath><clipPath id="fabeaf028f"><path d="M 585 572 L 666.746094 572 L 666.746094 641 L 585 641 Z M 585 572 " clip-rule="nonzero"/></clipPath><clipPath id="74eeb2e12f"><path d="M 121.152344 650.667969 L 291.953125 580.304688 L 665.316406 524.285156 L 666.296875 607.980469 L 554.003906 688.019531 L 339.773438 656.222656 Z M 121.152344 650.667969 " clip-rule="evenodd"/></clipPath><clipPath id="2f19ed2c02"><path d="M 542 500 L 673 500 L 673 632.90625 L 542 632.90625 Z M 542 500 " clip-rule="nonzero"/></clipPath><clipPath id="be18f3d835"><path d="M 120.730469 582.859375 L 295.453125 500.019531 L 672.160156 521.96875 L 672.457031 527.492188 L 557.503906 607.734375 L 337.234375 632.828125 Z M 120.730469 582.859375 " clip-rule="evenodd"/></clipPath><clipPath id="131ecd302f"><path d="M 107 582 L 558 582 L 558 691.445312 L 107 691.445312 Z M 107 582 " clip-rule="nonzero"/></clipPath><clipPath id="94a7b203a8"><path d="M 588 451 L 686.589844 451 L 686.589844 524 L 588 524 Z M 588 451 " clip-rule="nonzero"/></clipPath><clipPath id="d19296dff4"><path d="M 140.992188 561.421875 L 311.792969 491.058594 L 685.15625 435.039062 L 686.136719 518.734375 L 573.847656 598.773438 L 359.613281 566.976562 Z M 140.992188 561.421875 " clip-rule="evenodd"/></clipPath><clipPath id="8e445835d7"><path d="M 646 464 L 686.589844 464 L 686.589844 496 L 646 496 Z M 646 464 " clip-rule="nonzero"/></clipPath><clipPath id="b675939e7c"><path d="M 140.992188 561.421875 L 311.792969 491.058594 L 685.15625 435.039062 L 686.136719 518.734375 L 573.847656 598.773438 L 359.613281 566.976562 Z M 140.992188 561.421875 " clip-rule="evenodd"/></clipPath><clipPath id="b7f18db335"><path d="M 604 483 L 686.589844 483 L 686.589844 552 L 604 552 Z M 604 483 " clip-rule="nonzero"/></clipPath><clipPath id="4d3261e2c1"><path d="M 140.992188 561.421875 L 311.792969 491.058594 L 685.15625 435.039062 L 686.136719 518.734375 L 573.847656 598.773438 L 359.613281 566.976562 Z M 140.992188 561.421875 " clip-rule="evenodd"/></clipPath><clipPath id="b9c64c1981"><path d="M 562 410 L 693 410 L 693 543.660156 L 562 543.660156 Z M 562 410 " clip-rule="nonzero"/></clipPath><clipPath id="6dffe091be"><path d="M 140.570312 493.613281 L 315.292969 410.773438 L 692 432.722656 L 692.296875 438.246094 L 577.347656 518.488281 L 357.074219 543.582031 Z M 140.570312 493.613281 " clip-rule="evenodd"/></clipPath><clipPath id="0d2b6ba479"><path d="M 584 360 L 690 360 L 690 434 L 584 434 Z M 584 360 " clip-rule="nonzero"/></clipPath><clipPath id="75ae332f04"><path d="M 132 480.617188 L 130.519531 406.859375 L 307.949219 400.574219 L 678.996094 353.128906 C 678.996094 353.128906 688.332031 364.84375 691.304688 381.191406 C 692.003906 385.082031 692.3125 388.785156 692.3125 392.269531 C 692.34375 414.671875 679.835938 428.3125 679.835938 428.3125 L 570.003906 508.292969 Z M 132 480.617188 " clip-rule="evenodd"/></clipPath><clipPath id="347924c7bd"><path d="M 642 373 L 687 373 L 687 405 L 642 405 Z M 642 373 " clip-rule="nonzero"/></clipPath><clipPath id="fdc8055f90"><path d="M 132 480.617188 L 130.519531 406.859375 L 307.949219 400.574219 L 678.996094 353.128906 C 678.996094 353.128906 688.332031 364.84375 691.304688 381.191406 C 692.003906 385.082031 692.3125 388.785156 692.3125 392.269531 C 692.34375 414.671875 679.835938 428.3125 679.835938 428.3125 L 570.003906 508.292969 Z M 132 480.617188 " clip-rule="evenodd"/></clipPath><clipPath id="93004e6a3a"><path d="M 601 393 L 693 393 L 693 462 L 601 462 Z M 601 393 " clip-rule="nonzero"/></clipPath><clipPath id="99882d644b"><path d="M 132 480.617188 L 130.519531 406.859375 L 307.949219 400.574219 L 678.996094 353.128906 C 678.996094 353.128906 688.332031 364.84375 691.304688 381.191406 C 692.003906 385.082031 692.3125 388.785156 692.3125 392.269531 C 692.34375 414.671875 679.835938 428.3125 679.835938 428.3125 L 570.003906 508.292969 Z M 132 480.617188 " clip-rule="evenodd"/></clipPath><clipPath id="4293c719b4"><path d="M 125 326 L 689 326 L 689 437.621094 L 125 437.621094 Z M 125 326 " clip-rule="nonzero"/></clipPath><clipPath id="3578214c99"><path d="M 125.804688 402.945312 L 311.449219 320.289062 L 688.160156 342.242188 L 688.453125 347.765625 L 569.363281 437.074219 L 125.867188 412.058594 Z M 125.804688 402.945312 " clip-rule="evenodd"/></clipPath><clipPath id="26888f6ddb"><path d="M 555 290 L 638.671875 290 L 638.671875 352 L 555 352 Z M 555 290 " clip-rule="nonzero"/></clipPath><clipPath id="2c95caf392"><path d="M 175.953125 383.542969 L 320.808594 323.867188 L 637.457031 276.355469 L 638.289062 347.339844 L 543.054688 415.21875 L 361.363281 388.253906 Z M 175.953125 383.542969 " clip-rule="evenodd"/></clipPath><clipPath id="0ef0a3e23b"><path d="M 604 301 L 638.671875 301 L 638.671875 328 L 604 328 Z M 604 301 " clip-rule="nonzero"/></clipPath><clipPath id="46405df0d3"><path d="M 175.953125 383.542969 L 320.808594 323.867188 L 637.457031 276.355469 L 638.289062 347.339844 L 543.054688 415.21875 L 361.363281 388.253906 Z M 175.953125 383.542969 " clip-rule="evenodd"/></clipPath><clipPath id="08efb90dbc"><path d="M 569 317 L 638.671875 317 L 638.671875 376 L 569 376 Z M 569 317 " clip-rule="nonzero"/></clipPath><clipPath id="5518684cab"><path d="M 175.953125 383.542969 L 320.808594 323.867188 L 637.457031 276.355469 L 638.289062 347.339844 L 543.054688 415.21875 L 361.363281 388.253906 Z M 175.953125 383.542969 " clip-rule="evenodd"/></clipPath><clipPath id="4b3586d82a"><path d="M 175 255.667969 L 644 255.667969 L 644 369 L 175 369 Z M 175 255.667969 " clip-rule="nonzero"/></clipPath><clipPath id="a81fd54173"><path d="M 533 255.667969 L 644 255.667969 L 644 368.476562 L 533 368.476562 Z M 533 255.667969 " clip-rule="nonzero"/></clipPath><clipPath id="491238aec5"><path d="M 175.59375 326.035156 L 323.777344 255.777344 L 643.261719 274.394531 L 643.511719 279.078125 L 546.023438 347.128906 L 359.210938 368.410156 Z M 175.59375 326.035156 " clip-rule="evenodd"/></clipPath><clipPath id="d83a6e21c1"><path d="M 194.050781 120 L 279 120 L 279 290 L 194.050781 290 Z M 194.050781 120 " clip-rule="nonzero"/></clipPath><clipPath id="0eb0459fe3"><path d="M 531 120 L 615.703125 120 L 615.703125 290 L 531 290 Z M 531 120 " clip-rule="nonzero"/></clipPath><clipPath id="75f7bdda1c"><path d="M 195 118.554688 L 615 118.554688 L 615 290 L 195 290 Z M 195 118.554688 " clip-rule="nonzero"/></clipPath></defs><g clip-path="url(#bd7e071887)"><path fill="#fbab33" d="M 124.652344 653.84375 L 295.453125 583.480469 L 672.160156 605.429688 L 672.457031 610.953125 L 557.503906 691.195312 L 343.273438 659.398438 Z M 124.652344 653.84375 " fill-opacity="1" fill-rule="evenodd"/></g><path fill="#ffead8" d="M 121.152344 650.667969 L 291.953125 580.304688 L 665.316406 524.285156 L 666.296875 607.980469 L 554.003906 688.019531 L 339.773438 656.222656 Z M 121.152344 650.667969 " fill-opacity="1" fill-rule="evenodd"/><g clip-path="url(#e4ca84de38)"><g clip-path="url(#517440f89c)"><path fill="#000000" d="M 673.484375 540.699219 C 645.441406 556.488281 618.472656 575.21875 592.503906 594.183594 C 584.269531 600.1875 576.613281 607.035156 568.273438 612.882812 " fill-opacity="0.05" fill-rule="evenodd"/></g></g><g clip-path="url(#31a409c95c)"><g clip-path="url(#7d8dbd4a4a)"><path fill="#000000" d="M 670.496094 553.644531 C 655.679688 563.769531 641.582031 574.894531 626.347656 584.429688 " fill-opacity="0.05" fill-rule="evenodd"/></g></g><g clip-path="url(#fabeaf028f)"><g clip-path="url(#74eeb2e12f)"><path fill="#000000" d="M 684.082031 572.761719 C 649.488281 592.550781 616.574219 616.335938 585.140625 640.792969 " fill-opacity="0.05" fill-rule="evenodd"/></g></g><path fill="#ffba50" d="M 120.730469 582.859375 L 295.453125 500.019531 L 672.160156 521.96875 L 672.457031 527.492188 L 557.503906 607.734375 L 337.234375 632.828125 Z M 120.730469 582.859375 " fill-opacity="1" fill-rule="evenodd"/><g clip-path="url(#2f19ed2c02)"><g clip-path="url(#be18f3d835)"><path fill="#fbab33" d="M 670.886719 523.960938 L 542.957031 611.125 L 563.230469 640.371094 L 695.96875 542.238281 L 693.683594 498.835938 Z M 670.886719 523.960938 " fill-opacity="1" fill-rule="evenodd"/></g></g><g clip-path="url(#131ecd302f)"><path fill="#fbab33" d="M 557.550781 607.71875 C 557.550781 607.71875 545.320312 613.707031 544.308594 649.910156 C 543.53125 677.535156 557.519531 691.226562 557.519531 691.226562 L 121.773438 662.246094 C 121.773438 662.246094 104.9375 648.710938 107.550781 619.167969 C 110.195312 589.222656 120.730469 582.859375 120.730469 582.859375 C 120.730469 582.859375 519.941406 606.910156 557.550781 607.71875 Z M 557.550781 607.71875 " fill-opacity="1" fill-rule="evenodd"/></g><path fill="#f8722b" d="M 144.492188 564.597656 L 315.292969 494.234375 L 692 516.1875 L 692.296875 521.710938 L 577.347656 601.949219 L 363.113281 570.152344 Z M 144.492188 564.597656 " fill-opacity="1" fill-rule="evenodd"/><path fill="#ffead8" d="M 140.992188 561.421875 L 311.792969 491.058594 L 685.15625 435.039062 L 686.136719 518.734375 L 573.847656 598.773438 L 359.613281 566.976562 Z M 140.992188 561.421875 " fill-opacity="1" fill-rule="evenodd"/><g clip-path="url(#94a7b203a8)"><g clip-path="url(#d19296dff4)"><path fill="#000000" d="M 693.324219 451.453125 C 665.285156 467.246094 638.316406 485.976562 612.34375 504.9375 C 604.113281 510.945312 596.457031 517.789062 588.113281 523.636719 " fill-opacity="0.05" fill-rule="evenodd"/></g></g><g clip-path="url(#8e445835d7)"><g clip-path="url(#b675939e7c)"><path fill="#000000" d="M 690.335938 464.398438 C 675.523438 474.527344 661.425781 485.648438 646.1875 495.183594 " fill-opacity="0.05" fill-rule="evenodd"/></g></g><g clip-path="url(#b7f18db335)"><g clip-path="url(#4d3261e2c1)"><path fill="#000000" d="M 703.921875 483.515625 C 669.328125 503.304688 636.417969 527.09375 604.984375 551.546875 " fill-opacity="0.05" fill-rule="evenodd"/></g></g><path fill="#ff8d50" d="M 140.570312 493.613281 L 315.292969 410.773438 L 692 432.722656 L 692.296875 438.246094 L 577.347656 518.488281 L 357.074219 543.582031 Z M 140.570312 493.613281 " fill-opacity="1" fill-rule="evenodd"/><g clip-path="url(#b9c64c1981)"><g clip-path="url(#6dffe091be)"><path fill="#f8722b" d="M 690.726562 434.714844 L 562.796875 521.878906 L 583.074219 551.128906 L 715.8125 452.996094 L 713.523438 409.589844 Z M 690.726562 434.714844 " fill-opacity="1" fill-rule="evenodd"/></g></g><path fill="#f8722b" d="M 577.394531 518.472656 C 577.394531 518.472656 565.160156 524.460938 564.148438 560.664062 C 563.371094 588.292969 577.363281 601.980469 577.363281 601.980469 L 141.613281 573 C 141.613281 573 124.777344 559.464844 127.390625 529.921875 C 130.035156 499.976562 140.570312 493.613281 140.570312 493.613281 C 140.570312 493.613281 539.78125 517.664062 577.394531 518.472656 Z M 577.394531 518.472656 " fill-opacity="1" fill-rule="evenodd"/><path fill="#90b1a3" d="M 128.511719 489.78125 L 128.183594 481.800781 L 181.03125 444.871094 C 254.558594 454.296875 569.363281 476.214844 569.363281 476.214844 C 569.363281 476.214844 652.773438 340.453125 688.207031 342.242188 C 688.207031 342.242188 699.160156 350.347656 702.351562 384.648438 C 705.058594 413.617188 690.960938 430.292969 690.960938 430.292969 L 570.265625 514.765625 Z M 128.511719 489.78125 " fill-opacity="1" fill-rule="evenodd"/><path fill="#ffead8" d="M 132 480.617188 L 130.519531 406.859375 L 307.949219 400.574219 L 678.996094 353.128906 C 678.996094 353.128906 688.332031 364.84375 691.304688 381.191406 C 692.003906 385.082031 692.3125 388.785156 692.3125 392.269531 C 692.34375 414.671875 679.835938 428.3125 679.835938 428.3125 L 570.003906 508.292969 Z M 132 480.617188 " fill-opacity="1" fill-rule="evenodd"/><g clip-path="url(#0d2b6ba479)"><g clip-path="url(#75ae332f04)"><path fill="#000000" d="M 689.480469 360.972656 C 661.441406 376.761719 634.472656 395.492188 608.5 414.457031 C 600.269531 420.460938 592.613281 427.304688 584.269531 433.15625 " fill-opacity="0.05" fill-rule="evenodd"/></g></g><g clip-path="url(#347924c7bd)"><g clip-path="url(#fdc8055f90)"><path fill="#000000" d="M 686.492188 373.914062 C 671.679688 384.042969 657.582031 395.164062 642.34375 404.703125 " fill-opacity="0.05" fill-rule="evenodd"/></g></g><g clip-path="url(#93004e6a3a)"><g clip-path="url(#99882d644b)"><path fill="#000000" d="M 700.078125 393.035156 C 665.484375 412.824219 632.574219 436.609375 601.140625 461.0625 " fill-opacity="0.05" fill-rule="evenodd"/></g></g><path fill="#b0ccc0" d="M 125.804688 402.945312 L 311.449219 320.289062 L 688.160156 342.242188 L 688.453125 347.765625 L 569.363281 437.074219 L 125.867188 412.058594 Z M 125.804688 402.945312 " fill-opacity="1" fill-rule="evenodd"/><g clip-path="url(#4293c719b4)"><g clip-path="url(#3578214c99)"><path fill="#90b1a3" d="M 708.886719 326.933594 L 567.667969 430.867188 L 74.359375 401.386719 L 122.722656 451.308594 L 579.230469 460.644531 L 711.96875 362.511719 Z M 708.886719 326.933594 " fill-opacity="1" fill-rule="evenodd"/></g></g><path fill="#ef937a" d="M 178.921875 386.238281 L 323.777344 326.5625 L 643.261719 345.175781 L 643.511719 349.859375 L 546.023438 417.914062 L 364.332031 390.945312 Z M 178.921875 386.238281 " fill-opacity="1" fill-rule="evenodd"/><path fill="#ffead8" d="M 175.953125 383.542969 L 320.808594 323.867188 L 637.457031 276.355469 L 638.289062 347.339844 L 543.054688 415.21875 L 361.363281 388.253906 Z M 175.953125 383.542969 " fill-opacity="1" fill-rule="evenodd"/><g clip-path="url(#26888f6ddb)"><g clip-path="url(#2c95caf392)"><path fill="#000000" d="M 644.382812 290.277344 C 620.601562 303.671875 597.730469 319.554688 575.703125 335.636719 C 568.722656 340.730469 562.230469 346.535156 555.15625 351.496094 " fill-opacity="0.05" fill-rule="evenodd"/></g></g><g clip-path="url(#0ef0a3e23b)"><g clip-path="url(#46405df0d3)"><path fill="#000000" d="M 641.851562 301.253906 C 629.285156 309.84375 617.328125 319.277344 604.410156 327.367188 " fill-opacity="0.05" fill-rule="evenodd"/></g></g><g clip-path="url(#08efb90dbc)"><g clip-path="url(#5518684cab)"><path fill="#000000" d="M 653.371094 317.46875 C 624.035156 334.253906 596.121094 354.425781 569.460938 375.167969 " fill-opacity="0.05" fill-rule="evenodd"/></g></g><g clip-path="url(#4b3586d82a)"><path fill="#fcae98" d="M 175.59375 326.035156 L 323.777344 255.777344 L 643.261719 274.394531 L 643.511719 279.078125 L 546.023438 347.128906 L 359.210938 368.410156 Z M 175.59375 326.035156 " fill-opacity="1" fill-rule="evenodd"/></g><g clip-path="url(#a81fd54173)"><g clip-path="url(#491238aec5)"><path fill="#ef937a" d="M 642.179688 276.082031 L 533.683594 350.007812 L 550.878906 374.8125 L 663.453125 291.585938 L 661.515625 254.773438 Z M 642.179688 276.082031 " fill-opacity="1" fill-rule="evenodd"/></g></g><path fill="#ef937a" d="M 546.0625 347.117188 C 546.0625 347.117188 535.691406 352.195312 534.832031 382.898438 C 534.171875 406.332031 546.035156 417.941406 546.035156 417.941406 L 176.480469 393.359375 C 176.480469 393.359375 162.199219 381.882812 164.417969 356.828125 C 166.660156 331.429688 175.59375 326.035156 175.59375 326.035156 C 175.59375 326.035156 514.164062 346.429688 546.0625 347.117188 Z M 546.0625 347.117188 " fill-opacity="1" fill-rule="evenodd"/><g clip-path="url(#d83a6e21c1)"><path fill="#7dbff3" d="M 278.5625 120.945312 L 236.40625 120.945312 C 217.652344 121.308594 206.160156 124.054688 201.9375 129.179688 C 196.765625 134.542969 194.230469 144.730469 194.335938 159.742188 L 194.25 247.414062 C 194.859375 261.589844 195.910156 270.328125 197.398438 273.625 C 199.058594 277.964844 200.226562 280.378906 200.902344 280.863281 C 202.890625 283.445312 205.253906 285.300781 207.996094 286.425781 C 212.796875 288.660156 220.597656 289.71875 231.402344 289.597656 L 278.5625 289.570312 L 278.5625 120.945312 " fill-opacity="1" fill-rule="nonzero"/></g><g clip-path="url(#0eb0459fe3)"><path fill="#fe3c3c" d="M 531.425781 120.945312 L 573.582031 120.945312 C 592.335938 121.308594 603.824219 124.054688 608.050781 129.179688 C 613.222656 134.542969 615.757812 144.730469 615.652344 159.742188 L 615.738281 247.414062 C 615.125 261.589844 614.078125 270.328125 612.589844 273.625 C 610.929688 277.964844 609.761719 280.378906 609.085938 280.863281 C 607.097656 283.445312 604.734375 285.300781 601.992188 286.425781 C 597.191406 288.660156 589.386719 289.71875 578.585938 289.597656 L 531.425781 289.570312 L 531.425781 120.945312 " fill-opacity="1" fill-rule="nonzero"/></g><g clip-path="url(#75f7bdda1c)"><path fill="#000000" d="M 574.703125 118.582031 C 573.554688 118.582031 572.613281 119.5 572.589844 120.652344 C 572.570312 121.820312 573.496094 122.78125 574.664062 122.804688 C 583.359375 122.964844 591.453125 123.148438 597.226562 125.527344 C 602.855469 127.84375 606.425781 132.332031 610.367188 137.359375 C 610.785156 137.890625 611.402344 138.167969 612.03125 138.167969 C 612.484375 138.167969 612.945312 138.019531 613.332031 137.71875 C 614.25 136.996094 614.410156 135.671875 613.691406 134.753906 C 609.855469 129.855469 605.648438 124.425781 598.835938 121.621094 C 592.167969 118.875 583.152344 118.738281 574.742188 118.582031 C 574.726562 118.582031 574.714844 118.582031 574.703125 118.582031 Z M 234.4375 118.882812 C 234.425781 118.882812 234.410156 118.882812 234.398438 118.882812 C 225.984375 119.039062 216.972656 119.175781 210.304688 121.921875 C 203.488281 124.726562 199.285156 130.15625 195.449219 135.054688 C 194.730469 135.972656 194.890625 137.296875 195.808594 138.019531 C 196.195312 138.320312 196.652344 138.46875 197.109375 138.46875 C 197.734375 138.46875 198.355469 138.191406 198.773438 137.660156 C 202.710938 132.632812 206.285156 128.144531 211.910156 125.828125 C 217.683594 123.449219 225.78125 123.265625 234.476562 123.105469 C 235.640625 123.082031 236.570312 122.121094 236.546875 120.953125 C 236.527344 119.800781 235.585938 118.882812 234.4375 118.882812 Z M 258.664062 132.84375 L 258.664062 143.460938 L 269.285156 143.460938 L 269.285156 132.84375 Z M 539.816406 135.929688 C 539.816406 139.46875 539.816406 143.007812 539.816406 146.550781 C 543.355469 146.550781 546.894531 146.550781 550.433594 146.546875 C 550.433594 143.007812 550.433594 139.46875 550.433594 135.929688 Z M 585.046875 146.480469 C 583.246094 146.527344 581.75 147.148438 580.554688 148.34375 C 579.359375 149.539062 578.738281 151.035156 578.691406 152.835938 C 578.695312 153.425781 578.769531 153.988281 578.917969 154.527344 L 579.191406 155.3125 C 579.410156 155.820312 579.683594 156.289062 580.015625 156.722656 C 581.058594 158.054688 582.449219 158.859375 584.1875 159.136719 C 584.476562 159.167969 584.757812 159.183594 585.035156 159.183594 C 586.503906 159.183594 587.800781 158.746094 588.933594 157.867188 C 590.265625 156.828125 591.070312 155.4375 591.347656 153.699219 L 591.402344 152.835938 C 591.359375 151.035156 590.738281 149.539062 589.542969 148.34375 C 588.347656 147.148438 586.847656 146.527344 585.046875 146.480469 Z M 572.335938 159.191406 C 570.535156 159.238281 569.039062 159.859375 567.84375 161.054688 C 566.648438 162.25 566.027344 163.75 565.980469 165.546875 C 565.984375 166.136719 566.058594 166.699219 566.207031 167.238281 L 566.480469 168.023438 C 566.695312 168.53125 566.972656 169 567.304688 169.433594 C 568.347656 170.765625 569.738281 171.570312 571.476562 171.847656 C 571.765625 171.878906 572.046875 171.894531 572.324219 171.894531 C 573.792969 171.894531 575.089844 171.457031 576.222656 170.578125 C 577.554688 169.539062 578.359375 168.148438 578.636719 166.410156 L 578.691406 165.546875 C 578.648438 163.75 578.027344 162.25 576.832031 161.054688 C 575.636719 159.859375 574.136719 159.238281 572.335938 159.191406 Z M 597.757812 159.191406 C 595.960938 159.238281 594.460938 159.859375 593.265625 161.054688 C 592.070312 162.25 591.449219 163.75 591.402344 165.546875 C 591.40625 166.136719 591.480469 166.699219 591.632812 167.238281 L 591.902344 168.023438 C 592.121094 168.53125 592.394531 169 592.726562 169.433594 C 593.769531 170.765625 595.160156 171.570312 596.898438 171.847656 C 597.1875 171.878906 597.46875 171.894531 597.746094 171.894531 C 599.214844 171.894531 600.511719 171.457031 601.644531 170.578125 C 602.976562 169.539062 603.78125 168.148438 604.058594 166.410156 L 604.113281 165.546875 C 604.070312 163.75 603.449219 162.25 602.253906 161.054688 C 601.058594 159.859375 599.558594 159.238281 597.757812 159.191406 Z M 232.082031 148.21875 C 227.179688 148.34375 223.101562 150.035156 219.847656 153.289062 C 216.589844 156.542969 214.902344 160.621094 214.777344 165.523438 C 214.78125 167.121094 214.988281 168.65625 215.394531 170.125 L 216.136719 172.261719 C 216.726562 173.644531 217.476562 174.925781 218.382812 176.097656 C 221.21875 179.730469 225.003906 181.921875 229.734375 182.671875 C 230.523438 182.757812 231.292969 182.800781 232.050781 182.800781 C 236.042969 182.800781 239.582031 181.605469 242.65625 179.222656 C 246.289062 176.386719 248.480469 172.605469 249.230469 167.875 L 249.386719 165.523438 C 249.261719 160.621094 247.574219 156.542969 244.320312 153.289062 C 241.0625 150.035156 236.984375 148.34375 232.082031 148.21875 Z M 585.046875 171.902344 C 583.246094 171.949219 581.75 172.570312 580.554688 173.765625 C 579.359375 174.960938 578.738281 176.460938 578.691406 178.261719 C 578.695312 178.847656 578.769531 179.410156 578.917969 179.949219 L 579.191406 180.734375 C 579.410156 181.242188 579.683594 181.710938 580.015625 182.144531 C 581.058594 183.476562 582.449219 184.28125 584.1875 184.558594 C 584.476562 184.589844 584.757812 184.605469 585.035156 184.605469 C 586.503906 184.605469 587.800781 184.167969 588.933594 183.292969 C 590.265625 182.25 591.070312 180.859375 591.347656 179.121094 L 591.402344 178.261719 C 591.359375 176.460938 590.738281 174.960938 589.542969 173.765625 C 588.347656 172.570312 586.847656 171.949219 585.046875 171.902344 Z M 225.058594 197.578125 C 225.058594 201.714844 225.058594 205.847656 225.058594 209.980469 L 212.652344 209.980469 C 212.652344 214.117188 212.652344 218.25 212.652344 222.386719 C 216.785156 222.386719 220.921875 222.386719 225.054688 222.386719 L 225.058594 222.386719 C 225.058594 226.519531 225.058594 230.65625 225.058594 234.789062 C 229.191406 234.789062 233.324219 234.789062 237.460938 234.789062 C 237.460938 230.65625 237.460938 226.519531 237.460938 222.386719 L 237.457031 222.386719 C 241.59375 222.386719 245.730469 222.386719 249.863281 222.386719 C 249.863281 218.25 249.863281 214.117188 249.863281 209.984375 L 237.460938 209.984375 C 237.460938 205.847656 237.460938 201.714844 237.460938 197.578125 Z M 585.046875 209.320312 C 579.792969 209.453125 575.421875 211.265625 571.933594 214.753906 C 568.445312 218.242188 566.636719 222.613281 566.503906 227.867188 C 566.507812 229.578125 566.730469 231.222656 567.167969 232.796875 L 567.960938 235.085938 C 568.589844 236.570312 569.394531 237.941406 570.367188 239.199219 C 573.40625 243.089844 577.460938 245.4375 582.53125 246.242188 C 583.375 246.332031 584.203125 246.378906 585.011719 246.378906 C 589.292969 246.378906 593.082031 245.101562 596.378906 242.546875 C 600.273438 239.507812 602.621094 235.453125 603.421875 230.382812 L 603.59375 227.867188 C 603.460938 222.613281 601.648438 218.242188 598.160156 214.753906 C 594.671875 211.265625 590.300781 209.453125 585.046875 209.320312 Z M 258.664062 260.21875 C 258.664062 263.757812 258.664062 267.300781 258.664062 270.839844 C 262.207031 270.839844 265.746094 270.839844 269.285156 270.839844 C 269.285156 267.300781 269.285156 263.757812 269.285156 260.21875 Z M 547.066406 261.703125 C 545.066406 261.753906 543.402344 262.445312 542.074219 263.773438 C 540.746094 265.101562 540.054688 266.765625 540.003906 268.769531 C 540.007812 269.421875 540.089844 270.046875 540.257812 270.644531 L 540.558594 271.519531 C 540.800781 272.082031 541.105469 272.605469 541.476562 273.085938 C 542.632812 274.566406 544.179688 275.460938 546.109375 275.765625 C 546.429688 275.800781 546.746094 275.820312 547.054688 275.820312 C 548.683594 275.820312 550.128906 275.332031 551.382812 274.359375 C 552.867188 273.203125 553.761719 271.65625 554.066406 269.726562 L 554.132812 268.769531 C 554.082031 266.765625 553.390625 265.101562 552.0625 263.773438 C 550.734375 262.445312 549.070312 261.753906 547.066406 261.703125 Z M 278.558594 120.945312 C 278.5625 177.152344 278.5625 233.359375 278.5625 289.570312 C 362.871094 289.570312 447.183594 289.570312 531.496094 289.570312 C 531.496094 233.359375 531.496094 177.152344 531.496094 120.945312 Z M 278.558594 120.945312 " fill-opacity="1" fill-rule="nonzero"/></g><path fill="#454447" d="M 293.238281 132.761719 L 405.730469 132.761719 L 518.226562 132.765625 L 518.226562 276.414062 C 443.230469 276.414062 368.234375 276.414062 293.238281 276.414062 C 293.238281 228.53125 293.238281 180.648438 293.238281 132.761719 Z M 293.238281 132.761719 " fill-opacity="1" fill-rule="nonzero"/><path fill="#fefefe" d="M 210.449219 122.792969 L 210.417969 122.800781 C 210.097656 122.847656 209.890625 122.890625 209.800781 122.933594 C 209.566406 123.035156 209.375 123.132812 209.226562 123.226562 C 208.808594 123.484375 208.386719 123.84375 207.960938 124.300781 C 207.78125 124.511719 207.660156 124.695312 207.597656 124.847656 C 207.546875 124.992188 207.542969 125.101562 207.585938 125.171875 C 207.605469 125.21875 207.652344 125.238281 207.726562 125.238281 C 207.765625 125.234375 207.808594 125.21875 207.851562 125.183594 C 208.023438 125.167969 208.238281 125.128906 208.488281 125.0625 C 208.699219 124.996094 208.824219 124.949219 208.859375 124.921875 C 209.027344 124.832031 209.300781 124.671875 209.671875 124.441406 C 209.875 124.3125 210.007812 124.21875 210.070312 124.164062 C 210.324219 123.964844 210.484375 123.820312 210.550781 123.738281 C 210.589844 123.695312 210.621094 123.644531 210.648438 123.585938 L 210.65625 123.523438 C 210.652344 123.472656 210.644531 123.417969 210.625 123.359375 L 210.449219 122.863281 C 210.441406 122.828125 210.441406 122.804688 210.449219 122.792969 Z M 321.332031 124.03125 C 321.183594 124.03125 320.867188 124.046875 320.386719 124.078125 C 320.316406 124.082031 320.15625 124.101562 319.910156 124.128906 L 319.414062 124.203125 C 319.289062 124.214844 319.171875 124.226562 319.050781 124.234375 C 318.976562 124.238281 318.898438 124.238281 318.816406 124.238281 C 318.777344 124.238281 318.734375 124.238281 318.695312 124.238281 C 318.363281 124.214844 318.144531 124.199219 318.039062 124.199219 C 318.027344 124.199219 318.019531 124.199219 318.011719 124.199219 L 317.964844 124.222656 L 317.925781 124.285156 C 317.902344 124.34375 317.878906 124.414062 317.859375 124.5 L 317.71875 125.273438 C 317.707031 125.328125 317.691406 125.355469 317.671875 125.359375 C 317.867188 125.398438 318.058594 125.421875 318.246094 125.429688 L 318.988281 125.453125 C 319.390625 125.472656 319.726562 125.492188 319.996094 125.515625 L 320.433594 125.519531 C 320.4375 125.519531 320.441406 125.519531 320.449219 125.519531 C 320.503906 125.519531 320.691406 125.5 321.007812 125.464844 C 321.132812 125.453125 321.269531 125.433594 321.417969 125.410156 C 321.464844 125.40625 321.71875 125.355469 322.1875 125.25 C 322.367188 125.210938 322.5 125.179688 322.578125 125.15625 C 322.847656 125.085938 323.097656 124.996094 323.332031 124.886719 C 323.507812 124.808594 323.589844 124.765625 323.578125 124.761719 C 323.609375 124.738281 323.632812 124.710938 323.652344 124.679688 C 323.714844 124.589844 323.710938 124.496094 323.644531 124.398438 C 323.632812 124.382812 323.605469 124.375 323.570312 124.375 C 323.503906 124.34375 323.433594 124.3125 323.355469 124.285156 C 323.242188 124.246094 323.167969 124.222656 323.136719 124.214844 C 323.003906 124.179688 322.921875 124.164062 322.894531 124.164062 C 322.484375 124.109375 322.242188 124.078125 322.164062 124.070312 C 321.925781 124.042969 321.675781 124.03125 321.410156 124.03125 L 321.378906 124.03125 C 321.363281 124.03125 321.347656 124.03125 321.332031 124.03125 Z M 306.988281 123.886719 C 306.914062 123.886719 306.835938 123.886719 306.757812 123.886719 C 305.742188 123.890625 304.953125 123.898438 304.390625 123.902344 C 302.664062 123.933594 301.640625 123.949219 301.320312 123.949219 C 301.308594 123.949219 301.296875 123.949219 301.289062 123.949219 L 299.0625 124.023438 C 298.707031 124.035156 298.324219 124.042969 297.917969 124.050781 L 291.890625 124.09375 L 289.484375 124.144531 L 287.371094 124.214844 C 286.261719 124.277344 285.375 124.339844 284.71875 124.402344 L 284.335938 124.410156 C 284.171875 124.421875 284.023438 124.449219 283.894531 124.488281 C 283.894531 124.488281 283.894531 124.488281 283.890625 124.488281 C 283.804688 124.488281 283.730469 124.550781 283.671875 124.675781 L 283.496094 125.445312 L 283.546875 125.457031 C 283.859375 125.527344 284.054688 125.5625 284.136719 125.566406 C 284.480469 125.578125 284.75 125.597656 284.945312 125.625 L 285.402344 125.636719 L 286.398438 125.679688 C 287.054688 125.699219 287.453125 125.710938 287.589844 125.710938 L 289 125.71875 C 289.933594 125.734375 290.476562 125.746094 290.625 125.746094 C 290.632812 125.746094 290.636719 125.746094 290.644531 125.746094 C 291.226562 125.75 291.730469 125.753906 292.160156 125.753906 C 292.199219 125.753906 292.238281 125.753906 292.277344 125.753906 C 293.945312 125.746094 294.957031 125.742188 295.316406 125.738281 C 295.320312 125.738281 295.324219 125.738281 295.332031 125.738281 C 295.566406 125.738281 296.386719 125.726562 297.78125 125.699219 C 298.054688 125.695312 298.3125 125.695312 298.5625 125.695312 C 298.691406 125.695312 298.820312 125.695312 298.941406 125.695312 C 298.953125 125.695312 298.960938 125.695312 298.972656 125.695312 C 299.164062 125.695312 299.683594 125.703125 300.53125 125.722656 L 300.96875 125.742188 C 302.40625 125.761719 303.882812 125.792969 305.398438 125.835938 C 305.835938 125.84375 306.269531 125.847656 306.695312 125.847656 C 306.808594 125.847656 306.921875 125.847656 307.03125 125.847656 C 307.761719 125.847656 308.390625 125.84375 308.914062 125.835938 C 309.703125 125.8125 310.160156 125.796875 310.289062 125.789062 C 310.921875 125.753906 311.453125 125.6875 311.894531 125.59375 C 312.351562 125.472656 312.710938 125.304688 312.976562 125.089844 C 313.078125 124.992188 313.082031 124.898438 312.996094 124.8125 L 312.234375 124.359375 C 312.160156 124.3125 311.945312 124.25 311.59375 124.171875 C 311.226562 124.082031 310.648438 124.015625 309.863281 123.964844 C 309.109375 123.917969 308.632812 123.894531 308.4375 123.894531 C 308.433594 123.894531 308.433594 123.894531 308.429688 123.894531 C 307.984375 123.890625 307.503906 123.886719 306.988281 123.886719 Z M 206.140625 126.175781 L 206.128906 126.175781 C 206.085938 126.183594 206.042969 126.203125 206 126.234375 C 205.859375 126.207031 205.710938 126.191406 205.566406 126.191406 C 205.445312 126.191406 205.324219 126.199219 205.199219 126.21875 C 204.984375 126.261719 204.828125 126.320312 204.730469 126.394531 C 203.871094 126.980469 202.816406 127.910156 201.566406 129.191406 C 200.210938 130.636719 199.125 131.980469 198.308594 133.222656 C 198.148438 133.472656 198.078125 133.695312 198.089844 133.882812 C 198.105469 133.9375 198.128906 133.984375 198.164062 134.027344 L 198.492188 134.324219 C 198.511719 134.351562 198.515625 134.375 198.503906 134.398438 L 199.121094 133.835938 L 200.179688 132.640625 L 201.652344 131.074219 C 201.84375 130.875 202.039062 130.679688 202.230469 130.496094 C 202.441406 130.257812 203.503906 129.34375 205.417969 127.746094 C 205.558594 127.621094 205.6875 127.496094 205.808594 127.367188 C 206.058594 127.054688 206.195312 126.8125 206.21875 126.636719 C 206.292969 126.359375 206.265625 126.207031 206.140625 126.175781 Z M 262.296875 133.777344 C 262.28125 133.777344 262.265625 133.777344 262.253906 133.78125 L 262.210938 133.78125 C 262.054688 133.78125 261.921875 133.792969 261.8125 133.8125 C 261.164062 133.9375 260.796875 134.011719 260.710938 134.039062 L 260.414062 134.066406 C 260.363281 134.078125 260.308594 134.097656 260.257812 134.117188 C 259.941406 134.25 259.726562 134.527344 259.613281 134.945312 C 259.53125 135.246094 259.5 135.625 259.523438 136.074219 C 259.601562 136.988281 259.691406 137.621094 259.800781 137.984375 C 259.878906 138.230469 259.929688 138.375 259.957031 138.421875 C 260.054688 138.632812 260.140625 138.785156 260.222656 138.882812 C 260.363281 139.0625 260.53125 139.160156 260.722656 139.171875 C 260.839844 139.171875 260.921875 139.125 260.964844 139.035156 C 260.984375 138.992188 260.988281 138.9375 260.980469 138.875 C 261.09375 138.625 261.167969 138.417969 261.210938 138.257812 C 261.238281 138.15625 261.261719 138.054688 261.277344 137.945312 L 261.296875 137.785156 C 261.308594 137.679688 261.308594 137.574219 261.296875 137.472656 C 261.25 137.109375 261.214844 136.722656 261.199219 136.316406 C 261.183594 135.667969 261.1875 135.332031 261.207031 135.300781 C 261.207031 135.289062 261.199219 135.28125 261.191406 135.28125 C 261.191406 135.28125 261.1875 135.28125 261.183594 135.28125 C 261.136719 135.320312 261.101562 135.335938 261.085938 135.335938 C 261.082031 135.335938 261.082031 135.335938 261.078125 135.332031 C 261.058594 135.320312 261.050781 135.285156 261.058594 135.230469 C 261.070312 135.183594 261.105469 135.152344 261.164062 135.125 C 261.609375 134.953125 261.960938 134.824219 262.230469 134.738281 L 262.597656 134.59375 C 262.621094 134.585938 262.648438 134.570312 262.675781 134.542969 C 262.6875 134.519531 262.699219 134.484375 262.707031 134.4375 C 262.714844 134.386719 262.726562 134.222656 262.734375 133.949219 C 262.738281 133.90625 262.742188 133.875 262.75 133.855469 L 262.761719 133.84375 C 262.566406 133.800781 262.410156 133.777344 262.296875 133.777344 Z M 543.40625 136.875 L 543.375 136.875 C 542.71875 136.894531 542.164062 137.039062 541.707031 137.300781 C 541.28125 137.519531 541.03125 137.8125 540.957031 138.179688 C 540.875 138.449219 540.84375 138.925781 540.859375 139.609375 C 540.882812 140.082031 540.957031 140.644531 541.089844 141.304688 C 541.136719 141.574219 541.234375 141.832031 541.378906 142.082031 C 541.574219 142.359375 541.742188 142.5 541.886719 142.503906 C 541.890625 142.503906 541.894531 142.503906 541.898438 142.503906 C 541.933594 142.503906 541.96875 142.480469 541.996094 142.4375 C 542.011719 142.390625 542.019531 142.351562 542.011719 142.316406 C 542.121094 142.179688 542.226562 142.003906 542.328125 141.792969 C 542.398438 141.609375 542.429688 141.5 542.425781 141.464844 C 542.4375 141.457031 542.4375 141.320312 542.425781 141.058594 L 542.375 139.761719 C 542.375 139.402344 542.378906 139.082031 542.386719 138.800781 C 542.398438 138.628906 542.40625 138.527344 542.417969 138.496094 C 542.421875 138.484375 542.414062 138.464844 542.402344 138.4375 C 542.398438 138.429688 542.402344 138.417969 542.40625 138.410156 C 542.421875 138.367188 542.476562 138.335938 542.570312 138.308594 C 543.03125 138.1875 543.390625 138.117188 543.648438 138.097656 C 543.71875 138.078125 543.765625 138.054688 543.789062 138.035156 C 543.875 137.945312 543.917969 137.894531 543.914062 137.875 L 543.96875 137.722656 L 544.085938 137.246094 C 544.09375 137.214844 544.109375 137.195312 544.125 137.191406 C 544.109375 137.1875 544.09375 137.179688 544.074219 137.164062 L 543.863281 136.976562 C 543.835938 136.953125 543.804688 136.9375 543.773438 136.921875 C 543.769531 136.894531 543.644531 136.878906 543.40625 136.875 Z M 584.964844 147.804688 L 584.878906 147.839844 C 583.875 148.292969 583.058594 148.851562 582.429688 149.523438 C 581.714844 150.296875 581.21875 151.125 580.945312 152.003906 C 580.808594 152.519531 580.742188 152.933594 580.753906 153.25 C 580.757812 153.75 580.824219 154.191406 580.953125 154.582031 C 580.996094 154.796875 581.242188 155.148438 581.683594 155.632812 C 581.972656 155.882812 582.140625 156.019531 582.199219 156.046875 C 582.261719 156.089844 582.320312 156.109375 582.378906 156.109375 C 582.417969 156.109375 582.457031 156.101562 582.492188 156.082031 C 582.570312 156.046875 582.628906 155.992188 582.667969 155.910156 L 582.675781 155.492188 C 582.652344 155.210938 582.644531 155.050781 582.648438 155.007812 C 582.679688 154.691406 582.691406 154.476562 582.679688 154.367188 C 582.6875 154.320312 582.652344 154.027344 582.570312 153.484375 C 582.558594 153.386719 582.554688 153.285156 582.554688 153.1875 C 582.574219 152.632812 582.617188 152.242188 582.6875 152.007812 C 582.785156 151.722656 582.921875 151.394531 583.109375 151.027344 C 583.21875 150.820312 583.347656 150.621094 583.496094 150.429688 C 583.644531 150.234375 583.8125 150.046875 584 149.859375 C 584.277344 149.582031 584.621094 149.273438 585.027344 148.933594 L 585.085938 148.828125 C 585.113281 148.757812 585.121094 148.679688 585.105469 148.597656 L 585.082031 148.476562 L 584.929688 148.019531 L 584.914062 147.929688 L 584.925781 147.855469 L 584.972656 147.804688 Z M 230.554688 150.261719 C 230.546875 150.261719 230.539062 150.261719 230.53125 150.261719 L 230.507812 150.261719 C 229.351562 150.292969 228 150.570312 226.449219 151.09375 C 225.410156 151.449219 224.417969 152.019531 223.46875 152.8125 C 222.976562 153.238281 222.617188 153.601562 222.390625 153.90625 C 222.277344 154.050781 222.140625 154.320312 221.976562 154.714844 L 221.226562 155.621094 C 221.101562 155.808594 220.957031 156.074219 220.785156 156.414062 C 220.5 156.976562 220.347656 157.460938 220.328125 157.859375 C 220.28125 158.371094 220.359375 158.648438 220.558594 158.691406 C 220.585938 158.691406 220.605469 158.683594 220.613281 158.675781 C 220.644531 158.652344 220.664062 158.625 220.675781 158.597656 C 220.859375 158.496094 221.027344 158.382812 221.179688 158.257812 C 221.292969 158.167969 221.394531 158.066406 221.488281 157.953125 C 221.558594 157.875 221.664062 157.730469 221.8125 157.519531 C 222.351562 156.6875 222.761719 156.078125 223.042969 155.695312 C 223.34375 155.261719 223.597656 154.941406 223.796875 154.730469 C 224.054688 154.414062 224.597656 153.945312 225.429688 153.332031 C 225.796875 153.0625 226.445312 152.742188 227.371094 152.378906 C 228.960938 151.808594 230.121094 151.4375 230.84375 151.265625 C 230.972656 151.222656 231.082031 151.164062 231.171875 151.089844 C 231.207031 151.058594 231.234375 151.019531 231.253906 150.972656 C 231.28125 150.917969 231.308594 150.777344 231.332031 150.546875 C 231.351562 150.488281 231.371094 150.460938 231.386719 150.457031 L 231.398438 150.457031 C 231.398438 150.457031 231.394531 150.453125 231.390625 150.453125 C 231.390625 150.453125 231.386719 150.453125 231.386719 150.457031 L 230.808594 150.292969 C 230.683594 150.273438 230.597656 150.261719 230.554688 150.261719 Z M 219.90625 160.328125 L 219.886719 160.339844 C 219.636719 160.421875 219.480469 160.496094 219.414062 160.574219 C 219.308594 160.660156 219.175781 160.832031 219.011719 161.09375 C 218.875 161.324219 218.753906 161.582031 218.648438 161.867188 C 218.617188 161.90625 218.542969 162.222656 218.417969 162.816406 C 218.34375 163.246094 218.304688 163.523438 218.308594 163.65625 C 218.304688 163.765625 218.3125 163.886719 218.324219 164.015625 C 218.347656 164.261719 218.367188 164.398438 218.382812 164.429688 C 218.410156 164.550781 218.480469 164.648438 218.585938 164.722656 C 218.6875 164.769531 218.777344 164.792969 218.859375 164.792969 C 218.902344 164.792969 218.941406 164.785156 218.980469 164.769531 C 219.003906 164.757812 219.011719 164.742188 219.011719 164.730469 C 219.085938 164.6875 219.160156 164.628906 219.238281 164.554688 C 219.292969 164.488281 219.324219 164.449219 219.324219 164.433594 L 219.476562 163.816406 C 219.511719 163.660156 219.566406 163.375 219.644531 162.964844 C 219.65625 162.902344 219.695312 162.742188 219.761719 162.480469 L 219.851562 162.070312 C 219.886719 161.933594 219.9375 161.773438 220.003906 161.585938 C 220.046875 161.472656 220.105469 161.335938 220.183594 161.179688 C 220.199219 161.136719 220.210938 161.101562 220.21875 161.0625 C 220.226562 161.015625 220.230469 160.964844 220.230469 160.910156 L 220.21875 160.863281 C 220.203125 160.828125 220.183594 160.789062 220.15625 160.746094 L 219.953125 160.433594 C 219.929688 160.40625 219.914062 160.371094 219.90625 160.328125 Z M 572.023438 160.941406 C 572.011719 160.941406 572.003906 160.941406 571.996094 160.941406 L 571.984375 160.941406 C 571.601562 160.976562 571.242188 161.054688 570.90625 161.183594 C 570.652344 161.277344 570.414062 161.414062 570.191406 161.589844 C 569.429688 162.226562 568.949219 162.828125 568.753906 163.394531 C 568.617188 163.773438 568.542969 164.136719 568.535156 164.480469 C 568.492188 165.261719 568.519531 165.761719 568.613281 165.988281 C 568.691406 166.335938 568.851562 166.648438 569.082031 166.929688 C 569.230469 167.101562 569.441406 167.199219 569.714844 167.222656 C 569.914062 167.207031 570.066406 167.140625 570.164062 167.03125 C 570.183594 167.007812 570.199219 166.988281 570.203125 166.964844 C 570.210938 166.945312 570.207031 166.925781 570.195312 166.910156 C 570.273438 166.738281 570.328125 166.585938 570.351562 166.457031 C 570.378906 166.394531 570.371094 166.289062 570.328125 166.136719 C 570.242188 165.835938 570.164062 165.601562 570.09375 165.421875 L 570.066406 165.324219 C 570.042969 165.214844 570.03125 165.074219 570.027344 164.902344 C 570.0625 164.179688 570.164062 163.6875 570.332031 163.417969 C 570.628906 162.933594 570.953125 162.5625 571.304688 162.304688 C 571.457031 162.1875 571.621094 162.074219 571.789062 161.972656 L 572.472656 161.625 C 572.59375 161.554688 572.660156 161.507812 572.675781 161.492188 L 572.914062 161.382812 C 572.957031 161.355469 573.007812 161.308594 573.058594 161.238281 C 573.089844 161.230469 573.113281 161.226562 573.140625 161.226562 C 573.152344 161.226562 573.164062 161.230469 573.175781 161.230469 L 573.039062 161.203125 C 572.644531 161.066406 572.414062 160.992188 572.347656 160.984375 C 572.1875 160.957031 572.078125 160.941406 572.023438 160.941406 Z M 596.554688 161.226562 C 596.304688 161.226562 595.988281 161.304688 595.59375 161.464844 C 595.292969 161.574219 595.007812 161.75 594.75 161.988281 C 594.203125 162.5 593.8125 163.175781 593.574219 164.023438 C 593.339844 164.949219 593.347656 165.742188 593.597656 166.402344 C 593.703125 166.738281 593.9375 167.089844 594.300781 167.457031 C 594.488281 167.660156 594.710938 167.769531 594.976562 167.789062 C 595.09375 167.789062 595.167969 167.757812 595.191406 167.699219 C 595.203125 167.667969 595.199219 167.636719 595.179688 167.605469 C 595.292969 167.328125 595.355469 167.125 595.363281 166.992188 C 595.375 166.90625 595.363281 166.785156 595.328125 166.632812 C 595.183594 166.019531 595.113281 165.683594 595.109375 165.628906 C 595.078125 165.414062 595.0625 165.222656 595.066406 165.0625 C 595.054688 164.703125 595.152344 164.222656 595.363281 163.628906 C 595.425781 163.472656 595.507812 163.328125 595.605469 163.199219 C 595.8125 162.917969 595.996094 162.707031 596.152344 162.566406 C 596.328125 162.414062 596.707031 162.210938 597.289062 161.960938 C 597.316406 161.941406 597.339844 161.910156 597.355469 161.875 C 597.371094 161.835938 597.382812 161.792969 597.394531 161.746094 C 597.421875 161.574219 597.441406 161.472656 597.457031 161.4375 C 597.464844 161.410156 597.480469 161.394531 597.503906 161.390625 L 597.011719 161.253906 C 596.941406 161.238281 596.816406 161.226562 596.636719 161.226562 L 596.589844 161.226562 C 596.578125 161.226562 596.566406 161.226562 596.554688 161.226562 Z M 584.800781 173.488281 C 584.792969 173.488281 584.789062 173.488281 584.785156 173.488281 L 584.742188 173.488281 C 584.738281 173.488281 584.730469 173.488281 584.726562 173.488281 C 584.496094 173.488281 584.175781 173.585938 583.761719 173.785156 C 583.367188 173.980469 583.074219 174.183594 582.871094 174.398438 C 582.269531 174.976562 581.824219 175.742188 581.546875 176.691406 C 581.34375 177.441406 581.335938 178.175781 581.523438 178.894531 C 581.585938 179.101562 581.789062 179.363281 582.136719 179.6875 C 582.441406 179.925781 582.679688 180.046875 582.839844 180.046875 C 582.855469 180.046875 582.867188 180.046875 582.878906 180.046875 C 583.121094 180.023438 583.28125 179.941406 583.359375 179.792969 C 583.359375 179.75 583.355469 179.726562 583.339844 179.722656 C 583.410156 179.488281 583.445312 179.292969 583.441406 179.136719 C 583.378906 178.898438 583.351562 178.773438 583.359375 178.765625 L 583.371094 178.433594 L 583.296875 177.925781 C 583.289062 177.816406 583.289062 177.703125 583.296875 177.582031 C 583.3125 177.183594 583.414062 176.761719 583.59375 176.316406 C 583.777344 175.867188 584.007812 175.5 584.289062 175.207031 C 584.363281 175.128906 584.449219 175.054688 584.550781 174.988281 C 584.582031 174.960938 584.75 174.867188 585.066406 174.699219 C 585.117188 174.667969 585.21875 174.597656 585.363281 174.480469 C 585.402344 174.457031 585.480469 174.230469 585.589844 173.796875 C 585.601562 173.761719 585.621094 173.742188 585.640625 173.738281 C 585.355469 173.617188 585.183594 173.546875 585.121094 173.535156 C 585.007812 173.503906 584.898438 173.488281 584.800781 173.488281 Z M 328.097656 137.789062 C 325.234375 137.789062 317.398438 138.324219 304.597656 139.398438 C 302.117188 139.660156 300.535156 140.359375 299.855469 141.5 C 299.523438 142.121094 299.34375 142.832031 299.320312 143.628906 L 299.101562 154.488281 L 299.121094 156.75 C 299.5 165.21875 299.921875 172.457031 300.382812 178.46875 C 300.578125 181.097656 300.894531 182.820312 301.324219 183.625 C 301.832031 181.753906 302.050781 180.015625 301.984375 178.40625 C 302.007812 173.828125 301.628906 166.234375 300.851562 155.617188 C 300.796875 152.882812 300.832031 149.011719 300.957031 144.003906 C 300.964844 143.320312 301.082031 142.738281 301.304688 142.246094 C 301.652344 141.625 303.359375 141.109375 306.433594 140.695312 C 315.386719 139.90625 324.550781 139.335938 333.925781 138.984375 C 333.929688 138.984375 333.933594 138.984375 333.9375 138.984375 C 334.03125 138.984375 334.171875 138.925781 334.359375 138.804688 C 334.5625 138.464844 334.714844 138.273438 334.8125 138.226562 L 334.816406 138.230469 C 334.847656 138.238281 334.882812 138.246094 334.914062 138.253906 C 334.898438 138.230469 334.878906 138.21875 334.855469 138.21875 C 334.84375 138.21875 334.828125 138.222656 334.8125 138.226562 L 334.8125 138.230469 C 333.695312 137.957031 331.835938 137.8125 329.234375 137.792969 L 328.675781 137.796875 C 328.515625 137.789062 328.320312 137.789062 328.097656 137.789062 Z M 227.121094 199.359375 L 227.097656 199.363281 C 227.078125 199.363281 226.945312 199.449219 226.707031 199.625 C 226.710938 199.628906 226.699219 199.648438 226.667969 199.679688 L 226.492188 199.839844 C 226.457031 199.875 226.4375 199.898438 226.4375 199.910156 L 226.417969 200.183594 C 226.417969 200.40625 226.417969 200.5625 226.417969 200.648438 L 226.398438 200.988281 L 226.378906 201.789062 C 226.382812 201.886719 226.382812 201.945312 226.386719 201.972656 C 226.398438 202.136719 226.410156 202.265625 226.410156 202.355469 C 226.414062 202.382812 226.417969 202.585938 226.421875 202.960938 C 226.4375 203.347656 226.441406 203.671875 226.445312 203.933594 C 226.449219 204.019531 226.476562 204.089844 226.527344 204.144531 C 226.59375 204.203125 226.65625 204.238281 226.710938 204.246094 C 226.878906 204.28125 227.0625 204.300781 227.265625 204.300781 C 227.359375 204.300781 227.457031 204.296875 227.554688 204.289062 C 227.726562 204.242188 227.847656 204.195312 227.921875 204.148438 C 227.980469 204.109375 228.007812 204.0625 228.007812 204.007812 C 228.027344 203.898438 228.035156 203.761719 228.03125 203.597656 L 228.019531 201.773438 C 228.019531 201.691406 228.015625 201.644531 228.015625 201.628906 L 227.929688 200.878906 C 227.925781 200.8125 227.898438 200.652344 227.855469 200.394531 C 227.828125 200.222656 227.804688 200.117188 227.796875 200.074219 C 227.734375 199.832031 227.699219 199.710938 227.691406 199.703125 C 227.617188 199.542969 227.554688 199.449219 227.496094 199.417969 C 227.46875 199.402344 227.4375 199.390625 227.394531 199.382812 Z M 301.898438 190.003906 L 301.878906 190.085938 C 301.628906 190.773438 301.496094 191.210938 301.476562 191.398438 C 301.355469 192.238281 301.261719 193.023438 301.195312 193.753906 C 301.113281 194.667969 301.050781 195.539062 301.003906 196.363281 C 300.976562 197.570312 300.964844 198.277344 300.964844 198.484375 C 300.964844 198.910156 300.96875 199.378906 300.976562 199.898438 C 301.003906 200.28125 301.03125 200.753906 301.058594 201.3125 C 301.074219 201.515625 301.097656 201.734375 301.132812 201.972656 C 301.222656 202.515625 301.292969 202.890625 301.339844 203.105469 L 301.675781 204.421875 C 301.769531 204.730469 301.882812 204.886719 302.011719 204.886719 C 302.027344 204.886719 302.039062 204.882812 302.050781 204.878906 C 302.070312 204.871094 302.082031 204.859375 302.09375 204.839844 C 302.105469 204.804688 302.113281 204.773438 302.109375 204.746094 C 302.183594 204.617188 302.234375 204.503906 302.269531 204.414062 C 302.320312 204.265625 302.347656 204.171875 302.351562 204.132812 L 302.371094 204.03125 C 302.378906 203.894531 302.394531 203.757812 302.421875 203.613281 C 302.554688 203.039062 302.617188 202.75 302.605469 202.742188 L 302.71875 201.824219 C 302.738281 201.667969 302.753906 201.507812 302.761719 201.347656 C 302.773438 200.761719 302.792969 200.316406 302.824219 200.011719 C 302.832031 199.75 302.839844 199.246094 302.847656 198.492188 C 302.847656 198.097656 302.84375 197.578125 302.832031 196.933594 L 302.835938 196.445312 L 302.824219 196.257812 C 302.847656 194.824219 302.855469 194.082031 302.851562 194.027344 C 302.855469 193.929688 302.851562 193.253906 302.84375 192 C 302.839844 191.722656 302.839844 191.558594 302.835938 191.511719 C 302.828125 190.996094 302.765625 190.632812 302.644531 190.429688 L 302.484375 190.289062 L 301.960938 190.101562 C 301.925781 190.078125 301.902344 190.046875 301.898438 190.003906 Z M 227.1875 205.914062 L 227.15625 205.929688 C 227.148438 205.929688 227.089844 205.988281 226.976562 206.109375 L 226.539062 206.609375 C 226.507812 206.644531 226.488281 206.660156 226.480469 206.664062 C 226.484375 206.664062 226.488281 206.6875 226.492188 206.742188 L 226.507812 206.773438 C 226.503906 206.78125 226.5 206.785156 226.496094 206.789062 L 226.457031 206.804688 C 226.449219 206.8125 226.445312 206.828125 226.4375 206.847656 C 226.4375 206.851562 226.4375 206.875 226.4375 206.914062 C 226.429688 206.945312 226.425781 206.964844 226.425781 206.972656 C 226.433594 207.015625 226.4375 207.09375 226.4375 207.199219 C 226.4375 207.222656 226.441406 207.242188 226.445312 207.265625 L 226.488281 207.382812 L 226.5 207.4375 C 226.515625 207.636719 226.539062 207.800781 226.570312 207.9375 C 226.578125 207.996094 226.621094 208.054688 226.691406 208.113281 C 226.777344 208.179688 226.867188 208.222656 226.964844 208.238281 C 227.042969 208.253906 227.128906 208.257812 227.21875 208.257812 C 227.292969 208.257812 227.367188 208.253906 227.449219 208.246094 L 227.515625 208.230469 C 227.539062 208.21875 227.546875 208.214844 227.542969 208.210938 C 227.601562 208.1875 227.660156 208.164062 227.714844 208.136719 C 227.820312 208.082031 227.886719 208.039062 227.90625 208.011719 C 227.933594 207.972656 227.957031 207.90625 227.976562 207.808594 C 227.988281 207.78125 227.988281 207.648438 227.980469 207.40625 C 227.980469 207.390625 227.96875 207.335938 227.949219 207.246094 C 227.9375 207.152344 227.929688 207.066406 227.925781 206.980469 C 227.921875 206.953125 227.914062 206.925781 227.910156 206.898438 C 227.902344 206.871094 227.894531 206.84375 227.882812 206.816406 L 227.789062 206.558594 L 227.660156 206.328125 L 227.632812 206.300781 C 227.601562 206.277344 227.582031 206.257812 227.566406 206.242188 C 227.5 206.15625 227.464844 206.113281 227.460938 206.113281 L 227.257812 205.949219 C 227.234375 205.929688 227.210938 205.917969 227.1875 205.914062 Z M 218.796875 210.714844 L 218.785156 210.714844 C 218.460938 210.722656 218.253906 210.726562 218.171875 210.730469 L 217.765625 210.753906 L 217.253906 210.792969 C 217.136719 210.808594 217.015625 210.824219 216.882812 210.835938 L 216.71875 210.871094 C 216.65625 210.875 216.605469 210.882812 216.566406 210.886719 L 216.140625 210.976562 L 215.867188 211.015625 C 215.808594 211.027344 215.773438 211.035156 215.761719 211.035156 C 215.714844 211.054688 215.675781 211.097656 215.652344 211.167969 L 215.625 211.5625 L 215.738281 211.664062 C 215.765625 211.679688 215.789062 211.691406 215.8125 211.691406 C 215.851562 211.699219 215.882812 211.703125 215.902344 211.707031 C 216.019531 211.710938 216.117188 211.714844 216.195312 211.726562 L 216.5 211.769531 L 216.613281 211.789062 L 216.78125 211.804688 C 216.820312 211.8125 216.9375 211.828125 217.140625 211.855469 C 217.1875 211.859375 217.269531 211.863281 217.390625 211.867188 L 218.769531 211.886719 C 219.492188 211.886719 220.339844 211.871094 221.3125 211.839844 L 221.710938 211.824219 C 221.792969 211.8125 221.871094 211.804688 221.949219 211.800781 C 221.929688 211.796875 222.085938 211.792969 222.421875 211.78125 C 222.5 211.777344 222.574219 211.773438 222.644531 211.761719 C 222.828125 211.742188 222.949219 211.707031 223.011719 211.652344 C 223.101562 211.5625 223.152344 211.445312 223.15625 211.292969 C 223.195312 211.277344 223.136719 211.148438 222.976562 210.898438 C 222.933594 210.855469 222.90625 210.835938 222.894531 210.835938 C 222.894531 210.835938 222.890625 210.835938 222.890625 210.835938 C 222.851562 210.828125 222.808594 210.820312 222.765625 210.8125 C 222.734375 210.808594 222.675781 210.804688 222.59375 210.800781 L 222.003906 210.789062 L 221.546875 210.765625 C 221.347656 210.757812 221.195312 210.753906 221.097656 210.75 C 220.761719 210.742188 219.992188 210.726562 218.796875 210.714844 Z M 579.90625 213.246094 L 579.832031 213.257812 L 578.011719 213.449219 C 577.835938 213.472656 577.550781 213.578125 577.15625 213.761719 C 576.203125 214.308594 575.144531 215.117188 573.976562 216.195312 C 572.691406 217.445312 571.734375 219.261719 571.109375 221.648438 C 570.746094 222.898438 570.527344 224.253906 570.453125 225.710938 C 570.390625 226.65625 570.5 227.679688 570.789062 228.785156 C 571.09375 230.054688 571.601562 231.207031 572.3125 232.238281 C 572.929688 233.15625 573.574219 233.617188 574.238281 233.617188 C 574.332031 233.59375 574.382812 233.542969 574.386719 233.46875 C 574.390625 233.417969 574.371094 233.359375 574.332031 233.296875 C 574.441406 232.824219 574.464844 232.363281 574.40625 231.910156 C 573.613281 229.515625 573.183594 227.769531 573.109375 226.675781 C 573.015625 225.449219 573.167969 223.925781 573.558594 222.109375 C 574.035156 220.65625 574.628906 219.394531 575.347656 218.320312 C 575.894531 217.535156 577.054688 216.386719 578.832031 214.871094 L 579.476562 214.039062 L 579.75 213.804688 C 579.8125 213.789062 579.84375 213.621094 579.84375 213.304688 Z M 260.535156 262.175781 L 260.53125 262.230469 C 260.539062 262.238281 260.507812 262.417969 260.449219 262.777344 C 260.429688 262.929688 260.417969 263.023438 260.417969 263.054688 C 260.414062 263.40625 260.421875 263.792969 260.4375 264.214844 C 260.453125 264.519531 260.46875 264.765625 260.488281 264.957031 L 260.574219 265.832031 L 260.640625 266.527344 C 260.652344 266.675781 260.683594 266.953125 260.730469 267.355469 C 260.746094 267.464844 260.757812 267.53125 260.765625 267.546875 C 260.835938 267.867188 261.046875 268.027344 261.398438 268.027344 C 261.410156 268.027344 261.417969 268.027344 261.429688 268.027344 C 261.488281 268.019531 261.535156 268.003906 261.5625 267.984375 C 261.582031 267.96875 261.59375 267.953125 261.59375 267.933594 C 261.703125 267.847656 261.785156 267.777344 261.832031 267.714844 C 261.902344 267.621094 261.941406 267.558594 261.945312 267.535156 C 261.960938 267.492188 261.96875 267.445312 261.96875 267.402344 C 261.960938 267.089844 261.945312 266.734375 261.921875 266.339844 C 261.847656 265.316406 261.800781 264.757812 261.785156 264.652344 C 261.753906 264.363281 261.71875 264.121094 261.683594 263.921875 C 261.585938 263.339844 261.523438 262.992188 261.484375 262.878906 C 261.410156 262.601562 261.328125 262.421875 261.242188 262.34375 C 261.199219 262.308594 261.148438 262.285156 261.089844 262.273438 L 260.605469 262.230469 C 260.570312 262.222656 260.546875 262.203125 260.535156 262.175781 Z M 544.589844 263.609375 L 544.566406 263.609375 C 544.257812 263.632812 543.957031 263.722656 543.667969 263.878906 C 543.351562 264.0625 543.125 264.238281 542.988281 264.40625 C 542.449219 265.03125 542.089844 265.695312 541.90625 266.398438 C 541.78125 266.898438 541.703125 267.464844 541.671875 268.089844 C 541.644531 268.398438 541.675781 268.757812 541.769531 269.167969 C 541.859375 269.511719 541.996094 269.789062 542.171875 269.996094 C 542.253906 270.09375 542.386719 270.199219 542.566406 270.3125 C 542.699219 270.394531 542.792969 270.4375 542.859375 270.4375 C 542.867188 270.4375 542.875 270.4375 542.882812 270.433594 C 543.042969 270.433594 543.191406 270.378906 543.332031 270.269531 L 543.351562 270.242188 C 543.359375 270.226562 543.363281 270.210938 543.355469 270.195312 C 543.402344 270.113281 543.453125 270.007812 543.503906 269.882812 C 543.546875 269.773438 543.570312 269.710938 543.574219 269.6875 C 543.628906 269.488281 543.660156 269.300781 543.667969 269.132812 C 543.671875 269.066406 543.671875 269 543.667969 268.9375 L 543.628906 268.289062 C 543.628906 268.171875 543.648438 267.996094 543.6875 267.761719 C 543.738281 267.328125 543.886719 266.769531 544.125 266.082031 C 544.21875 265.847656 544.34375 265.621094 544.5 265.402344 C 544.5625 265.316406 544.652344 265.207031 544.769531 265.070312 L 545.289062 264.523438 C 545.328125 264.480469 545.355469 264.429688 545.375 264.371094 C 545.390625 264.316406 545.402344 264.257812 545.410156 264.195312 L 545.433594 263.875 C 545.457031 263.808594 545.480469 263.773438 545.5 263.769531 L 545.507812 263.769531 L 545.519531 263.773438 C 545.515625 263.769531 545.511719 263.769531 545.507812 263.769531 L 545.503906 263.769531 L 544.871094 263.632812 Z M 544.589844 263.609375 " fill-opacity="1" fill-rule="nonzero"/></svg>